# Blender 4.1.0
# www.blender.org
mtllib FloorLeaves.mtl
o leaf_2.077
v 0.357336 -0.011318 -0.268926
v 0.355119 -0.009892 -0.241717
v 0.384546 -0.009892 -0.266710
v 0.382329 -0.011318 -0.239500
v 0.370964 -0.008471 -0.267791
v 0.363607 -0.009897 -0.261543
v 0.356251 -0.008471 -0.255295
v 0.383407 -0.008039 -0.253140
v 0.376051 -0.009466 -0.246892
v 0.368694 -0.008039 -0.240644
v 0.369832 -0.011318 -0.254213
v 0.232235 -0.026029 -0.625458
v 0.232235 -0.024603 -0.598159
v 0.259534 -0.024603 -0.625458
v 0.259534 -0.026029 -0.598159
v 0.245909 -0.023182 -0.625433
v 0.239085 -0.024608 -0.618609
v 0.232260 -0.023182 -0.611784
v 0.259502 -0.022750 -0.611841
v 0.252677 -0.024177 -0.605016
v 0.245852 -0.022750 -0.598191
v 0.245885 -0.026029 -0.611809
v 0.222089 -0.023956 -0.588747
v 0.222089 -0.022529 -0.561448
v 0.249388 -0.022529 -0.588747
v 0.249388 -0.023956 -0.561448
v 0.235764 -0.021108 -0.588722
v 0.228939 -0.022535 -0.581898
v 0.222114 -0.021108 -0.575073
v 0.249356 -0.020677 -0.575130
v 0.242531 -0.022104 -0.568305
v 0.235706 -0.020677 -0.561480
v 0.235739 -0.023956 -0.575098
v 0.240705 -0.021901 -0.556295
v 0.240705 -0.020474 -0.528995
v 0.268004 -0.020474 -0.556295
v 0.268004 -0.021901 -0.528995
v 0.254379 -0.019053 -0.556270
v 0.247555 -0.020480 -0.549445
v 0.240730 -0.019053 -0.542620
v 0.267972 -0.018622 -0.542678
v 0.261147 -0.020049 -0.535853
v 0.254322 -0.018622 -0.529028
v 0.254355 -0.021901 -0.542645
v 0.232235 -0.027926 -0.732508
v 0.232235 -0.026499 -0.705208
v 0.259534 -0.026499 -0.732508
v 0.259534 -0.027926 -0.705208
v 0.245909 -0.025078 -0.732483
v 0.239085 -0.026505 -0.725658
v 0.232260 -0.025078 -0.718833
v 0.259502 -0.024647 -0.718891
v 0.252677 -0.026073 -0.712066
v 0.245852 -0.024647 -0.705241
v 0.245885 -0.027926 -0.718858
v 0.222089 -0.027926 -0.695797
v 0.222089 -0.026499 -0.668498
v 0.249388 -0.026499 -0.695797
v 0.249388 -0.027926 -0.668498
v 0.235764 -0.025078 -0.695772
v 0.228939 -0.026505 -0.688947
v 0.222114 -0.025078 -0.682122
v 0.249356 -0.024647 -0.682180
v 0.242531 -0.026073 -0.675355
v 0.235706 -0.024647 -0.668530
v 0.235739 -0.027926 -0.682147
v 0.240705 -0.027926 -0.663345
v 0.240705 -0.026499 -0.636045
v 0.268004 -0.026499 -0.663345
v 0.268004 -0.027926 -0.636045
v 0.254379 -0.025078 -0.663320
v 0.247555 -0.026505 -0.656495
v 0.240730 -0.025078 -0.649670
v 0.267972 -0.024647 -0.649727
v 0.261147 -0.026073 -0.642902
v 0.254322 -0.024647 -0.636078
v 0.254355 -0.027926 -0.649695
v 0.172401 -0.025515 -0.626538
v 0.170184 -0.024088 -0.599328
v 0.199610 -0.024088 -0.624321
v 0.197393 -0.025515 -0.597112
v 0.186028 -0.022667 -0.625403
v 0.178672 -0.024094 -0.619154
v 0.171315 -0.022667 -0.612906
v 0.198472 -0.022236 -0.610751
v 0.191116 -0.023662 -0.604503
v 0.183759 -0.022236 -0.598255
v 0.184897 -0.025515 -0.611825
v 0.159307 -0.023024 -0.590772
v 0.157091 -0.021597 -0.563563
v 0.186517 -0.021597 -0.588555
v 0.184300 -0.023024 -0.561346
v 0.172935 -0.020176 -0.589637
v 0.165578 -0.021603 -0.583389
v 0.158222 -0.020176 -0.577140
v 0.185379 -0.019745 -0.574985
v 0.178022 -0.021171 -0.568737
v 0.170666 -0.019745 -0.562489
v 0.171804 -0.023024 -0.576059
v 0.175227 -0.019870 -0.556915
v 0.173010 -0.018444 -0.529706
v 0.202436 -0.018444 -0.554698
v 0.200219 -0.019870 -0.527489
v 0.188854 -0.017023 -0.555780
v 0.181498 -0.018450 -0.549532
v 0.174141 -0.017023 -0.543283
v 0.201298 -0.016592 -0.541129
v 0.193941 -0.018018 -0.534880
v 0.186585 -0.016592 -0.528632
v 0.187723 -0.019870 -0.542202
v 0.181093 -0.027926 -0.733234
v 0.178877 -0.026499 -0.706025
v 0.208303 -0.026499 -0.731017
v 0.206086 -0.027926 -0.703808
v 0.194721 -0.025078 -0.732099
v 0.187364 -0.026505 -0.725851
v 0.180008 -0.025078 -0.719603
v 0.207165 -0.024647 -0.717448
v 0.199808 -0.026073 -0.711199
v 0.192452 -0.024647 -0.704951
v 0.193590 -0.027926 -0.718521
v 0.168000 -0.027926 -0.697468
v 0.165783 -0.026499 -0.670259
v 0.195209 -0.026499 -0.695251
v 0.192993 -0.027926 -0.668042
v 0.181628 -0.025078 -0.696333
v 0.174271 -0.026505 -0.690085
v 0.166914 -0.025078 -0.683837
v 0.194071 -0.024647 -0.681682
v 0.186715 -0.026073 -0.675434
v 0.179358 -0.024647 -0.669185
v 0.180496 -0.027926 -0.682755
v 0.183919 -0.027926 -0.663611
v 0.181702 -0.026499 -0.636402
v 0.211129 -0.026499 -0.661394
v 0.208912 -0.027926 -0.634185
v 0.197547 -0.025078 -0.662476
v 0.190190 -0.026505 -0.656228
v 0.182834 -0.025078 -0.649980
v 0.209991 -0.024647 -0.647825
v 0.202634 -0.026073 -0.641576
v 0.195277 -0.024647 -0.635328
v 0.196416 -0.027926 -0.648898
v 0.345889 -0.025934 -0.625458
v 0.345889 -0.024508 -0.598159
v 0.373189 -0.024508 -0.625458
v 0.373189 -0.025934 -0.598159
v 0.359564 -0.023087 -0.625433
v 0.352739 -0.024513 -0.618609
v 0.345914 -0.023087 -0.611784
v 0.373156 -0.022655 -0.611841
v 0.366331 -0.024082 -0.605016
v 0.359506 -0.022655 -0.598191
v 0.359539 -0.025934 -0.611809
v 0.335743 -0.022501 -0.588747
v 0.335743 -0.021075 -0.561448
v 0.363043 -0.021075 -0.588747
v 0.363043 -0.022501 -0.561448
v 0.349418 -0.019654 -0.588722
v 0.342593 -0.021080 -0.581898
v 0.335768 -0.019654 -0.575073
v 0.363010 -0.019222 -0.575130
v 0.356186 -0.020649 -0.568305
v 0.349361 -0.019222 -0.561480
v 0.349393 -0.022501 -0.575098
v 0.354359 -0.020294 -0.556295
v 0.354359 -0.018867 -0.528995
v 0.381659 -0.018867 -0.556295
v 0.381659 -0.020294 -0.528995
v 0.368034 -0.017446 -0.556270
v 0.361209 -0.018873 -0.549445
v 0.354384 -0.017446 -0.542620
v 0.381626 -0.017015 -0.542678
v 0.374801 -0.018442 -0.535853
v 0.367976 -0.017015 -0.529028
v 0.368009 -0.020294 -0.542645
v 0.286055 -0.021472 -0.626538
v 0.283838 -0.020045 -0.599328
v 0.313265 -0.020045 -0.624321
v 0.311048 -0.021472 -0.597112
v 0.299683 -0.018624 -0.625403
v 0.292326 -0.020051 -0.619154
v 0.284970 -0.018624 -0.612906
v 0.312127 -0.018193 -0.610751
v 0.304770 -0.019620 -0.604503
v 0.297413 -0.018193 -0.598255
v 0.298552 -0.021472 -0.611825
v 0.272962 -0.023636 -0.590772
v 0.270745 -0.022209 -0.563563
v 0.300171 -0.022209 -0.588555
v 0.297955 -0.023636 -0.561346
v 0.286589 -0.020788 -0.589637
v 0.279233 -0.022215 -0.583389
v 0.271876 -0.020788 -0.577140
v 0.299033 -0.020357 -0.574985
v 0.291677 -0.021783 -0.568737
v 0.284320 -0.020357 -0.562489
v 0.285458 -0.023636 -0.576059
v 0.288881 -0.022313 -0.556915
v 0.286664 -0.020886 -0.529706
v 0.316091 -0.020886 -0.554698
v 0.313874 -0.022313 -0.527489
v 0.302509 -0.019465 -0.555780
v 0.295152 -0.020892 -0.549532
v 0.287796 -0.019465 -0.543283
v 0.314952 -0.019034 -0.541129
v 0.307596 -0.020460 -0.534880
v 0.300239 -0.019034 -0.528632
v 0.301377 -0.022313 -0.542202
v 0.297574 -0.028055 -0.663611
v 0.295357 -0.026628 -0.636402
v 0.324783 -0.026628 -0.661394
v 0.322566 -0.028055 -0.634185
v 0.311201 -0.025207 -0.662476
v 0.303845 -0.026634 -0.656228
v 0.296488 -0.025207 -0.649980
v 0.323645 -0.024776 -0.647825
v 0.316288 -0.026203 -0.641577
v 0.308932 -0.024776 -0.635328
v 0.310070 -0.028055 -0.648898
v 0.345889 -0.027926 -0.699372
v 0.345889 -0.026499 -0.672072
v 0.373189 -0.026499 -0.699372
v 0.373189 -0.027926 -0.672072
v 0.359564 -0.025078 -0.699347
v 0.352739 -0.026505 -0.692522
v 0.345914 -0.025078 -0.685697
v 0.373156 -0.024647 -0.685754
v 0.366331 -0.026073 -0.678929
v 0.359507 -0.024647 -0.672104
v 0.359539 -0.027926 -0.685722
v 0.297574 -0.027926 -0.737525
v 0.295357 -0.026499 -0.710315
v 0.324783 -0.026499 -0.735308
v 0.322566 -0.027926 -0.708098
v 0.311201 -0.025078 -0.736389
v 0.303845 -0.026505 -0.730141
v 0.296488 -0.025078 -0.723893
v 0.323645 -0.024647 -0.721738
v 0.316288 -0.026073 -0.715490
v 0.308932 -0.024647 -0.709242
v 0.310070 -0.027926 -0.722811
v 0.390712 -0.021204 -0.625458
v 0.390712 -0.019777 -0.598159
v 0.418012 -0.019777 -0.625458
v 0.418012 -0.021204 -0.598159
v 0.404387 -0.018357 -0.625433
v 0.397562 -0.019783 -0.618609
v 0.390737 -0.018357 -0.611784
v 0.417979 -0.017925 -0.611841
v 0.411154 -0.019352 -0.605016
v 0.404329 -0.017925 -0.598191
v 0.404362 -0.021204 -0.611809
v 0.380566 -0.019947 -0.588747
v 0.380566 -0.018521 -0.561448
v 0.407866 -0.018521 -0.588747
v 0.407866 -0.019947 -0.561448
v 0.394241 -0.017100 -0.588722
v 0.387416 -0.018527 -0.581898
v 0.380591 -0.017100 -0.575073
v 0.407833 -0.016668 -0.575130
v 0.401008 -0.018095 -0.568305
v 0.394183 -0.016668 -0.561480
v 0.394216 -0.019947 -0.575098
v 0.399182 -0.018569 -0.556295
v 0.399182 -0.017142 -0.528995
v 0.426482 -0.017142 -0.556295
v 0.426482 -0.018569 -0.528995
v 0.412857 -0.015721 -0.556270
v 0.406032 -0.017148 -0.549445
v 0.399207 -0.015721 -0.542620
v 0.426449 -0.015290 -0.542678
v 0.419624 -0.016717 -0.535853
v 0.412799 -0.015290 -0.529028
v 0.412832 -0.018569 -0.542645
v 0.390712 -0.022503 -0.675144
v 0.390712 -0.021076 -0.647845
v 0.418012 -0.021076 -0.675144
v 0.418012 -0.022503 -0.647845
v 0.404387 -0.019655 -0.675119
v 0.397562 -0.021082 -0.668294
v 0.390737 -0.019655 -0.661470
v 0.417979 -0.019224 -0.661527
v 0.411154 -0.020650 -0.654702
v 0.404329 -0.019224 -0.647877
v 0.404362 -0.022503 -0.661495
v 0.354359 -0.012707 -0.503725
v 0.354359 -0.011280 -0.476425
v 0.381659 -0.011280 -0.503725
v 0.381659 -0.012707 -0.476425
v 0.368034 -0.009859 -0.503700
v 0.361209 -0.011286 -0.496875
v 0.354384 -0.009859 -0.490050
v 0.381626 -0.009428 -0.490107
v 0.374801 -0.010855 -0.483282
v 0.367976 -0.009428 -0.476457
v 0.368009 -0.012707 -0.490075
v 0.399182 -0.017035 -0.503725
v 0.399182 -0.015609 -0.476425
v 0.426482 -0.015609 -0.503725
v 0.426482 -0.017035 -0.476425
v 0.412857 -0.014188 -0.503700
v 0.406032 -0.015614 -0.496875
v 0.399207 -0.014188 -0.490050
v 0.426449 -0.013756 -0.490107
v 0.419624 -0.015183 -0.483282
v 0.412799 -0.013756 -0.476457
v 0.412832 -0.017035 -0.490075
v 0.267784 -0.019652 -0.511523
v 0.267784 -0.018225 -0.484224
v 0.295084 -0.018225 -0.511523
v 0.295084 -0.019652 -0.484224
v 0.281459 -0.016804 -0.511499
v 0.274634 -0.018231 -0.504674
v 0.267809 -0.016804 -0.497849
v 0.295052 -0.016373 -0.497906
v 0.288227 -0.017800 -0.491081
v 0.281402 -0.016373 -0.484256
v 0.281434 -0.019652 -0.497874
v 0.202306 -0.011449 -0.512144
v 0.200090 -0.010022 -0.484934
v 0.229516 -0.010022 -0.509927
v 0.227299 -0.011449 -0.482717
v 0.215934 -0.008602 -0.511008
v 0.208577 -0.010028 -0.504760
v 0.201221 -0.008602 -0.498512
v 0.228378 -0.008170 -0.496357
v 0.221021 -0.009597 -0.490109
v 0.213665 -0.008170 -0.483861
v 0.214803 -0.011449 -0.497430
v 0.315961 -0.020513 -0.481193
v 0.313744 -0.019086 -0.453984
v 0.343170 -0.019086 -0.478976
v 0.340953 -0.020513 -0.451767
v 0.329588 -0.017665 -0.480058
v 0.322232 -0.019092 -0.473810
v 0.314875 -0.017665 -0.467561
v 0.342032 -0.017234 -0.465406
v 0.334676 -0.018661 -0.459158
v 0.327319 -0.017234 -0.452910
v 0.328457 -0.020513 -0.466480
v 0.423585 -0.012526 -0.475536
v 0.423585 -0.011099 -0.448237
v 0.450884 -0.011099 -0.475536
v 0.450884 -0.012526 -0.448237
v 0.437259 -0.009678 -0.475511
v 0.430435 -0.011105 -0.468686
v 0.423610 -0.009678 -0.461862
v 0.450852 -0.009247 -0.461919
v 0.444027 -0.010673 -0.455094
v 0.437202 -0.009247 -0.448269
v 0.437235 -0.012526 -0.461887
v 0.385186 -0.014953 -0.453005
v 0.382970 -0.013526 -0.425795
v 0.412396 -0.013526 -0.450788
v 0.410179 -0.014953 -0.423579
v 0.398814 -0.012105 -0.451869
v 0.391457 -0.013532 -0.445621
v 0.384101 -0.012105 -0.439373
v 0.411258 -0.011674 -0.437218
v 0.403901 -0.013100 -0.430970
v 0.396545 -0.011674 -0.424722
v 0.397683 -0.014953 -0.438292
v 0.442881 -0.016339 -0.625458
v 0.442881 -0.014912 -0.598159
v 0.470181 -0.014912 -0.625458
v 0.470181 -0.016339 -0.598159
v 0.456556 -0.013491 -0.625433
v 0.449731 -0.014918 -0.618609
v 0.442906 -0.013491 -0.611784
v 0.470148 -0.013060 -0.611841
v 0.463324 -0.014486 -0.605016
v 0.456499 -0.013060 -0.598191
v 0.456531 -0.016339 -0.611809
v 0.432736 -0.015082 -0.588747
v 0.432735 -0.013655 -0.561448
v 0.460035 -0.013655 -0.588747
v 0.460035 -0.015082 -0.561448
v 0.446410 -0.012234 -0.588722
v 0.439585 -0.013661 -0.581898
v 0.432760 -0.012234 -0.575073
v 0.460003 -0.011803 -0.575130
v 0.453178 -0.013230 -0.568305
v 0.446353 -0.011803 -0.561480
v 0.446385 -0.015082 -0.575098
v 0.451351 -0.013703 -0.556295
v 0.451351 -0.012277 -0.528995
v 0.478651 -0.012277 -0.556295
v 0.478651 -0.013703 -0.528995
v 0.465026 -0.010856 -0.556270
v 0.458201 -0.012283 -0.549445
v 0.451376 -0.010856 -0.542620
v 0.478618 -0.010424 -0.542678
v 0.471794 -0.011851 -0.535853
v 0.464969 -0.010424 -0.529028
v 0.465001 -0.013703 -0.542645
v 0.442881 -0.017637 -0.675144
v 0.442881 -0.016210 -0.647845
v 0.470181 -0.016210 -0.675144
v 0.470181 -0.017637 -0.647845
v 0.456556 -0.014789 -0.675119
v 0.449731 -0.016216 -0.668294
v 0.442906 -0.014789 -0.661470
v 0.470148 -0.014358 -0.661527
v 0.463324 -0.015785 -0.654702
v 0.456499 -0.014358 -0.647877
v 0.456531 -0.017637 -0.661494
v 0.454971 -0.007703 -0.520598
v 0.454971 -0.006276 -0.493299
v 0.482271 -0.006276 -0.520598
v 0.482271 -0.007703 -0.493299
v 0.468646 -0.004855 -0.520573
v 0.461821 -0.006282 -0.513749
v 0.454996 -0.004855 -0.506924
v 0.482239 -0.004424 -0.506981
v 0.475414 -0.005850 -0.500156
v 0.468589 -0.004424 -0.493331
v 0.468621 -0.007703 -0.506949
v 0.473587 -0.006324 -0.488146
v 0.473587 -0.004897 -0.460846
v 0.500887 -0.004897 -0.488146
v 0.500887 -0.006324 -0.460846
v 0.487262 -0.003476 -0.488121
v 0.480437 -0.004903 -0.481296
v 0.473612 -0.003476 -0.474471
v 0.500854 -0.003045 -0.474529
v 0.494030 -0.004472 -0.467704
v 0.487205 -0.003045 -0.460879
v 0.487237 -0.006324 -0.474496
v 0.116249 -0.026120 -0.626538
v 0.114033 -0.024693 -0.599328
v 0.143459 -0.024693 -0.624321
v 0.141242 -0.026120 -0.597112
v 0.129877 -0.023272 -0.625403
v 0.122520 -0.024699 -0.619154
v 0.115164 -0.023272 -0.612906
v 0.142321 -0.022841 -0.610751
v 0.134964 -0.024268 -0.604503
v 0.127608 -0.022841 -0.598255
v 0.128746 -0.026120 -0.611825
v 0.124942 -0.035857 -0.733234
v 0.122725 -0.034431 -0.706025
v 0.152151 -0.034431 -0.731017
v 0.149935 -0.035857 -0.703808
v 0.138569 -0.033010 -0.732099
v 0.131213 -0.034436 -0.725851
v 0.123856 -0.033010 -0.719603
v 0.151013 -0.032578 -0.717448
v 0.143657 -0.034005 -0.711199
v 0.136300 -0.032578 -0.704951
v 0.137438 -0.035857 -0.718521
v 0.111849 -0.032186 -0.697468
v 0.109632 -0.030759 -0.670259
v 0.139058 -0.030759 -0.695251
v 0.136841 -0.032186 -0.668042
v 0.125476 -0.029338 -0.696333
v 0.118120 -0.030765 -0.690085
v 0.110763 -0.029338 -0.683837
v 0.137920 -0.028907 -0.681682
v 0.130563 -0.030334 -0.675434
v 0.123207 -0.028907 -0.669185
v 0.124345 -0.032186 -0.682755
v 0.127768 -0.028092 -0.663611
v 0.125551 -0.026665 -0.636402
v 0.154977 -0.026665 -0.661394
v 0.152760 -0.028092 -0.634185
v 0.141395 -0.025244 -0.662476
v 0.134039 -0.026671 -0.656228
v 0.126682 -0.025244 -0.649980
v 0.153839 -0.024813 -0.647825
v 0.146483 -0.026240 -0.641577
v 0.139126 -0.024813 -0.635328
v 0.140264 -0.028092 -0.648898
v 0.081446 -0.035857 -0.733234
v 0.079229 -0.034431 -0.706025
v 0.108655 -0.034431 -0.731017
v 0.106438 -0.035857 -0.703808
v 0.095073 -0.033010 -0.732099
v 0.087717 -0.034436 -0.725851
v 0.080360 -0.033010 -0.719602
v 0.107517 -0.032578 -0.717448
v 0.100161 -0.034005 -0.711199
v 0.092804 -0.032578 -0.704951
v 0.093942 -0.035857 -0.718521
v 0.068352 -0.032186 -0.697468
v 0.066136 -0.030759 -0.670259
v 0.095562 -0.030759 -0.695251
v 0.093345 -0.032186 -0.668042
v 0.081980 -0.029338 -0.696333
v 0.074623 -0.030765 -0.690085
v 0.067267 -0.029338 -0.683837
v 0.094424 -0.028907 -0.681682
v 0.087067 -0.030334 -0.675434
v 0.079711 -0.028907 -0.669185
v 0.080849 -0.032186 -0.682755
v 0.084272 -0.028092 -0.663611
v 0.082055 -0.026665 -0.636402
v 0.111481 -0.026665 -0.661394
v 0.109264 -0.028092 -0.634185
v 0.097899 -0.025244 -0.662476
v 0.090543 -0.026671 -0.656228
v 0.083186 -0.025244 -0.649980
v 0.110343 -0.024813 -0.647825
v 0.102986 -0.026240 -0.641577
v 0.095630 -0.024813 -0.635328
v 0.096768 -0.028092 -0.648898
v 0.084272 -0.028092 -0.663611
v 0.082055 -0.026665 -0.636402
v 0.111481 -0.026665 -0.661394
v 0.109264 -0.028092 -0.634185
v 0.097899 -0.025244 -0.662476
v 0.090543 -0.026671 -0.656228
v 0.083186 -0.025244 -0.649980
v 0.110343 -0.024813 -0.647825
v 0.102986 -0.026240 -0.641577
v 0.095630 -0.024813 -0.635328
v 0.096768 -0.028092 -0.648898
v 0.029163 -0.043723 -0.733234
v 0.026946 -0.042297 -0.706025
v 0.056372 -0.042297 -0.731017
v 0.054155 -0.043723 -0.703808
v 0.042790 -0.040876 -0.732099
v 0.035434 -0.042302 -0.725851
v 0.028077 -0.040876 -0.719603
v 0.055234 -0.040444 -0.717448
v 0.047877 -0.041871 -0.711199
v 0.040521 -0.040444 -0.704951
v 0.041659 -0.043723 -0.718521
v 0.016069 -0.036706 -0.697468
v 0.013852 -0.035279 -0.670259
v 0.043279 -0.035279 -0.695251
v 0.041062 -0.036706 -0.668042
v 0.029697 -0.033858 -0.696333
v 0.022340 -0.035285 -0.690085
v 0.014984 -0.033858 -0.683837
v 0.042141 -0.033427 -0.681682
v 0.034784 -0.034854 -0.675434
v 0.027427 -0.033427 -0.669185
v 0.028566 -0.036706 -0.682755
v 0.031988 -0.028542 -0.663611
v 0.029772 -0.027115 -0.636402
v 0.059198 -0.027115 -0.661394
v 0.056981 -0.028542 -0.634185
v 0.045616 -0.025694 -0.662476
v 0.038259 -0.027121 -0.656228
v 0.030903 -0.025694 -0.649980
v 0.058060 -0.025263 -0.647825
v 0.050703 -0.026690 -0.641577
v 0.043347 -0.025263 -0.635328
v 0.044485 -0.028542 -0.648898
v -0.054283 -0.050269 -0.711777
v -0.056500 -0.048843 -0.684568
v -0.027074 -0.048843 -0.709561
v -0.029291 -0.050269 -0.682351
v -0.040656 -0.047422 -0.710642
v -0.048012 -0.048848 -0.704394
v -0.055369 -0.047422 -0.698146
v -0.028212 -0.046990 -0.695991
v -0.035569 -0.048417 -0.689743
v -0.042925 -0.046990 -0.683494
v -0.041787 -0.050269 -0.697064
v -0.026945 -0.043942 -0.697468
v -0.029162 -0.042515 -0.670259
v 0.000264 -0.042515 -0.695251
v -0.001953 -0.043942 -0.668042
v -0.013318 -0.041094 -0.696333
v -0.020674 -0.042521 -0.690085
v -0.028031 -0.041094 -0.683837
v -0.000874 -0.040663 -0.681682
v -0.008231 -0.042089 -0.675434
v -0.015587 -0.040663 -0.669185
v -0.014449 -0.043942 -0.682755
v -0.011026 -0.034443 -0.663611
v -0.013243 -0.033017 -0.636402
v 0.016183 -0.033017 -0.661394
v 0.013967 -0.034443 -0.634185
v 0.002601 -0.031596 -0.662476
v -0.004755 -0.033022 -0.656228
v -0.012112 -0.031596 -0.649980
v 0.015045 -0.031164 -0.647825
v 0.007689 -0.032591 -0.641577
v 0.000332 -0.031164 -0.635328
v 0.001470 -0.034443 -0.648898
v -0.110100 -0.049101 -0.658037
v -0.112316 -0.047674 -0.630827
v -0.082890 -0.047674 -0.655820
v -0.085107 -0.049101 -0.628610
v -0.096472 -0.046253 -0.656901
v -0.103829 -0.047680 -0.650653
v -0.111185 -0.046253 -0.644405
v -0.084028 -0.045822 -0.642250
v -0.091385 -0.047249 -0.636002
v -0.098741 -0.045822 -0.629754
v -0.097603 -0.049101 -0.643323
v -0.082762 -0.052558 -0.697468
v -0.084978 -0.051131 -0.670259
v -0.055552 -0.051131 -0.695251
v -0.057769 -0.052558 -0.668042
v -0.069134 -0.049710 -0.696333
v -0.076491 -0.051137 -0.690085
v -0.083847 -0.049710 -0.683837
v -0.056690 -0.049279 -0.681682
v -0.064047 -0.050706 -0.675434
v -0.071403 -0.049279 -0.669185
v -0.070265 -0.052558 -0.682755
v -0.066842 -0.043060 -0.663611
v -0.069059 -0.041633 -0.636402
v -0.039633 -0.041633 -0.661394
v -0.041850 -0.043060 -0.634185
v -0.053215 -0.040212 -0.662476
v -0.060571 -0.041639 -0.656228
v -0.067928 -0.040212 -0.649980
v -0.040771 -0.039781 -0.647825
v -0.048128 -0.041207 -0.641577
v -0.055484 -0.039781 -0.635328
v -0.054346 -0.043060 -0.648898
v -0.143423 -0.059894 -0.673848
v -0.145640 -0.058467 -0.646638
v -0.116213 -0.058467 -0.671631
v -0.118430 -0.059894 -0.644422
v -0.129795 -0.057046 -0.672713
v -0.137152 -0.058473 -0.666464
v -0.144508 -0.057046 -0.660216
v -0.117351 -0.056615 -0.658061
v -0.124708 -0.058041 -0.651813
v -0.132065 -0.056615 -0.645565
v -0.130927 -0.059894 -0.659135
v -0.147248 -0.049101 -0.620847
v -0.149465 -0.047674 -0.593637
v -0.120038 -0.047674 -0.618630
v -0.122255 -0.049101 -0.591421
v -0.133620 -0.046253 -0.619712
v -0.140977 -0.047680 -0.613463
v -0.148333 -0.046253 -0.607215
v -0.121177 -0.045822 -0.605060
v -0.128533 -0.047249 -0.598812
v -0.135890 -0.045822 -0.592564
v -0.134752 -0.049101 -0.606134
v -0.180571 -0.052271 -0.636658
v -0.182788 -0.050844 -0.609449
v -0.153362 -0.050844 -0.634441
v -0.155579 -0.052271 -0.607232
v -0.166944 -0.049423 -0.635523
v -0.174300 -0.050850 -0.629275
v -0.181657 -0.049423 -0.623027
v -0.154500 -0.048992 -0.620872
v -0.161856 -0.050418 -0.614623
v -0.169213 -0.048992 -0.608375
v -0.168075 -0.052271 -0.621945
v -0.191030 -0.062285 -0.660812
v -0.193246 -0.060858 -0.633603
v -0.163820 -0.060858 -0.658596
v -0.166037 -0.062285 -0.631386
v -0.177402 -0.059437 -0.659677
v -0.184759 -0.060864 -0.653429
v -0.192115 -0.059437 -0.647181
v -0.164958 -0.059006 -0.645026
v -0.172315 -0.060432 -0.638778
v -0.179671 -0.059006 -0.632529
v -0.178533 -0.062285 -0.646099
v -0.204901 -0.048137 -0.592866
v -0.207117 -0.046710 -0.565657
v -0.177691 -0.046710 -0.590650
v -0.179908 -0.048137 -0.563440
v -0.191273 -0.045289 -0.591731
v -0.198630 -0.046716 -0.585483
v -0.205986 -0.045289 -0.579235
v -0.178829 -0.044858 -0.577080
v -0.186186 -0.046285 -0.570832
v -0.193542 -0.044858 -0.564584
v -0.192404 -0.048137 -0.578153
v -0.238224 -0.057614 -0.636658
v -0.240441 -0.056188 -0.609449
v -0.211015 -0.056188 -0.634441
v -0.213231 -0.057614 -0.607232
v -0.224597 -0.054767 -0.635523
v -0.231953 -0.056193 -0.629275
v -0.239310 -0.054767 -0.623027
v -0.212153 -0.054335 -0.620872
v -0.219509 -0.055762 -0.614623
v -0.226866 -0.054335 -0.608375
v -0.225728 -0.057614 -0.621945
v -0.248682 -0.067628 -0.660812
v -0.250899 -0.066202 -0.633603
v -0.221473 -0.066202 -0.658596
v -0.223690 -0.067628 -0.631386
v -0.235055 -0.064781 -0.659677
v -0.242411 -0.066208 -0.653429
v -0.249768 -0.064781 -0.647181
v -0.222611 -0.064349 -0.645026
v -0.229968 -0.065776 -0.638778
v -0.237324 -0.064349 -0.632529
v -0.236186 -0.067628 -0.646099
v -0.252839 -0.037945 -0.492852
v -0.255056 -0.036518 -0.465643
v -0.225630 -0.036518 -0.490635
v -0.227846 -0.037945 -0.463426
v -0.239212 -0.035097 -0.491717
v -0.246568 -0.036524 -0.485469
v -0.253925 -0.035097 -0.479221
v -0.226768 -0.034666 -0.477066
v -0.234124 -0.036093 -0.470818
v -0.241481 -0.034666 -0.464569
v -0.240343 -0.037945 -0.478139
v -0.286162 -0.047423 -0.536644
v -0.288379 -0.045996 -0.509434
v -0.258953 -0.045996 -0.534427
v -0.261170 -0.047423 -0.507218
v -0.272535 -0.044575 -0.535509
v -0.279891 -0.046002 -0.529261
v -0.287248 -0.044575 -0.523012
v -0.260091 -0.044144 -0.520857
v -0.267448 -0.045570 -0.514609
v -0.274804 -0.044144 -0.508361
v -0.273666 -0.047423 -0.521931
v -0.296621 -0.058426 -0.582680
v -0.298838 -0.056999 -0.555470
v -0.269411 -0.056999 -0.580463
v -0.271628 -0.058426 -0.553254
v -0.282993 -0.055578 -0.581544
v -0.290350 -0.057005 -0.575296
v -0.297706 -0.055578 -0.569048
v -0.270550 -0.055147 -0.566893
v -0.277906 -0.056574 -0.560645
v -0.285263 -0.055147 -0.554397
v -0.284125 -0.058426 -0.567967
v -0.213570 -0.038683 -0.492852
v -0.215787 -0.037256 -0.465643
v -0.186360 -0.037256 -0.490635
v -0.188577 -0.038683 -0.463426
v -0.199942 -0.035835 -0.491717
v -0.207299 -0.037262 -0.485469
v -0.214655 -0.035835 -0.479221
v -0.187498 -0.035404 -0.477066
v -0.194855 -0.036831 -0.470818
v -0.202212 -0.035404 -0.464569
v -0.201073 -0.038683 -0.478139
v -0.213570 -0.040142 -0.545747
v -0.215787 -0.038715 -0.518538
v -0.186360 -0.038715 -0.543530
v -0.188577 -0.040142 -0.516321
v -0.199942 -0.037294 -0.544612
v -0.207299 -0.038721 -0.538364
v -0.214655 -0.037294 -0.532116
v -0.187499 -0.036863 -0.529961
v -0.194855 -0.038290 -0.523712
v -0.202212 -0.036863 -0.517464
v -0.201073 -0.040142 -0.531034
v -0.253456 -0.049880 -0.571529
v -0.255673 -0.048453 -0.544320
v -0.226247 -0.048453 -0.569313
v -0.228463 -0.049880 -0.542103
v -0.239828 -0.047032 -0.570394
v -0.247185 -0.048459 -0.564146
v -0.254542 -0.047032 -0.557898
v -0.227385 -0.046601 -0.555743
v -0.234741 -0.048027 -0.549495
v -0.242098 -0.046601 -0.543246
v -0.240960 -0.049880 -0.556816
v 0.315961 -0.020288 -0.411300
v 0.313744 -0.018862 -0.384090
v 0.343170 -0.018862 -0.409083
v 0.340953 -0.020288 -0.381874
v 0.329588 -0.017441 -0.410165
v 0.322232 -0.018867 -0.403916
v 0.314875 -0.017441 -0.397668
v 0.342032 -0.017009 -0.395513
v 0.334676 -0.018436 -0.389265
v 0.327319 -0.017009 -0.383017
v 0.328457 -0.020288 -0.396587
v 0.423585 -0.012301 -0.405643
v 0.423585 -0.010874 -0.378344
v 0.450884 -0.010874 -0.405643
v 0.450884 -0.012301 -0.378344
v 0.437259 -0.009453 -0.405618
v 0.430435 -0.010880 -0.398793
v 0.423610 -0.009453 -0.391968
v 0.450852 -0.009022 -0.392026
v 0.444027 -0.010449 -0.385201
v 0.437202 -0.009022 -0.378376
v 0.437235 -0.012301 -0.391993
v 0.385186 -0.014728 -0.383112
v 0.382970 -0.013301 -0.355902
v 0.412396 -0.013301 -0.380895
v 0.410179 -0.014728 -0.353685
v 0.398814 -0.011880 -0.381976
v 0.391457 -0.013307 -0.375728
v 0.384101 -0.011880 -0.369480
v 0.411258 -0.011449 -0.367325
v 0.403901 -0.012876 -0.361077
v 0.396545 -0.011449 -0.354829
v 0.397683 -0.014728 -0.368398
v 0.473587 -0.006099 -0.418253
v 0.473587 -0.004673 -0.390953
v 0.500887 -0.004673 -0.418253
v 0.500887 -0.006099 -0.390953
v 0.487262 -0.003252 -0.418228
v 0.480437 -0.004678 -0.411403
v 0.473612 -0.003252 -0.404578
v 0.500854 -0.002820 -0.404635
v 0.494030 -0.004247 -0.397811
v 0.487205 -0.002820 -0.390986
v 0.487237 -0.006099 -0.404603
v 0.315961 -0.018822 -0.347480
v 0.313744 -0.017395 -0.320270
v 0.343170 -0.017395 -0.345263
v 0.340953 -0.018822 -0.318053
v 0.329588 -0.015974 -0.346344
v 0.322232 -0.017401 -0.340096
v 0.314875 -0.015974 -0.333848
v 0.342032 -0.015543 -0.331693
v 0.334676 -0.016970 -0.325445
v 0.327319 -0.015543 -0.319197
v 0.328457 -0.018822 -0.332766
v 0.423585 -0.011328 -0.341823
v 0.423585 -0.009902 -0.314523
v 0.450884 -0.009902 -0.341823
v 0.450884 -0.011328 -0.314523
v 0.437259 -0.008481 -0.341798
v 0.430435 -0.009907 -0.334973
v 0.423610 -0.008481 -0.328148
v 0.450852 -0.008049 -0.328206
v 0.444027 -0.009476 -0.321381
v 0.437202 -0.008049 -0.314556
v 0.437235 -0.011328 -0.328173
v 0.385186 -0.012744 -0.319291
v 0.382970 -0.011317 -0.292082
v 0.412396 -0.011317 -0.317075
v 0.410179 -0.012744 -0.289865
v 0.398814 -0.009896 -0.318156
v 0.391457 -0.011323 -0.311908
v 0.384101 -0.009896 -0.305660
v 0.411258 -0.009465 -0.303505
v 0.403901 -0.010892 -0.297257
v 0.396545 -0.009465 -0.291008
v 0.397683 -0.012744 -0.304578
v 0.473587 -0.006099 -0.354432
v 0.473587 -0.004673 -0.327133
v 0.500887 -0.004673 -0.354432
v 0.500887 -0.006099 -0.327133
v 0.487262 -0.003252 -0.354408
v 0.480437 -0.004678 -0.347583
v 0.473612 -0.003252 -0.340758
v 0.500854 -0.002820 -0.340815
v 0.494030 -0.004247 -0.333990
v 0.487205 -0.002820 -0.327165
v 0.487237 -0.006099 -0.340783
v 0.450453 -0.008057 -0.291458
v 0.450453 -0.006630 -0.264158
v 0.477752 -0.006630 -0.291458
v 0.477752 -0.008057 -0.264158
v 0.464127 -0.005209 -0.291433
v 0.457302 -0.006636 -0.284608
v 0.450477 -0.005209 -0.277783
v 0.477720 -0.004778 -0.277841
v 0.470895 -0.006204 -0.271016
v 0.464070 -0.004778 -0.264191
v 0.464102 -0.008057 -0.277808
vn -0.0695 0.9942 -0.0824
vn -0.0476 0.9760 -0.2125
vn 0.1214 0.9822 0.1430
vn -0.2020 0.9760 -0.0814
vn -0.0940 0.9894 -0.1106
vn 0.0552 0.9963 0.0655
vn 0.0255 0.9820 0.1871
vn 0.1805 0.9820 0.0554
vn -0.0145 0.9998 -0.0164
vn -0.0709 0.9970 0.0303
vn -0.0760 0.9942 -0.0765
vn -0.0647 0.9760 -0.2079
vn 0.1327 0.9822 0.1327
vn -0.2079 0.9760 -0.0647
vn -0.1026 0.9894 -0.1026
vn 0.0604 0.9963 0.0608
vn 0.0406 0.9820 0.1844
vn 0.1844 0.9820 0.0406
vn -0.0158 0.9998 -0.0152
vn -0.0683 0.9970 0.0359
vn -0.0684 0.9970 0.0358
vn -0.0682 0.9970 0.0360
vn -0.0159 0.9998 -0.0152
vn -0.0157 0.9998 -0.0152
vn -0.0710 0.9970 0.0302
vn -0.0144 0.9998 -0.0164
vn 0.1215 0.9822 0.1430
vn -0.0709 0.9970 0.0304
vn -0.0939 0.9894 -0.1106
vn -0.0711 0.9970 0.0301
vn -0.0146 0.9998 -0.0164
vn 0.0415 0.9970 -0.0650
vn 0.0360 0.9970 -0.0682
vn 0.0361 0.9970 -0.0681
vn 0.0359 0.9970 -0.0683
vn 0.0413 0.9970 -0.0652
vn 0.0362 0.9970 -0.0681
vn 0.0414 0.9970 -0.0651
vn 0.0416 0.9970 -0.0649
vt 0.203865 0.938375
vt 0.254071 0.888722
vt 0.254082 0.988017
vt 0.153658 0.988027
vt 0.053213 0.789448
vt 0.103430 0.839090
vt 0.053223 0.888743
vt 0.153637 0.789438
vt 0.153647 0.888733
vt 0.053234 0.988038
vt 0.254061 0.789427
s 1
usemtl leaves2.001
f 9/1/1 10/2/2 4/3/3
f 8/4/4 9/1/1 4/3/3
f 1/5/5 6/6/6 5/7/7
f 1/5/5 7/8/8 6/6/6
f 11/9/9 8/4/4 3/10/10
f 11/9/9 10/2/2 9/1/1
f 5/7/7 11/9/9 3/10/10
f 7/8/8 11/9/9 6/6/6
f 20/1/11 21/2/12 15/3/13
f 19/4/14 20/1/11 15/3/13
f 12/5/15 17/6/16 16/7/17
f 12/5/15 18/8/18 17/6/16
f 22/9/19 19/4/14 14/10/20
f 22/9/19 21/2/12 20/1/11
f 16/7/17 22/9/19 14/10/20
f 18/8/18 22/9/19 17/6/16
f 31/1/11 32/2/12 26/3/13
f 30/4/14 31/1/11 26/3/13
f 23/5/15 28/6/16 27/7/17
f 23/5/15 29/8/18 28/6/16
f 33/9/19 30/4/14 25/10/21
f 33/9/19 32/2/12 31/1/11
f 27/7/17 33/9/19 25/10/21
f 29/8/18 33/9/19 28/6/16
f 42/1/11 43/2/12 37/3/13
f 41/4/14 42/1/11 37/3/13
f 34/5/15 39/6/16 38/7/17
f 34/5/15 40/8/18 39/6/16
f 44/9/19 41/4/14 36/10/22
f 44/9/19 43/2/12 42/1/11
f 38/7/17 44/9/19 36/10/22
f 40/8/18 44/9/19 39/6/16
f 53/1/11 54/2/12 48/3/13
f 52/4/14 53/1/11 48/3/13
f 45/5/15 50/6/16 49/7/17
f 45/5/15 51/8/18 50/6/16
f 55/9/23 52/4/14 47/10/22
f 55/9/23 54/2/12 53/1/11
f 49/7/17 55/9/23 47/10/22
f 51/8/18 55/9/23 50/6/16
f 64/1/11 65/2/12 59/3/13
f 63/4/14 64/1/11 59/3/13
f 56/5/15 61/6/16 60/7/17
f 56/5/15 62/8/18 61/6/16
f 66/9/19 63/4/14 58/10/20
f 66/9/19 65/2/12 64/1/11
f 60/7/17 66/9/19 58/10/20
f 62/8/18 66/9/19 61/6/16
f 75/1/11 76/2/12 70/3/13
f 74/4/14 75/1/11 70/3/13
f 67/5/15 72/6/16 71/7/17
f 67/5/15 73/8/18 72/6/16
f 77/9/24 74/4/14 69/10/20
f 77/9/24 76/2/12 75/1/11
f 71/7/17 77/9/24 69/10/20
f 73/8/18 77/9/24 72/6/16
f 86/1/1 87/2/2 81/3/3
f 85/4/4 86/1/1 81/3/3
f 78/5/5 83/6/6 82/7/7
f 78/5/5 84/8/8 83/6/6
f 88/9/9 85/4/4 80/10/25
f 88/9/9 87/2/2 86/1/1
f 82/7/7 88/9/9 80/10/25
f 84/8/8 88/9/9 83/6/6
f 97/1/1 98/2/2 92/3/3
f 96/4/4 97/1/1 92/3/3
f 89/5/5 94/6/6 93/7/7
f 89/5/5 95/8/8 94/6/6
f 99/9/9 96/4/4 91/10/25
f 99/9/9 98/2/2 97/1/1
f 93/7/7 99/9/9 91/10/25
f 95/8/8 99/9/9 94/6/6
f 108/1/1 109/2/2 103/3/3
f 107/4/4 108/1/1 103/3/3
f 100/5/5 105/6/6 104/7/7
f 100/5/5 106/8/8 105/6/6
f 110/9/9 107/4/4 102/10/25
f 110/9/9 109/2/2 108/1/1
f 104/7/7 110/9/9 102/10/25
f 106/8/8 110/9/9 105/6/6
f 119/1/1 120/2/2 114/3/3
f 118/4/4 119/1/1 114/3/3
f 111/5/5 116/6/6 115/7/7
f 111/5/5 117/8/8 116/6/6
f 121/9/26 118/4/4 113/10/25
f 121/9/26 120/2/2 119/1/1
f 115/7/7 121/9/26 113/10/25
f 117/8/8 121/9/26 116/6/6
f 130/1/1 131/2/2 125/3/3
f 129/4/4 130/1/1 125/3/3
f 122/5/5 127/6/6 126/7/7
f 122/5/5 128/8/8 127/6/6
f 132/9/9 129/4/4 124/10/25
f 132/9/9 131/2/2 130/1/1
f 126/7/7 132/9/9 124/10/25
f 128/8/8 132/9/9 127/6/6
f 141/1/1 142/2/2 136/3/27
f 140/4/4 141/1/1 136/3/27
f 133/5/5 138/6/6 137/7/7
f 133/5/5 139/8/8 138/6/6
f 143/9/26 140/4/4 135/10/25
f 143/9/26 142/2/2 141/1/1
f 137/7/7 143/9/26 135/10/25
f 139/8/8 143/9/26 138/6/6
f 152/1/11 153/2/12 147/3/13
f 151/4/14 152/1/11 147/3/13
f 144/5/15 149/6/16 148/7/17
f 144/5/15 150/8/18 149/6/16
f 154/9/24 151/4/14 146/10/22
f 154/9/24 153/2/12 152/1/11
f 148/7/17 154/9/24 146/10/22
f 150/8/18 154/9/24 149/6/16
f 163/1/11 164/2/12 158/3/13
f 162/4/14 163/1/11 158/3/13
f 155/5/15 160/6/16 159/7/17
f 155/5/15 161/8/18 160/6/16
f 165/9/19 162/4/14 157/10/21
f 165/9/19 164/2/12 163/1/11
f 159/7/17 165/9/19 157/10/21
f 161/8/18 165/9/19 160/6/16
f 174/1/11 175/2/12 169/3/13
f 173/4/14 174/1/11 169/3/13
f 166/5/15 171/6/16 170/7/17
f 166/5/15 172/8/18 171/6/16
f 176/9/23 173/4/14 168/10/20
f 176/9/23 175/2/12 174/1/11
f 170/7/17 176/9/23 168/10/20
f 172/8/18 176/9/23 171/6/16
f 185/1/1 186/2/2 180/3/3
f 184/4/4 185/1/1 180/3/3
f 177/5/5 182/6/6 181/7/7
f 177/5/5 183/8/8 182/6/6
f 187/9/26 184/4/4 179/10/25
f 187/9/26 186/2/2 185/1/1
f 181/7/7 187/9/26 179/10/25
f 183/8/8 187/9/26 182/6/6
f 196/1/1 197/2/2 191/3/3
f 195/4/4 196/1/1 191/3/3
f 188/5/5 193/6/6 192/7/7
f 188/5/5 194/8/8 193/6/6
f 198/9/9 195/4/4 190/10/10
f 198/9/9 197/2/2 196/1/1
f 192/7/7 198/9/9 190/10/10
f 194/8/8 198/9/9 193/6/6
f 207/1/1 208/2/2 202/3/3
f 206/4/4 207/1/1 202/3/3
f 199/5/5 204/6/6 203/7/7
f 199/5/5 205/8/8 204/6/6
f 209/9/9 206/4/4 201/10/25
f 209/9/9 208/2/2 207/1/1
f 203/7/7 209/9/9 201/10/25
f 205/8/8 209/9/9 204/6/6
f 218/1/1 219/2/2 213/3/3
f 217/4/4 218/1/1 213/3/3
f 210/5/5 215/6/6 214/7/7
f 210/5/5 216/8/8 215/6/6
f 220/9/26 217/4/4 212/10/28
f 220/9/26 219/2/2 218/1/1
f 214/7/7 220/9/26 212/10/28
f 216/8/8 220/9/26 215/6/6
f 229/1/11 230/2/12 224/3/13
f 228/4/14 229/1/11 224/3/13
f 221/5/15 226/6/16 225/7/17
f 221/5/15 227/8/18 226/6/16
f 231/9/23 228/4/14 223/10/20
f 231/9/23 230/2/12 229/1/11
f 225/7/17 231/9/23 223/10/20
f 227/8/18 231/9/23 226/6/16
f 240/1/1 241/2/2 235/3/3
f 239/4/4 240/1/1 235/3/3
f 232/5/5 237/6/6 236/7/7
f 232/5/5 238/8/8 237/6/6
f 242/9/9 239/4/4 234/10/25
f 242/9/9 241/2/2 240/1/1
f 236/7/7 242/9/9 234/10/25
f 238/8/8 242/9/9 237/6/6
f 251/1/11 252/2/12 246/3/13
f 250/4/14 251/1/11 246/3/13
f 243/5/15 248/6/16 247/7/17
f 243/5/15 249/8/18 248/6/16
f 253/9/19 250/4/14 245/10/22
f 253/9/19 252/2/12 251/1/11
f 247/7/17 253/9/19 245/10/22
f 249/8/18 253/9/19 248/6/16
f 262/1/11 263/2/12 257/3/13
f 261/4/14 262/1/11 257/3/13
f 254/5/15 259/6/16 258/7/17
f 254/5/15 260/8/18 259/6/16
f 264/9/19 261/4/14 256/10/20
f 264/9/19 263/2/12 262/1/11
f 258/7/17 264/9/19 256/10/20
f 260/8/18 264/9/19 259/6/16
f 273/1/11 274/2/12 268/3/13
f 272/4/14 273/1/11 268/3/13
f 265/5/15 270/6/16 269/7/17
f 265/5/15 271/8/18 270/6/16
f 275/9/23 272/4/14 267/10/20
f 275/9/23 274/2/12 273/1/11
f 269/7/17 275/9/23 267/10/20
f 271/8/18 275/9/23 270/6/16
f 284/1/11 285/2/12 279/3/13
f 283/4/14 284/1/11 279/3/13
f 276/5/15 281/6/16 280/7/17
f 276/5/15 282/8/18 281/6/16
f 286/9/19 283/4/14 278/10/20
f 286/9/19 285/2/12 284/1/11
f 280/7/17 286/9/19 278/10/20
f 282/8/18 286/9/19 281/6/16
f 295/1/11 296/2/12 290/3/13
f 294/4/14 295/1/11 290/3/13
f 287/5/15 292/6/16 291/7/17
f 287/5/15 293/8/18 292/6/16
f 297/9/19 294/4/14 289/10/20
f 297/9/19 296/2/12 295/1/11
f 291/7/17 297/9/19 289/10/20
f 293/8/18 297/9/19 292/6/16
f 306/1/11 307/2/12 301/3/13
f 305/4/14 306/1/11 301/3/13
f 298/5/15 303/6/16 302/7/17
f 298/5/15 304/8/18 303/6/16
f 308/9/19 305/4/14 300/10/20
f 308/9/19 307/2/12 306/1/11
f 302/7/17 308/9/19 300/10/20
f 304/8/18 308/9/19 303/6/16
f 317/1/11 318/2/12 312/3/13
f 316/4/14 317/1/11 312/3/13
f 309/5/15 314/6/16 313/7/17
f 309/5/15 315/8/18 314/6/16
f 319/9/19 316/4/14 311/10/20
f 319/9/19 318/2/12 317/1/11
f 313/7/17 319/9/19 311/10/20
f 315/8/18 319/9/19 314/6/16
f 328/1/1 329/2/2 323/3/3
f 327/4/4 328/1/1 323/3/3
f 320/5/5 325/6/6 324/7/7
f 320/5/5 326/8/8 325/6/6
f 330/9/9 327/4/4 322/10/25
f 330/9/9 329/2/2 328/1/1
f 324/7/7 330/9/9 322/10/25
f 326/8/8 330/9/9 325/6/6
f 339/1/1 340/2/2 334/3/3
f 338/4/4 339/1/1 334/3/3
f 331/5/29 336/6/6 335/7/7
f 331/5/29 337/8/8 336/6/6
f 341/9/26 338/4/4 333/10/10
f 341/9/26 340/2/2 339/1/1
f 335/7/7 341/9/26 333/10/10
f 337/8/8 341/9/26 336/6/6
f 350/1/11 351/2/12 345/3/13
f 349/4/14 350/1/11 345/3/13
f 342/5/15 347/6/16 346/7/17
f 342/5/15 348/8/18 347/6/16
f 352/9/19 349/4/14 344/10/22
f 352/9/19 351/2/12 350/1/11
f 346/7/17 352/9/19 344/10/22
f 348/8/18 352/9/19 347/6/16
f 361/1/1 362/2/2 356/3/3
f 360/4/4 361/1/1 356/3/3
f 353/5/5 358/6/6 357/7/7
f 353/5/5 359/8/8 358/6/6
f 363/9/26 360/4/4 355/10/25
f 363/9/26 362/2/2 361/1/1
f 357/7/7 363/9/26 355/10/25
f 359/8/8 363/9/26 358/6/6
f 372/1/11 373/2/12 367/3/13
f 371/4/14 372/1/11 367/3/13
f 364/5/15 369/6/16 368/7/17
f 364/5/15 370/8/18 369/6/16
f 374/9/19 371/4/14 366/10/20
f 374/9/19 373/2/12 372/1/11
f 368/7/17 374/9/19 366/10/20
f 370/8/18 374/9/19 369/6/16
f 383/1/11 384/2/12 378/3/13
f 382/4/14 383/1/11 378/3/13
f 375/5/15 380/6/16 379/7/17
f 375/5/15 381/8/18 380/6/16
f 385/9/23 382/4/14 377/10/20
f 385/9/23 384/2/12 383/1/11
f 379/7/17 385/9/23 377/10/20
f 381/8/18 385/9/23 380/6/16
f 394/1/11 395/2/12 389/3/13
f 393/4/14 394/1/11 389/3/13
f 386/5/15 391/6/16 390/7/17
f 386/5/15 392/8/18 391/6/16
f 396/9/19 393/4/14 388/10/21
f 396/9/19 395/2/12 394/1/11
f 390/7/17 396/9/19 388/10/21
f 392/8/18 396/9/19 391/6/16
f 405/1/11 406/2/12 400/3/13
f 404/4/14 405/1/11 400/3/13
f 397/5/15 402/6/16 401/7/17
f 397/5/15 403/8/18 402/6/16
f 407/9/19 404/4/14 399/10/22
f 407/9/19 406/2/12 405/1/11
f 401/7/17 407/9/19 399/10/22
f 403/8/18 407/9/19 402/6/16
f 416/1/11 417/2/12 411/3/13
f 415/4/14 416/1/11 411/3/13
f 408/5/15 413/6/16 412/7/17
f 408/5/15 414/8/18 413/6/16
f 418/9/19 415/4/14 410/10/20
f 418/9/19 417/2/12 416/1/11
f 412/7/17 418/9/19 410/10/20
f 414/8/18 418/9/19 413/6/16
f 427/1/11 428/2/12 422/3/13
f 426/4/14 427/1/11 422/3/13
f 419/5/15 424/6/16 423/7/17
f 419/5/15 425/8/18 424/6/16
f 429/9/19 426/4/14 421/10/20
f 429/9/19 428/2/12 427/1/11
f 423/7/17 429/9/19 421/10/20
f 425/8/18 429/9/19 424/6/16
f 438/1/1 439/2/2 433/3/3
f 437/4/4 438/1/1 433/3/3
f 430/5/5 435/6/6 434/7/7
f 430/5/5 436/8/8 435/6/6
f 440/9/26 437/4/4 432/10/25
f 440/9/26 439/2/2 438/1/1
f 434/7/7 440/9/26 432/10/25
f 436/8/8 440/9/26 435/6/6
f 449/1/1 450/2/2 444/3/3
f 448/4/4 449/1/1 444/3/3
f 441/5/29 446/6/6 445/7/7
f 441/5/29 447/8/8 446/6/6
f 451/9/26 448/4/4 443/10/25
f 451/9/26 450/2/2 449/1/1
f 445/7/7 451/9/26 443/10/25
f 447/8/8 451/9/26 446/6/6
f 460/1/1 461/2/2 455/3/3
f 459/4/4 460/1/1 455/3/3
f 452/5/5 457/6/6 456/7/7
f 452/5/5 458/8/8 457/6/6
f 462/9/9 459/4/4 454/10/30
f 462/9/9 461/2/2 460/1/1
f 456/7/7 462/9/9 454/10/30
f 458/8/8 462/9/9 457/6/6
f 471/1/1 472/2/2 466/3/3
f 470/4/4 471/1/1 466/3/3
f 463/5/5 468/6/6 467/7/7
f 463/5/5 469/8/8 468/6/6
f 473/9/26 470/4/4 465/10/25
f 473/9/26 472/2/2 471/1/1
f 467/7/7 473/9/26 465/10/25
f 469/8/8 473/9/26 468/6/6
f 482/1/1 483/2/2 477/3/27
f 481/4/4 482/1/1 477/3/27
f 474/5/5 479/6/6 478/7/7
f 474/5/5 480/8/8 479/6/6
f 484/9/31 481/4/4 476/10/25
f 484/9/31 483/2/2 482/1/1
f 478/7/7 484/9/31 476/10/25
f 480/8/8 484/9/31 479/6/6
f 493/1/1 494/2/2 488/3/3
f 492/4/4 493/1/1 488/3/3
f 485/5/29 490/6/6 489/7/7
f 485/5/29 491/8/8 490/6/6
f 495/9/9 492/4/4 487/10/25
f 495/9/9 494/2/2 493/1/1
f 489/7/7 495/9/9 487/10/25
f 491/8/8 495/9/9 490/6/6
f 504/1/1 505/2/2 499/3/3
f 503/4/4 504/1/1 499/3/3
f 496/5/5 501/6/6 500/7/7
f 496/5/5 502/8/8 501/6/6
f 506/9/9 503/4/4 498/10/25
f 506/9/9 505/2/2 504/1/1
f 500/7/7 506/9/9 498/10/25
f 502/8/8 506/9/9 501/6/6
f 515/1/1 516/2/2 510/3/3
f 514/4/4 515/1/1 510/3/3
f 507/5/5 512/6/6 511/7/7
f 507/5/5 513/8/8 512/6/6
f 517/9/9 514/4/4 509/10/25
f 517/9/9 516/2/2 515/1/1
f 511/7/7 517/9/9 509/10/25
f 513/8/8 517/9/9 512/6/6
f 526/1/1 527/2/2 521/3/3
f 525/4/4 526/1/1 521/3/3
f 518/5/5 523/6/6 522/7/7
f 518/5/5 524/8/8 523/6/6
f 528/9/26 525/4/4 520/10/25
f 528/9/26 527/2/2 526/1/1
f 522/7/7 528/9/26 520/10/25
f 524/8/8 528/9/26 523/6/6
f 537/1/1 538/2/2 532/3/27
f 536/4/4 537/1/1 532/3/27
f 529/5/5 534/6/6 533/7/7
f 529/5/5 535/8/8 534/6/6
f 539/9/9 536/4/4 531/10/25
f 539/9/9 538/2/2 537/1/1
f 533/7/7 539/9/9 531/10/25
f 535/8/8 539/9/9 534/6/6
f 548/1/1 549/2/2 543/3/3
f 547/4/4 548/1/1 543/3/3
f 540/5/5 545/6/6 544/7/7
f 540/5/5 546/8/8 545/6/6
f 550/9/9 547/4/4 542/10/28
f 550/9/9 549/2/2 548/1/1
f 544/7/7 550/9/9 542/10/28
f 546/8/8 550/9/9 545/6/6
f 559/1/1 560/2/2 554/3/3
f 558/4/4 559/1/1 554/3/3
f 551/5/5 556/6/6 555/7/7
f 551/5/5 557/8/8 556/6/6
f 561/9/9 558/4/4 553/10/25
f 561/9/9 560/2/2 559/1/1
f 555/7/7 561/9/9 553/10/25
f 557/8/8 561/9/9 556/6/6
f 570/1/1 571/2/2 565/3/3
f 569/4/4 570/1/1 565/3/3
f 562/5/29 567/6/6 566/7/7
f 562/5/29 568/8/8 567/6/6
f 572/9/31 569/4/4 564/10/30
f 572/9/31 571/2/2 570/1/1
f 566/7/7 572/9/31 564/10/30
f 568/8/8 572/9/31 567/6/6
f 581/1/1 582/2/2 576/3/3
f 580/4/4 581/1/1 576/3/3
f 573/5/5 578/6/6 577/7/7
f 573/5/5 579/8/8 578/6/6
f 583/9/31 580/4/4 575/10/10
f 583/9/31 582/2/2 581/1/1
f 577/7/7 583/9/31 575/10/10
f 579/8/8 583/9/31 578/6/6
f 592/1/1 593/2/2 587/3/27
f 591/4/4 592/1/1 587/3/27
f 584/5/5 589/6/6 588/7/7
f 584/5/5 590/8/8 589/6/6
f 594/9/31 591/4/4 586/10/25
f 594/9/31 593/2/2 592/1/1
f 588/7/7 594/9/31 586/10/25
f 590/8/8 594/9/31 589/6/6
f 603/1/1 604/2/2 598/3/27
f 602/4/4 603/1/1 598/3/27
f 595/5/5 600/6/6 599/7/7
f 595/5/5 601/8/8 600/6/6
f 605/9/9 602/4/4 597/10/25
f 605/9/9 604/2/2 603/1/1
f 599/7/7 605/9/9 597/10/25
f 601/8/8 605/9/9 600/6/6
f 614/1/1 615/2/2 609/3/3
f 613/4/4 614/1/1 609/3/3
f 606/5/5 611/6/6 610/7/7
f 606/5/5 612/8/8 611/6/6
f 616/9/31 613/4/4 608/10/25
f 616/9/31 615/2/2 614/1/1
f 610/7/7 616/9/31 608/10/25
f 612/8/8 616/9/31 611/6/6
f 625/1/1 626/2/2 620/3/3
f 624/4/4 625/1/1 620/3/3
f 617/5/5 622/6/6 621/7/7
f 617/5/5 623/8/8 622/6/6
f 627/9/26 624/4/4 619/10/30
f 627/9/26 626/2/2 625/1/1
f 621/7/7 627/9/26 619/10/30
f 623/8/8 627/9/26 622/6/6
f 636/1/1 637/2/2 631/3/3
f 635/4/4 636/1/1 631/3/3
f 628/5/29 633/6/6 632/7/7
f 628/5/29 634/8/8 633/6/6
f 638/9/9 635/4/4 630/10/25
f 638/9/9 637/2/2 636/1/1
f 632/7/7 638/9/9 630/10/25
f 634/8/8 638/9/9 633/6/6
f 647/1/1 648/2/2 642/3/27
f 646/4/4 647/1/1 642/3/27
f 639/5/29 644/6/6 643/7/7
f 639/5/29 645/8/8 644/6/6
f 649/9/9 646/4/4 641/10/28
f 649/9/9 648/2/2 647/1/1
f 643/7/7 649/9/9 641/10/28
f 645/8/8 649/9/9 644/6/6
f 658/1/1 659/2/2 653/3/27
f 657/4/4 658/1/1 653/3/27
f 650/5/29 655/6/6 654/7/7
f 650/5/29 656/8/8 655/6/6
f 660/9/31 657/4/4 652/10/25
f 660/9/31 659/2/2 658/1/1
f 654/7/7 660/9/31 652/10/25
f 656/8/8 660/9/31 655/6/6
f 669/1/1 670/2/2 664/3/3
f 668/4/4 669/1/1 664/3/3
f 661/5/29 666/6/6 665/7/7
f 661/5/29 667/8/8 666/6/6
f 671/9/9 668/4/4 663/10/25
f 671/9/9 670/2/2 669/1/1
f 665/7/7 671/9/9 663/10/25
f 667/8/8 671/9/9 666/6/6
f 680/1/1 681/2/2 675/3/3
f 679/4/4 680/1/1 675/3/3
f 672/5/29 677/6/6 676/7/7
f 672/5/29 678/8/8 677/6/6
f 682/9/9 679/4/4 674/10/25
f 682/9/9 681/2/2 680/1/1
f 676/7/7 682/9/9 674/10/25
f 678/8/8 682/9/9 677/6/6
f 691/1/1 692/2/2 686/3/3
f 690/4/4 691/1/1 686/3/3
f 683/5/29 688/6/6 687/7/7
f 683/5/29 689/8/8 688/6/6
f 693/9/26 690/4/4 685/10/10
f 693/9/26 692/2/2 691/1/1
f 687/7/7 693/9/26 685/10/10
f 689/8/8 693/9/26 688/6/6
f 702/1/1 703/2/2 697/3/3
f 701/4/4 702/1/1 697/3/3
f 694/5/29 699/6/6 698/7/7
f 694/5/29 700/8/8 699/6/6
f 704/9/9 701/4/4 696/10/10
f 704/9/9 703/2/2 702/1/1
f 698/7/7 704/9/9 696/10/10
f 700/8/8 704/9/9 699/6/6
f 713/1/1 714/2/2 708/3/3
f 712/4/4 713/1/1 708/3/3
f 705/5/29 710/6/6 709/7/7
f 705/5/29 711/8/8 710/6/6
f 715/9/9 712/4/4 707/10/25
f 715/9/9 714/2/2 713/1/1
f 709/7/7 715/9/9 707/10/25
f 711/8/8 715/9/9 710/6/6
f 724/1/1 725/2/2 719/3/3
f 723/4/4 724/1/1 719/3/3
f 716/5/5 721/6/6 720/7/7
f 716/5/5 722/8/8 721/6/6
f 726/9/31 723/4/4 718/10/28
f 726/9/31 725/2/2 724/1/1
f 720/7/7 726/9/31 718/10/28
f 722/8/8 726/9/31 721/6/6
f 735/1/1 736/2/2 730/3/3
f 734/4/4 735/1/1 730/3/3
f 727/5/5 732/6/6 731/7/7
f 727/5/5 733/8/8 732/6/6
f 737/9/31 734/4/4 729/10/25
f 737/9/31 736/2/2 735/1/1
f 731/7/7 737/9/31 729/10/25
f 733/8/8 737/9/31 732/6/6
f 746/1/1 747/2/2 741/3/3
f 745/4/4 746/1/1 741/3/3
f 738/5/5 743/6/6 742/7/7
f 738/5/5 744/8/8 743/6/6
f 748/9/31 745/4/4 740/10/25
f 748/9/31 747/2/2 746/1/1
f 742/7/7 748/9/31 740/10/25
f 744/8/8 748/9/31 743/6/6
f 757/1/1 758/2/2 752/3/27
f 756/4/4 757/1/1 752/3/27
f 749/5/29 754/6/6 753/7/7
f 749/5/29 755/8/8 754/6/6
f 759/9/26 756/4/4 751/10/25
f 759/9/26 758/2/2 757/1/1
f 753/7/7 759/9/26 751/10/25
f 755/8/8 759/9/26 754/6/6
f 768/1/1 769/2/2 763/3/3
f 767/4/4 768/1/1 763/3/3
f 760/5/5 765/6/6 764/7/7
f 760/5/5 766/8/8 765/6/6
f 770/9/9 767/4/4 762/10/25
f 770/9/9 769/2/2 768/1/1
f 764/7/7 770/9/9 762/10/25
f 766/8/8 770/9/9 765/6/6
f 779/1/11 780/2/12 774/3/13
f 778/4/14 779/1/11 774/3/13
f 771/5/15 776/6/16 775/7/17
f 771/5/15 777/8/18 776/6/16
f 781/9/24 778/4/14 773/10/22
f 781/9/24 780/2/12 779/1/11
f 775/7/17 781/9/24 773/10/22
f 777/8/18 781/9/24 776/6/16
f 790/1/1 791/2/2 785/3/3
f 789/4/4 790/1/1 785/3/3
f 782/5/5 787/6/6 786/7/7
f 782/5/5 788/8/8 787/6/6
f 792/9/9 789/4/4 784/10/25
f 792/9/9 791/2/2 790/1/1
f 786/7/7 792/9/9 784/10/25
f 788/8/8 792/9/9 787/6/6
f 801/1/11 802/2/12 796/3/13
f 800/4/14 801/1/11 796/3/13
f 793/5/15 798/6/16 797/7/17
f 793/5/15 799/8/18 798/6/16
f 803/9/19 800/4/14 795/10/20
f 803/9/19 802/2/12 801/1/11
f 797/7/17 803/9/19 795/10/20
f 799/8/18 803/9/19 798/6/16
f 812/1/1 813/2/2 807/3/3
f 811/4/4 812/1/1 807/3/3
f 804/5/5 809/6/6 808/7/7
f 804/5/5 810/8/8 809/6/6
f 814/9/26 811/4/4 806/10/25
f 814/9/26 813/2/2 812/1/1
f 808/7/7 814/9/26 806/10/25
f 810/8/8 814/9/26 809/6/6
f 823/1/11 824/2/12 818/3/13
f 822/4/14 823/1/11 818/3/13
f 815/5/15 820/6/16 819/7/17
f 815/5/15 821/8/18 820/6/16
f 825/9/19 822/4/14 817/10/20
f 825/9/19 824/2/12 823/1/11
f 819/7/17 825/9/19 817/10/20
f 821/8/18 825/9/19 820/6/16
f 834/1/1 835/2/2 829/3/3
f 833/4/4 834/1/1 829/3/3
f 826/5/29 831/6/6 830/7/7
f 826/5/29 832/8/8 831/6/6
f 836/9/26 833/4/4 828/10/25
f 836/9/26 835/2/2 834/1/1
f 830/7/7 836/9/26 828/10/25
f 832/8/8 836/9/26 831/6/6
f 845/1/11 846/2/12 840/3/13
f 844/4/14 845/1/11 840/3/13
f 837/5/15 842/6/16 841/7/17
f 837/5/15 843/8/18 842/6/16
f 847/9/19 844/4/14 839/10/20
f 847/9/19 846/2/12 845/1/11
f 841/7/17 847/9/19 839/10/20
f 843/8/18 847/9/19 842/6/16
f 856/1/11 857/2/12 851/3/13
f 855/4/14 856/1/11 851/3/13
f 848/5/15 853/6/16 852/7/17
f 848/5/15 854/8/18 853/6/16
f 858/9/24 855/4/14 850/10/20
f 858/9/24 857/2/12 856/1/11
f 852/7/17 858/9/24 850/10/20
f 854/8/18 858/9/24 853/6/16
f 11/9/9 9/1/1 8/4/4
f 11/9/9 2/11/32 10/2/2
f 5/7/7 6/6/6 11/9/9
f 7/8/8 2/11/32 11/9/9
f 22/9/19 20/1/11 19/4/14
f 22/9/19 13/11/33 21/2/12
f 16/7/17 17/6/16 22/9/19
f 18/8/18 13/11/33 22/9/19
f 33/9/19 31/1/11 30/4/14
f 33/9/19 24/11/34 32/2/12
f 27/7/17 28/6/16 33/9/19
f 29/8/18 24/11/34 33/9/19
f 44/9/19 42/1/11 41/4/14
f 44/9/19 35/11/35 43/2/12
f 38/7/17 39/6/16 44/9/19
f 40/8/18 35/11/35 44/9/19
f 55/9/23 53/1/11 52/4/14
f 55/9/23 46/11/35 54/2/12
f 49/7/17 50/6/16 55/9/23
f 51/8/18 46/11/35 55/9/23
f 66/9/19 64/1/11 63/4/14
f 66/9/19 57/11/33 65/2/12
f 60/7/17 61/6/16 66/9/19
f 62/8/18 57/11/33 66/9/19
f 77/9/24 75/1/11 74/4/14
f 77/9/24 68/11/34 76/2/12
f 71/7/17 72/6/16 77/9/24
f 73/8/18 68/11/34 77/9/24
f 88/9/9 86/1/1 85/4/4
f 88/9/9 79/11/32 87/2/2
f 82/7/7 83/6/6 88/9/9
f 84/8/8 79/11/32 88/9/9
f 99/9/9 97/1/1 96/4/4
f 99/9/9 90/11/36 98/2/2
f 93/7/7 94/6/6 99/9/9
f 95/8/8 90/11/36 99/9/9
f 110/9/9 108/1/1 107/4/4
f 110/9/9 101/11/32 109/2/2
f 104/7/7 105/6/6 110/9/9
f 106/8/8 101/11/32 110/9/9
f 121/9/26 119/1/1 118/4/4
f 121/9/26 112/11/36 120/2/2
f 115/7/7 116/6/6 121/9/26
f 117/8/8 112/11/36 121/9/26
f 132/9/9 130/1/1 129/4/4
f 132/9/9 123/11/32 131/2/2
f 126/7/7 127/6/6 132/9/9
f 128/8/8 123/11/32 132/9/9
f 143/9/26 141/1/1 140/4/4
f 143/9/26 134/11/36 142/2/2
f 137/7/7 138/6/6 143/9/26
f 139/8/8 134/11/36 143/9/26
f 154/9/24 152/1/11 151/4/14
f 154/9/24 145/11/37 153/2/12
f 148/7/17 149/6/16 154/9/24
f 150/8/18 145/11/37 154/9/24
f 165/9/19 163/1/11 162/4/14
f 165/9/19 156/11/33 164/2/12
f 159/7/17 160/6/16 165/9/19
f 161/8/18 156/11/33 165/9/19
f 176/9/23 174/1/11 173/4/14
f 176/9/23 167/11/34 175/2/12
f 170/7/17 171/6/16 176/9/23
f 172/8/18 167/11/34 176/9/23
f 187/9/26 185/1/1 184/4/4
f 187/9/26 178/11/38 186/2/2
f 181/7/7 182/6/6 187/9/26
f 183/8/8 178/11/38 187/9/26
f 198/9/9 196/1/1 195/4/4
f 198/9/9 189/11/36 197/2/2
f 192/7/7 193/6/6 198/9/9
f 194/8/8 189/11/36 198/9/9
f 209/9/9 207/1/1 206/4/4
f 209/9/9 200/11/36 208/2/2
f 203/7/7 204/6/6 209/9/9
f 205/8/8 200/11/36 209/9/9
f 220/9/26 218/1/1 217/4/4
f 220/9/26 211/11/38 219/2/2
f 214/7/7 215/6/6 220/9/26
f 216/8/8 211/11/38 220/9/26
f 231/9/23 229/1/11 228/4/14
f 231/9/23 222/11/33 230/2/12
f 225/7/17 226/6/16 231/9/23
f 227/8/18 222/11/33 231/9/23
f 242/9/9 240/1/1 239/4/4
f 242/9/9 233/11/38 241/2/2
f 236/7/7 237/6/6 242/9/9
f 238/8/8 233/11/38 242/9/9
f 253/9/19 251/1/11 250/4/14
f 253/9/19 244/11/35 252/2/12
f 247/7/17 248/6/16 253/9/19
f 249/8/18 244/11/35 253/9/19
f 264/9/19 262/1/11 261/4/14
f 264/9/19 255/11/33 263/2/12
f 258/7/17 259/6/16 264/9/19
f 260/8/18 255/11/33 264/9/19
f 275/9/23 273/1/11 272/4/14
f 275/9/23 266/11/33 274/2/12
f 269/7/17 270/6/16 275/9/23
f 271/8/18 266/11/33 275/9/23
f 286/9/19 284/1/11 283/4/14
f 286/9/19 277/11/35 285/2/12
f 280/7/17 281/6/16 286/9/19
f 282/8/18 277/11/35 286/9/19
f 297/9/19 295/1/11 294/4/14
f 297/9/19 288/11/33 296/2/12
f 291/7/17 292/6/16 297/9/19
f 293/8/18 288/11/33 297/9/19
f 308/9/19 306/1/11 305/4/14
f 308/9/19 299/11/33 307/2/12
f 302/7/17 303/6/16 308/9/19
f 304/8/18 299/11/33 308/9/19
f 319/9/19 317/1/11 316/4/14
f 319/9/19 310/11/34 318/2/12
f 313/7/17 314/6/16 319/9/19
f 315/8/18 310/11/34 319/9/19
f 330/9/9 328/1/1 327/4/4
f 330/9/9 321/11/32 329/2/2
f 324/7/7 325/6/6 330/9/9
f 326/8/8 321/11/32 330/9/9
f 341/9/26 339/1/1 338/4/4
f 341/9/26 332/11/38 340/2/2
f 335/7/7 336/6/6 341/9/26
f 337/8/8 332/11/38 341/9/26
f 352/9/19 350/1/11 349/4/14
f 352/9/19 343/11/35 351/2/12
f 346/7/17 347/6/16 352/9/19
f 348/8/18 343/11/35 352/9/19
f 363/9/26 361/1/1 360/4/4
f 363/9/26 354/11/39 362/2/2
f 357/7/7 358/6/6 363/9/26
f 359/8/8 354/11/39 363/9/26
f 374/9/19 372/1/11 371/4/14
f 374/9/19 365/11/35 373/2/12
f 368/7/17 369/6/16 374/9/19
f 370/8/18 365/11/35 374/9/19
f 385/9/23 383/1/11 382/4/14
f 385/9/23 376/11/34 384/2/12
f 379/7/17 380/6/16 385/9/23
f 381/8/18 376/11/34 385/9/23
f 396/9/19 394/1/11 393/4/14
f 396/9/19 387/11/34 395/2/12
f 390/7/17 391/6/16 396/9/19
f 392/8/18 387/11/34 396/9/19
f 407/9/19 405/1/11 404/4/14
f 407/9/19 398/11/33 406/2/12
f 401/7/17 402/6/16 407/9/19
f 403/8/18 398/11/33 407/9/19
f 418/9/19 416/1/11 415/4/14
f 418/9/19 409/11/35 417/2/12
f 412/7/17 413/6/16 418/9/19
f 414/8/18 409/11/35 418/9/19
f 429/9/19 427/1/11 426/4/14
f 429/9/19 420/11/35 428/2/12
f 423/7/17 424/6/16 429/9/19
f 425/8/18 420/11/35 429/9/19
f 440/9/26 438/1/1 437/4/4
f 440/9/26 431/11/36 439/2/2
f 434/7/7 435/6/6 440/9/26
f 436/8/8 431/11/36 440/9/26
f 451/9/26 449/1/1 448/4/4
f 451/9/26 442/11/32 450/2/2
f 445/7/7 446/6/6 451/9/26
f 447/8/8 442/11/32 451/9/26
f 462/9/9 460/1/1 459/4/4
f 462/9/9 453/11/32 461/2/2
f 456/7/7 457/6/6 462/9/9
f 458/8/8 453/11/32 462/9/9
f 473/9/26 471/1/1 470/4/4
f 473/9/26 464/11/36 472/2/2
f 467/7/7 468/6/6 473/9/26
f 469/8/8 464/11/36 473/9/26
f 484/9/31 482/1/1 481/4/4
f 484/9/31 475/11/36 483/2/2
f 478/7/7 479/6/6 484/9/31
f 480/8/8 475/11/36 484/9/31
f 495/9/9 493/1/1 492/4/4
f 495/9/9 486/11/38 494/2/2
f 489/7/7 490/6/6 495/9/9
f 491/8/8 486/11/38 495/9/9
f 506/9/9 504/1/1 503/4/4
f 506/9/9 497/11/38 505/2/2
f 500/7/7 501/6/6 506/9/9
f 502/8/8 497/11/38 506/9/9
f 517/9/9 515/1/1 514/4/4
f 517/9/9 508/11/38 516/2/2
f 511/7/7 512/6/6 517/9/9
f 513/8/8 508/11/38 517/9/9
f 528/9/26 526/1/1 525/4/4
f 528/9/26 519/11/38 527/2/2
f 522/7/7 523/6/6 528/9/26
f 524/8/8 519/11/38 528/9/26
f 539/9/9 537/1/1 536/4/4
f 539/9/9 530/11/36 538/2/2
f 533/7/7 534/6/6 539/9/9
f 535/8/8 530/11/36 539/9/9
f 550/9/9 548/1/1 547/4/4
f 550/9/9 541/11/36 549/2/2
f 544/7/7 545/6/6 550/9/9
f 546/8/8 541/11/36 550/9/9
f 561/9/9 559/1/1 558/4/4
f 561/9/9 552/11/38 560/2/2
f 555/7/7 556/6/6 561/9/9
f 557/8/8 552/11/38 561/9/9
f 572/9/31 570/1/1 569/4/4
f 572/9/31 563/11/38 571/2/2
f 566/7/7 567/6/6 572/9/31
f 568/8/8 563/11/38 572/9/31
f 583/9/31 581/1/1 580/4/4
f 583/9/31 574/11/32 582/2/2
f 577/7/7 578/6/6 583/9/31
f 579/8/8 574/11/32 583/9/31
f 594/9/31 592/1/1 591/4/4
f 594/9/31 585/11/36 593/2/2
f 588/7/7 589/6/6 594/9/31
f 590/8/8 585/11/36 594/9/31
f 605/9/9 603/1/1 602/4/4
f 605/9/9 596/11/38 604/2/2
f 599/7/7 600/6/6 605/9/9
f 601/8/8 596/11/38 605/9/9
f 616/9/31 614/1/1 613/4/4
f 616/9/31 607/11/32 615/2/2
f 610/7/7 611/6/6 616/9/31
f 612/8/8 607/11/32 616/9/31
f 627/9/26 625/1/1 624/4/4
f 627/9/26 618/11/38 626/2/2
f 621/7/7 622/6/6 627/9/26
f 623/8/8 618/11/38 627/9/26
f 638/9/9 636/1/1 635/4/4
f 638/9/9 629/11/38 637/2/2
f 632/7/7 633/6/6 638/9/9
f 634/8/8 629/11/38 638/9/9
f 649/9/9 647/1/1 646/4/4
f 649/9/9 640/11/32 648/2/2
f 643/7/7 644/6/6 649/9/9
f 645/8/8 640/11/32 649/9/9
f 660/9/31 658/1/1 657/4/4
f 660/9/31 651/11/38 659/2/2
f 654/7/7 655/6/6 660/9/31
f 656/8/8 651/11/38 660/9/31
f 671/9/9 669/1/1 668/4/4
f 671/9/9 662/11/32 670/2/2
f 665/7/7 666/6/6 671/9/9
f 667/8/8 662/11/32 671/9/9
f 682/9/9 680/1/1 679/4/4
f 682/9/9 673/11/36 681/2/2
f 676/7/7 677/6/6 682/9/9
f 678/8/8 673/11/36 682/9/9
f 693/9/26 691/1/1 690/4/4
f 693/9/26 684/11/38 692/2/2
f 687/7/7 688/6/6 693/9/26
f 689/8/8 684/11/38 693/9/26
f 704/9/9 702/1/1 701/4/4
f 704/9/9 695/11/38 703/2/2
f 698/7/7 699/6/6 704/9/9
f 700/8/8 695/11/38 704/9/9
f 715/9/9 713/1/1 712/4/4
f 715/9/9 706/11/36 714/2/2
f 709/7/7 710/6/6 715/9/9
f 711/8/8 706/11/36 715/9/9
f 726/9/31 724/1/1 723/4/4
f 726/9/31 717/11/38 725/2/2
f 720/7/7 721/6/6 726/9/31
f 722/8/8 717/11/38 726/9/31
f 737/9/31 735/1/1 734/4/4
f 737/9/31 728/11/39 736/2/2
f 731/7/7 732/6/6 737/9/31
f 733/8/8 728/11/39 737/9/31
f 748/9/31 746/1/1 745/4/4
f 748/9/31 739/11/38 747/2/2
f 742/7/7 743/6/6 748/9/31
f 744/8/8 739/11/38 748/9/31
f 759/9/26 757/1/1 756/4/4
f 759/9/26 750/11/36 758/2/2
f 753/7/7 754/6/6 759/9/26
f 755/8/8 750/11/36 759/9/26
f 770/9/9 768/1/1 767/4/4
f 770/9/9 761/11/32 769/2/2
f 764/7/7 765/6/6 770/9/9
f 766/8/8 761/11/32 770/9/9
f 781/9/24 779/1/11 778/4/14
f 781/9/24 772/11/34 780/2/12
f 775/7/17 776/6/16 781/9/24
f 777/8/18 772/11/34 781/9/24
f 792/9/9 790/1/1 789/4/4
f 792/9/9 783/11/38 791/2/2
f 786/7/7 787/6/6 792/9/9
f 788/8/8 783/11/38 792/9/9
f 803/9/19 801/1/11 800/4/14
f 803/9/19 794/11/33 802/2/12
f 797/7/17 798/6/16 803/9/19
f 799/8/18 794/11/33 803/9/19
f 814/9/26 812/1/1 811/4/4
f 814/9/26 805/11/38 813/2/2
f 808/7/7 809/6/6 814/9/26
f 810/8/8 805/11/38 814/9/26
f 825/9/19 823/1/11 822/4/14
f 825/9/19 816/11/33 824/2/12
f 819/7/17 820/6/16 825/9/19
f 821/8/18 816/11/33 825/9/19
f 836/9/26 834/1/1 833/4/4
f 836/9/26 827/11/38 835/2/2
f 830/7/7 831/6/6 836/9/26
f 832/8/8 827/11/38 836/9/26
f 847/9/19 845/1/11 844/4/14
f 847/9/19 838/11/33 846/2/12
f 841/7/17 842/6/16 847/9/19
f 843/8/18 838/11/33 847/9/19
f 858/9/24 856/1/11 855/4/14
f 858/9/24 849/11/33 857/2/12
f 852/7/17 853/6/16 858/9/24
f 854/8/18 849/11/33 858/9/24
