# Blender 4.1.0
# www.blender.org
mtllib CliffHill.mtl
o Background
v 0.628586 0.000266 -0.162603
v 0.573615 0.000266 0.091454
v 0.615192 0.000266 -0.075624
v 0.597199 0.000266 0.012254
v 0.636844 0.000266 -0.237925
v 0.636844 0.000266 -0.336710
v 0.636844 0.000266 -0.453975
v 0.636844 0.000266 -0.551398
v 0.636844 0.000266 -0.639768
v 0.636844 0.000266 -0.756966
v 0.524202 -0.000047 0.215462
v 0.548909 0.000259 0.153458
v 0.449833 0.005389 0.327417
v 0.490793 0.002265 0.271439
v 0.307856 0.012847 0.428012
v 0.379116 0.010510 0.377714
v 0.235127 0.012847 0.481014
v 0.135609 0.005523 0.563319
v 0.066887 0.002678 0.606196
v -0.043324 -0.001677 0.656344
v 0.185368 0.009185 0.522167
v 0.969190 -0.072207 0.128601
v 0.914220 -0.072207 0.382657
v 0.955797 -0.072207 0.215579
v 0.937804 -0.072207 0.303458
v 0.977448 -0.072207 0.053279
v 0.977448 -0.072207 -0.045506
v 0.977448 -0.072207 -0.162771
v 0.977448 -0.072207 -0.260194
v 0.977448 -0.072207 -0.348565
v 0.977448 -0.072207 -0.465763
v 0.864807 -0.071479 0.506666
v 0.889513 -0.070898 0.444662
v 0.790438 -0.072439 0.618620
v 0.831397 -0.072537 0.562643
v 0.648460 -0.071129 0.719215
v 0.719720 -0.070476 0.668918
v 0.575732 -0.074401 0.772218
v 0.476214 -0.076362 0.854523
v 0.407492 -0.078418 0.897400
v 0.297280 -0.068388 0.947548
v 0.525973 -0.074416 0.813371
v 0.412391 0.006324 0.406163
v 0.341131 0.008661 0.456460
v 0.218643 0.004999 0.550616
v 0.168884 0.001337 0.591768
v -0.010049 -0.005864 0.684793
v 0.670119 -0.003920 -0.308261
v 0.670119 -0.003920 -0.209476
v 0.557477 -0.004233 0.243911
v 0.524068 -0.001921 0.299888
v 0.670119 -0.003920 -0.611320
v 0.670119 -0.003920 -0.522949
v 0.582184 -0.003688 0.181907
v 0.268402 0.008661 0.509463
v 0.100162 -0.001508 0.634645
v 0.661861 -0.003920 -0.134154
v 0.483108 0.001203 0.355865
v 0.670119 -0.003920 -0.425526
v 0.630474 -0.003920 0.040703
v 0.606890 -0.003668 0.119902
v 0.648467 -0.003920 -0.047176
v 0.670118 -0.003920 -0.728518
v 0.489223 -0.013164 0.471852
v 0.566056 -0.036436 0.537540
v 0.642888 -0.051564 0.603229
v 0.295476 -0.014855 0.616305
v 0.372308 -0.034708 0.681993
v 0.449141 -0.054562 0.747682
v 0.066783 -0.021495 0.750482
v 0.143615 -0.037126 0.816170
v 0.220448 -0.052757 0.881859
v 0.746951 -0.020992 -0.242572
v 0.823783 -0.038064 -0.176884
v 0.900616 -0.055135 -0.111195
v 0.634309 -0.021045 0.309600
v 0.711142 -0.039751 0.375289
v 0.787974 -0.054748 0.440977
v 0.746951 -0.020992 -0.545631
v 0.823783 -0.038064 -0.479942
v 0.900616 -0.055135 -0.414253
v 0.659016 -0.019089 0.247595
v 0.735848 -0.037413 0.313284
v 0.812681 -0.054155 0.378973
v 0.176995 -0.020736 0.700334
v 0.253827 -0.039963 0.766023
v 0.330659 -0.059191 0.831711
v 0.559940 -0.017232 0.421554
v 0.636773 -0.038172 0.487243
v 0.713605 -0.054028 0.552932
v 0.707307 -0.020090 0.106392
v 0.784139 -0.037817 0.172080
v 0.860972 -0.055135 0.237769
v 0.725299 -0.020992 0.018513
v 0.802132 -0.038064 0.084202
v 0.878964 -0.055135 0.149891
v 0.746951 -0.020992 -0.662829
v 0.823783 -0.038064 -0.597140
v 0.900616 -0.055135 -0.531451
v 0.571628 -0.051198 0.653527
v 0.494796 -0.032096 0.587838
v 0.417963 -0.011287 0.522149
v 0.399381 -0.056937 0.788835
v 0.322549 -0.037513 0.723146
v 0.245717 -0.018088 0.657457
v 0.900616 -0.055135 -0.012410
v 0.823783 -0.038064 -0.078098
v 0.746951 -0.020992 -0.143787
v 0.754565 -0.055170 0.496955
v 0.677732 -0.041451 0.431266
v 0.600900 -0.019862 0.365577
v 0.900616 -0.055135 -0.325883
v 0.823783 -0.038064 -0.391572
v 0.746951 -0.020992 -0.457260
v 0.498900 -0.053636 0.706529
v 0.422067 -0.032870 0.640841
v 0.345235 -0.012105 0.575152
v 0.892358 -0.055135 0.062913
v 0.815526 -0.038064 -0.002776
v 0.738693 -0.020992 -0.068465
v 0.900616 -0.055135 -0.228460
v 0.823783 -0.038064 -0.294149
v 0.746951 -0.020992 -0.359838
v 0.837387 -0.055135 0.316969
v 0.760555 -0.037812 0.251280
v 0.683722 -0.017314 0.185591
v 0.628586 -0.024670 -0.162603
v 0.573615 -0.024670 0.091454
v 0.615192 -0.024670 -0.075624
v 0.597199 -0.024670 0.012254
v 0.636844 -0.024670 -0.237925
v 0.636844 -0.024670 -0.336710
v 0.636844 -0.024670 -0.453975
v 0.636844 -0.024670 -0.551398
v 0.636844 -0.024670 -0.639768
v 0.636844 -0.024670 -0.756966
v 0.524202 -0.024983 0.215462
v 0.548909 -0.024677 0.153458
v 0.449833 -0.019547 0.327417
v 0.490793 -0.022671 0.271439
v 0.307856 -0.012089 0.428012
v 0.379116 -0.014426 0.377714
v 0.235127 -0.012089 0.481014
v 0.135609 -0.019413 0.563319
v 0.066887 -0.022258 0.606196
v -0.043324 -0.026613 0.656344
v 0.185368 -0.015751 0.522167
v 0.969190 -0.097143 0.128601
v 0.914220 -0.097143 0.382657
v 0.955797 -0.097143 0.215579
v 0.937804 -0.097143 0.303458
v 0.977448 -0.097143 0.053279
v 0.977448 -0.097143 -0.045506
v 0.977448 -0.097143 -0.162771
v 0.977448 -0.097143 -0.260194
v 0.977448 -0.097143 -0.348565
v 0.977448 -0.097143 -0.465763
v 0.864807 -0.096415 0.506666
v 0.889513 -0.095834 0.444662
v 0.790438 -0.097375 0.618620
v 0.831397 -0.097473 0.562643
v 0.648460 -0.096065 0.719215
v 0.719720 -0.095412 0.668918
v 0.575732 -0.099337 0.772218
v 0.476214 -0.101298 0.854523
v 0.407492 -0.103354 0.897400
v 0.297280 -0.093324 0.947548
v 0.525973 -0.099352 0.813371
v 0.412391 -0.018612 0.406163
v 0.341131 -0.016275 0.456460
v 0.218643 -0.019937 0.550616
v 0.168884 -0.023599 0.591768
v -0.010049 -0.030800 0.684793
v 0.670119 -0.028856 -0.308261
v 0.670119 -0.028856 -0.209476
v 0.557477 -0.029169 0.243911
v 0.524068 -0.026857 0.299888
v 0.670119 -0.028856 -0.611320
v 0.670119 -0.028856 -0.522949
v 0.582184 -0.028624 0.181907
v 0.268402 -0.016275 0.509463
v 0.100162 -0.026445 0.634645
v 0.661861 -0.028856 -0.134154
v 0.483108 -0.023733 0.355865
v 0.670119 -0.028856 -0.425526
v 0.630474 -0.028856 0.040703
v 0.606890 -0.028604 0.119902
v 0.648467 -0.028856 -0.047176
v 0.670118 -0.028856 -0.728518
v 0.489223 -0.038100 0.471852
v 0.566056 -0.061372 0.537540
v 0.642888 -0.076500 0.603229
v 0.295476 -0.039791 0.616305
v 0.372308 -0.059645 0.681993
v 0.449141 -0.079498 0.747682
v 0.066783 -0.046431 0.750482
v 0.143615 -0.062062 0.816170
v 0.220448 -0.077693 0.881859
v 0.746951 -0.045928 -0.242572
v 0.823783 -0.063000 -0.176884
v 0.900616 -0.080071 -0.111195
v 0.634309 -0.045981 0.309600
v 0.711142 -0.064687 0.375289
v 0.787974 -0.079684 0.440977
v 0.746951 -0.045928 -0.545631
v 0.823783 -0.063000 -0.479942
v 0.900616 -0.080071 -0.414253
v 0.659016 -0.044025 0.247595
v 0.735848 -0.062349 0.313284
v 0.812681 -0.079091 0.378973
v 0.176995 -0.045672 0.700334
v 0.253827 -0.064899 0.766023
v 0.330659 -0.084127 0.831711
v 0.559940 -0.042169 0.421554
v 0.636773 -0.063108 0.487243
v 0.713605 -0.078964 0.552932
v 0.707307 -0.045026 0.106392
v 0.784139 -0.062753 0.172080
v 0.860972 -0.080071 0.237769
v 0.725299 -0.045928 0.018513
v 0.802132 -0.063000 0.084202
v 0.878964 -0.080071 0.149891
v 0.746951 -0.045928 -0.662829
v 0.823783 -0.063000 -0.597140
v 0.900616 -0.080071 -0.531451
v 0.571628 -0.076134 0.653527
v 0.494796 -0.057032 0.587838
v 0.417963 -0.036223 0.522149
v 0.399381 -0.081873 0.788835
v 0.322549 -0.062449 0.723146
v 0.245717 -0.043024 0.657457
v 0.900616 -0.080071 -0.012410
v 0.823783 -0.063000 -0.078098
v 0.746951 -0.045928 -0.143787
v 0.754565 -0.080106 0.496955
v 0.677732 -0.066387 0.431266
v 0.600900 -0.044798 0.365577
v 0.900616 -0.080071 -0.325883
v 0.823783 -0.063000 -0.391572
v 0.746951 -0.045928 -0.457260
v 0.498900 -0.078572 0.706529
v 0.422067 -0.057806 0.640841
v 0.345235 -0.037041 0.575152
v 0.892358 -0.080071 0.062913
v 0.815526 -0.063000 -0.002776
v 0.738693 -0.045928 -0.068465
v 0.900616 -0.080071 -0.228460
v 0.823783 -0.063000 -0.294149
v 0.746951 -0.045928 -0.359838
v 0.837387 -0.080071 0.316969
v 0.760555 -0.062748 0.251280
v 0.683722 -0.042250 0.185591
vn 0.1100 0.9795 0.1686
vn 0.1025 0.9796 0.1727
vn 0.1024 0.9801 0.1701
vn 0.1008 0.9790 0.1772
vn 0.2169 0.9762 -0.0000
vn 0.1371 0.9856 0.0990
vn 0.1370 0.9855 0.1004
vn 0.1379 0.9862 0.0912
vn 0.1542 0.9855 0.0708
vn 0.1542 0.9855 0.0707
vn 0.0954 0.9774 0.1886
vn 0.0977 0.9761 0.1943
vn 0.0990 0.9784 0.1815
vn 0.1285 0.9881 0.0848
vn 0.1958 0.9803 0.0257
vn 0.1977 0.9800 0.0235
vn 0.1990 0.9797 0.0218
vn 0.1248 0.9827 0.1366
vn 0.1247 0.9827 0.1370
vn 0.1257 0.9836 0.1290
vn 0.1245 0.9807 0.1508
vn 0.1717 0.9835 0.0573
vn 0.1731 0.9835 0.0529
vn 0.1742 0.9834 0.0519
vn 0.1865 0.9817 0.0382
vn 0.1857 0.9819 0.0380
vn 0.1880 0.9815 0.0352
vn 0.1459 0.9837 0.1050
vn 0.0868 0.9786 0.1868
vn 0.0864 0.9788 0.1854
vn 0.0858 0.9783 0.1887
vn 0.1899 0.9812 0.0336
vn 0.1728 0.9837 0.0493
vn 0.1731 0.9837 0.0482
vn 0.1248 0.9922 -0.0000
vn 0.0879 0.9955 0.0348
vn 0.0875 0.9953 0.0422
vn 0.0872 0.9955 0.0363
vn 0.1091 0.9939 0.0186
vn 0.1078 0.9940 0.0202
vn 0.1117 0.9936 0.0156
vn 0.0289 0.9933 0.1123
vn 0.0287 0.9932 0.1126
vn 0.1061 0.9941 0.0222
vn 0.1072 0.9940 0.0209
vn 0.0970 0.9950 0.0228
vn 0.0998 0.9945 0.0311
vn 0.0243 0.9928 0.1177
vn 0.0962 0.9948 0.0339
vn 0.1131 0.9935 0.0140
vn 0.1143 0.9934 0.0125
vn 0.0178 0.9920 0.1252
vn 0.0576 0.9952 0.0791
vn 0.0853 0.9956 0.0394
vn 0.0878 0.9952 0.0437
vn 0.0245 0.9928 0.1175
vn 0.0745 0.9955 0.0593
vn 0.1297 0.9883 0.0800
vn 0.1787 0.9818 0.0649
vn 0.1706 0.9838 0.0543
vn 0.1769 0.9828 0.0521
vn 0.1903 0.9812 0.0325
vn 0.1900 0.9811 0.0357
vn 0.1920 0.9810 0.0282
vn 0.0814 0.9782 0.1912
vn 0.0830 0.9781 0.1907
vn 0.0822 0.9775 0.1940
vn 0.0835 0.9778 0.1920
vn 0.0821 0.9781 0.1913
vn 0.0837 0.9783 0.1894
vn 0.1694 0.9826 0.0768
vn 0.1693 0.9825 0.0777
vn 0.1705 0.9827 0.0729
vn 0.1938 0.9773 0.0859
vn 0.1940 0.9773 0.0847
vn 0.1930 0.9767 0.0941
vn 0.1360 0.9875 0.0794
vn 0.1835 0.9826 0.0280
vn 0.1900 0.9811 0.0373
vn 0.2028 0.9788 0.0269
vn 0.1882 0.9814 0.0384
vn 0.1632 0.9865 0.0140
vn 0.2076 0.9763 0.0618
vn 0.1757 0.9830 0.0523
vn 0.0950 0.9782 0.1846
vn 0.0908 0.9772 0.1920
vn 0.0976 0.9782 0.1833
vn 0.1060 0.9794 0.1720
vn 0.1153 0.9801 0.1614
vn 0.1200 0.9786 0.1671
vn 0.1160 0.9799 0.1623
vn 0.1439 0.9819 0.1230
vn 0.1470 0.9739 0.1730
vn 0.1475 0.9739 0.1725
vn 0.1470 0.9739 0.1731
vn 0.1072 0.9889 0.1029
vn 0.1072 0.9890 0.1023
vn 0.1059 0.9878 0.1141
vn 0.1970 0.9801 0.0243
vn 0.0652 0.9853 0.1582
vn 0.0864 0.9872 0.1339
vn 0.1075 0.9882 0.1094
vn 0.1157 0.9780 0.1733
vn 0.1158 0.9779 0.1738
vn 0.1166 0.9794 0.1649
vn 0.1160 0.9780 0.1735
vn 0.1160 0.9779 0.1738
vn 0.1038 0.9768 0.1874
vn 0.1030 0.9771 0.1863
vn 0.1411 0.9861 0.0873
vn 0.1549 0.9831 0.0980
vn 0.1549 0.9830 0.0988
vn 0.1551 0.9834 0.0937
vn 0.1379 0.9884 0.0644
vn 0.1649 0.9834 0.0757
vn 0.1641 0.9834 0.0772
vn 0.1651 0.9779 0.1283
vn 0.1129 0.9908 0.0749
vn 0.0885 0.9781 0.1883
vn 0.0937 0.9792 0.1800
vn 0.0982 0.9792 0.1776
vn 0.0941 0.9791 0.1804
vn 0.0961 0.9789 0.1805
vn 0.1293 0.9808 0.1462
vn 0.1293 0.9807 0.1466
vn 0.1302 0.9817 0.1392
vn 0.1526 0.9795 0.1317
vn 0.1119 0.9816 0.1546
vn 0.1078 0.9816 0.1576
vn 0.1129 0.9818 0.1528
vn 0.1121 0.9821 0.1516
vn 0.1380 0.9864 0.0898
vn 0.1542 0.9855 0.0709
vn 0.1228 0.9820 0.1438
vn 0.1258 0.9837 0.1286
vn 0.1208 0.9784 0.1680
vn 0.1476 0.9851 0.0879
vn 0.1309 0.9900 0.0525
vn 0.1770 0.9793 0.0986
vn 0.1929 0.9766 0.0953
vn 0.1391 0.9893 0.0439
vn 0.1673 0.9848 0.0467
vn 0.2034 0.9787 0.0263
vn 0.1766 0.9829 0.0525
vn 0.0931 0.9755 0.1994
vn 0.1023 0.9766 0.1890
vn 0.1116 0.9776 0.1786
vn 0.1461 0.9837 0.1052
vn 0.1519 0.9792 0.1344
vn 0.1058 0.9878 0.1147
vn 0.0596 0.9747 0.2156
vn 0.0806 0.9781 0.1920
vn 0.1017 0.9805 0.1680
vn 0.1171 0.9800 0.1607
vn 0.1066 0.9812 0.1606
vn 0.1421 0.9877 0.0653
vn 0.1552 0.9835 0.0928
vn 0.1366 0.9864 0.0916
vn 0.1656 0.9845 0.0582
vn 0.1701 0.9821 0.0807
vn 0.1108 0.9892 0.0962
vn 0.0919 0.9779 0.1880
vn 0.1302 0.9817 0.1389
vn 0.1475 0.9739 0.1726
vn 0.1210 0.9889 0.0862
vn -0.1100 -0.9795 -0.1686
vn -0.1025 -0.9796 -0.1727
vn -0.1008 -0.9790 -0.1772
vn -0.1024 -0.9801 -0.1701
vn -0.2169 -0.9762 -0.0000
vn -0.1371 -0.9856 -0.0990
vn -0.1379 -0.9862 -0.0911
vn -0.1370 -0.9855 -0.1004
vn -0.1542 -0.9855 -0.0708
vn -0.1542 -0.9855 -0.0707
vn -0.1043 -0.9785 -0.1780
vn -0.0990 -0.9784 -0.1815
vn -0.0977 -0.9761 -0.1943
vn -0.1285 -0.9881 -0.0848
vn -0.1958 -0.9803 -0.0257
vn -0.1990 -0.9797 -0.0218
vn -0.1977 -0.9800 -0.0235
vn -0.1248 -0.9827 -0.1366
vn -0.1257 -0.9836 -0.1290
vn -0.1247 -0.9827 -0.1370
vn -0.1245 -0.9807 -0.1508
vn -0.1717 -0.9835 -0.0573
vn -0.1742 -0.9834 -0.0519
vn -0.1731 -0.9835 -0.0529
vn -0.1865 -0.9817 -0.0382
vn -0.1880 -0.9815 -0.0352
vn -0.1857 -0.9819 -0.0380
vn -0.1459 -0.9837 -0.1050
vn -0.0868 -0.9786 -0.1868
vn -0.0858 -0.9783 -0.1887
vn -0.0864 -0.9788 -0.1854
vn -0.1899 -0.9812 -0.0336
vn -0.1728 -0.9837 -0.0493
vn -0.1731 -0.9837 -0.0482
vn -0.1248 -0.9922 -0.0000
vn -0.0879 -0.9955 -0.0348
vn -0.0872 -0.9955 -0.0363
vn -0.0875 -0.9953 -0.0422
vn -0.1091 -0.9939 -0.0186
vn -0.1117 -0.9936 -0.0156
vn -0.1078 -0.9940 -0.0202
vn -0.0289 -0.9933 -0.1123
vn -0.0287 -0.9932 -0.1126
vn -0.1061 -0.9941 -0.0222
vn -0.1072 -0.9940 -0.0209
vn -0.0970 -0.9950 -0.0228
vn -0.0997 -0.9945 -0.0310
vn -0.0243 -0.9928 -0.1177
vn -0.0962 -0.9948 -0.0339
vn -0.1131 -0.9935 -0.0140
vn -0.1143 -0.9934 -0.0125
vn -0.0178 -0.9920 -0.1252
vn -0.0576 -0.9952 -0.0791
vn -0.0853 -0.9956 -0.0394
vn -0.0878 -0.9952 -0.0437
vn -0.0245 -0.9928 -0.1175
vn -0.0745 -0.9955 -0.0593
vn -0.1297 -0.9883 -0.0800
vn -0.1787 -0.9818 -0.0649
vn -0.1698 -0.9840 -0.0533
vn -0.1903 -0.9812 -0.0325
vn -0.1900 -0.9811 -0.0357
vn -0.1920 -0.9810 -0.0281
vn -0.0814 -0.9782 -0.1912
vn -0.0804 -0.9779 -0.1931
vn -0.0831 -0.9781 -0.1907
vn -0.0821 -0.9781 -0.1913
vn -0.0835 -0.9778 -0.1920
vn -0.0837 -0.9783 -0.1894
vn -0.1694 -0.9826 -0.0768
vn -0.1705 -0.9827 -0.0729
vn -0.1693 -0.9825 -0.0777
vn -0.1939 -0.9773 -0.0858
vn -0.1930 -0.9767 -0.0941
vn -0.1940 -0.9773 -0.0847
vn -0.1360 -0.9875 -0.0794
vn -0.1835 -0.9826 -0.0280
vn -0.1833 -0.9827 -0.0274
vn -0.1944 -0.9802 -0.0367
vn -0.1891 -0.9811 -0.0402
vn -0.1632 -0.9865 -0.0140
vn -0.2076 -0.9763 -0.0618
vn -0.1773 -0.9828 -0.0518
vn -0.1757 -0.9830 -0.0523
vn -0.0968 -0.9784 -0.1825
vn -0.0976 -0.9782 -0.1833
vn -0.1016 -0.9769 -0.1881
vn -0.1060 -0.9794 -0.1720
vn -0.1023 -0.9779 -0.1823
vn -0.1108 -0.9778 -0.1777
vn -0.1153 -0.9801 -0.1614
vn -0.1160 -0.9799 -0.1623
vn -0.1200 -0.9786 -0.1671
vn -0.1439 -0.9819 -0.1230
vn -0.1471 -0.9739 -0.1729
vn -0.1470 -0.9739 -0.1731
vn -0.1475 -0.9739 -0.1725
vn -0.1072 -0.9889 -0.1029
vn -0.1059 -0.9878 -0.1141
vn -0.1072 -0.9890 -0.1023
vn -0.1970 -0.9801 -0.0243
vn -0.0652 -0.9853 -0.1582
vn -0.0864 -0.9872 -0.1339
vn -0.1075 -0.9882 -0.1094
vn -0.1157 -0.9780 -0.1734
vn -0.1166 -0.9794 -0.1648
vn -0.1158 -0.9779 -0.1738
vn -0.1160 -0.9779 -0.1738
vn -0.1160 -0.9780 -0.1735
vn -0.1030 -0.9771 -0.1863
vn -0.1411 -0.9861 -0.0873
vn -0.1549 -0.9831 -0.0980
vn -0.1551 -0.9834 -0.0937
vn -0.1549 -0.9830 -0.0988
vn -0.1379 -0.9884 -0.0644
vn -0.1649 -0.9834 -0.0758
vn -0.1642 -0.9834 -0.0772
vn -0.1651 -0.9779 -0.1283
vn -0.1129 -0.9908 -0.0749
vn -0.0891 -0.9785 -0.1858
vn -0.0874 -0.9778 -0.1904
vn -0.0939 -0.9787 -0.1825
vn -0.0918 -0.9784 -0.1855
vn -0.0982 -0.9792 -0.1776
vn -0.0961 -0.9789 -0.1805
vn -0.1293 -0.9808 -0.1462
vn -0.1302 -0.9817 -0.1393
vn -0.1293 -0.9807 -0.1466
vn -0.1526 -0.9795 -0.1317
vn -0.1119 -0.9816 -0.1546
vn -0.1129 -0.9818 -0.1528
vn -0.1078 -0.9816 -0.1576
vn -0.1121 -0.9821 -0.1516
vn -0.1380 -0.9864 -0.0898
vn -0.1542 -0.9855 -0.0709
vn -0.1228 -0.9820 -0.1438
vn -0.1258 -0.9837 -0.1286
vn -0.1208 -0.9784 -0.1680
vn -0.1476 -0.9851 -0.0879
vn -0.1309 -0.9900 -0.0525
vn -0.1770 -0.9793 -0.0986
vn -0.0809 -0.9776 -0.1945
vn -0.1929 -0.9766 -0.0953
vn -0.1391 -0.9893 -0.0439
vn -0.1673 -0.9848 -0.0467
vn -0.2034 -0.9787 -0.0263
vn -0.1766 -0.9829 -0.0525
vn -0.0931 -0.9755 -0.1994
vn -0.1023 -0.9766 -0.1890
vn -0.1461 -0.9837 -0.1052
vn -0.1519 -0.9792 -0.1344
vn -0.1058 -0.9878 -0.1147
vn -0.0596 -0.9747 -0.2156
vn -0.0806 -0.9781 -0.1920
vn -0.1017 -0.9805 -0.1680
vn -0.1171 -0.9800 -0.1607
vn -0.1066 -0.9812 -0.1606
vn -0.1421 -0.9877 -0.0653
vn -0.1552 -0.9835 -0.0928
vn -0.1366 -0.9864 -0.0916
vn -0.1656 -0.9845 -0.0582
vn -0.1701 -0.9821 -0.0807
vn -0.1108 -0.9892 -0.0962
vn -0.0876 -0.9773 -0.1929
vn -0.1302 -0.9817 -0.1389
vn -0.1475 -0.9739 -0.1726
vn -0.1210 -0.9889 -0.0862
vn 0.6498 -0.0000 -0.7601
vn -0.5796 -0.0000 -0.8149
vn -0.5766 -0.0000 -0.8170
vn -0.6498 -0.0000 0.7601
vn -0.9584 -0.0000 -0.2854
vn 1.0000 -0.0000 -0.0000
vn -0.5890 -0.0000 -0.8082
vn -0.9883 -0.0000 -0.1522
vn 0.9290 -0.0000 0.3702
vn -0.6373 -0.0000 -0.7706
vn -0.9940 -0.0000 -0.1090
vn -0.5293 -0.0000 -0.8484
vn -1.0000 -0.0000 -0.0000
vn 0.8070 -0.0000 0.5905
vn -0.4142 -0.0000 -0.9102
vn 0.8587 -0.0000 0.5125
vn 0.5767 -0.0000 0.8170
vn 0.5781 -0.0000 0.8159
vn 0.5781 -0.0000 0.8160
vn 0.9797 -0.0000 0.2006
vn 0.5796 -0.0000 0.8149
vn 0.9584 -0.0000 0.2854
vn 0.5890 -0.0000 0.8082
vn 0.9883 -0.0000 0.1522
vn 0.9884 -0.0000 0.1522
vn -0.9290 -0.0000 -0.3702
vn 0.6373 -0.0000 0.7706
vn 0.9940 -0.0000 0.1090
vn 0.5293 -0.0000 0.8484
vn -0.8070 -0.0000 -0.5905
vn 0.4142 -0.0000 0.9102
vn -0.8587 -0.0000 -0.5125
vn -0.5767 -0.0000 -0.8170
vn -0.9797 -0.0000 -0.2006
vt 0.567917 0.771904
vt 0.508711 0.787289
vt 0.483915 0.742003
vt 0.623961 0.888721
vt 0.564805 0.904107
vt 0.549167 0.869255
vt 0.562956 0.330658
vt 0.504028 0.346041
vt 0.529125 0.293160
vt 0.510686 0.640958
vt 0.451729 0.656341
vt 0.448407 0.617767
vt 0.642596 0.162852
vt 0.583669 0.178235
vt 0.606120 0.130930
vt 0.507302 0.602384
vt 0.451167 0.578209
vt 0.592628 0.819018
vt 0.533342 0.834404
vt 0.695242 0.984618
vt 0.636454 1.000000
vt 0.590009 0.944767
vt 0.548181 0.373106
vt 0.489254 0.388490
vt 0.543021 0.726618
vt 0.459152 0.696860
vt 0.617845 0.215004
vt 0.558918 0.230387
vt 0.608365 0.853869
vt 0.512671 0.523269
vt 0.453743 0.538652
vt 0.461408 0.490179
vt 0.520335 0.474796
vt 0.474231 0.438501
vt 0.518209 0.681475
vt 0.649146 0.929382
vt 0.533158 0.423118
vt 0.510063 0.562826
vt 0.588053 0.277777
vt 0.665047 0.115546
vt 0.635895 0.068192
vt 0.867039 0.062737
vt 0.841830 0.069397
vt 0.871605 0.006659
vt 0.790045 0.224968
vt 0.764836 0.231627
vt 0.794628 0.168854
vt 0.711959 0.510018
vt 0.686773 0.516677
vt 0.689478 0.477119
vt 0.735150 0.370309
vt 0.709941 0.376968
vt 0.724964 0.326957
vt 0.851766 0.876567
vt 0.826557 0.883227
vt 0.801429 0.842565
vt 0.720591 0.628663
vt 0.695382 0.635322
vt 0.687666 0.594806
vt 0.722327 0.421987
vt 0.697118 0.428646
vt 0.714663 0.470460
vt 0.811167 0.801052
vt 0.785958 0.807711
vt 0.770486 0.772858
vt 0.819837 0.162195
vt 0.819379 0.116702
vt 0.745661 0.673803
vt 0.720452 0.680463
vt 0.750173 0.320298
vt 0.739739 0.284508
vt 0.896814 0.931813
vt 0.871605 0.938472
vt 0.795696 0.766199
vt 0.745539 0.725746
vt 0.709226 0.549575
vt 0.684017 0.556235
vt 0.844588 0.110043
vt 0.712875 0.588147
vt 0.764948 0.277849
vt 0.826638 0.835906
vt 0.770748 0.719087
vt 0.782903 0.084780
vt 0.812678 0.022043
vt 0.723975 0.100163
vt 0.753750 0.037426
vt 0.694822 0.052809
vt 0.705908 0.247011
vt 0.735700 0.184237
vt 0.646981 0.262394
vt 0.676773 0.199621
vt 0.628007 0.532058
vt 0.630883 0.492499
vt 0.568958 0.547443
vt 0.571623 0.507886
vt 0.651013 0.392351
vt 0.666036 0.342340
vt 0.592086 0.407735
vt 0.607109 0.357723
vt 0.767420 0.898612
vt 0.742273 0.857950
vt 0.708283 0.913997
vt 0.683117 0.873336
vt 0.636322 0.650706
vt 0.628654 0.610190
vt 0.577019 0.666093
vt 0.569288 0.625577
vt 0.638278 0.444029
vt 0.579287 0.459413
vt 0.726760 0.823097
vt 0.711200 0.788244
vt 0.667562 0.838483
vt 0.651914 0.803631
vt 0.760451 0.132086
vt 0.701524 0.147469
vt 0.661290 0.695848
vt 0.601760 0.711237
vt 0.680811 0.299892
vt 0.621883 0.315275
vt 0.812817 0.953854
vt 0.754030 0.969236
vt 0.686332 0.741132
vt 0.627041 0.756519
vt 0.625114 0.571618
vt 0.566028 0.587002
vt 0.896814 0.000000
vt 0.328898 0.771904
vt 0.412899 0.742004
vt 0.388103 0.787290
vt 0.272854 0.888721
vt 0.347648 0.869255
vt 0.332010 0.904107
vt 0.333859 0.330658
vt 0.367689 0.293161
vt 0.392786 0.346041
vt 0.386129 0.640958
vt 0.448407 0.617767
vt 0.445085 0.656341
vt 0.254218 0.162852
vt 0.290695 0.130930
vt 0.313146 0.178236
vt 0.389513 0.602384
vt 0.445648 0.578209
vt 0.304187 0.819018
vt 0.363473 0.834405
vt 0.201572 0.984618
vt 0.306805 0.944768
vt 0.260360 1.000000
vt 0.348633 0.373107
vt 0.407561 0.388490
vt 0.353793 0.726619
vt 0.437663 0.696860
vt 0.278969 0.215004
vt 0.337897 0.230387
vt 0.288450 0.853869
vt 0.384144 0.523269
vt 0.435407 0.490180
vt 0.443071 0.538653
vt 0.376479 0.474796
vt 0.422584 0.438501
vt 0.378605 0.681475
vt 0.247668 0.929383
vt 0.363656 0.423118
vt 0.386752 0.562826
vt 0.308762 0.277777
vt 0.231767 0.115547
vt 0.260920 0.068192
vt 0.029775 0.062738
vt 0.025209 0.006659
vt 0.054984 0.069397
vt 0.106770 0.224968
vt 0.102187 0.168854
vt 0.131979 0.231628
vt 0.184856 0.510018
vt 0.207337 0.477119
vt 0.210042 0.516677
vt 0.161664 0.370309
vt 0.171851 0.326957
vt 0.186874 0.376968
vt 0.045048 0.876568
vt 0.095386 0.842565
vt 0.070258 0.883227
vt 0.176223 0.628663
vt 0.209149 0.594806
vt 0.201433 0.635322
vt 0.174487 0.421987
vt 0.199697 0.428647
vt 0.182152 0.470460
vt 0.085648 0.801052
vt 0.126328 0.772858
vt 0.110857 0.807712
vt 0.076977 0.162195
vt 0.077436 0.116703
vt 0.151153 0.673804
vt 0.176362 0.680463
vt 0.146641 0.320298
vt 0.157076 0.284508
vt -0.000000 0.931813
vt 0.025209 0.938472
vt 0.101119 0.766199
vt 0.151276 0.725746
vt 0.187589 0.549576
vt 0.212798 0.556235
vt 0.052226 0.110043
vt 0.183939 0.588147
vt 0.131867 0.277849
vt 0.070176 0.835906
vt 0.126067 0.719087
vt 0.084137 0.022043
vt 0.113912 0.084780
vt 0.143065 0.037426
vt 0.172840 0.100163
vt 0.201992 0.052809
vt 0.161114 0.184237
vt 0.190906 0.247011
vt 0.220042 0.199621
vt 0.249834 0.262394
vt 0.265932 0.492500
vt 0.268807 0.532059
vt 0.325192 0.507886
vt 0.327856 0.547443
vt 0.230778 0.342340
vt 0.245801 0.392352
vt 0.289706 0.357723
vt 0.304729 0.407735
vt 0.154542 0.857951
vt 0.129394 0.898612
vt 0.213698 0.873336
vt 0.188531 0.913997
vt 0.268161 0.610190
vt 0.260493 0.650706
vt 0.327527 0.625578
vt 0.319796 0.666093
vt 0.258537 0.444029
vt 0.317528 0.459413
vt 0.185614 0.788245
vt 0.170055 0.823097
vt 0.244900 0.803631
vt 0.229252 0.838483
vt 0.136363 0.132086
vt 0.195291 0.147469
vt 0.235525 0.695848
vt 0.295054 0.711237
vt 0.216004 0.299892
vt 0.274931 0.315275
vt 0.083997 0.953854
vt 0.142785 0.969236
vt 0.210483 0.741132
vt 0.269773 0.756519
vt 0.271700 0.571618
vt 0.330786 0.587003
vt 0.000000 0.000000
vt 0.956968 0.026072
vt 0.940646 0.002365
vt 0.955271 -0.000000
vt 0.901433 0.585786
vt 0.913143 0.634709
vt 0.898329 0.634690
vt 0.940989 0.358907
vt 0.955299 0.300321
vt 0.955642 0.361088
vt 0.956544 0.086975
vt 0.942344 0.028437
vt 0.904732 0.382948
vt 0.919488 0.429228
vt 0.904674 0.429210
vt 0.920168 0.860162
vt 0.934843 0.916428
vt 0.920029 0.916391
vt 0.896878 0.683787
vt 0.911629 0.734717
vt 0.896814 0.734698
vt 0.941331 0.419674
vt 0.955984 0.421855
vt 0.956119 0.147878
vt 0.941919 0.089340
vt 0.904851 0.288058
vt 0.919607 0.334500
vt 0.904793 0.334482
vt 0.920849 0.410371
vt 0.935223 0.448812
vt 0.920409 0.448775
vt 0.901072 0.809060
vt 0.913757 0.771898
vt 0.915886 0.809079
vt 0.941674 0.480441
vt 0.956327 0.482622
vt 0.955695 0.208781
vt 0.941495 0.150243
vt 0.904901 0.249027
vt 0.919666 0.288077
vt 0.921091 0.487182
vt 0.935906 0.487219
vt 0.902706 0.853711
vt 0.917520 0.853730
vt 0.942016 0.541207
vt 0.956669 0.543389
vt 0.904960 0.201632
vt 0.919715 0.249046
vt 0.921573 0.371811
vt 0.936431 0.330640
vt 0.936387 0.371847
vt 0.905214 0.916389
vt 0.920029 0.916407
vt 0.905031 0.145370
vt 0.919775 0.201650
vt 0.935663 0.410408
vt 0.898943 0.771879
vt 0.905090 0.098628
vt 0.919846 0.145389
vt 0.921081 0.232594
vt 0.935386 0.281729
vt 0.920571 0.281692
vt 0.955271 0.269684
vt 0.941071 0.211146
vt 0.920977 0.533444
vt 0.935671 0.581947
vt 0.920857 0.581910
vt 0.905143 0.056230
vt 0.919904 0.098647
vt 0.921617 0.330603
vt 0.935791 0.533480
vt 0.905214 -0.000000
vt 0.919958 0.056248
vt 0.923151 0.181688
vt 0.935896 0.232631
vt 0.935556 0.628370
vt 0.920742 0.628333
vt 0.904763 0.506020
vt 0.919444 0.467633
vt 0.919577 0.506038
vt 0.924500 0.107335
vt 0.938066 0.144547
vt 0.923252 0.144510
vt 0.935460 0.667401
vt 0.920645 0.667364
vt 0.904630 0.467615
vt 0.925832 0.062689
vt 0.939315 0.107372
vt 0.935342 0.714796
vt 0.920528 0.714760
vt 0.903341 0.544580
vt 0.916247 0.585804
vt 0.934843 0.000037
vt 0.940647 0.062726
vt 0.940646 0.298140
vt 0.956669 0.274230
vt 0.935203 0.771058
vt 0.920389 0.771021
vt 0.918155 0.544599
vt 0.937965 0.181725
vt 0.935087 0.817800
vt 0.920273 0.817763
vt 0.911693 0.683806
vt 0.919546 0.382967
vt 0.934982 0.860198
vt 0.940646 0.272049
vt 0.920029 0.000019
vt 0.920029 0.000000
vt 0.942016 0.272049
s 1
usemtl Material.006
f 100/1/1 36/2/1 37/3/1
f 103/4/2 39/5/3 42/6/4
f 106/7/5 26/8/5 27/9/5
f 109/10/6 35/11/7 32/12/8
f 112/13/5 29/14/5 30/15/5
f 78/16/9 32/12/10 33/17/10
f 115/18/11 38/19/12 36/2/13
f 72/20/14 41/21/14 40/22/14
f 118/23/15 22/24/16 26/8/17
f 66/25/18 37/3/19 34/26/20
f 121/27/5 28/28/5 29/14/5
f 69/29/21 42/6/21 38/19/21
f 124/30/22 23/31/23 25/32/24
f 93/33/25 25/32/26 24/34/27
f 90/35/28 34/26/28 35/11/28
f 87/36/29 40/22/30 39/5/31
f 96/37/32 24/34/27 22/24/16
f 84/38/33 33/17/34 23/31/23
f 75/39/5 27/9/5 28/28/5
f 81/40/5 30/15/5 31/41/5
f 9/42/35 52/43/35 63/44/35
f 6/45/35 48/46/35 59/47/35
f 12/48/36 54/49/37 61/50/38
f 3/51/39 62/52/40 57/53/41
f 19/54/42 56/55/42 46/56/43
f 13/57/44 58/58/44 51/59/44
f 4/60/45 60/61/46 62/52/40
f 2/62/47 61/50/38 60/61/46
f 21/63/48 45/64/48 55/65/48
f 7/66/35 59/47/35 53/67/35
f 16/68/49 43/69/49 58/58/49
f 1/70/50 57/53/41 49/71/51
f 20/72/52 47/73/52 56/55/52
f 17/74/53 55/65/53 44/75/53
f 11/76/54 50/77/55 54/49/37
f 8/78/35 53/67/35 52/43/35
f 14/79/44 51/59/44 50/77/44
f 5/80/35 49/71/35 48/46/35
f 18/81/56 46/56/43 45/64/48
f 15/82/57 44/75/57 43/69/57
f 52/43/5 79/83/5 97/84/5
f 79/83/5 80/85/5 98/86/5
f 80/85/5 81/40/5 99/87/5
f 48/46/5 73/88/5 123/89/5
f 73/88/5 74/90/5 122/91/5
f 74/90/5 75/39/5 121/27/5
f 54/49/58 82/92/58 126/93/58
f 82/92/59 83/94/60 125/95/61
f 83/94/60 84/38/33 124/30/22
f 62/52/62 94/96/63 120/97/15
f 94/96/63 95/98/64 119/99/15
f 95/98/64 96/37/32 118/23/15
f 56/55/65 85/100/66 105/101/67
f 85/100/66 86/102/68 104/103/69
f 86/102/68 87/36/29 103/4/70
f 58/58/71 88/104/72 111/105/73
f 88/104/74 89/106/75 110/107/76
f 89/106/77 90/35/77 109/10/77
f 60/61/78 91/108/79 94/96/63
f 91/108/79 92/109/80 95/98/64
f 92/109/81 93/33/25 96/37/32
f 61/50/82 126/93/82 91/108/82
f 126/93/83 125/95/83 92/109/83
f 125/95/61 124/30/22 93/33/84
f 45/64/85 67/110/86 117/111/87
f 67/110/88 68/112/88 116/113/88
f 68/112/89 69/29/90 115/18/91
f 59/47/5 123/89/5 114/114/5
f 123/89/5 122/91/5 113/115/5
f 122/91/5 121/27/5 112/13/5
f 43/69/92 64/116/92 88/104/92
f 64/116/93 65/117/94 89/106/95
f 65/117/96 66/25/97 90/35/98
f 57/53/99 120/97/15 108/118/17
f 120/97/15 119/99/15 107/119/17
f 119/99/15 118/23/15 106/7/17
f 47/73/100 70/120/100 85/100/100
f 70/120/101 71/121/101 86/102/101
f 71/121/102 72/20/102 87/36/102
f 55/65/103 117/111/104 102/122/105
f 117/111/104 116/113/106 101/123/107
f 116/113/108 115/18/11 100/1/109
f 50/77/110 76/124/110 82/92/110
f 76/124/111 77/125/112 83/94/113
f 77/125/114 78/16/114 84/38/114
f 53/67/5 114/114/5 79/83/5
f 114/114/5 113/115/5 80/85/5
f 113/115/5 112/13/5 81/40/5
f 51/59/115 111/105/73 76/124/116
f 111/105/117 110/107/117 77/125/117
f 110/107/118 109/10/118 78/16/118
f 49/71/5 108/118/5 73/88/5
f 108/118/5 107/119/5 74/90/5
f 107/119/5 106/7/5 75/39/5
f 46/56/119 105/101/67 67/110/86
f 105/101/120 104/103/121 68/112/122
f 104/103/121 103/4/2 69/29/123
f 44/75/124 102/122/125 64/116/126
f 102/122/127 101/123/127 65/117/127
f 101/123/128 100/1/129 66/25/130
f 100/1/129 37/3/131 66/25/130
f 103/4/2 42/6/4 69/29/123
f 106/7/5 27/9/5 75/39/5
f 109/10/6 32/12/8 78/16/132
f 112/13/5 30/15/5 81/40/5
f 78/16/9 33/17/10 84/38/133
f 115/18/11 36/2/13 100/1/109
f 72/20/134 40/22/134 87/36/134
f 118/23/15 26/8/17 106/7/17
f 66/25/18 34/26/20 90/35/135
f 121/27/5 29/14/5 112/13/5
f 69/29/90 38/19/136 115/18/91
f 124/30/22 25/32/24 93/33/84
f 93/33/25 24/34/27 96/37/32
f 90/35/137 35/11/137 109/10/137
f 87/36/29 39/5/31 103/4/70
f 96/37/32 22/24/16 118/23/15
f 84/38/33 23/31/23 124/30/22
f 75/39/5 28/28/5 121/27/5
f 81/40/5 31/41/5 99/87/5
f 9/42/35 63/44/35 10/126/35
f 6/45/35 59/47/35 7/66/35
f 12/48/36 61/50/38 2/62/47
f 3/51/39 57/53/41 1/70/50
f 19/54/42 46/56/43 18/81/56
f 13/57/44 51/59/44 14/79/44
f 4/60/45 62/52/40 3/51/39
f 2/62/47 60/61/46 4/60/45
f 21/63/48 55/65/48 17/74/48
f 7/66/35 53/67/35 8/78/35
f 16/68/49 58/58/49 13/57/49
f 1/70/50 49/71/51 5/80/51
f 20/72/52 56/55/52 19/54/52
f 17/74/53 44/75/53 15/82/53
f 11/76/54 54/49/37 12/48/36
f 8/78/35 52/43/35 9/42/35
f 14/79/44 50/77/44 11/76/44
f 5/80/35 48/46/35 6/45/35
f 18/81/56 45/64/48 21/63/48
f 15/82/57 43/69/57 16/68/57
f 52/43/5 97/84/5 63/44/5
f 79/83/5 98/86/5 97/84/5
f 80/85/5 99/87/5 98/86/5
f 48/46/5 123/89/5 59/47/5
f 73/88/5 122/91/5 123/89/5
f 74/90/5 121/27/5 122/91/5
f 54/49/138 126/93/138 61/50/138
f 82/92/139 125/95/139 126/93/139
f 83/94/60 124/30/22 125/95/61
f 62/52/62 120/97/15 57/53/99
f 94/96/63 119/99/15 120/97/15
f 95/98/64 118/23/15 119/99/15
f 56/55/65 105/101/67 46/56/119
f 85/100/66 104/103/69 105/101/67
f 86/102/68 103/4/70 104/103/69
f 58/58/71 111/105/73 51/59/115
f 88/104/74 110/107/76 111/105/140
f 89/106/141 109/10/141 110/107/141
f 60/61/78 94/96/63 62/52/62
f 91/108/79 95/98/64 94/96/63
f 92/109/81 96/37/32 95/98/64
f 61/50/142 91/108/142 60/61/142
f 126/93/143 92/109/80 91/108/79
f 125/95/61 93/33/84 92/109/144
f 45/64/145 117/111/145 55/65/145
f 67/110/86 116/113/146 117/111/87
f 68/112/147 115/18/147 116/113/147
f 59/47/5 114/114/5 53/67/5
f 123/89/5 113/115/5 114/114/5
f 122/91/5 112/13/5 113/115/5
f 43/69/148 88/104/148 58/58/148
f 64/116/149 89/106/149 88/104/149
f 65/117/96 90/35/98 89/106/150
f 57/53/99 108/118/17 49/71/17
f 120/97/15 107/119/17 108/118/17
f 119/99/15 106/7/17 107/119/17
f 47/73/151 85/100/151 56/55/151
f 70/120/152 86/102/68 85/100/66
f 71/121/153 87/36/153 86/102/153
f 55/65/103 102/122/105 44/75/154
f 117/111/104 101/123/107 102/122/105
f 116/113/155 100/1/129 101/123/128
f 50/77/156 82/92/156 54/49/156
f 76/124/111 83/94/113 82/92/157
f 77/125/158 84/38/158 83/94/158
f 53/67/5 79/83/5 52/43/5
f 114/114/5 80/85/5 79/83/5
f 113/115/5 81/40/5 80/85/5
f 51/59/159 76/124/159 50/77/159
f 111/105/73 77/125/160 76/124/116
f 110/107/161 78/16/161 77/125/161
f 49/71/5 73/88/5 48/46/5
f 108/118/5 74/90/5 73/88/5
f 107/119/5 75/39/5 74/90/5
f 46/56/119 67/110/86 45/64/85
f 105/101/67 68/112/162 67/110/86
f 104/103/121 69/29/123 68/112/122
f 44/75/124 64/116/126 43/69/163
f 102/122/164 65/117/94 64/116/93
f 101/123/165 66/25/165 65/117/165
f 226/127/166 163/128/166 162/129/166
f 229/130/167 168/131/168 165/132/169
f 232/133/170 153/134/170 152/135/170
f 235/136/171 158/137/172 161/138/173
f 238/139/170 156/140/170 155/141/170
f 204/142/174 159/143/175 158/137/175
f 241/144/176 162/129/177 164/145/178
f 198/146/179 166/147/179 167/148/179
f 244/149/180 152/135/181 148/150/182
f 192/151/183 160/152/184 163/128/185
f 247/153/170 155/141/170 154/154/170
f 195/155/186 164/145/186 168/131/186
f 250/156/187 151/157/188 149/158/189
f 219/159/190 150/160/191 151/157/192
f 216/161/193 161/138/193 160/152/193
f 213/162/194 165/132/195 166/147/196
f 222/163/197 148/150/182 150/160/191
f 210/164/198 149/158/189 159/143/199
f 201/165/170 154/154/170 153/134/170
f 207/166/170 157/167/170 156/140/170
f 135/168/200 189/169/200 178/170/200
f 132/171/200 185/172/200 174/173/200
f 138/174/201 187/175/202 180/176/203
f 129/177/204 183/178/205 188/179/206
f 145/180/207 172/181/208 182/182/207
f 139/183/209 177/184/209 184/185/209
f 130/186/210 188/179/206 186/187/211
f 128/188/212 186/187/211 187/175/202
f 147/189/213 181/190/213 171/191/213
f 133/192/200 179/193/200 185/172/200
f 142/194/214 184/185/214 169/195/214
f 127/196/215 175/197/216 183/178/205
f 146/198/217 182/182/217 173/199/217
f 143/200/218 170/201/218 181/190/218
f 137/202/219 180/176/203 176/203/220
f 134/204/200 178/170/200 179/193/200
f 140/205/209 176/203/209 177/184/209
f 131/206/200 174/173/200 175/197/200
f 144/207/221 171/191/213 172/181/208
f 141/208/222 169/195/222 170/201/222
f 178/170/170 223/209/170 205/210/170
f 205/210/170 224/211/170 206/212/170
f 206/212/170 225/213/170 207/166/170
f 174/173/170 249/214/170 199/215/170
f 199/215/170 248/216/170 200/217/170
f 200/217/170 247/153/170 201/165/170
f 180/176/223 252/218/223 208/219/223
f 208/219/224 251/220/224 209/221/224
f 209/221/225 250/156/187 210/164/198
f 188/179/226 246/222/180 220/223/227
f 220/223/227 245/224/180 221/225/228
f 221/225/228 244/149/180 222/163/197
f 182/182/229 231/226/230 211/227/231
f 211/227/231 230/228/232 212/229/233
f 212/229/233 229/130/234 213/162/194
f 184/185/235 237/230/236 214/231/237
f 214/231/238 236/232/239 215/233/240
f 215/233/241 235/136/241 216/161/241
f 186/187/242 220/223/227 217/234/243
f 217/234/244 221/225/228 218/235/245
f 218/235/245 222/163/197 219/159/190
f 187/175/246 217/234/246 252/218/246
f 252/218/247 218/235/247 251/220/247
f 251/220/248 219/159/249 250/156/187
f 171/191/250 243/236/251 193/237/252
f 193/237/253 242/238/254 194/239/255
f 194/239/256 241/144/257 195/155/258
f 185/172/170 240/240/170 249/214/170
f 249/214/170 239/241/170 248/216/170
f 248/216/170 238/139/170 247/153/170
f 169/195/259 214/231/259 190/242/259
f 190/242/260 215/233/261 191/243/262
f 191/243/263 216/161/264 192/151/265
f 183/178/266 234/244/181 246/222/180
f 246/222/180 233/245/181 245/224/180
f 245/224/180 232/133/181 244/149/180
f 173/199/267 211/227/267 196/246/267
f 196/246/268 212/229/268 197/247/268
f 197/247/269 213/162/269 198/146/269
f 181/190/270 228/248/271 243/236/272
f 243/236/272 227/249/273 242/238/274
f 242/238/254 226/127/275 241/144/176
f 176/203/276 208/219/276 202/250/276
f 202/250/277 209/221/278 203/251/279
f 203/251/280 210/164/280 204/142/280
f 179/193/170 205/210/170 240/240/170
f 240/240/170 206/212/170 239/241/170
f 239/241/170 207/166/170 238/139/170
f 177/184/281 202/250/282 237/230/236
f 237/230/283 203/251/283 236/232/283
f 236/232/284 204/142/284 235/136/284
f 175/197/170 199/215/170 234/244/170
f 234/244/170 200/217/170 233/245/170
f 233/245/170 201/165/170 232/133/170
f 172/181/285 193/237/286 231/226/287
f 231/226/287 194/239/288 230/228/289
f 230/228/289 195/155/290 229/130/167
f 170/201/291 190/242/292 228/248/293
f 228/248/294 191/243/294 227/249/294
f 227/249/295 192/151/296 226/127/297
f 226/127/297 192/151/296 163/128/298
f 229/130/167 195/155/290 168/131/168
f 232/133/170 201/165/170 153/134/170
f 235/136/171 204/142/299 158/137/172
f 238/139/170 207/166/170 156/140/170
f 204/142/174 210/164/300 159/143/175
f 241/144/176 226/127/275 162/129/177
f 198/146/301 213/162/301 166/147/301
f 244/149/180 232/133/181 152/135/181
f 192/151/183 216/161/302 160/152/184
f 247/153/170 238/139/170 155/141/170
f 195/155/258 241/144/257 164/145/303
f 250/156/187 219/159/249 151/157/188
f 219/159/190 222/163/197 150/160/191
f 216/161/304 235/136/304 161/138/304
f 213/162/194 229/130/234 165/132/195
f 222/163/197 244/149/180 148/150/182
f 210/164/198 250/156/187 149/158/189
f 201/165/170 247/153/170 154/154/170
f 207/166/170 225/213/170 157/167/170
f 135/168/200 136/252/200 189/169/200
f 132/171/200 133/192/200 185/172/200
f 138/174/201 128/188/212 187/175/202
f 129/177/204 127/196/215 183/178/205
f 145/180/207 144/207/221 172/181/208
f 139/183/209 140/205/209 177/184/209
f 130/186/210 129/177/204 188/179/206
f 128/188/212 130/186/210 186/187/211
f 147/189/213 143/200/213 181/190/213
f 133/192/200 134/204/200 179/193/200
f 142/194/214 139/183/214 184/185/214
f 127/196/215 131/206/216 175/197/216
f 146/198/217 145/180/217 182/182/217
f 143/200/218 141/208/218 170/201/218
f 137/202/219 138/174/201 180/176/203
f 134/204/200 135/168/200 178/170/200
f 140/205/209 137/202/209 176/203/209
f 131/206/200 132/171/200 174/173/200
f 144/207/221 147/189/213 171/191/213
f 141/208/222 142/194/222 169/195/222
f 178/170/170 189/169/170 223/209/170
f 205/210/170 223/209/170 224/211/170
f 206/212/170 224/211/170 225/213/170
f 174/173/170 185/172/170 249/214/170
f 199/215/170 249/214/170 248/216/170
f 200/217/170 248/216/170 247/153/170
f 180/176/305 187/175/305 252/218/305
f 208/219/306 252/218/306 251/220/306
f 209/221/225 251/220/248 250/156/187
f 188/179/226 183/178/266 246/222/180
f 220/223/227 246/222/180 245/224/180
f 221/225/228 245/224/180 244/149/180
f 182/182/229 172/181/307 231/226/230
f 211/227/231 231/226/230 230/228/232
f 212/229/233 230/228/232 229/130/234
f 184/185/235 177/184/281 237/230/236
f 214/231/238 237/230/308 236/232/239
f 215/233/309 236/232/309 235/136/309
f 186/187/242 188/179/226 220/223/227
f 217/234/244 220/223/227 221/225/228
f 218/235/245 221/225/228 222/163/197
f 187/175/310 186/187/310 217/234/310
f 252/218/311 217/234/311 218/235/311
f 251/220/248 218/235/312 219/159/249
f 171/191/313 181/190/313 243/236/313
f 193/237/252 243/236/251 242/238/314
f 194/239/255 242/238/254 241/144/176
f 185/172/170 179/193/170 240/240/170
f 249/214/170 240/240/170 239/241/170
f 248/216/170 239/241/170 238/139/170
f 169/195/315 184/185/315 214/231/315
f 190/242/316 214/231/316 215/233/316
f 191/243/263 215/233/317 216/161/264
f 183/178/266 175/197/181 234/244/181
f 246/222/180 234/244/181 233/245/181
f 245/224/180 233/245/181 232/133/181
f 173/199/318 182/182/318 211/227/318
f 196/246/319 211/227/231 212/229/233
f 197/247/320 212/229/320 213/162/320
f 181/190/270 170/201/321 228/248/271
f 243/236/272 228/248/271 227/249/273
f 242/238/322 227/249/295 226/127/297
f 176/203/323 180/176/323 208/219/323
f 202/250/277 208/219/324 209/221/278
f 203/251/325 209/221/325 210/164/325
f 179/193/170 178/170/170 205/210/170
f 240/240/170 205/210/170 206/212/170
f 239/241/170 206/212/170 207/166/170
f 177/184/326 176/203/326 202/250/326
f 237/230/236 202/250/282 203/251/327
f 236/232/328 203/251/328 204/142/328
f 175/197/170 174/173/170 199/215/170
f 234/244/170 199/215/170 200/217/170
f 233/245/170 200/217/170 201/165/170
f 172/181/285 171/191/329 193/237/286
f 231/226/287 193/237/286 194/239/288
f 230/228/289 194/239/288 195/155/290
f 170/201/291 169/195/330 190/242/292
f 228/248/331 190/242/260 191/243/262
f 227/249/332 191/243/332 192/151/332
f 63/253/333 136/254/333 10/255/333
f 13/256/334 142/257/334 16/258/335
f 70/259/336 173/260/336 196/261/336
f 97/262/333 189/263/333 63/253/333
f 4/264/337 128/265/337 2/266/337
f 30/267/338 157/268/338 31/269/338
f 15/270/339 143/271/339 17/272/339
f 71/273/336 196/261/336 197/274/336
f 98/275/333 223/276/333 97/262/333
f 1/277/340 129/278/340 3/279/340
f 32/280/341 159/281/341 33/282/341
f 18/283/342 147/284/342 144/285/342
f 72/286/336 197/274/336 198/287/336
f 99/288/333 224/289/333 98/275/333
f 5/290/343 127/291/343 1/277/343
f 23/292/341 159/281/341 149/293/341
f 19/294/344 144/285/344 145/295/344
f 41/296/336 198/287/336 167/297/336
f 6/298/345 131/299/345 5/290/345
f 35/300/346 160/301/346 161/302/346
f 20/303/347 145/295/347 146/304/347
f 7/305/345 132/306/345 6/298/345
f 35/300/348 158/307/348 32/280/348
f 21/308/342 143/271/342 147/284/342
f 8/309/345 133/310/345 7/305/345
f 36/311/349 163/312/350 37/313/351
f 31/314/333 225/315/333 99/288/333
f 25/316/352 150/317/352 24/318/352
f 9/319/345 134/320/345 8/309/345
f 34/321/353 163/312/350 160/301/353
f 23/292/354 151/322/354 25/316/354
f 10/323/345 135/324/345 9/319/345
f 38/325/355 162/326/355 36/311/355
f 24/318/356 148/327/357 22/328/357
f 11/329/358 138/330/358 137/331/358
f 39/332/359 168/333/359 42/334/359
f 22/328/360 152/335/360 26/336/360
f 12/337/358 128/265/358 138/330/358
f 40/338/361 165/339/361 39/332/361
f 26/336/338 153/340/338 27/341/338
f 14/342/362 139/343/362 13/256/362
f 40/338/363 167/344/363 166/345/363
f 47/346/336 146/347/336 173/260/336
f 27/341/338 154/348/338 28/349/338
f 11/329/364 140/350/364 14/342/364
f 42/334/359 164/351/359 38/325/359
f 28/349/338 155/352/338 29/353/338
f 16/258/335 141/354/365 15/270/365
f 3/279/366 130/355/366 4/264/366
f 29/353/338 156/356/338 30/267/338
f 63/253/333 189/263/333 136/254/333
f 13/256/334 139/343/334 142/257/334
f 70/259/336 47/346/336 173/260/336
f 97/262/333 223/276/333 189/263/333
f 4/264/337 130/355/337 128/265/337
f 30/267/338 156/356/338 157/268/338
f 15/270/339 141/354/339 143/271/339
f 71/273/336 70/259/336 196/261/336
f 98/275/333 224/289/333 223/276/333
f 1/277/340 127/291/340 129/278/340
f 32/280/341 158/307/341 159/281/341
f 18/283/342 21/308/342 147/284/342
f 72/286/336 71/273/336 197/274/336
f 99/288/333 225/315/333 224/289/333
f 5/290/343 131/299/343 127/291/343
f 23/292/341 33/282/341 159/281/341
f 19/294/344 18/283/344 144/285/344
f 41/296/336 72/286/336 198/287/336
f 6/298/345 132/306/345 131/299/345
f 35/300/346 34/321/346 160/301/346
f 20/303/347 19/294/347 145/295/347
f 7/305/345 133/310/345 132/306/345
f 35/300/348 161/302/348 158/307/348
f 21/308/342 17/272/342 143/271/342
f 8/309/345 134/320/345 133/310/345
f 36/311/349 162/326/349 163/312/350
f 31/314/333 157/357/333 225/315/333
f 25/316/352 151/322/352 150/317/352
f 9/319/345 135/324/345 134/320/345
f 34/321/353 37/313/351 163/312/350
f 23/292/354 149/293/354 151/322/354
f 10/323/345 136/358/345 135/324/345
f 38/325/355 164/351/355 162/326/355
f 24/318/356 150/317/356 148/327/357
f 11/329/358 12/337/358 138/330/358
f 39/332/359 165/339/359 168/333/359
f 22/328/360 148/327/360 152/335/360
f 12/337/358 2/266/358 128/265/358
f 40/338/361 166/345/361 165/339/361
f 26/336/338 152/335/338 153/340/338
f 14/342/362 140/350/362 139/343/362
f 40/338/363 41/359/363 167/344/363
f 47/346/336 20/360/336 146/347/336
f 27/341/338 153/340/338 154/348/338
f 11/329/364 137/331/364 140/350/364
f 42/334/359 168/333/359 164/351/359
f 28/349/338 154/348/338 155/352/338
f 16/258/335 142/257/334 141/354/365
f 3/279/366 129/278/366 130/355/366
f 29/353/338 155/352/338 156/356/338
