# Blender 4.1.0
# www.blender.org
mtllib Wall.mtl
o Cube
v -0.265062 -0.701935 1.382472
v -0.265062 -0.701935 -1.382472
v 0.265062 -0.701935 1.382472
v 0.265062 -0.701935 -1.382472
v -0.265062 -0.701935 -0.829483
v -0.265062 -0.701935 -0.276494
v -0.265062 -0.701935 0.276494
v -0.265062 -0.701935 0.829483
v -0.265062 0.701935 0.829483
v -0.265062 0.701935 0.276494
v -0.265062 0.701935 -0.276494
v -0.265062 0.701935 -0.829483
v 0.265062 -0.701935 0.829483
v 0.265062 -0.701935 0.276494
v 0.265062 -0.701935 -0.276494
v 0.265062 -0.701935 -0.829483
v 0.265062 0.701935 -0.829483
v 0.265062 0.701935 -0.276494
v 0.265062 0.701935 0.276494
v 0.265062 0.701935 0.829483
v -0.265062 -0.233978 1.382472
v -0.265062 0.233978 1.382472
v -0.265062 0.233978 -1.382472
v -0.265062 -0.233978 -1.382472
v 0.265062 0.233978 -1.382472
v 0.265062 -0.233978 -1.382472
v 0.265062 0.233978 1.382472
v 0.265062 -0.233978 1.382472
v 0.265062 0.233978 -0.829483
v 0.265062 -0.233978 -0.829483
v 0.265062 0.233978 -0.276494
v 0.265062 -0.233978 -0.276494
v 0.265062 0.233978 0.276494
v 0.265062 -0.233978 0.276494
v 0.265062 0.233978 0.829483
v 0.265062 -0.233978 0.829483
v -0.265062 0.233978 0.829483
v -0.265062 -0.233978 0.829483
v -0.265062 0.233978 0.276494
v -0.265062 -0.233978 0.276494
v -0.265062 0.233978 -0.276494
v -0.265062 -0.233978 -0.276494
v -0.265062 0.233978 -0.829483
v -0.265062 -0.233978 -0.829483
v -0.265062 0.575587 1.382472
v -0.265062 0.701935 1.133627
v -0.265062 0.623938 1.363529
v -0.265062 0.664928 1.309587
v -0.265062 0.692317 1.228855
v -0.265062 0.701935 -1.133627
v -0.265062 0.575587 -1.382472
v -0.265062 0.692317 -1.228855
v -0.265062 0.664928 -1.309587
v -0.265062 0.623938 -1.363529
v 0.265062 0.701935 1.133627
v 0.265062 0.575587 1.382472
v 0.265062 0.692317 1.228855
v 0.265062 0.664928 1.309587
v 0.265062 0.623938 1.363529
v 0.265062 0.575587 -1.382472
v 0.265062 0.701935 -1.133627
v 0.265062 0.623938 -1.363529
v 0.265062 0.664928 -1.309587
v 0.265062 0.692317 -1.228855
vn 1.0000 -0.0000 -0.0000
vn -1.0000 -0.0000 -0.0000
vn -0.0000 1.0000 -0.0000
vn -0.0000 -1.0000 -0.0000
vn -0.0000 -0.0000 -1.0000
vn -0.0000 -0.0000 1.0000
vn -0.0000 0.9949 -0.1005
vn -0.0000 0.9470 -0.3213
vn -0.0000 0.7962 -0.6050
vn -0.0000 0.3648 -0.9311
vn -0.0000 0.9949 0.1005
vn -0.0000 0.9470 0.3213
vn -0.0000 0.7962 0.6050
vn -0.0000 0.3648 0.9311
vt 0.618410 0.743410
vt 0.611110 0.748287
vt 0.602500 0.750000
vt 0.618410 0.243410
vt 0.611110 0.248287
vt 0.602500 0.250000
vt 0.625000 0.522500
vt 0.625000 0.550000
vt 0.541667 0.550000
vt 0.875000 0.700000
vt 0.625000 0.727500
vt 0.625000 0.700000
vt 0.375000 0.700000
vt 0.125000 0.750000
vt 0.125000 0.700000
vt 0.875000 0.522500
vt 0.541667 0.500000
vt 0.541667 0.250000
vt 0.875000 0.550000
vt 0.625000 0.600000
vt 0.875000 0.600000
vt 0.625000 0.650000
vt 0.875000 0.650000
vt 0.375000 0.500000
vt 0.125000 0.550000
vt 0.125000 0.500000
vt 0.375000 0.550000
vt 0.125000 0.600000
vt 0.375000 0.600000
vt 0.125000 0.650000
vt 0.375000 0.650000
vt 0.541667 0.600000
vt 0.541667 0.650000
vt 0.541667 0.700000
vt 0.541667 1.000000
vt 0.541667 0.750000
vt 0.625000 0.050000
vt 0.541667 0.100000
vt 0.541667 0.050000
vt 0.625000 0.100000
vt 0.541667 0.150000
vt 0.625000 0.150000
vt 0.541667 0.200000
vt 0.458333 0.150000
vt 0.375000 0.200000
vt 0.375000 0.150000
vt 0.458333 0.100000
vt 0.375000 0.100000
vt 0.458333 0.050000
vt 0.375000 0.050000
vt 0.458333 0.000000
vt 0.375000 0.000000
vt 0.541667 0.000000
vt 0.458333 0.650000
vt 0.458333 0.600000
vt 0.458333 0.550000
vt 0.458333 0.500000
vt 0.458333 0.750000
vt 0.375000 1.000000
vt 0.375000 0.750000
vt 0.458333 1.000000
vt 0.458333 0.700000
vt 0.458333 0.250000
vt 0.375000 0.250000
vt 0.458333 0.200000
vt 0.875000 0.513890
vt 0.625000 0.513890
vt 0.875000 0.500000
vt 0.625000 0.500000
vt 0.611110 0.250000
vt 0.625000 0.250000
vt 0.611110 0.500000
vt 0.875000 0.727500
vt 0.625000 0.736110
vt 0.875000 0.736110
vt 0.625000 0.750000
vt 0.625000 1.000000
vt 0.611110 0.750000
vt 0.611110 1.000000
vt 0.625000 0.022500
vt 0.623287 0.736110
vt 0.625000 0.227500
vt 0.625000 0.200000
vt 0.623287 0.236110
vt 0.602500 0.500000
vt 0.611110 0.501713
vt 0.618410 0.506590
vt 0.623287 0.513890
vt 0.602500 1.000000
vt 0.875000 0.750000
vt 0.602500 0.000000
vt 0.611110 0.001713
vt 0.618410 0.006590
vt 0.623287 0.013890
s 0
f 58/1/1 59/2/1 56/3/1
f 53/4/2 54/5/2 51/6/2
f 61/7/1 17/8/1 29/9/1
f 9/10/3 55/11/3 20/12/3
f 13/13/4 1/14/4 8/15/4
f 50/16/3 17/8/3 61/7/3
f 51/6/5 25/17/5 23/18/5
f 12/19/3 18/20/3 17/8/3
f 11/21/3 19/22/3 18/20/3
f 10/23/3 20/12/3 19/22/3
f 4/24/4 5/25/4 2/26/4
f 16/27/4 6/28/4 5/25/4
f 15/29/4 7/30/4 6/28/4
f 14/31/4 8/15/4 7/30/4
f 17/8/1 31/32/1 29/9/1
f 18/20/1 33/33/1 31/32/1
f 19/22/1 35/34/1 33/33/1
f 56/3/6 22/35/6 27/36/6
f 9/37/2 39/38/2 37/39/2
f 10/40/2 41/41/2 39/38/2
f 11/42/2 43/43/2 41/41/2
f 42/44/2 5/45/2 6/46/2
f 40/47/2 6/46/2 7/48/2
f 39/38/2 42/44/2 40/47/2
f 38/49/2 7/48/2 8/50/2
f 21/51/2 8/50/2 1/52/2
f 22/53/2 38/49/2 21/51/2
f 34/54/1 13/13/1 14/31/1
f 32/55/1 14/31/1 15/29/1
f 31/32/1 34/54/1 32/55/1
f 30/56/1 15/29/1 16/27/1
f 26/57/1 16/27/1 4/24/1
f 25/17/1 30/56/1 26/57/1
f 28/58/6 1/59/6 3/60/6
f 27/36/6 21/61/6 28/58/6
f 36/62/1 3/60/1 13/13/1
f 35/34/1 28/58/1 36/62/1
f 24/63/5 4/24/5 2/64/5
f 23/18/5 26/57/5 24/63/5
f 44/65/2 2/64/2 5/45/2
f 43/43/2 24/63/2 44/65/2
f 36/62/3 40/47/3 38/49/3
f 33/33/6 40/47/6 34/54/6
f 38/49/5 35/34/5 36/62/5
f 39/38/4 35/34/4 37/39/4
f 43/43/4 31/32/4 41/41/4
f 42/44/5 31/32/5 32/55/5
f 32/55/3 44/65/3 42/44/3
f 29/9/6 44/65/6 30/56/6
f 61/7/7 52/66/7 50/16/7
f 64/67/8 53/68/8 52/66/8
f 63/69/9 54/70/9 53/71/9
f 62/72/10 51/6/10 54/70/10
f 46/73/11 57/74/11 55/11/11
f 49/75/12 58/76/12 57/74/12
f 48/77/13 59/78/13 58/76/13
f 47/79/14 56/3/14 59/78/14
f 46/80/2 9/37/2 37/39/2
f 27/36/1 35/34/1 55/11/1
f 35/34/1 20/12/1 55/11/1
f 27/36/1 55/11/1 56/3/1
f 55/11/1 57/81/1 56/3/1
f 57/81/1 58/1/1 56/3/1
f 23/18/2 43/43/2 50/82/2
f 43/43/2 12/83/2 50/82/2
f 23/18/2 50/82/2 51/6/2
f 50/82/2 52/84/2 51/6/2
f 52/84/2 53/4/2 51/6/2
f 29/9/1 25/17/1 61/7/1
f 25/17/1 60/85/1 61/7/1
f 60/85/1 62/86/1 63/87/1
f 63/87/1 64/88/1 60/85/1
f 64/88/1 61/7/1 60/85/1
f 9/10/3 46/73/3 55/11/3
f 13/13/4 3/60/4 1/14/4
f 50/16/3 12/19/3 17/8/3
f 51/6/5 60/85/5 25/17/5
f 12/19/3 11/21/3 18/20/3
f 11/21/3 10/23/3 19/22/3
f 10/23/3 9/10/3 20/12/3
f 4/24/4 16/27/4 5/25/4
f 16/27/4 15/29/4 6/28/4
f 15/29/4 14/31/4 7/30/4
f 14/31/4 13/13/4 8/15/4
f 17/8/1 18/20/1 31/32/1
f 18/20/1 19/22/1 33/33/1
f 19/22/1 20/12/1 35/34/1
f 56/3/6 45/89/6 22/35/6
f 9/37/2 10/40/2 39/38/2
f 10/40/2 11/42/2 41/41/2
f 11/42/2 12/83/2 43/43/2
f 42/44/2 44/65/2 5/45/2
f 40/47/2 42/44/2 6/46/2
f 39/38/2 41/41/2 42/44/2
f 38/49/2 40/47/2 7/48/2
f 21/51/2 38/49/2 8/50/2
f 22/53/2 37/39/2 38/49/2
f 34/54/1 36/62/1 13/13/1
f 32/55/1 34/54/1 14/31/1
f 31/32/1 33/33/1 34/54/1
f 30/56/1 32/55/1 15/29/1
f 26/57/1 30/56/1 16/27/1
f 25/17/1 29/9/1 30/56/1
f 28/58/6 21/61/6 1/59/6
f 27/36/6 22/35/6 21/61/6
f 36/62/1 28/58/1 3/60/1
f 35/34/1 27/36/1 28/58/1
f 24/63/5 26/57/5 4/24/5
f 23/18/5 25/17/5 26/57/5
f 44/65/2 24/63/2 2/64/2
f 43/43/2 23/18/2 24/63/2
f 36/62/3 34/54/3 40/47/3
f 33/33/6 39/38/6 40/47/6
f 38/49/5 37/39/5 35/34/5
f 39/38/4 33/33/4 35/34/4
f 43/43/4 29/9/4 31/32/4
f 42/44/5 41/41/5 31/32/5
f 32/55/3 30/56/3 44/65/3
f 29/9/6 43/43/6 44/65/6
f 61/7/7 64/67/7 52/66/7
f 64/67/8 63/69/8 53/68/8
f 63/69/9 62/72/9 54/70/9
f 62/72/10 60/85/10 51/6/10
f 46/73/11 49/75/11 57/74/11
f 49/75/12 48/90/12 58/76/12
f 48/77/13 47/79/13 59/78/13
f 47/79/14 45/89/14 56/3/14
f 37/39/2 22/53/2 46/80/2
f 22/53/2 45/91/2 46/80/2
f 45/91/2 47/92/2 48/93/2
f 48/93/2 49/94/2 45/91/2
f 49/94/2 46/80/2 45/91/2
