# Blender 4.1.0
# www.blender.org
mtllib SignLegs.mtl
o Legs
v 0.561234 -0.063856 0.686284
v 0.558085 0.014498 0.686271
v 0.649291 -0.058959 0.598307
v 0.640649 0.046401 0.598143
v 0.649189 -0.058964 0.599193
v 0.648917 -0.058979 0.600035
v 0.648494 -0.059002 0.600793
v 0.647952 -0.059031 0.601430
v 0.647348 -0.059064 0.601908
v 0.646783 -0.059095 0.602198
v 0.646404 -0.059116 0.602305
v 0.646223 -0.059126 0.602320
v 0.645943 -0.059141 0.602288
v 0.645424 -0.059170 0.602121
v 0.644790 -0.059204 0.601769
v 0.644168 -0.059239 0.601242
v 0.643635 -0.059268 0.600570
v 0.643233 -0.059290 0.599788
v 0.642989 -0.059304 0.598932
v 0.642916 -0.059308 0.598042
v 0.643019 -0.059303 0.597156
v 0.643291 -0.059288 0.596314
v 0.643714 -0.059265 0.595556
v 0.644256 -0.059236 0.594919
v 0.644860 -0.059203 0.594440
v 0.645425 -0.059172 0.594151
v 0.645803 -0.059151 0.594044
v 0.645985 -0.059141 0.594029
v 0.646265 -0.059126 0.594061
v 0.646784 -0.059098 0.594228
v 0.647418 -0.059063 0.594580
v 0.648039 -0.059029 0.595107
v 0.648573 -0.058999 0.595779
v 0.648975 -0.058977 0.596561
v 0.649219 -0.058963 0.597417
v 0.561234 -0.056009 0.644846
v 0.558085 0.022345 0.644833
v 0.611227 -0.070056 0.686284
v 0.608078 0.008298 0.686271
v 0.645371 0.046660 0.599164
v 0.645480 0.046665 0.598225
v 0.645081 0.046644 0.600064
v 0.644620 0.046619 0.600890
v 0.644007 0.046586 0.601610
v 0.643265 0.046545 0.602198
v 0.642422 0.046499 0.602629
v 0.641511 0.046450 0.602888
v 0.640568 0.046398 0.602964
v 0.639627 0.046346 0.602856
v 0.638725 0.046297 0.602566
v 0.637898 0.046251 0.602106
v 0.637176 0.046212 0.601494
v 0.636588 0.046179 0.600753
v 0.636155 0.046155 0.599912
v 0.635896 0.046141 0.599003
v 0.635819 0.046136 0.598061
v 0.635928 0.046142 0.597122
v 0.636218 0.046158 0.596222
v 0.636679 0.046183 0.595396
v 0.637292 0.046216 0.594675
v 0.638034 0.046256 0.594088
v 0.638877 0.046302 0.593657
v 0.639787 0.046352 0.593398
v 0.640731 0.046404 0.593321
v 0.641672 0.046455 0.593430
v 0.642574 0.046505 0.593720
v 0.643401 0.046550 0.594180
v 0.644123 0.046590 0.594792
v 0.644711 0.046622 0.595532
v 0.645144 0.046646 0.596374
v 0.645403 0.046661 0.597283
v 0.566065 -0.063642 0.686351
v 0.565959 -0.063647 0.687290
v 0.562810 0.014707 0.687277
v 0.562916 0.014712 0.686337
v 0.565672 -0.063659 0.688191
v 0.562523 0.014695 0.688178
v 0.565214 -0.063679 0.689019
v 0.562065 0.014674 0.689005
v 0.564603 -0.063706 0.689741
v 0.561454 0.014648 0.689727
v 0.563863 -0.063739 0.690331
v 0.560714 0.014615 0.690317
v 0.563021 -0.063776 0.690765
v 0.559873 0.014578 0.690751
v 0.562111 -0.063816 0.691027
v 0.558963 0.014537 0.691013
v 0.561167 -0.063858 0.691106
v 0.558019 0.014496 0.691093
v 0.560226 -0.063900 0.691001
v 0.557078 0.014454 0.690987
v 0.559324 -0.063940 0.690714
v 0.556175 0.014414 0.690700
v 0.558495 -0.063977 0.690257
v 0.555346 0.014377 0.690243
v 0.557771 -0.064009 0.689647
v 0.554622 0.014345 0.689633
v 0.557180 -0.064035 0.688908
v 0.554031 0.014319 0.688894
v 0.556745 -0.064055 0.688068
v 0.553596 0.014299 0.688055
v 0.556482 -0.064066 0.687160
v 0.553334 0.014288 0.687146
v 0.556403 -0.064070 0.686218
v 0.553254 0.014284 0.686204
v 0.556508 -0.064066 0.685278
v 0.553360 0.014288 0.685265
v 0.556796 -0.064053 0.684378
v 0.553647 0.014301 0.684364
v 0.557254 -0.064033 0.683550
v 0.554105 0.014321 0.683537
v 0.557864 -0.064006 0.682828
v 0.554716 0.014348 0.682814
v 0.558605 -0.063973 0.682238
v 0.555456 0.014381 0.682225
v 0.559446 -0.063936 0.681804
v 0.556297 0.014418 0.681791
v 0.560356 -0.063896 0.681542
v 0.557208 0.014458 0.681529
v 0.561300 -0.063854 0.681463
v 0.558151 0.014500 0.681449
v 0.562241 -0.063812 0.681568
v 0.559093 0.014542 0.681555
v 0.563144 -0.063772 0.681855
v 0.559995 0.014582 0.681841
v 0.563973 -0.063736 0.682312
v 0.560824 0.014618 0.682299
v 0.564697 -0.063703 0.682922
v 0.561548 0.014650 0.682908
v 0.565287 -0.063677 0.683661
v 0.562139 0.014677 0.683647
v 0.565722 -0.063658 0.684501
v 0.562574 0.014696 0.684487
v 0.565985 -0.063646 0.685409
v 0.562836 0.014708 0.685395
v 0.650934 -0.058869 0.598257
v 0.650825 -0.058875 0.599196
v 0.650535 -0.058890 0.600096
v 0.650075 -0.058915 0.600922
v 0.649462 -0.058949 0.601642
v 0.648719 -0.058989 0.602229
v 0.647877 -0.059035 0.602660
v 0.646966 -0.059085 0.602919
v 0.646022 -0.059137 0.602996
v 0.645081 -0.059188 0.602887
v 0.644180 -0.059237 0.602598
v 0.643352 -0.059283 0.602138
v 0.642630 -0.059323 0.601526
v 0.642042 -0.059355 0.600785
v 0.641610 -0.059379 0.599944
v 0.641350 -0.059393 0.599034
v 0.641273 -0.059398 0.598092
v 0.641382 -0.059392 0.597153
v 0.641673 -0.059377 0.596253
v 0.642133 -0.059352 0.595427
v 0.642746 -0.059318 0.594707
v 0.643488 -0.059278 0.594120
v 0.644331 -0.059232 0.593688
v 0.645242 -0.059182 0.593429
v 0.646186 -0.059131 0.593353
v 0.647127 -0.059079 0.593462
v 0.648028 -0.059030 0.593751
v 0.648856 -0.058984 0.594211
v 0.649577 -0.058945 0.594823
v 0.650166 -0.058912 0.595564
v 0.650598 -0.058888 0.596405
v 0.650857 -0.058874 0.597314
v 0.566065 -0.055795 0.644913
v 0.565959 -0.055799 0.645852
v 0.562810 0.022555 0.645839
v 0.562916 0.022559 0.644899
v 0.565672 -0.055812 0.646753
v 0.562523 0.022542 0.646740
v 0.565214 -0.055832 0.647581
v 0.562065 0.022522 0.647567
v 0.564603 -0.055859 0.648303
v 0.561454 0.022495 0.648289
v 0.563862 -0.055892 0.648893
v 0.560714 0.022462 0.648879
v 0.563021 -0.055929 0.649327
v 0.559873 0.022425 0.649313
v 0.562111 -0.055969 0.649589
v 0.558962 0.022385 0.649575
v 0.561167 -0.056011 0.649668
v 0.558019 0.022343 0.649655
v 0.560226 -0.056052 0.649563
v 0.557077 0.022301 0.649549
v 0.559323 -0.056092 0.649276
v 0.556175 0.022261 0.649262
v 0.558494 -0.056129 0.648819
v 0.555346 0.022225 0.648805
v 0.557771 -0.056161 0.648209
v 0.554622 0.022193 0.648195
v 0.557180 -0.056188 0.647470
v 0.554031 0.022166 0.647456
v 0.556745 -0.056207 0.646630
v 0.553596 0.022147 0.646617
v 0.556482 -0.056219 0.645722
v 0.553334 0.022135 0.645708
v 0.556402 -0.056223 0.644780
v 0.553254 0.022131 0.644766
v 0.556508 -0.056218 0.643841
v 0.553360 0.022136 0.643827
v 0.556796 -0.056205 0.642940
v 0.553647 0.022148 0.642926
v 0.557253 -0.056185 0.642112
v 0.554105 0.022168 0.642099
v 0.557864 -0.056158 0.641390
v 0.554716 0.022195 0.641376
v 0.558605 -0.056126 0.640800
v 0.555456 0.022228 0.640787
v 0.559446 -0.056089 0.640366
v 0.556297 0.022265 0.640353
v 0.560356 -0.056048 0.640104
v 0.557208 0.022305 0.640091
v 0.561300 -0.056007 0.640025
v 0.558151 0.022347 0.640011
v 0.562241 -0.055965 0.640130
v 0.559093 0.022389 0.640117
v 0.563144 -0.055925 0.640417
v 0.559995 0.022429 0.640404
v 0.563973 -0.055888 0.640874
v 0.560824 0.022466 0.640861
v 0.564697 -0.055856 0.641484
v 0.561548 0.022498 0.641470
v 0.565287 -0.055830 0.642223
v 0.562139 0.022524 0.642209
v 0.565722 -0.055810 0.643063
v 0.562574 0.022544 0.643049
v 0.565985 -0.055798 0.643971
v 0.562836 0.022555 0.643957
v 0.616058 -0.069842 0.686351
v 0.615952 -0.069846 0.687290
v 0.612804 0.008507 0.687277
v 0.612909 0.008512 0.686337
v 0.615665 -0.069859 0.688191
v 0.612516 0.008495 0.688177
v 0.615207 -0.069879 0.689019
v 0.612059 0.008475 0.689005
v 0.614596 -0.069906 0.689741
v 0.611448 0.008448 0.689727
v 0.613856 -0.069939 0.690331
v 0.610707 0.008415 0.690317
v 0.613014 -0.069976 0.690765
v 0.609866 0.008378 0.690751
v 0.612104 -0.070016 0.691027
v 0.608956 0.008338 0.691013
v 0.611161 -0.070058 0.691106
v 0.608012 0.008296 0.691093
v 0.610219 -0.070100 0.691001
v 0.607071 0.008254 0.690987
v 0.609317 -0.070140 0.690714
v 0.606168 0.008214 0.690700
v 0.608488 -0.070176 0.690257
v 0.605339 0.008177 0.690243
v 0.607764 -0.070209 0.689647
v 0.604615 0.008145 0.689633
v 0.607173 -0.070235 0.688908
v 0.604025 0.008119 0.688894
v 0.606738 -0.070254 0.688068
v 0.603590 0.008100 0.688055
v 0.606476 -0.070266 0.687160
v 0.603327 0.008088 0.687146
v 0.606396 -0.070270 0.686218
v 0.603247 0.008084 0.686204
v 0.606502 -0.070265 0.685278
v 0.603353 0.008089 0.685265
v 0.606789 -0.070253 0.684378
v 0.603640 0.008101 0.684364
v 0.607247 -0.070233 0.683550
v 0.604098 0.008121 0.683537
v 0.607858 -0.070206 0.682828
v 0.604709 0.008148 0.682814
v 0.608598 -0.070173 0.682238
v 0.605450 0.008181 0.682225
v 0.609439 -0.070136 0.681804
v 0.606291 0.008218 0.681791
v 0.610349 -0.070096 0.681542
v 0.607201 0.008258 0.681529
v 0.611293 -0.070054 0.681463
v 0.608145 0.008300 0.681449
v 0.612234 -0.070012 0.681568
v 0.609086 0.008342 0.681555
v 0.613137 -0.069972 0.681855
v 0.609988 0.008382 0.681841
v 0.613966 -0.069935 0.682312
v 0.610818 0.008419 0.682299
v 0.614690 -0.069903 0.682922
v 0.611541 0.008451 0.682908
v 0.615281 -0.069877 0.683661
v 0.612132 0.008477 0.683647
v 0.615716 -0.069857 0.684501
v 0.612567 0.008496 0.684487
v 0.615978 -0.069846 0.685409
v 0.612830 0.008508 0.685395
vn 0.9929 0.0399 0.1121
vn 0.9929 0.0399 0.1119
vn 0.9518 0.0383 0.3043
vn 0.9519 0.0383 0.3041
vn 0.8741 0.0352 0.4845
vn 0.8740 0.0352 0.4846
vn 0.7626 0.0308 0.6461
vn 0.7627 0.0308 0.6460
vn 0.6221 0.0251 0.7825
vn 0.4577 0.0186 0.8889
vn 0.4578 0.0185 0.8889
vn 0.2761 0.0113 0.9611
vn 0.0840 0.0035 0.9965
vn -0.1113 -0.0043 0.9938
vn -0.3024 -0.0120 0.9531
vn -0.3025 -0.0120 0.9531
vn -0.4821 -0.0192 0.8759
vn -0.4820 -0.0192 0.8760
vn -0.6434 -0.0257 0.7651
vn -0.6433 -0.0257 0.7652
vn -0.7801 -0.0312 0.6249
vn -0.7802 -0.0312 0.6247
vn -0.8871 -0.0356 0.4602
vn -0.8870 -0.0356 0.4603
vn -0.9599 -0.0385 0.2777
vn -0.9598 -0.0385 0.2780
vn -0.9956 -0.0400 0.0845
vn -0.9956 -0.0400 0.0847
vn -0.9929 -0.0399 -0.1121
vn -0.9929 -0.0399 -0.1119
vn -0.9518 -0.0383 -0.3042
vn -0.9518 -0.0383 -0.3043
vn -0.8741 -0.0352 -0.4845
vn -0.7627 -0.0308 -0.6460
vn -0.6221 -0.0251 -0.7825
vn -0.6220 -0.0251 -0.7826
vn -0.4578 -0.0185 -0.8889
vn -0.2761 -0.0113 -0.9611
vn -0.0840 -0.0035 -0.9965
vn 0.1114 0.0043 -0.9938
vn 0.3022 0.0120 -0.9532
vn 0.3024 0.0120 -0.9531
vn 0.4821 0.0192 -0.8759
vn 0.4820 0.0192 -0.8759
vn 0.6433 0.0257 -0.7652
vn 0.6434 0.0257 -0.7651
vn 0.7802 0.0312 -0.6248
vn 0.8871 0.0356 -0.4603
vn 0.8870 0.0356 -0.4604
vn 0.9599 0.0385 -0.2779
vn 0.9599 0.0385 -0.2777
vn 0.9956 0.0400 -0.0847
vn 0.9956 0.0400 -0.0846
vn 0.9920 0.0513 0.1153
vn 0.9920 0.0513 0.1152
vn 0.9503 0.0492 0.3075
vn 0.9503 0.0492 0.3073
vn 0.8719 0.0452 0.4875
vn 0.7601 0.0395 0.6486
vn 0.7600 0.0395 0.6487
vn 0.6191 0.0322 0.7847
vn 0.6190 0.0322 0.7847
vn 0.4545 0.0238 0.8905
vn 0.4545 0.0238 0.8904
vn 0.2728 0.0144 0.9620
vn 0.0806 0.0045 0.9967
vn -0.1145 -0.0056 0.9934
vn -0.3052 -0.0155 0.9522
vn -0.4844 -0.0248 0.8745
vn -0.4845 -0.0248 0.8744
vn -0.6454 -0.0331 0.7631
vn -0.6453 -0.0331 0.7632
vn -0.7817 -0.0402 0.6224
vn -0.7816 -0.0402 0.6225
vn -0.8880 -0.0458 0.4576
vn -0.8880 -0.0458 0.4575
vn -0.9602 -0.0496 0.2748
vn -0.9602 -0.0495 0.2748
vn -0.9954 -0.0514 0.0814
vn -0.9920 -0.0513 -0.1155
vn -0.9920 -0.0513 -0.1154
vn -0.9503 -0.0492 -0.3073
vn -0.9503 -0.0492 -0.3076
vn -0.8720 -0.0452 -0.4875
vn -0.8720 -0.0452 -0.4874
vn -0.7600 -0.0395 -0.6487
vn -0.7599 -0.0395 -0.6488
vn -0.6191 -0.0322 -0.7847
vn -0.4545 -0.0238 -0.8905
vn -0.4545 -0.0238 -0.8904
vn -0.2727 -0.0144 -0.9620
vn -0.0806 -0.0045 -0.9967
vn -0.0807 -0.0045 -0.9967
vn 0.1144 0.0056 -0.9934
vn 0.1145 0.0056 -0.9934
vn 0.3053 0.0155 -0.9521
vn 0.3052 0.0155 -0.9522
vn 0.4846 0.0248 -0.8744
vn 0.4845 0.0248 -0.8744
vn 0.6452 0.0331 -0.7633
vn 0.6454 0.0331 -0.7631
vn 0.7816 0.0402 -0.6225
vn 0.7817 0.0402 -0.6224
vn 0.8880 0.0458 -0.4575
vn 0.8880 0.0458 -0.4576
vn 0.9602 0.0495 -0.2748
vn 0.9602 0.0496 -0.2748
vn 0.9954 0.0514 -0.0814
vn 0.9953 0.0514 -0.0815
vn 0.0546 -0.9985 0.0003
vn 0.0547 -0.9985 0.0003
vn 0.9929 0.0399 0.1120
vn 0.9518 0.0383 0.3042
vn 0.7627 0.0308 0.6461
vn 0.6221 0.0251 0.7826
vn 0.4577 0.0185 0.8889
vn 0.2760 0.0113 0.9611
vn 0.0840 0.0036 0.9965
vn -0.9598 -0.0385 0.2779
vn -0.9956 -0.0400 0.0846
vn -0.9519 -0.0383 -0.3041
vn -0.9518 -0.0383 -0.3044
vn -0.8740 -0.0352 -0.4846
vn -0.7627 -0.0308 -0.6461
vn -0.4579 -0.0186 -0.8888
vn -0.4577 -0.0185 -0.8889
vn -0.2760 -0.0113 -0.9611
vn -0.0839 -0.0035 -0.9965
vn 0.1113 0.0043 -0.9938
vn 0.3023 0.0120 -0.9531
vn 0.4820 0.0192 -0.8760
vn 0.7801 0.0312 -0.6249
vn 0.8871 0.0356 -0.4602
vn 0.9599 0.0385 -0.2778
vn 0.9956 0.0400 -0.0845
vn 0.9956 0.0400 -0.0848
vn 0.8741 0.0352 0.4846
vn 0.7626 0.0308 0.6462
vn 0.6220 0.0251 0.7826
vn 0.0839 0.0035 0.9965
vn -0.7801 -0.0312 0.6248
vn -0.8870 -0.0356 0.4604
vn -0.9956 -0.0400 0.0850
vn -0.9956 -0.0400 0.0843
vn -0.9929 -0.0399 -0.1120
vn -0.4579 -0.0185 -0.8888
vn -0.4578 -0.0186 -0.8889
vn -0.2762 -0.0113 -0.9610
vn -0.0839 -0.0036 -0.9965
vn -0.0840 -0.0036 -0.9965
vn 0.7801 0.0312 -0.6248
vn 0.8870 0.0356 -0.4603
vn -0.0546 0.9985 -0.0003
vn -0.0547 0.9985 -0.0003
vn 0.0442 -0.9990 0.0002
vn -0.0442 0.9990 -0.0002
vn 0.0546 -0.9985 0.0004
vn 0.0547 -0.9985 0.0005
vn -0.9920 -0.0513 -0.1152
vn -0.9956 -0.0400 0.0848
vt 0.838269 0.000257
vt 0.831381 0.581944
vt 0.831381 0.000249
vt 0.824873 0.581924
vt 0.824873 0.000228
vt 0.818996 0.581892
vt 0.818996 0.000197
vt 0.813976 0.581850
vt 0.813976 0.000154
vt 0.810005 0.581799
vt 0.810005 0.000104
vt 0.033372 0.418304
vt 0.030580 0.999939
vt 0.030579 0.418243
vt 0.027722 0.999873
vt 0.027722 0.418177
vt 0.024909 0.999806
vt 0.024909 0.418110
vt 0.022248 0.999739
vt 0.022248 0.418043
vt 0.678781 0.000256
vt 0.676189 0.581891
vt 0.676189 0.000195
vt 0.672378 0.581835
vt 0.672378 0.000139
vt 0.667493 0.581786
vt 0.667493 0.000090
vt 0.661722 0.581746
vt 0.661722 0.000051
vt 0.655288 0.581718
vt 0.655288 0.000022
vt 0.648437 0.581700
vt 0.648437 0.000005
vt 0.641433 0.581696
vt 0.641433 -0.000000
vt 0.634545 0.000008
vt 0.634545 0.581704
vt 0.628038 0.000028
vt 0.628037 0.581724
vt 0.622160 0.000060
vt 0.622160 0.581756
vt 0.617140 0.000102
vt 0.617140 0.581798
vt 0.613169 0.000153
vt 0.974651 0.581696
vt 0.971837 0.000061
vt 0.974651 0.000000
vt 0.971837 0.581758
vt 0.968968 0.000127
vt 0.968968 0.581823
vt 0.966154 0.000195
vt 0.966154 0.581891
vt 0.963504 0.000261
vt 0.875616 0.581696
vt 0.873025 0.000061
vt 0.875616 0.000000
vt 0.873025 0.581757
vt 0.869213 0.000117
vt 0.869213 0.581813
vt 0.864329 0.000166
vt 0.864329 0.581862
vt 0.858558 0.000206
vt 0.858558 0.581902
vt 0.852124 0.000235
vt 0.852124 0.581931
vt 0.845273 0.000252
vt 0.845273 0.581948
vt 0.510125 0.000520
vt 0.503241 0.784297
vt 0.503241 0.000498
vt 0.496742 0.784249
vt 0.496742 0.000450
vt 0.490877 0.784177
vt 0.490877 0.000378
vt 0.485873 0.784083
vt 0.485873 0.000284
vt 0.481921 0.783971
vt 0.481921 0.000172
vt 0.963504 0.000492
vt 0.960708 0.784182
vt 0.960708 0.000379
vt 0.957849 0.784059
vt 0.957849 0.000256
vt 0.955036 0.783931
vt 0.955036 0.000128
vt 0.952377 0.783803
vt 0.952377 -0.000000
vt 0.481921 0.000520
vt 0.479308 0.784190
vt 0.479308 0.000391
vt 0.475477 0.784073
vt 0.475477 0.000274
vt 0.470575 0.783973
vt 0.470575 0.000174
vt 0.464792 0.783893
vt 0.464792 0.000093
vt 0.458349 0.783835
vt 0.458349 0.000036
vt 0.451493 0.783804
vt 0.451493 0.000005
vt 0.444489 0.783799
vt 0.444488 0.000000
vt 0.437605 0.000022
vt 0.437604 0.783821
vt 0.431105 0.000070
vt 0.431105 0.783869
vt 0.425241 0.000143
vt 0.425241 0.783942
vt 0.420237 0.000236
vt 0.420237 0.784035
vt 0.416285 0.000348
vt 0.952377 0.783803
vt 0.949560 0.000114
vt 0.952377 0.000000
vt 0.949560 0.783917
vt 0.946690 0.000237
vt 0.946690 0.784040
vt 0.943876 0.000365
vt 0.943876 0.784168
vt 0.941228 0.000493
vt 0.547557 0.783799
vt 0.544944 0.000129
vt 0.547557 0.000000
vt 0.544944 0.783928
vt 0.541113 0.000246
vt 0.541113 0.784045
vt 0.536211 0.000346
vt 0.536211 0.784145
vt 0.530428 0.000427
vt 0.530428 0.784226
vt 0.523985 0.000484
vt 0.523985 0.784283
vt 0.517129 0.000515
vt 0.517129 0.784314
vt 0.067230 0.464772
vt 0.066715 0.458341
vt 0.084955 0.462406
vt 0.772657 0.000257
vt 0.765769 0.581944
vt 0.765769 0.000249
vt 0.759261 0.581924
vt 0.759261 0.000228
vt 0.753384 0.581892
vt 0.753384 0.000196
vt 0.748364 0.581850
vt 0.748364 0.000154
vt 0.744393 0.581799
vt 0.744393 0.000103
vt 0.022248 0.418304
vt 0.019456 0.999939
vt 0.019456 0.418243
vt 0.016598 0.999874
vt 0.016598 0.418177
vt 0.013785 0.999806
vt 0.013785 0.418110
vt 0.011124 0.999739
vt 0.011124 0.418043
vt 0.613169 0.000257
vt 0.610577 0.581891
vt 0.610577 0.000195
vt 0.606766 0.581835
vt 0.606766 0.000139
vt 0.601881 0.581786
vt 0.601881 0.000090
vt 0.596110 0.581747
vt 0.596110 0.000051
vt 0.589676 0.581718
vt 0.589676 0.000022
vt 0.582825 0.581700
vt 0.582825 0.000005
vt 0.575821 0.581696
vt 0.575821 0.000000
vt 0.568933 0.000008
vt 0.568933 0.581704
vt 0.562425 0.000028
vt 0.562425 0.581724
vt 0.556548 0.000060
vt 0.556548 0.581756
vt 0.551528 0.000102
vt 0.551528 0.581798
vt 0.547557 0.000153
vt 0.985798 0.581696
vt 0.982984 0.000061
vt 0.985798 -0.000000
vt 0.982984 0.581758
vt 0.980115 0.000127
vt 0.980115 0.581823
vt 0.977301 0.000195
vt 0.977301 0.581891
vt 0.974651 0.000261
vt 0.810005 0.581696
vt 0.807413 0.000061
vt 0.810005 -0.000000
vt 0.807413 0.581757
vt 0.803602 0.000117
vt 0.803602 0.581813
vt 0.798717 0.000166
vt 0.798717 0.581862
vt 0.792946 0.000206
vt 0.792946 0.581901
vt 0.786512 0.000235
vt 0.786512 0.581930
vt 0.779661 0.000252
vt 0.779661 0.581948
vt 0.707045 0.000256
vt 0.700157 0.581944
vt 0.700157 0.000248
vt 0.693649 0.581924
vt 0.693649 0.000228
vt 0.687772 0.581892
vt 0.687772 0.000196
vt 0.682752 0.581850
vt 0.682752 0.000154
vt 0.678781 0.581799
vt 0.678781 0.000103
vt 0.011124 0.418304
vt 0.008332 0.999939
vt 0.008332 0.418243
vt 0.005474 0.999874
vt 0.005474 0.418177
vt 0.002661 0.999806
vt 0.002661 0.418110
vt 0.000000 0.999739
vt 0.000000 0.418043
vt 0.941228 0.000256
vt 0.938637 0.581891
vt 0.938637 0.000195
vt 0.934825 0.581835
vt 0.934825 0.000139
vt 0.929940 0.581786
vt 0.929940 0.000090
vt 0.924170 0.581747
vt 0.924170 0.000051
vt 0.917736 0.581718
vt 0.917736 0.000022
vt 0.910885 0.581700
vt 0.910885 0.000005
vt 0.903881 0.581696
vt 0.903881 -0.000000
vt 0.896993 0.000008
vt 0.896993 0.581704
vt 0.890485 0.000028
vt 0.890485 0.581724
vt 0.884608 0.000060
vt 0.884608 0.581756
vt 0.879588 0.000102
vt 0.879588 0.581798
vt 0.875617 0.000153
vt 0.996945 0.581696
vt 0.994131 0.000061
vt 0.996945 -0.000000
vt 0.994131 0.581758
vt 0.991262 0.000127
vt 0.991262 0.581823
vt 0.988448 0.000195
vt 0.988448 0.581891
vt 0.985798 0.000261
vt 0.744393 0.581696
vt 0.741801 0.000061
vt 0.744393 -0.000000
vt 0.741801 0.581757
vt 0.737989 0.000117
vt 0.737989 0.581813
vt 0.733105 0.000166
vt 0.733105 0.581862
vt 0.727334 0.000206
vt 0.727334 0.581901
vt 0.720900 0.000235
vt 0.720900 0.581930
vt 0.714049 0.000252
vt 0.714049 0.581948
vt 0.054534 0.445407
vt 0.061306 0.444588
vt 0.061853 0.451518
vt 0.053557 0.439424
vt 0.060232 0.438011
vt 0.052177 0.434137
vt 0.058674 0.432041
vt 0.050516 0.429836
vt 0.056690 0.426907
vt 0.048790 0.426801
vt 0.054358 0.422805
vt 0.047395 0.425235
vt 0.051766 0.419895
vt 0.046899 0.424945
vt 0.049015 0.418287
vt 0.047268 0.424977
vt 0.046210 0.418043
vt 0.047226 0.424994
vt 0.043459 0.419173
vt 0.046176 0.425991
vt 0.040867 0.421633
vt 0.044608 0.428475
vt 0.038535 0.425329
vt 0.043012 0.432331
vt 0.036551 0.430119
vt 0.041657 0.437286
vt 0.034992 0.435818
vt 0.040689 0.443047
vt 0.033919 0.442208
vt 0.040187 0.449316
vt 0.033372 0.449043
vt 0.040187 0.455792
vt 0.033372 0.456061
vt 0.040691 0.462172
vt 0.033919 0.462991
vt 0.041667 0.468154
vt 0.034992 0.469567
vt 0.043047 0.473441
vt 0.036551 0.475537
vt 0.044709 0.477742
vt 0.038534 0.480672
vt 0.046435 0.480777
vt 0.040867 0.484773
vt 0.047830 0.482344
vt 0.043458 0.487684
vt 0.048326 0.482633
vt 0.046210 0.489292
vt 0.047956 0.482601
vt 0.049015 0.489536
vt 0.047998 0.482584
vt 0.051766 0.488406
vt 0.049049 0.481587
vt 0.054358 0.485945
vt 0.050616 0.479103
vt 0.056690 0.482249
vt 0.052213 0.475247
vt 0.058674 0.477460
vt 0.053568 0.470293
vt 0.060232 0.471760
vt 0.054536 0.464532
vt 0.061306 0.465370
vt 0.055038 0.458263
vt 0.061853 0.458535
vt 0.055038 0.451787
vt 0.180555 0.451814
vt 0.175691 0.451623
vt 0.176238 0.444690
vt 0.113407 0.445273
vt 0.118240 0.444690
vt 0.118786 0.451623
vt 0.181070 0.445273
vt 0.177310 0.438107
vt 0.112404 0.439112
vt 0.117167 0.438107
vt 0.182074 0.439112
vt 0.178867 0.432126
vt 0.110973 0.433617
vt 0.115610 0.432126
vt 0.183505 0.433617
vt 0.180849 0.426979
vt 0.109219 0.429061
vt 0.113629 0.426979
vt 0.185258 0.429061
vt 0.183179 0.422862
vt 0.107318 0.425701
vt 0.111299 0.422862
vt 0.187160 0.425701
vt 0.185768 0.419933
vt 0.105574 0.423728
vt 0.108710 0.419933
vt 0.188904 0.423728
vt 0.188516 0.418306
vt 0.104422 0.423046
vt 0.105961 0.418306
vt 0.190056 0.423046
vt 0.191319 0.418043
vt 0.103883 0.422996
vt 0.103159 0.418043
vt 0.190595 0.422996
vt 0.194067 0.419154
vt 0.103081 0.423320
vt 0.100410 0.419154
vt 0.191396 0.423320
vt 0.196656 0.421596
vt 0.101603 0.424714
vt 0.097821 0.421595
vt 0.192875 0.424714
vt 0.198986 0.425275
vt 0.099823 0.427524
vt 0.095491 0.425275
vt 0.194654 0.427524
vt 0.200968 0.430050
vt 0.098119 0.431630
vt 0.093510 0.430050
vt 0.196358 0.431630
vt 0.202525 0.435738
vt 0.096708 0.436785
vt 0.091953 0.435738
vt 0.197769 0.436786
vt 0.203597 0.442120
vt 0.095711 0.442718
vt 0.090881 0.442120
vt 0.198766 0.442718
vt 0.204144 0.448950
vt 0.095197 0.449144
vt 0.090334 0.448950
vt 0.199281 0.449144
vt 0.204144 0.455967
vt 0.095197 0.455775
vt 0.090334 0.455966
vt 0.199281 0.455775
vt 0.203597 0.462900
vt 0.095713 0.462317
vt 0.090881 0.462900
vt 0.198765 0.462317
vt 0.202525 0.469483
vt 0.096716 0.468477
vt 0.091953 0.469483
vt 0.197761 0.468477
vt 0.200968 0.475463
vt 0.098147 0.473972
vt 0.093510 0.475463
vt 0.196331 0.473972
vt 0.198986 0.480611
vt 0.099901 0.478528
vt 0.095491 0.480611
vt 0.194577 0.478528
vt 0.196656 0.484728
vt 0.101803 0.481888
vt 0.097821 0.484728
vt 0.192675 0.481889
vt 0.194067 0.487656
vt 0.103547 0.483861
vt 0.100410 0.487656
vt 0.190931 0.483861
vt 0.191319 0.489283
vt 0.104699 0.484543
vt 0.103159 0.489283
vt 0.189779 0.484543
vt 0.188517 0.489547
vt 0.105237 0.484594
vt 0.105961 0.489546
vt 0.189241 0.484594
vt 0.185768 0.488436
vt 0.106039 0.484270
vt 0.108710 0.488436
vt 0.188439 0.484270
vt 0.183179 0.485994
vt 0.107517 0.482875
vt 0.111299 0.485994
vt 0.186961 0.482875
vt 0.180849 0.482315
vt 0.109297 0.480065
vt 0.113629 0.482314
vt 0.185181 0.480065
vt 0.178867 0.477539
vt 0.111001 0.475959
vt 0.115610 0.477539
vt 0.183477 0.475959
vt 0.177311 0.471852
vt 0.112412 0.470804
vt 0.117167 0.471851
vt 0.182066 0.470804
vt 0.176238 0.465470
vt 0.113409 0.464872
vt 0.118240 0.465470
vt 0.181069 0.464872
vt 0.175691 0.458640
vt 0.113923 0.458445
vt 0.118786 0.458639
vt 0.180555 0.458445
vt 0.113923 0.451814
vt 0.067231 0.445172
vt 0.061853 0.451518
vt 0.062400 0.444588
vt 0.068236 0.439020
vt 0.063474 0.438011
vt 0.069667 0.433536
vt 0.065032 0.432041
vt 0.071421 0.428997
vt 0.067015 0.426907
vt 0.073321 0.425656
vt 0.069348 0.422805
vt 0.075058 0.423705
vt 0.071939 0.419895
vt 0.076200 0.423037
vt 0.074691 0.418287
vt 0.076741 0.422990
vt 0.077496 0.418043
vt 0.080247 0.419173
vt 0.077559 0.423326
vt 0.082839 0.421633
vt 0.079051 0.424743
vt 0.085171 0.425329
vt 0.080838 0.427574
vt 0.087155 0.430119
vt 0.082545 0.431697
vt 0.088713 0.435818
vt 0.083958 0.436865
vt 0.089787 0.442208
vt 0.084957 0.442806
vt 0.090334 0.449043
vt 0.085471 0.449238
vt 0.090334 0.456061
vt 0.085471 0.455869
vt 0.089787 0.462991
vt 0.083951 0.468559
vt 0.088713 0.469567
vt 0.082520 0.474042
vt 0.087155 0.475537
vt 0.080766 0.478582
vt 0.085171 0.480672
vt 0.078866 0.481922
vt 0.082839 0.484773
vt 0.077129 0.483874
vt 0.080247 0.487684
vt 0.075986 0.484541
vt 0.077496 0.489292
vt 0.075446 0.484588
vt 0.074691 0.489536
vt 0.071940 0.488406
vt 0.074628 0.484252
vt 0.069348 0.485945
vt 0.073136 0.482836
vt 0.067016 0.482249
vt 0.071349 0.480005
vt 0.065032 0.477460
vt 0.069641 0.475881
vt 0.063474 0.471760
vt 0.068228 0.470713
vt 0.062400 0.465370
vt 0.061853 0.458535
vt 0.066715 0.451710
vt 0.209007 0.451814
vt 0.204144 0.451623
vt 0.204691 0.444690
vt 0.170312 0.445273
vt 0.175145 0.444690
vt 0.175691 0.451623
vt 0.209523 0.445273
vt 0.205763 0.438107
vt 0.169309 0.439112
vt 0.174072 0.438107
vt 0.210526 0.439112
vt 0.207320 0.432126
vt 0.167878 0.433617
vt 0.172515 0.432126
vt 0.211957 0.433617
vt 0.209301 0.426979
vt 0.166124 0.429061
vt 0.170534 0.426979
vt 0.213711 0.429061
vt 0.211632 0.422862
vt 0.164223 0.425701
vt 0.168204 0.422862
vt 0.215613 0.425701
vt 0.214221 0.419933
vt 0.162479 0.423728
vt 0.165615 0.419933
vt 0.217357 0.423728
vt 0.216969 0.418306
vt 0.161327 0.423046
vt 0.162866 0.418306
vt 0.218509 0.423046
vt 0.219771 0.418043
vt 0.160788 0.422996
vt 0.160064 0.418043
vt 0.219047 0.422996
vt 0.222520 0.419154
vt 0.159986 0.423320
vt 0.157315 0.419154
vt 0.219849 0.423320
vt 0.225109 0.421595
vt 0.158508 0.424714
vt 0.154726 0.421596
vt 0.221327 0.424714
vt 0.227439 0.425275
vt 0.156728 0.427524
vt 0.152396 0.425275
vt 0.223107 0.427524
vt 0.229420 0.430050
vt 0.155024 0.431630
vt 0.150415 0.430050
vt 0.224811 0.431630
vt 0.230977 0.435738
vt 0.153613 0.436786
vt 0.148858 0.435738
vt 0.226222 0.436785
vt 0.232050 0.442120
vt 0.152616 0.442718
vt 0.147786 0.442120
vt 0.227219 0.442718
vt 0.232596 0.448950
vt 0.152102 0.449144
vt 0.147239 0.448950
vt 0.227733 0.449144
vt 0.232596 0.455967
vt 0.152102 0.455775
vt 0.147239 0.455967
vt 0.227733 0.455775
vt 0.232050 0.462900
vt 0.152618 0.462317
vt 0.147786 0.462900
vt 0.227217 0.462316
vt 0.230977 0.469483
vt 0.153621 0.468477
vt 0.148858 0.469483
vt 0.226214 0.468477
vt 0.229420 0.475463
vt 0.155052 0.473972
vt 0.150415 0.475463
vt 0.224783 0.473972
vt 0.227439 0.480611
vt 0.156806 0.478528
vt 0.152396 0.480611
vt 0.223029 0.478528
vt 0.225109 0.484728
vt 0.158708 0.481888
vt 0.154726 0.484728
vt 0.221128 0.481889
vt 0.222520 0.487656
vt 0.160452 0.483861
vt 0.157316 0.487656
vt 0.219384 0.483861
vt 0.219771 0.489283
vt 0.161604 0.484543
vt 0.160064 0.489283
vt 0.218232 0.484543
vt 0.216969 0.489546
vt 0.162142 0.484594
vt 0.162866 0.489546
vt 0.217693 0.484594
vt 0.214221 0.488436
vt 0.162944 0.484270
vt 0.165615 0.488436
vt 0.216891 0.484270
vt 0.211632 0.485994
vt 0.164422 0.482875
vt 0.168204 0.485994
vt 0.215413 0.482876
vt 0.209302 0.482315
vt 0.166202 0.480065
vt 0.170534 0.482315
vt 0.213633 0.480065
vt 0.207320 0.477539
vt 0.167906 0.475959
vt 0.172515 0.477539
vt 0.211929 0.475959
vt 0.205763 0.471852
vt 0.169317 0.470804
vt 0.174072 0.471851
vt 0.210518 0.470804
vt 0.204691 0.465470
vt 0.170314 0.464872
vt 0.175145 0.465470
vt 0.209522 0.464872
vt 0.204144 0.458639
vt 0.170828 0.458445
vt 0.175691 0.458639
vt 0.209007 0.458445
vt 0.170828 0.451814
vt 0.123650 0.451814
vt 0.118786 0.451623
vt 0.119333 0.444690
vt 0.255670 0.445273
vt 0.260502 0.444690
vt 0.261049 0.451623
vt 0.124165 0.445273
vt 0.120405 0.438107
vt 0.254666 0.439112
vt 0.259430 0.438107
vt 0.125169 0.439112
vt 0.121962 0.432126
vt 0.253236 0.433617
vt 0.257873 0.432126
vt 0.126600 0.433617
vt 0.123944 0.426979
vt 0.251482 0.429061
vt 0.255891 0.426979
vt 0.128353 0.429061
vt 0.126274 0.422862
vt 0.249580 0.425701
vt 0.253561 0.422862
vt 0.130255 0.425701
vt 0.128863 0.419933
vt 0.247836 0.423728
vt 0.250972 0.419933
vt 0.131999 0.423728
vt 0.131611 0.418306
vt 0.246684 0.423046
vt 0.248224 0.418306
vt 0.133151 0.423046
vt 0.134414 0.418043
vt 0.246146 0.422996
vt 0.245421 0.418043
vt 0.133690 0.422996
vt 0.137162 0.419154
vt 0.245344 0.423320
vt 0.242673 0.419154
vt 0.134491 0.423320
vt 0.139751 0.421595
vt 0.243866 0.424714
vt 0.240084 0.421595
vt 0.135970 0.424714
vt 0.142081 0.425275
vt 0.242086 0.427524
vt 0.237754 0.425275
vt 0.137749 0.427524
vt 0.144063 0.430050
vt 0.240382 0.431630
vt 0.235772 0.430050
vt 0.139453 0.431630
vt 0.145620 0.435738
vt 0.238971 0.436785
vt 0.234216 0.435738
vt 0.140864 0.436785
vt 0.146692 0.442120
vt 0.237974 0.442718
vt 0.233143 0.442120
vt 0.141861 0.442718
vt 0.147239 0.448950
vt 0.237460 0.449144
vt 0.232596 0.448950
vt 0.142376 0.449144
vt 0.237460 0.455775
vt 0.232596 0.455966
vt 0.142376 0.455775
vt 0.146692 0.462900
vt 0.237975 0.462316
vt 0.233143 0.462900
vt 0.141860 0.462317
vt 0.145620 0.469483
vt 0.238979 0.468477
vt 0.234216 0.469483
vt 0.140856 0.468477
vt 0.144063 0.475463
vt 0.240410 0.473972
vt 0.235772 0.475463
vt 0.139426 0.473972
vt 0.142081 0.480611
vt 0.242163 0.478528
vt 0.237754 0.480611
vt 0.137672 0.478528
vt 0.139751 0.484728
vt 0.244065 0.481888
vt 0.240084 0.484728
vt 0.135770 0.481889
vt 0.137162 0.487656
vt 0.245809 0.483861
vt 0.242673 0.487656
vt 0.134026 0.483861
vt 0.134414 0.489283
vt 0.246961 0.484543
vt 0.245422 0.489283
vt 0.132874 0.484543
vt 0.131611 0.489546
vt 0.247500 0.484594
vt 0.248224 0.489546
vt 0.132336 0.484594
vt 0.128863 0.488436
vt 0.248301 0.484269
vt 0.250972 0.488436
vt 0.131534 0.484270
vt 0.126274 0.485994
vt 0.249780 0.482875
vt 0.253561 0.485994
vt 0.130055 0.482875
vt 0.123944 0.482315
vt 0.251560 0.480065
vt 0.255891 0.482314
vt 0.128276 0.480065
vt 0.121962 0.477539
vt 0.253263 0.475959
vt 0.257873 0.477539
vt 0.126572 0.475959
vt 0.120405 0.471851
vt 0.254675 0.470804
vt 0.259430 0.471851
vt 0.125161 0.470804
vt 0.119333 0.465470
vt 0.255671 0.464872
vt 0.260502 0.465470
vt 0.124164 0.464872
vt 0.118786 0.458639
vt 0.256186 0.458445
vt 0.261049 0.458639
vt 0.123650 0.458445
vt 0.256186 0.451814
vt 0.838269 0.581952
vt 0.033372 1.000000
vt 0.678781 0.581952
vt 0.613169 0.581849
vt 0.963504 0.581958
vt 0.510125 0.784319
vt 0.963504 0.784295
vt 0.481921 0.784319
vt 0.416285 0.784147
vt 0.941228 0.784296
vt 0.772657 0.581952
vt 0.022248 1.000000
vt 0.613169 0.581952
vt 0.547557 0.581849
vt 0.974651 0.581957
vt 0.707045 0.581952
vt 0.011124 1.000000
vt 0.941228 0.581952
vt 0.875617 0.581849
vt 0.985798 0.581957
s 1
usemtl Material.007
f 72/1/1 74/2/2 73/3/1
f 73/3/3 77/4/4 76/5/3
f 76/5/5 79/6/6 78/7/5
f 78/7/7 81/8/8 80/9/7
f 80/9/9 83/10/9 82/11/9
f 82/12/10 85/13/11 84/14/10
f 84/14/12 87/15/12 86/16/12
f 86/16/13 89/17/13 88/18/13
f 88/18/14 91/19/14 90/20/14
f 90/21/15 93/22/16 92/23/15
f 92/23/17 95/24/18 94/25/17
f 94/25/19 97/26/20 96/27/19
f 96/27/21 99/28/22 98/29/21
f 98/29/23 101/30/24 100/31/23
f 100/31/25 103/32/26 102/33/25
f 102/33/27 105/34/28 104/35/27
f 105/34/29 106/36/30 104/35/30
f 107/37/31 108/38/32 106/36/32
f 109/39/33 110/40/33 108/38/33
f 111/41/34 112/42/34 110/40/34
f 113/43/35 114/44/36 112/42/36
f 115/45/37 116/46/37 114/47/37
f 117/48/38 118/49/38 116/46/38
f 119/50/39 120/51/39 118/49/39
f 121/52/40 122/53/40 120/51/40
f 123/54/41 124/55/42 122/56/42
f 125/57/43 126/58/44 124/55/44
f 127/59/45 128/60/46 126/58/46
f 129/61/47 130/62/47 128/60/47
f 131/63/48 132/64/49 130/62/49
f 133/65/50 134/66/51 132/64/51
f 135/67/52 72/1/53 134/66/53
f 136/68/54 40/69/55 137/70/54
f 137/70/56 42/71/57 138/72/56
f 138/72/58 43/73/58 139/74/58
f 139/74/59 44/75/60 140/76/59
f 140/76/61 45/77/62 141/78/61
f 141/79/63 46/80/64 142/81/63
f 142/81/65 47/82/65 143/83/65
f 143/83/66 48/84/66 144/85/66
f 144/85/67 49/86/67 145/87/67
f 145/88/68 50/89/68 146/90/68
f 146/90/69 51/91/70 147/92/69
f 147/92/71 52/93/72 148/94/71
f 148/94/73 53/95/74 149/96/73
f 149/96/75 54/97/76 150/98/75
f 150/98/77 55/99/78 151/100/77
f 151/100/79 56/101/79 152/102/79
f 56/101/80 153/103/81 152/102/81
f 57/104/82 154/105/83 153/103/83
f 58/106/84 155/107/85 154/105/85
f 59/108/86 156/109/87 155/107/87
f 60/110/88 157/111/88 156/109/88
f 61/112/89 158/113/90 157/114/90
f 62/115/91 159/116/91 158/113/91
f 63/117/92 160/118/93 159/116/93
f 64/119/94 161/120/95 160/118/95
f 65/121/96 162/122/97 161/123/97
f 66/124/98 163/125/99 162/122/99
f 67/126/100 164/127/101 163/125/101
f 68/128/102 165/129/103 164/127/103
f 69/130/104 166/131/105 165/129/105
f 70/132/106 167/133/107 166/131/107
f 71/134/108 136/68/109 167/133/109
f 34/135/110 35/136/110 21/137/111
f 168/138/1 170/139/112 169/140/1
f 169/140/113 173/141/4 172/142/113
f 172/142/5 175/143/5 174/144/5
f 174/144/8 177/145/114 176/146/8
f 176/146/9 179/147/115 178/148/9
f 178/149/116 181/150/11 180/151/116
f 180/151/117 183/152/12 182/153/117
f 182/153/118 185/154/13 184/155/118
f 184/155/14 187/156/14 186/157/14
f 186/158/15 189/159/16 188/160/15
f 188/160/17 191/161/18 190/162/17
f 190/162/20 193/163/20 192/164/20
f 192/164/22 195/165/21 194/166/22
f 194/166/23 197/167/24 196/168/23
f 196/168/119 199/169/26 198/170/119
f 198/170/120 201/171/27 200/172/120
f 201/171/30 202/173/29 200/172/29
f 203/174/121 204/175/122 202/173/122
f 205/176/33 206/177/123 204/175/123
f 207/178/34 208/179/124 206/177/124
f 209/180/36 210/181/35 208/179/35
f 211/182/125 212/183/126 210/184/126
f 213/185/127 214/186/38 212/183/38
f 215/187/39 216/188/128 214/186/128
f 217/189/40 218/190/129 216/188/129
f 219/191/42 220/192/130 218/193/130
f 221/194/131 222/195/43 220/192/43
f 223/196/46 224/197/46 222/195/46
f 225/198/47 226/199/132 224/197/132
f 227/200/49 228/201/133 226/199/133
f 229/202/134 230/203/134 228/201/134
f 231/204/135 168/138/136 230/203/136
f 232/205/112 234/206/112 233/207/112
f 233/207/113 237/208/3 236/209/113
f 236/209/137 239/210/5 238/211/137
f 238/211/8 241/212/138 240/213/8
f 240/213/139 243/214/9 242/215/139
f 242/216/116 245/217/11 244/218/116
f 244/218/12 247/219/12 246/220/12
f 246/220/140 249/221/13 248/222/140
f 248/222/14 251/223/14 250/224/14
f 250/225/16 253/226/15 252/227/16
f 252/227/17 255/228/18 254/229/17
f 254/229/19 257/230/19 256/231/19
f 256/231/141 259/232/21 258/233/141
f 258/233/142 261/234/23 260/235/142
f 260/235/25 263/236/119 262/237/25
f 262/237/143 265/238/144 264/239/120
f 265/238/145 266/240/145 264/239/145
f 267/241/32 268/242/32 266/240/32
f 269/243/33 270/244/123 268/242/123
f 271/245/34 272/246/34 270/244/34
f 273/247/36 274/248/36 272/246/36
f 275/249/146 276/250/147 274/251/147
f 277/252/148 278/253/127 276/250/127
f 279/254/149 280/255/150 278/253/150
f 281/256/129 282/257/129 280/255/129
f 283/258/42 284/259/42 282/260/42
f 285/261/43 286/262/44 284/259/44
f 287/263/45 288/264/46 286/262/46
f 289/265/47 290/266/151 288/264/151
f 291/267/152 292/268/48 290/266/48
f 293/269/134 294/270/50 292/268/50
f 295/271/135 232/205/53 294/270/53
f 4/272/153 40/273/153 41/274/153
f 4/275/153 42/276/153 40/273/153
f 4/277/153 43/278/153 42/276/153
f 4/279/153 44/280/153 43/278/153
f 4/281/153 45/282/154 44/280/153
f 4/283/153 46/284/153 45/282/154
f 4/285/153 47/286/153 46/284/153
f 4/287/153 48/288/153 47/286/153
f 4/289/153 49/290/153 48/288/153
f 4/291/153 50/292/153 49/290/153
f 4/293/153 51/294/153 50/292/153
f 4/295/153 52/296/153 51/294/153
f 4/297/153 53/298/153 52/296/153
f 4/299/153 54/300/153 53/298/153
f 4/301/153 55/302/153 54/300/153
f 4/303/153 56/304/153 55/302/153
f 4/305/153 57/306/153 56/304/153
f 4/307/153 58/308/153 57/306/153
f 4/309/153 59/310/153 58/308/153
f 4/311/153 60/312/153 59/310/153
f 4/313/153 61/314/153 60/312/153
f 4/315/153 62/316/153 61/314/153
f 4/317/153 63/318/154 62/316/153
f 4/319/153 64/320/153 63/318/154
f 4/321/153 65/322/153 64/320/153
f 4/323/153 66/324/153 65/322/153
f 4/325/153 67/326/153 66/324/153
f 4/327/153 68/328/153 67/326/153
f 4/329/153 69/330/153 68/328/153
f 4/331/153 70/332/153 69/330/153
f 4/333/153 71/334/153 70/332/153
f 4/335/153 41/274/153 71/334/153
f 1/336/155 72/337/155 73/338/155
f 2/339/156 74/340/156 75/341/156
f 1/342/155 73/338/155 76/343/155
f 2/344/156 77/345/156 74/340/156
f 1/346/155 76/343/155 78/347/155
f 2/348/156 79/349/156 77/345/156
f 1/350/155 78/347/155 80/351/155
f 2/352/156 81/353/156 79/349/156
f 1/354/155 80/351/155 82/355/155
f 2/356/156 83/357/156 81/353/156
f 1/358/155 82/355/155 84/359/155
f 2/360/156 85/361/156 83/357/156
f 1/362/155 84/359/155 86/363/155
f 2/364/156 87/365/156 85/361/156
f 1/366/155 86/363/155 88/367/155
f 2/368/156 89/369/156 87/365/156
f 1/370/155 88/367/155 90/371/155
f 2/372/156 91/373/156 89/369/156
f 1/374/155 90/371/155 92/375/155
f 2/376/156 93/377/156 91/373/156
f 1/378/155 92/375/155 94/379/155
f 2/380/156 95/381/156 93/377/156
f 1/382/155 94/379/155 96/383/155
f 2/384/156 97/385/156 95/381/156
f 1/386/155 96/383/155 98/387/155
f 2/388/156 99/389/156 97/385/156
f 1/390/155 98/387/155 100/391/155
f 2/392/156 101/393/156 99/389/156
f 1/394/155 100/391/155 102/395/155
f 2/396/156 103/397/156 101/393/156
f 1/398/155 102/395/155 104/399/155
f 2/400/156 105/401/156 103/397/156
f 1/402/155 104/399/155 106/403/155
f 2/404/156 107/405/156 105/401/156
f 1/406/155 106/403/155 108/407/155
f 2/408/156 109/409/156 107/405/156
f 1/410/155 108/407/155 110/411/155
f 2/412/156 111/413/156 109/409/156
f 1/414/155 110/411/155 112/415/155
f 2/416/156 113/417/156 111/413/156
f 1/418/155 112/415/155 114/419/155
f 2/420/156 115/421/156 113/417/156
f 1/422/155 114/419/155 116/423/155
f 2/424/156 117/425/156 115/421/156
f 1/426/155 116/423/155 118/427/155
f 2/428/156 119/429/156 117/425/156
f 1/430/155 118/427/155 120/431/155
f 2/432/156 121/433/156 119/429/156
f 1/434/155 120/431/155 122/435/155
f 2/436/156 123/437/156 121/433/156
f 1/438/155 122/435/155 124/439/155
f 2/440/156 125/441/156 123/437/156
f 1/442/155 124/439/155 126/443/155
f 2/444/156 127/445/156 125/441/156
f 1/446/155 126/443/155 128/447/155
f 2/448/156 129/449/156 127/445/156
f 1/450/155 128/447/155 130/451/155
f 2/452/156 131/453/156 129/449/156
f 1/454/155 130/451/155 132/455/155
f 2/456/156 133/457/156 131/453/156
f 1/458/155 132/455/155 134/459/155
f 2/460/156 135/461/156 133/457/156
f 1/462/155 134/459/155 72/337/155
f 2/463/156 75/341/156 135/461/156
f 5/464/110 136/465/110 137/466/111
f 6/467/110 137/466/111 138/468/110
f 7/469/110 138/468/110 139/470/110
f 8/471/110 139/470/110 140/472/110
f 9/473/110 140/472/110 141/474/110
f 10/475/110 141/474/110 142/476/110
f 11/477/110 142/476/110 143/478/110
f 12/479/157 143/478/110 144/480/110
f 12/479/157 145/481/110 13/482/111
f 13/482/111 146/483/110 14/484/110
f 14/484/110 147/485/110 15/486/110
f 15/486/110 148/487/110 16/488/110
f 16/488/110 149/489/110 17/490/110
f 17/490/110 150/491/110 18/492/110
f 18/492/110 151/493/110 19/494/110
f 19/494/110 152/495/110 20/496/110
f 21/137/111 152/495/110 153/497/110
f 22/498/110 153/497/110 154/499/110
f 23/500/110 154/499/110 155/501/110
f 24/502/110 155/501/110 156/503/110
f 25/504/110 156/503/110 157/505/110
f 26/506/110 157/505/110 158/507/111
f 27/508/110 158/507/111 159/509/111
f 28/510/158 159/509/111 160/511/110
f 28/510/158 161/512/111 29/513/110
f 29/513/110 162/514/110 30/515/111
f 30/515/111 163/516/110 31/517/110
f 31/517/110 164/518/110 32/519/110
f 32/519/110 165/520/110 33/521/110
f 33/521/110 166/522/110 34/135/110
f 34/135/110 167/523/110 35/136/110
f 35/136/110 136/465/110 3/524/110
f 36/525/155 168/526/155 169/527/155
f 37/528/156 170/529/156 171/530/156
f 36/531/155 169/527/155 172/532/155
f 37/533/156 173/534/156 170/529/156
f 36/535/155 172/532/155 174/536/155
f 37/537/156 175/538/156 173/534/156
f 36/539/155 174/536/155 176/540/155
f 37/541/156 177/542/156 175/538/156
f 36/543/155 176/540/155 178/544/155
f 37/545/156 179/546/156 177/542/156
f 36/547/155 178/544/155 180/548/155
f 37/549/156 181/550/156 179/546/156
f 36/551/155 180/548/155 182/552/155
f 37/553/156 183/554/156 181/550/156
f 36/555/155 182/552/155 184/556/155
f 37/557/156 185/558/156 183/554/156
f 36/559/155 184/556/155 186/560/155
f 37/561/156 187/562/156 185/558/156
f 36/563/155 186/560/155 188/564/155
f 37/565/156 189/566/156 187/562/156
f 36/567/155 188/564/155 190/568/155
f 37/569/156 191/570/156 189/566/156
f 36/571/155 190/568/155 192/572/155
f 37/573/156 193/574/156 191/570/156
f 36/575/155 192/572/155 194/576/155
f 37/577/156 195/578/156 193/574/156
f 36/579/155 194/576/155 196/580/155
f 37/581/156 197/582/156 195/578/156
f 36/583/155 196/580/155 198/584/155
f 37/585/156 199/586/156 197/582/156
f 36/587/155 198/584/155 200/588/155
f 37/589/156 201/590/156 199/586/156
f 36/591/155 200/588/155 202/592/155
f 37/593/156 203/594/156 201/590/156
f 36/595/155 202/592/155 204/596/155
f 37/597/156 205/598/156 203/594/156
f 36/599/155 204/596/155 206/600/155
f 37/601/156 207/602/156 205/598/156
f 36/603/155 206/600/155 208/604/155
f 37/605/156 209/606/156 207/602/156
f 36/607/155 208/604/155 210/608/155
f 37/609/156 211/610/156 209/606/156
f 36/611/155 210/608/155 212/612/155
f 37/613/156 213/614/156 211/610/156
f 36/615/155 212/612/155 214/616/155
f 37/617/156 215/618/156 213/614/156
f 36/619/155 214/616/155 216/620/155
f 37/621/156 217/622/156 215/618/156
f 36/623/155 216/620/155 218/624/155
f 37/625/156 219/626/156 217/622/156
f 36/627/155 218/624/155 220/628/155
f 37/629/156 221/630/156 219/626/156
f 36/631/155 220/628/155 222/632/155
f 37/633/156 223/634/156 221/630/156
f 36/635/155 222/632/155 224/636/155
f 37/637/156 225/638/156 223/634/156
f 36/639/155 224/636/155 226/640/155
f 37/641/156 227/642/156 225/638/156
f 36/643/155 226/640/155 228/644/155
f 37/645/156 229/646/156 227/642/156
f 36/647/155 228/644/155 230/648/155
f 37/649/156 231/650/156 229/646/156
f 36/651/155 230/648/155 168/526/155
f 37/652/156 171/530/156 231/650/156
f 38/653/155 232/654/155 233/655/155
f 39/656/156 234/657/156 235/658/156
f 38/659/155 233/655/155 236/660/155
f 39/661/156 237/662/156 234/657/156
f 38/663/155 236/660/155 238/664/155
f 39/665/156 239/666/156 237/662/156
f 38/667/155 238/664/155 240/668/155
f 39/669/156 241/670/156 239/666/156
f 38/671/155 240/668/155 242/672/155
f 39/673/156 243/674/156 241/670/156
f 38/675/155 242/672/155 244/676/155
f 39/677/156 245/678/156 243/674/156
f 38/679/155 244/676/155 246/680/155
f 39/681/156 247/682/156 245/678/156
f 38/683/155 246/680/155 248/684/155
f 39/685/156 249/686/156 247/682/156
f 38/687/155 248/684/155 250/688/155
f 39/689/156 251/690/156 249/686/156
f 38/691/155 250/688/155 252/692/155
f 39/693/156 253/694/156 251/690/156
f 38/695/155 252/692/155 254/696/155
f 39/697/156 255/698/156 253/694/156
f 38/699/155 254/696/155 256/700/155
f 39/701/156 257/702/156 255/698/156
f 38/703/155 256/700/155 258/704/155
f 39/705/156 259/706/156 257/702/156
f 38/707/155 258/704/155 260/708/155
f 39/709/156 261/710/156 259/706/156
f 38/711/155 260/708/155 262/712/155
f 39/713/156 263/714/156 261/710/156
f 38/715/155 262/712/155 264/590/155
f 39/716/156 265/717/156 263/714/156
f 38/718/155 264/590/155 266/719/155
f 39/720/156 267/721/156 265/717/156
f 38/722/155 266/719/155 268/723/155
f 39/724/156 269/725/156 267/721/156
f 38/726/155 268/723/155 270/727/155
f 39/728/156 271/729/156 269/725/156
f 38/730/155 270/727/155 272/731/155
f 39/732/156 273/733/156 271/729/156
f 38/734/155 272/731/155 274/735/155
f 39/736/156 275/737/156 273/733/156
f 38/738/155 274/735/155 276/739/155
f 39/740/156 277/741/156 275/737/156
f 38/742/155 276/739/155 278/743/155
f 39/744/156 279/745/156 277/741/156
f 38/746/155 278/743/155 280/747/155
f 39/748/156 281/749/156 279/745/156
f 38/750/155 280/747/155 282/751/155
f 39/752/156 283/753/156 281/749/156
f 38/754/155 282/751/155 284/755/155
f 39/756/156 285/757/156 283/753/156
f 38/758/155 284/755/155 286/759/155
f 39/760/156 287/761/156 285/757/156
f 38/762/155 286/759/155 288/763/155
f 39/764/156 289/765/156 287/761/156
f 38/766/155 288/763/155 290/767/155
f 39/768/156 291/769/156 289/765/156
f 38/770/155 290/767/155 292/771/155
f 39/772/156 293/773/156 291/769/156
f 38/774/155 292/771/155 294/775/155
f 39/776/156 295/777/156 293/773/156
f 38/778/155 294/775/155 232/654/155
f 39/779/156 235/658/156 295/777/156
f 72/1/1 75/780/2 74/2/2
f 73/3/3 74/2/4 77/4/4
f 76/5/5 77/4/6 79/6/6
f 78/7/7 79/6/8 81/8/8
f 80/9/9 81/8/9 83/10/9
f 82/12/10 83/781/11 85/13/11
f 84/14/12 85/13/12 87/15/12
f 86/16/13 87/15/13 89/17/13
f 88/18/14 89/17/14 91/19/14
f 90/21/15 91/782/16 93/22/16
f 92/23/17 93/22/18 95/24/18
f 94/25/19 95/24/20 97/26/20
f 96/27/21 97/26/22 99/28/22
f 98/29/23 99/28/24 101/30/24
f 100/31/25 101/30/26 103/32/26
f 102/33/27 103/32/28 105/34/28
f 105/34/29 107/37/29 106/36/30
f 107/37/31 109/39/31 108/38/32
f 109/39/33 111/41/33 110/40/33
f 111/41/34 113/43/34 112/42/34
f 113/43/35 115/783/35 114/44/36
f 115/45/37 117/48/37 116/46/37
f 117/48/38 119/50/38 118/49/38
f 119/50/39 121/52/39 120/51/39
f 121/52/40 123/784/40 122/53/40
f 123/54/41 125/57/41 124/55/42
f 125/57/43 127/59/43 126/58/44
f 127/59/45 129/61/45 128/60/46
f 129/61/47 131/63/47 130/62/47
f 131/63/48 133/65/48 132/64/49
f 133/65/50 135/67/50 134/66/51
f 135/67/52 75/780/52 72/1/53
f 136/68/54 41/785/55 40/69/55
f 137/70/56 40/69/57 42/71/57
f 138/72/58 42/71/58 43/73/58
f 139/74/59 43/73/60 44/75/60
f 140/76/61 44/75/62 45/77/62
f 141/79/63 45/786/64 46/80/64
f 142/81/65 46/80/65 47/82/65
f 143/83/66 47/82/66 48/84/66
f 144/85/67 48/84/67 49/86/67
f 145/88/68 49/787/68 50/89/68
f 146/90/69 50/89/70 51/91/70
f 147/92/71 51/91/72 52/93/72
f 148/94/73 52/93/74 53/95/74
f 149/96/75 53/95/76 54/97/76
f 150/98/77 54/97/78 55/99/78
f 151/100/79 55/99/79 56/101/79
f 56/101/80 57/104/159 153/103/81
f 57/104/82 58/106/82 154/105/83
f 58/106/84 59/108/84 155/107/85
f 59/108/86 60/110/86 156/109/87
f 60/110/88 61/788/88 157/111/88
f 61/112/89 62/115/89 158/113/90
f 62/115/91 63/117/91 159/116/91
f 63/117/92 64/119/92 160/118/93
f 64/119/94 65/789/94 161/120/95
f 65/121/96 66/124/96 162/122/97
f 66/124/98 67/126/98 163/125/99
f 67/126/100 68/128/100 164/127/101
f 68/128/102 69/130/102 165/129/103
f 69/130/104 70/132/104 166/131/105
f 70/132/106 71/134/106 167/133/107
f 71/134/108 41/785/108 136/68/109
f 35/136/110 3/524/110 20/496/110
f 3/524/110 5/464/110 19/494/110
f 5/464/110 6/467/110 18/492/110
f 6/467/110 7/469/110 17/490/110
f 7/469/110 8/471/110 16/488/110
f 8/471/110 9/473/110 15/486/110
f 9/473/110 10/475/110 14/484/110
f 10/475/110 11/477/110 13/482/111
f 11/477/110 12/479/157 13/482/111
f 13/482/111 14/484/110 10/475/110
f 14/484/110 15/486/110 9/473/110
f 15/486/110 16/488/110 8/471/110
f 16/488/110 17/490/110 7/469/110
f 17/490/110 18/492/110 6/467/110
f 18/492/110 19/494/110 5/464/110
f 19/494/110 20/496/110 3/524/110
f 20/496/110 21/137/111 35/136/110
f 21/137/111 22/498/110 34/135/110
f 22/498/110 23/500/110 33/521/110
f 23/500/110 24/502/110 32/519/110
f 24/502/110 25/504/110 31/517/110
f 25/504/110 26/506/110 30/515/111
f 26/506/110 27/508/110 29/513/110
f 27/508/110 28/510/158 29/513/110
f 29/513/110 30/515/111 26/506/110
f 30/515/111 31/517/110 25/504/110
f 31/517/110 32/519/110 24/502/110
f 32/519/110 33/521/110 23/500/110
f 33/521/110 34/135/110 22/498/110
f 168/138/1 171/790/112 170/139/112
f 169/140/113 170/139/4 173/141/4
f 172/142/5 173/141/5 175/143/5
f 174/144/8 175/143/114 177/145/114
f 176/146/9 177/145/115 179/147/115
f 178/149/116 179/791/11 181/150/11
f 180/151/117 181/150/12 183/152/12
f 182/153/118 183/152/13 185/154/13
f 184/155/14 185/154/14 187/156/14
f 186/158/15 187/792/16 189/159/16
f 188/160/17 189/159/18 191/161/18
f 190/162/20 191/161/20 193/163/20
f 192/164/22 193/163/21 195/165/21
f 194/166/23 195/165/24 197/167/24
f 196/168/119 197/167/26 199/169/26
f 198/170/120 199/169/27 201/171/27
f 201/171/30 203/174/30 202/173/29
f 203/174/121 205/176/121 204/175/122
f 205/176/33 207/178/33 206/177/123
f 207/178/34 209/180/34 208/179/124
f 209/180/36 211/793/36 210/181/35
f 211/182/125 213/185/125 212/183/126
f 213/185/127 215/187/127 214/186/38
f 215/187/39 217/189/39 216/188/128
f 217/189/40 219/794/40 218/190/129
f 219/191/42 221/194/42 220/192/130
f 221/194/131 223/196/131 222/195/43
f 223/196/46 225/198/46 224/197/46
f 225/198/47 227/200/47 226/199/132
f 227/200/49 229/202/49 228/201/133
f 229/202/134 231/204/134 230/203/134
f 231/204/135 171/790/135 168/138/136
f 232/205/112 235/795/112 234/206/112
f 233/207/113 234/206/3 237/208/3
f 236/209/137 237/208/5 239/210/5
f 238/211/8 239/210/138 241/212/138
f 240/213/139 241/212/9 243/214/9
f 242/216/116 243/796/11 245/217/11
f 244/218/12 245/217/12 247/219/12
f 246/220/140 247/219/13 249/221/13
f 248/222/14 249/221/14 251/223/14
f 250/225/16 251/797/15 253/226/15
f 252/227/17 253/226/18 255/228/18
f 254/229/19 255/228/19 257/230/19
f 256/231/141 257/230/21 259/232/21
f 258/233/142 259/232/23 261/234/23
f 260/235/25 261/234/119 263/236/119
f 262/237/143 263/236/160 265/238/144
f 265/238/145 267/241/145 266/240/145
f 267/241/32 269/243/32 268/242/32
f 269/243/33 271/245/33 270/244/123
f 271/245/34 273/247/34 272/246/34
f 273/247/36 275/798/36 274/248/36
f 275/249/146 277/252/146 276/250/147
f 277/252/148 279/254/148 278/253/127
f 279/254/149 281/256/149 280/255/150
f 281/256/129 283/799/129 282/257/129
f 283/258/42 285/261/42 284/259/42
f 285/261/43 287/263/43 286/262/44
f 287/263/45 289/265/45 288/264/46
f 289/265/47 291/267/47 290/266/151
f 291/267/152 293/269/152 292/268/48
f 293/269/134 295/271/134 294/270/50
f 295/271/135 235/795/135 232/205/53
f 5/464/110 3/524/110 136/465/110
f 6/467/110 5/464/110 137/466/111
f 7/469/110 6/467/110 138/468/110
f 8/471/110 7/469/110 139/470/110
f 9/473/110 8/471/110 140/472/110
f 10/475/110 9/473/110 141/474/110
f 11/477/110 10/475/110 142/476/110
f 12/479/157 11/477/110 143/478/110
f 12/479/157 144/480/110 145/481/110
f 13/482/111 145/481/110 146/483/110
f 14/484/110 146/483/110 147/485/110
f 15/486/110 147/485/110 148/487/110
f 16/488/110 148/487/110 149/489/110
f 17/490/110 149/489/110 150/491/110
f 18/492/110 150/491/110 151/493/110
f 19/494/110 151/493/110 152/495/110
f 21/137/111 20/496/110 152/495/110
f 22/498/110 21/137/111 153/497/110
f 23/500/110 22/498/110 154/499/110
f 24/502/110 23/500/110 155/501/110
f 25/504/110 24/502/110 156/503/110
f 26/506/110 25/504/110 157/505/110
f 27/508/110 26/506/110 158/507/111
f 28/510/158 27/508/110 159/509/111
f 28/510/158 160/511/110 161/512/111
f 29/513/110 161/512/111 162/514/110
f 30/515/111 162/514/110 163/516/110
f 31/517/110 163/516/110 164/518/110
f 32/519/110 164/518/110 165/520/110
f 33/521/110 165/520/110 166/522/110
f 34/135/110 166/522/110 167/523/110
f 35/136/110 167/523/110 136/465/110
