# Blender 4.1.0
# www.blender.org
mtllib CliffPosts.mtl
o Cylinder.005
v 0.686604 -0.062809 0.638168
v 0.684432 -0.017858 0.638155
v 0.688663 -0.017626 0.639073
v 0.688761 -0.017621 0.638229
v 0.688403 -0.017640 0.639882
v 0.687990 -0.017662 0.640624
v 0.687441 -0.017692 0.641271
v 0.686776 -0.017728 0.641799
v 0.686020 -0.017770 0.642187
v 0.685204 -0.017814 0.642420
v 0.684358 -0.017861 0.642489
v 0.683515 -0.017907 0.642391
v 0.682707 -0.017951 0.642131
v 0.681966 -0.017992 0.641717
v 0.681319 -0.018027 0.641167
v 0.680792 -0.018056 0.640501
v 0.680405 -0.018078 0.639745
v 0.680172 -0.018091 0.638928
v 0.680103 -0.018095 0.638081
v 0.680201 -0.018090 0.637237
v 0.680461 -0.018076 0.636429
v 0.680874 -0.018053 0.635686
v 0.681423 -0.018023 0.635039
v 0.682088 -0.017987 0.634511
v 0.682844 -0.017946 0.634123
v 0.683660 -0.017901 0.633890
v 0.684506 -0.017855 0.633821
v 0.685349 -0.017809 0.633919
v 0.686156 -0.017765 0.634179
v 0.686898 -0.017724 0.634593
v 0.687545 -0.017688 0.635143
v 0.688072 -0.017659 0.635809
v 0.688459 -0.017638 0.636565
v 0.688692 -0.017625 0.637382
v 0.690933 -0.062572 0.638241
v 0.690835 -0.062578 0.639085
v 0.690575 -0.062592 0.639894
v 0.690163 -0.062614 0.640637
v 0.689613 -0.062644 0.641284
v 0.688948 -0.062680 0.641812
v 0.688193 -0.062721 0.642200
v 0.687376 -0.062766 0.642432
v 0.686531 -0.062812 0.642501
v 0.685688 -0.062858 0.642404
v 0.684880 -0.062902 0.642143
v 0.684138 -0.062943 0.641730
v 0.683491 -0.062979 0.641180
v 0.682964 -0.063008 0.640514
v 0.682577 -0.063029 0.639758
v 0.682344 -0.063042 0.638941
v 0.682276 -0.063046 0.638094
v 0.682373 -0.063041 0.637250
v 0.682633 -0.063027 0.636441
v 0.683046 -0.063005 0.635699
v 0.683596 -0.062975 0.635051
v 0.684261 -0.062939 0.634523
v 0.685016 -0.062898 0.634136
v 0.685832 -0.062853 0.633903
v 0.686678 -0.062807 0.633834
v 0.687521 -0.062761 0.633932
v 0.688329 -0.062716 0.634192
v 0.689070 -0.062676 0.634605
v 0.689717 -0.062640 0.635155
v 0.690244 -0.062611 0.635821
v 0.690632 -0.062589 0.636577
v 0.690864 -0.062576 0.637394
v 0.825463 -0.055503 0.333976
v 0.830490 0.051211 0.333925
v 0.839420 0.050791 0.335567
v 0.839569 0.050783 0.333793
v 0.838929 0.050815 0.337279
v 0.838113 0.050854 0.338862
v 0.837004 0.050907 0.340255
v 0.835645 0.050972 0.341405
v 0.834087 0.051046 0.342267
v 0.832392 0.051126 0.342809
v 0.830623 0.051209 0.343010
v 0.828849 0.051293 0.342861
v 0.827139 0.051373 0.342369
v 0.825557 0.051447 0.341553
v 0.824164 0.051512 0.340443
v 0.823015 0.051566 0.339083
v 0.822153 0.051606 0.337525
v 0.821612 0.051630 0.335828
v 0.821411 0.051639 0.334058
v 0.821559 0.051631 0.332284
v 0.822051 0.051607 0.330572
v 0.822867 0.051568 0.328989
v 0.823976 0.051515 0.327596
v 0.825335 0.051450 0.326446
v 0.826893 0.051377 0.325584
v 0.828588 0.051296 0.325042
v 0.830357 0.051213 0.324841
v 0.832131 0.051130 0.324990
v 0.833842 0.051049 0.325482
v 0.835423 0.050975 0.326299
v 0.836816 0.050910 0.327408
v 0.837965 0.050857 0.328768
v 0.838827 0.050817 0.330326
v 0.839369 0.050792 0.332023
v 0.834542 -0.055931 0.333843
v 0.834394 -0.055923 0.335618
v 0.833902 -0.055899 0.337329
v 0.833086 -0.055860 0.338912
v 0.831977 -0.055807 0.340305
v 0.830618 -0.055742 0.341455
v 0.829060 -0.055668 0.342318
v 0.827365 -0.055588 0.342860
v 0.825596 -0.055505 0.343060
v 0.823822 -0.055421 0.342911
v 0.822111 -0.055341 0.342419
v 0.820530 -0.055267 0.341603
v 0.819137 -0.055202 0.340493
v 0.817988 -0.055148 0.339133
v 0.817126 -0.055108 0.337575
v 0.816584 -0.055084 0.335879
v 0.816384 -0.055075 0.334109
v 0.816533 -0.055083 0.332334
v 0.817024 -0.055107 0.330622
v 0.817840 -0.055146 0.329040
v 0.818949 -0.055199 0.327647
v 0.820309 -0.055264 0.326497
v 0.821866 -0.055337 0.325634
v 0.823561 -0.055418 0.325092
v 0.825330 -0.055501 0.324892
v 0.827104 -0.055584 0.325040
v 0.828815 -0.055665 0.325532
v 0.830397 -0.055739 0.326349
v 0.831789 -0.055804 0.327459
v 0.832938 -0.055857 0.328819
v 0.833800 -0.055897 0.330377
v 0.834342 -0.055922 0.332073
v 0.783256 -0.055182 0.431770
v 0.783256 0.035084 0.431770
v 0.790769 0.035084 0.433264
v 0.790916 0.035084 0.431770
v 0.790333 0.035084 0.434700
v 0.789625 0.035084 0.436023
v 0.788673 0.035084 0.437184
v 0.787512 0.035084 0.438136
v 0.786188 0.035084 0.438843
v 0.784751 0.035084 0.439279
v 0.783256 0.035084 0.439426
v 0.781762 0.035084 0.439279
v 0.780325 0.035084 0.438843
v 0.779000 0.035084 0.438136
v 0.777840 0.035084 0.437184
v 0.776887 0.035084 0.436023
v 0.776179 0.035084 0.434700
v 0.775743 0.035084 0.433264
v 0.775596 0.035084 0.431770
v 0.775743 0.035084 0.430276
v 0.776179 0.035084 0.428840
v 0.776887 0.035084 0.427517
v 0.777840 0.035084 0.426357
v 0.779000 0.035084 0.425404
v 0.780325 0.035084 0.424697
v 0.781762 0.035084 0.424261
v 0.783256 0.035084 0.424114
v 0.784751 0.035084 0.424261
v 0.786188 0.035084 0.424697
v 0.787512 0.035084 0.425404
v 0.788673 0.035084 0.426357
v 0.789625 0.035084 0.427517
v 0.790333 0.035084 0.428840
v 0.790769 0.035084 0.430276
v 0.790916 -0.055440 0.431770
v 0.790769 -0.055440 0.433264
v 0.790333 -0.055440 0.434700
v 0.789625 -0.055440 0.436023
v 0.788673 -0.055440 0.437184
v 0.787512 -0.055440 0.438136
v 0.786188 -0.055440 0.438843
v 0.784751 -0.055440 0.439279
v 0.783256 -0.055440 0.439426
v 0.781762 -0.054942 0.439279
v 0.780325 -0.054942 0.438843
v 0.779000 -0.054942 0.438136
v 0.777840 -0.054942 0.437184
v 0.776887 -0.054942 0.436023
v 0.776179 -0.054942 0.434700
v 0.775743 -0.054942 0.433264
v 0.775596 -0.054942 0.431770
v 0.775743 -0.054942 0.430276
v 0.776179 -0.054942 0.428840
v 0.776887 -0.054942 0.427517
v 0.777840 -0.054942 0.426357
v 0.779000 -0.054942 0.425404
v 0.780325 -0.054942 0.424697
v 0.781762 -0.054942 0.424261
v 0.783256 -0.054942 0.424114
v 0.784751 -0.055273 0.424261
v 0.786188 -0.055300 0.424697
v 0.787512 -0.055440 0.425404
v 0.788673 -0.055440 0.426357
v 0.789625 -0.055440 0.427517
v 0.790333 -0.055440 0.428840
v 0.790769 -0.055440 0.430276
v 0.741440 -0.056662 0.518605
v 0.737842 0.015878 0.518584
v 0.747033 -0.056356 0.518701
v 0.746907 -0.056362 0.519791
v 0.743309 0.016177 0.519770
v 0.743435 0.016184 0.518680
v 0.746571 -0.056380 0.520836
v 0.742973 0.016159 0.520815
v 0.746038 -0.056409 0.521795
v 0.742440 0.016130 0.521774
v 0.745328 -0.056448 0.522632
v 0.741730 0.016092 0.522611
v 0.744468 -0.056494 0.523313
v 0.740870 0.016045 0.523293
v 0.743492 -0.056548 0.523814
v 0.739894 0.015992 0.523794
v 0.742438 -0.056605 0.524115
v 0.738840 0.015934 0.524094
v 0.741345 -0.056665 0.524204
v 0.737747 0.015874 0.524183
v 0.740255 -0.056725 0.524078
v 0.736657 0.015815 0.524057
v 0.739211 -0.056782 0.523741
v 0.735613 0.015757 0.523721
v 0.738253 -0.056835 0.523208
v 0.734655 0.015705 0.523187
v 0.737417 -0.056881 0.522497
v 0.733819 0.015659 0.522476
v 0.736736 -0.056918 0.521637
v 0.733138 0.015621 0.521616
v 0.736236 -0.056946 0.520660
v 0.732638 0.015594 0.520639
v 0.735935 -0.056963 0.519604
v 0.732337 0.015577 0.519583
v 0.735846 -0.056968 0.518510
v 0.732248 0.015572 0.518489
v 0.735972 -0.056961 0.517420
v 0.732374 0.015578 0.517399
v 0.736309 -0.056943 0.516375
v 0.732711 0.015596 0.516354
v 0.736842 -0.056914 0.515416
v 0.733244 0.015625 0.515395
v 0.737552 -0.056876 0.514579
v 0.733954 0.015664 0.514558
v 0.738411 -0.056829 0.513897
v 0.734813 0.015710 0.513876
v 0.739387 -0.056776 0.513396
v 0.735789 0.015764 0.513376
v 0.740442 -0.056718 0.513096
v 0.736844 0.015821 0.513075
v 0.741535 -0.056658 0.513007
v 0.737937 0.015881 0.512986
v 0.742624 -0.056599 0.513133
v 0.739026 0.015941 0.513112
v 0.743668 -0.056541 0.513469
v 0.740070 0.015998 0.513448
v 0.744627 -0.056489 0.514003
v 0.741028 0.016051 0.513982
v 0.745462 -0.056443 0.514714
v 0.741864 0.016097 0.514693
v 0.746143 -0.056405 0.515574
v 0.742545 0.016134 0.515553
v 0.746644 -0.056378 0.516551
v 0.743046 0.016162 0.516530
v 0.746944 -0.056361 0.517606
v 0.743346 0.016179 0.517586
v 0.714224 -0.059895 0.582080
v 0.710963 0.005851 0.582061
v 0.715918 0.006122 0.583135
v 0.716032 0.006128 0.582147
v 0.715613 0.006106 0.584082
v 0.715130 0.006080 0.584952
v 0.714486 0.006045 0.585710
v 0.713707 0.006003 0.586328
v 0.712823 0.005954 0.586782
v 0.711867 0.005902 0.587054
v 0.710876 0.005848 0.587135
v 0.709889 0.005794 0.587021
v 0.708943 0.005742 0.586716
v 0.708074 0.005694 0.586232
v 0.707317 0.005653 0.585588
v 0.706699 0.005619 0.584808
v 0.706246 0.005593 0.583923
v 0.705974 0.005578 0.582966
v 0.705893 0.005573 0.581974
v 0.706007 0.005579 0.580986
v 0.706312 0.005596 0.580039
v 0.706795 0.005622 0.579170
v 0.707439 0.005657 0.578412
v 0.708218 0.005699 0.577794
v 0.709102 0.005748 0.577340
v 0.710058 0.005800 0.577067
v 0.711049 0.005854 0.576986
v 0.712036 0.005908 0.577101
v 0.712982 0.005960 0.577406
v 0.713851 0.006008 0.577889
v 0.714608 0.006049 0.578534
v 0.715226 0.006083 0.579313
v 0.715679 0.006108 0.580199
v 0.715952 0.006124 0.581155
v 0.719293 -0.059618 0.582166
v 0.719179 -0.059624 0.583154
v 0.718874 -0.059640 0.584101
v 0.718391 -0.059666 0.584971
v 0.717747 -0.059701 0.585729
v 0.716968 -0.059744 0.586347
v 0.716084 -0.059792 0.586801
v 0.715128 -0.059844 0.587073
v 0.714137 -0.059898 0.587154
v 0.713150 -0.059952 0.587040
v 0.712204 -0.060004 0.586735
v 0.711335 -0.060052 0.586251
v 0.710578 -0.060094 0.585607
v 0.709960 -0.060128 0.584827
v 0.709507 -0.060153 0.583942
v 0.709235 -0.060168 0.582985
v 0.709154 -0.060173 0.581993
v 0.709268 -0.060167 0.581005
v 0.709573 -0.060150 0.580058
v 0.710056 -0.060124 0.579189
v 0.710700 -0.060089 0.578430
v 0.711479 -0.060047 0.577812
v 0.712363 -0.059998 0.577358
v 0.713319 -0.059946 0.577086
v 0.714310 -0.059892 0.577005
v 0.715297 -0.059838 0.577120
v 0.716243 -0.059786 0.577424
v 0.717112 -0.059738 0.577908
v 0.717869 -0.059697 0.578552
v 0.718487 -0.059663 0.579332
v 0.718940 -0.059638 0.580217
v 0.719213 -0.059622 0.581174
vn 0.9922 0.0480 0.1152
vn 0.9922 0.0480 0.1148
vn 0.9922 0.0480 0.1149
vn 0.9507 0.0460 0.3066
vn 0.9507 0.0460 0.3065
vn 0.8728 0.0423 0.4863
vn 0.7610 0.0370 0.6477
vn 0.6204 0.0302 0.7837
vn 0.4557 0.0223 0.8898
vn 0.4556 0.0223 0.8899
vn 0.2735 0.0135 0.9618
vn 0.0810 0.0042 0.9967
vn -0.1148 -0.0053 0.9934
vn -0.1147 -0.0053 0.9934
vn -0.3060 -0.0145 0.9519
vn -0.3061 -0.0145 0.9519
vn -0.4857 -0.0232 0.8738
vn -0.6465 -0.0310 0.7623
vn -0.7827 -0.0377 0.6213
vn -0.7826 -0.0376 0.6213
vn -0.8887 -0.0428 0.4564
vn -0.9606 -0.0463 0.2741
vn -0.9606 -0.0463 0.2742
vn -0.9956 -0.0481 0.0808
vn -0.9955 -0.0481 0.0811
vn -0.9955 -0.0481 0.0812
vn -0.9922 -0.0480 -0.1150
vn -0.9922 -0.0480 -0.1149
vn -0.9508 -0.0460 -0.3065
vn -0.9507 -0.0460 -0.3067
vn -0.8727 -0.0423 -0.4864
vn -0.8727 -0.0423 -0.4865
vn -0.7612 -0.0370 -0.6475
vn -0.7611 -0.0370 -0.6476
vn -0.6204 -0.0302 -0.7837
vn -0.6203 -0.0302 -0.7838
vn -0.4556 -0.0223 -0.8899
vn -0.2735 -0.0135 -0.9618
vn -0.2736 -0.0135 -0.9618
vn -0.0810 -0.0042 -0.9967
vn -0.0809 -0.0042 -0.9967
vn 0.1148 0.0053 -0.9934
vn 0.1147 0.0053 -0.9934
vn 0.3061 0.0145 -0.9519
vn 0.4857 0.0232 -0.8738
vn 0.4856 0.0232 -0.8739
vn 0.6465 0.0310 -0.7623
vn 0.6465 0.0310 -0.7622
vn 0.7827 0.0377 -0.6212
vn 0.7827 0.0376 -0.6212
vn 0.8889 0.0428 -0.4561
vn 0.8885 0.0428 -0.4570
vn 0.8887 0.0428 -0.4565
vn 0.9606 0.0463 -0.2741
vn 0.9955 0.0481 -0.0811
vn -0.0546 0.9985 -0.0003
vn 0.0546 -0.9985 0.0003
vn 0.9922 0.0480 0.1151
vn 0.9954 -0.0469 0.0836
vn 0.9954 -0.0468 0.0835
vn 0.9600 -0.0451 0.2763
vn 0.9600 -0.0451 0.2764
vn 0.9600 -0.0451 0.2765
vn 0.8876 -0.0416 0.4586
vn 0.8876 -0.0416 0.4587
vn 0.7813 -0.0365 0.6231
vn 0.7811 -0.0365 0.6233
vn 0.6447 -0.0300 0.7638
vn 0.4835 -0.0224 0.8750
vn 0.3038 -0.0139 0.9526
vn 0.1124 -0.0048 0.9937
vn -0.0833 0.0044 0.9965
vn -0.2758 0.0134 0.9611
vn -0.4577 0.0220 0.8888
vn -0.6221 0.0297 0.7824
vn -0.6221 0.0297 0.7823
vn -0.7627 0.0362 0.6458
vn -0.7626 0.0362 0.6459
vn -0.8738 0.0414 0.4845
vn -0.8738 0.0414 0.4844
vn -0.9515 0.0450 0.3042
vn -0.9515 0.0450 0.3045
vn -0.9925 0.0468 0.1127
vn -0.9925 0.0468 0.1126
vn -0.9954 0.0469 -0.0833
vn -0.9954 0.0469 -0.0836
vn -0.9600 0.0451 -0.2765
vn -0.9600 0.0451 -0.2764
vn -0.8876 0.0416 -0.4586
vn -0.8876 0.0416 -0.4587
vn -0.7812 0.0365 -0.6233
vn -0.7812 0.0365 -0.6232
vn -0.6447 0.0300 -0.7638
vn -0.4835 0.0224 -0.8750
vn -0.3038 0.0139 -0.9526
vn -0.1124 0.0048 -0.9936
vn 0.0833 -0.0044 -0.9965
vn 0.2758 -0.0134 -0.9611
vn 0.4577 -0.0220 -0.8888
vn 0.6220 -0.0297 -0.7824
vn 0.6221 -0.0297 -0.7824
vn 0.6221 -0.0297 -0.7823
vn 0.7626 -0.0362 -0.6458
vn 0.7627 -0.0362 -0.6458
vn 0.8738 -0.0414 -0.4845
vn 0.9515 -0.0450 -0.3043
vn 0.9515 -0.0450 -0.3044
vn 0.9925 -0.0468 -0.1128
vn 0.9925 -0.0468 -0.1126
vn 0.0471 0.9989 -0.0005
vn -0.0471 -0.9989 0.0005
vn 0.9952 -0.0000 0.0982
vn 0.9952 -0.0000 0.0979
vn 0.9569 -0.0000 0.2904
vn 0.8818 -0.0000 0.4717
vn 0.8818 -0.0000 0.4716
vn 0.7729 -0.0000 0.6345
vn 0.7729 -0.0000 0.6346
vn 0.6342 -0.0000 0.7732
vn 0.6341 -0.0000 0.7732
vn 0.4712 -0.0000 0.8820
vn 0.4713 -0.0000 0.8820
vn 0.2901 -0.0000 0.9570
vn 0.0980 -0.0000 0.9952
vn -0.0980 -0.0000 0.9952
vn -0.2901 -0.0000 0.9570
vn -0.2902 -0.0000 0.9570
vn -0.4712 -0.0000 0.8821
vn -0.4712 -0.0000 0.8820
vn -0.6342 -0.0000 0.7732
vn -0.6342 -0.0000 0.7731
vn -0.7728 -0.0000 0.6346
vn -0.8818 -0.0000 0.4715
vn -0.8819 -0.0000 0.4715
vn -0.9569 -0.0000 0.2904
vn -0.9569 -0.0000 0.2905
vn -0.9952 -0.0000 0.0983
vn -0.9952 -0.0000 0.0982
vn -0.9952 -0.0000 -0.0982
vn -0.9952 -0.0000 -0.0983
vn -0.9569 -0.0000 -0.2905
vn -0.9569 -0.0000 -0.2904
vn -0.8819 -0.0000 -0.4715
vn -0.8818 -0.0000 -0.4715
vn -0.7728 -0.0000 -0.6346
vn -0.6342 -0.0000 -0.7731
vn -0.6342 -0.0000 -0.7732
vn -0.4712 -0.0000 -0.8820
vn -0.4712 -0.0000 -0.8821
vn -0.2902 -0.0000 -0.9570
vn -0.2901 -0.0000 -0.9570
vn -0.0980 -0.0000 -0.9952
vn 0.0980 -0.0000 -0.9952
vn 0.2901 -0.0000 -0.9570
vn 0.4712 -0.0000 -0.8820
vn 0.6341 -0.0000 -0.7732
vn 0.6342 -0.0000 -0.7732
vn 0.7729 -0.0000 -0.6346
vn 0.7729 -0.0000 -0.6345
vn 0.8818 -0.0000 -0.4716
vn 0.8818 -0.0000 -0.4717
vn 0.9569 -0.0000 -0.2904
vn 0.9952 -0.0000 -0.0979
vn 0.9952 -0.0000 -0.0982
vn -0.0000 1.0000 -0.0000
vn -0.0324 -0.9995 0.0032
vn -0.0337 -0.9994 -0.0000
vn -0.0331 -0.9994 -0.0066
vn -0.0324 -0.9994 -0.0098
vn -0.0258 -0.9994 -0.0212
vn -0.0299 -0.9994 -0.0160
vn -0.0280 -0.9994 -0.0187
vn -0.0238 -0.9994 -0.0238
vn -0.0215 -0.9994 -0.0262
vn -0.0097 -0.9994 -0.0320
vn -0.0160 -0.9994 -0.0299
vn -0.0129 -0.9994 -0.0312
vn -0.0066 -0.9994 -0.0331
vn -0.0033 -0.9994 -0.0337
vn -0.3129 -0.9493 -0.0320
vn -0.0146 -0.9995 0.0273
vn -0.0091 -0.9995 0.0300
vn -0.0119 -0.9995 0.0288
vn -0.0173 -0.9995 0.0260
vn -0.0199 -0.9995 0.0243
vn -0.0273 -0.9995 0.0146
vn -0.0242 -0.9995 0.0199
vn -0.0260 -0.9995 0.0173
vn -0.0288 -0.9995 0.0119
vn -0.0300 -0.9995 0.0091
vn -0.0308 -0.9995 -0.0030
vn -0.0312 -0.9995 0.0031
vn -0.0312 -0.9995 -0.0000
vn -0.0306 -0.9995 -0.0061
vn -0.0300 -0.9995 -0.0091
vn -0.0239 -0.9995 -0.0197
vn -0.0277 -0.9995 -0.0148
vn -0.0259 -0.9995 -0.0173
vn -0.0221 -0.9995 -0.0221
vn -0.0199 -0.9995 -0.0243
vn -0.0090 -0.9995 -0.0296
vn -0.0148 -0.9995 -0.0277
vn -0.0119 -0.9995 -0.0288
vn -0.0061 -0.9995 -0.0306
vn -0.0031 -0.9995 -0.0312
vn -0.2129 -0.9766 -0.0305
vn -0.0217 -0.9997 0.0078
vn -0.0931 -0.9954 -0.0218
vn -0.0238 -0.9994 0.0238
vn -0.0215 -0.9994 0.0262
vn -0.0262 -0.9994 0.0215
vn -0.0299 -0.9994 0.0160
vn -0.0311 -0.9994 0.0129
vn -0.0331 -0.9994 0.0066
vn 0.9922 0.0493 0.1147
vn 0.9921 0.0492 0.1152
vn 0.9507 0.0473 0.3066
vn 0.9506 0.0472 0.3068
vn 0.8726 0.0434 0.4865
vn 0.8726 0.0434 0.4866
vn 0.7610 0.0379 0.6477
vn 0.6202 0.0310 0.7839
vn 0.4557 0.0229 0.8899
vn 0.4556 0.0229 0.8899
vn 0.2734 0.0138 0.9618
vn 0.2735 0.0138 0.9618
vn 0.0809 0.0043 0.9967
vn -0.1147 -0.0054 0.9934
vn -0.3060 -0.0149 0.9519
vn -0.4856 -0.0238 0.8739
vn -0.6465 -0.0318 0.7622
vn -0.6464 -0.0318 0.7623
vn -0.7826 -0.0386 0.6213
vn -0.7825 -0.0386 0.6215
vn -0.8886 -0.0439 0.4565
vn -0.8886 -0.0439 0.4566
vn -0.9606 -0.0476 0.2740
vn -0.9605 -0.0476 0.2741
vn -0.9954 -0.0494 0.0815
vn -0.9955 -0.0494 0.0812
vn -0.9922 -0.0492 -0.1150
vn -0.9921 -0.0492 -0.1151
vn -0.9506 -0.0472 -0.3067
vn -0.9507 -0.0472 -0.3066
vn -0.8726 -0.0434 -0.4865
vn -0.7610 -0.0379 -0.6477
vn -0.7610 -0.0379 -0.6476
vn -0.6203 -0.0310 -0.7838
vn -0.6201 -0.0310 -0.7839
vn -0.4556 -0.0229 -0.8899
vn -0.4555 -0.0228 -0.8899
vn -0.2735 -0.0138 -0.9618
vn -0.0810 -0.0043 -0.9967
vn 0.1148 0.0054 -0.9934
vn 0.3060 0.0149 -0.9519
vn 0.4855 0.0238 -0.8739
vn 0.6464 0.0318 -0.7623
vn 0.6465 0.0319 -0.7623
vn 0.7825 0.0386 -0.6214
vn 0.7826 0.0386 -0.6213
vn 0.8886 0.0439 -0.4566
vn 0.8886 0.0439 -0.4565
vn 0.9605 0.0476 -0.2741
vn 0.9604 0.0476 -0.2746
vn 0.9605 0.0476 -0.2742
vn 0.9955 0.0494 -0.0812
vn 0.9955 0.0493 -0.0815
vn 0.9955 0.0494 -0.0811
vn 0.9922 0.0492 0.1149
vn 0.9921 0.0493 0.1150
vn 0.9507 0.0472 0.3066
vn 0.9506 0.0472 0.3067
vn 0.7608 0.0379 0.6479
vn 0.6202 0.0310 0.7838
vn 0.6201 0.0310 0.7839
vn 0.4555 0.0228 0.8900
vn -0.6466 -0.0319 0.7622
vn -0.6466 -0.0319 0.7621
vn -0.7825 -0.0386 0.6214
vn -0.8887 -0.0439 0.4564
vn -0.9605 -0.0476 0.2743
vn -0.9606 -0.0476 0.2739
vn -0.9922 -0.0492 -0.1149
vn -0.9921 -0.0492 -0.1150
vn -0.9506 -0.0472 -0.3068
vn -0.8725 -0.0434 -0.4867
vn -0.8727 -0.0434 -0.4863
vn -0.7611 -0.0379 -0.6476
vn -0.6202 -0.0310 -0.7838
vn -0.4555 -0.0229 -0.8899
vn -0.0809 -0.0043 -0.9967
vn 0.1147 0.0054 -0.9934
vn 0.4857 0.0238 -0.8738
vn 0.6465 0.0318 -0.7623
vn 0.7826 0.0386 -0.6214
vn 0.8886 0.0440 -0.4565
vn 0.9607 0.0476 -0.2736
vn 0.9955 0.0494 -0.0813
vn 0.0547 -0.9985 0.0003
vn 0.7610 0.0379 0.6476
vt 1.000000 0.500000
vt 0.968750 1.000000
vt 0.968750 0.500000
vt 0.937500 1.000000
vt 0.937500 0.500000
vt 0.906250 1.000000
vt 0.906250 0.500000
vt 0.875000 1.000000
vt 0.875000 0.500000
vt 0.843750 1.000000
vt 0.843750 0.500000
vt 0.812500 1.000000
vt 0.812500 0.500000
vt 0.781250 1.000000
vt 0.781250 0.500000
vt 0.750000 1.000000
vt 0.750000 0.500000
vt 0.718750 1.000000
vt 0.718750 0.500000
vt 0.687500 1.000000
vt 0.687500 0.500000
vt 0.656250 1.000000
vt 0.656250 0.500000
vt 0.625000 1.000000
vt 0.625000 0.500000
vt 0.593750 1.000000
vt 0.593750 0.500000
vt 0.562500 1.000000
vt 0.562500 0.500000
vt 0.531250 1.000000
vt 0.531250 0.500000
vt 0.500000 1.000000
vt 0.500000 0.500000
vt 0.468750 0.500000
vt 0.468750 1.000000
vt 0.437500 0.500000
vt 0.437500 1.000000
vt 0.406250 0.500000
vt 0.406250 1.000000
vt 0.375000 0.500000
vt 0.375000 1.000000
vt 0.343750 0.500000
vt 0.343750 1.000000
vt 0.312500 0.500000
vt 0.312500 1.000000
vt 0.281250 0.500000
vt 0.281250 1.000000
vt 0.250000 0.500000
vt 0.250000 1.000000
vt 0.218750 0.500000
vt 0.218750 1.000000
vt 0.187500 0.500000
vt 0.187500 1.000000
vt 0.156250 0.500000
vt 0.156250 1.000000
vt 0.125000 0.500000
vt 0.125000 1.000000
vt 0.093750 0.500000
vt 0.093750 1.000000
vt 0.062500 0.500000
vt 0.062500 1.000000
vt 0.031250 0.500000
vt 0.031250 1.000000
vt 0.000000 0.500000
vt 0.289398 0.448065
vt 0.296822 0.485388
vt 0.250000 0.490000
vt 0.327281 0.436573
vt 0.341844 0.471731
vt 0.362195 0.417912
vt 0.383337 0.449553
vt 0.392797 0.392797
vt 0.419706 0.419706
vt 0.417912 0.362195
vt 0.449553 0.383337
vt 0.436573 0.327281
vt 0.471731 0.341844
vt 0.448065 0.289398
vt 0.485388 0.296822
vt 0.451946 0.250000
vt 0.490000 0.250000
vt 0.448065 0.210602
vt 0.485388 0.203178
vt 0.436573 0.172719
vt 0.471731 0.158156
vt 0.417912 0.137805
vt 0.449553 0.116663
vt 0.392797 0.107203
vt 0.419706 0.080294
vt 0.362195 0.082088
vt 0.383337 0.050447
vt 0.327281 0.063427
vt 0.341844 0.028269
vt 0.289398 0.051935
vt 0.296822 0.014612
vt 0.250000 0.048054
vt 0.250000 0.010000
vt 0.210602 0.051935
vt 0.203178 0.014612
vt 0.172719 0.063427
vt 0.158156 0.028269
vt 0.137805 0.082088
vt 0.116663 0.050447
vt 0.107203 0.107203
vt 0.080294 0.080294
vt 0.082088 0.137805
vt 0.050447 0.116663
vt 0.063427 0.172719
vt 0.028269 0.158156
vt 0.051935 0.210602
vt 0.014612 0.203178
vt 0.048054 0.250000
vt 0.010000 0.250000
vt 0.051935 0.289398
vt 0.014612 0.296822
vt 0.063427 0.327281
vt 0.028269 0.341844
vt 0.082088 0.362195
vt 0.050447 0.383337
vt 0.107203 0.392797
vt 0.080294 0.419706
vt 0.137805 0.417912
vt 0.116663 0.449553
vt 0.172719 0.436574
vt 0.158156 0.471731
vt 0.210602 0.448065
vt 0.203178 0.485388
vt 0.250000 0.451946
vt 0.750000 0.443577
vt 0.750000 0.490000
vt 0.796822 0.485388
vt 0.787765 0.439858
vt 0.841844 0.471731
vt 0.824079 0.428842
vt 0.883337 0.449553
vt 0.857546 0.410954
vt 0.919706 0.419706
vt 0.886880 0.386880
vt 0.949553 0.383337
vt 0.910954 0.357546
vt 0.971731 0.341844
vt 0.928842 0.324079
vt 0.985388 0.296822
vt 0.939858 0.287765
vt 0.990000 0.250000
vt 0.943578 0.250000
vt 0.985388 0.203178
vt 0.939858 0.212235
vt 0.971731 0.158156
vt 0.928842 0.175921
vt 0.949553 0.116663
vt 0.910954 0.142454
vt 0.919706 0.080294
vt 0.886880 0.113120
vt 0.883337 0.050447
vt 0.857546 0.089046
vt 0.841844 0.028269
vt 0.824079 0.071158
vt 0.796822 0.014612
vt 0.787765 0.060142
vt 0.750000 0.010000
vt 0.750000 0.056422
vt 0.703178 0.014612
vt 0.712235 0.060142
vt 0.658156 0.028269
vt 0.675921 0.071158
vt 0.616663 0.050447
vt 0.642454 0.089046
vt 0.580294 0.080294
vt 0.613120 0.113120
vt 0.550447 0.116663
vt 0.589046 0.142454
vt 0.528269 0.158156
vt 0.571158 0.175921
vt 0.514612 0.203178
vt 0.560142 0.212235
vt 0.510000 0.250000
vt 0.556422 0.250000
vt 0.514612 0.296822
vt 0.560142 0.287765
vt 0.528269 0.341844
vt 0.571158 0.324079
vt 0.550447 0.383337
vt 0.589046 0.357546
vt 0.580294 0.419706
vt 0.613120 0.386880
vt 0.616663 0.449553
vt 0.642454 0.410954
vt 0.658156 0.471731
vt 0.675921 0.428842
vt 0.703178 0.485388
vt 0.712235 0.439858
vt 1.000000 1.000000
vt 0.000000 1.000000
vt 0.288727 0.444695
vt 0.325966 0.433398
vt 0.360286 0.415054
vt 0.390367 0.390367
vt 0.415054 0.360286
vt 0.433398 0.325966
vt 0.444695 0.288727
vt 0.448509 0.250000
vt 0.444695 0.211273
vt 0.433398 0.174034
vt 0.415054 0.139714
vt 0.390367 0.109633
vt 0.360286 0.084946
vt 0.325966 0.066602
vt 0.288727 0.055305
vt 0.250000 0.051491
vt 0.211273 0.055305
vt 0.174034 0.066602
vt 0.139714 0.084946
vt 0.109633 0.109633
vt 0.084946 0.139714
vt 0.066602 0.174034
vt 0.055305 0.211273
vt 0.051491 0.250000
vt 0.055305 0.288727
vt 0.066602 0.325966
vt 0.084946 0.360286
vt 0.109633 0.390367
vt 0.139714 0.415054
vt 0.174034 0.433398
vt 0.211273 0.444695
vt 0.250000 0.448509
vt 0.750000 0.438498
vt 0.786774 0.434876
vt 0.822135 0.424149
vt 0.854724 0.406730
vt 0.883288 0.383288
vt 0.906730 0.354724
vt 0.924149 0.322135
vt 0.934875 0.286774
vt 0.938497 0.250000
vt 0.934875 0.213226
vt 0.924149 0.177865
vt 0.906730 0.145276
vt 0.883288 0.116712
vt 0.854723 0.093270
vt 0.822135 0.075851
vt 0.786774 0.065124
vt 0.750000 0.061502
vt 0.713226 0.065124
vt 0.677865 0.075851
vt 0.645276 0.093270
vt 0.616712 0.116712
vt 0.593270 0.145276
vt 0.575851 0.177865
vt 0.565124 0.213226
vt 0.561502 0.250000
vt 0.565124 0.286774
vt 0.575851 0.322135
vt 0.593270 0.354724
vt 0.616712 0.383288
vt 0.645276 0.406730
vt 0.677865 0.424149
vt 0.713226 0.434876
vt 0.293357 0.467969
vt 0.335047 0.455322
vt 0.373469 0.434785
vt 0.407147 0.407147
vt 0.434785 0.373469
vt 0.455322 0.335047
vt 0.467969 0.293357
vt 0.472239 0.250000
vt 0.467969 0.206643
vt 0.455322 0.164953
vt 0.434785 0.126531
vt 0.407147 0.092853
vt 0.373469 0.065215
vt 0.335047 0.044678
vt 0.293357 0.032031
vt 0.250000 0.027761
vt 0.206643 0.032031
vt 0.164953 0.044678
vt 0.126531 0.065215
vt 0.092853 0.092853
vt 0.065215 0.126531
vt 0.044678 0.164953
vt 0.032031 0.206643
vt 0.027761 0.250000
vt 0.032031 0.293357
vt 0.044678 0.335047
vt 0.065215 0.373469
vt 0.092853 0.407147
vt 0.126531 0.434785
vt 0.164953 0.455322
vt 0.206643 0.467969
vt 0.250000 0.472239
vt 0.750000 0.446036
vt 0.788245 0.442269
vt 0.825020 0.431113
vt 0.858912 0.412998
vt 0.888618 0.388618
vt 0.912998 0.358912
vt 0.931114 0.325021
vt 0.942269 0.288247
vt 0.946036 0.250006
vt 0.942268 0.211750
vt 0.931113 0.174978
vt 0.912998 0.141087
vt 0.888618 0.111381
vt 0.858912 0.087002
vt 0.825020 0.068887
vt 0.788245 0.057731
vt 0.750000 0.053964
vt 0.711755 0.057731
vt 0.674980 0.068887
vt 0.641088 0.087002
vt 0.611382 0.111382
vt 0.587002 0.141088
vt 0.568886 0.174980
vt 0.557731 0.211754
vt 0.553964 0.249995
vt 0.557732 0.288247
vt 0.568887 0.325021
vt 0.587003 0.358915
vt 0.611382 0.388619
vt 0.641088 0.412998
vt 0.674980 0.431114
vt 0.711755 0.442269
vt 0.750000 0.419111
vt 0.282992 0.415861
vt 0.782992 0.415861
vt 0.314716 0.406238
vt 0.814716 0.406238
vt 0.343953 0.390610
vt 0.843953 0.390611
vt 0.369579 0.369579
vt 0.869579 0.369579
vt 0.390611 0.343953
vt 0.890611 0.343953
vt 0.406238 0.314716
vt 0.906238 0.314716
vt 0.415861 0.282992
vt 0.915861 0.282992
vt 0.419111 0.250000
vt 0.919111 0.250000
vt 0.415861 0.217008
vt 0.915861 0.217008
vt 0.406238 0.185284
vt 0.906238 0.185284
vt 0.390611 0.156047
vt 0.890611 0.156047
vt 0.369579 0.130421
vt 0.869579 0.130421
vt 0.343953 0.109390
vt 0.843953 0.109390
vt 0.314716 0.093762
vt 0.814716 0.093762
vt 0.282992 0.084139
vt 0.782992 0.084139
vt 0.250000 0.080889
vt 0.750000 0.080889
vt 0.217008 0.084139
vt 0.717008 0.084139
vt 0.185284 0.093762
vt 0.685284 0.093762
vt 0.156047 0.109390
vt 0.656047 0.109390
vt 0.130421 0.130421
vt 0.630421 0.130421
vt 0.109390 0.156047
vt 0.609389 0.156047
vt 0.093762 0.185284
vt 0.593762 0.185284
vt 0.084139 0.217008
vt 0.584139 0.217008
vt 0.080889 0.250000
vt 0.580889 0.250000
vt 0.084139 0.282992
vt 0.584139 0.282992
vt 0.093762 0.314716
vt 0.593762 0.314716
vt 0.109390 0.343953
vt 0.609390 0.343953
vt 0.130421 0.369579
vt 0.630421 0.369579
vt 0.156047 0.390611
vt 0.656047 0.390610
vt 0.185284 0.406238
vt 0.685284 0.406238
vt 0.217008 0.415861
vt 0.717008 0.415861
vt 0.250000 0.419111
vt 0.281044 0.406070
vt 0.310896 0.397015
vt 0.338407 0.382310
vt 0.362520 0.362520
vt 0.382310 0.338407
vt 0.397015 0.310896
vt 0.406070 0.281044
vt 0.409128 0.250000
vt 0.406070 0.218956
vt 0.397015 0.189104
vt 0.382310 0.161593
vt 0.362520 0.137480
vt 0.338407 0.117690
vt 0.310896 0.102985
vt 0.281044 0.093930
vt 0.250000 0.090872
vt 0.218956 0.093930
vt 0.189104 0.102985
vt 0.161593 0.117690
vt 0.137480 0.137480
vt 0.117690 0.161593
vt 0.102985 0.189104
vt 0.093930 0.218956
vt 0.090872 0.250000
vt 0.093930 0.281044
vt 0.102985 0.310896
vt 0.117690 0.338407
vt 0.137480 0.362520
vt 0.161593 0.382310
vt 0.189104 0.397015
vt 0.218956 0.406070
vt 0.250000 0.409128
vt 0.750000 0.348070
vt 0.769133 0.346185
vt 0.787530 0.340604
vt 0.804484 0.331542
vt 0.819346 0.319346
vt 0.831542 0.304485
vt 0.840605 0.287530
vt 0.846185 0.269132
vt 0.848070 0.250000
vt 0.846185 0.230868
vt 0.840604 0.212470
vt 0.831542 0.195516
vt 0.819346 0.180654
vt 0.804484 0.168458
vt 0.787530 0.159396
vt 0.769132 0.153815
vt 0.750000 0.151930
vt 0.730868 0.153815
vt 0.712471 0.159396
vt 0.695516 0.168458
vt 0.680654 0.180654
vt 0.668458 0.195515
vt 0.659396 0.212470
vt 0.653815 0.230868
vt 0.651931 0.250000
vt 0.653815 0.269132
vt 0.659396 0.287530
vt 0.668458 0.304484
vt 0.680654 0.319346
vt 0.695516 0.331542
vt 0.712470 0.340604
vt 0.730868 0.346185
s 1
usemtl Wood.001
f 35/1/1 3/2/2 36/3/3
f 36/3/4 5/4/5 37/5/4
f 37/5/6 6/6/6 38/7/6
f 38/7/7 7/8/7 39/9/7
f 39/9/8 8/10/8 40/11/8
f 40/11/9 9/12/10 41/13/9
f 41/13/11 10/14/11 42/15/11
f 42/15/12 11/16/12 43/17/12
f 43/17/13 12/18/14 44/19/13
f 44/19/15 13/20/16 45/21/15
f 45/21/17 14/22/17 46/23/17
f 46/23/18 15/24/18 47/25/18
f 47/25/19 16/26/20 48/27/19
f 48/27/21 17/28/21 49/29/21
f 49/29/22 18/30/23 50/31/22
f 50/31/24 19/32/25 51/33/26
f 19/32/27 52/34/28 51/33/28
f 20/35/29 53/36/30 52/34/30
f 21/37/31 54/38/32 53/36/32
f 22/39/33 55/40/34 54/38/34
f 23/41/35 56/42/36 55/40/36
f 24/43/37 57/44/37 56/42/37
f 25/45/38 58/46/39 57/44/39
f 26/47/40 59/48/41 58/46/41
f 27/49/42 60/50/43 59/48/43
f 28/51/44 61/52/44 60/50/44
f 29/53/45 62/54/46 61/52/46
f 30/55/47 63/56/48 62/54/48
f 31/57/49 64/58/50 63/56/50
f 32/59/51 65/60/52 64/58/53
f 33/61/54 66/62/54 65/60/54
f 34/63/55 35/64/55 66/62/55
f 2/65/56 3/66/56 4/67/56
f 2/68/56 5/69/56 3/66/56
f 2/70/56 6/71/56 5/69/56
f 2/72/56 7/73/56 6/71/56
f 2/74/56 8/75/56 7/73/56
f 2/76/56 9/77/56 8/75/56
f 2/78/56 10/79/56 9/77/56
f 2/80/56 11/81/56 10/79/56
f 2/82/56 12/83/56 11/81/56
f 2/84/56 13/85/56 12/83/56
f 2/86/56 14/87/56 13/85/56
f 2/88/56 15/89/56 14/87/56
f 2/90/56 16/91/56 15/89/56
f 2/92/56 17/93/56 16/91/56
f 2/94/56 18/95/56 17/93/56
f 2/96/56 19/97/56 18/95/56
f 2/98/56 20/99/56 19/97/56
f 2/100/56 21/101/56 20/99/56
f 2/102/56 22/103/56 21/101/56
f 2/104/56 23/105/56 22/103/56
f 2/106/56 24/107/56 23/105/56
f 2/108/56 25/109/56 24/107/56
f 2/110/56 26/111/56 25/109/56
f 2/112/56 27/113/56 26/111/56
f 2/114/56 28/115/56 27/113/56
f 2/116/56 29/117/56 28/115/56
f 2/118/56 30/119/56 29/117/56
f 2/120/56 31/121/56 30/119/56
f 2/122/56 32/123/56 31/121/56
f 2/124/56 33/125/56 32/123/56
f 2/126/56 34/127/56 33/125/56
f 2/128/56 4/67/56 34/127/56
f 1/129/57 35/130/57 36/131/57
f 1/132/57 36/131/57 37/133/57
f 1/134/57 37/133/57 38/135/57
f 1/136/57 38/135/57 39/137/57
f 1/138/57 39/137/57 40/139/57
f 1/140/57 40/139/57 41/141/57
f 1/142/57 41/141/57 42/143/57
f 1/144/57 42/143/57 43/145/57
f 1/146/57 43/145/57 44/147/57
f 1/148/57 44/147/57 45/149/57
f 1/150/57 45/149/57 46/151/57
f 1/152/57 46/151/57 47/153/57
f 1/154/57 47/153/57 48/155/57
f 1/156/57 48/155/57 49/157/57
f 1/158/57 49/157/57 50/159/57
f 1/160/57 50/159/57 51/161/57
f 1/162/57 51/161/57 52/163/57
f 1/164/57 52/163/57 53/165/57
f 1/166/57 53/165/57 54/167/57
f 1/168/57 54/167/57 55/169/57
f 1/170/57 55/169/57 56/171/57
f 1/172/57 56/171/57 57/173/57
f 1/174/57 57/173/57 58/175/57
f 1/176/57 58/175/57 59/177/57
f 1/178/57 59/177/57 60/179/57
f 1/180/57 60/179/57 61/181/57
f 1/182/57 61/181/57 62/183/57
f 1/184/57 62/183/57 63/185/57
f 1/186/57 63/185/57 64/187/57
f 1/188/57 64/187/57 65/189/57
f 1/190/57 65/189/57 66/191/57
f 1/192/57 66/191/57 35/130/57
f 35/1/1 4/193/58 3/2/2
f 36/3/4 3/2/5 5/4/5
f 37/5/6 5/4/6 6/6/6
f 38/7/7 6/6/7 7/8/7
f 39/9/8 7/8/8 8/10/8
f 40/11/9 8/10/10 9/12/10
f 41/13/11 9/12/11 10/14/11
f 42/15/12 10/14/12 11/16/12
f 43/17/13 11/16/14 12/18/14
f 44/19/15 12/18/16 13/20/16
f 45/21/17 13/20/17 14/22/17
f 46/23/18 14/22/18 15/24/18
f 47/25/19 15/24/20 16/26/20
f 48/27/21 16/26/21 17/28/21
f 49/29/22 17/28/23 18/30/23
f 50/31/24 18/30/25 19/32/25
f 19/32/27 20/35/27 52/34/28
f 20/35/29 21/37/29 53/36/30
f 21/37/31 22/39/31 54/38/32
f 22/39/33 23/41/33 55/40/34
f 23/41/35 24/43/35 56/42/36
f 24/43/37 25/45/37 57/44/37
f 25/45/38 26/47/38 58/46/39
f 26/47/40 27/49/40 59/48/41
f 27/49/42 28/51/42 60/50/43
f 28/51/44 29/53/44 61/52/44
f 29/53/45 30/55/45 62/54/46
f 30/55/47 31/57/47 63/56/48
f 31/57/49 32/59/49 64/58/50
f 32/59/51 33/61/53 65/60/52
f 33/61/54 34/63/54 66/62/54
f 34/63/55 4/194/55 35/64/55
f 70/193/59 102/3/60 101/1/60
f 69/2/61 103/5/62 102/3/63
f 71/4/64 104/7/65 103/5/65
f 72/6/66 105/9/67 104/7/67
f 73/8/68 106/11/68 105/9/68
f 74/10/69 107/13/69 106/11/69
f 75/12/70 108/15/70 107/13/70
f 76/14/71 109/17/71 108/15/71
f 77/16/72 110/19/72 109/17/72
f 78/18/73 111/21/73 110/19/73
f 79/20/74 112/23/74 111/21/74
f 80/22/75 113/25/76 112/23/76
f 81/24/77 114/27/78 113/25/78
f 82/26/79 115/29/80 114/27/80
f 83/28/81 116/31/82 115/29/82
f 84/30/83 117/33/84 116/31/84
f 85/32/85 118/34/86 117/33/86
f 86/35/87 119/36/88 118/34/88
f 87/37/89 120/38/90 119/36/90
f 88/39/91 121/40/92 120/38/92
f 89/41/93 122/42/93 121/40/93
f 90/43/94 123/44/94 122/42/94
f 91/45/95 124/46/95 123/44/95
f 92/47/96 125/48/96 124/46/96
f 93/49/97 126/50/97 125/48/97
f 94/51/98 127/52/98 126/50/98
f 95/53/99 128/54/99 127/52/99
f 96/55/100 129/56/101 128/54/102
f 97/57/103 130/58/104 129/56/104
f 98/59/105 131/60/105 130/58/105
f 99/61/106 132/62/107 131/60/107
f 100/63/108 101/64/109 132/62/109
f 68/195/110 69/66/110 70/67/110
f 68/196/110 71/69/110 69/66/110
f 68/197/110 72/71/110 71/69/110
f 68/198/110 73/73/110 72/71/110
f 68/199/110 74/75/110 73/73/110
f 68/200/110 75/77/110 74/75/110
f 68/201/110 76/79/110 75/77/110
f 68/202/110 77/81/110 76/79/110
f 68/203/110 78/83/110 77/81/110
f 68/204/110 79/85/110 78/83/110
f 68/205/110 80/87/110 79/85/110
f 68/206/110 81/89/110 80/87/110
f 68/207/110 82/91/110 81/89/110
f 68/208/110 83/93/110 82/91/110
f 68/209/110 84/95/110 83/93/110
f 68/210/110 85/97/110 84/95/110
f 68/211/110 86/99/110 85/97/110
f 68/212/110 87/101/110 86/99/110
f 68/213/110 88/103/110 87/101/110
f 68/214/110 89/105/110 88/103/110
f 68/215/110 90/107/110 89/105/110
f 68/216/110 91/109/110 90/107/110
f 68/217/110 92/111/110 91/109/110
f 68/218/110 93/113/110 92/111/110
f 68/219/110 94/115/110 93/113/110
f 68/220/110 95/117/110 94/115/110
f 68/221/110 96/119/110 95/117/110
f 68/222/110 97/121/110 96/119/110
f 68/223/110 98/123/110 97/121/110
f 68/224/110 99/125/110 98/123/110
f 68/225/110 100/127/110 99/125/110
f 68/226/110 70/67/110 100/127/110
f 67/227/111 101/130/111 102/131/111
f 67/228/111 102/131/111 103/133/111
f 67/229/111 103/133/111 104/135/111
f 67/230/111 104/135/111 105/137/111
f 67/231/111 105/137/111 106/139/111
f 67/232/111 106/139/111 107/141/111
f 67/233/111 107/141/111 108/143/111
f 67/234/111 108/143/111 109/145/111
f 67/235/111 109/145/111 110/147/111
f 67/236/111 110/147/111 111/149/111
f 67/237/111 111/149/111 112/151/111
f 67/238/111 112/151/111 113/153/111
f 67/239/111 113/153/111 114/155/111
f 67/240/111 114/155/111 115/157/111
f 67/241/111 115/157/111 116/159/111
f 67/242/111 116/159/111 117/161/111
f 67/243/111 117/161/111 118/163/111
f 67/244/111 118/163/111 119/165/111
f 67/245/111 119/165/111 120/167/111
f 67/246/111 120/167/111 121/169/111
f 67/247/111 121/169/111 122/171/111
f 67/248/111 122/171/111 123/173/111
f 67/249/111 123/173/111 124/175/111
f 67/250/111 124/175/111 125/177/111
f 67/251/111 125/177/111 126/179/111
f 67/252/111 126/179/111 127/181/111
f 67/253/111 127/181/111 128/183/111
f 67/254/111 128/183/111 129/185/111
f 67/255/111 129/185/111 130/187/111
f 67/256/111 130/187/111 131/189/111
f 67/257/111 131/189/111 132/191/111
f 67/258/111 132/191/111 101/130/111
f 70/193/59 69/2/59 102/3/60
f 69/2/61 71/4/61 103/5/62
f 71/4/64 72/6/64 104/7/65
f 72/6/66 73/8/66 105/9/67
f 73/8/68 74/10/68 106/11/68
f 74/10/69 75/12/69 107/13/69
f 75/12/70 76/14/70 108/15/70
f 76/14/71 77/16/71 109/17/71
f 77/16/72 78/18/72 110/19/72
f 78/18/73 79/20/73 111/21/73
f 79/20/74 80/22/74 112/23/74
f 80/22/75 81/24/75 113/25/76
f 81/24/77 82/26/77 114/27/78
f 82/26/79 83/28/79 115/29/80
f 83/28/81 84/30/81 116/31/82
f 84/30/83 85/32/83 117/33/84
f 85/32/85 86/35/85 118/34/86
f 86/35/87 87/37/87 119/36/88
f 87/37/89 88/39/89 120/38/90
f 88/39/91 89/41/91 121/40/92
f 89/41/93 90/43/93 122/42/93
f 90/43/94 91/45/94 123/44/94
f 91/45/95 92/47/95 124/46/95
f 92/47/96 93/49/96 125/48/96
f 93/49/97 94/51/97 126/50/97
f 94/51/98 95/53/98 127/52/98
f 95/53/99 96/55/99 128/54/99
f 96/55/100 97/57/100 129/56/101
f 97/57/103 98/59/103 130/58/104
f 98/59/105 99/61/105 131/60/105
f 99/61/106 100/63/106 132/62/107
f 100/63/108 70/194/108 101/64/109
f 136/193/112 168/3/113 167/1/113
f 135/2/114 169/5/114 168/3/114
f 137/4/115 170/7/116 169/5/116
f 138/6/117 171/9/118 170/7/118
f 139/8/119 172/11/120 171/9/120
f 140/10/121 173/13/122 172/11/122
f 141/12/123 174/15/123 173/13/123
f 142/14/124 175/17/124 174/15/124
f 143/16/125 176/19/125 175/17/125
f 144/18/126 177/21/127 176/19/127
f 145/20/128 178/23/129 177/21/129
f 146/22/130 179/25/131 178/23/131
f 147/24/132 180/27/132 179/25/132
f 148/26/133 181/29/134 180/27/134
f 149/28/135 182/31/136 181/29/136
f 150/30/137 183/33/138 182/31/138
f 151/32/139 184/34/140 183/33/140
f 152/35/141 185/36/142 184/34/142
f 153/37/143 186/38/144 185/36/144
f 154/39/145 187/40/145 186/38/145
f 155/41/146 188/42/147 187/40/147
f 156/43/148 189/44/149 188/42/149
f 157/45/150 190/46/151 189/44/151
f 158/47/152 191/48/152 190/46/152
f 191/48/153 160/51/153 192/50/153
f 192/50/154 161/53/154 193/52/154
f 193/52/155 162/55/155 194/54/155
f 162/55/156 195/56/157 194/54/157
f 163/57/158 196/58/159 195/56/159
f 164/59/160 197/60/161 196/58/161
f 165/61/162 198/62/162 197/60/162
f 166/63/163 167/64/164 198/62/164
f 134/259/165 135/66/165 136/67/165
f 134/260/165 137/69/165 135/66/165
f 134/261/165 138/71/165 137/69/165
f 134/262/165 139/73/165 138/71/165
f 134/263/165 140/75/165 139/73/165
f 134/264/165 141/77/165 140/75/165
f 134/265/165 142/79/165 141/77/165
f 134/266/165 143/81/165 142/79/165
f 134/267/165 144/83/165 143/81/165
f 134/268/165 145/85/165 144/83/165
f 134/269/165 146/87/165 145/85/165
f 134/270/165 147/89/165 146/87/165
f 134/271/165 148/91/165 147/89/165
f 134/272/165 149/93/165 148/91/165
f 134/273/165 150/95/165 149/93/165
f 134/274/165 151/97/165 150/95/165
f 134/275/165 152/99/165 151/97/165
f 134/276/165 153/101/165 152/99/165
f 134/277/165 154/103/165 153/101/165
f 134/278/165 155/105/165 154/103/165
f 134/279/165 156/107/165 155/105/165
f 134/280/165 157/109/165 156/107/165
f 134/281/165 158/111/165 157/109/165
f 134/282/165 159/113/165 158/111/165
f 134/283/165 160/115/165 159/113/165
f 134/284/165 161/117/165 160/115/165
f 134/285/165 162/119/165 161/117/165
f 134/286/165 163/121/165 162/119/165
f 134/287/165 164/123/165 163/121/165
f 134/288/165 165/125/165 164/123/165
f 134/289/165 166/127/165 165/125/165
f 134/290/165 136/67/165 166/127/165
f 133/291/166 167/130/167 168/131/168
f 133/292/166 168/131/168 169/133/169
f 133/293/170 169/133/171 170/135/172
f 133/294/170 170/135/172 171/137/173
f 133/295/170 171/137/173 172/139/174
f 133/296/175 172/139/176 173/141/177
f 133/297/175 173/141/177 174/143/178
f 133/298/175 174/143/178 175/145/179
f 133/299/180 175/145/180 176/147/180
f 133/300/181 176/147/182 177/149/183
f 133/301/181 177/149/183 178/151/184
f 133/302/181 178/151/184 179/153/185
f 133/303/186 179/153/187 180/155/188
f 133/304/186 180/155/188 181/157/189
f 133/305/186 181/157/189 182/159/190
f 133/306/191 182/159/192 183/161/193
f 133/307/191 183/161/193 184/163/194
f 133/308/191 184/163/194 185/165/195
f 133/309/196 185/165/197 186/167/198
f 133/310/196 186/167/198 187/169/199
f 133/311/196 187/169/199 188/171/200
f 133/312/201 188/171/202 189/173/203
f 133/313/201 189/173/203 190/175/204
f 133/314/201 190/175/204 191/177/205
f 133/315/206 191/177/206 192/179/206
f 133/316/207 192/179/207 193/181/207
f 133/317/208 193/181/208 194/183/208
f 133/318/209 194/183/210 195/185/209
f 133/319/209 195/185/209 196/187/211
f 133/320/166 196/187/212 197/189/213
f 133/321/166 197/189/213 198/191/214
f 133/322/166 198/191/214 167/130/167
f 136/193/112 135/2/112 168/3/113
f 135/2/114 137/4/114 169/5/114
f 137/4/115 138/6/115 170/7/116
f 138/6/117 139/8/117 171/9/118
f 139/8/119 140/10/119 172/11/120
f 140/10/121 141/12/121 173/13/122
f 141/12/123 142/14/123 174/15/123
f 142/14/124 143/16/124 175/17/124
f 143/16/125 144/18/125 176/19/125
f 144/18/126 145/20/126 177/21/127
f 145/20/128 146/22/128 178/23/129
f 146/22/130 147/24/130 179/25/131
f 147/24/132 148/26/132 180/27/132
f 148/26/133 149/28/133 181/29/134
f 149/28/135 150/30/135 182/31/136
f 150/30/137 151/32/137 183/33/138
f 151/32/139 152/35/139 184/34/140
f 152/35/141 153/37/141 185/36/142
f 153/37/143 154/39/143 186/38/144
f 154/39/145 155/41/145 187/40/145
f 155/41/146 156/43/146 188/42/147
f 156/43/148 157/45/148 189/44/149
f 157/45/150 158/47/150 190/46/151
f 158/47/152 159/49/152 191/48/152
f 191/48/153 159/49/153 160/51/153
f 192/50/154 160/51/154 161/53/154
f 193/52/155 161/53/155 162/55/155
f 162/55/156 163/57/156 195/56/157
f 163/57/158 164/59/158 196/58/159
f 164/59/160 165/61/160 197/60/161
f 165/61/162 166/63/162 198/62/162
f 166/63/163 136/194/163 167/64/164
f 201/1/215 203/2/216 202/3/215
f 202/3/217 206/4/218 205/5/217
f 205/5/219 208/6/220 207/7/219
f 207/7/221 210/8/221 209/9/221
f 209/9/222 212/10/222 211/11/222
f 211/11/223 214/12/224 213/13/223
f 213/13/225 216/14/226 215/15/225
f 215/15/227 218/16/227 217/17/227
f 217/17/228 220/18/228 219/19/228
f 219/19/229 222/20/229 221/21/229
f 221/21/230 224/22/230 223/23/230
f 223/23/231 226/24/232 225/25/231
f 225/25/233 228/26/234 227/27/233
f 227/27/235 230/28/236 229/29/235
f 229/29/237 232/30/238 231/31/237
f 231/31/239 234/32/240 233/33/240
f 234/32/241 235/34/242 233/33/242
f 236/35/243 237/36/244 235/34/244
f 238/37/245 239/38/245 237/36/245
f 240/39/246 241/40/247 239/38/247
f 242/41/248 243/42/249 241/40/249
f 244/43/250 245/44/251 243/42/251
f 246/45/252 247/46/252 245/44/252
f 248/47/253 249/48/253 247/46/253
f 250/49/254 251/50/254 249/48/254
f 252/51/255 253/52/255 251/50/255
f 254/53/256 255/54/256 253/52/256
f 256/55/257 257/56/258 255/54/258
f 258/57/259 259/58/260 257/56/260
f 260/59/261 261/60/262 259/58/262
f 262/61/263 263/62/264 261/60/265
f 264/63/266 201/64/267 263/62/268
f 199/323/57 201/130/57 202/131/57
f 200/324/56 203/66/56 204/67/56
f 199/325/57 202/131/57 205/133/57
f 200/326/56 206/69/56 203/66/56
f 199/327/57 205/133/57 207/135/57
f 200/328/56 208/71/56 206/69/56
f 199/329/57 207/135/57 209/137/57
f 200/330/56 210/73/56 208/71/56
f 199/331/57 209/137/57 211/139/57
f 200/332/56 212/75/56 210/73/56
f 199/333/57 211/139/57 213/141/57
f 200/334/56 214/77/56 212/75/56
f 199/335/57 213/141/57 215/143/57
f 200/336/56 216/79/56 214/77/56
f 199/337/57 215/143/57 217/145/57
f 200/338/56 218/81/56 216/79/56
f 199/339/57 217/145/57 219/147/57
f 200/340/56 220/83/56 218/81/56
f 199/341/57 219/147/57 221/149/57
f 200/342/56 222/85/56 220/83/56
f 199/343/57 221/149/57 223/151/57
f 200/344/56 224/87/56 222/85/56
f 199/345/57 223/151/57 225/153/57
f 200/346/56 226/89/56 224/87/56
f 199/347/57 225/153/57 227/155/57
f 200/348/56 228/91/56 226/89/56
f 199/349/57 227/155/57 229/157/57
f 200/350/56 230/93/56 228/91/56
f 199/351/57 229/157/57 231/159/57
f 200/352/56 232/95/56 230/93/56
f 199/353/57 231/159/57 233/161/57
f 200/354/56 234/97/56 232/95/56
f 199/355/57 233/161/57 235/163/57
f 200/356/56 236/99/56 234/97/56
f 199/357/57 235/163/57 237/165/57
f 200/358/56 238/101/56 236/99/56
f 199/359/57 237/165/57 239/167/57
f 200/360/56 240/103/56 238/101/56
f 199/361/57 239/167/57 241/169/57
f 200/362/56 242/105/56 240/103/56
f 199/363/57 241/169/57 243/171/57
f 200/364/56 244/107/56 242/105/56
f 199/365/57 243/171/57 245/173/57
f 200/366/56 246/109/56 244/107/56
f 199/367/57 245/173/57 247/175/57
f 200/368/56 248/111/56 246/109/56
f 199/369/57 247/175/57 249/177/57
f 200/370/56 250/113/56 248/111/56
f 199/371/57 249/177/57 251/179/57
f 200/372/56 252/115/56 250/113/56
f 199/373/57 251/179/57 253/181/57
f 200/374/56 254/117/56 252/115/56
f 199/375/57 253/181/57 255/183/57
f 200/376/56 256/119/56 254/117/56
f 199/377/57 255/183/57 257/185/57
f 200/378/56 258/121/56 256/119/56
f 199/379/57 257/185/57 259/187/57
f 200/380/56 260/123/56 258/121/56
f 199/381/57 259/187/57 261/189/57
f 200/382/56 262/125/56 260/123/56
f 199/383/57 261/189/57 263/191/57
f 200/384/56 264/127/56 262/125/56
f 199/385/57 263/191/57 201/130/57
f 200/386/56 204/67/56 264/127/56
f 201/1/215 204/193/216 203/2/216
f 202/3/217 203/2/218 206/4/218
f 205/5/219 206/4/220 208/6/220
f 207/7/221 208/6/221 210/8/221
f 209/9/222 210/8/222 212/10/222
f 211/11/223 212/10/224 214/12/224
f 213/13/225 214/12/226 216/14/226
f 215/15/227 216/14/227 218/16/227
f 217/17/228 218/16/228 220/18/228
f 219/19/229 220/18/229 222/20/229
f 221/21/230 222/20/230 224/22/230
f 223/23/231 224/22/232 226/24/232
f 225/25/233 226/24/234 228/26/234
f 227/27/235 228/26/236 230/28/236
f 229/29/237 230/28/238 232/30/238
f 231/31/239 232/30/240 234/32/240
f 234/32/241 236/35/241 235/34/242
f 236/35/243 238/37/243 237/36/244
f 238/37/245 240/39/245 239/38/245
f 240/39/246 242/41/246 241/40/247
f 242/41/248 244/43/248 243/42/249
f 244/43/250 246/45/250 245/44/251
f 246/45/252 248/47/252 247/46/252
f 248/47/253 250/49/253 249/48/253
f 250/49/254 252/51/254 251/50/254
f 252/51/255 254/53/255 253/52/255
f 254/53/256 256/55/256 255/54/256
f 256/55/257 258/57/257 257/56/258
f 258/57/259 260/59/259 259/58/260
f 260/59/261 262/61/261 261/60/262
f 262/61/263 264/63/263 263/62/264
f 264/63/266 204/194/266 201/64/267
f 299/1/269 267/2/270 300/3/269
f 300/3/271 269/4/272 301/5/271
f 301/5/219 270/6/220 302/7/219
f 302/7/221 271/8/273 303/9/221
f 303/9/274 272/10/275 304/11/274
f 304/11/276 273/12/224 305/13/276
f 305/13/226 274/14/226 306/15/226
f 306/15/227 275/16/227 307/17/227
f 307/17/228 276/18/228 308/19/228
f 308/19/229 277/20/229 309/21/229
f 309/21/230 278/22/230 310/23/230
f 310/23/277 279/24/278 311/25/277
f 311/25/279 280/26/279 312/27/279
f 312/27/236 281/28/280 313/29/236
f 313/29/237 282/30/281 314/31/282
f 314/31/240 283/32/240 315/33/240
f 283/32/283 316/34/284 315/33/284
f 284/35/285 317/36/244 316/34/244
f 285/37/286 318/38/287 317/36/287
f 286/39/246 319/40/288 318/38/288
f 287/41/289 320/42/289 319/40/289
f 288/43/290 321/44/290 320/42/290
f 289/45/252 322/46/252 321/44/252
f 290/47/291 323/48/291 322/46/291
f 291/49/292 324/50/292 323/48/292
f 292/51/255 325/52/255 324/50/255
f 293/53/256 326/54/293 325/52/293
f 294/55/258 327/56/294 326/54/294
f 295/57/295 328/58/295 327/56/295
f 296/59/296 329/60/261 328/58/261
f 297/61/297 330/62/265 329/60/265
f 298/63/268 299/64/298 330/62/298
f 266/387/56 267/66/56 268/67/56
f 266/388/56 269/69/56 267/66/56
f 266/389/56 270/71/56 269/69/56
f 266/390/56 271/73/56 270/71/56
f 266/391/56 272/75/56 271/73/56
f 266/392/56 273/77/56 272/75/56
f 266/393/56 274/79/56 273/77/56
f 266/394/56 275/81/56 274/79/56
f 266/395/56 276/83/56 275/81/56
f 266/396/56 277/85/56 276/83/56
f 266/397/56 278/87/56 277/85/56
f 266/398/56 279/89/56 278/87/56
f 266/399/56 280/91/56 279/89/56
f 266/400/56 281/93/56 280/91/56
f 266/401/56 282/95/56 281/93/56
f 266/402/56 283/97/56 282/95/56
f 266/403/56 284/99/56 283/97/56
f 266/404/56 285/101/56 284/99/56
f 266/405/56 286/103/56 285/101/56
f 266/406/56 287/105/56 286/103/56
f 266/407/56 288/107/56 287/105/56
f 266/408/56 289/109/56 288/107/56
f 266/409/56 290/111/56 289/109/56
f 266/410/56 291/113/56 290/111/56
f 266/411/56 292/115/56 291/113/56
f 266/412/56 293/117/56 292/115/56
f 266/413/56 294/119/56 293/117/56
f 266/414/56 295/121/56 294/119/56
f 266/415/56 296/123/56 295/121/56
f 266/416/56 297/125/56 296/123/56
f 266/417/56 298/127/56 297/125/56
f 266/418/56 268/67/56 298/127/56
f 265/419/57 299/130/57 300/131/57
f 265/420/57 300/131/57 301/133/57
f 265/421/57 301/133/57 302/135/57
f 265/422/57 302/135/57 303/137/57
f 265/423/57 303/137/57 304/139/57
f 265/424/57 304/139/57 305/141/57
f 265/425/57 305/141/57 306/143/57
f 265/426/57 306/143/57 307/145/57
f 265/427/57 307/145/57 308/147/57
f 265/428/57 308/147/57 309/149/57
f 265/429/57 309/149/57 310/151/299
f 265/430/57 310/151/299 311/153/57
f 265/431/57 311/153/57 312/155/57
f 265/432/57 312/155/57 313/157/57
f 265/433/57 313/157/57 314/159/57
f 265/434/57 314/159/57 315/161/57
f 265/435/57 315/161/57 316/163/57
f 265/436/57 316/163/57 317/165/57
f 265/437/57 317/165/57 318/167/57
f 265/438/57 318/167/57 319/169/57
f 265/439/57 319/169/57 320/171/57
f 265/440/57 320/171/57 321/173/57
f 265/441/57 321/173/57 322/175/57
f 265/442/57 322/175/57 323/177/57
f 265/443/57 323/177/57 324/179/57
f 265/444/57 324/179/57 325/181/57
f 265/445/57 325/181/57 326/183/57
f 265/446/57 326/183/57 327/185/57
f 265/447/57 327/185/57 328/187/57
f 265/448/57 328/187/57 329/189/57
f 265/449/57 329/189/57 330/191/57
f 265/450/57 330/191/57 299/130/57
f 299/1/269 268/193/270 267/2/270
f 300/3/271 267/2/272 269/4/272
f 301/5/219 269/4/220 270/6/220
f 302/7/221 270/6/300 271/8/273
f 303/9/274 271/8/275 272/10/275
f 304/11/276 272/10/224 273/12/224
f 305/13/226 273/12/226 274/14/226
f 306/15/227 274/14/227 275/16/227
f 307/17/228 275/16/228 276/18/228
f 308/19/229 276/18/229 277/20/229
f 309/21/230 277/20/230 278/22/230
f 310/23/277 278/22/232 279/24/278
f 311/25/279 279/24/279 280/26/279
f 312/27/236 280/26/280 281/28/280
f 313/29/237 281/28/281 282/30/281
f 314/31/240 282/30/240 283/32/240
f 283/32/283 284/35/283 316/34/284
f 284/35/285 285/37/285 317/36/244
f 285/37/286 286/39/286 318/38/287
f 286/39/246 287/41/246 319/40/288
f 287/41/289 288/43/289 320/42/289
f 288/43/290 289/45/290 321/44/290
f 289/45/252 290/47/252 322/46/252
f 290/47/291 291/49/291 323/48/291
f 291/49/292 292/51/292 324/50/292
f 292/51/255 293/53/255 325/52/255
f 293/53/256 294/55/256 326/54/293
f 294/55/258 295/57/258 327/56/294
f 295/57/295 296/59/295 328/58/295
f 296/59/296 297/61/296 329/60/261
f 297/61/297 298/63/263 330/62/265
f 298/63/268 268/194/268 299/64/298
