# Blender 4.1.0
# www.blender.org
mtllib Road2.mtl
o Road
v -0.628586 -0.000000 -0.162603
v 0.153654 0.000000 0.091454
v -0.111910 0.000342 0.091454
v -0.573615 -0.000000 0.091454
v -0.088921 0.015404 -0.162602
v 0.204296 0.005716 -0.162602
v 0.167914 0.000091 -0.075624
v -0.099861 0.007678 -0.075624
v -0.615192 -0.000000 -0.075624
v -0.597199 -0.000000 0.012254
v -0.108267 0.003234 0.012254
v 0.153654 0.000000 0.012254
v -0.636844 -0.000000 -0.237925
v -0.070603 0.022735 -0.237925
v 0.249478 0.015156 -0.237925
v -0.636844 -0.000000 -0.336710
v -0.040328 0.027325 -0.336710
v 0.336263 0.036369 -0.336710
v -0.636844 -0.000000 -0.453975
v 0.015052 0.023880 -0.453975
v 0.450958 0.061117 -0.453975
v -0.636844 -0.000000 -0.551398
v 0.057221 0.032851 -0.551398
v 0.536041 0.085945 -0.551398
v -0.636844 -0.000000 -0.639768
v 0.106342 0.055071 -0.639768
v 0.612084 0.106205 -0.639768
v -0.636844 -0.000000 -0.756966
v 0.161153 0.089526 -0.756966
v 0.715885 0.126587 -0.756966
v 0.170383 0.000000 0.215462
v -0.098170 0.000000 0.215462
v -0.524202 0.000313 0.215462
v -0.108053 0.000000 0.153458
v -0.548909 0.000007 0.153458
v 0.156669 0.000000 0.153458
v 0.221043 0.000000 0.327417
v -0.053575 0.000000 0.327417
v -0.449833 -0.005123 0.327417
v -0.081780 0.000000 0.271439
v -0.490793 -0.001999 0.271439
v 0.189825 0.000000 0.271440
v 0.315940 0.000000 0.428012
v 0.019684 0.000000 0.428012
v -0.307856 -0.012581 0.428012
v -0.016946 0.000000 0.377714
v -0.379116 -0.010244 0.377714
v 0.263216 0.000000 0.377714
v 0.363808 0.000000 0.481014
v 0.072115 0.000000 0.481014
v -0.235128 -0.012581 0.481014
v 0.451069 0.000000 0.563320
v 0.166368 0.000000 0.563319
v -0.135609 -0.005257 0.563319
v 0.497495 0.000000 0.606196
v 0.224122 0.000000 0.606196
v -0.066887 -0.002412 0.606196
v 0.564557 0.000000 0.656344
v 0.288186 0.000000 0.656344
v 0.043324 0.001943 0.656344
v 0.636833 0.000000 0.696765
v 0.360462 0.000000 0.696765
v 0.115600 0.005306 0.696765
v 0.119242 0.000000 0.522167
v -0.185368 -0.008919 0.522167
v 0.407439 0.000000 0.522167
v -0.495613 -0.000000 0.091454
v -0.532442 0.001435 -0.162603
v -0.524094 0.000046 -0.075624
v -0.512372 -0.000000 0.012254
v -0.536504 0.003104 -0.237925
v -0.536064 0.004536 -0.336710
v -0.534366 0.006025 -0.453975
v -0.527737 0.008146 -0.551398
v -0.520015 0.011330 -0.639768
v -0.511399 0.014534 -0.756966
v -0.454855 -0.000000 0.215462
v -0.477558 -0.000000 0.153458
v -0.379469 -0.004318 0.327417
v -0.422515 -0.002159 0.271439
v -0.244326 -0.010604 0.428012
v -0.322183 -0.008634 0.377714
v -0.164441 -0.010604 0.481014
v -0.052400 -0.004431 0.563319
v 0.006968 -0.002033 0.606196
v 0.091386 0.001638 0.656344
v 0.163662 0.004472 0.696765
v -0.106330 -0.007517 0.522167
v 0.106762 0.000000 0.091454
v 0.167687 0.005709 -0.162602
v 0.130596 0.000809 -0.075624
v 0.113889 0.000131 0.012254
v 0.212102 0.014527 -0.237925
v 0.295617 0.034029 -0.336710
v 0.405214 0.056917 -0.453975
v 0.491184 0.079918 -0.551398
v 0.562717 0.100179 -0.639768
v 0.658814 0.120560 -0.756966
v 0.122963 0.000000 0.215462
v 0.109926 0.000000 0.153458
v 0.172552 0.000000 0.327417
v 0.141866 0.000000 0.271439
v 0.263629 0.000000 0.428012
v 0.211741 0.000000 0.377714
v 0.326878 0.000000 0.481014
v 0.421652 0.000000 0.563320
v 0.469371 0.000000 0.606196
v 0.535274 0.000000 0.656344
v 0.601884 0.000000 0.696765
v 0.375756 0.000000 0.522167
v -0.385182 -0.000000 0.153458
v -0.292806 -0.000000 0.153458
v -0.200429 0.000000 0.153458
v -0.337331 -0.001619 0.271439
v -0.252147 -0.001079 0.271439
v -0.166963 -0.000540 0.271439
v -0.245874 -0.006475 0.377714
v -0.169564 -0.004317 0.377714
v -0.093255 -0.002158 0.377714
v -0.049937 -0.005638 0.522167
v 0.006456 -0.003759 0.522167
v 0.062849 -0.001879 0.522167
v -0.207836 0.000017 0.091454
v -0.303762 -0.000000 0.091454
v -0.399687 -0.000000 0.091454
v -0.199801 0.015243 -0.162602
v -0.310681 0.010513 -0.162602
v -0.421562 0.005814 -0.162602
v -0.205919 0.006594 -0.075624
v -0.311977 0.003508 -0.075624
v -0.418035 0.001576 -0.075624
v -0.209294 0.001736 0.012254
v -0.310320 0.000330 0.012254
v -0.411346 0.000056 0.012254
v -0.187078 0.022444 -0.237925
v -0.303554 0.017026 -0.237925
v -0.420029 0.010168 -0.237925
v -0.164262 0.026176 -0.336710
v -0.288196 0.023041 -0.336710
v -0.412130 0.013952 -0.336710
v -0.122303 0.016125 -0.453975
v -0.259657 0.022430 -0.453975
v -0.397011 0.017665 -0.453975
v -0.089019 0.015565 -0.551398
v -0.235258 0.022752 -0.551398
v -0.381497 0.022087 -0.551398
v -0.050248 0.026722 -0.639768
v -0.206837 0.029190 -0.639768
v -0.363426 0.027679 -0.639768
v -0.006985 0.055364 -0.756966
v -0.175123 0.042905 -0.756966
v -0.343261 0.034014 -0.756966
v -0.187341 0.000000 0.215462
v -0.276513 0.000000 0.215462
v -0.365684 -0.000000 0.215462
v -0.135049 -0.001079 0.327417
v -0.216522 -0.002159 0.327417
v -0.297995 -0.003238 0.327417
v -0.046319 -0.002651 0.428012
v -0.112321 -0.005302 0.428012
v -0.178324 -0.007953 0.428012
v 0.012976 -0.002651 0.481014
v -0.046163 -0.005302 0.481014
v -0.105302 -0.007953 0.481014
v 0.111676 -0.001108 0.563319
v 0.056984 -0.002215 0.563319
v 0.002292 -0.003323 0.563319
v 0.169834 -0.000508 0.606196
v 0.115545 -0.001016 0.606196
v 0.061256 -0.001525 0.606196
v 0.238986 0.000410 0.656344
v 0.189786 0.000819 0.656344
v 0.140586 0.001228 0.656344
v 0.311262 0.001118 0.696765
v 0.262062 0.002236 0.696765
v 0.212862 0.003354 0.696765
v 0.033871 0.000114 0.091454
v -0.041314 0.000228 0.091454
v 0.082151 0.007981 -0.162602
v -0.005680 0.011522 -0.162602
v 0.053777 0.002985 -0.075624
v -0.025337 0.005374 -0.075624
v 0.039837 0.001165 0.012254
v -0.036510 0.002200 0.012254
v 0.117867 0.015680 -0.237925
v 0.021337 0.018376 -0.237925
v 0.183636 0.030915 -0.336710
v 0.069359 0.027162 -0.336710
v 0.275160 0.044734 -0.453975
v 0.142811 0.031975 -0.453975
v 0.346529 0.063953 -0.551398
v 0.199580 0.045299 -0.551398
v 0.410592 0.086499 -0.639768
v 0.256172 0.068776 -0.639768
v 0.492927 0.110587 -0.756966
v 0.324745 0.100260 -0.756966
v 0.049252 0.000000 0.215462
v -0.026754 0.000000 0.215462
v 0.097176 0.000000 0.327417
v 0.019506 0.000000 0.327417
v 0.182314 0.000000 0.428012
v 0.098704 0.000000 0.428012
v 0.241957 0.000000 0.481014
v 0.154741 0.000000 0.481014
v 0.336557 0.000000 0.563320
v 0.249168 0.000000 0.563319
v 0.387621 0.000000 0.606196
v 0.303577 0.000000 0.606196
v 0.452911 0.000000 0.656344
v 0.368254 0.000000 0.656344
v 0.521410 0.000000 0.696765
v 0.438641 0.000000 0.696765
v -0.037688 0.000000 0.153458
v 0.037266 0.000000 0.153458
v -0.009526 0.000000 0.271439
v 0.067318 0.000000 0.271439
v 0.056988 0.000000 0.377714
v 0.135512 0.000000 0.377714
v 0.202451 0.000000 0.522167
v 0.290251 0.000000 0.522167
v 0.776245 0.006859 0.767153
v 0.499873 0.006859 0.767153
v 0.255012 0.012165 0.767153
v 0.303073 0.011331 0.767153
v 0.741295 0.006859 0.767153
v 0.450673 0.007977 0.767153
v 0.401473 0.009095 0.767153
v 0.352273 0.010213 0.767153
v 0.660821 0.006859 0.767153
v 0.578052 0.006859 0.767153
v -0.628586 0.024905 -0.162603
v 0.153654 0.024905 0.091454
v -0.111910 0.025247 0.091454
v -0.573615 0.024905 0.091454
v -0.088921 0.040310 -0.162602
v 0.204296 0.030621 -0.162602
v 0.167914 0.024996 -0.075624
v -0.099861 0.032583 -0.075624
v -0.615192 0.024905 -0.075624
v -0.597199 0.024905 0.012254
v -0.108267 0.028139 0.012254
v 0.153654 0.024905 0.012254
v -0.636844 0.024905 -0.237925
v -0.070603 0.047641 -0.237925
v 0.249478 0.040062 -0.237925
v -0.636844 0.024905 -0.336710
v -0.040328 0.052230 -0.336710
v 0.336263 0.061275 -0.336710
v -0.636844 0.024905 -0.453975
v 0.015052 0.048786 -0.453975
v 0.450958 0.086022 -0.453975
v -0.636844 0.024905 -0.551398
v 0.057221 0.057756 -0.551398
v 0.536041 0.110850 -0.551398
v -0.636844 0.024905 -0.639768
v 0.106342 0.079976 -0.639768
v 0.612084 0.131111 -0.639768
v -0.636844 0.024905 -0.756966
v 0.161153 0.114431 -0.756966
v 0.715885 0.151492 -0.756966
v 0.170383 0.024905 0.215462
v -0.098170 0.024905 0.215462
v -0.524202 0.025218 0.215462
v -0.108053 0.024905 0.153458
v -0.548909 0.024913 0.153458
v 0.156669 0.024905 0.153458
v 0.221043 0.024905 0.327417
v -0.053575 0.024905 0.327417
v -0.449833 0.019782 0.327417
v -0.081780 0.024905 0.271439
v -0.490793 0.022906 0.271439
v 0.189825 0.024905 0.271440
v 0.315940 0.024905 0.428012
v 0.019684 0.024905 0.428012
v -0.307856 0.012324 0.428012
v -0.016946 0.024905 0.377714
v -0.379116 0.014661 0.377714
v 0.263216 0.024905 0.377714
v 0.363808 0.024906 0.481014
v 0.072115 0.024905 0.481014
v -0.235128 0.012324 0.481014
v 0.451069 0.024906 0.563320
v 0.166368 0.024906 0.563319
v -0.135609 0.019648 0.563319
v 0.497495 0.024906 0.606196
v 0.224122 0.024906 0.606196
v -0.066887 0.022493 0.606196
v 0.564557 0.024906 0.656344
v 0.288186 0.024906 0.656344
v 0.043324 0.026849 0.656344
v 0.636833 0.024906 0.696765
v 0.360462 0.024906 0.696765
v 0.115600 0.030211 0.696765
v 0.119242 0.024905 0.522167
v -0.185368 0.015986 0.522167
v 0.407439 0.024906 0.522167
v -0.495613 0.024905 0.091454
v -0.532442 0.026340 -0.162603
v -0.524094 0.024951 -0.075624
v -0.512372 0.024905 0.012254
v -0.536504 0.028009 -0.237925
v -0.536064 0.029441 -0.336710
v -0.534366 0.030931 -0.453975
v -0.527737 0.033052 -0.551398
v -0.520015 0.036235 -0.639768
v -0.511399 0.039439 -0.756966
v -0.454855 0.024905 0.215462
v -0.477558 0.024905 0.153458
v -0.379469 0.020588 0.327417
v -0.422515 0.022747 0.271439
v -0.244326 0.014302 0.428012
v -0.322183 0.016272 0.377714
v -0.164441 0.014302 0.481014
v -0.052400 0.020475 0.563319
v 0.006968 0.022873 0.606196
v 0.091386 0.026543 0.656344
v 0.163662 0.029377 0.696765
v -0.106330 0.017388 0.522167
v 0.106762 0.024905 0.091454
v 0.167687 0.030614 -0.162602
v 0.130596 0.025714 -0.075624
v 0.113889 0.025037 0.012254
v 0.212102 0.039432 -0.237925
v 0.295617 0.058934 -0.336710
v 0.405214 0.081822 -0.453975
v 0.491184 0.104824 -0.551398
v 0.562717 0.125084 -0.639768
v 0.658814 0.145466 -0.756966
v 0.122963 0.024905 0.215462
v 0.109926 0.024905 0.153458
v 0.172552 0.024905 0.327417
v 0.141866 0.024905 0.271439
v 0.263629 0.024905 0.428012
v 0.211741 0.024905 0.377714
v 0.326878 0.024906 0.481014
v 0.421652 0.024906 0.563320
v 0.469371 0.024906 0.606196
v 0.535274 0.024906 0.656344
v 0.601884 0.024906 0.696765
v 0.375756 0.024906 0.522167
v -0.385182 0.024905 0.153458
v -0.292806 0.024905 0.153458
v -0.200429 0.024905 0.153458
v -0.337331 0.023286 0.271439
v -0.252147 0.023826 0.271439
v -0.166963 0.024366 0.271439
v -0.245874 0.018430 0.377714
v -0.169564 0.020588 0.377714
v -0.093255 0.022747 0.377714
v -0.049937 0.019268 0.522167
v 0.006456 0.021147 0.522167
v 0.062849 0.023026 0.522167
v -0.207836 0.024923 0.091454
v -0.303762 0.024905 0.091454
v -0.399687 0.024905 0.091454
v -0.199801 0.040148 -0.162602
v -0.310681 0.035419 -0.162602
v -0.421562 0.030720 -0.162602
v -0.205919 0.031500 -0.075624
v -0.311977 0.028414 -0.075624
v -0.418035 0.026481 -0.075624
v -0.209294 0.026642 0.012254
v -0.310320 0.025235 0.012254
v -0.411346 0.024961 0.012254
v -0.187078 0.047349 -0.237925
v -0.303554 0.041932 -0.237925
v -0.420029 0.035074 -0.237925
v -0.164262 0.051082 -0.336710
v -0.288196 0.047946 -0.336710
v -0.412130 0.038857 -0.336710
v -0.122303 0.041030 -0.453975
v -0.259657 0.047335 -0.453975
v -0.397011 0.042571 -0.453975
v -0.089019 0.040471 -0.551398
v -0.235258 0.047658 -0.551398
v -0.381497 0.046993 -0.551398
v -0.050248 0.051627 -0.639768
v -0.206837 0.054095 -0.639768
v -0.363426 0.052585 -0.639768
v -0.006985 0.080270 -0.756966
v -0.175123 0.067810 -0.756966
v -0.343261 0.058920 -0.756966
v -0.187341 0.024905 0.215462
v -0.276513 0.024905 0.215462
v -0.365684 0.024905 0.215462
v -0.135049 0.023826 0.327417
v -0.216522 0.022747 0.327417
v -0.297995 0.021667 0.327417
v -0.046319 0.022255 0.428012
v -0.112321 0.019604 0.428012
v -0.178324 0.016953 0.428012
v 0.012976 0.022255 0.481014
v -0.046163 0.019604 0.481014
v -0.105302 0.016953 0.481014
v 0.111676 0.023798 0.563319
v 0.056984 0.022690 0.563319
v 0.002292 0.021582 0.563319
v 0.169834 0.024397 0.606196
v 0.115545 0.023889 0.606196
v 0.061256 0.023381 0.606196
v 0.238986 0.025315 0.656344
v 0.189786 0.025724 0.656344
v 0.140586 0.026134 0.656344
v 0.311262 0.026023 0.696765
v 0.262062 0.027141 0.696765
v 0.212862 0.028259 0.696765
v 0.033871 0.025019 0.091454
v -0.041314 0.025133 0.091454
v 0.082151 0.032886 -0.162602
v -0.005680 0.036427 -0.162602
v 0.053777 0.027890 -0.075624
v -0.025337 0.030280 -0.075624
v 0.039837 0.026071 0.012254
v -0.036510 0.027105 0.012254
v 0.117867 0.040586 -0.237925
v 0.021337 0.043281 -0.237925
v 0.183636 0.055820 -0.336710
v 0.069359 0.052067 -0.336710
v 0.275160 0.069640 -0.453975
v 0.142811 0.056880 -0.453975
v 0.346529 0.088858 -0.551398
v 0.199580 0.070204 -0.551398
v 0.410592 0.111405 -0.639768
v 0.256172 0.093682 -0.639768
v 0.492927 0.135493 -0.756966
v 0.324745 0.125166 -0.756966
v 0.049252 0.024905 0.215462
v -0.026754 0.024905 0.215462
v 0.097176 0.024905 0.327417
v 0.019506 0.024905 0.327417
v 0.182314 0.024905 0.428012
v 0.098704 0.024905 0.428012
v 0.241957 0.024905 0.481014
v 0.154741 0.024905 0.481014
v 0.336557 0.024906 0.563320
v 0.249168 0.024906 0.563319
v 0.387621 0.024906 0.606196
v 0.303577 0.024906 0.606196
v 0.452911 0.024906 0.656344
v 0.368254 0.024906 0.656344
v 0.521410 0.024906 0.696765
v 0.438641 0.024906 0.696765
v -0.037688 0.024905 0.153458
v 0.037266 0.024905 0.153458
v -0.009526 0.024905 0.271439
v 0.067318 0.024905 0.271439
v 0.056988 0.024905 0.377714
v 0.135512 0.024905 0.377714
v 0.202451 0.024905 0.522167
v 0.290251 0.024906 0.522167
v 0.776245 0.031765 0.767153
v 0.499873 0.031765 0.767153
v 0.255012 0.037070 0.767153
v 0.303073 0.036236 0.767153
v 0.741295 0.031765 0.767153
v 0.450673 0.032883 0.767153
v 0.401473 0.034000 0.767153
v 0.352273 0.035118 0.767153
v 0.660821 0.031765 0.767153
v 0.578052 0.031765 0.767153
vn 0.0002 -0.9984 -0.0562
vn -0.0033 -1.0000 -0.0080
vn -0.0005 -1.0000 -0.0008
vn -0.0033 -1.0000 -0.0083
vn 0.0145 -0.9984 -0.0543
vn 0.0148 -0.9984 -0.0546
vn 0.0104 -0.9987 -0.0497
vn -0.0020 -1.0000 0.0001
vn -0.0020 -1.0000 -0.0078
vn 0.0034 -0.9998 -0.0218
vn 0.0127 -0.9997 -0.0219
vn 0.0047 -0.9998 -0.0218
vn 0.0095 -0.9952 -0.0975
vn 0.0102 -0.9951 -0.0982
vn 0.0067 -0.9960 -0.0891
vn 0.0002 -0.9932 -0.1162
vn 0.0017 -0.9954 -0.0960
vn 0.0023 -0.9954 -0.0960
vn 0.0166 -0.9835 -0.1802
vn 0.0168 -0.9835 -0.1799
vn 0.0187 -0.9838 -0.1784
vn -0.0016 -0.9991 -0.0435
vn 0.0025 -0.9993 -0.0372
vn 0.0089 -0.9990 -0.0433
vn 0.0569 -0.9886 -0.1397
vn 0.0561 -0.9929 0.1052
vn 0.0904 -0.9841 -0.1526
vn 0.0564 -0.9981 0.0250
vn 0.1230 -0.9849 -0.1215
vn 0.1322 -0.9841 -0.1186
vn 0.1294 -0.9844 -0.1195
vn 0.1171 -0.9904 -0.0737
vn 0.1209 -0.9900 -0.0731
vn 0.1755 -0.9693 -0.1721
vn -0.0015 -1.0000 0.0033
vn 0.0004 -1.0000 -0.0001
vn -0.0044 -1.0000 0.0018
vn -0.0002 -1.0000 -0.0016
vn -0.0000 -1.0000 -0.0000
vn 0.0002 -1.0000 -0.0055
vn -0.0010 -0.9999 -0.0100
vn -0.0002 -1.0000 -0.0025
vn 0.0001 -1.0000 -0.0001
vn -0.0001 -1.0000 -0.0004
vn 0.0065 -0.9990 -0.0436
vn 0.0146 -0.9990 -0.0426
vn 0.0114 -0.9988 -0.0473
vn -0.0008 -1.0000 0.0002
vn -0.0023 -0.9993 -0.0381
vn 0.0041 -0.9994 -0.0332
vn -0.0035 -0.9993 -0.0379
vn 0.0308 -0.9955 -0.0896
vn 0.0282 -0.9962 -0.0826
vn 0.0284 -0.9959 -0.0858
vn 0.0114 -0.9951 -0.0984
vn 0.0284 -0.9987 -0.0422
vn 0.0279 -0.9987 -0.0421
vn 0.0306 -0.9986 -0.0426
vn 0.0099 -0.9980 0.0619
vn 0.0093 -0.9982 0.0584
vn 0.0099 -0.9986 0.0517
vn 0.0051 -0.9988 0.0488
vn 0.0076 -0.9987 0.0496
vn -0.0050 -1.0000 0.0064
vn -0.0063 -0.9965 0.0836
vn -0.0166 -0.9958 0.0905
vn -0.0063 -0.9958 0.0918
vn -0.0052 -1.0000 0.0066
vn -0.0173 -0.9948 0.1006
vn -0.0087 -0.9954 0.0955
vn 0.0273 -0.9981 0.0547
vn 0.0177 -0.9986 0.0499
vn 0.0182 -0.9986 0.0501
vn 0.0345 -0.9993 0.0114
vn 0.0333 -0.9994 0.0114
vn 0.0436 -0.9990 0.0117
vn -0.0226 -0.9954 0.0928
vn -0.0083 -0.9977 0.0679
vn 0.0127 -0.9994 0.0312
vn 0.0094 -0.9995 0.0291
vn 0.0187 -0.9994 0.0280
vn 0.0215 -0.9993 0.0306
vn 0.0282 -0.9993 0.0251
vn 0.0430 -0.9974 -0.0578
vn 0.0419 -0.9973 -0.0601
vn 0.0408 -0.9973 -0.0606
vn 0.0132 -0.9969 -0.0778
vn 0.0386 -0.9958 -0.0829
vn 0.0400 -0.9958 -0.0830
vn -0.0004 -0.9993 -0.0367
vn 0.0067 -0.9997 -0.0241
vn 0.0039 -0.9992 -0.0390
vn 0.0156 -0.9994 -0.0318
vn 0.0007 -1.0000 -0.0026
vn 0.0965 -0.9953 -0.0000
vn 0.0745 -0.9972 -0.0000
vn 0.0587 -0.9983 -0.0017
vn 0.0587 -0.9982 -0.0104
vn 0.0587 -0.9983 -0.0000
vn 0.0450 -0.9990 -0.0000
vn 0.0309 -0.9995 -0.0000
vn 0.0149 -0.9999 -0.0020
vn 0.0149 -0.9999 -0.0019
vn 0.0149 -0.9999 -0.0016
vn 0.0149 -0.9999 -0.0023
vn 0.0001 -1.0000 -0.0002
vn 0.0002 -1.0000 -0.0002
vn 0.0005 -1.0000 -0.0001
vn 0.0003 -1.0000 -0.0003
vn 0.0885 -0.9842 -0.1534
vn 0.0885 -0.9842 -0.1536
vn 0.0887 -0.9861 -0.1404
vn 0.1081 -0.9792 -0.1715
vn 0.1085 -0.9792 -0.1712
vn 0.1121 -0.9793 -0.1686
vn 0.0925 -0.9876 -0.1270
vn 0.0277 -0.9950 -0.0957
vn -0.0121 -0.9870 -0.1603
vn -0.0122 -0.9941 -0.1074
vn -0.0008 -1.0000 -0.0023
vn -0.0015 -0.9999 -0.0134
vn -0.0283 -0.9993 -0.0252
vn -0.0271 -0.9974 -0.0670
vn -0.0294 -0.9973 -0.0669
vn -0.0282 -0.9973 -0.0681
vn 0.0005 -1.0000 -0.0031
vn 0.0022 -1.0000 -0.0023
vn -0.0006 -1.0000 -0.0021
vn -0.0000 -1.0000 -0.0001
vn 0.0070 -0.9999 -0.0126
vn 0.0132 -0.9999 -0.0067
vn 0.0143 -0.9999 -0.0090
vn 0.0059 -1.0000 -0.0056
vn 0.0150 -0.9997 -0.0202
vn 0.0064 -0.9999 -0.0156
vn 0.0007 -0.9998 -0.0176
vn 0.0002 -0.9996 -0.0272
vn 0.0286 -0.9989 -0.0360
vn 0.0401 -0.9988 -0.0292
vn 0.0395 -0.9988 -0.0296
vn 0.0295 -0.9987 -0.0427
vn 0.0422 -0.9981 -0.0457
vn 0.0413 -0.9979 -0.0501
vn 0.0400 -0.9971 -0.0651
vn 0.0430 -0.9971 -0.0624
vn 0.0283 -0.9994 -0.0206
vn 0.0282 -0.9986 -0.0449
vn 0.0282 -0.9983 -0.0512
vn 0.0132 -0.9984 -0.0552
vn 0.0443 -0.9980 -0.0443
vn 0.0410 -0.9981 -0.0451
vn 0.0438 -0.9983 -0.0383
vn 0.0406 -0.9979 -0.0500
vn 0.0447 -0.9974 -0.0558
vn 0.0211 -0.9995 -0.0230
vn 0.0202 -0.9995 -0.0232
vn 0.0325 -0.9993 -0.0209
vn 0.0213 -0.9998 -0.0051
vn 0.0202 -0.9998 -0.0053
vn 0.0323 -0.9995 -0.0036
vn 0.0214 -0.9997 0.0127
vn 0.0122 -0.9998 0.0134
vn 0.0277 -0.9994 0.0186
vn 0.0094 -0.9999 -0.0126
vn 0.0108 -0.9999 0.0012
vn 0.0094 -1.0000 0.0013
vn 0.0188 -0.9998 0.0004
vn 0.0094 -0.9998 0.0152
vn 0.0188 -0.9997 0.0142
vn -0.0083 -0.9999 0.0106
vn -0.0083 -0.9995 0.0298
vn -0.0083 -0.9988 0.0489
vn -0.0227 -0.9989 0.0406
vn -0.0227 -0.9981 0.0580
vn -0.0226 -0.9969 0.0754
vn 0.0333 -0.9987 -0.0381
vn 0.0442 -0.9984 -0.0356
vn 0.0341 -0.9992 -0.0215
vn 0.0333 -0.9992 -0.0216
vn 0.0440 -0.9988 -0.0199
vn 0.0343 -0.9994 -0.0050
vn 0.0333 -0.9994 -0.0051
vn 0.0438 -0.9990 -0.0041
vn 0.1038 -0.9944 -0.0196
vn 0.1138 -0.9933 -0.0188
vn 0.1049 -0.9943 -0.0195
vn 0.0096 -0.9986 -0.0523
vn -0.0156 -0.9926 -0.1204
vn 0.0949 -0.9951 -0.0280
vn 0.0955 -0.9950 -0.0294
vn 0.0949 -0.9951 -0.0276
vn 0.0053 -0.9980 -0.0633
vn 0.0045 -0.9981 -0.0622
vn 0.0089 -0.9976 -0.0686
vn -0.0157 -0.9969 -0.0777
vn 0.0773 -0.9969 -0.0155
vn 0.0747 -0.9971 -0.0170
vn 0.0835 -0.9964 -0.0160
vn 0.0346 -0.9986 -0.0398
vn -0.0462 -0.9988 -0.0144
vn -0.0459 -0.9988 -0.0148
vn -0.0488 -0.9987 -0.0114
vn 0.0808 -0.9966 -0.0134
vn 0.0758 -0.9971 -0.0116
vn 0.0731 -0.9971 -0.0221
vn 0.0253 -0.9996 0.0114
vn 0.0340 -0.9993 0.0135
vn 0.0261 -0.9996 0.0116
vn 0.0605 -0.9981 -0.0142
vn 0.0587 -0.9977 -0.0335
vn 0.0464 -0.9975 -0.0535
vn 0.0395 -0.9989 -0.0243
vn 0.0320 -0.9992 -0.0239
vn 0.0384 -0.9990 -0.0242
vn 0.0423 -0.9975 -0.0568
vn 0.0437 -0.9955 -0.0840
vn 0.0424 -0.9947 -0.0939
vn 0.0459 -0.9952 -0.0868
vn 0.0144 -0.9997 -0.0173
vn 0.0009 -0.9999 -0.0160
vn 0.0143 -0.9997 -0.0173
vn 0.0159 -0.9988 -0.0458
vn 0.0182 -0.9991 -0.0386
vn 0.0182 -0.9986 -0.0494
vn 0.0290 -0.9964 -0.0798
vn 0.0407 -0.9960 -0.0796
vn 0.0305 -0.9963 -0.0798
vn 0.0002 -1.0000 -0.0003
vn 0.0021 -1.0000 -0.0018
vn 0.0144 -0.9999 -0.0024
vn 0.0027 -0.9998 -0.0175
vn 0.0017 -0.9998 -0.0174
vn 0.0016 -0.9998 -0.0174
vn 0.0139 -0.9992 -0.0364
vn 0.0177 -0.9992 -0.0365
vn -0.0464 -0.9945 -0.0942
vn -0.0467 -0.9932 -0.1071
vn -0.0464 -0.9943 -0.0964
vn -0.0385 -0.9961 -0.0791
vn -0.0326 -0.9964 -0.0778
vn -0.0402 -0.9960 -0.0795
vn -0.0308 -0.9981 -0.0534
vn -0.0302 -0.9987 -0.0399
vn -0.0144 -0.9992 -0.0371
vn -0.0144 -0.9992 -0.0379
vn -0.0144 -0.9992 -0.0372
vn -0.0117 -0.9996 -0.0256
vn -0.0051 -0.9997 -0.0234
vn -0.0135 -0.9996 -0.0253
vn -0.0471 -0.9927 -0.1106
vn -0.0467 -0.9931 -0.1077
vn -0.0278 -0.9946 -0.1005
vn -0.0278 -0.9944 -0.1017
vn -0.0278 -0.9945 -0.1007
vn 0.0084 -0.9990 -0.0439
vn -0.0015 -0.9989 -0.0469
vn -0.0278 -0.9944 -0.1019
vn -0.0015 -0.9996 0.0287
vn -0.0002 -0.9996 0.0293
vn 0.0082 -0.9994 0.0332
vn 0.0328 -0.9993 -0.0205
vn 0.0631 -0.9959 -0.0644
vn 0.0957 -0.9922 -0.0800
vn 0.0952 -0.9922 -0.0802
vn 0.0871 -0.9926 -0.0850
vn 0.0858 -0.9763 -0.1985
vn 0.0854 -0.9765 -0.1981
vn 0.0888 -0.9754 -0.2015
vn 0.1239 -0.9758 -0.1799
vn 0.0884 -0.9661 -0.2427
vn 0.1118 -0.9742 -0.1963
vn -0.0002 -1.0000 -0.0007
vn -0.0000 -0.9953 0.0970
vn -0.0172 -0.9913 0.1307
vn -0.0217 -0.9900 0.1394
vn -0.0180 -0.9911 0.1323
vn -0.0225 -0.9898 0.1410
vn -0.0192 -0.9972 -0.0725
vn -0.0192 -0.9998 -0.0042
vn 0.0102 -0.9987 -0.0495
vn 0.0148 -0.9992 -0.0358
vn 0.0167 -0.9933 -0.1145
vn 0.0025 -0.9954 -0.0963
vn 0.0567 -0.9852 -0.1617
vn 0.0908 -0.9886 -0.1199
vn 0.0093 -0.9994 0.0337
vn 0.1319 -0.9820 -0.1350
vn 0.1173 -0.9923 -0.0406
vn 0.1203 -0.9852 -0.1224
vn 0.1762 -0.9733 -0.1468
vn 0.1047 -0.9913 -0.0797
vn 0.1954 -0.9619 -0.1914
vn -0.0023 -0.9985 -0.0540
vn -0.0045 -0.9992 -0.0386
vn 0.0310 -0.9954 -0.0902
vn 0.0280 -0.9897 -0.1401
vn 0.0311 -0.9986 -0.0427
vn 0.0177 -0.9976 0.0674
vn 0.0051 -0.9971 0.0753
vn 0.0279 -0.9981 0.0550
vn 0.0448 -0.9989 0.0117
vn -0.0083 -0.9964 0.0847
vn 0.0093 -0.9983 0.0573
vn 0.0333 -0.9990 0.0313
vn 0.0401 -0.9974 -0.0604
vn 0.0281 -0.9927 -0.1172
vn 0.1151 -0.9932 -0.0187
vn 0.0965 -0.9950 -0.0274
vn 0.0744 -0.9971 -0.0166
vn 0.0587 -0.9982 -0.0118
vn 0.0450 -0.9989 -0.0143
vn 0.0309 -0.9992 -0.0238
vn 0.0005 -0.9999 -0.0160
vn 0.0596 -0.9906 -0.1234
vn 0.0885 -0.9841 -0.1540
vn 0.1087 -0.9847 -0.1366
vn 0.0927 -0.9900 -0.1066
vn 0.0274 -0.9848 -0.1713
vn -0.0263 -0.9910 -0.1315
vn -0.0140 -0.9999 -0.0029
vn -0.0140 -0.9999 -0.0102
vn -0.0140 -0.9999 -0.0032
vn -0.0140 -0.9998 -0.0104
vn -0.0282 -0.9973 -0.0682
vn 0.0283 -0.9989 -0.0361
vn 0.0282 -0.9973 -0.0672
vn 0.0132 -0.9994 -0.0324
vn 0.0282 -0.9952 -0.0932
vn 0.0333 -0.9992 -0.0208
vn 0.0333 -0.9994 -0.0034
vn 0.0333 -0.9993 0.0139
vn 0.0202 -0.9997 -0.0135
vn 0.0203 -0.9998 0.0003
vn 0.0094 -0.9999 0.0054
vn 0.0094 -0.9997 0.0227
vn 0.0094 -0.9992 0.0401
vn -0.0083 -0.9994 0.0324
vn -0.0083 -0.9987 0.0499
vn -0.0083 -0.9977 0.0673
vn 0.0448 -0.9988 -0.0198
vn 0.0448 -0.9990 -0.0041
vn 0.1150 -0.9928 -0.0339
vn 0.0525 -0.9934 -0.1020
vn 0.0722 -0.9747 -0.2115
vn 0.1038 -0.9937 -0.0417
vn 0.0096 -0.9975 -0.0696
vn -0.0486 -0.9881 -0.1460
vn 0.0949 -0.9950 -0.0301
vn 0.0045 -1.0000 -0.0022
vn -0.0491 -0.9987 -0.0110
vn 0.0347 -0.9993 0.0136
vn -0.0457 -0.9966 0.0691
vn 0.0757 -0.9966 -0.0321
vn 0.0731 -0.9961 -0.0493
vn 0.0253 -0.9992 -0.0319
vn 0.0604 -0.9966 -0.0564
vn 0.0586 -0.9950 -0.0805
vn 0.0463 -0.9951 -0.0873
vn 0.0394 -0.9980 -0.0502
vn 0.0422 -0.9959 -0.0796
vn 0.0424 -0.9945 -0.0959
vn 0.0139 -0.9997 -0.0220
vn 0.0006 -0.9998 -0.0173
vn 0.0290 -0.9981 -0.0541
vn -0.0308 -0.9965 -0.0774
vn -0.0301 -0.9973 -0.0671
vn -0.0135 -0.9996 -0.0228
vn -0.0016 -0.9997 -0.0250
vn -0.0400 -0.9919 -0.1204
vn -0.0471 -0.9927 -0.1112
vn 0.0325 -0.9908 -0.1311
vn 0.0632 -0.9980 -0.0014
vn 0.0959 -0.9945 -0.0424
vn 0.0868 -0.9926 -0.0852
vn 0.1253 -0.9868 -0.1029
vn 0.0892 -0.9753 -0.2020
vn 0.1124 -0.9793 -0.1684
vn 0.0638 -0.9725 -0.2239
vn 0.0605 -0.9853 -0.1600
vn -0.0002 0.9984 0.0562
vn 0.0033 1.0000 0.0083
vn 0.0041 1.0000 0.0085
vn 0.0039 1.0000 0.0085
vn -0.0145 0.9984 0.0543
vn -0.0104 0.9987 0.0497
vn -0.0148 0.9984 0.0546
vn 0.0027 1.0000 0.0003
vn 0.0014 1.0000 0.0012
vn 0.0122 0.9999 0.0027
vn -0.0034 0.9998 0.0218
vn -0.0047 0.9998 0.0218
vn -0.0127 0.9997 0.0219
vn -0.0095 0.9952 0.0975
vn -0.0066 0.9960 0.0891
vn -0.0102 0.9951 0.0982
vn -0.0002 0.9932 0.1162
vn -0.0017 0.9954 0.0960
vn -0.0024 0.9954 0.0961
vn -0.0166 0.9835 0.1802
vn -0.0188 0.9838 0.1784
vn -0.0168 0.9835 0.1799
vn 0.0016 0.9991 0.0435
vn -0.0089 0.9990 0.0433
vn -0.0025 0.9993 0.0372
vn -0.0569 0.9885 0.1397
vn -0.0561 0.9929 -0.1052
vn -0.0904 0.9841 0.1526
vn -0.0564 0.9981 -0.0250
vn -0.1230 0.9849 0.1215
vn -0.1295 0.9844 0.1195
vn -0.1322 0.9841 0.1186
vn -0.1171 0.9904 0.0737
vn -0.1209 0.9900 0.0731
vn -0.1755 0.9693 0.1721
vn 0.0015 1.0000 -0.0033
vn 0.0044 1.0000 -0.0018
vn -0.0004 1.0000 0.0001
vn 0.0002 1.0000 0.0016
vn -0.0002 1.0000 0.0055
vn -0.0000 1.0000 -0.0000
vn 0.0007 1.0000 0.0051
vn 0.0002 1.0000 0.0025
vn -0.0001 1.0000 0.0001
vn 0.0001 1.0000 0.0004
vn -0.0114 0.9988 0.0473
vn 0.0023 0.9993 0.0381
vn 0.0035 0.9993 0.0379
vn -0.0071 0.9993 0.0357
vn -0.0308 0.9955 0.0896
vn -0.0284 0.9959 0.0858
vn -0.0282 0.9962 0.0826
vn -0.0114 0.9951 0.0984
vn -0.0284 0.9987 0.0422
vn -0.0306 0.9986 0.0426
vn -0.0279 0.9987 0.0421
vn -0.0169 0.9976 -0.0668
vn -0.0107 0.9980 -0.0624
vn -0.0099 0.9980 -0.0619
vn -0.0075 0.9987 -0.0496
vn -0.0076 0.9987 -0.0496
vn -0.0051 0.9988 -0.0488
vn 0.0050 1.0000 -0.0064
vn 0.0036 0.9967 -0.0817
vn -0.0026 0.9970 -0.0772
vn 0.0063 0.9965 -0.0836
vn 0.0051 1.0000 -0.0066
vn 0.0149 0.9950 -0.0992
vn 0.0087 0.9954 -0.0955
vn 0.0173 0.9948 -0.1006
vn -0.0273 0.9981 -0.0547
vn -0.0182 0.9986 -0.0501
vn -0.0177 0.9986 -0.0499
vn -0.0345 0.9993 -0.0114
vn -0.0437 0.9990 -0.0117
vn -0.0333 0.9994 -0.0114
vn 0.0226 0.9954 -0.0928
vn 0.0083 0.9977 -0.0679
vn -0.0127 0.9994 -0.0312
vn -0.0187 0.9994 -0.0280
vn -0.0094 0.9995 -0.0291
vn -0.0215 0.9993 -0.0306
vn -0.0281 0.9993 -0.0252
vn -0.0436 0.9974 0.0570
vn -0.0408 0.9973 0.0606
vn -0.0419 0.9973 0.0601
vn -0.0132 0.9969 0.0778
vn -0.0386 0.9958 0.0829
vn -0.0400 0.9958 0.0830
vn -0.0007 0.9993 0.0379
vn -0.0046 0.9991 0.0412
vn -0.0127 0.9992 0.0386
vn -0.0132 0.9992 0.0382
vn -0.0007 1.0000 0.0026
vn -0.0965 0.9953 -0.0000
vn -0.0745 0.9972 -0.0000
vn -0.0587 0.9983 0.0017
vn -0.0587 0.9983 -0.0000
vn -0.0587 0.9982 0.0104
vn -0.0450 0.9990 -0.0000
vn -0.0309 0.9995 -0.0000
vn -0.0149 0.9999 0.0020
vn -0.0149 0.9999 0.0016
vn -0.0149 0.9999 0.0019
vn -0.0149 0.9999 0.0023
vn -0.0002 1.0000 0.0002
vn -0.0001 1.0000 0.0002
vn -0.0003 1.0000 0.0003
vn -0.0005 1.0000 0.0001
vn -0.0885 0.9842 0.1534
vn -0.0887 0.9861 0.1404
vn -0.0885 0.9842 0.1536
vn -0.1081 0.9792 0.1715
vn -0.1121 0.9793 0.1686
vn -0.1085 0.9792 0.1712
vn -0.0925 0.9876 0.1270
vn -0.0277 0.9950 0.0957
vn 0.0121 0.9870 0.1603
vn 0.0122 0.9941 0.1074
vn 0.0022 1.0000 0.0087
vn 0.0015 0.9999 0.0134
vn 0.0008 1.0000 0.0023
vn 0.0283 0.9993 0.0252
vn 0.0271 0.9974 0.0670
vn 0.0282 0.9973 0.0681
vn 0.0294 0.9973 0.0669
vn -0.0000 1.0000 -0.0015
vn -0.0005 1.0000 0.0031
vn -0.0022 1.0000 0.0023
vn 0.0006 1.0000 0.0021
vn -0.0000 1.0000 0.0001
vn -0.0073 0.9999 0.0119
vn -0.0126 0.9999 0.0073
vn -0.0132 0.9999 0.0067
vn -0.0066 0.9997 0.0220
vn -0.0126 0.9998 0.0178
vn -0.0132 0.9998 0.0172
vn -0.0058 0.9995 0.0319
vn -0.0127 0.9995 0.0282
vn -0.0132 0.9995 0.0277
vn -0.0066 1.0000 0.0042
vn -0.0007 0.9998 0.0185
vn -0.0072 0.9999 0.0146
vn -0.0007 0.9996 0.0281
vn -0.0079 0.9997 0.0250
vn -0.0286 0.9989 0.0360
vn -0.0395 0.9988 0.0296
vn -0.0401 0.9988 0.0292
vn -0.0295 0.9987 0.0427
vn -0.0442 0.9978 0.0501
vn -0.0422 0.9981 0.0457
vn -0.0392 0.9971 0.0652
vn -0.0289 0.9973 0.0671
vn -0.0400 0.9971 0.0651
vn -0.0283 0.9994 0.0206
vn -0.0282 0.9986 0.0449
vn -0.0282 0.9983 0.0512
vn -0.0132 0.9984 0.0552
vn -0.0443 0.9980 0.0443
vn -0.0426 0.9979 0.0492
vn -0.0447 0.9980 0.0443
vn -0.0423 0.9976 0.0546
vn -0.0211 0.9995 0.0230
vn -0.0325 0.9993 0.0209
vn -0.0202 0.9995 0.0232
vn -0.0213 0.9998 0.0051
vn -0.0246 0.9997 -0.0031
vn -0.0126 0.9999 0.0042
vn -0.0214 0.9997 -0.0127
vn -0.0277 0.9994 -0.0186
vn -0.0121 0.9998 -0.0134
vn -0.0108 0.9999 0.0127
vn -0.0188 0.9997 0.0134
vn -0.0094 0.9999 0.0126
vn -0.0188 0.9998 -0.0004
vn -0.0094 1.0000 -0.0013
vn -0.0187 0.9997 -0.0142
vn -0.0094 0.9998 -0.0152
vn 0.0083 0.9999 -0.0106
vn 0.0083 0.9995 -0.0298
vn 0.0083 0.9988 -0.0489
vn 0.0227 0.9989 -0.0406
vn 0.0227 0.9981 -0.0580
vn 0.0226 0.9969 -0.0754
vn -0.0339 0.9987 0.0380
vn -0.0442 0.9984 0.0356
vn -0.0333 0.9987 0.0381
vn -0.0341 0.9992 0.0215
vn -0.0440 0.9988 0.0199
vn -0.0333 0.9992 0.0216
vn -0.0343 0.9994 0.0050
vn -0.0438 0.9990 0.0041
vn -0.0333 0.9994 0.0051
vn -0.1038 0.9944 0.0196
vn -0.1049 0.9943 0.0195
vn -0.1138 0.9933 0.0188
vn -0.0096 0.9986 0.0523
vn 0.0156 0.9926 0.1204
vn -0.0949 0.9951 0.0280
vn -0.0949 0.9951 0.0276
vn -0.0955 0.9950 0.0295
vn -0.0053 0.9980 0.0633
vn -0.0090 0.9976 0.0686
vn -0.0045 0.9981 0.0622
vn 0.0157 0.9969 0.0777
vn -0.0773 0.9969 0.0155
vn -0.0835 0.9964 0.0160
vn -0.0748 0.9971 0.0170
vn -0.0346 0.9986 0.0398
vn 0.0462 0.9988 0.0144
vn 0.0488 0.9987 0.0114
vn 0.0459 0.9988 0.0148
vn -0.0808 0.9966 0.0134
vn -0.0758 0.9971 0.0116
vn -0.0731 0.9971 0.0221
vn -0.0253 0.9996 -0.0114
vn -0.0261 0.9996 -0.0116
vn -0.0340 0.9993 -0.0135
vn -0.0605 0.9981 0.0142
vn -0.0587 0.9977 0.0335
vn -0.0464 0.9975 0.0535
vn -0.0395 0.9989 0.0243
vn -0.0384 0.9990 0.0242
vn -0.0320 0.9992 0.0239
vn -0.0423 0.9975 0.0568
vn -0.0436 0.9955 0.0840
vn -0.0459 0.9952 0.0868
vn -0.0424 0.9947 0.0939
vn -0.0144 0.9997 0.0173
vn -0.0143 0.9997 0.0173
vn -0.0009 0.9999 0.0160
vn -0.0159 0.9988 0.0458
vn -0.0182 0.9986 0.0494
vn -0.0182 0.9991 0.0386
vn -0.0290 0.9964 0.0798
vn -0.0306 0.9963 0.0798
vn -0.0407 0.9960 0.0796
vn -0.0002 1.0000 0.0003
vn -0.0021 1.0000 0.0018
vn -0.0144 0.9999 0.0024
vn -0.0027 0.9998 0.0175
vn -0.0016 0.9998 0.0174
vn -0.0017 0.9998 0.0174
vn -0.0139 0.9992 0.0364
vn -0.0177 0.9992 0.0365
vn 0.0464 0.9945 0.0942
vn 0.0464 0.9943 0.0964
vn 0.0467 0.9932 0.1071
vn 0.0385 0.9961 0.0791
vn 0.0402 0.9960 0.0795
vn 0.0326 0.9964 0.0778
vn 0.0308 0.9981 0.0534
vn 0.0302 0.9987 0.0399
vn 0.0144 0.9992 0.0371
vn 0.0144 0.9992 0.0372
vn 0.0144 0.9992 0.0379
vn 0.0117 0.9996 0.0256
vn 0.0135 0.9996 0.0253
vn 0.0051 0.9997 0.0234
vn 0.0467 0.9931 0.1078
vn 0.0471 0.9927 0.1106
vn 0.0278 0.9946 0.1005
vn 0.0278 0.9945 0.1007
vn 0.0278 0.9944 0.1017
vn 0.0015 0.9989 0.0469
vn -0.0083 0.9990 0.0439
vn 0.0278 0.9944 0.1019
vn 0.0015 0.9996 -0.0287
vn -0.0082 0.9994 -0.0332
vn 0.0002 0.9996 -0.0293
vn -0.0328 0.9993 0.0205
vn -0.0631 0.9959 0.0644
vn -0.0957 0.9922 0.0800
vn -0.0871 0.9926 0.0850
vn -0.0953 0.9922 0.0802
vn -0.0858 0.9763 0.1985
vn -0.0888 0.9755 0.2015
vn -0.0854 0.9765 0.1981
vn -0.1239 0.9758 0.1799
vn -0.0884 0.9661 0.2427
vn -0.1118 0.9742 0.1963
vn 0.0002 1.0000 0.0007
vn -0.0000 0.9953 -0.0970
vn 0.0172 0.9913 -0.1307
vn 0.0180 0.9911 -0.1322
vn 0.0217 0.9900 -0.1394
vn 0.0225 0.9898 -0.1410
vn 0.0192 0.9972 0.0725
vn 0.0192 0.9998 0.0042
vn -0.0102 0.9987 0.0495
vn 0.0033 1.0000 -0.0000
vn -0.0148 0.9992 0.0358
vn -0.0167 0.9933 0.1145
vn -0.0025 0.9954 0.0963
vn -0.0567 0.9852 0.1617
vn -0.0908 0.9886 0.1199
vn -0.0093 0.9994 -0.0337
vn -0.1319 0.9820 0.1350
vn -0.1173 0.9923 0.0406
vn -0.1203 0.9852 0.1224
vn -0.1762 0.9733 0.1468
vn -0.1047 0.9913 0.0797
vn -0.1954 0.9619 0.1914
vn 0.0023 0.9985 0.0540
vn 0.0045 0.9992 0.0386
vn -0.0310 0.9954 0.0902
vn -0.0280 0.9897 0.1401
vn -0.0311 0.9986 0.0427
vn -0.0177 0.9976 -0.0674
vn -0.0099 0.9987 -0.0504
vn -0.0051 0.9971 -0.0753
vn 0.0063 0.9955 -0.0941
vn -0.0279 0.9981 -0.0550
vn -0.0448 0.9989 -0.0117
vn 0.0083 0.9964 -0.0847
vn -0.0093 0.9983 -0.0573
vn -0.0333 0.9990 -0.0313
vn -0.0401 0.9974 0.0604
vn -0.0281 0.9927 0.1172
vn -0.1151 0.9932 0.0187
vn -0.0965 0.9950 0.0274
vn -0.0744 0.9971 0.0166
vn -0.0587 0.9982 0.0118
vn -0.0450 0.9989 0.0143
vn -0.0309 0.9992 0.0238
vn -0.0005 0.9999 0.0160
vn -0.0596 0.9906 0.1234
vn -0.0885 0.9841 0.1540
vn -0.1087 0.9847 0.1366
vn -0.0927 0.9900 0.1066
vn -0.0274 0.9848 0.1713
vn 0.0263 0.9910 0.1315
vn 0.0140 0.9999 0.0029
vn 0.0140 0.9998 0.0104
vn 0.0282 0.9973 0.0682
vn -0.0000 0.9998 0.0193
vn -0.0000 0.9996 0.0289
vn -0.0283 0.9989 0.0361
vn -0.0282 0.9973 0.0672
vn -0.0132 0.9994 0.0324
vn -0.0282 0.9952 0.0932
vn -0.0333 0.9992 0.0208
vn -0.0333 0.9994 0.0034
vn -0.0333 0.9993 -0.0139
vn -0.0202 0.9997 0.0135
vn -0.0094 0.9999 -0.0054
vn -0.0094 0.9997 -0.0227
vn -0.0094 0.9992 -0.0401
vn 0.0083 0.9994 -0.0324
vn 0.0083 0.9987 -0.0499
vn 0.0083 0.9977 -0.0673
vn -0.0448 0.9984 0.0355
vn -0.0448 0.9988 0.0198
vn -0.0448 0.9990 0.0041
vn -0.1150 0.9928 0.0339
vn -0.0525 0.9934 0.1020
vn -0.0722 0.9747 0.2115
vn -0.1038 0.9937 0.0417
vn -0.0096 0.9975 0.0696
vn 0.0486 0.9881 0.1460
vn -0.0949 0.9950 0.0301
vn -0.0045 1.0000 0.0022
vn 0.0491 0.9987 0.0110
vn -0.0347 0.9993 -0.0136
vn 0.0457 0.9966 -0.0691
vn -0.0757 0.9966 0.0321
vn -0.0731 0.9961 0.0493
vn -0.0253 0.9992 0.0319
vn -0.0604 0.9966 0.0564
vn -0.0586 0.9950 0.0805
vn -0.0463 0.9951 0.0873
vn -0.0394 0.9980 0.0502
vn -0.0422 0.9959 0.0796
vn -0.0424 0.9945 0.0959
vn -0.0139 0.9997 0.0220
vn -0.0006 0.9998 0.0173
vn -0.0290 0.9981 0.0541
vn 0.0308 0.9965 0.0774
vn 0.0301 0.9973 0.0671
vn 0.0135 0.9996 0.0228
vn 0.0016 0.9997 0.0250
vn 0.0400 0.9919 0.1204
vn 0.0471 0.9927 0.1112
vn -0.0325 0.9908 0.1311
vn -0.0632 0.9980 0.0014
vn -0.0959 0.9945 0.0424
vn -0.0868 0.9926 0.0852
vn -0.1253 0.9868 0.1029
vn -0.0892 0.9753 0.2020
vn -0.1124 0.9793 0.1684
vn -0.0638 0.9725 0.2239
vn -0.0605 0.9853 0.1600
vn -0.0000 -0.0000 -1.0000
vn -0.9290 -0.0000 0.3702
vn 0.9225 -0.0000 0.3859
vn -0.5890 -0.0000 0.8082
vn 0.9764 -0.0000 -0.2159
vn 0.9764 -0.0000 -0.2160
vn 0.7421 -0.0000 -0.6702
vn 0.4507 -0.0000 -0.8927
vn 0.7149 -0.0000 0.6992
vn -1.0000 -0.0000 -0.0000
vn -0.6373 -0.0000 0.7706
vn 0.6861 -0.0000 -0.7275
vn -0.8070 -0.0000 0.5905
vn -0.9797 -0.0000 0.2006
vn 0.9446 -0.0000 -0.3281
vn 0.7530 -0.0000 0.6580
vn 0.7532 -0.0000 0.6578
vn 0.9871 -0.0000 0.1602
vn -0.8587 -0.0000 0.5125
vn 1.0000 -0.0000 -0.0000
vn -0.5293 -0.0000 0.8484
vn 0.8734 -0.0000 -0.4871
vn 0.6785 -0.0000 -0.7346
vn 0.7580 -0.0000 0.6523
vn 0.7582 -0.0000 0.6520
vn -0.0000 -0.0000 1.0000
vn -0.9584 -0.0000 0.2854
vn -0.9884 -0.0000 0.1522
vn -0.9883 -0.0000 0.1522
vn -0.4142 -0.0000 0.9102
vn 0.5989 -0.0000 -0.8008
vn -0.5766 -0.0000 0.8170
vn -0.5767 -0.0000 0.8170
vn -0.5796 -0.0000 0.8149
vn 0.7663 -0.0000 -0.6425
vn 0.7486 -0.0000 0.6630
vn 0.8575 -0.0000 0.5144
vn -0.9940 -0.0000 0.1090
vn -0.4881 -0.0000 0.8728
vn 0.6903 -0.0000 -0.7236
vn 0.4881 -0.0000 -0.8728
vn 0.9988 -0.0000 -0.0486
vn 0.7513 -0.0000 0.6600
vn 0.6862 -0.0000 -0.7275
vn -0.4507 -0.0000 0.8927
vt 0.420686 0.385825
vt 0.410403 0.338279
vt 0.403042 0.338277
vt 0.415561 0.435567
vt 0.424181 0.435573
vt 0.477353 0.435586
vt 0.501770 0.435661
vt 0.512655 0.385728
vt 0.405176 0.482469
vt 0.415758 0.482487
vt 0.465165 0.482568
vt 0.486959 0.482608
vt 0.489351 0.385649
vt 0.517754 0.337927
vt 0.419491 0.297873
vt 0.495485 0.337895
vt 0.522485 0.297768
vt 0.411029 0.297835
vt 0.436536 0.244720
vt 0.499839 0.297691
vt 0.547989 0.245677
vt 0.419038 0.244498
vt 0.330086 0.183250
vt 0.619603 0.184601
vt 0.561044 0.184349
vt 0.300904 0.183101
vt 0.226940 0.132613
vt 0.659064 0.135633
vt 0.186412 0.132331
vt 0.153779 0.086533
vt 0.544711 0.134770
vt 0.650680 0.090540
vt 0.113072 0.086207
vt 0.097166 0.025738
vt 0.462665 0.088976
vt 0.548553 0.029297
vt 0.540963 0.521205
vt 0.529948 0.561445
vt 0.547230 0.561452
vt 0.437137 0.521072
vt 0.424509 0.561332
vt 0.442103 0.561357
vt 0.449209 0.482541
vt 0.453752 0.521098
vt 0.551894 0.482714
vt 0.557805 0.521219
vt 0.518712 0.599285
vt 0.507755 0.638494
vt 0.527726 0.638505
vt 0.411045 0.599158
vt 0.393762 0.638339
vt 0.413065 0.638371
vt 0.429522 0.599184
vt 0.536216 0.599280
vt 0.529520 0.674935
vt 0.507969 0.674881
vt 0.493294 0.711837
vt 0.372382 0.674556
vt 0.347295 0.711443
vt 0.369002 0.711490
vt 0.392382 0.674597
vt 0.463174 0.751230
vt 0.490574 0.751298
vt 0.318543 0.750847
vt 0.341543 0.750891
vt 0.416438 0.782128
vt 0.372188 0.813515
vt 0.397356 0.813594
vt 0.295679 0.781843
vt 0.271960 0.813287
vt 0.295667 0.813336
vt 0.333098 0.846718
vt 0.354849 0.846772
vt 0.243732 0.846523
vt 0.266814 0.846580
vt 0.289726 0.886160
vt 0.304161 0.886202
vt 0.205987 0.885904
vt 0.229601 0.885977
vt 0.264062 0.918275
vt 0.280582 0.918357
vt 0.167506 0.917782
vt 0.190496 0.917847
vt 0.319172 0.781887
vt 0.442618 0.782207
vt 0.432778 0.751149
vt 0.392136 0.782071
vt 0.274708 0.886113
vt 0.245644 0.918168
vt 0.316536 0.846687
vt 0.353058 0.813472
vt 0.462207 0.711752
vt 0.484087 0.638469
vt 0.479083 0.674809
vt 0.507995 0.561429
vt 0.496424 0.599263
vt 0.530258 0.482682
vt 0.519165 0.521183
vt 0.828950 0.090540
vt 0.907227 0.090717
vt 0.933916 0.030810
vt 0.836017 0.136033
vt 0.893793 0.136287
vt 0.790996 0.185995
vt 0.835641 0.186341
vt 0.714123 0.246892
vt 0.750351 0.247153
vt 0.670499 0.298733
vt 0.699317 0.298912
vt 0.634166 0.338726
vt 0.655801 0.338850
vt 0.613016 0.386181
vt 0.569475 0.482738
vt 0.587755 0.435870
vt 0.569491 0.435830
vt 0.594219 0.386112
vt 0.260325 0.750731
vt 0.237813 0.781728
vt 0.246756 0.781746
vt 0.148407 0.885723
vt 0.109096 0.917647
vt 0.119407 0.917671
vt 0.187424 0.846375
vt 0.156995 0.885750
vt 0.214147 0.813159
vt 0.195588 0.846397
vt 0.222569 0.813178
vt 0.287611 0.711312
vt 0.270610 0.750752
vt 0.340545 0.638243
vt 0.316628 0.674436
vt 0.330542 0.674467
vt 0.301985 0.711345
vt 0.375939 0.561254
vt 0.360056 0.599076
vt 0.372322 0.599097
vt 0.353347 0.638268
vt 0.391230 0.520990
vt 0.402272 0.521011
vt 0.387622 0.561274
vt 0.248196 0.087269
vt 0.169888 0.026266
vt 0.335142 0.133353
vt 0.414492 0.183682
vt 0.466791 0.245027
vt 0.439585 0.297860
vt 0.433765 0.338202
vt 0.432223 0.482515
vt 0.441906 0.435580
vt 0.443016 0.385777
vt 0.464069 0.561385
vt 0.475549 0.521129
vt 0.486033 0.561409
vt 0.497357 0.521158
vt 0.508613 0.482646
vt 0.436744 0.638408
vt 0.451822 0.599213
vt 0.460417 0.638440
vt 0.474128 0.599240
vt 0.400079 0.711578
vt 0.421284 0.674666
vt 0.431147 0.711665
vt 0.450185 0.674737
vt 0.371966 0.750980
vt 0.402375 0.751066
vt 0.314798 0.813383
vt 0.343497 0.781951
vt 0.333930 0.813428
vt 0.367819 0.782012
vt 0.283392 0.846619
vt 0.299966 0.846654
vt 0.244641 0.886022
vt 0.259677 0.886067
vt 0.208858 0.917959
vt 0.227242 0.918062
vt 0.716740 0.090281
vt 0.835179 0.030544
vt 0.684880 0.090293
vt 0.702738 0.030184
vt 0.636662 0.029962
vt 0.740393 0.135636
vt 0.713255 0.135619
vt 0.709337 0.185355
vt 0.668188 0.185064
vt 0.646274 0.246394
vt 0.580314 0.245902
vt 0.617410 0.298382
vt 0.565661 0.298034
vt 0.596633 0.338479
vt 0.557254 0.338206
vt 0.569743 0.386011
vt 0.543803 0.385897
vt 0.547757 0.435783
vt 0.525926 0.435732
vt 0.463905 0.338060
vt 0.466736 0.385718
vt 0.460079 0.435586
vt 0.465624 0.297798
vt 0.522231 0.245565
vt 0.500432 0.245454
vt 0.502684 0.184097
vt 0.459861 0.134208
vt 0.368204 0.088234
vt 0.322054 0.027361
vt 0.244921 0.026808
vt 0.270892 0.781795
vt 0.294259 0.750800
vt 0.143134 0.917726
vt 0.181151 0.885826
vt 0.219322 0.846459
vt 0.246933 0.813233
vt 0.324326 0.711394
vt 0.351149 0.674511
vt 0.373249 0.638304
vt 0.391390 0.599128
vt 0.405783 0.561304
vt 0.419433 0.521042
vt 0.066448 0.973895
vt 0.090260 0.973925
vt 0.211699 0.974488
vt 0.174796 0.974237
vt 0.056106 0.973882
vt 0.114750 0.973956
vt 0.137884 0.973985
vt 0.193252 0.974362
vt 0.156340 0.974111
vt 0.411416 0.385840
vt 0.056108 0.025418
vt 0.518965 0.711895
vt 0.228253 0.974582
s 1
usemtl Material.005
f 91/1/1 90/2/1 6/3/1
f 12/4/2 92/5/3 91/1/4
f 11/6/5 132/7/6 129/8/7
f 2/9/8 89/10/9 92/5/3
f 3/11/10 123/12/11 132/7/12
f 8/13/13 129/8/14 126/14/15
f 6/3/16 90/2/16 93/15/16
f 5/16/17 126/14/15 135/17/18
f 15/18/19 93/15/20 94/19/21
f 14/20/22 135/17/23 138/21/24
f 18/22/25 94/19/25 95/23/25
f 138/21/26 141/24/26 20/25/26
f 21/26/27 95/23/27 96/27/27
f 20/25/28 141/24/28 144/28/28
f 24/29/29 96/27/30 97/30/31
f 23/31/32 144/28/32 147/32/32
f 27/33/33 97/30/33 98/34/33
f 26/35/34 147/32/34 150/36/34
f 78/37/35 77/38/36 33/39/37
f 213/40/38 198/41/39 32/42/40
f 178/43/41 213/40/38 34/44/42
f 67/45/43 78/37/35 35/46/44
f 80/47/45 79/48/46 39/49/47
f 215/50/39 200/51/39 38/52/39
f 198/41/39 215/50/39 40/53/48
f 77/38/49 80/47/50 41/54/51
f 47/55/52 82/56/53 81/57/54
f 217/58/39 202/59/39 44/60/39
f 200/51/39 217/58/39 46/61/39
f 39/49/55 79/48/55 82/56/55
f 81/57/56 83/62/57 51/63/58
f 202/59/39 204/64/39 50/65/39
f 88/66/59 84/67/60 54/68/61
f 219/69/39 206/70/39 53/71/39
f 84/67/60 85/72/62 57/73/63
f 206/70/39 208/74/39 56/75/64
f 85/72/65 86/76/66 60/77/67
f 208/74/39 210/78/39 59/79/68
f 86/76/66 87/80/69 63/81/70
f 210/78/39 212/82/39 62/83/39
f 204/64/39 219/69/39 64/84/39
f 83/62/71 88/66/72 65/85/73
f 164/86/74 120/87/75 88/66/76
f 173/88/77 176/89/77 87/80/77
f 170/90/78 173/88/78 86/76/78
f 167/91/79 170/90/80 85/72/81
f 120/87/82 167/91/79 84/67/83
f 161/92/84 164/86/85 83/62/86
f 79/48/87 158/93/87 117/94/87
f 117/94/88 161/92/89 81/57/54
f 155/95/90 114/96/91 80/47/50
f 114/96/92 158/93/93 79/48/46
f 125/97/94 111/98/39 78/37/35
f 111/98/39 155/95/39 77/38/36
f 75/99/95 25/100/95 28/101/95
f 74/102/96 22/103/96 25/100/96
f 73/104/97 19/105/98 22/103/99
f 72/106/100 16/107/100 19/105/100
f 71/108/101 13/109/101 16/107/101
f 68/110/102 1/111/103 13/109/104
f 9/112/105 1/111/103 68/110/102
f 4/113/39 10/114/106 70/115/107
f 10/114/106 9/112/108 69/116/109
f 49/117/39 66/118/39 110/119/39
f 58/120/39 61/121/39 109/122/39
f 55/123/39 58/120/39 108/124/39
f 52/125/39 55/123/39 107/126/39
f 66/118/39 52/125/39 106/127/39
f 43/128/39 49/117/39 105/129/39
f 37/130/39 48/131/39 104/132/39
f 48/131/39 43/128/39 103/133/39
f 31/134/39 42/135/39 102/136/39
f 42/135/39 37/130/39 101/137/39
f 2/9/8 36/138/39 100/139/39
f 36/138/39 31/134/39 99/140/39
f 97/30/110 193/141/111 195/142/112
f 96/27/113 191/143/114 193/141/115
f 95/23/116 189/144/116 191/143/116
f 94/19/117 187/145/117 189/144/117
f 93/15/118 185/146/118 187/145/118
f 179/147/119 185/146/119 93/15/119
f 89/10/9 177/148/120 183/149/121
f 183/149/122 181/150/122 91/1/122
f 181/150/123 179/147/124 90/2/125
f 34/44/42 32/42/40 153/151/39
f 113/152/126 153/151/39 154/153/39
f 112/154/39 154/153/39 155/95/39
f 3/11/127 34/44/42 113/152/126
f 123/12/128 113/152/126 112/154/39
f 124/155/129 112/154/39 111/98/39
f 40/53/130 38/52/131 156/156/132
f 116/157/133 156/156/132 157/158/134
f 115/159/135 157/158/134 158/93/93
f 32/42/40 40/53/48 116/157/133
f 153/151/136 116/157/133 115/159/135
f 154/153/137 115/159/135 114/96/91
f 46/61/138 44/60/139 159/160/140
f 119/161/141 159/160/142 160/162/143
f 118/163/144 160/162/145 161/92/84
f 38/52/146 46/61/146 119/161/146
f 156/156/147 119/161/141 118/163/148
f 158/93/149 157/158/149 118/163/149
f 44/60/150 50/65/151 162/164/152
f 159/160/142 162/164/152 163/165/153
f 160/162/145 163/165/154 164/86/85
f 64/84/155 53/71/156 165/166/157
f 122/167/158 165/166/159 166/168/160
f 121/169/161 166/168/162 167/91/163
f 53/71/164 56/75/164 168/170/164
f 165/166/165 168/170/166 169/171/167
f 166/168/162 169/171/168 170/90/169
f 56/75/64 59/79/68 171/172/170
f 168/170/171 171/172/171 172/173/171
f 169/171/172 172/173/172 173/88/172
f 59/79/173 62/83/173 174/174/173
f 171/172/174 174/174/174 175/175/174
f 172/173/175 175/175/175 176/89/175
f 50/65/151 64/84/176 122/167/177
f 162/164/178 122/167/179 121/169/180
f 163/165/181 121/169/182 120/87/183
f 149/176/184 75/99/185 76/177/186
f 148/178/187 149/176/187 152/179/187
f 147/32/188 148/178/188 151/180/188
f 146/181/189 74/102/190 75/99/191
f 145/182/192 146/181/193 149/176/194
f 145/182/195 148/178/195 147/32/195
f 143/183/196 73/104/197 74/102/198
f 142/184/199 143/183/199 146/181/199
f 141/24/200 142/184/201 145/182/202
f 140/185/203 72/106/204 73/104/197
f 139/186/205 140/185/203 143/183/196
f 138/21/206 139/186/207 142/184/208
f 137/187/209 71/108/209 72/106/209
f 136/188/210 137/187/210 140/185/210
f 135/17/211 136/188/211 139/186/211
f 128/189/212 68/110/213 71/108/214
f 127/190/215 128/189/215 137/187/215
f 126/14/216 127/190/217 136/188/218
f 131/191/219 69/116/220 68/110/221
f 130/192/222 131/191/223 128/189/224
f 129/8/225 130/192/226 127/190/227
f 67/45/43 70/115/107 134/193/228
f 125/97/94 134/193/228 133/194/229
f 123/12/128 124/155/129 133/194/229
f 70/115/230 69/116/230 131/191/230
f 133/194/231 134/193/232 131/191/233
f 132/7/234 133/194/235 130/192/222
f 8/13/236 5/16/237 180/195/238
f 182/196/239 180/195/240 179/147/241
f 11/6/242 8/13/242 182/196/242
f 184/197/243 182/196/243 181/150/243
f 3/11/244 11/6/245 184/197/246
f 178/43/247 184/197/248 183/149/249
f 5/16/237 14/20/250 186/198/251
f 180/195/252 186/198/253 185/146/254
f 14/20/22 17/199/255 188/200/256
f 185/146/254 186/198/253 188/200/257
f 188/200/258 17/199/259 20/25/260
f 187/145/261 188/200/261 190/201/261
f 190/201/262 20/25/262 23/31/262
f 189/144/263 190/201/264 192/202/265
f 192/202/266 23/31/267 26/35/268
f 191/143/269 192/202/269 194/203/269
f 194/203/270 26/35/270 29/204/270
f 193/141/271 194/203/271 196/205/271
f 105/129/39 110/119/39 220/206/39
f 203/207/39 220/206/39 219/69/39
f 108/124/39 109/122/39 211/208/39
f 209/209/39 211/208/39 212/82/39
f 107/126/39 108/124/39 209/209/39
f 207/210/39 209/209/39 210/78/39
f 106/127/39 107/126/39 207/210/39
f 205/211/39 207/210/39 208/74/39
f 110/119/39 106/127/39 205/211/39
f 220/206/39 205/211/39 206/70/39
f 103/133/39 105/129/39 203/207/39
f 201/212/39 203/207/39 204/64/39
f 101/137/39 104/132/39 218/213/39
f 199/214/39 218/213/39 217/58/39
f 104/132/39 103/133/39 201/212/39
f 218/213/39 201/212/39 202/59/39
f 99/140/39 102/136/39 216/215/39
f 197/216/39 216/215/39 215/50/39
f 102/136/39 101/137/39 199/214/39
f 216/215/39 199/214/39 200/51/39
f 89/10/9 100/139/39 214/217/272
f 177/148/120 214/217/272 213/40/38
f 100/139/39 99/140/39 197/216/39
f 214/217/272 197/216/39 198/41/39
f 109/122/273 225/218/273 229/219/273
f 63/81/274 87/80/275 224/220/276
f 176/89/277 175/175/277 227/221/277
f 61/121/273 221/222/273 225/218/273
f 211/208/273 229/219/273 230/223/273
f 174/174/277 62/83/277 222/224/277
f 87/80/275 176/89/277 228/225/277
f 212/82/273 230/223/273 222/224/273
f 175/175/277 174/174/277 226/226/277
f 91/1/278 6/3/278 7/227/278
f 12/4/279 91/1/279 7/227/279
f 11/6/5 129/8/7 8/13/280
f 2/9/8 92/5/3 12/4/2
f 3/11/281 132/7/281 11/6/281
f 8/13/13 126/14/15 5/16/17
f 6/3/282 93/15/282 15/18/282
f 5/16/17 135/17/18 14/20/283
f 15/18/284 94/19/284 18/22/284
f 14/20/22 138/21/24 17/199/255
f 18/22/285 95/23/285 21/26/285
f 138/21/286 20/25/260 17/199/259
f 21/26/287 96/27/287 24/29/287
f 20/25/288 144/28/288 23/31/288
f 24/29/29 97/30/31 27/33/289
f 23/31/290 147/32/290 26/35/290
f 27/33/291 98/34/291 30/228/291
f 26/35/292 150/36/292 29/204/292
f 78/37/35 33/39/37 35/46/44
f 213/40/38 32/42/40 34/44/42
f 178/43/41 34/44/42 3/11/127
f 67/45/43 35/46/44 4/113/39
f 80/47/293 39/49/293 41/54/293
f 215/50/39 38/52/39 40/53/48
f 198/41/39 40/53/48 32/42/40
f 77/38/49 41/54/51 33/39/294
f 47/55/52 81/57/54 45/229/295
f 217/58/39 44/60/39 46/61/39
f 200/51/39 46/61/39 38/52/39
f 39/49/296 82/56/296 47/55/296
f 81/57/56 51/63/58 45/229/297
f 202/59/39 50/65/39 44/60/39
f 88/66/298 54/68/298 65/85/298
f 219/69/39 53/71/39 64/84/39
f 84/67/60 57/73/63 54/68/61
f 206/70/39 56/75/64 53/71/39
f 85/72/299 60/77/299 57/73/299
f 208/74/39 59/79/68 56/75/64
f 86/76/66 63/81/70 60/77/67
f 210/78/39 62/83/39 59/79/68
f 204/64/39 64/84/39 50/65/39
f 83/62/71 65/85/73 51/63/300
f 164/86/74 88/66/76 83/62/301
f 173/88/302 87/80/302 86/76/302
f 170/90/303 86/76/303 85/72/303
f 167/91/79 85/72/81 84/67/83
f 120/87/82 84/67/83 88/66/304
f 161/92/84 83/62/86 81/57/305
f 79/48/306 117/94/306 82/56/306
f 117/94/88 81/57/54 82/56/53
f 155/95/90 80/47/50 77/38/49
f 114/96/92 79/48/46 80/47/45
f 125/97/94 78/37/35 67/45/43
f 111/98/39 77/38/36 78/37/35
f 75/99/185 28/101/307 76/177/186
f 74/102/190 25/100/308 75/99/191
f 73/104/197 22/103/309 74/102/198
f 72/106/310 19/105/98 73/104/97
f 71/108/311 16/107/311 72/106/311
f 68/110/213 13/109/312 71/108/214
f 9/112/313 68/110/221 69/116/220
f 4/113/39 70/115/107 67/45/43
f 10/114/106 69/116/109 70/115/107
f 49/117/39 110/119/39 105/129/39
f 58/120/39 109/122/39 108/124/39
f 55/123/39 108/124/39 107/126/39
f 52/125/39 107/126/39 106/127/39
f 66/118/39 106/127/39 110/119/39
f 43/128/39 105/129/39 103/133/39
f 37/130/39 104/132/39 101/137/39
f 48/131/39 103/133/39 104/132/39
f 31/134/39 102/136/39 99/140/39
f 42/135/39 101/137/39 102/136/39
f 2/9/8 100/139/39 89/10/9
f 36/138/39 99/140/39 100/139/39
f 97/30/314 195/142/314 98/34/314
f 96/27/315 193/141/111 97/30/110
f 95/23/316 191/143/316 96/27/316
f 94/19/317 189/144/317 95/23/317
f 93/15/20 187/145/318 94/19/21
f 179/147/319 93/15/319 90/2/319
f 89/10/320 183/149/321 92/5/322
f 183/149/321 91/1/323 92/5/322
f 181/150/123 90/2/125 91/1/324
f 34/44/42 153/151/39 113/152/126
f 113/152/126 154/153/39 112/154/39
f 112/154/39 155/95/39 111/98/39
f 3/11/127 113/152/126 123/12/128
f 123/12/128 112/154/39 124/155/129
f 124/155/129 111/98/39 125/97/94
f 40/53/130 156/156/132 116/157/133
f 116/157/133 157/158/134 115/159/135
f 115/159/135 158/93/93 114/96/92
f 32/42/40 116/157/133 153/151/136
f 153/151/136 115/159/135 154/153/137
f 154/153/137 114/96/91 155/95/90
f 46/61/138 159/160/140 119/161/325
f 119/161/141 160/162/143 118/163/148
f 118/163/326 161/92/326 117/94/326
f 38/52/327 119/161/327 156/156/327
f 156/156/149 118/163/149 157/158/149
f 158/93/328 118/163/328 117/94/328
f 44/60/150 162/164/152 159/160/142
f 159/160/142 163/165/153 160/162/143
f 160/162/145 164/86/85 161/92/84
f 64/84/155 165/166/157 122/167/329
f 122/167/158 166/168/160 121/169/330
f 121/169/161 167/91/163 120/87/331
f 53/71/332 168/170/332 165/166/332
f 165/166/165 169/171/167 166/168/333
f 166/168/162 170/90/169 167/91/163
f 56/75/334 171/172/334 168/170/334
f 168/170/335 172/173/335 169/171/335
f 169/171/336 173/88/336 170/90/336
f 59/79/337 174/174/337 171/172/337
f 171/172/338 175/175/338 172/173/338
f 172/173/339 176/89/339 173/88/339
f 50/65/151 122/167/177 162/164/152
f 162/164/178 121/169/180 163/165/340
f 163/165/181 120/87/183 164/86/341
f 149/176/342 76/177/342 152/179/342
f 148/178/343 152/179/343 151/180/343
f 147/32/344 151/180/344 150/36/344
f 146/181/345 75/99/345 149/176/345
f 145/182/192 149/176/194 148/178/346
f 145/182/347 147/32/347 144/28/347
f 143/183/348 74/102/190 146/181/189
f 142/184/349 146/181/349 145/182/349
f 141/24/200 145/182/202 144/28/350
f 140/185/203 73/104/197 143/183/196
f 139/186/207 143/183/351 142/184/208
f 138/21/352 142/184/352 141/24/352
f 137/187/353 72/106/353 140/185/353
f 136/188/354 140/185/354 139/186/354
f 135/17/355 139/186/355 138/21/355
f 128/189/356 71/108/356 137/187/356
f 127/190/357 137/187/357 136/188/357
f 126/14/216 136/188/218 135/17/358
f 131/191/359 68/110/359 128/189/359
f 130/192/226 128/189/360 127/190/227
f 129/8/361 127/190/217 126/14/216
f 67/45/43 134/193/228 125/97/94
f 125/97/94 133/194/229 124/155/129
f 123/12/11 133/194/362 132/7/12
f 70/115/363 131/191/233 134/193/232
f 133/194/235 131/191/223 130/192/222
f 132/7/364 130/192/364 129/8/364
f 8/13/365 180/195/240 182/196/239
f 182/196/366 179/147/124 181/150/123
f 11/6/245 182/196/245 184/197/246
f 184/197/248 181/150/367 183/149/249
f 3/11/368 184/197/248 178/43/247
f 178/43/41 183/149/121 177/148/120
f 5/16/237 186/198/251 180/195/238
f 180/195/369 185/146/369 179/147/369
f 14/20/250 188/200/370 186/198/251
f 185/146/371 188/200/371 187/145/371
f 188/200/372 20/25/372 190/201/372
f 187/145/373 190/201/373 189/144/373
f 190/201/264 23/31/374 192/202/265
f 189/144/375 192/202/375 191/143/375
f 192/202/266 26/35/268 194/203/376
f 191/143/114 194/203/377 193/141/115
f 194/203/378 29/204/378 196/205/378
f 193/141/379 196/205/379 195/142/379
f 105/129/39 220/206/39 203/207/39
f 203/207/39 219/69/39 204/64/39
f 108/124/39 211/208/39 209/209/39
f 209/209/39 212/82/39 210/78/39
f 107/126/39 209/209/39 207/210/39
f 207/210/39 210/78/39 208/74/39
f 106/127/39 207/210/39 205/211/39
f 205/211/39 208/74/39 206/70/39
f 110/119/39 205/211/39 220/206/39
f 220/206/39 206/70/39 219/69/39
f 103/133/39 203/207/39 201/212/39
f 201/212/39 204/64/39 202/59/39
f 101/137/39 218/213/39 199/214/39
f 199/214/39 217/58/39 200/51/39
f 104/132/39 201/212/39 218/213/39
f 218/213/39 202/59/39 217/58/39
f 99/140/39 216/215/39 197/216/39
f 197/216/39 215/50/39 198/41/39
f 102/136/39 199/214/39 216/215/39
f 216/215/39 200/51/39 215/50/39
f 89/10/9 214/217/272 177/148/120
f 177/148/120 213/40/38 178/43/41
f 100/139/39 197/216/39 214/217/272
f 214/217/272 198/41/39 213/40/38
f 109/122/273 229/219/273 211/208/273
f 63/81/274 224/220/276 223/230/274
f 176/89/277 227/221/277 228/225/277
f 61/121/273 225/218/273 109/122/273
f 211/208/273 230/223/273 212/82/273
f 174/174/277 222/224/277 226/226/277
f 87/80/275 228/225/277 224/220/276
f 212/82/273 222/224/273 62/83/273
f 175/175/277 226/226/277 227/221/277
f 321/1/380 236/3/380 320/2/380
f 242/4/381 321/1/382 322/5/383
f 241/6/384 359/8/385 362/7/386
f 232/9/387 322/5/388 319/10/389
f 233/11/390 362/7/391 353/12/392
f 238/13/393 356/14/394 359/8/395
f 236/3/396 323/15/396 320/2/396
f 235/16/397 365/17/398 356/14/394
f 245/18/399 324/19/400 323/15/401
f 244/20/402 368/21/403 365/17/404
f 248/22/405 325/23/405 324/19/405
f 368/21/406 250/25/406 371/24/406
f 251/26/407 326/27/407 325/23/407
f 250/25/408 374/28/408 371/24/408
f 254/29/409 327/30/410 326/27/411
f 253/31/412 377/32/412 374/28/412
f 257/33/413 328/34/413 327/30/413
f 256/35/414 380/36/414 377/32/414
f 308/37/415 263/39/416 307/38/417
f 443/40/418 262/42/419 428/41/420
f 408/43/421 264/44/422 443/40/418
f 297/45/423 265/46/424 308/37/415
f 310/47/425 269/49/425 309/48/425
f 445/50/420 268/52/420 430/51/420
f 428/41/420 270/53/420 445/50/420
f 307/38/426 271/54/427 310/47/428
f 277/55/429 311/57/430 312/56/431
f 447/58/420 274/60/420 432/59/420
f 430/51/420 276/61/420 447/58/420
f 269/49/432 312/56/432 309/48/432
f 311/57/433 281/63/434 313/62/435
f 432/59/420 280/65/420 434/64/420
f 318/66/436 284/68/437 314/67/438
f 449/69/420 283/71/420 436/70/420
f 314/67/439 287/73/440 315/72/441
f 436/70/420 286/75/442 438/74/420
f 315/72/443 290/77/444 316/76/445
f 438/74/420 289/79/446 440/78/420
f 316/76/447 293/81/448 317/80/449
f 440/78/420 292/83/420 442/82/420
f 434/64/420 294/84/420 449/69/420
f 313/62/450 295/85/451 318/66/452
f 394/86/453 318/66/454 350/87/455
f 403/88/456 317/80/456 406/89/456
f 400/90/457 316/76/457 403/88/457
f 397/91/458 315/72/459 400/90/460
f 350/87/461 314/67/462 397/91/458
f 391/92/463 313/62/464 394/86/465
f 309/48/466 347/94/466 388/93/466
f 347/94/467 311/57/430 391/92/468
f 385/95/469 310/47/428 344/96/470
f 344/96/470 309/48/471 388/93/472
f 355/97/473 308/37/415 341/98/420
f 341/98/420 307/38/417 385/95/420
f 305/99/474 258/101/474 255/100/474
f 304/102/475 255/100/475 252/103/475
f 303/104/476 252/103/477 249/105/478
f 302/106/479 249/105/479 246/107/479
f 301/108/480 246/107/480 243/109/480
f 298/110/481 243/109/482 231/111/483
f 239/112/484 298/110/481 231/111/483
f 234/113/420 300/115/485 240/114/486
f 240/114/486 299/116/487 239/112/488
f 279/117/420 340/119/420 296/118/420
f 288/120/420 339/122/420 291/121/420
f 285/123/420 338/124/420 288/120/420
f 282/125/420 337/126/420 285/123/420
f 296/118/420 336/127/420 282/125/420
f 273/128/420 335/129/420 279/117/420
f 267/130/420 334/132/420 278/131/420
f 278/131/420 333/133/420 273/128/420
f 261/134/420 332/136/420 272/135/420
f 272/135/420 331/137/420 267/130/420
f 232/9/420 330/139/420 266/138/420
f 266/138/420 329/140/420 261/134/420
f 327/30/489 425/142/490 423/141/491
f 326/27/492 423/141/493 421/143/494
f 325/23/495 421/143/495 419/144/495
f 324/19/496 419/144/496 417/145/496
f 323/15/497 417/145/497 415/146/497
f 409/147/498 323/15/498 415/146/498
f 319/10/499 413/149/500 407/148/501
f 413/149/502 321/1/502 411/150/502
f 411/150/503 320/2/504 409/147/505
f 264/44/422 383/151/506 262/42/419
f 343/152/507 384/153/420 383/151/506
f 342/154/420 385/95/420 384/153/420
f 233/11/508 343/152/507 264/44/422
f 353/12/509 342/154/420 343/152/507
f 354/155/510 341/98/420 342/154/420
f 270/53/511 386/156/512 268/52/513
f 346/157/514 387/158/515 386/156/516
f 345/159/517 388/93/518 387/158/519
f 262/42/419 346/157/520 270/53/511
f 383/151/521 345/159/522 346/157/514
f 384/153/523 344/96/524 345/159/517
f 276/61/525 389/160/526 274/60/527
f 349/161/528 390/162/529 389/160/530
f 348/163/531 391/92/532 390/162/533
f 268/52/534 349/161/534 276/61/534
f 386/156/535 348/163/536 349/161/528
f 388/93/537 348/163/537 387/158/537
f 274/60/538 392/164/539 280/65/540
f 389/160/530 393/165/541 392/164/539
f 390/162/529 394/86/465 393/165/541
f 294/84/542 395/166/543 283/71/544
f 352/167/545 396/168/546 395/166/547
f 351/169/548 397/91/549 396/168/550
f 283/71/551 398/170/552 286/75/553
f 395/166/547 399/171/554 398/170/555
f 396/168/550 400/90/556 399/171/557
f 286/75/442 401/172/558 289/79/446
f 398/170/559 402/173/559 401/172/559
f 399/171/560 403/88/560 402/173/560
f 289/79/561 404/174/561 292/83/561
f 401/172/562 405/175/562 404/174/562
f 402/173/563 406/89/563 405/175/563
f 280/65/564 352/167/565 294/84/566
f 392/164/567 351/169/568 352/167/569
f 393/165/570 350/87/571 351/169/572
f 379/176/573 306/177/574 305/99/575
f 378/178/576 382/179/576 379/176/576
f 377/32/577 381/180/577 378/178/577
f 376/181/578 305/99/579 304/102/580
f 375/182/581 379/176/582 376/181/583
f 375/182/584 377/32/584 378/178/584
f 373/183/585 304/102/586 303/104/587
f 372/184/588 376/181/588 373/183/588
f 371/24/589 375/182/590 372/184/591
f 370/185/592 303/104/587 302/106/593
f 369/186/594 373/183/585 370/185/592
f 368/21/595 372/184/596 369/186/597
f 367/187/598 302/106/598 301/108/598
f 366/188/599 370/185/599 367/187/599
f 365/17/600 369/186/600 366/188/600
f 358/189/601 301/108/602 298/110/603
f 357/190/604 367/187/604 358/189/604
f 356/14/605 366/188/606 357/190/607
f 361/191/608 298/110/609 299/116/610
f 360/192/611 358/189/612 361/191/613
f 359/8/614 357/190/615 360/192/616
f 297/45/423 364/193/617 300/115/485
f 355/97/473 363/194/618 364/193/617
f 353/12/509 363/194/618 354/155/510
f 300/115/619 361/191/619 299/116/619
f 363/194/620 361/191/621 364/193/622
f 362/7/623 360/192/611 363/194/624
f 238/13/625 410/195/626 235/16/627
f 412/196/628 409/147/629 410/195/630
f 241/6/631 412/196/631 238/13/631
f 414/197/632 411/150/632 412/196/632
f 233/11/633 414/197/634 241/6/635
f 408/43/636 413/149/637 414/197/638
f 235/16/627 416/198/639 244/20/640
f 410/195/641 415/146/642 416/198/643
f 244/20/402 418/200/644 247/199/645
f 415/146/642 418/200/646 416/198/643
f 418/200/647 250/25/648 247/199/649
f 417/145/650 420/201/650 418/200/650
f 420/201/651 253/31/651 250/25/651
f 419/144/652 422/202/653 420/201/654
f 422/202/655 256/35/656 253/31/657
f 421/143/658 424/203/658 422/202/658
f 424/203/659 259/204/659 256/35/659
f 423/141/660 426/205/660 424/203/660
f 335/129/420 450/206/420 340/119/420
f 433/207/420 449/69/420 450/206/420
f 338/124/420 441/208/420 339/122/420
f 439/209/420 442/82/420 441/208/420
f 337/126/420 439/209/420 338/124/420
f 437/210/420 440/78/420 439/209/420
f 336/127/420 437/210/420 337/126/420
f 435/211/420 438/74/420 437/210/420
f 340/119/420 435/211/420 336/127/420
f 450/206/420 436/70/420 435/211/420
f 333/133/420 433/207/420 335/129/420
f 431/212/420 434/64/420 433/207/420
f 331/137/420 448/213/420 334/132/420
f 429/214/420 447/58/420 448/213/420
f 334/132/420 431/212/420 333/133/420
f 448/213/420 432/59/420 431/212/420
f 329/140/420 446/215/420 332/136/420
f 427/216/420 445/50/420 446/215/420
f 332/136/420 429/214/420 331/137/420
f 446/215/420 430/51/420 429/214/420
f 319/10/499 444/217/661 330/139/420
f 407/148/501 443/40/418 444/217/661
f 330/139/420 427/216/420 329/140/420
f 444/217/661 428/41/420 427/216/420
f 339/122/662 459/219/662 455/218/662
f 293/81/663 454/220/664 317/80/665
f 406/89/666 457/221/666 405/175/666
f 291/121/662 455/218/662 451/222/662
f 441/208/662 460/223/662 459/219/662
f 404/174/666 452/224/666 292/83/666
f 317/80/665 458/225/666 406/89/666
f 442/82/662 452/224/662 460/223/662
f 405/175/666 456/226/666 404/174/666
f 321/1/667 237/227/667 236/3/667
f 242/4/668 237/227/668 321/1/668
f 241/6/384 238/13/669 359/8/385
f 232/9/387 242/4/670 322/5/388
f 233/11/671 241/6/671 362/7/671
f 238/13/393 235/16/397 356/14/394
f 236/3/672 245/18/672 323/15/672
f 235/16/397 244/20/673 365/17/398
f 245/18/674 248/22/674 324/19/674
f 244/20/402 247/199/645 368/21/403
f 248/22/675 251/26/675 325/23/675
f 368/21/676 247/199/649 250/25/648
f 251/26/677 254/29/677 326/27/677
f 250/25/678 253/31/678 374/28/678
f 254/29/409 257/33/679 327/30/410
f 253/31/680 256/35/680 377/32/680
f 257/33/681 260/228/681 328/34/681
f 256/35/682 259/204/682 380/36/682
f 308/37/415 265/46/424 263/39/416
f 443/40/418 264/44/422 262/42/419
f 408/43/421 233/11/508 264/44/422
f 297/45/423 234/113/420 265/46/424
f 310/47/683 271/54/683 269/49/683
f 445/50/420 270/53/420 268/52/420
f 428/41/420 262/42/419 270/53/420
f 307/38/426 263/39/684 271/54/427
f 277/55/429 275/229/685 311/57/430
f 447/58/420 276/61/420 274/60/420
f 430/51/420 268/52/420 276/61/420
f 269/49/686 277/55/686 312/56/686
f 311/57/433 275/229/687 281/63/434
f 432/59/420 274/60/420 280/65/420
f 318/66/436 295/85/688 284/68/437
f 449/69/420 294/84/420 283/71/420
f 314/67/439 284/68/689 287/73/440
f 436/70/420 283/71/420 286/75/442
f 315/72/443 287/73/690 290/77/444
f 438/74/420 286/75/442 289/79/446
f 316/76/447 290/77/691 293/81/448
f 440/78/420 289/79/446 292/83/420
f 434/64/420 280/65/420 294/84/420
f 313/62/450 281/63/692 295/85/451
f 394/86/453 313/62/693 318/66/454
f 403/88/694 316/76/694 317/80/694
f 400/90/695 315/72/695 316/76/695
f 397/91/458 314/67/462 315/72/459
f 350/87/461 318/66/696 314/67/462
f 391/92/463 311/57/697 313/62/464
f 309/48/698 312/56/698 347/94/698
f 347/94/467 312/56/431 311/57/430
f 385/95/469 307/38/426 310/47/428
f 344/96/470 310/47/428 309/48/471
f 355/97/473 297/45/423 308/37/415
f 341/98/420 308/37/415 307/38/417
f 305/99/575 306/177/574 258/101/699
f 304/102/580 305/99/579 255/100/700
f 303/104/587 304/102/586 252/103/701
f 302/106/702 303/104/476 249/105/478
f 301/108/703 302/106/703 246/107/703
f 298/110/603 301/108/602 243/109/704
f 239/112/705 299/116/610 298/110/609
f 234/113/420 297/45/423 300/115/485
f 240/114/486 300/115/485 299/116/487
f 279/117/420 335/129/420 340/119/420
f 288/120/420 338/124/420 339/122/420
f 285/123/420 337/126/420 338/124/420
f 282/125/420 336/127/420 337/126/420
f 296/118/420 340/119/420 336/127/420
f 273/128/420 333/133/420 335/129/420
f 267/130/420 331/137/420 334/132/420
f 278/131/420 334/132/420 333/133/420
f 261/134/420 329/140/420 332/136/420
f 272/135/420 332/136/420 331/137/420
f 232/9/420 319/10/499 330/139/420
f 266/138/420 330/139/420 329/140/420
f 327/30/706 328/34/706 425/142/706
f 326/27/707 327/30/489 423/141/491
f 325/23/708 326/27/708 421/143/708
f 324/19/709 325/23/709 419/144/709
f 323/15/401 324/19/400 417/145/710
f 409/147/711 320/2/711 323/15/711
f 319/10/389 322/5/388 413/149/712
f 413/149/713 322/5/383 321/1/382
f 411/150/503 321/1/714 320/2/504
f 264/44/422 343/152/507 383/151/506
f 343/152/507 342/154/420 384/153/420
f 342/154/420 341/98/420 385/95/420
f 233/11/508 353/12/509 343/152/507
f 353/12/509 354/155/510 342/154/420
f 354/155/510 355/97/473 341/98/420
f 270/53/511 346/157/520 386/156/512
f 346/157/514 345/159/522 387/158/515
f 345/159/517 344/96/524 388/93/518
f 262/42/419 383/151/506 346/157/520
f 383/151/521 384/153/715 345/159/522
f 384/153/523 385/95/716 344/96/524
f 276/61/525 349/161/717 389/160/526
f 349/161/528 348/163/536 390/162/529
f 348/163/531 347/94/718 391/92/532
f 268/52/719 386/156/719 349/161/719
f 386/156/537 387/158/537 348/163/537
f 388/93/720 347/94/720 348/163/720
f 274/60/538 389/160/530 392/164/539
f 389/160/530 390/162/529 393/165/541
f 390/162/529 391/92/463 394/86/465
f 294/84/542 352/167/721 395/166/543
f 352/167/545 351/169/722 396/168/546
f 351/169/548 350/87/723 397/91/549
f 283/71/551 395/166/724 398/170/552
f 395/166/547 396/168/546 399/171/554
f 396/168/550 397/91/549 400/90/556
f 286/75/725 398/170/725 401/172/725
f 398/170/726 399/171/726 402/173/726
f 399/171/727 400/90/727 403/88/727
f 289/79/728 401/172/728 404/174/728
f 401/172/729 402/173/729 405/175/729
f 402/173/730 403/88/730 406/89/730
f 280/65/564 392/164/731 352/167/565
f 392/164/567 393/165/732 351/169/568
f 393/165/570 394/86/733 350/87/571
f 379/176/734 382/179/734 306/177/734
f 378/178/735 381/180/735 382/179/735
f 377/32/736 380/36/736 381/180/736
f 376/181/737 379/176/737 305/99/737
f 375/182/581 378/178/738 379/176/582
f 375/182/739 374/28/739 377/32/739
f 373/183/740 376/181/578 304/102/580
f 372/184/741 375/182/741 376/181/741
f 371/24/589 374/28/742 375/182/590
f 370/185/592 373/183/585 303/104/587
f 369/186/597 372/184/596 373/183/743
f 368/21/744 371/24/744 372/184/744
f 367/187/745 370/185/745 302/106/745
f 366/188/746 369/186/746 370/185/746
f 365/17/747 368/21/747 369/186/747
f 358/189/748 367/187/748 301/108/748
f 357/190/749 366/188/749 367/187/749
f 356/14/605 365/17/750 366/188/606
f 361/191/751 358/189/751 298/110/751
f 360/192/616 357/190/615 358/189/752
f 359/8/753 356/14/605 357/190/607
f 297/45/423 355/97/473 364/193/617
f 355/97/473 354/155/510 363/194/618
f 353/12/392 362/7/391 363/194/754
f 300/115/755 364/193/622 361/191/621
f 363/194/624 360/192/611 361/191/613
f 362/7/756 359/8/756 360/192/756
f 238/13/757 412/196/628 410/195/630
f 412/196/758 411/150/503 409/147/505
f 241/6/635 414/197/634 412/196/635
f 414/197/638 413/149/637 411/150/759
f 233/11/760 408/43/636 414/197/638
f 408/43/500 407/148/501 413/149/500
f 235/16/627 410/195/626 416/198/639
f 410/195/761 409/147/761 415/146/761
f 244/20/640 416/198/639 418/200/762
f 415/146/763 417/145/763 418/200/763
f 418/200/764 420/201/764 250/25/764
f 417/145/765 419/144/765 420/201/765
f 420/201/654 422/202/653 253/31/766
f 419/144/767 421/143/767 422/202/767
f 422/202/655 424/203/768 256/35/656
f 421/143/494 423/141/493 424/203/769
f 424/203/770 426/205/770 259/204/770
f 423/141/771 425/142/771 426/205/771
f 335/129/420 433/207/420 450/206/420
f 433/207/420 434/64/420 449/69/420
f 338/124/420 439/209/420 441/208/420
f 439/209/420 440/78/420 442/82/420
f 337/126/420 437/210/420 439/209/420
f 437/210/420 438/74/420 440/78/420
f 336/127/420 435/211/420 437/210/420
f 435/211/420 436/70/420 438/74/420
f 340/119/420 450/206/420 435/211/420
f 450/206/420 449/69/420 436/70/420
f 333/133/420 431/212/420 433/207/420
f 431/212/420 432/59/420 434/64/420
f 331/137/420 429/214/420 448/213/420
f 429/214/420 430/51/420 447/58/420
f 334/132/420 448/213/420 431/212/420
f 448/213/420 447/58/420 432/59/420
f 329/140/420 427/216/420 446/215/420
f 427/216/420 428/41/420 445/50/420
f 332/136/420 446/215/420 429/214/420
f 446/215/420 445/50/420 430/51/420
f 319/10/499 407/148/501 444/217/661
f 407/148/501 408/43/421 443/40/418
f 330/139/420 444/217/661 427/216/420
f 444/217/661 443/40/418 428/41/420
f 339/122/662 441/208/662 459/219/662
f 293/81/663 453/230/663 454/220/664
f 406/89/666 458/225/666 457/221/666
f 291/121/662 339/122/662 455/218/662
f 441/208/662 442/82/662 460/223/662
f 404/174/666 456/226/666 452/224/666
f 317/80/665 454/220/664 458/225/666
f 442/82/662 292/83/662 452/224/662
f 405/175/666 457/221/666 456/226/666
f 195/142/772 426/205/772 425/142/772
f 35/46/773 234/113/773 4/113/773
f 6/3/774 237/227/774 7/227/774
f 51/63/775 275/229/775 45/229/775
f 36/138/776 261/134/777 31/134/777
f 30/228/772 328/34/772 260/228/772
f 43/128/778 279/117/778 49/117/778
f 221/222/779 291/121/779 451/222/779
f 21/26/780 248/22/780 18/22/780
f 16/107/781 249/105/781 19/105/781
f 54/68/782 295/85/782 65/85/782
f 49/117/783 296/118/783 66/118/783
f 41/54/784 269/49/784 271/54/784
f 10/114/785 239/112/785 9/112/785
f 31/134/786 272/135/786 42/135/786
f 24/29/787 251/26/788 21/26/788
f 7/227/789 242/4/789 12/4/789
f 19/105/781 252/103/781 22/103/781
f 33/39/790 271/54/790 263/39/790
f 12/4/791 232/9/791 2/9/791
f 152/179/772 306/177/772 382/179/772
f 57/73/792 284/68/792 54/68/792
f 42/135/793 267/130/793 37/130/793
f 52/125/794 285/123/794 55/123/794
f 27/33/795 254/29/796 24/29/787
f 22/103/781 255/100/781 25/100/781
f 230/223/797 452/224/797 222/224/797
f 4/113/798 240/114/798 10/114/798
f 76/177/772 258/101/772 306/177/772
f 223/230/797 454/220/797 453/230/797
f 9/112/799 231/111/799 1/111/800
f 60/77/801 287/73/801 57/73/801
f 196/205/772 259/204/772 426/205/772
f 224/220/797 458/225/797 454/220/797
f 55/123/802 288/120/802 58/120/802
f 47/55/803 275/229/804 277/55/805
f 221/222/797 455/218/797 225/218/797
f 37/130/806 278/131/806 48/131/806
f 30/228/807 257/33/807 27/33/807
f 226/226/797 452/224/797 456/226/797
f 25/100/781 258/101/781 28/101/781
f 227/221/797 456/226/797 457/221/797
f 15/18/808 236/3/808 6/3/808
f 39/49/805 277/55/805 269/49/805
f 228/225/797 457/221/797 458/225/797
f 1/111/809 243/109/809 13/109/809
f 63/81/810 290/77/810 60/77/810
f 48/131/811 273/128/811 43/128/811
f 225/218/797 459/219/797 229/219/797
f 58/120/812 291/121/812 61/121/812
f 29/204/772 380/36/772 259/204/772
f 229/219/797 460/223/797 230/223/797
f 150/36/772 381/180/772 380/36/772
f 33/39/773 265/46/773 35/46/773
f 65/85/782 281/63/782 51/63/782
f 151/180/772 382/179/772 381/180/772
f 2/9/813 266/138/813 36/138/813
f 18/22/814 245/18/814 15/18/814
f 66/118/783 282/125/815 52/125/794
f 98/34/772 425/142/772 328/34/772
f 223/230/816 293/81/816 63/81/816
f 13/109/781 246/107/781 16/107/781
f 195/142/772 196/205/772 426/205/772
f 35/46/773 265/46/773 234/113/773
f 6/3/774 236/3/774 237/227/774
f 51/63/775 281/63/775 275/229/775
f 36/138/776 266/138/776 261/134/777
f 30/228/772 98/34/772 328/34/772
f 43/128/778 273/128/778 279/117/778
f 221/222/779 61/121/779 291/121/779
f 21/26/780 251/26/780 248/22/780
f 16/107/781 246/107/781 249/105/781
f 54/68/782 284/68/782 295/85/782
f 49/117/783 279/117/783 296/118/783
f 41/54/784 39/49/784 269/49/784
f 10/114/785 240/114/785 239/112/785
f 31/134/786 261/134/786 272/135/786
f 24/29/787 254/29/796 251/26/788
f 7/227/789 237/227/789 242/4/789
f 19/105/781 249/105/781 252/103/781
f 33/39/790 41/54/790 271/54/790
f 12/4/791 242/4/791 232/9/791
f 152/179/772 76/177/772 306/177/772
f 57/73/792 287/73/792 284/68/792
f 42/135/793 272/135/793 267/130/793
f 52/125/794 282/125/815 285/123/794
f 27/33/795 257/33/795 254/29/796
f 22/103/781 252/103/781 255/100/781
f 230/223/797 460/223/797 452/224/797
f 4/113/798 234/113/798 240/114/798
f 76/177/772 28/101/772 258/101/772
f 223/230/797 224/220/797 454/220/797
f 9/112/799 239/112/799 231/111/799
f 60/77/801 290/77/801 287/73/801
f 196/205/772 29/204/772 259/204/772
f 224/220/797 228/225/797 458/225/797
f 55/123/802 285/123/802 288/120/802
f 47/55/803 45/229/804 275/229/804
f 221/222/797 451/222/797 455/218/797
f 37/130/806 267/130/806 278/131/806
f 30/228/807 260/228/807 257/33/807
f 226/226/797 222/224/797 452/224/797
f 25/100/781 255/100/781 258/101/781
f 227/221/797 226/226/797 456/226/797
f 15/18/808 245/18/808 236/3/808
f 39/49/805 47/55/803 277/55/805
f 228/225/797 227/221/797 457/221/797
f 1/111/809 231/111/809 243/109/809
f 63/81/810 293/81/810 290/77/810
f 48/131/811 278/131/811 273/128/811
f 225/218/797 455/218/797 459/219/797
f 58/120/812 288/120/812 291/121/812
f 29/204/772 150/36/772 380/36/772
f 229/219/797 459/219/797 460/223/797
f 150/36/772 151/180/772 381/180/772
f 33/39/773 263/39/773 265/46/773
f 65/85/782 295/85/782 281/63/782
f 151/180/772 152/179/772 382/179/772
f 2/9/813 232/9/813 266/138/813
f 18/22/814 248/22/814 245/18/814
f 66/118/783 296/118/783 282/125/815
f 98/34/772 195/142/772 425/142/772
f 223/230/816 453/230/816 293/81/816
f 13/109/781 243/109/781 246/107/781
