# Blender 4.1.0
# www.blender.org
mtllib Road3.mtl
o Road
v 0.631591 0.022308 -0.291090
v -0.150648 0.022308 -0.037033
v 0.114916 0.021966 -0.037033
v 0.576620 0.022308 -0.037034
v 0.091926 0.006904 -0.291090
v -0.201290 0.016592 -0.291089
v -0.164909 0.022217 -0.204111
v 0.102866 0.014630 -0.204111
v 0.618197 0.022308 -0.204112
v 0.600205 0.022308 -0.116233
v 0.111273 0.019074 -0.116233
v -0.150648 0.022308 -0.116233
v 0.639849 0.022308 -0.366412
v 0.073608 -0.000427 -0.366412
v -0.246473 0.007151 -0.366412
v 0.639849 0.022308 -0.465197
v 0.043333 -0.005017 -0.465197
v -0.333258 -0.014061 -0.465197
v 0.639849 0.022308 -0.582462
v -0.012046 -0.001572 -0.582462
v -0.447953 -0.038809 -0.582462
v 0.639849 0.022308 -0.679885
v -0.054215 -0.010543 -0.679885
v -0.533036 -0.063637 -0.679885
v 0.639849 0.022308 -0.768255
v -0.103336 -0.032763 -0.768255
v -0.609079 -0.083897 -0.768255
v 0.639849 0.022308 -0.885454
v -0.158147 -0.067218 -0.885453
v -0.712880 -0.104279 -0.885453
v -0.167377 0.022308 0.086975
v 0.101175 0.022308 0.086975
v 0.527207 0.021995 0.086975
v 0.111058 0.022308 0.024971
v 0.551914 0.022301 0.024971
v -0.153664 0.022308 0.024971
v -0.218037 0.022308 0.198930
v 0.056581 0.022308 0.198930
v 0.452838 0.027431 0.198929
v 0.084785 0.022308 0.142952
v 0.493798 0.024307 0.142952
v -0.186819 0.022308 0.142953
v -0.312935 0.022308 0.299525
v -0.016678 0.022308 0.299525
v 0.310861 0.034889 0.299524
v 0.019951 0.022308 0.249227
v 0.382121 0.032552 0.249227
v -0.260211 0.022308 0.249227
v -0.360803 0.022308 0.352527
v -0.069110 0.022308 0.352527
v 0.238133 0.034889 0.352527
v -0.448064 0.022308 0.434833
v -0.163363 0.022308 0.434832
v 0.138615 0.027565 0.434832
v -0.494490 0.022308 0.477709
v -0.221117 0.022308 0.477709
v 0.069893 0.024720 0.477709
v -0.561552 0.022308 0.527857
v -0.285180 0.022308 0.527857
v -0.040319 0.020365 0.527857
v -0.633828 0.022308 0.568278
v -0.357456 0.022308 0.568278
v -0.112595 0.017002 0.568278
v -0.116236 0.022308 0.393680
v 0.188374 0.031227 0.393680
v -0.404433 0.022308 0.393680
v 0.498618 0.022308 -0.037034
v 0.535447 0.020873 -0.291090
v 0.527099 0.022262 -0.204112
v 0.515377 0.022308 -0.116233
v 0.539509 0.019204 -0.366412
v 0.539069 0.017772 -0.465197
v 0.537371 0.016283 -0.582462
v 0.530742 0.014162 -0.679885
v 0.523020 0.010978 -0.768255
v 0.514404 0.007774 -0.885454
v 0.457861 0.022308 0.086975
v 0.480563 0.022308 0.024971
v 0.382474 0.026626 0.198929
v 0.425520 0.024467 0.142952
v 0.247332 0.032911 0.299524
v 0.325188 0.030942 0.249227
v 0.167447 0.032911 0.352527
v 0.055406 0.026739 0.434832
v -0.003962 0.024341 0.477709
v -0.088380 0.020670 0.527857
v -0.160656 0.017836 0.568278
v 0.109336 0.029825 0.393680
v -0.103757 0.022308 -0.037033
v -0.164681 0.016599 -0.291089
v -0.127591 0.021499 -0.204111
v -0.110884 0.022177 -0.116233
v -0.209097 0.007781 -0.366412
v -0.292612 -0.011721 -0.465197
v -0.402209 -0.034609 -0.582462
v -0.488179 -0.057610 -0.679885
v -0.559712 -0.077871 -0.768255
v -0.655809 -0.098252 -0.885453
v -0.119958 0.022308 0.086975
v -0.106921 0.022308 0.024971
v -0.169547 0.022308 0.198930
v -0.138861 0.022308 0.142952
v -0.260624 0.022308 0.299525
v -0.208736 0.022308 0.249227
v -0.323873 0.022308 0.352527
v -0.418646 0.022308 0.434833
v -0.466366 0.022308 0.477709
v -0.532268 0.022308 0.527857
v -0.598878 0.022308 0.568278
v -0.372750 0.022308 0.393680
v 0.388187 0.022308 0.024971
v 0.295811 0.022308 0.024971
v 0.203435 0.022308 0.024971
v 0.340336 0.023927 0.142952
v 0.255153 0.023387 0.142952
v 0.169969 0.022848 0.142952
v 0.248879 0.028783 0.249227
v 0.172570 0.026625 0.249227
v 0.096260 0.024466 0.249227
v 0.052943 0.027946 0.393680
v -0.003450 0.026066 0.393680
v -0.059843 0.024187 0.393680
v 0.210841 0.022291 -0.037033
v 0.306767 0.022308 -0.037034
v 0.402692 0.022308 -0.037034
v 0.202806 0.007065 -0.291090
v 0.313687 0.011794 -0.291090
v 0.424567 0.016494 -0.291090
v 0.208924 0.015714 -0.204111
v 0.314982 0.018800 -0.204111
v 0.421041 0.020732 -0.204111
v 0.212299 0.020572 -0.116233
v 0.313325 0.021978 -0.116233
v 0.414351 0.022252 -0.116233
v 0.190084 -0.000136 -0.366412
v 0.306559 0.005282 -0.366412
v 0.423034 0.012140 -0.366412
v 0.167267 -0.003868 -0.465197
v 0.291201 -0.000733 -0.465197
v 0.415135 0.008356 -0.465197
v 0.125308 0.006183 -0.582462
v 0.262662 -0.000122 -0.582462
v 0.400017 0.004643 -0.582462
v 0.092024 0.006743 -0.679885
v 0.238263 -0.000444 -0.679885
v 0.384503 0.000221 -0.679885
v 0.053253 -0.004414 -0.768255
v 0.209842 -0.006882 -0.768255
v 0.366431 -0.005371 -0.768255
v 0.009990 -0.033056 -0.885453
v 0.178128 -0.020597 -0.885453
v 0.346266 -0.011706 -0.885454
v 0.190346 0.022308 0.086975
v 0.279518 0.022308 0.086975
v 0.368689 0.022308 0.086975
v 0.138054 0.023387 0.198930
v 0.219527 0.024467 0.198930
v 0.301001 0.025546 0.198930
v 0.049324 0.024959 0.299525
v 0.115327 0.027610 0.299525
v 0.181329 0.030261 0.299524
v -0.009971 0.024959 0.352527
v 0.049168 0.027610 0.352527
v 0.108308 0.030261 0.352527
v -0.108670 0.023416 0.434832
v -0.053978 0.024523 0.434832
v 0.000714 0.025631 0.434832
v -0.166828 0.022816 0.477709
v -0.112540 0.023324 0.477709
v -0.058251 0.023832 0.477709
v -0.235980 0.021898 0.527857
v -0.186780 0.021489 0.527857
v -0.137580 0.021080 0.527857
v -0.308256 0.021190 0.568278
v -0.259056 0.020072 0.568278
v -0.209856 0.018954 0.568278
v -0.030866 0.022194 -0.037033
v 0.044320 0.022080 -0.037033
v -0.079146 0.014327 -0.291089
v 0.008685 0.010786 -0.291089
v -0.050772 0.019323 -0.204111
v 0.028342 0.016933 -0.204111
v -0.036832 0.021142 -0.116233
v 0.039515 0.020108 -0.116233
v -0.114862 0.006628 -0.366412
v -0.018332 0.003932 -0.366412
v -0.180630 -0.008607 -0.465197
v -0.066354 -0.004854 -0.465197
v -0.272155 -0.022426 -0.582462
v -0.139806 -0.009667 -0.582462
v -0.343524 -0.041645 -0.679885
v -0.196575 -0.022991 -0.679885
v -0.407587 -0.064191 -0.768255
v -0.253167 -0.046468 -0.768255
v -0.489922 -0.088279 -0.885453
v -0.321740 -0.077952 -0.885453
v -0.046247 0.022308 0.086975
v 0.029759 0.022308 0.086975
v -0.094171 0.022308 0.198930
v -0.016500 0.022308 0.198930
v -0.179309 0.022308 0.299525
v -0.095699 0.022308 0.299525
v -0.238952 0.022308 0.352527
v -0.151736 0.022308 0.352527
v -0.333552 0.022308 0.434832
v -0.246162 0.022308 0.434832
v -0.384616 0.022308 0.477709
v -0.300572 0.022308 0.477709
v -0.449906 0.022308 0.527857
v -0.365248 0.022308 0.527857
v -0.518404 0.022308 0.568278
v -0.435636 0.022308 0.568278
v 0.040694 0.022308 0.024971
v -0.034261 0.022308 0.024971
v 0.012531 0.022308 0.142952
v -0.064312 0.022308 0.142952
v -0.053983 0.022308 0.249227
v -0.132507 0.022308 0.249227
v -0.199446 0.022308 0.393680
v -0.287246 0.022308 0.393680
v -0.773239 0.015448 0.638666
v -0.496868 0.015449 0.638666
v -0.252006 0.010143 0.638666
v -0.300068 0.010977 0.638666
v -0.738290 0.015448 0.638666
v -0.447668 0.014331 0.638666
v -0.398468 0.013213 0.638666
v -0.349268 0.012095 0.638666
v -0.657816 0.015449 0.638666
v -0.575047 0.015449 0.638666
v 0.631591 -0.002597 -0.291090
v -0.150648 -0.002598 -0.037033
v 0.114916 -0.002939 -0.037033
v 0.576620 -0.002597 -0.037034
v 0.091926 -0.018002 -0.291090
v -0.201290 -0.008313 -0.291089
v -0.164909 -0.002689 -0.204111
v 0.102866 -0.010275 -0.204111
v 0.618197 -0.002597 -0.204112
v 0.600205 -0.002597 -0.116233
v 0.111273 -0.005831 -0.116233
v -0.150648 -0.002597 -0.116233
v 0.639849 -0.002597 -0.366412
v 0.073608 -0.025333 -0.366412
v -0.246473 -0.017754 -0.366412
v 0.639849 -0.002597 -0.465197
v 0.043333 -0.029922 -0.465197
v -0.333258 -0.038967 -0.465197
v 0.639849 -0.002597 -0.582462
v -0.012046 -0.026478 -0.582462
v -0.447953 -0.063714 -0.582462
v 0.639849 -0.002597 -0.679885
v -0.054215 -0.035448 -0.679885
v -0.533036 -0.088542 -0.679885
v 0.639849 -0.002597 -0.768255
v -0.103336 -0.057668 -0.768255
v -0.609079 -0.108803 -0.768255
v 0.639849 -0.002597 -0.885454
v -0.158147 -0.092123 -0.885453
v -0.712880 -0.129184 -0.885453
v -0.167377 -0.002598 0.086975
v 0.101175 -0.002597 0.086975
v 0.527207 -0.002910 0.086975
v 0.111058 -0.002597 0.024971
v 0.551914 -0.002605 0.024971
v -0.153664 -0.002598 0.024971
v -0.218037 -0.002598 0.198930
v 0.056581 -0.002598 0.198930
v 0.452838 0.002526 0.198929
v 0.084785 -0.002597 0.142952
v 0.493798 -0.000598 0.142952
v -0.186819 -0.002598 0.142953
v -0.312935 -0.002598 0.299525
v -0.016678 -0.002598 0.299525
v 0.310861 0.009984 0.299524
v 0.019951 -0.002598 0.249227
v 0.382121 0.007647 0.249227
v -0.260211 -0.002598 0.249227
v -0.360803 -0.002598 0.352527
v -0.069110 -0.002598 0.352527
v 0.238133 0.009984 0.352527
v -0.448064 -0.002598 0.434833
v -0.163363 -0.002598 0.434832
v 0.138615 0.002660 0.434832
v -0.494490 -0.002598 0.477709
v -0.221117 -0.002598 0.477709
v 0.069893 -0.000186 0.477709
v -0.561552 -0.002598 0.527857
v -0.285180 -0.002598 0.527857
v -0.040319 -0.004541 0.527857
v -0.633828 -0.002598 0.568278
v -0.357456 -0.002598 0.568278
v -0.112595 -0.007903 0.568278
v -0.116236 -0.002598 0.393680
v 0.188374 0.006322 0.393680
v -0.404433 -0.002598 0.393680
v 0.498618 -0.002597 -0.037034
v 0.535447 -0.004032 -0.291090
v 0.527099 -0.002643 -0.204112
v 0.515377 -0.002597 -0.116233
v 0.539509 -0.005701 -0.366412
v 0.539069 -0.007133 -0.465197
v 0.537371 -0.008623 -0.582462
v 0.530742 -0.010744 -0.679885
v 0.523020 -0.013927 -0.768255
v 0.514404 -0.017131 -0.885454
v 0.457861 -0.002597 0.086975
v 0.480563 -0.002597 0.024971
v 0.382474 0.001720 0.198929
v 0.425520 -0.000439 0.142952
v 0.247332 0.008006 0.299524
v 0.325188 0.006036 0.249227
v 0.167447 0.008006 0.352527
v 0.055406 0.001833 0.434832
v -0.003962 -0.000565 0.477709
v -0.088380 -0.004235 0.527857
v -0.160656 -0.007069 0.568278
v 0.109336 0.004920 0.393680
v -0.103757 -0.002597 -0.037033
v -0.164681 -0.008306 -0.291089
v -0.127591 -0.003407 -0.204111
v -0.110884 -0.002729 -0.116233
v -0.209097 -0.017124 -0.366412
v -0.292612 -0.036626 -0.465197
v -0.402209 -0.059514 -0.582462
v -0.488179 -0.082516 -0.679885
v -0.559712 -0.102776 -0.768255
v -0.655809 -0.123158 -0.885453
v -0.119958 -0.002598 0.086975
v -0.106921 -0.002598 0.024971
v -0.169547 -0.002598 0.198930
v -0.138861 -0.002598 0.142952
v -0.260624 -0.002598 0.299525
v -0.208736 -0.002598 0.249227
v -0.323873 -0.002598 0.352527
v -0.418646 -0.002598 0.434833
v -0.466366 -0.002598 0.477709
v -0.532268 -0.002598 0.527857
v -0.598878 -0.002598 0.568278
v -0.372750 -0.002598 0.393680
v 0.388187 -0.002597 0.024971
v 0.295811 -0.002597 0.024971
v 0.203435 -0.002597 0.024971
v 0.340336 -0.000978 0.142952
v 0.255153 -0.001518 0.142952
v 0.169969 -0.002058 0.142952
v 0.248879 0.003878 0.249227
v 0.172570 0.001719 0.249227
v 0.096260 -0.000439 0.249227
v 0.052943 0.003040 0.393680
v -0.003450 0.001161 0.393680
v -0.059843 -0.000718 0.393680
v 0.210841 -0.002615 -0.037033
v 0.306767 -0.002597 -0.037034
v 0.402692 -0.002597 -0.037034
v 0.202806 -0.017840 -0.291090
v 0.313687 -0.013111 -0.291090
v 0.424567 -0.008412 -0.291090
v 0.208924 -0.009192 -0.204111
v 0.314982 -0.006106 -0.204111
v 0.421041 -0.004173 -0.204111
v 0.212299 -0.004334 -0.116233
v 0.313325 -0.002927 -0.116233
v 0.414351 -0.002653 -0.116233
v 0.190084 -0.025041 -0.366412
v 0.306559 -0.019624 -0.366412
v 0.423034 -0.012766 -0.366412
v 0.167267 -0.028774 -0.465197
v 0.291201 -0.025638 -0.465197
v 0.415135 -0.016549 -0.465197
v 0.125308 -0.018722 -0.582462
v 0.262662 -0.025028 -0.582462
v 0.400017 -0.020263 -0.582462
v 0.092024 -0.018163 -0.679885
v 0.238263 -0.025350 -0.679885
v 0.384503 -0.024685 -0.679885
v 0.053253 -0.029319 -0.768255
v 0.209842 -0.031787 -0.768255
v 0.366431 -0.030277 -0.768255
v 0.009990 -0.057962 -0.885453
v 0.178128 -0.045502 -0.885453
v 0.346266 -0.036612 -0.885454
v 0.190346 -0.002597 0.086975
v 0.279518 -0.002597 0.086975
v 0.368689 -0.002597 0.086975
v 0.138054 -0.001518 0.198930
v 0.219527 -0.000439 0.198930
v 0.301001 0.000641 0.198930
v 0.049324 0.000053 0.299525
v 0.115327 0.002704 0.299525
v 0.181329 0.005355 0.299524
v -0.009971 0.000053 0.352527
v 0.049168 0.002704 0.352527
v 0.108308 0.005355 0.352527
v -0.108670 -0.001490 0.434832
v -0.053978 -0.000382 0.434832
v 0.000714 0.000726 0.434832
v -0.166828 -0.002089 0.477709
v -0.112540 -0.001581 0.477709
v -0.058251 -0.001073 0.477709
v -0.235980 -0.003007 0.527857
v -0.186780 -0.003416 0.527857
v -0.137580 -0.003826 0.527857
v -0.308256 -0.003715 0.568278
v -0.259056 -0.004833 0.568278
v -0.209856 -0.005951 0.568278
v -0.030866 -0.002711 -0.037033
v 0.044320 -0.002825 -0.037033
v -0.079146 -0.010578 -0.291089
v 0.008685 -0.014119 -0.291089
v -0.050772 -0.005583 -0.204111
v 0.028342 -0.007972 -0.204111
v -0.036832 -0.003763 -0.116233
v 0.039515 -0.004797 -0.116233
v -0.114862 -0.018278 -0.366412
v -0.018332 -0.020973 -0.366412
v -0.180630 -0.033512 -0.465197
v -0.066354 -0.029759 -0.465197
v -0.272155 -0.047332 -0.582462
v -0.139806 -0.034572 -0.582462
v -0.343524 -0.066550 -0.679885
v -0.196575 -0.047897 -0.679885
v -0.407587 -0.089097 -0.768255
v -0.253167 -0.071374 -0.768255
v -0.489922 -0.113185 -0.885453
v -0.321740 -0.102858 -0.885453
v -0.046247 -0.002598 0.086975
v 0.029759 -0.002597 0.086975
v -0.094171 -0.002598 0.198930
v -0.016500 -0.002598 0.198930
v -0.179309 -0.002598 0.299525
v -0.095699 -0.002598 0.299525
v -0.238952 -0.002598 0.352527
v -0.151736 -0.002598 0.352527
v -0.333552 -0.002598 0.434832
v -0.246162 -0.002598 0.434832
v -0.384616 -0.002598 0.477709
v -0.300572 -0.002598 0.477709
v -0.449906 -0.002598 0.527857
v -0.365248 -0.002598 0.527857
v -0.518404 -0.002598 0.568278
v -0.435636 -0.002598 0.568278
v 0.040694 -0.002597 0.024971
v -0.034261 -0.002597 0.024971
v 0.012531 -0.002598 0.142952
v -0.064312 -0.002598 0.142952
v -0.053983 -0.002598 0.249227
v -0.132507 -0.002598 0.249227
v -0.199446 -0.002598 0.393680
v -0.287246 -0.002598 0.393680
v -0.773239 -0.009457 0.638666
v -0.496868 -0.009457 0.638666
v -0.252006 -0.014762 0.638666
v -0.300068 -0.013928 0.638666
v -0.738290 -0.009457 0.638666
v -0.447668 -0.010575 0.638666
v -0.398468 -0.011693 0.638666
v -0.349268 -0.012810 0.638666
v -0.657816 -0.009457 0.638666
v -0.575047 -0.009457 0.638666
vn -0.0002 0.9984 -0.0562
vn 0.0033 1.0000 -0.0080
vn 0.0039 1.0000 0.0011
vn 0.0041 1.0000 -0.0085
vn -0.0145 0.9984 -0.0543
vn -0.0148 0.9984 -0.0546
vn -0.0104 0.9987 -0.0497
vn 0.0020 1.0000 0.0002
vn 0.0048 0.9999 -0.0089
vn -0.0034 0.9998 -0.0218
vn -0.0127 0.9997 -0.0219
vn -0.0047 0.9998 -0.0218
vn -0.0095 0.9952 -0.0975
vn -0.0102 0.9951 -0.0982
vn -0.0067 0.9960 -0.0891
vn -0.0002 0.9932 -0.1162
vn -0.0017 0.9954 -0.0960
vn -0.0023 0.9954 -0.0960
vn -0.0166 0.9835 -0.1802
vn -0.0168 0.9835 -0.1799
vn -0.0187 0.9838 -0.1784
vn 0.0016 0.9991 -0.0435
vn -0.0025 0.9993 -0.0372
vn -0.0089 0.9990 -0.0433
vn -0.0569 0.9886 -0.1397
vn -0.0561 0.9929 0.1052
vn -0.0904 0.9841 -0.1526
vn -0.0564 0.9981 0.0250
vn -0.1230 0.9849 -0.1215
vn -0.1322 0.9841 -0.1186
vn -0.1294 0.9844 -0.1195
vn -0.1171 0.9904 -0.0737
vn -0.1209 0.9900 -0.0731
vn -0.1755 0.9693 -0.1721
vn 0.0015 1.0000 0.0033
vn -0.0004 1.0000 -0.0001
vn 0.0044 1.0000 0.0018
vn 0.0002 1.0000 -0.0016
vn -0.0000 1.0000 -0.0000
vn -0.0002 1.0000 -0.0055
vn 0.0010 0.9999 -0.0100
vn 0.0002 1.0000 -0.0025
vn -0.0001 1.0000 -0.0001
vn 0.0001 1.0000 -0.0004
vn -0.0065 0.9990 -0.0436
vn -0.0146 0.9990 -0.0426
vn -0.0114 0.9988 -0.0473
vn 0.0008 1.0000 0.0002
vn 0.0023 0.9993 -0.0381
vn -0.0041 0.9994 -0.0332
vn 0.0035 0.9993 -0.0379
vn -0.0308 0.9955 -0.0896
vn -0.0282 0.9962 -0.0826
vn -0.0284 0.9959 -0.0858
vn -0.0114 0.9951 -0.0984
vn -0.0284 0.9987 -0.0422
vn -0.0279 0.9987 -0.0421
vn -0.0306 0.9986 -0.0426
vn -0.0099 0.9980 0.0619
vn -0.0093 0.9982 0.0584
vn -0.0099 0.9986 0.0517
vn -0.0051 0.9988 0.0488
vn -0.0076 0.9987 0.0496
vn 0.0050 1.0000 0.0064
vn 0.0063 0.9965 0.0836
vn 0.0166 0.9958 0.0905
vn 0.0063 0.9958 0.0918
vn 0.0052 1.0000 0.0066
vn 0.0173 0.9948 0.1006
vn 0.0087 0.9954 0.0955
vn -0.0273 0.9981 0.0547
vn -0.0177 0.9986 0.0499
vn -0.0182 0.9986 0.0501
vn -0.0345 0.9993 0.0114
vn -0.0333 0.9994 0.0114
vn -0.0436 0.9990 0.0117
vn 0.0226 0.9954 0.0928
vn 0.0083 0.9977 0.0679
vn -0.0127 0.9994 0.0312
vn -0.0094 0.9995 0.0291
vn -0.0187 0.9994 0.0280
vn -0.0215 0.9993 0.0306
vn -0.0282 0.9993 0.0251
vn -0.0430 0.9974 -0.0578
vn -0.0419 0.9973 -0.0601
vn -0.0408 0.9973 -0.0606
vn -0.0132 0.9969 -0.0778
vn -0.0386 0.9958 -0.0829
vn -0.0400 0.9958 -0.0830
vn 0.0004 0.9993 -0.0367
vn -0.0067 0.9997 -0.0241
vn -0.0040 0.9992 -0.0390
vn -0.0156 0.9994 -0.0318
vn -0.0007 1.0000 -0.0027
vn -0.0965 0.9953 -0.0000
vn -0.0745 0.9972 -0.0000
vn -0.0587 0.9983 -0.0017
vn -0.0587 0.9982 -0.0103
vn -0.0587 0.9983 -0.0000
vn -0.0450 0.9990 -0.0000
vn -0.0309 0.9995 -0.0000
vn -0.0149 0.9999 -0.0020
vn -0.0149 0.9999 -0.0019
vn -0.0149 0.9999 -0.0016
vn -0.0149 0.9999 -0.0023
vn -0.0001 1.0000 -0.0002
vn -0.0002 1.0000 -0.0002
vn -0.0005 1.0000 -0.0001
vn -0.0003 1.0000 -0.0003
vn -0.0885 0.9842 -0.1534
vn -0.0885 0.9842 -0.1536
vn -0.0887 0.9861 -0.1404
vn -0.1081 0.9792 -0.1715
vn -0.1086 0.9792 -0.1711
vn -0.1121 0.9793 -0.1686
vn -0.0925 0.9876 -0.1270
vn -0.0277 0.9950 -0.0957
vn 0.0121 0.9870 -0.1603
vn 0.0122 0.9941 -0.1074
vn 0.0008 1.0000 -0.0023
vn 0.0071 0.9998 -0.0164
vn 0.0283 0.9993 -0.0252
vn 0.0272 0.9974 -0.0670
vn 0.0294 0.9973 -0.0669
vn 0.0282 0.9973 -0.0682
vn -0.0005 1.0000 -0.0031
vn -0.0022 1.0000 -0.0024
vn 0.0006 1.0000 -0.0021
vn -0.0000 1.0000 -0.0001
vn -0.0070 0.9999 -0.0126
vn -0.0132 0.9999 -0.0067
vn -0.0143 0.9999 -0.0090
vn -0.0059 1.0000 -0.0056
vn -0.0150 0.9997 -0.0202
vn -0.0064 0.9999 -0.0156
vn -0.0007 0.9998 -0.0176
vn -0.0002 0.9996 -0.0272
vn -0.0286 0.9989 -0.0360
vn -0.0401 0.9988 -0.0292
vn -0.0395 0.9988 -0.0296
vn -0.0295 0.9987 -0.0427
vn -0.0422 0.9981 -0.0457
vn -0.0447 0.9973 -0.0580
vn -0.0400 0.9971 -0.0651
vn -0.0283 0.9994 -0.0206
vn -0.0282 0.9986 -0.0449
vn -0.0282 0.9983 -0.0512
vn -0.0132 0.9984 -0.0552
vn -0.0442 0.9980 -0.0443
vn -0.0410 0.9981 -0.0450
vn -0.0438 0.9983 -0.0383
vn -0.0401 0.9978 -0.0529
vn -0.0211 0.9995 -0.0230
vn -0.0202 0.9995 -0.0232
vn -0.0325 0.9993 -0.0209
vn -0.0213 0.9998 -0.0051
vn -0.0110 0.9999 -0.0013
vn -0.0314 0.9995 -0.0012
vn -0.0214 0.9997 0.0127
vn -0.0122 0.9998 0.0134
vn -0.0277 0.9994 0.0186
vn -0.0094 0.9999 -0.0126
vn -0.0094 1.0000 0.0013
vn -0.0188 0.9998 0.0004
vn -0.0094 0.9998 0.0152
vn -0.0187 0.9997 0.0142
vn 0.0083 0.9999 0.0106
vn 0.0083 0.9995 0.0298
vn 0.0083 0.9988 0.0489
vn 0.0227 0.9989 0.0406
vn 0.0227 0.9981 0.0580
vn 0.0226 0.9969 0.0754
vn -0.0333 0.9987 -0.0381
vn -0.0442 0.9984 -0.0356
vn -0.0341 0.9992 -0.0215
vn -0.0333 0.9992 -0.0216
vn -0.0440 0.9988 -0.0199
vn -0.0343 0.9994 -0.0050
vn -0.0333 0.9994 -0.0051
vn -0.0438 0.9990 -0.0041
vn -0.1038 0.9944 -0.0196
vn -0.1138 0.9933 -0.0188
vn -0.1049 0.9943 -0.0195
vn -0.0096 0.9986 -0.0523
vn 0.0156 0.9926 -0.1204
vn -0.0949 0.9951 -0.0280
vn -0.0955 0.9950 -0.0293
vn -0.0950 0.9951 -0.0275
vn -0.0053 0.9980 -0.0633
vn -0.0045 0.9981 -0.0622
vn -0.0090 0.9976 -0.0686
vn 0.0157 0.9969 -0.0777
vn -0.0773 0.9969 -0.0155
vn -0.0747 0.9971 -0.0170
vn -0.0835 0.9964 -0.0160
vn -0.0346 0.9986 -0.0398
vn 0.0462 0.9988 -0.0144
vn 0.0459 0.9988 -0.0148
vn 0.0487 0.9987 -0.0114
vn -0.0808 0.9966 -0.0134
vn -0.0758 0.9971 -0.0116
vn -0.0731 0.9971 -0.0221
vn -0.0253 0.9996 0.0114
vn -0.0340 0.9993 0.0135
vn -0.0261 0.9996 0.0116
vn -0.0605 0.9981 -0.0142
vn -0.0587 0.9977 -0.0335
vn -0.0464 0.9975 -0.0535
vn -0.0395 0.9989 -0.0243
vn -0.0320 0.9992 -0.0239
vn -0.0384 0.9990 -0.0242
vn -0.0423 0.9975 -0.0568
vn -0.0437 0.9955 -0.0840
vn -0.0424 0.9947 -0.0939
vn -0.0459 0.9952 -0.0868
vn -0.0144 0.9997 -0.0173
vn -0.0009 0.9999 -0.0160
vn -0.0143 0.9997 -0.0173
vn -0.0159 0.9988 -0.0458
vn -0.0182 0.9991 -0.0386
vn -0.0182 0.9986 -0.0494
vn -0.0290 0.9964 -0.0798
vn -0.0407 0.9960 -0.0796
vn -0.0305 0.9963 -0.0798
vn -0.0002 1.0000 -0.0003
vn -0.0022 1.0000 -0.0018
vn -0.0144 0.9999 -0.0024
vn -0.0027 0.9998 -0.0175
vn -0.0017 0.9998 -0.0174
vn -0.0016 0.9998 -0.0174
vn -0.0139 0.9992 -0.0364
vn -0.0177 0.9992 -0.0365
vn 0.0464 0.9945 -0.0942
vn 0.0467 0.9932 -0.1071
vn 0.0464 0.9943 -0.0964
vn 0.0385 0.9961 -0.0791
vn 0.0326 0.9964 -0.0778
vn 0.0402 0.9960 -0.0795
vn 0.0308 0.9981 -0.0534
vn 0.0302 0.9987 -0.0399
vn 0.0144 0.9992 -0.0371
vn 0.0144 0.9992 -0.0377
vn 0.0144 0.9992 -0.0372
vn 0.0117 0.9996 -0.0256
vn 0.0051 0.9997 -0.0234
vn 0.0135 0.9996 -0.0253
vn 0.0471 0.9927 -0.1106
vn 0.0467 0.9931 -0.1077
vn 0.0278 0.9946 -0.1005
vn 0.0278 0.9944 -0.1017
vn 0.0278 0.9945 -0.1006
vn -0.0084 0.9990 -0.0439
vn 0.0015 0.9989 -0.0469
vn 0.0278 0.9944 -0.1019
vn 0.0015 0.9996 0.0287
vn 0.0002 0.9996 0.0293
vn -0.0082 0.9994 0.0332
vn -0.0328 0.9993 -0.0205
vn -0.0631 0.9959 -0.0644
vn -0.0957 0.9922 -0.0800
vn -0.0952 0.9922 -0.0802
vn -0.0871 0.9926 -0.0850
vn -0.0858 0.9763 -0.1985
vn -0.0854 0.9765 -0.1981
vn -0.0888 0.9754 -0.2015
vn -0.1239 0.9758 -0.1799
vn -0.0884 0.9661 -0.2427
vn -0.1118 0.9742 -0.1963
vn 0.0002 1.0000 -0.0007
vn -0.0000 0.9953 0.0970
vn 0.0172 0.9913 0.1307
vn 0.0217 0.9900 0.1394
vn 0.0180 0.9911 0.1323
vn 0.0225 0.9898 0.1410
vn 0.0192 0.9972 -0.0725
vn 0.0192 0.9998 -0.0042
vn -0.0102 0.9987 -0.0495
vn -0.0148 0.9992 -0.0358
vn -0.0167 0.9933 -0.1145
vn -0.0025 0.9954 -0.0963
vn -0.0567 0.9852 -0.1617
vn -0.0908 0.9886 -0.1199
vn -0.0093 0.9994 0.0337
vn -0.1319 0.9820 -0.1350
vn -0.1173 0.9923 -0.0406
vn -0.1203 0.9852 -0.1224
vn -0.1762 0.9733 -0.1468
vn -0.1047 0.9913 -0.0797
vn -0.1954 0.9619 -0.1914
vn 0.0023 0.9985 -0.0540
vn 0.0045 0.9992 -0.0386
vn -0.0310 0.9954 -0.0902
vn -0.0280 0.9897 -0.1401
vn -0.0311 0.9986 -0.0427
vn -0.0177 0.9976 0.0674
vn -0.0051 0.9971 0.0753
vn -0.0279 0.9981 0.0550
vn -0.0448 0.9989 0.0117
vn 0.0083 0.9964 0.0847
vn -0.0093 0.9983 0.0573
vn -0.0333 0.9990 0.0313
vn -0.0401 0.9974 -0.0604
vn -0.0281 0.9927 -0.1172
vn -0.1151 0.9932 -0.0187
vn -0.0965 0.9950 -0.0274
vn -0.0744 0.9971 -0.0166
vn -0.0587 0.9982 -0.0118
vn -0.0450 0.9989 -0.0143
vn -0.0309 0.9992 -0.0238
vn -0.0005 0.9999 -0.0160
vn -0.0596 0.9906 -0.1234
vn -0.0885 0.9841 -0.1540
vn -0.1087 0.9847 -0.1366
vn -0.0927 0.9900 -0.1066
vn -0.0274 0.9848 -0.1713
vn 0.0263 0.9910 -0.1315
vn -0.0283 0.9989 -0.0361
vn -0.0282 0.9973 -0.0672
vn -0.0132 0.9994 -0.0324
vn -0.0282 0.9952 -0.0932
vn -0.0333 0.9992 -0.0208
vn -0.0333 0.9994 -0.0034
vn -0.0333 0.9993 0.0139
vn -0.0202 0.9997 -0.0135
vn -0.0094 0.9999 0.0054
vn -0.0094 0.9997 0.0227
vn -0.0094 0.9992 0.0401
vn 0.0083 0.9994 0.0324
vn 0.0083 0.9987 0.0499
vn 0.0083 0.9977 0.0673
vn -0.0448 0.9988 -0.0198
vn -0.0448 0.9990 -0.0041
vn -0.1150 0.9928 -0.0339
vn -0.0525 0.9934 -0.1020
vn -0.0722 0.9747 -0.2115
vn -0.1038 0.9937 -0.0417
vn -0.0096 0.9975 -0.0696
vn 0.0486 0.9881 -0.1460
vn -0.0949 0.9950 -0.0301
vn -0.0045 1.0000 -0.0022
vn 0.0491 0.9987 -0.0110
vn -0.0347 0.9993 0.0136
vn 0.0457 0.9966 0.0691
vn -0.0757 0.9966 -0.0321
vn -0.0731 0.9961 -0.0493
vn -0.0253 0.9992 -0.0319
vn -0.0604 0.9966 -0.0564
vn -0.0586 0.9950 -0.0805
vn -0.0463 0.9951 -0.0873
vn -0.0394 0.9980 -0.0502
vn -0.0422 0.9959 -0.0796
vn -0.0424 0.9945 -0.0959
vn -0.0139 0.9997 -0.0220
vn -0.0006 0.9998 -0.0173
vn -0.0290 0.9981 -0.0541
vn 0.0308 0.9965 -0.0774
vn 0.0301 0.9973 -0.0671
vn 0.0144 0.9992 -0.0379
vn 0.0135 0.9996 -0.0228
vn 0.0016 0.9997 -0.0250
vn 0.0400 0.9919 -0.1204
vn 0.0471 0.9927 -0.1112
vn -0.0325 0.9908 -0.1311
vn -0.0632 0.9980 -0.0014
vn -0.0959 0.9945 -0.0424
vn -0.0868 0.9926 -0.0852
vn -0.1253 0.9868 -0.1029
vn -0.0892 0.9753 -0.2020
vn -0.1124 0.9793 -0.1684
vn -0.0638 0.9725 -0.2239
vn -0.0605 0.9853 -0.1600
vn 0.0002 -0.9984 0.0562
vn -0.0033 -1.0000 0.0080
vn -0.0040 -1.0000 0.0085
vn -0.0014 -1.0000 0.0039
vn 0.0145 -0.9984 0.0543
vn 0.0104 -0.9987 0.0497
vn 0.0148 -0.9984 0.0546
vn -0.0020 -1.0000 -0.0002
vn -0.0070 -0.9999 0.0085
vn 0.0034 -0.9998 0.0218
vn 0.0047 -0.9998 0.0218
vn 0.0127 -0.9997 0.0219
vn 0.0095 -0.9952 0.0975
vn 0.0066 -0.9960 0.0892
vn 0.0102 -0.9951 0.0982
vn 0.0002 -0.9932 0.1162
vn 0.0017 -0.9954 0.0960
vn 0.0024 -0.9954 0.0961
vn 0.0166 -0.9835 0.1802
vn 0.0188 -0.9838 0.1784
vn 0.0168 -0.9835 0.1799
vn -0.0016 -0.9991 0.0435
vn 0.0089 -0.9990 0.0433
vn 0.0025 -0.9993 0.0372
vn 0.0569 -0.9886 0.1397
vn 0.0561 -0.9929 -0.1052
vn 0.0904 -0.9841 0.1526
vn 0.0564 -0.9981 -0.0250
vn 0.1230 -0.9849 0.1215
vn 0.1295 -0.9844 0.1195
vn 0.1322 -0.9841 0.1186
vn 0.1171 -0.9904 0.0737
vn 0.1209 -0.9900 0.0731
vn 0.1755 -0.9693 0.1721
vn -0.0015 -1.0000 -0.0033
vn -0.0044 -1.0000 -0.0018
vn 0.0004 -1.0000 0.0001
vn -0.0002 -1.0000 0.0016
vn 0.0002 -1.0000 0.0055
vn -0.0000 -1.0000 -0.0000
vn -0.0003 -1.0000 0.0096
vn -0.0002 -1.0000 0.0025
vn 0.0001 -1.0000 0.0001
vn -0.0001 -1.0000 0.0004
vn 0.0100 -0.9993 0.0371
vn 0.0114 -0.9988 0.0473
vn 0.0141 -0.9991 0.0404
vn 0.0018 -0.9999 0.0104
vn -0.0023 -0.9993 0.0381
vn -0.0035 -0.9993 0.0379
vn 0.0308 -0.9955 0.0896
vn 0.0284 -0.9959 0.0858
vn 0.0282 -0.9962 0.0826
vn 0.0114 -0.9951 0.0984
vn 0.0284 -0.9987 0.0422
vn 0.0306 -0.9986 0.0426
vn 0.0279 -0.9987 0.0421
vn 0.0169 -0.9976 -0.0668
vn 0.0089 -0.9984 -0.0565
vn 0.0092 -0.9983 -0.0581
vn 0.0076 -0.9987 -0.0496
vn 0.0051 -0.9988 -0.0488
vn -0.0050 -1.0000 -0.0064
vn -0.0036 -0.9967 -0.0817
vn 0.0026 -0.9970 -0.0772
vn -0.0063 -0.9965 -0.0836
vn -0.0051 -1.0000 -0.0066
vn -0.0149 -0.9950 -0.0992
vn -0.0087 -0.9954 -0.0955
vn -0.0173 -0.9948 -0.1006
vn 0.0274 -0.9981 -0.0548
vn 0.0182 -0.9986 -0.0501
vn 0.0177 -0.9986 -0.0499
vn 0.0345 -0.9993 -0.0114
vn 0.0437 -0.9990 -0.0117
vn 0.0333 -0.9994 -0.0114
vn -0.0226 -0.9954 -0.0928
vn -0.0083 -0.9977 -0.0679
vn 0.0127 -0.9994 -0.0312
vn 0.0187 -0.9994 -0.0280
vn 0.0094 -0.9995 -0.0291
vn 0.0215 -0.9993 -0.0306
vn 0.0281 -0.9993 -0.0252
vn 0.0436 -0.9974 0.0570
vn 0.0408 -0.9973 0.0606
vn 0.0419 -0.9973 0.0601
vn 0.0132 -0.9969 0.0778
vn 0.0386 -0.9958 0.0829
vn 0.0400 -0.9958 0.0830
vn 0.0007 -0.9993 0.0379
vn 0.0046 -0.9991 0.0412
vn 0.0132 -0.9992 0.0382
vn 0.0007 -1.0000 0.0027
vn 0.0965 -0.9953 -0.0000
vn 0.0745 -0.9972 -0.0000
vn 0.0587 -0.9983 0.0017
vn 0.0587 -0.9983 -0.0000
vn 0.0587 -0.9982 0.0104
vn 0.0450 -0.9990 -0.0000
vn 0.0309 -0.9995 -0.0000
vn 0.0149 -0.9999 0.0020
vn 0.0149 -0.9999 0.0016
vn 0.0149 -0.9999 0.0019
vn 0.0149 -0.9999 0.0023
vn 0.0002 -1.0000 0.0002
vn 0.0001 -1.0000 0.0002
vn 0.0003 -1.0000 0.0003
vn 0.0005 -1.0000 0.0001
vn 0.0885 -0.9842 0.1534
vn 0.0887 -0.9861 0.1404
vn 0.0885 -0.9842 0.1536
vn 0.1081 -0.9792 0.1715
vn 0.1121 -0.9793 0.1686
vn 0.1085 -0.9792 0.1712
vn 0.0925 -0.9876 0.1270
vn 0.0277 -0.9950 0.0957
vn -0.0121 -0.9870 0.1603
vn -0.0122 -0.9941 0.1074
vn -0.0026 -0.9999 0.0150
vn -0.0008 -1.0000 0.0023
vn -0.0283 -0.9993 0.0252
vn -0.0271 -0.9974 0.0670
vn -0.0282 -0.9973 0.0682
vn -0.0294 -0.9973 0.0669
vn -0.0000 -1.0000 -0.0015
vn 0.0005 -1.0000 0.0031
vn 0.0022 -1.0000 0.0023
vn -0.0006 -1.0000 0.0021
vn -0.0000 -1.0000 0.0001
vn 0.0126 -0.9999 0.0073
vn 0.0132 -0.9999 0.0067
vn 0.0067 -0.9997 0.0220
vn 0.0126 -0.9998 0.0178
vn 0.0132 -0.9998 0.0172
vn 0.0058 -0.9995 0.0319
vn 0.0127 -0.9995 0.0282
vn 0.0132 -0.9995 0.0277
vn 0.0066 -1.0000 0.0042
vn 0.0007 -0.9998 0.0185
vn 0.0072 -0.9999 0.0146
vn 0.0007 -0.9996 0.0281
vn 0.0079 -0.9997 0.0250
vn 0.0286 -0.9989 0.0360
vn 0.0395 -0.9988 0.0296
vn 0.0401 -0.9988 0.0292
vn 0.0295 -0.9987 0.0427
vn 0.0442 -0.9978 0.0501
vn 0.0422 -0.9981 0.0457
vn 0.0392 -0.9971 0.0652
vn 0.0289 -0.9973 0.0671
vn 0.0400 -0.9971 0.0651
vn 0.0283 -0.9994 0.0206
vn 0.0282 -0.9986 0.0449
vn 0.0282 -0.9983 0.0512
vn 0.0132 -0.9984 0.0552
vn 0.0442 -0.9980 0.0443
vn 0.0422 -0.9979 0.0501
vn 0.0345 -0.9985 0.0414
vn 0.0423 -0.9976 0.0546
vn 0.0211 -0.9995 0.0230
vn 0.0325 -0.9993 0.0209
vn 0.0202 -0.9995 0.0232
vn 0.0213 -0.9998 0.0051
vn 0.0246 -0.9997 -0.0031
vn 0.0126 -0.9999 0.0042
vn 0.0214 -0.9997 -0.0127
vn 0.0277 -0.9994 -0.0186
vn 0.0121 -0.9998 -0.0134
vn 0.0108 -0.9999 0.0127
vn 0.0188 -0.9997 0.0134
vn 0.0094 -0.9999 0.0126
vn 0.0188 -0.9998 -0.0004
vn 0.0094 -1.0000 -0.0013
vn 0.0187 -0.9997 -0.0142
vn 0.0094 -0.9998 -0.0152
vn -0.0083 -0.9999 -0.0106
vn -0.0083 -0.9995 -0.0298
vn -0.0083 -0.9988 -0.0489
vn -0.0227 -0.9989 -0.0406
vn -0.0227 -0.9981 -0.0580
vn -0.0226 -0.9969 -0.0754
vn 0.0442 -0.9984 0.0356
vn 0.0333 -0.9987 0.0381
vn 0.0341 -0.9992 0.0215
vn 0.0440 -0.9988 0.0199
vn 0.0333 -0.9992 0.0216
vn 0.0343 -0.9994 0.0050
vn 0.0438 -0.9990 0.0041
vn 0.0333 -0.9994 0.0051
vn 0.1038 -0.9944 0.0196
vn 0.1049 -0.9943 0.0195
vn 0.1138 -0.9933 0.0188
vn 0.0096 -0.9986 0.0523
vn -0.0156 -0.9926 0.1204
vn 0.0949 -0.9951 0.0280
vn 0.0949 -0.9951 0.0276
vn 0.0955 -0.9950 0.0294
vn 0.0053 -0.9980 0.0633
vn 0.0090 -0.9976 0.0686
vn 0.0045 -0.9981 0.0622
vn -0.0157 -0.9969 0.0777
vn 0.0773 -0.9969 0.0155
vn 0.0835 -0.9964 0.0160
vn 0.0748 -0.9971 0.0170
vn 0.0346 -0.9986 0.0398
vn -0.0462 -0.9988 0.0144
vn -0.0487 -0.9987 0.0114
vn -0.0459 -0.9988 0.0148
vn 0.0808 -0.9966 0.0134
vn 0.0758 -0.9971 0.0116
vn 0.0731 -0.9971 0.0221
vn 0.0253 -0.9996 -0.0114
vn 0.0261 -0.9996 -0.0116
vn 0.0340 -0.9993 -0.0135
vn 0.0605 -0.9981 0.0142
vn 0.0587 -0.9977 0.0335
vn 0.0464 -0.9975 0.0535
vn 0.0395 -0.9989 0.0243
vn 0.0384 -0.9990 0.0242
vn 0.0320 -0.9992 0.0239
vn 0.0423 -0.9975 0.0568
vn 0.0436 -0.9955 0.0840
vn 0.0459 -0.9952 0.0868
vn 0.0424 -0.9947 0.0939
vn 0.0144 -0.9997 0.0173
vn 0.0143 -0.9997 0.0173
vn 0.0009 -0.9999 0.0160
vn 0.0159 -0.9988 0.0458
vn 0.0182 -0.9986 0.0494
vn 0.0182 -0.9991 0.0386
vn 0.0290 -0.9964 0.0798
vn 0.0306 -0.9963 0.0798
vn 0.0407 -0.9960 0.0796
vn 0.0022 -1.0000 0.0018
vn 0.0144 -0.9999 0.0024
vn 0.0027 -0.9998 0.0175
vn 0.0016 -0.9998 0.0174
vn 0.0017 -0.9998 0.0174
vn 0.0139 -0.9992 0.0364
vn 0.0177 -0.9992 0.0365
vn -0.0464 -0.9945 0.0942
vn -0.0464 -0.9943 0.0964
vn -0.0467 -0.9932 0.1071
vn -0.0385 -0.9961 0.0791
vn -0.0402 -0.9960 0.0795
vn -0.0326 -0.9964 0.0778
vn -0.0308 -0.9981 0.0534
vn -0.0302 -0.9987 0.0399
vn -0.0144 -0.9992 0.0371
vn -0.0144 -0.9992 0.0372
vn -0.0144 -0.9992 0.0379
vn -0.0117 -0.9996 0.0256
vn -0.0135 -0.9996 0.0253
vn -0.0051 -0.9997 0.0234
vn -0.0467 -0.9931 0.1078
vn -0.0471 -0.9927 0.1106
vn -0.0278 -0.9946 0.1005
vn -0.0278 -0.9945 0.1006
vn -0.0278 -0.9944 0.1017
vn -0.0015 -0.9989 0.0469
vn 0.0083 -0.9990 0.0439
vn -0.0278 -0.9944 0.1019
vn -0.0015 -0.9996 -0.0287
vn 0.0082 -0.9994 -0.0332
vn -0.0002 -0.9996 -0.0293
vn 0.0328 -0.9993 0.0205
vn 0.0631 -0.9959 0.0644
vn 0.0957 -0.9922 0.0800
vn 0.0871 -0.9926 0.0850
vn 0.0953 -0.9922 0.0802
vn 0.0858 -0.9763 0.1985
vn 0.0888 -0.9755 0.2015
vn 0.0854 -0.9765 0.1981
vn 0.1239 -0.9758 0.1799
vn 0.0884 -0.9661 0.2427
vn 0.1118 -0.9742 0.1963
vn -0.0002 -1.0000 0.0007
vn -0.0000 -0.9953 -0.0970
vn -0.0172 -0.9913 -0.1307
vn -0.0180 -0.9911 -0.1322
vn -0.0217 -0.9900 -0.1394
vn -0.0225 -0.9898 -0.1410
vn -0.0192 -0.9972 0.0725
vn -0.0192 -0.9998 0.0042
vn 0.0102 -0.9987 0.0495
vn 0.0148 -0.9992 0.0358
vn 0.0167 -0.9933 0.1145
vn 0.0025 -0.9954 0.0963
vn 0.0567 -0.9852 0.1617
vn 0.0908 -0.9886 0.1199
vn 0.0093 -0.9994 -0.0337
vn 0.1319 -0.9820 0.1350
vn 0.1173 -0.9923 0.0406
vn 0.1203 -0.9852 0.1224
vn 0.1762 -0.9733 0.1468
vn 0.1047 -0.9913 0.0797
vn 0.1954 -0.9619 0.1914
vn -0.0023 -0.9985 0.0540
vn -0.0045 -0.9992 0.0386
vn 0.0310 -0.9954 0.0902
vn 0.0280 -0.9897 0.1401
vn 0.0311 -0.9986 0.0427
vn 0.0177 -0.9976 -0.0674
vn 0.0051 -0.9971 -0.0753
vn -0.0063 -0.9955 -0.0941
vn 0.0279 -0.9981 -0.0550
vn 0.0448 -0.9989 -0.0117
vn -0.0083 -0.9964 -0.0847
vn 0.0093 -0.9983 -0.0573
vn 0.0333 -0.9990 -0.0313
vn 0.0401 -0.9974 0.0604
vn 0.0281 -0.9927 0.1172
vn 0.1151 -0.9932 0.0187
vn 0.0965 -0.9950 0.0274
vn 0.0744 -0.9971 0.0166
vn 0.0587 -0.9982 0.0118
vn 0.0450 -0.9989 0.0143
vn 0.0309 -0.9992 0.0238
vn 0.0005 -0.9999 0.0160
vn 0.0596 -0.9906 0.1234
vn 0.0885 -0.9841 0.1540
vn 0.1087 -0.9847 0.1366
vn 0.0927 -0.9900 0.1066
vn 0.0274 -0.9848 0.1713
vn -0.0263 -0.9910 0.1315
vn -0.0000 -0.9998 0.0193
vn -0.0000 -0.9996 0.0289
vn 0.0283 -0.9989 0.0361
vn 0.0282 -0.9973 0.0672
vn 0.0132 -0.9994 0.0324
vn 0.0282 -0.9952 0.0932
vn 0.0333 -0.9992 0.0208
vn 0.0333 -0.9994 0.0034
vn 0.0333 -0.9993 -0.0139
vn 0.0202 -0.9997 0.0135
vn 0.0094 -0.9999 -0.0054
vn 0.0094 -0.9997 -0.0227
vn 0.0094 -0.9992 -0.0401
vn -0.0083 -0.9994 -0.0324
vn -0.0083 -0.9987 -0.0499
vn -0.0083 -0.9977 -0.0673
vn 0.0448 -0.9988 0.0198
vn 0.0448 -0.9990 0.0041
vn 0.1150 -0.9928 0.0339
vn 0.0525 -0.9934 0.1020
vn 0.0722 -0.9747 0.2115
vn 0.1038 -0.9937 0.0417
vn 0.0096 -0.9975 0.0696
vn -0.0486 -0.9881 0.1460
vn 0.0949 -0.9950 0.0301
vn 0.0045 -1.0000 0.0022
vn -0.0491 -0.9987 0.0110
vn 0.0347 -0.9993 -0.0136
vn -0.0457 -0.9966 -0.0691
vn 0.0757 -0.9966 0.0321
vn 0.0731 -0.9961 0.0493
vn 0.0253 -0.9992 0.0319
vn 0.0604 -0.9966 0.0564
vn 0.0586 -0.9950 0.0805
vn 0.0463 -0.9951 0.0873
vn 0.0394 -0.9980 0.0502
vn 0.0422 -0.9959 0.0796
vn 0.0424 -0.9945 0.0959
vn 0.0139 -0.9997 0.0220
vn 0.0006 -0.9998 0.0173
vn 0.0290 -0.9981 0.0541
vn -0.0308 -0.9965 0.0774
vn -0.0301 -0.9973 0.0671
vn -0.0135 -0.9996 0.0228
vn -0.0016 -0.9997 0.0250
vn -0.0400 -0.9919 0.1204
vn -0.0471 -0.9927 0.1112
vn 0.0325 -0.9908 0.1311
vn 0.0632 -0.9980 0.0014
vn 0.0959 -0.9945 0.0424
vn 0.0868 -0.9926 0.0852
vn 0.1253 -0.9868 0.1029
vn 0.0892 -0.9753 0.2020
vn 0.1124 -0.9793 0.1684
vn 0.0638 -0.9725 0.2239
vn 0.0605 -0.9853 0.1600
vn -0.0000 -0.0000 -1.0000
vn 0.9290 -0.0000 0.3702
vn -0.9225 -0.0000 0.3859
vn 0.5890 -0.0000 0.8082
vn -0.9764 -0.0000 -0.2159
vn -0.7421 -0.0000 -0.6702
vn -0.4507 -0.0000 -0.8927
vn -0.7149 -0.0000 0.6992
vn 1.0000 -0.0000 -0.0000
vn 0.6373 -0.0000 0.7706
vn -0.6861 -0.0000 -0.7275
vn 0.8070 -0.0000 0.5905
vn 0.9797 -0.0000 0.2006
vn -0.9446 -0.0000 -0.3281
vn -0.7530 -0.0000 0.6580
vn -0.7532 -0.0000 0.6578
vn -0.9871 -0.0000 0.1602
vn 0.8587 -0.0000 0.5125
vn -1.0000 -0.0000 -0.0000
vn 0.5293 -0.0000 0.8484
vn -0.8734 -0.0000 -0.4871
vn -0.6785 -0.0000 -0.7346
vn -0.7580 -0.0000 0.6523
vn -0.7582 -0.0000 0.6520
vn -0.0000 -0.0000 1.0000
vn 0.9584 -0.0000 0.2854
vn 0.9883 -0.0000 0.1522
vn 0.4142 -0.0000 0.9102
vn -0.5989 -0.0000 -0.8009
vn -0.5989 -0.0000 -0.8008
vn 0.5767 -0.0000 0.8169
vn 0.5767 -0.0000 0.8170
vn 0.5796 -0.0000 0.8149
vn -0.7663 -0.0000 -0.6425
vn -0.7486 -0.0000 0.6630
vn -0.8575 -0.0000 0.5144
vn 0.9940 -0.0000 0.1090
vn 0.4881 -0.0000 0.8728
vn -0.6903 -0.0000 -0.7236
vn -0.4881 -0.0000 -0.8728
vn -0.9988 -0.0000 -0.0486
vn -0.7513 -0.0000 0.6600
vn 0.4507 -0.0000 0.8927
vt 0.420686 0.385825
vt 0.410403 0.338279
vt 0.403042 0.338277
vt 0.415561 0.435567
vt 0.424181 0.435573
vt 0.477353 0.435586
vt 0.501770 0.435661
vt 0.512655 0.385728
vt 0.405176 0.482469
vt 0.415758 0.482487
vt 0.465165 0.482568
vt 0.486959 0.482608
vt 0.489351 0.385649
vt 0.517754 0.337927
vt 0.419491 0.297873
vt 0.495485 0.337895
vt 0.522485 0.297768
vt 0.411029 0.297835
vt 0.436536 0.244720
vt 0.499839 0.297691
vt 0.547989 0.245677
vt 0.419038 0.244498
vt 0.330086 0.183250
vt 0.619603 0.184601
vt 0.561044 0.184349
vt 0.300904 0.183101
vt 0.226940 0.132613
vt 0.659064 0.135633
vt 0.186412 0.132331
vt 0.153779 0.086533
vt 0.544711 0.134770
vt 0.650680 0.090540
vt 0.113072 0.086207
vt 0.097166 0.025738
vt 0.462665 0.088976
vt 0.548553 0.029297
vt 0.540963 0.521205
vt 0.529948 0.561445
vt 0.547230 0.561452
vt 0.437137 0.521072
vt 0.424509 0.561332
vt 0.442103 0.561357
vt 0.449209 0.482541
vt 0.453752 0.521098
vt 0.551894 0.482714
vt 0.557805 0.521219
vt 0.518712 0.599285
vt 0.507755 0.638494
vt 0.527726 0.638505
vt 0.411045 0.599158
vt 0.393762 0.638339
vt 0.413065 0.638371
vt 0.429522 0.599184
vt 0.536216 0.599280
vt 0.529520 0.674935
vt 0.507969 0.674881
vt 0.493294 0.711837
vt 0.372382 0.674556
vt 0.347295 0.711443
vt 0.369002 0.711490
vt 0.392382 0.674597
vt 0.463174 0.751230
vt 0.490574 0.751298
vt 0.318543 0.750847
vt 0.341543 0.750891
vt 0.416438 0.782128
vt 0.372188 0.813515
vt 0.397356 0.813594
vt 0.295679 0.781843
vt 0.271960 0.813287
vt 0.295667 0.813336
vt 0.333098 0.846718
vt 0.354849 0.846772
vt 0.243732 0.846523
vt 0.266814 0.846580
vt 0.289726 0.886160
vt 0.304161 0.886202
vt 0.205987 0.885904
vt 0.229601 0.885977
vt 0.264062 0.918275
vt 0.280582 0.918357
vt 0.167506 0.917782
vt 0.190496 0.917847
vt 0.319172 0.781887
vt 0.442618 0.782207
vt 0.432778 0.751149
vt 0.392136 0.782071
vt 0.274708 0.886113
vt 0.245644 0.918168
vt 0.316536 0.846687
vt 0.353058 0.813472
vt 0.462207 0.711752
vt 0.484087 0.638469
vt 0.479083 0.674809
vt 0.507995 0.561429
vt 0.496424 0.599263
vt 0.530258 0.482682
vt 0.519165 0.521183
vt 0.828950 0.090540
vt 0.907227 0.090717
vt 0.933916 0.030810
vt 0.836017 0.136033
vt 0.893793 0.136287
vt 0.790996 0.185995
vt 0.835641 0.186341
vt 0.714123 0.246892
vt 0.750351 0.247153
vt 0.670499 0.298733
vt 0.699317 0.298912
vt 0.634166 0.338726
vt 0.655801 0.338850
vt 0.613016 0.386181
vt 0.569475 0.482738
vt 0.587755 0.435870
vt 0.569491 0.435830
vt 0.594219 0.386112
vt 0.260325 0.750731
vt 0.237813 0.781728
vt 0.246756 0.781746
vt 0.148407 0.885723
vt 0.109096 0.917647
vt 0.119407 0.917671
vt 0.187424 0.846375
vt 0.156995 0.885750
vt 0.214147 0.813159
vt 0.195588 0.846397
vt 0.222569 0.813178
vt 0.287611 0.711312
vt 0.270610 0.750752
vt 0.340545 0.638243
vt 0.316628 0.674436
vt 0.330542 0.674467
vt 0.301985 0.711345
vt 0.375939 0.561254
vt 0.360056 0.599076
vt 0.372322 0.599097
vt 0.353347 0.638268
vt 0.391230 0.520990
vt 0.402272 0.521011
vt 0.387622 0.561274
vt 0.248196 0.087269
vt 0.169888 0.026266
vt 0.335142 0.133353
vt 0.414492 0.183682
vt 0.466791 0.245027
vt 0.439585 0.297860
vt 0.433765 0.338202
vt 0.432223 0.482515
vt 0.441906 0.435580
vt 0.443016 0.385777
vt 0.464069 0.561385
vt 0.475549 0.521129
vt 0.486033 0.561409
vt 0.497357 0.521158
vt 0.508613 0.482646
vt 0.436744 0.638408
vt 0.451822 0.599213
vt 0.460417 0.638440
vt 0.474128 0.599240
vt 0.400079 0.711578
vt 0.421284 0.674666
vt 0.431147 0.711665
vt 0.450185 0.674737
vt 0.371966 0.750980
vt 0.402375 0.751066
vt 0.314798 0.813383
vt 0.343497 0.781951
vt 0.333930 0.813428
vt 0.367819 0.782012
vt 0.283392 0.846619
vt 0.299966 0.846654
vt 0.244641 0.886022
vt 0.259677 0.886067
vt 0.208858 0.917959
vt 0.227242 0.918062
vt 0.716740 0.090281
vt 0.835179 0.030544
vt 0.684880 0.090293
vt 0.702738 0.030184
vt 0.636662 0.029962
vt 0.740393 0.135636
vt 0.713255 0.135619
vt 0.709337 0.185355
vt 0.668188 0.185064
vt 0.646274 0.246394
vt 0.580314 0.245902
vt 0.617410 0.298382
vt 0.565661 0.298034
vt 0.596633 0.338479
vt 0.557254 0.338206
vt 0.569743 0.386011
vt 0.543803 0.385897
vt 0.547757 0.435783
vt 0.525926 0.435732
vt 0.463905 0.338060
vt 0.466736 0.385718
vt 0.460079 0.435586
vt 0.465624 0.297798
vt 0.522231 0.245565
vt 0.500432 0.245454
vt 0.502684 0.184097
vt 0.459861 0.134208
vt 0.368204 0.088234
vt 0.322054 0.027361
vt 0.244921 0.026808
vt 0.270892 0.781795
vt 0.294259 0.750800
vt 0.143134 0.917726
vt 0.181151 0.885826
vt 0.219322 0.846459
vt 0.246933 0.813233
vt 0.324326 0.711394
vt 0.351149 0.674511
vt 0.373249 0.638304
vt 0.391390 0.599128
vt 0.405783 0.561304
vt 0.419433 0.521042
vt 0.066448 0.973895
vt 0.090260 0.973925
vt 0.211699 0.974488
vt 0.174796 0.974237
vt 0.056106 0.973882
vt 0.114750 0.973956
vt 0.137884 0.973985
vt 0.193252 0.974362
vt 0.156340 0.974111
vt 0.411416 0.385840
vt 0.056108 0.025418
vt 0.518965 0.711895
vt 0.228253 0.974582
s 1
usemtl Material.005
f 91/1/1 90/2/1 6/3/1
f 12/4/2 92/5/3 91/1/4
f 11/6/5 132/7/6 129/8/7
f 2/9/8 89/10/9 92/5/3
f 3/11/10 123/12/11 132/7/12
f 8/13/13 129/8/14 126/14/15
f 6/3/16 90/2/16 93/15/16
f 5/16/17 126/14/15 135/17/18
f 15/18/19 93/15/20 94/19/21
f 14/20/22 135/17/23 138/21/24
f 18/22/25 94/19/25 95/23/25
f 138/21/26 141/24/26 20/25/26
f 21/26/27 95/23/27 96/27/27
f 20/25/28 141/24/28 144/28/28
f 24/29/29 96/27/30 97/30/31
f 23/31/32 144/28/32 147/32/32
f 27/33/33 97/30/33 98/34/33
f 26/35/34 147/32/34 150/36/34
f 78/37/35 77/38/36 33/39/37
f 213/40/38 198/41/39 32/42/40
f 178/43/41 213/40/38 34/44/42
f 67/45/43 78/37/35 35/46/44
f 80/47/45 79/48/46 39/49/47
f 215/50/39 200/51/39 38/52/39
f 198/41/39 215/50/39 40/53/48
f 77/38/49 80/47/50 41/54/51
f 47/55/52 82/56/53 81/57/54
f 217/58/39 202/59/39 44/60/39
f 200/51/39 217/58/39 46/61/39
f 39/49/55 79/48/55 82/56/55
f 81/57/56 83/62/57 51/63/58
f 202/59/39 204/64/39 50/65/39
f 88/66/59 84/67/60 54/68/61
f 219/69/39 206/70/39 53/71/39
f 84/67/60 85/72/62 57/73/63
f 206/70/39 208/74/39 56/75/64
f 85/72/65 86/76/66 60/77/67
f 208/74/39 210/78/39 59/79/68
f 86/76/66 87/80/69 63/81/70
f 210/78/39 212/82/39 62/83/39
f 204/64/39 219/69/39 64/84/39
f 83/62/71 88/66/72 65/85/73
f 164/86/74 120/87/75 88/66/76
f 173/88/77 176/89/77 87/80/77
f 170/90/78 173/88/78 86/76/78
f 167/91/79 170/90/80 85/72/81
f 120/87/82 167/91/79 84/67/83
f 161/92/84 164/86/85 83/62/86
f 79/48/87 158/93/87 117/94/87
f 117/94/88 161/92/89 81/57/54
f 155/95/90 114/96/91 80/47/50
f 114/96/92 158/93/93 79/48/46
f 125/97/94 111/98/39 78/37/35
f 111/98/39 155/95/39 77/38/36
f 75/99/95 25/100/95 28/101/95
f 74/102/96 22/103/96 25/100/96
f 73/104/97 19/105/98 22/103/99
f 72/106/100 16/107/100 19/105/100
f 71/108/101 13/109/101 16/107/101
f 68/110/102 1/111/103 13/109/104
f 9/112/105 1/111/103 68/110/102
f 4/113/39 10/114/106 70/115/107
f 10/114/106 9/112/108 69/116/109
f 49/117/39 66/118/39 110/119/39
f 58/120/39 61/121/39 109/122/39
f 55/123/39 58/120/39 108/124/39
f 52/125/39 55/123/39 107/126/39
f 66/118/39 52/125/39 106/127/39
f 43/128/39 49/117/39 105/129/39
f 37/130/39 48/131/39 104/132/39
f 48/131/39 43/128/39 103/133/39
f 31/134/39 42/135/39 102/136/39
f 42/135/39 37/130/39 101/137/39
f 2/9/8 36/138/39 100/139/39
f 36/138/39 31/134/39 99/140/39
f 97/30/110 193/141/111 195/142/112
f 96/27/113 191/143/114 193/141/115
f 95/23/116 189/144/116 191/143/116
f 94/19/117 187/145/117 189/144/117
f 93/15/118 185/146/118 187/145/118
f 179/147/119 185/146/119 93/15/119
f 89/10/9 177/148/120 183/149/121
f 183/149/122 181/150/122 91/1/122
f 181/150/123 179/147/124 90/2/125
f 34/44/42 32/42/40 153/151/39
f 113/152/126 153/151/39 154/153/39
f 112/154/39 154/153/39 155/95/39
f 3/11/127 34/44/42 113/152/126
f 123/12/128 113/152/126 112/154/39
f 124/155/129 112/154/39 111/98/39
f 40/53/130 38/52/131 156/156/132
f 116/157/133 156/156/132 157/158/134
f 115/159/135 157/158/134 158/93/93
f 32/42/40 40/53/48 116/157/133
f 153/151/136 116/157/133 115/159/135
f 154/153/137 115/159/135 114/96/91
f 46/61/138 44/60/139 159/160/140
f 119/161/141 159/160/142 160/162/143
f 118/163/144 160/162/143 161/92/84
f 38/52/145 46/61/145 119/161/145
f 156/156/146 119/161/141 118/163/147
f 158/93/148 157/158/148 118/163/148
f 44/60/149 50/65/150 162/164/151
f 159/160/142 162/164/151 163/165/152
f 160/162/143 163/165/152 164/86/85
f 64/84/153 53/71/154 165/166/155
f 122/167/156 165/166/157 166/168/158
f 121/169/159 166/168/160 167/91/161
f 53/71/162 56/75/162 168/170/162
f 165/166/157 168/170/163 169/171/164
f 166/168/160 169/171/165 170/90/166
f 56/75/64 59/79/68 171/172/167
f 168/170/168 171/172/168 172/173/168
f 169/171/169 172/173/169 173/88/169
f 59/79/170 62/83/170 174/174/170
f 171/172/171 174/174/171 175/175/171
f 172/173/172 175/175/172 176/89/172
f 50/65/150 64/84/173 122/167/174
f 162/164/175 122/167/176 121/169/177
f 163/165/178 121/169/179 120/87/180
f 149/176/181 75/99/182 76/177/183
f 148/178/184 149/176/184 152/179/184
f 147/32/185 148/178/185 151/180/185
f 146/181/186 74/102/187 75/99/188
f 145/182/189 146/181/190 149/176/191
f 145/182/192 148/178/192 147/32/192
f 143/183/193 73/104/194 74/102/195
f 142/184/196 143/183/196 146/181/196
f 141/24/197 142/184/198 145/182/199
f 140/185/200 72/106/201 73/104/194
f 139/186/202 140/185/200 143/183/193
f 138/21/203 139/186/204 142/184/205
f 137/187/206 71/108/206 72/106/206
f 136/188/207 137/187/207 140/185/207
f 135/17/208 136/188/208 139/186/208
f 128/189/209 68/110/210 71/108/211
f 127/190/212 128/189/212 137/187/212
f 126/14/213 127/190/214 136/188/215
f 131/191/216 69/116/217 68/110/218
f 130/192/219 131/191/220 128/189/221
f 129/8/222 130/192/223 127/190/224
f 67/45/43 70/115/107 134/193/225
f 125/97/94 134/193/225 133/194/226
f 123/12/128 124/155/129 133/194/226
f 70/115/227 69/116/227 131/191/227
f 133/194/228 134/193/229 131/191/230
f 132/7/231 133/194/232 130/192/219
f 8/13/233 5/16/234 180/195/235
f 182/196/236 180/195/237 179/147/238
f 11/6/239 8/13/239 182/196/239
f 184/197/240 182/196/240 181/150/240
f 3/11/241 11/6/242 184/197/243
f 178/43/244 184/197/245 183/149/246
f 5/16/234 14/20/247 186/198/248
f 180/195/249 186/198/250 185/146/251
f 14/20/22 17/199/252 188/200/253
f 185/146/251 186/198/250 188/200/254
f 188/200/255 17/199/256 20/25/257
f 187/145/258 188/200/258 190/201/258
f 190/201/259 20/25/259 23/31/259
f 189/144/260 190/201/261 192/202/262
f 192/202/263 23/31/264 26/35/265
f 191/143/266 192/202/266 194/203/266
f 194/203/267 26/35/267 29/204/267
f 193/141/268 194/203/268 196/205/268
f 105/129/39 110/119/39 220/206/39
f 203/207/39 220/206/39 219/69/39
f 108/124/39 109/122/39 211/208/39
f 209/209/39 211/208/39 212/82/39
f 107/126/39 108/124/39 209/209/39
f 207/210/39 209/209/39 210/78/39
f 106/127/39 107/126/39 207/210/39
f 205/211/39 207/210/39 208/74/39
f 110/119/39 106/127/39 205/211/39
f 220/206/39 205/211/39 206/70/39
f 103/133/39 105/129/39 203/207/39
f 201/212/39 203/207/39 204/64/39
f 101/137/39 104/132/39 218/213/39
f 199/214/39 218/213/39 217/58/39
f 104/132/39 103/133/39 201/212/39
f 218/213/39 201/212/39 202/59/39
f 99/140/39 102/136/39 216/215/39
f 197/216/39 216/215/39 215/50/39
f 102/136/39 101/137/39 199/214/39
f 216/215/39 199/214/39 200/51/39
f 89/10/9 100/139/39 214/217/269
f 177/148/120 214/217/269 213/40/38
f 100/139/39 99/140/39 197/216/39
f 214/217/269 197/216/39 198/41/39
f 109/122/270 225/218/270 229/219/270
f 63/81/271 87/80/272 224/220/273
f 176/89/274 175/175/274 227/221/274
f 61/121/270 221/222/270 225/218/270
f 211/208/270 229/219/270 230/223/270
f 174/174/274 62/83/274 222/224/274
f 87/80/272 176/89/274 228/225/274
f 212/82/270 230/223/270 222/224/270
f 175/175/274 174/174/274 226/226/274
f 91/1/275 6/3/275 7/227/275
f 12/4/276 91/1/276 7/227/276
f 11/6/5 129/8/7 8/13/277
f 2/9/8 92/5/3 12/4/2
f 3/11/278 132/7/278 11/6/278
f 8/13/13 126/14/15 5/16/17
f 6/3/279 93/15/279 15/18/279
f 5/16/17 135/17/18 14/20/280
f 15/18/281 94/19/281 18/22/281
f 14/20/22 138/21/24 17/199/252
f 18/22/282 95/23/282 21/26/282
f 138/21/283 20/25/257 17/199/256
f 21/26/284 96/27/284 24/29/284
f 20/25/285 144/28/285 23/31/285
f 24/29/29 97/30/31 27/33/286
f 23/31/287 147/32/287 26/35/287
f 27/33/288 98/34/288 30/228/288
f 26/35/289 150/36/289 29/204/289
f 78/37/35 33/39/37 35/46/44
f 213/40/38 32/42/40 34/44/42
f 178/43/41 34/44/42 3/11/127
f 67/45/43 35/46/44 4/113/39
f 80/47/290 39/49/290 41/54/290
f 215/50/39 38/52/39 40/53/48
f 198/41/39 40/53/48 32/42/40
f 77/38/49 41/54/51 33/39/291
f 47/55/52 81/57/54 45/229/292
f 217/58/39 44/60/39 46/61/39
f 200/51/39 46/61/39 38/52/39
f 39/49/293 82/56/293 47/55/293
f 81/57/56 51/63/58 45/229/294
f 202/59/39 50/65/39 44/60/39
f 88/66/295 54/68/295 65/85/295
f 219/69/39 53/71/39 64/84/39
f 84/67/60 57/73/63 54/68/61
f 206/70/39 56/75/64 53/71/39
f 85/72/296 60/77/296 57/73/296
f 208/74/39 59/79/68 56/75/64
f 86/76/66 63/81/70 60/77/67
f 210/78/39 62/83/39 59/79/68
f 204/64/39 64/84/39 50/65/39
f 83/62/71 65/85/73 51/63/297
f 164/86/74 88/66/76 83/62/298
f 173/88/299 87/80/299 86/76/299
f 170/90/300 86/76/300 85/72/300
f 167/91/79 85/72/81 84/67/83
f 120/87/82 84/67/83 88/66/301
f 161/92/84 83/62/86 81/57/302
f 79/48/303 117/94/303 82/56/303
f 117/94/88 81/57/54 82/56/53
f 155/95/90 80/47/50 77/38/49
f 114/96/92 79/48/46 80/47/45
f 125/97/94 78/37/35 67/45/43
f 111/98/39 77/38/36 78/37/35
f 75/99/182 28/101/304 76/177/183
f 74/102/187 25/100/305 75/99/188
f 73/104/194 22/103/306 74/102/195
f 72/106/307 19/105/98 73/104/97
f 71/108/308 16/107/308 72/106/308
f 68/110/210 13/109/309 71/108/211
f 9/112/310 68/110/218 69/116/217
f 4/113/39 70/115/107 67/45/43
f 10/114/106 69/116/109 70/115/107
f 49/117/39 110/119/39 105/129/39
f 58/120/39 109/122/39 108/124/39
f 55/123/39 108/124/39 107/126/39
f 52/125/39 107/126/39 106/127/39
f 66/118/39 106/127/39 110/119/39
f 43/128/39 105/129/39 103/133/39
f 37/130/39 104/132/39 101/137/39
f 48/131/39 103/133/39 104/132/39
f 31/134/39 102/136/39 99/140/39
f 42/135/39 101/137/39 102/136/39
f 2/9/8 100/139/39 89/10/9
f 36/138/39 99/140/39 100/139/39
f 97/30/311 195/142/311 98/34/311
f 96/27/312 193/141/111 97/30/110
f 95/23/313 191/143/313 96/27/313
f 94/19/314 189/144/314 95/23/314
f 93/15/20 187/145/315 94/19/21
f 179/147/316 93/15/316 90/2/316
f 89/10/9 183/149/121 92/5/3
f 183/149/121 91/1/4 92/5/3
f 181/150/123 90/2/125 91/1/125
f 34/44/42 153/151/39 113/152/126
f 113/152/126 154/153/39 112/154/39
f 112/154/39 155/95/39 111/98/39
f 3/11/127 113/152/126 123/12/128
f 123/12/128 112/154/39 124/155/129
f 124/155/129 111/98/39 125/97/94
f 40/53/130 156/156/132 116/157/133
f 116/157/133 157/158/134 115/159/135
f 115/159/135 158/93/93 114/96/92
f 32/42/40 116/157/133 153/151/136
f 153/151/136 115/159/135 154/153/137
f 154/153/137 114/96/91 155/95/90
f 46/61/138 159/160/140 119/161/317
f 119/161/141 160/162/143 118/163/147
f 118/163/318 161/92/318 117/94/318
f 38/52/319 119/161/319 156/156/319
f 156/156/148 118/163/148 157/158/148
f 158/93/320 118/163/320 117/94/320
f 44/60/149 162/164/151 159/160/142
f 159/160/142 163/165/152 160/162/143
f 160/162/143 164/86/85 161/92/84
f 64/84/153 165/166/155 122/167/321
f 122/167/156 166/168/158 121/169/322
f 121/169/159 167/91/161 120/87/323
f 53/71/324 168/170/324 165/166/324
f 165/166/157 169/171/164 166/168/158
f 166/168/160 170/90/166 167/91/161
f 56/75/325 171/172/325 168/170/325
f 168/170/326 172/173/326 169/171/326
f 169/171/327 173/88/327 170/90/327
f 59/79/328 174/174/328 171/172/328
f 171/172/329 175/175/329 172/173/329
f 172/173/330 176/89/330 173/88/330
f 50/65/150 122/167/174 162/164/151
f 162/164/175 121/169/177 163/165/331
f 163/165/178 120/87/180 164/86/332
f 149/176/333 76/177/333 152/179/333
f 148/178/334 152/179/334 151/180/334
f 147/32/335 151/180/335 150/36/335
f 146/181/336 75/99/336 149/176/336
f 145/182/189 149/176/191 148/178/337
f 145/182/338 147/32/338 144/28/338
f 143/183/339 74/102/187 146/181/186
f 142/184/340 146/181/340 145/182/340
f 141/24/197 145/182/199 144/28/341
f 140/185/200 73/104/194 143/183/193
f 139/186/204 143/183/342 142/184/205
f 138/21/343 142/184/343 141/24/343
f 137/187/344 72/106/344 140/185/344
f 136/188/345 140/185/345 139/186/345
f 135/17/346 139/186/346 138/21/346
f 128/189/347 71/108/347 137/187/347
f 127/190/348 137/187/348 136/188/348
f 126/14/213 136/188/215 135/17/349
f 131/191/350 68/110/350 128/189/350
f 130/192/223 128/189/351 127/190/224
f 129/8/352 127/190/214 126/14/213
f 67/45/43 134/193/225 125/97/94
f 125/97/94 133/194/226 124/155/129
f 123/12/11 133/194/353 132/7/12
f 70/115/354 131/191/230 134/193/229
f 133/194/232 131/191/220 130/192/219
f 132/7/355 130/192/355 129/8/355
f 8/13/356 180/195/237 182/196/236
f 182/196/357 179/147/124 181/150/123
f 11/6/242 182/196/358 184/197/243
f 184/197/245 181/150/359 183/149/246
f 3/11/360 184/197/245 178/43/244
f 178/43/41 183/149/121 177/148/120
f 5/16/234 186/198/248 180/195/235
f 180/195/361 185/146/361 179/147/361
f 14/20/247 188/200/362 186/198/248
f 185/146/363 188/200/363 187/145/363
f 188/200/364 20/25/364 190/201/364
f 187/145/365 190/201/365 189/144/365
f 190/201/261 23/31/366 192/202/262
f 189/144/367 192/202/367 191/143/367
f 192/202/263 26/35/265 194/203/368
f 191/143/114 194/203/369 193/141/115
f 194/203/370 29/204/370 196/205/370
f 193/141/371 196/205/371 195/142/371
f 105/129/39 220/206/39 203/207/39
f 203/207/39 219/69/39 204/64/39
f 108/124/39 211/208/39 209/209/39
f 209/209/39 212/82/39 210/78/39
f 107/126/39 209/209/39 207/210/39
f 207/210/39 210/78/39 208/74/39
f 106/127/39 207/210/39 205/211/39
f 205/211/39 208/74/39 206/70/39
f 110/119/39 205/211/39 220/206/39
f 220/206/39 206/70/39 219/69/39
f 103/133/39 203/207/39 201/212/39
f 201/212/39 204/64/39 202/59/39
f 101/137/39 218/213/39 199/214/39
f 199/214/39 217/58/39 200/51/39
f 104/132/39 201/212/39 218/213/39
f 218/213/39 202/59/39 217/58/39
f 99/140/39 216/215/39 197/216/39
f 197/216/39 215/50/39 198/41/39
f 102/136/39 199/214/39 216/215/39
f 216/215/39 200/51/39 215/50/39
f 89/10/9 214/217/269 177/148/120
f 177/148/120 213/40/38 178/43/41
f 100/139/39 197/216/39 214/217/269
f 214/217/269 198/41/39 213/40/38
f 109/122/270 229/219/270 211/208/270
f 63/81/271 224/220/273 223/230/271
f 176/89/274 227/221/274 228/225/274
f 61/121/270 225/218/270 109/122/270
f 211/208/270 230/223/270 212/82/270
f 174/174/274 222/224/274 226/226/274
f 87/80/272 228/225/274 224/220/273
f 212/82/270 222/224/270 62/83/270
f 175/175/274 226/226/274 227/221/274
f 321/1/372 236/3/372 320/2/372
f 242/4/373 321/1/374 322/5/375
f 241/6/376 359/8/377 362/7/378
f 232/9/379 322/5/375 319/10/380
f 233/11/381 362/7/382 353/12/383
f 238/13/384 356/14/385 359/8/386
f 236/3/387 323/15/387 320/2/387
f 235/16/388 365/17/389 356/14/385
f 245/18/390 324/19/391 323/15/392
f 244/20/393 368/21/394 365/17/395
f 248/22/396 325/23/396 324/19/396
f 368/21/397 250/25/397 371/24/397
f 251/26/398 326/27/398 325/23/398
f 250/25/399 374/28/399 371/24/399
f 254/29/400 327/30/401 326/27/402
f 253/31/403 377/32/403 374/28/403
f 257/33/404 328/34/404 327/30/404
f 256/35/405 380/36/405 377/32/405
f 308/37/406 263/39/407 307/38/408
f 443/40/409 262/42/410 428/41/411
f 408/43/412 264/44/413 443/40/409
f 297/45/414 265/46/415 308/37/406
f 310/47/416 269/49/417 309/48/418
f 445/50/411 268/52/411 430/51/411
f 428/41/411 270/53/419 445/50/411
f 307/38/420 271/54/421 310/47/416
f 277/55/422 311/57/423 312/56/424
f 447/58/411 274/60/411 432/59/411
f 430/51/411 276/61/411 447/58/411
f 269/49/425 312/56/425 309/48/425
f 311/57/426 281/63/427 313/62/428
f 432/59/411 280/65/411 434/64/411
f 318/66/429 284/68/430 314/67/431
f 449/69/411 283/71/411 436/70/411
f 314/67/431 287/73/432 315/72/433
f 436/70/411 286/75/434 438/74/411
f 315/72/435 290/77/436 316/76/437
f 438/74/411 289/79/438 440/78/411
f 316/76/439 293/81/440 317/80/441
f 440/78/411 292/83/411 442/82/411
f 434/64/411 294/84/411 449/69/411
f 313/62/442 295/85/443 318/66/444
f 394/86/445 318/66/446 350/87/447
f 403/88/448 317/80/448 406/89/448
f 400/90/449 316/76/449 403/88/449
f 397/91/450 315/72/451 400/90/452
f 350/87/453 314/67/454 397/91/450
f 391/92/455 313/62/456 394/86/457
f 309/48/458 347/94/458 388/93/458
f 347/94/459 311/57/423 391/92/460
f 385/95/461 310/47/416 344/96/462
f 344/96/462 309/48/418 388/93/463
f 355/97/464 308/37/406 341/98/411
f 341/98/411 307/38/408 385/95/411
f 305/99/465 258/101/465 255/100/465
f 304/102/466 255/100/466 252/103/466
f 303/104/467 252/103/468 249/105/469
f 302/106/470 249/105/470 246/107/470
f 301/108/471 246/107/471 243/109/471
f 298/110/472 243/109/473 231/111/474
f 239/112/475 298/110/472 231/111/474
f 234/113/411 300/115/476 240/114/477
f 240/114/477 299/116/478 239/112/479
f 279/117/411 340/119/411 296/118/411
f 288/120/411 339/122/411 291/121/411
f 285/123/411 338/124/411 288/120/411
f 282/125/411 337/126/411 285/123/411
f 296/118/411 336/127/411 282/125/411
f 273/128/411 335/129/411 279/117/411
f 267/130/411 334/132/411 278/131/411
f 278/131/411 333/133/411 273/128/411
f 261/134/411 332/136/411 272/135/411
f 272/135/411 331/137/411 267/130/411
f 232/9/379 330/139/411 266/138/411
f 266/138/411 329/140/411 261/134/411
f 327/30/480 425/142/481 423/141/482
f 326/27/483 423/141/484 421/143/485
f 325/23/486 421/143/486 419/144/486
f 324/19/487 419/144/487 417/145/487
f 323/15/488 417/145/488 415/146/488
f 409/147/489 323/15/489 415/146/489
f 319/10/380 413/149/490 407/148/491
f 413/149/492 321/1/492 411/150/492
f 411/150/493 320/2/494 409/147/495
f 264/44/413 383/151/496 262/42/410
f 343/152/497 384/153/411 383/151/496
f 342/154/411 385/95/411 384/153/411
f 233/11/498 343/152/497 264/44/413
f 353/12/499 342/154/411 343/152/497
f 354/155/500 341/98/411 342/154/411
f 270/53/419 386/156/501 268/52/502
f 346/157/503 387/158/504 386/156/505
f 345/159/506 388/93/507 387/158/508
f 262/42/410 346/157/509 270/53/419
f 383/151/510 345/159/511 346/157/503
f 384/153/512 344/96/513 345/159/506
f 276/61/514 389/160/515 274/60/516
f 349/161/517 390/162/518 389/160/519
f 348/163/520 391/92/521 390/162/522
f 268/52/523 349/161/523 276/61/523
f 386/156/524 348/163/525 349/161/517
f 388/93/526 348/163/526 387/158/526
f 274/60/527 392/164/528 280/65/529
f 389/160/519 393/165/530 392/164/528
f 390/162/518 394/86/457 393/165/530
f 294/84/531 395/166/532 283/71/533
f 352/167/534 396/168/535 395/166/536
f 351/169/537 397/91/538 396/168/539
f 283/71/540 398/170/541 286/75/542
f 395/166/536 399/171/543 398/170/544
f 396/168/539 400/90/545 399/171/546
f 286/75/434 401/172/547 289/79/438
f 398/170/548 402/173/548 401/172/548
f 399/171/549 403/88/549 402/173/549
f 289/79/550 404/174/550 292/83/550
f 401/172/551 405/175/551 404/174/551
f 402/173/552 406/89/552 405/175/552
f 280/65/529 352/167/553 294/84/554
f 392/164/555 351/169/556 352/167/557
f 393/165/558 350/87/559 351/169/560
f 379/176/561 306/177/562 305/99/563
f 378/178/564 382/179/564 379/176/564
f 377/32/565 381/180/565 378/178/565
f 376/181/566 305/99/567 304/102/568
f 375/182/569 379/176/570 376/181/571
f 375/182/572 377/32/572 378/178/572
f 373/183/573 304/102/574 303/104/575
f 372/184/576 376/181/576 373/183/576
f 371/24/577 375/182/578 372/184/579
f 370/185/580 303/104/575 302/106/581
f 369/186/582 373/183/573 370/185/580
f 368/21/583 372/184/584 369/186/585
f 367/187/586 302/106/586 301/108/586
f 366/188/587 370/185/587 367/187/587
f 365/17/588 369/186/588 366/188/588
f 358/189/589 301/108/590 298/110/591
f 357/190/592 367/187/592 358/189/592
f 356/14/593 366/188/594 357/190/595
f 361/191/596 298/110/597 299/116/598
f 360/192/599 358/189/600 361/191/601
f 359/8/602 357/190/603 360/192/604
f 297/45/414 364/193/478 300/115/476
f 355/97/464 363/194/605 364/193/478
f 353/12/499 363/194/605 354/155/500
f 300/115/606 361/191/606 299/116/606
f 363/194/607 361/191/608 364/193/609
f 362/7/610 360/192/599 363/194/611
f 238/13/612 410/195/613 235/16/614
f 412/196/615 409/147/616 410/195/617
f 241/6/618 412/196/618 238/13/618
f 414/197/619 411/150/619 412/196/619
f 233/11/620 414/197/621 241/6/622
f 408/43/623 413/149/624 414/197/625
f 235/16/614 416/198/626 244/20/627
f 410/195/628 415/146/629 416/198/630
f 244/20/393 418/200/631 247/199/632
f 415/146/629 418/200/633 416/198/630
f 418/200/634 250/25/635 247/199/636
f 417/145/637 420/201/637 418/200/637
f 420/201/638 253/31/638 250/25/638
f 419/144/639 422/202/640 420/201/641
f 422/202/642 256/35/643 253/31/644
f 421/143/645 424/203/645 422/202/645
f 424/203/646 259/204/646 256/35/646
f 423/141/647 426/205/647 424/203/647
f 335/129/411 450/206/411 340/119/411
f 433/207/411 449/69/411 450/206/411
f 338/124/411 441/208/411 339/122/411
f 439/209/411 442/82/411 441/208/411
f 337/126/411 439/209/411 338/124/411
f 437/210/411 440/78/411 439/209/411
f 336/127/411 437/210/411 337/126/411
f 435/211/411 438/74/411 437/210/411
f 340/119/411 435/211/411 336/127/411
f 450/206/411 436/70/411 435/211/411
f 333/133/411 433/207/411 335/129/411
f 431/212/411 434/64/411 433/207/411
f 331/137/411 448/213/411 334/132/411
f 429/214/411 447/58/411 448/213/411
f 334/132/411 431/212/411 333/133/411
f 448/213/411 432/59/411 431/212/411
f 329/140/411 446/215/411 332/136/411
f 427/216/411 445/50/411 446/215/411
f 332/136/411 429/214/411 331/137/411
f 446/215/411 430/51/411 429/214/411
f 319/10/380 444/217/648 330/139/411
f 407/148/491 443/40/409 444/217/648
f 330/139/411 427/216/411 329/140/411
f 444/217/648 428/41/411 427/216/411
f 339/122/649 459/219/649 455/218/649
f 293/81/650 454/220/651 317/80/652
f 406/89/653 457/221/653 405/175/653
f 291/121/649 455/218/649 451/222/649
f 441/208/649 460/223/649 459/219/649
f 404/174/653 452/224/653 292/83/653
f 317/80/652 458/225/653 406/89/653
f 442/82/649 452/224/649 460/223/649
f 405/175/653 456/226/653 404/174/653
f 321/1/654 237/227/654 236/3/654
f 242/4/655 237/227/655 321/1/655
f 241/6/376 238/13/656 359/8/377
f 232/9/379 242/4/373 322/5/375
f 233/11/657 241/6/657 362/7/657
f 238/13/384 235/16/388 356/14/385
f 236/3/658 245/18/658 323/15/658
f 235/16/388 244/20/659 365/17/389
f 245/18/660 248/22/660 324/19/660
f 244/20/393 247/199/632 368/21/394
f 248/22/661 251/26/661 325/23/661
f 368/21/662 247/199/636 250/25/635
f 251/26/663 254/29/663 326/27/663
f 250/25/664 253/31/664 374/28/664
f 254/29/400 257/33/665 327/30/401
f 253/31/666 256/35/666 377/32/666
f 257/33/667 260/228/667 328/34/667
f 256/35/668 259/204/668 380/36/668
f 308/37/406 265/46/415 263/39/407
f 443/40/409 264/44/413 262/42/410
f 408/43/412 233/11/498 264/44/413
f 297/45/414 234/113/411 265/46/415
f 310/47/669 271/54/669 269/49/669
f 445/50/411 270/53/419 268/52/411
f 428/41/411 262/42/410 270/53/419
f 307/38/420 263/39/670 271/54/421
f 277/55/422 275/229/671 311/57/423
f 447/58/411 276/61/411 274/60/411
f 430/51/411 268/52/411 276/61/411
f 269/49/672 277/55/672 312/56/672
f 311/57/426 275/229/673 281/63/427
f 432/59/411 274/60/411 280/65/411
f 318/66/429 295/85/674 284/68/430
f 449/69/411 294/84/411 283/71/411
f 314/67/431 284/68/430 287/73/432
f 436/70/411 283/71/411 286/75/434
f 315/72/435 287/73/675 290/77/436
f 438/74/411 286/75/434 289/79/438
f 316/76/439 290/77/676 293/81/440
f 440/78/411 289/79/438 292/83/411
f 434/64/411 280/65/411 294/84/411
f 313/62/442 281/63/677 295/85/443
f 394/86/445 313/62/678 318/66/446
f 403/88/679 316/76/679 317/80/679
f 400/90/680 315/72/680 316/76/680
f 397/91/450 314/67/454 315/72/451
f 350/87/453 318/66/681 314/67/454
f 391/92/455 311/57/682 313/62/456
f 309/48/683 312/56/683 347/94/683
f 347/94/459 312/56/424 311/57/423
f 385/95/461 307/38/420 310/47/416
f 344/96/462 310/47/416 309/48/418
f 355/97/464 297/45/414 308/37/406
f 341/98/411 308/37/406 307/38/408
f 305/99/563 306/177/562 258/101/684
f 304/102/568 305/99/567 255/100/685
f 303/104/575 304/102/574 252/103/686
f 302/106/687 303/104/467 249/105/469
f 301/108/688 302/106/688 246/107/688
f 298/110/591 301/108/590 243/109/689
f 239/112/690 299/116/598 298/110/597
f 234/113/411 297/45/414 300/115/476
f 240/114/477 300/115/476 299/116/478
f 279/117/411 335/129/411 340/119/411
f 288/120/411 338/124/411 339/122/411
f 285/123/411 337/126/411 338/124/411
f 282/125/411 336/127/411 337/126/411
f 296/118/411 340/119/411 336/127/411
f 273/128/411 333/133/411 335/129/411
f 267/130/411 331/137/411 334/132/411
f 278/131/411 334/132/411 333/133/411
f 261/134/411 329/140/411 332/136/411
f 272/135/411 332/136/411 331/137/411
f 232/9/379 319/10/380 330/139/411
f 266/138/411 330/139/411 329/140/411
f 327/30/691 328/34/691 425/142/691
f 326/27/692 327/30/480 423/141/482
f 325/23/693 326/27/693 421/143/693
f 324/19/694 325/23/694 419/144/694
f 323/15/392 324/19/391 417/145/695
f 409/147/696 320/2/696 323/15/696
f 319/10/380 322/5/375 413/149/490
f 413/149/490 322/5/375 321/1/374
f 411/150/493 321/1/494 320/2/494
f 264/44/413 343/152/497 383/151/496
f 343/152/497 342/154/411 384/153/411
f 342/154/411 341/98/411 385/95/411
f 233/11/498 353/12/499 343/152/497
f 353/12/499 354/155/500 342/154/411
f 354/155/500 355/97/464 341/98/411
f 270/53/419 346/157/509 386/156/501
f 346/157/503 345/159/511 387/158/504
f 345/159/506 344/96/513 388/93/507
f 262/42/410 383/151/496 346/157/509
f 383/151/510 384/153/697 345/159/511
f 384/153/512 385/95/698 344/96/513
f 276/61/514 349/161/699 389/160/515
f 349/161/517 348/163/525 390/162/518
f 348/163/520 347/94/700 391/92/521
f 268/52/701 386/156/701 349/161/701
f 386/156/526 387/158/526 348/163/526
f 388/93/702 347/94/702 348/163/702
f 274/60/527 389/160/519 392/164/528
f 389/160/519 390/162/518 393/165/530
f 390/162/518 391/92/455 394/86/457
f 294/84/531 352/167/703 395/166/532
f 352/167/534 351/169/704 396/168/535
f 351/169/537 350/87/705 397/91/538
f 283/71/540 395/166/706 398/170/541
f 395/166/536 396/168/535 399/171/543
f 396/168/539 397/91/538 400/90/545
f 286/75/707 398/170/707 401/172/707
f 398/170/708 399/171/708 402/173/708
f 399/171/709 400/90/709 403/88/709
f 289/79/710 401/172/710 404/174/710
f 401/172/711 402/173/711 405/175/711
f 402/173/712 403/88/712 406/89/712
f 280/65/529 392/164/528 352/167/553
f 392/164/555 393/165/713 351/169/556
f 393/165/558 394/86/714 350/87/559
f 379/176/715 382/179/715 306/177/715
f 378/178/716 381/180/716 382/179/716
f 377/32/717 380/36/717 381/180/717
f 376/181/718 379/176/718 305/99/718
f 375/182/569 378/178/719 379/176/570
f 375/182/720 374/28/720 377/32/720
f 373/183/721 376/181/566 304/102/568
f 372/184/722 375/182/722 376/181/722
f 371/24/577 374/28/723 375/182/578
f 370/185/580 373/183/573 303/104/575
f 369/186/585 372/184/584 373/183/724
f 368/21/725 371/24/725 372/184/725
f 367/187/726 370/185/726 302/106/726
f 366/188/727 369/186/727 370/185/727
f 365/17/728 368/21/728 369/186/728
f 358/189/729 367/187/729 301/108/729
f 357/190/730 366/188/730 367/187/730
f 356/14/593 365/17/731 366/188/594
f 361/191/732 358/189/732 298/110/732
f 360/192/604 357/190/603 358/189/733
f 359/8/734 356/14/593 357/190/595
f 297/45/414 355/97/464 364/193/478
f 355/97/464 354/155/500 363/194/605
f 353/12/383 362/7/382 363/194/735
f 300/115/736 364/193/609 361/191/608
f 363/194/611 360/192/599 361/191/601
f 362/7/737 359/8/737 360/192/737
f 238/13/738 412/196/615 410/195/617
f 412/196/739 411/150/493 409/147/495
f 241/6/622 414/197/621 412/196/622
f 414/197/625 413/149/624 411/150/740
f 233/11/741 408/43/623 414/197/625
f 408/43/412 407/148/491 413/149/490
f 235/16/614 410/195/613 416/198/626
f 410/195/742 409/147/742 415/146/742
f 244/20/627 416/198/626 418/200/743
f 415/146/744 417/145/744 418/200/744
f 418/200/745 420/201/745 250/25/745
f 417/145/746 419/144/746 420/201/746
f 420/201/641 422/202/640 253/31/747
f 419/144/748 421/143/748 422/202/748
f 422/202/642 424/203/749 256/35/643
f 421/143/485 423/141/484 424/203/750
f 424/203/751 426/205/751 259/204/751
f 423/141/752 425/142/752 426/205/752
f 335/129/411 433/207/411 450/206/411
f 433/207/411 434/64/411 449/69/411
f 338/124/411 439/209/411 441/208/411
f 439/209/411 440/78/411 442/82/411
f 337/126/411 437/210/411 439/209/411
f 437/210/411 438/74/411 440/78/411
f 336/127/411 435/211/411 437/210/411
f 435/211/411 436/70/411 438/74/411
f 340/119/411 450/206/411 435/211/411
f 450/206/411 449/69/411 436/70/411
f 333/133/411 431/212/411 433/207/411
f 431/212/411 432/59/411 434/64/411
f 331/137/411 429/214/411 448/213/411
f 429/214/411 430/51/411 447/58/411
f 334/132/411 448/213/411 431/212/411
f 448/213/411 447/58/411 432/59/411
f 329/140/411 427/216/411 446/215/411
f 427/216/411 428/41/411 445/50/411
f 332/136/411 446/215/411 429/214/411
f 446/215/411 445/50/411 430/51/411
f 319/10/380 407/148/491 444/217/648
f 407/148/491 408/43/412 443/40/409
f 330/139/411 444/217/648 427/216/411
f 444/217/648 443/40/409 428/41/411
f 339/122/649 441/208/649 459/219/649
f 293/81/650 453/230/650 454/220/651
f 406/89/653 458/225/653 457/221/653
f 291/121/649 339/122/649 455/218/649
f 441/208/649 442/82/649 460/223/649
f 404/174/653 456/226/653 452/224/653
f 317/80/652 454/220/651 458/225/653
f 442/82/649 292/83/649 452/224/649
f 405/175/653 457/221/653 456/226/653
f 195/142/753 426/205/753 425/142/753
f 35/46/754 234/113/754 4/113/754
f 6/3/755 237/227/755 7/227/755
f 51/63/756 275/229/756 45/229/756
f 36/138/757 261/134/757 31/134/757
f 30/228/753 328/34/753 260/228/753
f 43/128/758 279/117/758 49/117/758
f 221/222/759 291/121/759 451/222/759
f 21/26/760 248/22/760 18/22/760
f 16/107/761 249/105/761 19/105/761
f 54/68/762 295/85/762 65/85/762
f 49/117/763 296/118/763 66/118/763
f 41/54/764 269/49/764 271/54/764
f 10/114/765 239/112/765 9/112/765
f 31/134/766 272/135/766 42/135/766
f 24/29/767 251/26/768 21/26/768
f 7/227/769 242/4/769 12/4/769
f 19/105/761 252/103/761 22/103/761
f 33/39/770 271/54/770 263/39/770
f 12/4/771 232/9/771 2/9/771
f 152/179/753 306/177/753 382/179/753
f 57/73/772 284/68/772 54/68/772
f 42/135/773 267/130/773 37/130/773
f 52/125/774 285/123/774 55/123/774
f 27/33/775 254/29/776 24/29/767
f 22/103/761 255/100/761 25/100/761
f 230/223/777 452/224/777 222/224/777
f 4/113/778 240/114/778 10/114/778
f 76/177/753 258/101/753 306/177/753
f 223/230/777 454/220/777 453/230/777
f 9/112/779 231/111/779 1/111/779
f 60/77/780 287/73/780 57/73/780
f 196/205/753 259/204/753 426/205/753
f 224/220/777 458/225/777 454/220/777
f 55/123/781 288/120/782 58/120/782
f 47/55/783 275/229/784 277/55/785
f 221/222/777 455/218/777 225/218/777
f 37/130/786 278/131/786 48/131/786
f 30/228/787 257/33/787 27/33/787
f 226/226/777 452/224/777 456/226/777
f 25/100/761 258/101/761 28/101/761
f 227/221/777 456/226/777 457/221/777
f 15/18/788 236/3/788 6/3/788
f 39/49/785 277/55/785 269/49/785
f 228/225/777 457/221/777 458/225/777
f 1/111/789 243/109/789 13/109/789
f 63/81/790 290/77/790 60/77/790
f 48/131/791 273/128/791 43/128/791
f 225/218/777 459/219/777 229/219/777
f 58/120/792 291/121/792 61/121/792
f 29/204/753 380/36/753 259/204/753
f 229/219/777 460/223/777 230/223/777
f 150/36/753 381/180/753 380/36/753
f 33/39/754 265/46/754 35/46/754
f 65/85/762 281/63/762 51/63/762
f 151/180/753 382/179/753 381/180/753
f 2/9/793 266/138/793 36/138/793
f 18/22/794 245/18/794 15/18/794
f 66/118/763 282/125/763 52/125/774
f 98/34/753 425/142/753 328/34/753
f 223/230/795 293/81/795 63/81/795
f 13/109/761 246/107/761 16/107/761
f 195/142/753 196/205/753 426/205/753
f 35/46/754 265/46/754 234/113/754
f 6/3/755 236/3/755 237/227/755
f 51/63/756 281/63/756 275/229/756
f 36/138/757 266/138/757 261/134/757
f 30/228/753 98/34/753 328/34/753
f 43/128/758 273/128/758 279/117/758
f 221/222/759 61/121/759 291/121/759
f 21/26/760 251/26/760 248/22/760
f 16/107/761 246/107/761 249/105/761
f 54/68/762 284/68/762 295/85/762
f 49/117/763 279/117/763 296/118/763
f 41/54/764 39/49/764 269/49/764
f 10/114/765 240/114/765 239/112/765
f 31/134/766 261/134/766 272/135/766
f 24/29/767 254/29/776 251/26/768
f 7/227/769 237/227/769 242/4/769
f 19/105/761 249/105/761 252/103/761
f 33/39/770 41/54/770 271/54/770
f 12/4/771 242/4/771 232/9/771
f 152/179/753 76/177/753 306/177/753
f 57/73/772 287/73/772 284/68/772
f 42/135/773 272/135/773 267/130/773
f 52/125/774 282/125/763 285/123/774
f 27/33/775 257/33/775 254/29/776
f 22/103/761 252/103/761 255/100/761
f 230/223/777 460/223/777 452/224/777
f 4/113/778 234/113/778 240/114/778
f 76/177/753 28/101/753 258/101/753
f 223/230/777 224/220/777 454/220/777
f 9/112/779 239/112/779 231/111/779
f 60/77/780 290/77/780 287/73/780
f 196/205/753 29/204/753 259/204/753
f 224/220/777 228/225/777 458/225/777
f 55/123/781 285/123/781 288/120/782
f 47/55/783 45/229/784 275/229/784
f 221/222/777 451/222/777 455/218/777
f 37/130/786 267/130/786 278/131/786
f 30/228/787 260/228/787 257/33/787
f 226/226/777 222/224/777 452/224/777
f 25/100/761 255/100/761 258/101/761
f 227/221/777 226/226/777 456/226/777
f 15/18/788 245/18/788 236/3/788
f 39/49/785 47/55/783 277/55/785
f 228/225/777 227/221/777 457/221/777
f 1/111/789 231/111/789 243/109/789
f 63/81/790 293/81/790 290/77/790
f 48/131/791 278/131/791 273/128/791
f 225/218/777 455/218/777 459/219/777
f 58/120/792 288/120/792 291/121/792
f 29/204/753 150/36/753 380/36/753
f 229/219/777 459/219/777 460/223/777
f 150/36/753 151/180/753 381/180/753
f 33/39/754 263/39/754 265/46/754
f 65/85/762 295/85/762 281/63/762
f 151/180/753 152/179/753 382/179/753
f 2/9/793 232/9/793 266/138/793
f 18/22/794 248/22/794 245/18/794
f 66/118/763 296/118/763 282/125/763
f 98/34/753 195/142/753 425/142/753
f 223/230/795 453/230/795 293/81/795
f 13/109/761 243/109/761 246/107/761
