# Blender 4.1.0
# www.blender.org
mtllib SideHill2.mtl
o Hill
v 0.152984 -0.004968 -0.091780
v 0.173127 -0.011598 -0.091777
v 0.192258 -0.016543 -0.091752
v 0.207042 -0.015543 -0.091702
v 0.228889 -0.004328 -0.091674
v 0.251041 0.010974 -0.091717
v 0.277898 0.031372 -0.091639
v 0.310833 0.070628 -0.091658
v 0.347126 0.115890 -0.091633
v 0.380773 0.151805 -0.091643
v 0.410872 0.178246 -0.091675
v 0.446153 0.201563 -0.091657
v 0.472459 0.221847 -0.091676
v 0.503608 0.234483 -0.091737
v 0.542298 0.231828 -0.091738
v 0.595328 0.230235 -0.091738
v 0.153980 -0.001942 -0.012525
v 0.174029 -0.008542 -0.012525
v 0.192229 -0.016540 -0.012508
v 0.206870 -0.015039 -0.012649
v 0.227413 -0.001505 -0.012609
v 0.252853 0.008363 -0.012800
v 0.277886 0.031374 -0.012862
v 0.311641 0.069957 -0.012886
v 0.344699 0.117956 -0.012641
v 0.380773 0.151817 -0.012851
v 0.409583 0.179935 -0.012625
v 0.446146 0.201566 -0.012809
v 0.472485 0.221865 -0.012754
v 0.502874 0.239741 -0.012481
v 0.542298 0.231828 -0.012557
v 0.595328 0.230235 -0.012557
v 0.171363 -0.002946 0.076304
v 0.191289 -0.010065 0.076320
v 0.209940 -0.016540 0.076181
v 0.224712 -0.015529 0.075701
v 0.246574 -0.004274 0.075432
v 0.270525 0.008430 0.075303
v 0.293309 0.033618 0.075896
v 0.329260 0.070038 0.075083
v 0.364740 0.115977 0.075097
v 0.398412 0.151890 0.075176
v 0.428230 0.178716 0.075596
v 0.463812 0.201634 0.075283
v 0.490161 0.221908 0.075446
v 0.521905 0.230289 0.075832
v 0.560012 0.233421 0.076125
v 0.613041 0.232360 0.076091
v 0.207428 -0.010454 0.162965
v 0.227567 -0.017087 0.162904
v 0.247332 -0.015702 0.162719
v 0.261429 -0.020956 0.161747
v 0.283239 -0.009651 0.161363
v 0.307157 0.003078 0.161180
v 0.331744 0.026454 0.161177
v 0.365805 0.064693 0.160894
v 0.401288 0.110629 0.160912
v 0.434992 0.146541 0.161015
v 0.465789 0.172124 0.161131
v 0.500435 0.196281 0.161155
v 0.526806 0.216512 0.161397
v 0.558399 0.226388 0.162225
v 0.596739 0.234273 0.163119
v 0.649769 0.227928 0.162551
v 0.253284 -0.016214 0.238570
v 0.273331 -0.022816 0.238545
v 0.291697 -0.029222 0.238269
v 0.303949 -0.020862 0.240200
v 0.327549 -0.017374 0.237077
v 0.351855 -0.005470 0.236402
v 0.376719 0.017567 0.236181
v 0.410399 0.056137 0.236106
v 0.444538 0.103220 0.237296
v 0.478704 0.138978 0.237071
v 0.510194 0.163943 0.236620
v 0.545129 0.187735 0.236379
v 0.571555 0.207923 0.236667
v 0.603456 0.216145 0.237374
v 0.641601 0.217591 0.238039
v 0.694627 0.216020 0.237775
v 0.340242 -0.035181 0.336460
v 0.358398 -0.047851 0.336854
v 0.377519 -0.052772 0.336112
v 0.391798 -0.050056 0.335528
v 0.413441 -0.039219 0.334910
v 0.436189 -0.025122 0.335970
v 0.461299 -0.003066 0.335241
v 0.496132 0.034342 0.333829
v 0.529768 0.081863 0.335894
v 0.560257 0.121674 0.339866
v 0.596281 0.141799 0.334075
v 0.626362 0.172222 0.339675
v 0.657415 0.186109 0.334411
v 0.689391 0.194231 0.335250
v 0.727566 0.194072 0.335710
v 0.780591 0.194071 0.335715
v 0.452068 -0.065189 0.454438
v 0.472272 -0.071854 0.454242
v 0.491709 -0.075170 0.453474
v 0.504834 -0.071245 0.454194
v 0.527663 -0.063983 0.451675
v 0.551566 -0.051089 0.451388
v 0.573633 -0.025619 0.454280
v 0.609913 0.010407 0.451128
v 0.645380 0.056296 0.451157
v 0.679155 0.092209 0.451276
v 0.709787 0.118143 0.451725
v 0.744750 0.142016 0.451409
v 0.771013 0.161947 0.451906
v 0.802645 0.174750 0.454096
v 0.841374 0.170077 0.453110
v 0.894397 0.170076 0.453117
v 0.156926 -0.004964 -0.153543
v 0.177065 -0.011593 -0.153537
v 0.196176 -0.016540 -0.153424
v 0.210132 -0.012473 -0.153310
v 0.232825 -0.004320 -0.153051
v 0.254069 0.012277 -0.153392
v 0.281818 0.031384 -0.152891
v 0.313128 0.071980 -0.153223
v 0.343810 0.122053 -0.153951
v 0.383614 0.152975 -0.153072
v 0.415451 0.177419 -0.152958
v 0.449147 0.202855 -0.153111
v 0.475702 0.223285 -0.153165
v 0.506166 0.244473 -0.153570
v 0.546239 0.230235 -0.153351
v 0.599269 0.230235 -0.153351
v 0.172210 -0.003444 -0.215504
v 0.192755 -0.008539 -0.215351
v 0.210969 -0.016539 -0.215398
v 0.222033 -0.001735 -0.216038
v 0.247593 -0.004290 -0.214637
v 0.271550 0.008416 -0.214498
v 0.296547 0.031440 -0.214317
v 0.326699 0.072980 -0.215364
v 0.365765 0.115966 -0.214260
v 0.399435 0.151876 -0.214352
v 0.430199 0.177463 -0.214451
v 0.464835 0.201618 -0.214475
v 0.489763 0.224710 -0.215097
v 0.522476 0.233432 -0.215203
v 0.561023 0.230235 -0.215252
v 0.614053 0.230235 -0.215252
v 0.194324 -0.001932 -0.271415
v 0.213476 -0.011558 -0.271846
v 0.232582 -0.016535 -0.271489
v 0.244904 -0.006352 -0.271880
v 0.268222 -0.002400 -0.270783
v 0.293112 0.008484 -0.270119
v 0.318069 0.031531 -0.269858
v 0.349480 0.072020 -0.270869
v 0.383850 0.118965 -0.271422
v 0.420967 0.151964 -0.269906
v 0.451755 0.177541 -0.270048
v 0.484588 0.204167 -0.270953
v 0.512761 0.221938 -0.270340
v 0.544525 0.230285 -0.270961
v 0.582639 0.230235 -0.271258
v 0.635669 0.230766 -0.271258
v 0.226064 -0.004884 -0.328389
v 0.248863 -0.002534 -0.326481
v 0.265511 -0.014422 -0.327695
v 0.280033 -0.015496 -0.326796
v 0.300441 -0.001457 -0.327176
v 0.325731 0.008608 -0.325923
v 0.349603 0.032683 -0.326306
v 0.381061 0.072952 -0.327750
v 0.418723 0.117128 -0.326246
v 0.453533 0.152115 -0.325653
v 0.476356 0.188148 -0.331469
v 0.517275 0.204202 -0.327095
v 0.544741 0.223384 -0.326704
v 0.577234 0.230297 -0.327085
v 0.615351 0.232359 -0.327522
v 0.668381 0.230235 -0.327522
v 0.267732 -0.004820 -0.378646
v 0.287867 -0.011460 -0.378600
v 0.306960 -0.016523 -0.377919
v 0.321671 -0.015449 -0.376536
v 0.343426 -0.004018 -0.375797
v 0.366733 0.009536 -0.375982
v 0.390185 0.033726 -0.376881
v 0.425731 0.070464 -0.374992
v 0.461225 0.116397 -0.375018
v 0.493165 0.154246 -0.376900
v 0.525317 0.178576 -0.375908
v 0.560540 0.201989 -0.375431
v 0.585052 0.226096 -0.377679
v 0.618586 0.232396 -0.377220
v 0.656997 0.230235 -0.377498
v 0.710028 0.230235 -0.377498
v 0.320309 -0.003820 -0.429195
v 0.340123 -0.011454 -0.429363
v 0.359242 -0.016532 -0.428585
v 0.373945 -0.015413 -0.427153
v 0.395662 -0.003994 -0.426471
v 0.418438 0.010327 -0.427175
v 0.444299 0.031905 -0.425784
v 0.476627 0.071577 -0.426929
v 0.509530 0.119756 -0.429460
v 0.545404 0.154253 -0.427615
v 0.578101 0.177867 -0.426056
v 0.611134 0.204252 -0.427678
v 0.637303 0.226096 -0.428414
v 0.670820 0.232391 -0.427976
v 0.709245 0.230235 -0.428232
v 0.762275 0.230235 -0.428232
v 0.368705 -0.001902 -0.481121
v 0.387932 -0.011497 -0.481838
v 0.407401 -0.011786 -0.480807
v 0.422056 -0.015231 -0.479507
v 0.443450 -0.004026 -0.479143
v 0.467415 0.008918 -0.478723
v 0.486343 0.037384 -0.483713
v 0.521729 0.073748 -0.482011
v 0.559255 0.118068 -0.480187
v 0.592258 0.155233 -0.481065
v 0.625866 0.177774 -0.478774
v 0.658075 0.205370 -0.481044
v 0.686742 0.221894 -0.479467
v 0.718463 0.232368 -0.480679
v 0.757010 0.230235 -0.480816
v 0.810040 0.236606 -0.480816
v 0.666049 0.239792 -0.091738
v 0.666049 0.230235 -0.013352
v 0.683762 0.233421 0.075324
v 0.720485 0.224758 0.161444
v 0.765342 0.216034 0.236904
v 0.851316 0.198225 0.335806
v 0.965115 0.170075 0.452325
v 0.669989 0.231828 -0.153351
v 0.684773 0.230235 -0.215252
v 0.706389 0.231297 -0.271258
v 0.739101 0.230235 -0.327522
v 0.780748 0.230235 -0.377498
v 0.832996 0.230235 -0.428232
v 0.880760 0.230235 -0.480816
v 0.130355 -0.007080 -0.091780
v 0.131351 -0.004054 -0.012525
v 0.148734 -0.005058 0.076304
v 0.184799 -0.012566 0.162965
v 0.230654 -0.018326 0.238570
v 0.317613 -0.037293 0.336460
v 0.429439 -0.067301 0.454438
v 0.449643 -0.073966 0.454242
v 0.469080 -0.077282 0.453474
v 0.482205 -0.073357 0.454194
v 0.505034 -0.066095 0.451675
v 0.528937 -0.053201 0.451388
v 0.551004 -0.027731 0.454280
v 0.587284 0.008295 0.451128
v 0.622751 0.054184 0.451157
v 0.656526 0.090097 0.451276
v 0.687158 0.116031 0.451725
v 0.722121 0.139904 0.451409
v 0.748384 0.159835 0.451906
v 0.780016 0.172639 0.454096
v 0.818745 0.167965 0.453110
v 0.871768 0.167964 0.453117
v 0.134297 -0.007076 -0.153543
v 0.149581 -0.005556 -0.215504
v 0.171695 -0.004044 -0.271415
v 0.203435 -0.006996 -0.328389
v 0.245103 -0.006932 -0.378646
v 0.297680 -0.005932 -0.429195
v 0.346076 -0.004014 -0.481121
v 0.365303 -0.013609 -0.481838
v 0.384772 -0.013898 -0.480807
v 0.399427 -0.017343 -0.479507
v 0.420821 -0.006138 -0.479143
v 0.444786 0.006807 -0.478723
v 0.463714 0.035273 -0.483713
v 0.499100 0.071636 -0.482011
v 0.536626 0.115956 -0.480187
v 0.569629 0.153121 -0.481065
v 0.603237 0.175663 -0.478774
v 0.635446 0.203258 -0.481044
v 0.664112 0.219782 -0.479467
v 0.695834 0.230256 -0.480679
v 0.734380 0.228123 -0.480816
v 0.787411 0.234494 -0.480816
v 0.942486 0.167963 0.452325
v 0.858131 0.228123 -0.480816
vn -0.5514 0.8343 -0.0001
vn -0.5497 0.8344 -0.0401
vn -0.6106 0.7919 -0.0001
vn -0.6105 0.7920 -0.0000
vn -0.6104 0.7921 -0.0000
vn -0.5679 0.8221 0.0402
vn -0.5056 0.8605 -0.0618
vn -0.6048 0.7964 -0.0001
vn 0.0685 0.9977 -0.0000
vn -0.7660 0.6427 0.0133
vn 0.0300 0.9995 -0.0000
vn -0.8228 0.5669 -0.0401
vn 0.3124 0.9491 -0.0401
vn -0.0003 0.9997 -0.0239
vn -0.7298 0.6837 -0.0001
vn 0.2503 0.9682 0.0001
vn -0.6981 0.7155 -0.0267
vn -0.0675 0.9977 -0.0053
vn -0.0675 0.9977 -0.0065
vn -0.0675 0.9977 -0.0054
vn -0.0819 0.9966 -0.0015
vn -0.7031 0.6972 0.1402
vn 0.0215 0.9994 -0.0274
vn 0.0283 0.9993 -0.0237
vn 0.0200 0.9995 -0.0231
vn -0.7769 0.6000 0.1910
vn 0.3360 0.9406 -0.0492
vn 0.3359 0.9401 -0.0578
vn 0.3360 0.9405 -0.0497
vn -0.0144 0.9983 0.0573
vn -0.7220 0.6767 0.1441
vn 0.3268 0.9428 -0.0653
vn 0.3270 0.9431 -0.0609
vn 0.3268 0.9428 -0.0650
vn -0.6624 0.7339 0.1502
vn -0.0676 0.9975 0.0192
vn -0.0688 0.9974 0.0200
vn -0.0676 0.9975 0.0194
vn -0.5377 0.8363 0.1072
vn -0.4529 0.8826 0.1263
vn -0.6060 0.7862 0.1210
vn -0.6059 0.7863 0.1210
vn -0.6058 0.7864 0.1210
vn -0.4662 0.8798 0.0928
vn -0.2539 0.9544 0.1569
vn -0.2536 0.9527 0.1675
vn -0.2539 0.9544 0.1572
vn -0.7383 0.6652 0.1115
vn -0.5487 0.7867 0.2830
vn -0.4416 0.8640 0.2418
vn -0.4414 0.8640 0.2423
vn -0.4521 0.8571 0.2471
vn -0.5835 0.7562 0.2961
vn -0.5835 0.7563 0.2961
vn -0.5831 0.7565 0.2961
vn -0.4536 0.8563 0.2469
vn -0.4538 0.8562 0.2469
vn -0.2981 0.9396 0.1684
vn -0.6459 0.6794 0.3482
vn -0.2026 0.9763 0.0760
vn -0.7016 0.6274 0.3379
vn 0.1188 0.9929 0.0004
vn -0.7410 0.5723 0.3512
vn -0.7410 0.5723 0.3513
vn 0.3122 0.9485 -0.0539
vn 0.0464 0.9905 0.1291
vn -0.6881 0.6445 0.3333
vn -0.6880 0.6446 0.3333
vn -0.6879 0.6447 0.3333
vn -0.0697 0.9974 0.0205
vn -0.0681 0.9975 0.0198
vn -0.6057 0.7276 0.3220
vn 0.3426 0.9354 -0.0872
vn 0.0300 0.9899 0.1388
vn -0.7243 0.5136 0.4600
vn 0.3104 0.9435 -0.1164
vn 0.3105 0.9434 -0.1164
vn 0.0023 0.9762 0.2168
vn 0.0025 0.9763 0.2166
vn 0.0004 0.9759 0.2184
vn -0.6509 0.6223 0.4349
vn -0.6567 0.6175 0.4329
vn -0.6495 0.6234 0.4353
vn 0.3289 0.9441 -0.0242
vn -0.5633 0.7179 0.4091
vn -0.5689 0.7628 0.3074
vn -0.5178 0.7601 0.3927
vn -0.5245 0.7559 0.3918
vn -0.5158 0.7613 0.3929
vn -0.1219 0.9777 0.1710
vn -0.5559 0.7215 0.4127
vn -0.5567 0.7209 0.4127
vn -0.5558 0.7216 0.4128
vn -0.4064 0.8489 0.3379
vn -0.2457 0.9298 0.2741
vn -0.6074 0.6598 0.4424
vn -0.0410 0.9698 0.2405
vn -0.0410 0.9671 0.2509
vn -0.0410 0.9694 0.2421
vn -0.6663 0.5848 0.4627
vn -0.6605 0.5896 0.4648
vn -0.6675 0.5838 0.4622
vn -0.3740 0.7795 0.5024
vn -0.3766 0.7805 0.4989
vn -0.3715 0.7817 0.5009
vn -0.2996 0.8408 0.4508
vn -0.4637 0.7081 0.5325
vn -0.2355 0.8837 0.4045
vn -0.2365 0.8823 0.4069
vn -0.2351 0.8836 0.4050
vn -0.5280 0.6203 0.5800
vn 0.0012 0.9725 0.2331
vn -0.5641 0.5485 0.6172
vn -0.0000 0.9758 0.2187
vn -0.6379 0.4236 0.6432
vn 0.5536 0.7846 -0.2792
vn -0.0571 0.9659 0.2527
vn -0.6624 0.4474 0.6009
vn 0.2497 0.9682 0.0140
vn -0.3606 0.7888 0.4978
vn -0.1535 0.8964 0.4159
vn -0.6322 0.5192 0.5751
vn -0.5798 0.4476 0.6808
vn 0.3105 0.9444 -0.1081
vn -0.1339 0.9910 -0.0086
vn -0.5267 0.4930 0.6925
vn 0.1690 0.9853 0.0236
vn -0.5142 0.5967 0.6161
vn -0.2810 0.8622 0.4216
vn -0.4329 0.6424 0.6324
vn -0.2339 0.8792 0.4152
vn -0.4895 0.6300 0.6029
vn -0.3898 0.7349 0.5550
vn -0.3585 0.8046 0.4735
vn -0.6054 0.4500 0.6565
vn 0.1215 0.9890 0.0844
vn -0.5221 0.5805 0.6249
vn -0.0000 0.9797 0.2002
vn -0.3759 0.9267 0.0009
vn -0.3759 0.9267 0.0019
vn -0.6048 0.7963 -0.0129
vn -0.6068 0.7947 -0.0130
vn -0.6134 0.7896 -0.0134
vn 0.0676 0.9845 0.1619
vn -0.7652 0.6420 -0.0488
vn 0.0300 0.9993 -0.0239
vn -0.7801 0.6255 -0.0153
vn 0.3126 0.9497 0.0200
vn -0.0225 0.9997 -0.0054
vn -0.7257 0.6799 0.1058
vn 0.2503 0.9680 0.0160
vn 0.2504 0.9680 0.0160
vn 0.2502 0.9681 0.0160
vn -0.6599 0.7512 -0.0162
vn -0.0675 0.9977 -0.0042
vn -0.5506 0.8331 -0.0524
vn -0.4566 0.8894 0.0214
vn -0.6098 0.7924 -0.0135
vn -0.6102 0.7921 -0.0132
vn -0.6038 0.7970 -0.0126
vn -0.5680 0.8222 -0.0363
vn 0.3341 0.9392 -0.0798
vn -0.7787 0.5991 -0.1862
vn -0.0000 1.0000 -0.0000
vn 0.0002 1.0000 0.0001
vn -0.8406 0.5125 -0.1753
vn 0.3111 0.9451 0.0999
vn -0.0004 1.0000 0.0099
vn -0.0056 0.9999 0.0159
vn -0.0078 1.0000 0.0050
vn -0.5833 0.7591 -0.2890
vn 0.2485 0.9623 0.1106
vn 0.2460 0.9629 0.1108
vn 0.2407 0.9645 0.1087
vn -0.5998 0.7821 -0.1689
vn -0.2787 0.9581 -0.0665
vn -0.5968 0.7897 -0.1425
vn -0.3375 0.9364 0.0962
vn -0.6012 0.7810 -0.1694
vn -0.6105 0.7784 -0.1460
vn -0.5685 0.8153 -0.1103
vn -0.5521 0.8072 -0.2089
vn -0.7710 0.5634 -0.2970
vn -0.5587 0.8009 -0.2155
vn 0.1016 0.9940 -0.0406
vn -0.6683 0.7161 -0.2014
vn -0.4632 0.8750 -0.1408
vn -0.2541 0.9548 -0.1543
vn -0.2549 0.9546 -0.1541
vn -0.2550 0.9546 -0.1541
vn -0.6546 0.7124 -0.2528
vn -0.6548 0.7123 -0.2527
vn -0.6545 0.7125 -0.2528
vn 0.0826 0.9963 -0.0236
vn -0.7757 0.5555 -0.2997
vn -0.0068 1.0000 0.0024
vn -0.7023 0.6459 -0.2994
vn 0.2381 0.9638 0.1202
vn 0.2381 0.9638 0.1197
vn -0.0072 0.9999 -0.0140
vn -0.0002 0.9998 -0.0187
vn -0.0075 0.9999 -0.0138
vn -0.7162 0.6710 -0.1918
vn -0.7162 0.6711 -0.1914
vn -0.7155 0.6704 -0.1964
vn 0.4005 0.9112 0.0970
vn 0.4004 0.9110 0.0982
vn 0.4004 0.9111 0.0981
vn -0.6212 0.7461 -0.2397
vn -0.6211 0.7462 -0.2397
vn -0.6213 0.7460 -0.2396
vn -0.7302 0.5564 -0.3965
vn -0.7302 0.5564 -0.3964
vn -0.7301 0.5565 -0.3965
vn -0.0100 0.9994 0.0319
vn -0.7409 0.5377 -0.4025
vn 0.4435 0.8733 0.2018
vn -0.5986 0.6918 -0.4039
vn 0.2348 0.9231 0.3045
vn -0.5999 0.7202 -0.3485
vn -0.6078 0.7228 -0.3289
vn -0.6274 0.7696 -0.1184
vn -0.1499 0.9553 -0.2549
vn -0.5054 0.8113 -0.2937
vn -0.3874 0.8985 -0.2063
vn -0.2545 0.9596 -0.1198
vn -0.6292 0.6855 -0.3663
vn 0.0013 1.0000 0.0010
vn 0.0013 1.0000 0.0007
vn -0.2749 0.8319 -0.4820
vn -0.5167 0.7393 -0.4318
vn -0.4981 0.7229 -0.4789
vn -0.3330 0.8792 -0.3407
vn -0.2079 0.9707 -0.1201
vn -0.2080 0.9716 -0.1128
vn -0.2080 0.9715 -0.1138
vn -0.6202 0.6071 -0.4968
vn -0.0540 0.9985 0.0054
vn -0.0540 0.9985 -0.0028
vn -0.0540 0.9985 -0.0017
vn -0.6763 0.5093 -0.5322
vn 0.0400 0.9992 -0.0091
vn -0.6008 0.5325 -0.5962
vn -0.0958 0.9923 -0.0781
vn -0.0945 0.9925 -0.0773
vn -0.0950 0.9925 -0.0775
vn -0.5970 0.6029 -0.5293
vn 0.5694 0.7674 0.2947
vn -0.7397 0.3787 -0.5563
vn 0.0726 0.9972 0.0182
vn -0.6294 0.4860 -0.6064
vn -0.6292 0.4864 -0.6062
vn -0.6268 0.4926 -0.6037
vn 0.2955 0.8983 0.3251
vn -0.0000 0.9927 0.1203
vn -0.6530 0.5238 -0.5470
vn 0.2395 0.9390 0.2469
vn 0.2400 0.9388 0.2472
vn 0.2401 0.9387 0.2473
vn -0.5051 0.6887 -0.5202
vn -0.0673 0.9961 -0.0575
vn -0.0662 0.9955 -0.0685
vn -0.0664 0.9956 -0.0664
vn -0.4723 0.7208 -0.5073
vn -0.4108 0.8075 -0.4233
vn -0.4104 0.8078 -0.4231
vn -0.4102 0.8080 -0.4230
vn -0.6056 0.5634 -0.5620
vn -0.4486 0.7650 -0.4621
vn -0.1790 0.9664 -0.1844
vn -0.1791 0.9664 -0.1844
vn -0.5912 0.5513 -0.5886
vn 0.0564 0.9967 0.0580
vn 0.0565 0.9970 0.0525
vn 0.0565 0.9967 0.0580
vn -0.5452 0.5596 -0.6242
vn -0.4225 0.8209 -0.3842
vn -0.4210 0.8219 -0.3836
vn -0.4203 0.8224 -0.3834
vn -0.5681 0.6642 -0.4858
vn -0.4871 0.7530 -0.4424
vn -0.1756 0.9526 -0.2485
vn -0.5299 0.6686 -0.5217
vn 0.0553 0.9969 0.0559
vn 0.0562 0.9971 0.0504
vn -0.6973 0.5551 -0.4535
vn -0.7000 0.4489 -0.5555
vn 0.3394 0.8733 0.3494
vn 0.3395 0.8736 0.3487
vn 0.3395 0.8735 0.3488
vn -0.5540 0.6066 -0.5702
vn -0.5563 0.6088 -0.5656
vn -0.5562 0.6087 -0.5658
vn 0.2420 0.9451 0.2198
vn -0.5131 0.7392 -0.4362
vn -0.0777 0.9968 0.0189
vn -0.5532 0.6614 -0.5065
vn -0.5542 0.6629 -0.5033
vn -0.5541 0.6627 -0.5037
vn -0.5091 0.8603 -0.0267
vn -0.4567 0.8896 -0.0067
vn -0.3616 0.9315 -0.0400
vn -0.3759 0.9267 -0.0001
vn -0.6762 0.7357 0.0399
vn 0.1963 0.9785 -0.0631
vn -0.7526 0.6584 -0.0001
vn -0.7801 0.6255 0.0133
vn 0.3123 0.9487 -0.0501
vn -0.0154 0.9993 -0.0328
vn -0.6840 0.7284 -0.0401
vn 0.4020 0.9148 -0.0398
vn -0.6600 0.7513 -0.0001
vn -0.1020 0.9948 -0.0001
vn 0.1965 0.9785 0.0624
vn -0.7477 0.6542 0.1134
vn -0.8130 0.5591 0.1623
vn 0.3123 0.9486 -0.0504
vn 0.0459 0.9957 0.0806
vn -0.6739 0.7190 0.1701
vn 0.4016 0.9137 -0.0624
vn -0.6923 0.7082 0.1381
vn -0.1018 0.9946 0.0203
vn -0.5051 0.8549 0.1186
vn -0.5467 0.8294 0.1150
vn -0.6061 0.7861 0.1209
vn -0.3588 0.9272 0.1073
vn -0.5051 0.8571 0.1008
vn -0.6705 0.7297 0.1339
vn -0.5166 0.8060 0.2890
vn -0.4417 0.8637 0.2429
vn -0.5836 0.7561 0.2960
vn -0.2536 0.9526 0.1679
vn -0.7018 0.6269 0.3384
vn -0.0823 0.9934 0.0796
vn -0.6617 0.6611 0.3538
vn 0.0200 0.9996 -0.0182
vn -0.7411 0.5722 0.3512
vn 0.3359 0.9401 -0.0583
vn 0.0012 0.9935 0.1141
vn -0.6882 0.6445 0.3333
vn 0.3270 0.9431 -0.0605
vn -0.6371 0.7033 0.3153
vn 0.1191 0.9819 0.1473
vn -0.6968 0.5380 0.4743
vn -0.0574 0.9727 0.2251
vn -0.6581 0.6164 0.4324
vn -0.0683 0.9908 0.1164
vn -0.5849 0.7022 0.4060
vn 0.3468 0.9372 -0.0359
vn -0.5265 0.7547 0.3915
vn -0.4435 0.8637 0.2393
vn -0.5568 0.7209 0.4127
vn -0.4394 0.8307 0.3419
vn -0.2932 0.9145 0.2787
vn -0.6183 0.6504 0.4413
vn -0.2007 0.9474 0.2494
vn -0.6593 0.5907 0.4653
vn -0.0886 0.9266 0.3654
vn -0.5242 0.6788 0.5142
vn -0.3698 0.7834 0.4996
vn -0.2366 0.8832 0.4049
vn -0.5492 0.5984 0.5833
vn -0.0411 0.9667 0.2525
vn -0.5934 0.5194 0.6149
vn 0.0300 0.9775 0.2090
vn -0.6255 0.4372 0.6462
vn 0.3113 0.9457 -0.0933
vn 0.0026 0.9726 0.2324
vn -0.5701 0.5486 0.6116
vn 0.3284 0.9435 -0.0439
vn -0.5231 0.6693 0.5276
vn -0.5137 0.6147 0.5986
vn -0.4622 0.6844 0.5638
vn -0.6136 0.4049 0.6779
vn 0.5466 0.7733 -0.3214
vn -0.0223 0.9913 -0.1296
vn -0.6040 0.3934 0.6931
vn 0.2475 0.9680 -0.0422
vn -0.3346 0.7595 0.5579
vn -0.1628 0.9279 0.3354
vn -0.5902 0.4617 0.6622
vn -0.3768 0.7808 0.4983
vn -0.2766 0.8128 0.5128
vn -0.4478 0.6788 0.5820
vn -0.2348 0.8821 0.4084
vn -0.5004 0.5906 0.6331
vn 0.0022 0.9872 0.1597
vn -0.5572 0.5426 0.6286
vn -0.5666 0.8168 0.1085
vn -0.5663 0.8234 -0.0361
vn 0.3348 0.9423 -0.0029
vn -0.7918 0.6106 -0.0161
vn -0.8480 0.5210 0.0967
vn -0.0000 0.9997 -0.0257
vn -0.6133 0.7898 -0.0133
vn 0.2505 0.9680 0.0160
vn -0.6079 0.7920 -0.0561
vn -0.2799 0.9594 0.0338
vn -0.6025 0.7980 -0.0126
vn -0.3378 0.9410 -0.0215
vn -0.6097 0.7925 -0.0136
vn -0.6157 0.7879 -0.0136
vn 0.0827 0.9964 0.0197
vn -0.8001 0.5766 -0.1655
vn -0.6974 0.6420 -0.3187
vn -0.0075 0.9998 0.0161
vn -0.7155 0.6704 -0.1968
vn 0.4005 0.9113 0.0956
vn -0.6324 0.7598 -0.1511
vn -0.8010 0.5965 -0.0499
vn -0.5647 0.8095 -0.1607
vn 0.0981 0.9949 0.0240
vn -0.6750 0.7250 -0.1366
vn -0.4595 0.8684 -0.1863
vn -0.2511 0.9391 -0.2347
vn -0.6682 0.7267 -0.1596
vn -0.6114 0.7279 -0.3106
vn -0.6222 0.7611 -0.1833
vn -0.1658 0.9858 -0.0277
vn -0.5120 0.8205 -0.2543
vn -0.3927 0.9072 -0.1511
vn -0.2539 0.9548 -0.1543
vn -0.6550 0.7121 -0.2526
vn -0.7527 0.5760 -0.3189
vn -0.7885 0.5747 -0.2193
vn 0.4481 0.8863 0.1170
vn -0.0000 0.9998 -0.0189
vn -0.6383 0.7293 -0.2462
vn 0.2492 0.9637 0.0961
vn -0.6210 0.7462 -0.2397
vn -0.7303 0.5563 -0.3964
vn 0.0400 0.9991 0.0138
vn -0.6729 0.5889 -0.4477
vn -0.1097 0.9897 0.0924
vn -0.6526 0.6558 -0.3795
vn 0.5600 0.7480 0.3562
vn -0.8357 0.4889 -0.2503
vn 0.0802 0.9903 -0.1136
vn -0.3397 0.9196 -0.1972
vn -0.5448 0.7838 -0.2981
vn -0.5453 0.7867 -0.2892
vn -0.3532 0.9129 -0.2044
vn -0.2079 0.9706 -0.1210
vn -0.6657 0.6544 -0.3586
vn -0.0539 0.9985 0.0063
vn -0.4849 0.7390 -0.4678
vn -0.4136 0.8136 -0.4086
vn -0.6394 0.6059 -0.4733
vn -0.4693 0.8020 -0.3695
vn -0.1821 0.9772 -0.1093
vn -0.6328 0.5951 -0.4955
vn 0.0562 0.9984 0.0044
vn -0.5739 0.5847 -0.5734
vn -0.6487 0.5010 -0.5728
vn 0.3123 0.9473 0.0714
vn -0.6744 0.5443 -0.4989
vn 0.2473 0.9549 0.1642
vn -0.4538 0.6255 -0.6347
vn -0.0675 0.9962 -0.0555
vn -0.6858 0.4378 -0.5814
vn 0.3394 0.8733 0.3495
vn 0.0894 0.9927 0.0812
vn -0.5539 0.6065 -0.5704
vn 0.2393 0.9390 0.2468
vn -0.4839 0.7044 -0.5193
vn -0.0689 0.9951 -0.0704
vn -0.5530 0.6612 -0.5069
vn -0.4111 0.8073 -0.4234
vn -0.5412 0.6296 -0.5574
vn -0.4795 0.7393 -0.4728
vn -0.5030 0.6403 -0.5805
vn -0.6266 0.4932 -0.6035
vn -0.4232 0.8204 -0.3844
vn -0.4208 0.7751 -0.4713
vn -0.4244 0.7995 -0.4251
vn -0.3106 0.9080 -0.2811
vn -0.7552 0.4129 -0.5091
vn 0.0554 0.9972 0.0503
vn -0.6171 0.6230 -0.4807
vn -0.1193 0.9928 0.0119
vn -0.5967 0.5300 -0.6025
vn 0.4235 0.8199 0.3852
vn -0.6333 0.5495 -0.5450
vn 0.0095 0.9950 0.0992
vn -0.4804 0.7606 -0.4366
vn 0.2081 0.9586 0.1945
vn -0.5835 0.6400 -0.4999
vn -0.1329 0.9838 0.1199
vn 0.0046 -0.0495 0.9988
vn 0.0042 -0.0446 0.9990
vn 0.0043 -0.0465 0.9989
vn 0.0014 -0.0154 -0.9999
vn -0.0024 0.0257 0.9997
vn -0.0921 0.9871 0.1311
vn -0.0924 0.9904 -0.1028
vn -0.0027 0.0284 -0.9996
vn 0.0109 -0.1172 0.9930
vn -0.0203 0.2170 -0.9760
vn -0.0086 0.0919 0.9957
vn 0.0110 -0.1181 0.9929
vn 0.0021 -0.0230 0.9997
vn 0.0106 -0.1131 0.9935
vn -0.0001 0.0013 1.0000
vn 0.0138 -0.1481 0.9889
vn -0.0922 0.9880 0.1240
vn -0.0922 0.9877 0.1264
vn -0.0922 0.9879 0.1247
vn -0.0149 0.1593 0.9871
vn -0.0149 0.1592 0.9871
vn -0.0929 0.9956 -0.0106
vn -0.0929 0.9956 -0.0098
vn -0.0929 0.9957 0.0024
vn -0.0929 0.9957 -0.0059
vn -0.0929 0.9957 -0.0062
vn -0.0241 0.2578 -0.9659
vn -0.0022 0.0239 -0.9997
vn -0.0059 0.0629 -0.9980
vn -0.0928 0.9944 -0.0498
vn 0.0411 -0.4403 -0.8969
vn -0.0000 0.0001 1.0000
vn -0.0000 -0.0000 1.0000
vn 0.0410 -0.4392 -0.8974
vn -0.0929 0.9957 0.0017
vn -0.0879 0.9423 0.3230
vn 0.0111 -0.1191 0.9928
vn 0.0111 -0.1192 0.9928
vn 0.0025 -0.0270 -0.9996
vn -0.0929 0.9952 0.0294
vn 0.0243 -0.2607 -0.9651
vn -0.0114 0.1226 -0.9924
vn -0.0926 0.9927 -0.0767
vn -0.0927 0.9928 -0.0759
vn 0.0037 -0.0395 0.9992
vn -0.0000 -0.0000 -1.0000
vn 0.0090 -0.0961 -0.9953
vn 0.0037 -0.0392 0.9992
vn -0.0001 0.0007 -1.0000
vn -0.0003 0.0028 -1.0000
vn -0.0001 0.0012 -1.0000
vn -0.0929 0.9950 -0.0368
vn -0.0171 0.1837 0.9828
vn -0.0003 0.0036 -1.0000
vn -0.0896 0.9599 0.2656
vn 0.0048 -0.0514 0.9987
vn -0.0927 0.9928 -0.0755
vn -0.0018 0.0195 -0.9998
vn 0.0021 -0.0229 0.9997
vt 0.755537 0.633800
vt 0.802046 0.592909
vt 0.785249 0.645166
vt 0.568294 0.578953
vt 0.568686 0.519243
vt 0.585970 0.525843
vt 0.808978 0.653484
vt 0.825815 0.601188
vt 0.603560 0.534603
vt 0.587300 0.586085
vt 0.830855 0.664060
vt 0.850257 0.610943
vt 0.628155 0.542318
vt 0.611376 0.594531
vt 0.301459 0.275760
vt 0.279544 0.338614
vt 0.273195 0.278924
vt 0.665457 0.552216
vt 0.648650 0.604086
vt 0.241302 0.342930
vt 0.234953 0.283240
vt 0.690829 0.614462
vt 0.707617 0.561103
vt 0.531234 0.278754
vt 0.520787 0.340095
vt 0.515222 0.280222
vt 0.236282 0.411170
vt 0.190755 0.348065
vt 0.743418 0.572257
vt 0.726625 0.624477
vt 0.505832 0.341446
vt 0.500344 0.281623
vt 0.772680 0.580839
vt 0.495719 0.342361
vt 0.490020 0.282696
vt 0.300816 0.403608
vt 0.274397 0.406885
vt 0.723907 0.034390
vt 0.771397 0.086018
vt 0.734098 0.096572
vt 0.681586 0.043134
vt 0.691788 0.106410
vt 0.530180 0.406930
vt 0.514205 0.408395
vt 0.215921 0.479372
vt 0.185995 0.416315
vt 0.645808 0.054395
vt 0.656008 0.116624
vt 0.499288 0.409650
vt 0.616707 0.063517
vt 0.627218 0.126428
vt 0.488938 0.410321
vt 0.587649 0.076328
vt 0.597852 0.138610
vt 0.803088 0.007138
vt 0.830660 0.062576
vt 0.814205 0.070321
vt 0.564080 0.085161
vt 0.574315 0.147517
vt 0.785796 0.016577
vt 0.795999 0.078868
vt 0.540075 0.096086
vt 0.555099 0.160111
vt 0.761262 0.024496
vt 0.631553 0.196154
vt 0.601984 0.208019
vt 0.834827 0.132143
vt 0.818343 0.139787
vt 0.578478 0.216989
vt 0.800128 0.148284
vt 0.558575 0.229634
vt 0.775603 0.156013
vt 0.280745 0.471735
vt 0.255362 0.475434
vt 0.738249 0.165911
vt 0.695941 0.175753
vt 0.508548 0.474948
vt 0.492534 0.476368
vt 0.187039 0.539842
vt 0.164582 0.484304
vt 0.660150 0.185994
vt 0.478727 0.477611
vt 0.467304 0.477907
vt 0.225295 0.535726
vt 0.738328 0.232357
vt 0.696227 0.242242
vt 0.479579 0.535298
vt 0.463640 0.536737
vt 0.128198 0.620876
vt 0.136493 0.544919
vt 0.660245 0.252489
vt 0.448934 0.537868
vt 0.631564 0.262652
vt 0.841577 0.193386
vt 0.831624 0.198799
vt 0.602014 0.274512
vt 0.841577 -0.000000
vt 0.859991 0.059455
vt 0.845364 0.066551
vt 0.578516 0.283539
vt 0.818184 0.206336
vt 0.800157 0.214778
vt 0.559386 0.296417
vt 0.775652 0.222524
vt 0.252120 0.532147
vt 0.827781 0.298105
vt 0.811590 0.305586
vt 0.595100 0.374531
vt 0.571901 0.382716
vt 0.793393 0.314219
vt 0.552821 0.395719
vt 0.769228 0.321859
vt 0.193303 0.613130
vt 0.166050 0.616573
vt 0.731756 0.331465
vt 0.689820 0.341638
vt 0.419552 0.615459
vt 0.403520 0.617125
vt 0.050545 0.718859
vt 0.078727 0.626634
vt 0.654096 0.352524
vt 0.388602 0.617947
vt 0.624973 0.361780
vt 0.835985 0.292797
vt 0.717623 0.454730
vt 0.675351 0.464577
vt 0.340448 0.712617
vt 0.324369 0.713939
vt 0.186790 0.288873
vt 0.227199 0.237113
vt 0.639531 0.474858
vt 0.309614 0.714752
vt 0.610881 0.485118
vt 0.820806 0.416104
vt 0.812717 0.421612
vt 0.581256 0.496934
vt 0.797615 0.428792
vt 0.558022 0.506051
vt 0.779291 0.437199
vt 0.536724 0.519243
vt 0.755336 0.445452
vt 0.117256 0.712109
vt 0.088395 0.714556
vt 0.798223 0.695324
vt 0.576328 0.627978
vt 0.297100 0.229249
vt 0.600220 0.636547
vt 0.265055 0.232814
vt 0.637377 0.645637
vt 0.524156 0.232403
vt 0.177103 0.242829
vt 0.211682 0.191648
vt 0.335512 0.714752
vt 0.343033 0.769373
vt 0.309614 0.741458
vt 0.508147 0.233873
vt 0.715543 0.666147
vt 0.493289 0.235339
vt 0.744233 0.676129
vt 0.541689 0.613490
vt 0.551651 0.571727
vt 0.774302 0.686902
vt 0.557117 0.621059
vt 0.277834 0.184227
vt 0.594254 0.682603
vt 0.249538 0.187349
vt 0.679319 0.654178
vt 0.631216 0.691688
vt 0.509323 0.186692
vt 0.161199 0.197381
vt 0.191890 0.151175
vt 0.673716 0.702497
vt 0.493407 0.188291
vt 0.709503 0.712574
vt 0.854974 0.162897
vt 0.841577 0.205158
vt 0.845833 0.158510
vt 0.738254 0.722237
vt 0.371007 0.757636
vt 0.384940 0.714752
vt 0.388348 0.757636
vt 0.768105 0.733344
vt 0.551121 0.667237
vt 0.824365 0.705352
vt 0.792575 0.741388
vt 0.569616 0.675063
vt 0.854974 0.208165
vt 0.841799 0.250208
vt 0.736828 0.766908
vt 0.455280 0.192664
vt 0.452753 0.149273
vt 0.474079 0.189788
vt 0.766972 0.777793
vt 0.550120 0.711823
vt 0.813059 0.752804
vt 0.790362 0.786525
vt 0.568182 0.719753
vt 0.256860 0.144015
vt 0.592830 0.727224
vt 0.229616 0.146882
vt 0.629832 0.736808
vt 0.490022 0.146030
vt 0.141535 0.156903
vt 0.163898 0.111419
vt 0.671880 0.746765
vt 0.478437 0.189595
vt 0.473961 0.147121
vt 0.708079 0.757208
vt 0.596611 0.776018
vt 0.202269 0.107097
vt 0.633424 0.785919
vt 0.462682 0.105275
vt 0.113415 0.117152
vt 0.130161 0.077121
vt 0.675983 0.795879
vt 0.459116 0.148772
vt 0.447084 0.108305
vt 0.711960 0.805973
vt 0.853357 0.253865
vt 0.848750 0.299054
vt 0.741373 0.815896
vt 0.437117 0.151717
vt 0.421627 0.110354
vt 0.770763 0.826871
vt 0.554128 0.760841
vt 0.810076 0.797959
vt 0.794536 0.835406
vt 0.572062 0.768577
vt 0.229013 0.104358
vt 0.750249 0.863722
vt 0.546194 0.802129
vt 0.536724 0.754043
vt 0.780083 0.874757
vt 0.563063 0.808836
vt 0.218355 0.066896
vt 0.250560 0.102084
vt 0.581640 0.816590
vt 0.195984 0.069895
vt 0.605939 0.824213
vt 0.168017 0.072822
vt 0.643502 0.833607
vt 0.429439 0.070268
vt 0.079678 0.082854
vt 0.088796 0.043112
vt 0.685651 0.843686
vt 0.432209 0.108645
vt 0.413433 0.071769
vt 0.721282 0.854201
vt 0.398599 0.073663
vt 0.126652 0.038812
vt 0.657544 0.886447
vt 0.388603 0.035804
vt 0.038313 0.048845
vt 0.052030 0.007276
vt 0.699138 0.897105
vt 0.372571 0.037127
vt 0.735627 0.906787
vt 0.388437 0.075736
vt 0.357721 0.039098
vt 0.764586 0.916174
vt 0.560593 0.854660
vt 0.804560 0.883664
vt 0.794541 0.927621
vt 0.577424 0.861393
vt 0.176988 0.032886
vt 0.596053 0.869249
vt 0.154626 0.035867
vt 0.620575 0.876391
vt 0.572696 0.906822
vt 0.818902 0.936268
vt 0.806377 0.979971
vt 0.589187 0.913661
vt 0.838565 0.947764
vt 0.829530 0.988320
vt 0.607878 0.921290
vt 0.116384 -0.000000
vt 0.631461 0.929717
vt 0.088339 0.003044
vt 0.668703 0.939200
vt 0.350886 -0.000000
vt 0.711344 0.948890
vt 0.334758 0.000880
vt 0.747327 0.959169
vt 0.347580 0.041207
vt 0.320840 0.003032
vt 0.776295 0.968468
vt 0.309614 0.335392
vt 0.536724 0.338636
vt 0.820167 0.000000
vt 0.536724 0.245356
vt 0.841577 0.158510
vt 0.000000 0.723995
vt 0.347369 0.757836
vt 0.343033 0.714752
vt 0.371007 0.714752
vt 0.309614 0.796701
vt 0.484307 0.236381
vt 0.470080 0.238118
vt -0.000000 0.013077
vt 0.850257 1.000000
vt 0.309614 0.005071
s 1
usemtl Hill_Texture.001
f 11/1/1 28/2/1 12/3/1
f 5/4/2 20/5/2 21/6/2
f 13/7/3 28/2/4 29/8/5
f 5/4/6 22/9/6 6/10/6
f 14/11/7 29/8/7 30/12/7
f 6/10/8 23/13/8 7/14/8
f 14/15/9 31/16/9 15/17/9
f 7/14/10 24/18/10 8/19/10
f 15/17/11 32/20/11 16/21/11
f 9/22/12 24/18/12 25/23/12
f 1/24/13 18/25/13 2/26/13
f 48/27/14 226/28/14 32/20/14
f 9/22/15 26/29/15 10/30/15
f 2/26/16 19/31/16 3/32/16
f 11/1/17 26/29/17 27/33/17
f 3/32/18 20/34/19 4/35/20
f 31/16/21 46/36/21 47/37/21
f 24/38/22 39/39/22 40/40/22
f 32/20/23 47/37/24 48/27/25
f 25/41/26 40/40/26 41/42/26
f 18/25/27 33/43/28 34/44/29
f 64/45/30 227/46/30 48/27/30
f 26/47/31 41/42/31 42/48/31
f 19/31/32 34/44/33 35/49/34
f 27/50/35 42/48/35 43/51/35
f 20/34/36 35/49/37 36/52/38
f 28/53/39 43/51/39 44/54/39
f 21/55/40 36/56/40 37/57/40
f 29/58/41 44/54/42 45/59/43
f 22/60/44 37/57/44 38/61/44
f 30/62/45 45/59/46 46/63/47
f 23/64/48 38/61/48 39/39/48
f 44/54/49 59/65/49 60/66/49
f 37/57/50 52/67/51 53/68/52
f 45/59/53 60/66/54 61/69/55
f 38/61/56 53/68/52 54/70/57
f 46/63/58 61/69/58 62/71/58
f 39/39/59 54/70/59 55/72/59
f 47/37/60 62/73/60 63/74/60
f 40/40/61 55/72/61 56/75/61
f 48/27/62 63/74/62 64/45/62
f 41/42/63 56/75/64 57/76/64
f 34/44/65 49/77/65 50/78/65
f 80/79/66 228/80/66 64/45/66
f 42/48/67 57/76/68 58/81/69
f 35/49/37 50/78/70 51/82/71
f 43/51/72 58/81/72 59/65/72
f 36/52/73 51/82/73 52/83/73
f 64/45/74 79/84/74 80/79/74
f 57/76/75 72/85/75 73/86/75
f 50/78/76 65/87/77 66/88/77
f 96/89/78 229/90/79 80/79/80
f 58/81/81 73/86/82 74/91/83
f 51/82/84 66/88/84 67/92/84
f 59/65/85 74/91/85 75/93/85
f 52/67/86 67/94/86 68/95/86
f 60/66/87 75/93/88 76/96/89
f 53/97/90 68/98/90 69/99/90
f 61/69/91 76/96/92 77/100/93
f 54/70/94 69/101/94 70/102/94
f 62/71/95 77/100/95 78/103/95
f 55/72/96 70/102/96 71/104/96
f 63/74/97 78/105/98 79/84/99
f 56/75/100 71/104/101 72/85/102
f 69/101/103 84/106/104 85/107/105
f 77/100/106 92/108/106 93/109/106
f 70/102/107 85/107/107 86/110/107
f 78/103/108 93/109/109 94/111/110
f 71/104/111 86/110/111 87/112/111
f 79/84/112 94/113/112 95/114/112
f 72/85/113 87/112/113 88/115/113
f 80/79/80 95/114/114 96/89/78
f 73/86/115 88/115/115 89/116/115
f 66/88/116 81/117/116 82/118/116
f 112/119/117 230/120/117 96/89/117
f 74/91/118 89/116/118 90/121/118
f 67/92/119 82/118/119 83/122/119
f 75/93/120 90/121/120 91/123/120
f 68/95/121 83/124/121 84/106/121
f 76/96/122 91/123/122 92/108/122
f 89/116/123 104/125/123 105/126/123
f 82/118/124 97/127/124 98/128/124
f 225/129/125 128/130/125 16/21/125
f 90/121/126 105/126/126 106/131/126
f 83/122/127 98/128/127 99/132/127
f 91/123/128 106/131/128 107/133/128
f 84/106/129 99/134/129 100/135/129
f 92/108/130 107/133/130 108/136/130
f 85/107/131 100/135/131 101/137/131
f 93/109/132 108/136/132 109/138/132
f 86/110/133 101/137/133 102/139/133
f 94/111/134 109/138/134 110/140/134
f 87/112/135 102/139/135 103/141/135
f 95/114/136 110/142/136 111/143/136
f 88/115/137 103/141/137 104/125/137
f 96/89/138 111/143/138 112/119/138
f 14/11/139 125/144/140 13/7/139
f 7/14/141 118/145/142 6/10/143
f 15/17/144 126/146/144 14/15/144
f 8/19/145 119/147/145 7/14/145
f 16/21/146 127/148/146 15/17/146
f 9/22/147 120/149/147 8/19/147
f 2/26/148 113/150/148 1/24/148
f 232/151/149 144/152/149 128/130/149
f 10/153/150 121/154/150 9/155/150
f 3/32/151 114/156/152 2/26/153
f 11/1/154 122/157/154 10/30/154
f 4/35/20 115/158/155 3/32/18
f 12/3/156 123/159/156 11/1/156
f 5/4/157 116/160/157 4/161/157
f 13/7/158 124/162/159 12/3/160
f 6/10/161 117/163/161 5/4/161
f 127/148/162 142/164/162 126/146/162
f 120/149/163 135/165/163 119/147/163
f 128/130/164 143/166/165 127/148/164
f 121/167/166 136/168/166 120/149/166
f 114/156/167 129/169/167 113/150/167
f 233/170/168 160/171/169 144/152/170
f 122/157/171 137/172/171 121/167/171
f 115/158/172 130/173/173 114/156/174
f 123/159/175 138/174/175 122/157/175
f 116/175/176 131/176/176 115/177/176
f 124/162/177 139/178/177 123/159/177
f 117/179/178 132/180/178 116/181/178
f 125/144/179 140/182/179 124/162/179
f 118/145/180 133/183/180 117/163/180
f 126/184/181 141/185/181 125/144/181
f 119/147/182 134/186/182 118/145/182
f 132/187/183 147/188/183 131/176/183
f 140/182/184 155/189/184 139/178/184
f 133/190/185 148/191/185 132/192/185
f 141/185/186 156/193/186 140/182/186
f 134/186/187 149/194/187 133/183/187
f 142/195/188 157/196/189 141/185/190
f 135/165/191 150/197/192 134/186/193
f 143/166/194 158/198/194 142/164/194
f 136/168/195 151/199/195 135/165/195
f 144/152/170 159/200/196 143/166/165
f 137/172/197 152/201/197 136/168/197
f 130/173/173 145/202/198 129/169/199
f 234/203/200 176/204/201 160/171/202
f 138/174/203 153/205/204 137/172/205
f 131/206/206 146/207/207 130/173/208
f 139/178/209 154/208/210 138/174/211
f 152/201/212 167/209/213 151/199/214
f 160/171/215 175/210/215 159/200/215
f 153/205/216 168/211/216 152/201/216
f 146/207/217 161/212/217 145/202/217
f 235/213/164 192/214/164 176/204/164
f 154/208/218 169/215/218 153/205/218
f 147/216/219 162/217/219 146/207/219
f 155/189/220 170/218/220 154/208/220
f 148/219/221 163/220/221 147/188/221
f 156/193/222 171/221/222 155/189/222
f 149/222/223 164/223/223 148/191/223
f 157/196/224 172/224/224 156/193/224
f 150/197/225 165/225/225 149/194/225
f 158/226/226 173/227/226 157/196/226
f 151/199/227 166/228/227 150/197/227
f 159/200/196 174/229/228 158/198/229
f 172/224/230 187/230/230 171/221/230
f 165/225/231 180/231/231 164/232/231
f 173/227/232 188/233/232 172/224/232
f 166/228/233 181/234/233 165/225/233
f 174/229/234 189/235/235 173/236/236
f 167/209/237 182/237/237 166/228/237
f 175/210/238 190/238/239 174/229/240
f 168/211/241 183/239/241 167/209/241
f 176/204/242 191/240/242 175/210/242
f 169/215/243 184/241/243 168/211/243
f 162/217/244 177/242/245 161/212/246
f 236/243/164 208/244/164 192/214/164
f 170/218/247 185/245/247 169/215/247
f 163/246/248 178/247/248 162/217/248
f 171/221/249 186/248/249 170/218/249
f 164/223/250 179/249/250 163/246/250
f 192/214/164 207/250/164 191/240/164
f 185/245/251 200/251/252 184/241/253
f 178/247/254 193/252/254 177/242/254
f 237/253/255 224/254/255 208/244/255
f 186/248/256 201/255/256 185/245/256
f 179/249/257 194/256/258 178/247/259
f 187/230/260 202/257/260 186/248/260
f 180/258/261 195/259/262 179/249/263
f 188/233/264 203/260/264 187/230/264
f 181/234/265 196/261/266 180/231/267
f 189/262/268 204/263/268 188/233/268
f 182/237/269 197/264/269 181/234/269
f 190/238/270 205/265/271 189/235/270
f 183/239/272 198/266/272 182/237/272
f 191/240/273 206/267/274 190/238/275
f 184/241/276 199/268/276 183/239/276
f 197/264/277 212/269/278 196/261/279
f 205/270/280 220/271/280 204/263/280
f 198/266/281 213/272/281 197/264/281
f 206/273/282 221/274/282 205/270/282
f 199/268/283 214/275/283 198/266/283
f 207/250/284 222/276/285 206/267/274
f 200/251/286 215/277/286 199/268/286
f 208/244/164 223/278/164 207/250/164
f 201/255/287 216/279/287 200/251/287
f 194/256/288 209/280/289 193/252/290
f 202/257/291 217/281/292 201/255/293
f 195/259/294 210/282/294 194/256/294
f 203/260/295 218/283/295 202/257/295
f 196/284/296 211/285/296 195/259/296
f 204/263/297 219/286/298 203/260/299
f 226/28/164 16/21/164 32/20/164
f 11/1/300 27/33/300 28/2/300
f 5/4/301 4/161/301 20/5/301
f 13/7/3 12/3/3 28/2/4
f 5/4/302 21/6/302 22/9/302
f 14/11/139 13/7/139 29/8/303
f 6/10/304 22/9/304 23/13/304
f 14/15/305 30/287/305 31/16/305
f 7/14/306 23/13/306 24/18/306
f 15/17/11 31/16/11 32/20/11
f 9/22/307 8/19/307 24/18/307
f 1/24/13 17/288/308 18/25/13
f 48/27/309 227/46/309 226/28/309
f 9/22/310 25/23/310 26/29/310
f 2/26/311 18/25/311 19/31/311
f 11/1/312 10/30/312 26/29/312
f 3/32/313 19/31/313 20/34/313
f 31/16/314 30/287/314 46/36/314
f 24/38/315 23/64/315 39/39/315
f 32/20/23 31/16/146 47/37/24
f 25/41/316 24/38/316 40/40/316
f 18/25/13 17/288/308 33/43/317
f 64/45/318 228/80/318 227/46/318
f 26/47/319 25/41/319 41/42/319
f 19/31/320 18/25/320 34/44/320
f 27/50/321 26/47/321 42/48/321
f 20/34/322 19/31/322 35/49/322
f 28/53/323 27/50/323 43/51/323
f 21/55/324 20/289/324 36/56/324
f 29/58/41 28/53/325 44/54/42
f 22/60/326 21/55/326 37/57/326
f 30/62/327 29/58/327 45/59/327
f 23/64/328 22/60/328 38/61/328
f 44/54/329 43/51/329 59/65/329
f 37/57/50 36/56/330 52/67/51
f 45/59/53 44/54/331 60/66/54
f 38/61/56 37/57/50 53/68/52
f 46/63/47 45/59/46 61/69/332
f 39/39/333 38/61/333 54/70/333
f 47/37/334 46/36/334 62/73/334
f 40/40/335 39/39/335 55/72/335
f 48/27/25 47/37/24 63/74/336
f 41/42/63 40/40/337 56/75/64
f 34/44/29 33/43/28 49/77/338
f 80/79/339 229/90/339 228/80/339
f 42/48/67 41/42/340 57/76/68
f 35/49/34 34/44/33 50/78/341
f 43/51/342 42/48/342 58/81/342
f 36/52/38 35/49/37 51/82/71
f 64/45/343 63/74/343 79/84/343
f 57/76/344 56/75/344 72/85/344
f 50/78/76 49/77/76 65/87/77
f 96/89/345 230/120/345 229/90/345
f 58/81/81 57/76/346 73/86/82
f 51/82/347 50/78/347 66/88/347
f 59/65/348 58/81/348 74/91/348
f 52/83/349 51/82/349 67/92/349
f 60/66/87 59/65/350 75/93/88
f 53/68/52 52/67/51 68/95/351
f 61/69/91 60/66/352 76/96/92
f 54/70/353 53/68/353 69/101/353
f 62/71/354 61/69/354 77/100/354
f 55/72/355 54/70/355 70/102/355
f 63/290/356 62/71/356 78/103/356
f 56/75/100 55/72/357 71/104/101
f 69/99/358 68/98/358 84/291/358
f 77/100/359 76/96/359 92/108/359
f 70/102/360 69/101/103 85/107/105
f 78/103/108 77/100/361 93/109/109
f 71/104/362 70/102/362 86/110/362
f 79/84/99 78/105/98 94/113/363
f 72/85/364 71/104/364 87/112/364
f 80/79/365 79/84/365 95/114/365
f 73/86/366 72/85/366 88/115/366
f 66/88/367 65/87/367 81/117/367
f 112/119/368 231/292/368 230/120/368
f 74/91/369 73/86/369 89/116/369
f 67/92/370 66/88/370 82/118/370
f 75/93/371 74/91/371 90/121/371
f 68/95/372 67/94/372 83/124/372
f 76/96/373 75/93/373 91/123/373
f 89/116/374 88/115/374 104/125/374
f 82/118/375 81/117/375 97/127/375
f 225/129/376 232/151/376 128/130/376
f 90/121/377 89/116/377 105/126/377
f 83/122/378 82/118/378 98/128/378
f 91/123/379 90/121/379 106/131/379
f 84/106/380 83/124/380 99/134/380
f 92/108/381 91/123/381 107/133/381
f 85/107/105 84/106/104 100/135/382
f 93/109/383 92/108/383 108/136/383
f 86/110/384 85/107/384 101/137/384
f 94/111/110 93/109/109 109/138/385
f 87/112/386 86/110/386 102/139/386
f 95/114/387 94/113/387 110/142/387
f 88/115/388 87/112/388 103/141/388
f 96/89/138 95/114/138 111/143/138
f 14/293/389 126/294/389 125/295/389
f 7/14/390 119/147/390 118/145/390
f 15/17/391 127/148/391 126/146/391
f 8/19/392 120/149/392 119/147/392
f 16/21/164 128/130/164 127/148/164
f 9/155/393 121/154/393 120/296/393
f 2/26/148 114/156/148 113/150/148
f 232/151/394 233/170/394 144/152/394
f 10/30/395 122/157/395 121/167/395
f 3/32/151 115/158/396 114/156/152
f 11/1/397 123/159/397 122/157/397
f 4/35/398 116/297/398 115/158/398
f 12/3/160 124/162/159 123/159/399
f 5/4/400 117/163/400 116/160/400
f 13/7/158 125/144/401 124/162/159
f 6/10/143 118/145/142 117/163/402
f 127/148/403 143/166/403 142/164/403
f 120/149/404 136/168/404 135/165/404
f 128/130/164 144/152/170 143/166/165
f 121/167/405 137/172/405 136/168/405
f 114/156/174 130/173/173 129/169/199
f 233/170/168 234/203/406 160/171/169
f 122/157/407 138/174/203 137/172/205
f 115/158/408 131/206/206 130/173/208
f 123/159/409 139/178/409 138/174/409
f 116/175/410 132/187/410 131/176/410
f 124/162/411 140/182/411 139/178/411
f 117/298/412 133/190/412 132/192/412
f 125/144/413 141/185/413 140/182/413
f 118/145/414 134/186/414 133/183/414
f 126/184/415 142/195/415 141/185/415
f 119/147/416 135/165/416 134/186/416
f 132/187/417 148/219/417 147/188/417
f 140/182/418 156/193/418 155/189/418
f 133/190/419 149/222/419 148/191/419
f 141/185/420 157/196/420 156/193/420
f 134/186/421 150/197/421 149/194/421
f 142/195/188 158/226/422 157/196/189
f 135/165/191 151/199/423 150/197/192
f 143/166/165 159/200/196 158/198/229
f 136/168/424 152/201/424 151/199/424
f 144/152/170 160/171/169 159/200/196
f 137/172/425 153/205/425 152/201/425
f 130/173/426 146/207/426 145/202/426
f 234/203/200 235/213/427 176/204/201
f 138/174/428 154/208/428 153/205/428
f 131/206/429 147/216/429 146/207/429
f 139/178/209 155/189/430 154/208/210
f 152/201/212 168/211/431 167/209/213
f 160/171/432 176/204/432 175/210/432
f 153/205/433 169/215/433 168/211/433
f 146/207/434 162/217/434 161/212/434
f 235/213/164 236/243/164 192/214/164
f 154/208/435 170/218/435 169/215/435
f 147/216/436 163/246/436 162/217/436
f 155/189/437 171/221/437 170/218/437
f 148/191/438 164/223/438 163/246/438
f 156/193/439 172/224/439 171/221/439
f 149/194/440 165/225/440 164/232/440
f 157/196/441 173/227/441 172/224/441
f 150/197/442 166/228/442 165/225/442
f 158/198/443 174/229/234 173/236/236
f 151/199/444 167/209/444 166/228/444
f 159/200/445 175/210/238 174/229/240
f 172/224/446 188/233/446 187/230/446
f 165/225/447 181/234/447 180/231/447
f 173/227/448 189/262/448 188/233/448
f 166/228/449 182/237/449 181/234/449
f 174/229/450 190/238/450 189/235/450
f 167/209/451 183/239/451 182/237/451
f 175/210/452 191/240/452 190/238/452
f 168/211/453 184/241/453 183/239/453
f 176/204/164 192/214/164 191/240/164
f 169/215/454 185/245/454 184/241/454
f 162/217/455 178/247/455 177/242/455
f 236/243/164 237/253/164 208/244/164
f 170/218/456 186/248/456 185/245/456
f 163/246/457 179/249/457 178/247/457
f 171/221/458 187/230/458 186/248/458
f 164/223/459 180/258/261 179/249/263
f 192/214/164 208/244/164 207/250/164
f 185/245/460 201/255/460 200/251/460
f 178/247/461 194/256/288 193/252/290
f 237/253/462 238/299/462 224/254/462
f 186/248/463 202/257/291 201/255/293
f 179/249/257 195/259/464 194/256/258
f 187/230/465 203/260/465 202/257/465
f 180/258/466 196/284/466 195/259/466
f 188/233/467 204/263/297 203/260/299
f 181/234/265 197/264/468 196/261/266
f 189/262/469 205/270/469 204/263/469
f 182/237/470 198/266/470 197/264/470
f 190/238/270 206/267/271 205/265/271
f 183/239/471 199/268/471 198/266/471
f 191/240/273 207/250/284 206/267/274
f 184/241/253 200/251/252 199/268/472
f 197/264/277 213/272/473 212/269/278
f 205/270/474 221/274/474 220/271/474
f 198/266/475 214/275/475 213/272/475
f 206/273/476 222/300/476 221/274/476
f 199/268/477 215/277/477 214/275/477
f 207/250/284 223/278/478 222/276/285
f 200/251/479 216/279/479 215/277/479
f 208/244/480 224/254/480 223/278/480
f 201/255/481 217/281/481 216/279/481
f 194/256/482 210/282/482 209/280/482
f 202/257/483 218/283/483 217/281/483
f 195/259/484 211/285/484 210/282/484
f 203/260/485 219/286/485 218/283/485
f 196/284/486 212/301/486 211/285/486
f 204/263/487 220/271/487 219/286/487
f 226/28/488 225/129/488 16/21/488
f 216/279/489 275/281/490 274/279/491
f 107/133/492 256/136/492 108/136/492
f 217/281/493 276/283/493 275/281/493
f 49/77/494 243/87/494 65/87/494
f 145/202/495 264/212/495 263/202/495
f 108/136/496 257/138/496 109/138/496
f 218/283/497 277/286/497 276/283/497
f 109/138/498 258/140/498 110/140/498
f 219/286/499 278/271/499 277/286/499
f 110/142/500 259/143/500 111/143/500
f 97/127/501 246/128/501 98/128/501
f 220/271/502 279/274/502 278/271/502
f 111/143/503 260/119/503 112/119/503
f 98/128/504 247/132/504 99/132/504
f 33/43/505 242/77/506 49/77/507
f 221/274/508 280/300/509 279/274/508
f 129/169/510 263/202/511 262/169/512
f 1/24/513 261/150/514 239/24/513
f 99/134/515 248/135/515 100/135/515
f 222/276/516 281/278/516 280/276/516
f 209/280/517 268/282/517 267/280/517
f 193/252/518 267/280/518 266/252/518
f 100/135/519 249/137/519 101/137/519
f 223/278/520 282/254/521 281/278/520
f 210/282/522 269/285/522 268/282/522
f 113/150/523 262/169/512 261/150/514
f 81/117/524 245/127/524 97/127/524
f 112/119/525 283/292/526 231/292/526
f 101/137/527 250/139/527 102/139/527
f 17/288/528 241/43/528 33/43/528
f 211/285/529 270/301/529 269/285/529
f 102/139/530 251/141/530 103/141/530
f 177/242/245 266/252/531 265/242/532
f 212/269/533 271/272/533 270/269/533
f 224/254/534 284/299/534 282/254/534
f 103/141/535 252/125/535 104/125/535
f 213/272/536 272/275/536 271/272/533
f 104/125/537 253/126/538 105/126/539
f 1/24/540 240/288/540 17/288/540
f 214/275/541 273/277/541 272/275/541
f 105/126/542 254/131/542 106/131/542
f 65/87/543 244/117/543 81/117/543
f 215/277/544 274/279/491 273/277/544
f 161/212/246 265/242/532 264/212/545
f 106/131/546 255/133/546 107/133/546
f 216/279/489 217/281/490 275/281/490
f 107/133/492 255/133/492 256/136/492
f 217/281/493 218/283/493 276/283/493
f 49/77/507 242/77/506 243/87/494
f 145/202/495 161/212/495 264/212/495
f 108/136/496 256/136/496 257/138/496
f 218/283/497 219/286/497 277/286/497
f 109/138/498 257/138/498 258/140/498
f 219/286/499 220/271/499 278/271/499
f 110/142/500 258/142/500 259/143/500
f 97/127/547 245/127/547 246/128/547
f 220/271/502 221/274/502 279/274/502
f 111/143/503 259/143/503 260/119/503
f 98/128/504 246/128/504 247/132/504
f 33/43/505 241/43/505 242/77/506
f 221/274/508 222/300/509 280/300/509
f 129/169/510 145/202/511 263/202/511
f 1/24/513 113/150/523 261/150/514
f 99/134/515 247/134/515 248/135/515
f 222/276/516 223/278/516 281/278/516
f 209/280/517 210/282/517 268/282/517
f 193/252/518 209/280/518 267/280/518
f 100/135/519 248/135/519 249/137/519
f 223/278/520 224/254/521 282/254/521
f 210/282/522 211/285/522 269/285/522
f 113/150/523 129/169/510 262/169/512
f 81/117/524 244/117/524 245/127/524
f 112/119/525 260/119/525 283/292/526
f 101/137/527 249/137/527 250/139/527
f 17/288/528 240/288/528 241/43/528
f 211/285/529 212/301/529 270/301/529
f 102/139/530 250/139/530 251/141/530
f 177/242/245 193/252/531 266/252/531
f 212/269/533 213/272/536 271/272/533
f 224/254/534 238/299/534 284/299/534
f 103/141/535 251/141/535 252/125/535
f 213/272/536 214/275/536 272/275/536
f 104/125/537 252/125/537 253/126/538
f 1/24/540 239/24/540 240/288/540
f 214/275/541 215/277/541 273/277/541
f 105/126/539 253/126/538 254/131/542
f 65/87/543 243/87/543 244/117/543
f 215/277/544 216/279/489 274/279/491
f 161/212/246 177/242/245 265/242/532
f 106/131/546 254/131/546 255/133/546
