# Blender 4.1.0
# www.blender.org
mtllib CarWindow.mtl
o Window
v 0.109160 0.065533 -0.536862
v 0.113917 0.068941 -0.527797
v 0.108784 0.061629 -0.541085
v 0.159337 0.079172 -0.453228
v 0.171529 0.078069 -0.435627
v 0.162370 0.073594 -0.457936
v 0.175377 0.066808 -0.446746
v 0.163525 0.068089 -0.463651
v 0.151636 0.068357 -0.480566
v 0.149562 0.074044 -0.475975
v 0.142507 0.068142 -0.493296
v 0.140455 0.073693 -0.488973
v 0.129998 0.067382 -0.510350
v 0.127638 0.072329 -0.507370
v 0.119575 0.078740 -0.507893
v 0.126328 0.077430 -0.501774
v 0.137974 0.078901 -0.484328
v 0.147028 0.079363 -0.471046
v 0.157324 0.083058 -0.448325
v -0.035126 0.061769 -0.480930
v -0.025852 0.067640 -0.469495
v -0.018857 0.071686 -0.463296
v -0.017290 0.071926 -0.470456
v -0.009417 0.075923 -0.463469
v -0.006333 0.076259 -0.470043
v -0.011895 0.075374 -0.457237
v 0.002222 0.080105 -0.461945
v 0.006645 0.080410 -0.468187
v 0.015744 0.084127 -0.458568
v -0.001499 0.079614 -0.456266
v 0.010553 0.083582 -0.453351
v 0.012559 0.085288 -0.442518
v -0.004386 0.079023 -0.450690
v 0.006398 0.082955 -0.448765
v 0.003125 0.082277 -0.444298
v 0.000454 0.081435 -0.440467
v 0.004844 0.083188 -0.438217
v 0.043887 0.061873 -0.565671
v 0.055709 0.067353 -0.553550
v 0.065038 0.067557 -0.554111
v 0.051832 0.071919 -0.539168
v 0.061256 0.072073 -0.541302
v 0.058425 0.076518 -0.526376
v 0.048923 0.076510 -0.522138
v 0.053525 0.080862 -0.507630
v 0.074387 0.067557 -0.553947
v 0.069805 0.072159 -0.542725
v 0.082580 0.067629 -0.552624
v 0.078516 0.072073 -0.543287
v 0.090098 0.067640 -0.550684
v 0.084353 0.061815 -0.562602
v 0.091020 0.063486 -0.557372
v 0.095201 0.067607 -0.548983
v 0.086267 0.071926 -0.542968
v 0.093531 0.071686 -0.541990
v 0.096844 0.075374 -0.533376
v 0.090140 0.075923 -0.533180
v 0.082908 0.076259 -0.532531
v 0.074853 0.076457 -0.531223
v 0.087591 0.080105 -0.521721
v 0.067004 0.076500 -0.529151
v 0.080213 0.080410 -0.519699
v 0.073077 0.080593 -0.517009
v 0.065319 0.080801 -0.513620
v 0.064470 0.084847 -0.496165
v 0.059604 0.084926 -0.493158
v 0.069008 0.087743 -0.484120
v 0.070535 0.087886 -0.484149
v 0.071272 0.087883 -0.484577
v 0.076965 0.084606 -0.503110
v 0.035170 0.076166 -0.515566
v 0.035548 0.080778 -0.496276
v 0.047256 0.084241 -0.488477
v 0.051379 0.084288 -0.491058
v 0.024614 0.080872 -0.486783
v 0.022798 0.076453 -0.505341
v 0.015056 0.076510 -0.498424
v 0.013484 0.071715 -0.517448
v 0.005430 0.071840 -0.509832
v 0.007823 0.076518 -0.490944
v -0.004234 0.066908 -0.521037
v -0.001942 0.071919 -0.501514
v -0.011652 0.067095 -0.511691
v -0.007170 0.072073 -0.493389
v -0.016783 0.067353 -0.502790
v -0.026965 0.061866 -0.513041
v -0.009696 0.061902 -0.535634
v -0.020500 0.067557 -0.494217
v 0.004169 0.066740 -0.529414
v -0.001946 0.062636 -0.539784
v 0.022148 0.071622 -0.524336
v 0.013361 0.066633 -0.536885
v 0.006744 0.062615 -0.546335
v 0.023526 0.066740 -0.542967
v 0.031583 0.071715 -0.530122
v 0.016676 0.061966 -0.554916
v 0.034271 0.066908 -0.547998
v 0.045591 0.067095 -0.551773
v 0.041495 0.071840 -0.535085
v 0.017452 0.080801 -0.480103
v 0.034145 0.084847 -0.474931
v 0.043362 0.087886 -0.465122
v 0.035328 0.087600 -0.459337
v 0.023346 0.084607 -0.465564
v 0.028911 0.087227 -0.454740
v 0.011614 0.080593 -0.473972
v 0.002281 0.076500 -0.483832
v -0.002351 0.076456 -0.477165
v -0.011432 0.072159 -0.485843
v -0.023544 0.067557 -0.485375
v -0.025103 0.067629 -0.477223
v -0.014939 0.072073 -0.477849
v 0.086140 0.084127 -0.507860
v 0.092818 0.083582 -0.510953
v 0.094200 0.079614 -0.523276
v 0.098549 0.082955 -0.513289
v 0.106087 0.084492 -0.507810
v 0.100427 0.079023 -0.524081
v 0.103865 0.082277 -0.514837
v 0.107455 0.084073 -0.508910
v 0.109059 0.082284 -0.513599
v -0.027454 0.062837 -0.458180
v 0.106486 0.069564 -0.535319
v 0.001189 0.077733 -0.430448
v 0.004277 0.078740 -0.427160
v 0.007380 0.079643 -0.423751
v 0.026085 0.083316 -0.401408
v 0.136316 0.083316 -0.478592
v 0.030591 0.083567 -0.395410
v 0.034971 0.083668 -0.389312
v 0.169502 0.081342 -0.432542
v 0.169947 0.081094 -0.432344
v 0.055199 0.081894 -0.359157
v 0.047342 0.083058 -0.371315
v 0.048314 0.072643 -0.353391
v 0.173834 0.072641 -0.441282
v 0.176109 0.062432 -0.450578
v 0.058042 0.081094 -0.353987
v -0.007134 0.074589 -0.439016
v 0.113105 0.072109 -0.525015
v -0.012491 0.068941 -0.439285
v -0.019413 0.065526 -0.446899
v -0.020519 0.067475 -0.452195
v -0.018323 0.061765 -0.439962
v 0.007747 0.077430 -0.418673
v 0.002022 0.072329 -0.419387
v 0.020129 0.078901 -0.401811
v 0.029512 0.079363 -0.388760
v 0.014914 0.073693 -0.401069
v 0.042045 0.079170 -0.371098
v 0.024014 0.074044 -0.388066
v 0.036580 0.073595 -0.369868
v 0.054416 0.078069 -0.353623
v 0.058008 0.081342 -0.354473
v 0.042651 0.066808 -0.353810
v 0.031374 0.068154 -0.370064
v 0.018991 0.068357 -0.387687
v 0.010151 0.068141 -0.400620
v 0.005884 0.062281 -0.400448
v -0.001589 0.067381 -0.418193
v -0.002766 0.062099 -0.413881
v -0.010090 0.061948 -0.425843
v 0.104057 0.061529 -0.546606
v 0.116669 0.065586 -0.528229
v 0.115145 0.071894 -0.522845
v 0.043678 0.087574 -0.467452
v 0.043911 0.087743 -0.466547
v 0.038634 0.084926 -0.478475
v 0.038458 0.084682 -0.479628
v 0.039057 0.084528 -0.480918
v 0.006165 0.083653 -0.438403
v -0.008259 0.071894 -0.436437
v -0.011121 0.068786 -0.436591
v 0.115979 0.068786 -0.525588
v -0.006174 0.078464 -0.446283
v 0.068236 0.087574 -0.484648
v 0.078718 0.087599 -0.489720
v 0.085232 0.087227 -0.494177
v -0.016864 0.061704 -0.437297
v -0.013839 0.065586 -0.436846
v 0.040141 0.084442 -0.482202
v 0.003637 0.082729 -0.438473
v 0.001639 0.081926 -0.439545
v 0.057163 0.084528 -0.493596
v -0.023223 0.061629 -0.448653
v 0.097199 0.086076 -0.502063
v 0.108364 0.083653 -0.509963
v 0.134462 0.062099 -0.509969
v 0.144127 0.062281 -0.497247
v -0.009600 0.072109 -0.439097
v -0.015290 0.065711 -0.439512
v 0.114660 0.065711 -0.530503
v 0.014485 0.062342 -0.387633
v 0.023454 0.062407 -0.374932
v 0.038799 0.062432 -0.354433
v -0.034505 0.062177 -0.475186
v -0.033663 0.062708 -0.472982
v -0.032452 0.063486 -0.470916
v -0.025999 0.067607 -0.464118
v 0.087709 0.062177 -0.560761
v 0.109163 0.082729 -0.512363
v 0.108991 0.083187 -0.511142
v 0.108839 0.081926 -0.514606
v 0.105179 0.078464 -0.524254
v 0.108378 0.081435 -0.516037
v -0.034459 0.061769 -0.489460
v -0.034929 0.061779 -0.484574
v -0.034929 0.061919 -0.477251
v 0.002573 0.062658 -0.543272
v -0.002512 0.062529 -0.539712
v -0.003809 0.062159 -0.539992
v -0.004718 0.061966 -0.539937
v 0.074279 0.061769 -0.565600
v 0.069472 0.061823 -0.566408
v 0.032905 0.061908 -0.562528
v 0.016313 0.062159 -0.554081
v -0.029342 0.061837 -0.508080
v -0.030996 0.061862 -0.503569
v -0.033574 0.061823 -0.494254
v -0.020947 0.061883 -0.522805
v 0.059837 0.061862 -0.567172
v 0.049559 0.061866 -0.566624
v 0.144642 0.083668 -0.466106
v 0.148864 0.083628 -0.459991
v 0.115567 0.076603 -0.515955
v 0.121716 0.079643 -0.503811
v 0.125176 0.080926 -0.497355
v 0.128706 0.082005 -0.490975
v 0.161664 0.082567 -0.442519
v 0.132386 0.082775 -0.484732
v 0.108502 0.071535 -0.530744
v 0.112336 0.074589 -0.522671
v 0.117541 0.077732 -0.511920
v 0.101278 0.062837 -0.548320
v 0.104530 0.067475 -0.539757
v -0.032463 0.061830 -0.498977
v -0.035087 0.061815 -0.478970
v -0.005503 0.061926 -0.539399
v -0.013629 0.061930 -0.531528
v -0.017422 0.061909 -0.527290
v -0.024130 0.061873 -0.518046
v 0.038325 0.061884 -0.564308
v 0.027624 0.061930 -0.560414
v 0.022422 0.061901 -0.558124
v 0.017450 0.061926 -0.555470
v 0.016132 0.062529 -0.552767
v 0.015870 0.062636 -0.552261
v 0.015378 0.062661 -0.551883
v 0.011047 0.062658 -0.549207
v -0.001424 0.062661 -0.540118
v -0.030771 0.064579 -0.468852
v -0.019442 0.071517 -0.458122
v -0.013441 0.074826 -0.452628
v 0.002511 0.082284 -0.438994
v 0.007466 0.084073 -0.438898
v 0.008968 0.084492 -0.439807
v 0.017407 0.086076 -0.446193
v 0.023011 0.086739 -0.450342
v 0.042707 0.087882 -0.464576
v 0.043810 0.087843 -0.465804
v 0.043421 0.084288 -0.485486
v 0.055585 0.084442 -0.493018
v 0.058580 0.084682 -0.493718
v 0.069740 0.087843 -0.483960
v 0.091383 0.086739 -0.498217
v 0.102310 0.085288 -0.505363
v 0.101703 0.074826 -0.533252
v 0.098592 0.071518 -0.540770
v 0.092384 0.064579 -0.555086
v 0.089491 0.062708 -0.559217
v 0.085914 0.061919 -0.561866
v 0.082523 0.061769 -0.563310
v 0.079031 0.061779 -0.564371
v 0.064654 0.061830 -0.566980
v 0.055033 0.061837 -0.567160
v 0.166060 0.081894 -0.436784
v -0.026794 0.061529 -0.454984
v -0.029062 0.061407 -0.459159
v 0.030947 0.062421 -0.364832
v 0.115275 0.061765 -0.533509
v 0.117279 0.061704 -0.531226
v 0.125726 0.061948 -0.520943
v 0.153226 0.062342 -0.484781
v 0.162093 0.062407 -0.472010
v 0.169022 0.062421 -0.461513
v 0.100908 0.061407 -0.550164
v 0.039272 0.083628 -0.383254
v 0.012263 0.080926 -0.418293
v 0.017051 0.082005 -0.412793
v 0.021658 0.082775 -0.407200
v 0.051313 0.082567 -0.365250
v -0.001929 0.076603 -0.433684
v -0.004563 0.075593 -0.436430
v -0.009802 0.073313 -0.441794
v -0.017019 0.069564 -0.448841
v 0.113887 0.075593 -0.519370
v 0.153125 0.083431 -0.454063
v 0.043385 0.083431 -0.377222
v 0.140410 0.083567 -0.472307
v -0.013410 0.071535 -0.445381
v -0.024148 0.065152 -0.455424
v 0.110638 0.073313 -0.526127
v 0.102737 0.065152 -0.544270
vn 0.6117 0.6098 -0.5040
vn 0.6021 0.6226 -0.4999
vn 0.5976 0.6323 -0.4930
vn 0.6123 0.6080 -0.5054
vn 0.5957 0.6217 -0.5086
vn 0.6075 0.6181 -0.4989
vn 0.6071 0.6257 -0.4899
vn 0.6183 0.6090 -0.4968
vn 0.5994 0.6377 -0.4837
vn 0.5947 0.6410 -0.4853
vn 0.6196 0.6118 -0.4917
vn 0.6261 0.5960 -0.5028
vn 0.6057 0.6181 -0.5011
vn 0.6123 0.6073 -0.5062
vn 0.6188 0.5982 -0.5091
vn 0.6153 0.5955 -0.5165
vn 0.6279 0.5779 -0.5213
vn 0.6193 0.5954 -0.5118
vn 0.6196 0.5926 -0.5147
vn 0.6303 0.5785 -0.5177
vn 0.6196 0.5867 -0.5214
vn 0.6162 0.5940 -0.5171
vn 0.6238 0.5782 -0.5259
vn 0.6248 0.5786 -0.5243
vn 0.6100 0.6600 -0.4386
vn 0.5909 0.6824 -0.4303
vn 0.6125 0.6643 -0.4285
vn 0.6060 0.6787 -0.4150
vn 0.6049 0.6756 -0.4214
vn 0.6202 0.6582 -0.4268
vn 0.5974 0.6777 -0.4288
vn 0.5957 0.6782 -0.4302
vn 0.6079 0.6616 -0.4390
vn 0.6341 0.6259 -0.4541
vn 0.6303 0.6368 -0.4440
vn 0.6311 0.6252 -0.4591
vn 0.6224 0.6522 -0.4328
vn 0.6638 0.5883 -0.4618
vn 0.6478 0.6140 -0.4510
vn 0.6582 0.5880 -0.4702
vn 0.6611 0.5899 -0.4636
vn 0.6817 0.5241 -0.5104
vn 0.6500 0.5674 -0.5056
vn 0.6853 0.5532 -0.4737
vn 0.6807 0.5536 -0.4798
vn 0.6687 0.5859 -0.4578
vn 0.6862 0.5538 -0.4716
vn 0.6778 0.5828 -0.4482
vn 0.6882 0.5488 -0.4745
vn 0.6799 0.5604 -0.4730
vn 0.6616 0.5700 -0.4872
vn 0.6672 0.5910 -0.4533
vn 0.6515 0.5931 -0.4730
vn 0.6653 0.5618 -0.4917
vn 0.6294 0.6263 -0.4599
vn 0.6405 0.5960 -0.4844
vn 0.6229 0.6253 -0.4701
vn 0.6564 0.5620 -0.5033
vn 0.6228 0.6007 -0.5013
vn 0.6321 0.5563 -0.5394
vn 0.6091 0.5883 -0.5319
vn 0.6524 0.5637 -0.5066
vn 0.6132 0.6106 -0.5012
vn 0.6104 0.6243 -0.4876
vn 0.6608 0.5597 -0.5002
vn 0.6658 0.5749 -0.4757
vn 0.6650 0.5575 -0.4969
vn 0.6263 0.5932 -0.5058
vn 0.6414 0.5936 -0.4861
vn 0.6581 0.5634 -0.4995
vn 0.6209 0.5994 -0.5053
vn 0.6222 0.5926 -0.5116
vn 0.6346 0.5698 -0.5221
vn 0.6392 0.5686 -0.5178
vn 0.5877 0.6903 -0.4220
vn 0.5704 0.7142 -0.4057
vn 0.5904 0.7032 -0.3962
vn 0.5921 0.6820 -0.4292
vn 0.5994 0.6640 -0.4469
vn 0.5842 0.6653 -0.4647
vn 0.5883 0.6587 -0.4691
vn 0.5940 0.6491 -0.4753
vn 0.5932 0.6488 -0.4765
vn 0.5888 0.6481 -0.4831
vn 0.5468 0.6695 -0.5028
vn 0.5607 0.6786 -0.4744
vn 0.5370 0.6943 -0.4791
vn 0.5833 0.6609 -0.4722
vn 0.6077 0.6297 -0.4838
vn 0.5811 0.6597 -0.4766
vn 0.5662 0.6821 -0.4628
vn 0.6040 0.6255 -0.4939
vn 0.6060 0.6236 -0.4939
vn 0.5907 0.6534 -0.4734
vn 0.5657 0.6846 -0.4596
vn 0.6003 0.6568 -0.4564
vn 0.5968 0.6685 -0.4437
vn 0.5762 0.6870 -0.4427
vn 0.5807 0.6874 -0.4362
vn 0.5953 0.6615 -0.4562
vn 0.5814 0.6875 -0.4351
vn 0.5795 0.6880 -0.4369
vn 0.5832 0.6882 -0.4315
vn 0.5999 0.6694 -0.4382
vn 0.5911 0.6692 -0.4503
vn 0.5884 0.6874 -0.4258
vn 0.6077 0.6581 -0.4445
vn 0.5873 0.6881 -0.4262
vn 0.5859 0.6885 -0.4274
vn 0.6150 0.6655 -0.4230
vn 0.6021 0.6666 -0.4394
vn 0.6009 0.6835 -0.4145
vn 0.6383 0.6719 -0.3757
vn 0.6101 0.6817 -0.4038
vn 0.6229 0.6942 -0.3608
vn 0.6106 0.6891 -0.3902
vn 0.5285 0.7174 -0.4539
vn 0.5321 0.7275 -0.4331
vn 0.5421 0.7162 -0.4394
vn 0.5885 0.6826 -0.4332
vn 0.5727 0.6843 -0.4513
vn 0.5477 0.7118 -0.4397
vn -0.4796 0.8753 -0.0612
vn -0.4874 0.8711 -0.0596
vn -0.4550 0.8886 -0.0579
vn -0.4932 0.8688 -0.0439
vn -0.5015 0.8643 -0.0396
vn -0.5058 0.8620 -0.0336
vn -0.5063 0.8618 -0.0327
vn -0.4949 0.8684 -0.0304
vn -0.4719 0.8807 -0.0398
vn -0.4173 0.9057 -0.0749
vn -0.3872 0.9170 -0.0958
vn -0.4302 0.9008 -0.0596
vn -0.3466 0.9322 -0.1044
vn -0.3244 0.9367 -0.1318
vn -0.3834 0.9200 -0.0816
vn -0.3988 0.9147 -0.0649
vn -0.2944 0.9477 -0.1232
vn -0.2662 0.9532 -0.1433
vn -0.2303 0.9620 -0.1467
vn -0.3148 0.9428 -0.1101
vn -0.2664 0.9563 -0.1210
vn -0.2481 0.9615 -0.1184
vn -0.2744 0.9554 -0.1092
vn -0.3427 0.9355 -0.0857
vn -0.3644 0.9286 -0.0705
vn -0.2874 0.9518 -0.1076
vn -0.2988 0.9507 -0.0831
vn -0.3160 0.9445 -0.0897
vn -0.3361 0.9395 -0.0660
vn -0.3023 0.9498 -0.0803
vn -0.3153 0.9461 -0.0734
vn -0.3315 0.9407 -0.0717
vn -0.3201 0.9448 -0.0693
vn -0.3286 0.9418 -0.0710
vn -0.3289 0.9417 -0.0709
vn -0.0719 0.9282 -0.3651
vn -0.0512 0.9315 -0.3601
vn -0.0493 0.9227 -0.3823
vn -0.0209 0.9200 -0.3914
vn -0.0125 0.9240 -0.3822
vn -0.0056 0.9147 -0.4042
vn 0.0182 0.9068 -0.4212
vn -0.0977 0.9481 -0.3027
vn -0.0632 0.9425 -0.3281
vn -0.1022 0.9536 -0.2830
vn -0.1261 0.9556 -0.2664
vn -0.1254 0.9648 -0.2313
vn 0.0312 0.9087 -0.4162
vn 0.0334 0.9003 -0.4339
vn 0.0616 0.8935 -0.4448
vn -0.0276 0.9353 -0.3528
vn 0.0652 0.9011 -0.4286
vn 0.0821 0.8864 -0.4556
vn 0.1065 0.8752 -0.4718
vn 0.0133 0.9261 -0.3771
vn 0.1007 0.8889 -0.4469
vn 0.1113 0.8716 -0.4774
vn 0.1275 0.8688 -0.4784
vn 0.1343 0.8643 -0.4848
vn 0.1410 0.8616 -0.4877
vn 0.1423 0.8618 -0.4869
vn 0.1403 0.8683 -0.4757
vn 0.1240 0.8807 -0.4571
vn 0.0424 0.9170 -0.3966
vn 0.0722 0.9058 -0.4176
vn 0.0910 0.9006 -0.4250
vn 0.0544 0.9200 -0.3882
vn 0.0754 0.9147 -0.3971
vn 0.0204 0.9322 -0.3614
vn -0.0130 0.9367 -0.3499
vn -0.0376 0.9438 -0.3283
vn -0.0151 0.9477 -0.3187
vn -0.0727 0.9502 -0.3029
vn -0.0436 0.9532 -0.2992
vn -0.0725 0.9583 -0.2765
vn -0.1024 0.9614 -0.2553
vn -0.1264 0.9629 -0.2386
vn -0.1123 0.9687 -0.2214
vn -0.1216 0.9703 -0.2090
vn -0.1245 0.9690 -0.2134
vn -0.1227 0.9707 -0.2064
vn -0.1252 0.9702 -0.2072
vn -0.1226 0.9707 -0.2065
vn -0.1112 0.9723 -0.2057
vn -0.1123 0.9681 -0.2238
vn -0.1099 0.9724 -0.2059
vn -0.1100 0.9724 -0.2057
vn -0.0906 0.9695 -0.2279
vn -0.0906 0.9660 -0.2422
vn -0.1073 0.9590 -0.2623
vn -0.0824 0.9534 -0.2902
vn -0.0696 0.9696 -0.2347
vn -0.1413 0.9687 -0.2040
vn -0.1371 0.9681 -0.2099
vn -0.1527 0.9650 -0.2131
vn -0.1462 0.9692 -0.1982
vn -0.1393 0.9680 -0.2089
vn -0.1324 0.9683 -0.2117
vn -0.1510 0.9599 -0.2363
vn -0.1216 0.9706 -0.2075
vn -0.1649 0.9644 -0.2065
vn -0.1543 0.9687 -0.1947
vn -0.1474 0.9691 -0.1978
vn -0.1562 0.9701 -0.1857
vn -0.1860 0.9638 -0.1911
vn -0.1554 0.9700 -0.1869
vn -0.1782 0.9594 -0.2187
vn -0.2066 0.9562 -0.2074
vn -0.1967 0.9530 -0.2306
vn -0.2205 0.9515 -0.2145
vn -0.2319 0.9532 -0.1938
vn -0.2462 0.9427 -0.2253
vn -0.2510 0.9481 -0.1954
vn -0.2799 0.9391 -0.1995
vn -0.2868 0.9425 -0.1716
vn -0.3208 0.9315 -0.1713
vn -0.3185 0.9282 -0.1924
vn -0.2935 0.9330 -0.2081
vn -0.3424 0.9227 -0.1771
vn -0.2775 0.9350 -0.2208
vn -0.2543 0.9404 -0.2259
vn -0.3606 0.9200 -0.1535
vn -0.2375 0.9416 -0.2387
vn -0.3549 0.9240 -0.1424
vn -0.3779 0.9147 -0.1434
vn -0.4020 0.9068 -0.1270
vn -0.2150 0.9456 -0.2440
vn -0.2256 0.9423 -0.2475
vn -0.2259 0.9423 -0.2472
vn -0.2194 0.9426 -0.2518
vn -0.2198 0.9425 -0.2517
vn -0.2203 0.9425 -0.2513
vn -0.2145 0.9427 -0.2555
vn -0.2027 0.9430 -0.2640
vn -0.1726 0.9535 -0.2472
vn -0.1808 0.9490 -0.2583
vn -0.1903 0.9433 -0.2718
vn -0.1787 0.9430 -0.2808
vn -0.1558 0.9456 -0.2855
vn -0.1666 0.9427 -0.2890
vn -0.1493 0.9524 -0.2657
vn -0.1608 0.9425 -0.2930
vn -0.1613 0.9426 -0.2925
vn -0.1616 0.9426 -0.2923
vn -0.1550 0.9423 -0.2968
vn -0.1554 0.9422 -0.2967
vn -0.1431 0.9416 -0.3048
vn -0.1275 0.9427 -0.3084
vn -0.1252 0.9404 -0.3163
vn -0.1126 0.9350 -0.3363
vn -0.0918 0.9391 -0.3313
vn -0.0952 0.9330 -0.3470
vn -0.1257 0.9519 -0.2793
vn -0.2086 0.9600 -0.1867
vn -0.1709 0.9684 -0.1818
vn -0.1579 0.9690 -0.1899
vn -0.1520 0.9707 -0.1859
vn -0.1520 0.9705 -0.1872
vn -0.1553 0.9723 -0.1748
vn -0.1557 0.9724 -0.1738
vn -0.1556 0.9724 -0.1737
vn -0.1831 0.9695 -0.1631
vn -0.1966 0.9660 -0.1680
vn -0.1968 0.9696 -0.1456
vn -0.2043 0.9646 -0.1668
vn -0.2180 0.9656 -0.1415
vn -0.1911 0.9685 -0.1599
vn -0.2445 0.9534 -0.1767
vn -0.2350 0.9583 -0.1627
vn -0.2598 0.9502 -0.1719
vn -0.2956 0.9438 -0.1476
vn -0.3221 0.9353 -0.1466
vn -0.4018 0.9087 -0.1130
vn -0.4190 0.9004 -0.1169
vn -0.4392 0.8934 -0.0941
vn -0.4252 0.9011 -0.0851
vn -0.4564 0.8863 -0.0789
vn -0.3589 0.9261 -0.1165
vn -0.0869 0.9646 -0.2490
vn -0.0849 0.9685 -0.2342
vn -0.0584 0.9656 -0.2532
vn -0.0591 0.9620 -0.2666
vn -0.0264 0.9615 -0.2736
vn -0.0226 0.9563 -0.2917
vn -0.0088 0.9554 -0.2952
vn 0.0042 0.9428 -0.3335
vn -0.0028 0.9518 -0.3068
vn 0.0241 0.9507 -0.3092
vn 0.0366 0.9356 -0.3513
vn 0.0584 0.9286 -0.3666
vn 0.0238 0.9445 -0.3276
vn 0.0279 0.9498 -0.3115
vn 0.0529 0.9395 -0.3384
vn 0.0458 0.9407 -0.3363
vn 0.0390 0.9462 -0.3212
vn 0.0456 0.9417 -0.3334
vn 0.0444 0.9449 -0.3243
vn 0.0458 0.9417 -0.3333
vn -0.6855 0.6079 0.4007
vn -0.6673 0.6308 0.3960
vn -0.6756 0.6226 0.3949
vn -0.6850 0.6095 0.3992
vn -0.6883 0.5989 0.4093
vn -0.6838 0.6065 0.4057
vn -0.6816 0.6219 0.3857
vn -0.6765 0.6181 0.4003
vn -0.6682 0.6336 0.3900
vn -0.6761 0.6229 0.3935
vn -0.6680 0.6257 0.4029
vn -0.6598 0.6375 0.3978
vn -0.6783 0.6090 0.4111
vn -0.6594 0.6410 0.3929
vn -0.6740 0.6118 0.4140
vn -0.6780 0.6181 0.3978
vn -0.6866 0.5962 0.4162
vn -0.6963 0.5948 0.4018
vn -0.6913 0.5967 0.4075
vn -0.6851 0.6072 0.4024
vn -0.6955 0.5926 0.4063
vn -0.6962 0.5932 0.4043
vn -0.7062 0.5747 0.4135
vn -0.7032 0.5811 0.4097
vn -0.7021 0.5786 0.4150
vn -0.7019 0.5868 0.4036
vn -0.7075 0.5782 0.4063
vn -0.7090 0.5722 0.4122
vn -0.5977 0.6902 0.4080
vn -0.5742 0.7032 0.4193
vn -0.5763 0.7142 0.3972
vn -0.6060 0.6819 0.4097
vn -0.6366 0.6653 0.3900
vn -0.6250 0.6640 0.4104
vn -0.6420 0.6587 0.3923
vn -0.6507 0.6489 0.3944
vn -0.6497 0.6491 0.3956
vn -0.6553 0.6481 0.3880
vn -0.6339 0.6942 0.3411
vn -0.6374 0.6786 0.3650
vn -0.6594 0.6693 0.3425
vn -0.6448 0.6621 0.3818
vn -0.6613 0.6325 0.4033
vn -0.6433 0.6609 0.3865
vn -0.6284 0.6821 0.3739
vn -0.6710 0.6245 0.3997
vn -0.6661 0.6251 0.4068
vn -0.6495 0.6567 0.3832
vn -0.6808 0.6105 0.4047
vn -0.6348 0.6542 0.4111
vn -0.6250 0.6844 0.3755
vn -0.6505 0.6552 0.3842
vn -0.6081 0.6875 0.3970
vn -0.6131 0.6871 0.3900
vn -0.6232 0.6678 0.4071
vn -0.6081 0.6872 0.3974
vn -0.6308 0.6645 0.4006
vn -0.6027 0.6876 0.4051
vn -0.6090 0.6885 0.3938
vn -0.6170 0.6694 0.4139
vn -0.6014 0.6880 0.4061
vn -0.6337 0.6582 0.4064
vn -0.6445 0.6532 0.3975
vn -0.6548 0.6253 0.4245
vn -0.6256 0.6581 0.4190
vn -0.6021 0.6884 0.4044
vn -0.6078 0.6655 0.4332
vn -0.5942 0.6833 0.4242
vn -0.6188 0.6666 0.4155
vn -0.5714 0.6719 0.4712
vn -0.5522 0.6941 0.4619
vn -0.5882 0.6816 0.4352
vn -0.5755 0.6891 0.4403
vn -0.6475 0.6263 0.4342
vn -0.6221 0.6570 0.4258
vn -0.6073 0.7174 0.3415
vn -0.5984 0.7160 0.3595
vn -0.5890 0.7275 0.3520
vn -0.6084 0.6826 0.4049
vn -0.6005 0.7117 0.3645
vn -0.6200 0.6843 0.3839
vn -0.6420 0.6248 0.4445
vn -0.6189 0.6632 0.4208
vn -0.6113 0.6652 0.4288
vn -0.6065 0.6831 0.4068
vn -0.5972 0.6786 0.4275
vn -0.6172 0.6596 0.4290
vn -0.6053 0.6765 0.4195
vn -0.6081 0.6783 0.4126
vn -0.6415 0.6323 0.4343
vn -0.6329 0.6368 0.4405
vn -0.6195 0.6526 0.4362
vn -0.6473 0.6252 0.4360
vn -0.6454 0.6140 0.4544
vn -0.6475 0.6233 0.4385
vn -0.6604 0.5890 0.4658
vn -0.6670 0.5901 0.4549
vn -0.7104 0.5281 0.4652
vn -0.6614 0.5902 0.4630
vn -0.6942 0.5704 0.4390
vn -0.6795 0.5532 0.4819
vn -0.6589 0.5859 0.4718
vn -0.6837 0.5536 0.4755
vn -0.6779 0.5511 0.4865
vn -0.6491 0.5838 0.4877
vn -0.6761 0.5553 0.4842
vn -0.6633 0.5892 0.4614
vn -0.6679 0.5931 0.4496
vn -0.6783 0.5590 0.4768
vn -0.6890 0.5519 0.4698
vn -0.6901 0.5618 0.4563
vn -0.6742 0.5960 0.4362
vn -0.6972 0.5620 0.4451
vn -0.6841 0.6007 0.4138
vn -0.6991 0.5638 0.4398
vn -0.7080 0.5884 0.3905
vn -0.7230 0.5564 0.4095
vn -0.6944 0.5575 0.4550
vn -0.6747 0.5748 0.4630
vn -0.6960 0.5597 0.4498
vn -0.6894 0.5931 0.4159
vn -0.6871 0.5994 0.4106
vn -0.6945 0.5634 0.4476
vn -0.6761 0.5936 0.4365
vn -0.7052 0.5686 0.4235
vn -0.7077 0.5698 0.4177
vn -0.6935 0.5926 0.4097
vt 0.868266 0.107746
vt 0.849261 0.062597
vt 0.849762 0.026885
vt 0.849296 0.098113
vt 0.849261 0.132906
vt 0.872600 0.036328
vt 0.861036 0.016301
vt 0.850718 -0.000000
vt 0.883521 0.056211
vt 0.850337 0.168149
vt 0.894259 0.079525
vt 0.876481 0.140619
vt 0.852124 0.199828
vt 0.863545 0.185132
vt 0.854572 0.214201
vt 0.763662 0.151104
vt 0.738424 0.035676
vt 0.763864 0.017278
vt 0.741218 0.002165
vt 0.742900 -0.000000
vt 0.797886 0.175517
vt 0.797690 0.048979
vt 0.826620 0.083203
vt 0.825656 0.211816
vt 0.847525 0.191739
vt 0.844998 0.109016
vt 0.849261 0.271607
vt 0.848988 0.370446
vt 0.824505 0.342571
vt 0.795960 0.315102
vt 0.822647 0.442429
vt 0.795233 0.416541
vt 0.846297 0.468515
vt 0.818624 0.578117
vt 0.841485 0.570201
vt 0.799542 0.705586
vt 0.794582 0.561522
vt 0.835154 0.659339
vt 0.813222 0.723062
vt 0.827791 0.744002
vt 0.752625 0.580976
vt 0.748941 0.550189
vt 0.766411 0.527176
vt 0.756684 0.611298
vt 0.761098 0.641678
vt 0.764785 0.667524
vt 0.743510 0.501502
vt 0.738754 0.453353
vt 0.784700 0.688275
vt 0.764252 0.391178
vt 0.735325 0.405978
vt 0.733643 0.358678
vt 0.732311 0.310587
vt 0.763629 0.288232
vt 0.732041 0.262729
vt 0.732041 0.215625
vt 0.732956 0.169658
vt 0.734247 0.125249
vt 0.736050 0.080202
vt 0.418857 0.976424
vt 0.408432 0.983669
vt 0.314315 0.969536
vt 0.398712 0.989357
vt 0.385936 0.994910
vt 0.370386 0.998721
vt 0.353733 1.000000
vt 0.334770 0.998720
vt 0.286944 0.990799
vt 0.248809 0.955110
vt 0.279885 0.919345
vt 0.224356 0.977979
vt 0.207183 0.903150
vt 0.229498 0.861371
vt 0.184849 0.940330
vt 0.167563 0.966274
vt 0.148823 0.845694
vt 0.164589 0.797900
vt 0.074277 0.785054
vt 0.133784 0.887528
vt 0.067093 0.833120
vt 0.000108 0.823110
vt 0.000166 0.863441
vt 0.116434 0.924435
vt 0.101103 0.950923
vt 0.059581 0.873157
vt 0.000677 0.893276
vt 0.049575 0.907941
vt 0.040998 0.937038
vt 0.002225 0.904899
vt 0.005193 0.913853
vt 0.030938 0.934103
vt 0.009934 0.921741
vt 0.024214 0.931463
vt 0.016545 0.927326
vt 0.571642 0.224555
vt 0.455005 0.206429
vt 0.555960 0.190105
vt 0.538870 0.158316
vt 0.423557 0.153602
vt 0.521382 0.132163
vt 0.502903 0.106717
vt 0.385536 0.282224
vt 0.362021 0.222893
vt 0.286149 0.295070
vt 0.298726 0.362839
vt 0.198138 0.393037
vt 0.388659 0.103416
vt 0.482398 0.082712
vt 0.460793 0.059661
vt 0.338124 0.171020
vt 0.351799 0.063927
vt 0.437076 0.038514
vt 0.418863 0.023574
vt 0.309487 0.121541
vt 0.314314 0.030454
vt 0.408426 0.016330
vt 0.398715 0.010647
vt 0.385936 0.005095
vt 0.370391 0.001284
vt 0.353731 0.000000
vt 0.334770 0.001283
vt 0.286942 0.009198
vt 0.279885 0.080637
vt 0.248809 0.044877
vt 0.224356 0.022020
vt 0.184849 0.059654
vt 0.167563 0.033722
vt 0.207183 0.096830
vt 0.229497 0.138605
vt 0.251652 0.187350
vt 0.148823 0.154283
vt 0.269375 0.237889
vt 0.164589 0.202074
vt 0.176231 0.251090
vt 0.186458 0.306149
vt 0.090982 0.377184
vt 0.100024 0.418504
vt 0.092910 0.415069
vt 0.012119 0.400542
vt 0.006239 0.398360
vt 0.002548 0.394990
vt 0.000550 0.389949
vt 0.000101 0.384317
vt 0.000277 0.324280
vt 0.082060 0.282852
vt 0.000453 0.271917
vt 0.114852 0.499984
vt 0.113169 0.467761
vt 0.204716 0.533936
vt 0.113175 0.532214
vt 0.107751 0.437446
vt 0.315292 0.462588
vt 0.104845 0.426669
vt 0.107745 0.562534
vt 0.104845 0.573312
vt 0.194981 0.629481
vt 0.100020 0.581476
vt 0.306613 0.568734
vt 0.298726 0.637129
vt 0.412624 0.573279
vt 0.402097 0.646030
vt 0.286150 0.704899
vt 0.505059 0.655910
vt 0.385536 0.717746
vt 0.483107 0.731790
vt 0.362021 0.777079
vt 0.455005 0.793546
vt 0.571649 0.775425
vt 0.584787 0.740016
vt 0.555958 0.809877
vt 0.595226 0.703790
vt 0.603418 0.667047
vt 0.538865 0.841672
vt 0.610503 0.630053
vt 0.423557 0.846375
vt 0.521382 0.867829
vt 0.502903 0.893277
vt 0.518347 0.578369
vt 0.614763 0.592935
vt 0.614627 0.586622
vt 0.611233 0.581477
vt 0.604341 0.575489
vt 0.602452 0.572137
vt 0.602239 0.568032
vt 0.604092 0.534310
vt 0.417076 0.499983
vt 0.523938 0.499984
vt 0.604914 0.499985
vt 0.604099 0.465670
vt 0.518347 0.421601
vt 0.602240 0.431948
vt 0.412623 0.426690
vt 0.602458 0.427838
vt 0.604347 0.424492
vt 0.611233 0.418504
vt 0.614625 0.413355
vt 0.614763 0.407044
vt 0.610511 0.369922
vt 0.505059 0.344061
vt 0.603417 0.332935
vt 0.595223 0.296192
vt 0.483107 0.268181
vt 0.584790 0.259967
vt 0.402098 0.353940
vt 0.186458 0.693822
vt 0.090982 0.622787
vt 0.092911 0.584906
vt 0.012119 0.599441
vt 0.006240 0.601619
vt 0.002548 0.604994
vt 0.000550 0.610023
vt 0.000108 0.615663
vt 0.000275 0.675698
vt 0.082054 0.717122
vt 0.000452 0.728063
vt -0.000000 0.776868
vt 0.176231 0.748882
vt 0.269376 0.762082
vt 0.251653 0.812625
vt 0.338125 0.828955
vt 0.388660 0.896565
vt 0.482398 0.917284
vt 0.460793 0.940337
vt 0.351799 0.936058
vt 0.437071 0.961486
vt 0.309488 0.878437
vt -0.000000 0.223117
vt 0.074277 0.214920
vt 0.000102 0.176879
vt 0.067092 0.166856
vt 0.000173 0.136543
vt 0.133784 0.112452
vt 0.059581 0.126823
vt 0.000671 0.106710
vt 0.116434 0.075548
vt 0.101102 0.049073
vt 0.049575 0.092041
vt 0.002219 0.095088
vt 0.041000 0.062951
vt 0.030938 0.065892
vt 0.005193 0.086140
vt 0.024205 0.068526
vt 0.009934 0.078246
vt 0.016545 0.072668
vt 0.758123 0.852100
vt 0.776558 0.770894
vt 0.777061 0.806606
vt 0.777030 0.842129
vt 0.777061 0.876908
vt 0.753721 0.780337
vt 0.765286 0.760312
vt 0.775607 0.744002
vt 0.742783 0.800223
vt 0.775978 0.912160
vt 0.732042 0.823530
vt 0.749827 0.884633
vt 0.774193 0.943833
vt 0.762770 0.929148
vt 0.771737 0.958213
vt 0.711429 0.580975
vt 0.697617 0.526812
vt 0.715111 0.550182
vt 0.707361 0.611287
vt 0.702936 0.641675
vt 0.699246 0.667519
vt 0.720546 0.501501
vt 0.669449 0.561376
vt 0.725308 0.453353
vt 0.679324 0.688269
vt 0.664468 0.705575
vt 0.699817 0.391174
vt 0.728741 0.405979
vt 0.730438 0.358679
vt 0.731770 0.310581
vt 0.700448 0.288228
vt 0.732042 0.262723
vt 0.668820 0.416532
vt 0.732042 0.215627
vt 0.700409 0.151098
vt 0.731129 0.169659
vt 0.729850 0.125251
vt 0.668100 0.315092
vt 0.728040 0.080203
vt 0.725671 0.035670
vt 0.666185 0.175563
vt 0.700229 0.017275
vt 0.722883 0.002165
vt 0.721201 0.000000
vt 0.666393 0.048962
vt 0.637439 0.083188
vt 0.638839 0.206194
vt 0.616505 0.191721
vt 0.619042 0.109000
vt 0.614764 0.271582
vt 0.639539 0.342556
vt 0.615031 0.370422
vt 0.641391 0.442414
vt 0.617719 0.468495
vt 0.645387 0.578004
vt 0.622524 0.570181
vt 0.628848 0.659316
vt 0.650785 0.723052
vt 0.636198 0.743981
s 1
usemtl Window
f 1/1/1 231/2/2 302/3/3
f 231/2/2 1/1/1 123/4/4
f 1/1/1 235/5/5 123/4/4
f 302/3/3 2/6/6 1/1/1
f 140/7/7 2/6/8 302/3/9
f 140/7/7 302/3/9 232/8/10
f 2/6/11 192/9/12 1/1/13
f 235/5/14 1/1/15 303/10/16
f 280/11/17 1/1/18 192/9/19
f 3/12/20 1/1/18 280/11/17
f 1/1/18 234/13/21 303/10/22
f 234/13/21 1/1/18 3/12/20
f 234/13/21 3/12/20 163/14/23
f 234/13/21 163/14/23 286/15/24
f 4/16/25 276/17/26 5/18/27
f 276/17/28 131/19/29 5/18/30
f 131/19/31 132/20/32 5/18/33
f 6/21/34 4/16/25 5/18/27
f 136/22/35 6/21/36 5/18/37
f 7/23/38 6/21/34 136/22/39
f 8/24/40 6/21/34 7/23/38
f 7/23/41 285/25/42 8/24/43
f 137/26/44 285/25/45 7/23/46
f 284/27/47 8/24/48 285/25/49
f 284/27/50 283/28/51 8/24/52
f 8/24/40 9/29/53 6/21/34
f 8/24/40 283/28/54 9/29/53
f 9/29/53 10/30/55 6/21/34
f 283/28/54 11/31/56 9/29/53
f 9/29/53 11/31/56 10/30/55
f 11/31/56 12/32/57 10/30/55
f 189/33/58 11/31/56 283/28/54
f 11/31/56 13/34/59 12/32/57
f 189/33/58 13/34/59 11/31/56
f 188/35/60 13/34/61 189/33/62
f 174/36/63 14/37/64 13/34/59
f 282/38/65 13/34/66 188/35/67
f 174/36/63 13/34/59 164/39/68
f 13/34/69 282/38/70 164/39/71
f 164/39/72 282/38/73 281/40/74
f 15/41/75 226/42/76 16/43/77
f 15/41/78 16/43/79 233/44/80
f 233/44/81 16/43/82 225/45/83
f 225/45/83 16/43/82 296/46/84
f 16/43/85 226/42/86 227/47/87
f 16/43/88 14/37/89 296/46/90
f 16/43/85 227/47/87 228/48/91
f 296/46/90 14/37/89 165/49/92
f 165/49/93 14/37/64 174/36/63
f 16/43/94 228/48/95 17/50/96
f 17/50/97 228/48/98 230/51/99
f 17/50/100 230/51/101 128/52/102
f 299/53/103 17/50/100 128/52/102
f 12/32/57 16/43/94 17/50/96
f 14/37/64 16/43/94 12/32/57
f 18/54/104 17/50/105 299/53/106
f 12/32/57 17/50/96 18/54/107
f 18/54/104 299/53/106 223/55/108
f 224/56/109 18/54/104 223/55/108
f 13/34/59 14/37/64 12/32/57
f 4/16/110 18/54/111 224/56/112
f 4/16/113 224/56/114 297/57/115
f 19/58/116 4/16/113 297/57/115
f 10/30/55 12/32/57 18/54/107
f 10/30/55 18/54/107 4/16/25
f 4/16/117 19/58/118 229/59/119
f 276/17/120 4/16/121 229/59/122
f 6/21/34 10/30/55 4/16/25
f 20/60/123 237/61/124 21/62/125
f 237/61/124 208/63/126 21/62/125
f 208/63/126 196/64/127 21/62/125
f 196/64/127 197/65/128 21/62/125
f 197/65/128 198/66/129 21/62/125
f 198/66/129 251/67/130 21/62/125
f 251/67/130 199/68/131 21/62/125
f 21/62/125 199/68/131 22/69/132
f 22/69/132 23/70/133 21/62/125
f 22/69/132 199/68/131 252/71/134
f 22/69/132 24/72/135 23/70/133
f 25/73/136 23/70/133 24/72/135
f 252/71/134 26/74/137 22/69/132
f 26/74/137 24/72/135 22/69/132
f 253/75/138 26/74/137 252/71/134
f 25/73/136 24/72/135 27/76/139
f 27/76/139 28/77/140 25/73/136
f 27/76/139 29/78/141 28/77/140
f 27/76/139 24/72/135 30/79/142
f 26/74/137 30/79/142 24/72/135
f 31/80/143 29/78/141 27/76/139
f 27/76/139 30/79/142 31/80/143
f 31/80/143 257/81/144 29/78/141
f 257/81/144 31/80/143 32/82/145
f 26/74/137 253/75/138 33/83/146
f 33/83/146 30/79/142 26/74/137
f 33/83/146 253/75/138 175/84/147
f 31/80/143 30/79/142 34/85/148
f 32/82/145 31/80/143 34/85/148
f 33/83/146 34/85/148 30/79/142
f 34/85/148 256/86/149 32/82/145
f 33/83/146 175/84/147 35/87/150
f 35/87/150 34/85/148 33/83/146
f 35/87/150 256/86/149 34/85/148
f 35/87/150 175/84/147 36/88/151
f 255/89/152 256/86/149 35/87/150
f 171/90/153 255/89/152 35/87/150
f 35/87/150 36/88/151 183/91/154
f 37/92/155 171/90/153 35/87/150
f 35/87/150 183/91/154 254/93/156
f 182/94/157 37/92/155 35/87/150
f 182/94/157 35/87/150 254/93/156
f 38/95/158 39/96/159 222/97/160
f 39/96/159 275/98/161 222/97/160
f 40/99/162 275/98/161 39/96/159
f 275/98/161 40/99/162 221/100/163
f 221/100/163 40/99/162 274/101/164
f 39/96/159 41/102/165 42/103/166
f 42/103/166 40/99/162 39/96/159
f 43/104/167 41/102/165 44/105/168
f 41/102/165 43/104/167 42/103/166
f 45/106/169 43/104/167 44/105/168
f 274/101/164 40/99/162 46/107/170
f 274/101/164 46/107/170 214/108/171
f 46/107/170 213/109/172 214/108/171
f 40/99/162 47/110/173 46/107/170
f 47/110/173 40/99/162 42/103/166
f 48/111/174 213/109/172 46/107/170
f 213/109/172 48/111/174 273/112/175
f 273/112/175 48/111/174 272/113/176
f 46/107/170 49/114/177 48/111/174
f 46/107/170 47/110/173 49/114/177
f 272/113/176 48/111/174 50/115/178
f 272/113/176 50/115/178 51/116/179
f 51/116/179 50/115/178 271/117/180
f 271/117/180 50/115/178 200/118/181
f 200/118/181 50/115/178 270/119/182
f 270/119/182 50/115/178 52/120/183
f 52/120/183 50/115/178 269/121/184
f 269/121/184 50/115/178 53/122/185
f 48/111/174 54/123/186 50/115/178
f 48/111/174 49/114/177 54/123/186
f 50/115/178 55/124/187 53/122/185
f 50/115/178 54/123/186 55/124/187
f 53/122/185 55/124/187 268/125/188
f 55/124/187 56/126/189 268/125/188
f 268/125/188 56/126/189 267/127/190
f 54/123/186 57/128/191 55/124/187
f 55/124/187 57/128/191 56/126/189
f 58/129/192 54/123/186 49/114/177
f 57/128/191 54/123/186 58/129/192
f 49/114/177 59/130/193 58/129/192
f 47/110/173 59/130/193 49/114/177
f 60/131/194 57/128/191 58/129/192
f 59/130/193 47/110/173 61/132/195
f 61/132/195 47/110/173 42/103/166
f 42/103/166 43/104/167 61/132/195
f 59/130/193 62/133/196 58/129/192
f 58/129/192 62/133/196 60/131/194
f 63/134/197 59/130/193 61/132/195
f 62/133/196 59/130/193 63/134/197
f 43/104/167 64/135/198 61/132/195
f 61/132/195 64/135/198 63/134/197
f 64/135/198 43/104/167 45/106/199
f 65/136/200 64/135/198 45/106/199
f 45/106/199 263/137/201 65/136/200
f 65/136/200 263/137/201 66/138/202
f 176/139/203 65/136/200 66/138/202
f 67/140/204 65/136/200 176/139/203
f 67/140/205 264/141/206 65/136/207
f 65/136/207 264/141/206 68/142/208
f 65/136/207 68/142/208 69/143/209
f 177/144/210 65/136/207 69/143/209
f 70/145/211 65/136/207 177/144/210
f 70/145/211 64/135/212 65/136/207
f 64/135/212 70/145/211 63/134/213
f 177/144/210 178/146/214 70/145/211
f 73/147/215 74/148/216 72/149/217
f 73/147/215 72/149/217 261/150/218
f 72/149/217 74/148/216 45/106/169
f 45/106/199 74/148/219 262/151/220
f 71/152/221 72/149/217 45/106/169
f 262/151/220 184/153/222 45/106/199
f 72/149/223 181/154/224 261/150/225
f 181/154/224 72/149/223 170/155/226
f 45/106/199 184/153/222 263/137/201
f 45/106/169 44/105/168 71/152/221
f 72/149/223 75/156/227 170/155/226
f 75/156/227 169/157/228 170/155/226
f 71/152/221 76/158/229 72/149/217
f 76/158/229 77/159/230 72/149/223
f 72/149/223 77/159/230 75/156/227
f 71/152/221 78/160/231 76/158/229
f 76/158/229 79/161/232 77/159/230
f 78/160/231 79/161/232 76/158/229
f 77/159/230 80/162/233 75/156/227
f 78/160/231 81/163/234 79/161/232
f 79/161/232 82/164/235 77/159/230
f 77/159/230 82/164/235 80/162/233
f 79/161/232 83/165/236 82/164/235
f 81/163/234 83/165/236 79/161/232
f 84/166/237 80/162/233 82/164/235
f 85/167/238 82/164/235 83/165/236
f 84/166/237 82/164/235 85/167/238
f 85/167/238 83/165/236 241/168/239
f 241/168/239 83/165/236 220/169/240
f 241/168/239 86/170/241 85/167/238
f 240/171/242 220/169/240 83/165/236
f 81/163/234 240/171/242 83/165/236
f 239/172/243 240/171/242 81/163/234
f 86/170/241 217/173/244 85/167/238
f 87/174/245 239/172/243 81/163/234
f 85/167/238 217/173/244 88/175/246
f 85/167/238 88/175/246 84/166/237
f 217/173/244 218/176/247 88/175/246
f 236/177/248 88/175/246 218/176/247
f 89/178/249 87/174/245 81/163/234
f 238/179/250 87/174/245 89/178/249
f 89/178/249 212/180/251 238/179/250
f 89/178/249 211/181/252 212/180/251
f 89/178/249 210/182/253 211/181/252
f 89/178/249 90/183/254 210/182/253
f 89/178/249 250/184/255 90/183/254
f 89/178/249 81/163/234 78/160/231
f 209/185/256 250/184/255 89/178/249
f 91/186/257 89/178/249 78/160/231
f 92/187/258 209/185/256 89/178/249
f 92/187/258 89/178/249 91/186/257
f 93/188/259 209/185/256 92/187/258
f 91/186/257 78/160/231 71/152/221
f 92/187/258 249/189/260 93/188/259
f 94/190/261 249/189/260 92/187/258
f 91/186/257 94/190/261 92/187/258
f 249/189/260 94/190/261 248/191/262
f 71/152/221 95/192/263 91/186/257
f 95/192/263 94/190/261 91/186/257
f 94/190/261 247/193/264 248/191/262
f 94/190/261 246/194/265 247/193/264
f 94/190/261 216/195/266 246/194/265
f 94/190/261 96/196/267 216/195/266
f 94/190/261 245/197/268 96/196/267
f 94/190/261 244/198/269 245/197/268
f 97/199/270 244/198/269 94/190/261
f 94/190/261 95/192/263 97/199/270
f 244/198/269 97/199/270 243/200/271
f 97/199/270 215/201/272 243/200/271
f 98/202/273 215/201/272 97/199/270
f 215/201/272 98/202/273 242/203/274
f 97/199/270 95/192/263 99/204/275
f 71/152/221 99/204/275 95/192/263
f 97/199/270 99/204/275 98/202/273
f 44/105/168 99/204/275 71/152/221
f 242/203/274 98/202/273 38/95/158
f 44/105/168 41/102/165 99/204/275
f 98/202/273 99/204/275 41/102/165
f 38/95/158 98/202/273 39/96/159
f 98/202/273 41/102/165 39/96/159
f 75/156/227 80/162/233 100/205/276
f 75/156/227 100/205/276 101/206/277
f 75/156/227 101/206/277 169/157/228
f 101/206/277 168/207/278 169/157/228
f 166/208/279 168/207/278 101/206/277
f 167/209/280 166/208/279 101/206/277
f 167/209/280 101/206/277 260/210/281
f 101/206/277 102/211/282 260/210/281
f 101/206/277 259/212/283 102/211/282
f 101/206/277 103/213/284 259/212/283
f 104/214/285 103/213/284 101/206/277
f 101/206/277 100/205/276 104/214/285
f 104/214/285 105/215/286 103/213/284
f 104/214/287 258/216/288 105/215/289
f 106/217/290 104/214/285 100/205/276
f 106/217/291 100/205/276 107/218/292
f 107/218/292 100/205/276 80/162/233
f 107/218/292 80/162/233 84/166/237
f 29/78/141 258/216/288 104/214/287
f 29/78/141 257/81/144 258/216/288
f 106/217/291 28/77/140 104/214/287
f 104/214/287 28/77/140 29/78/141
f 107/218/292 108/219/293 106/217/291
f 106/217/291 108/219/293 28/77/140
f 84/166/237 109/220/294 107/218/292
f 107/218/292 109/220/294 108/219/293
f 84/166/237 88/175/246 109/220/294
f 110/221/295 109/220/294 88/175/246
f 110/221/295 88/175/246 236/177/248
f 236/177/248 219/222/296 110/221/295
f 219/222/296 206/223/297 110/221/295
f 110/221/295 206/223/297 111/224/298
f 206/223/297 207/225/299 111/224/298
f 112/226/300 109/220/294 110/221/295
f 112/226/300 108/219/293 109/220/294
f 110/221/295 111/224/298 112/226/300
f 20/60/123 111/224/298 207/225/299
f 25/73/136 108/219/293 112/226/300
f 25/73/136 28/77/140 108/219/293
f 112/226/300 111/224/298 23/70/133
f 112/226/300 23/70/133 25/73/136
f 21/62/125 111/224/298 20/60/123
f 21/62/125 23/70/133 111/224/298
f 70/145/301 62/133/196 63/134/197
f 178/146/302 265/227/303 70/145/301
f 113/228/304 62/133/196 70/145/301
f 70/145/301 265/227/303 113/228/304
f 62/133/196 113/228/304 60/131/194
f 265/227/303 186/229/305 113/228/304
f 113/228/304 186/229/305 114/230/306
f 60/131/194 113/228/304 114/230/306
f 186/229/305 266/231/307 114/230/306
f 114/230/306 115/232/308 60/131/194
f 115/232/308 57/128/191 60/131/194
f 57/128/191 115/232/308 56/126/189
f 114/230/306 266/231/307 116/233/309
f 116/233/309 115/232/308 114/230/306
f 266/231/307 117/234/310 116/233/309
f 56/126/189 115/232/308 118/235/311
f 115/232/308 116/233/309 118/235/311
f 56/126/189 118/235/311 267/127/190
f 267/127/190 118/235/311 204/236/312
f 116/233/309 117/234/310 119/237/313
f 118/235/311 116/233/309 119/237/313
f 119/237/313 204/236/312 118/235/311
f 120/238/314 119/237/313 117/234/310
f 205/239/315 204/236/312 119/237/313
f 119/237/313 203/240/316 205/239/315
f 187/241/317 119/237/313 120/238/314
f 119/237/313 121/242/318 203/240/316
f 202/243/319 119/237/313 187/241/317
f 201/244/320 121/242/318 119/237/313
f 201/244/320 119/237/313 202/243/319
f 142/245/321 294/246/322 300/247/323
f 300/247/323 295/248/324 142/245/321
f 142/245/325 295/248/326 143/249/327
f 141/250/328 294/246/329 142/245/330
f 190/251/331 294/246/332 141/250/333
f 190/251/331 139/252/334 294/246/332
f 141/250/335 142/245/336 191/253/337
f 301/254/338 142/245/339 143/249/340
f 191/253/341 142/245/342 144/255/343
f 144/255/344 142/245/339 185/256/345
f 142/245/339 301/254/338 122/257/346
f 122/257/346 185/256/345 142/245/339
f 122/257/346 277/258/347 185/256/345
f 278/259/348 277/258/347 122/257/346
f 125/260/349 145/261/350 126/262/351
f 125/260/352 124/263/353 145/261/354
f 124/263/355 292/264/356 145/261/357
f 292/264/356 293/265/358 145/261/357
f 288/266/359 126/262/360 145/261/361
f 293/265/362 146/267/363 145/261/364
f 145/261/361 289/268/365 288/266/359
f 172/269/366 146/267/367 293/265/368
f 172/269/366 173/270/369 146/267/367
f 147/271/370 289/268/371 145/261/372
f 290/272/373 289/268/374 147/271/375
f 147/271/375 127/273/376 290/272/373
f 147/271/377 129/274/378 127/273/379
f 148/275/380 129/274/378 147/271/377
f 148/275/380 130/276/381 129/274/378
f 147/271/382 145/261/383 149/277/384
f 149/277/384 148/275/385 147/271/382
f 148/275/380 287/278/386 130/276/381
f 150/279/387 287/278/388 148/275/389
f 150/279/390 298/280/391 287/278/392
f 150/279/390 134/281/393 298/280/391
f 151/282/394 150/279/395 148/275/385
f 151/282/394 148/275/385 149/277/384
f 150/279/396 291/283/397 134/281/398
f 133/284/399 291/283/400 150/279/401
f 152/285/402 150/279/395 151/282/394
f 150/279/403 153/286/404 133/284/405
f 133/284/406 153/286/407 154/287/408
f 154/287/408 153/286/407 138/288/409
f 152/285/410 153/286/404 150/279/403
f 135/289/411 153/286/412 152/285/413
f 135/289/414 152/285/415 155/290/416
f 155/290/416 152/285/415 156/291/417
f 279/292/418 155/290/419 156/291/420
f 195/293/421 155/290/422 279/292/423
f 279/292/424 156/291/425 194/294/426
f 156/291/427 152/285/402 157/295/428
f 156/291/427 157/295/428 194/294/429
f 157/295/428 152/285/402 151/282/394
f 194/294/430 157/295/428 193/296/431
f 157/295/428 151/282/394 158/297/432
f 157/295/428 158/297/432 193/296/431
f 158/297/432 151/282/394 149/277/384
f 193/296/431 158/297/432 159/298/433
f 158/297/432 160/299/434 159/298/433
f 158/297/432 149/277/384 160/299/434
f 159/298/435 160/299/436 161/300/437
f 160/299/434 149/277/384 146/267/367
f 149/277/384 145/261/383 146/267/367
f 173/270/369 160/299/434 146/267/367
f 161/300/438 160/299/439 162/301/440
f 173/270/369 180/302/441 160/299/434
f 180/302/442 162/301/443 160/299/444
f 179/303/445 162/301/446 180/302/447
