# Blender 4.1.0
# www.blender.org
mtllib Newhill.mtl
o Hill
v 0.108627 -0.514681 -1.592557
v 0.108611 -0.549073 -1.488066
v 0.108481 -0.574727 -1.388825
v 0.108222 -0.569540 -1.312135
v 0.108078 -0.511362 -1.198800
v 0.108302 -0.431982 -1.083888
v 0.107898 -0.326170 -0.944571
v 0.107994 -0.122531 -0.773721
v 0.107865 0.112267 -0.585448
v 0.107919 0.298576 -0.410905
v 0.108082 0.435736 -0.254767
v 0.107988 0.556691 -0.071750
v 0.108089 0.661917 0.064713
v 0.108407 0.727464 0.226294
v 0.108408 0.713691 0.427000
v 0.108408 0.705429 0.702092
v -0.302507 -0.498983 -1.587389
v -0.302503 -0.533223 -1.483388
v -0.302593 -0.574710 -1.388973
v -0.301860 -0.566922 -1.313025
v -0.302072 -0.496716 -1.206459
v -0.301078 -0.445529 -1.074487
v -0.300759 -0.326160 -0.944632
v -0.300634 -0.126007 -0.769525
v -0.301902 0.122982 -0.598040
v -0.300816 0.298638 -0.410907
v -0.301989 0.444500 -0.261454
v -0.301033 0.556709 -0.071784
v -0.301320 0.662008 0.064847
v -0.302736 0.754738 0.222489
v -0.302338 0.713691 0.427000
v -0.302338 0.705429 0.702092
v -0.763304 -0.504194 -1.497216
v -0.763385 -0.541121 -1.393849
v -0.762664 -0.574710 -1.297101
v -0.760173 -0.569469 -1.220470
v -0.758781 -0.511080 -1.107062
v -0.758113 -0.445180 -0.982817
v -0.761188 -0.314519 -0.864623
v -0.756967 -0.125588 -0.678129
v -0.757040 0.112718 -0.494076
v -0.757454 0.299013 -0.319407
v -0.759630 0.438173 -0.164728
v -0.758010 0.557060 0.019855
v -0.758852 0.662231 0.156542
v -0.760853 0.705706 0.321209
v -0.762372 0.721956 0.518888
v -0.762197 0.716451 0.793979
v -1.212853 -0.543142 -1.310129
v -1.212541 -0.577549 -1.205660
v -1.211578 -0.570364 -1.103130
v -1.206539 -0.597617 -1.030000
v -1.204543 -0.538975 -0.916863
v -1.203593 -0.472946 -0.792787
v -1.203577 -0.351683 -0.665243
v -1.202111 -0.153316 -0.488555
v -1.202205 0.084973 -0.304487
v -1.202738 0.271267 -0.129649
v -1.203339 0.403981 0.030114
v -1.203465 0.529293 0.209839
v -1.204720 0.634238 0.346638
v -1.209016 0.685473 0.510524
v -1.213654 0.726377 0.709410
v -1.210706 0.693460 0.984500
v -1.605057 -0.573022 -1.072256
v -1.604924 -0.607269 -0.968257
v -1.603495 -0.640497 -0.872986
v -1.613508 -0.597131 -0.809431
v -1.597309 -0.579039 -0.687004
v -1.593809 -0.517288 -0.560920
v -1.592659 -0.397783 -0.431938
v -1.592274 -0.197703 -0.257224
v -1.598444 0.046544 -0.080125
v -1.597276 0.232035 0.097108
v -1.594939 0.361538 0.260463
v -1.593688 0.484960 0.441683
v -1.595182 0.589686 0.578772
v -1.598851 0.632336 0.744254
v -1.602300 0.639838 0.942130
v -1.600928 0.631691 1.217205
v -2.112854 -0.671410 -0.621160
v -2.114899 -0.737134 -0.526979
v -2.111053 -0.762665 -0.427788
v -2.108020 -0.748574 -0.353713
v -2.104815 -0.692356 -0.241440
v -2.110316 -0.619228 -0.123438
v -2.106535 -0.504817 0.006818
v -2.099208 -0.310763 0.187515
v -2.109918 -0.064249 0.362003
v -2.130524 0.142272 0.520162
v -2.100486 0.246666 0.707036
v -2.129534 0.404485 0.863077
v -2.102228 0.476526 1.024164
v -2.106581 0.518657 1.190039
v -2.108968 0.517831 1.388071
v -2.108991 0.517826 1.663138
v -2.724865 -0.827078 -0.041065
v -2.723847 -0.861652 0.063743
v -2.719862 -0.878851 0.164569
v -2.723601 -0.858491 0.232656
v -2.710533 -0.820819 0.351079
v -2.709041 -0.753933 0.475075
v -2.724043 -0.621806 0.589549
v -2.707691 -0.434926 0.777753
v -2.707843 -0.196878 0.961737
v -2.708462 -0.010578 1.136940
v -2.710792 0.123952 1.295845
v -2.709149 0.247793 1.477214
v -2.711728 0.351185 1.613452
v -2.723091 0.417604 1.777545
v -2.717978 0.393360 1.978451
v -2.718012 0.393353 2.253507
v 0.429025 -0.514660 -1.572107
v 0.428992 -0.549047 -1.467638
v 0.428406 -0.574712 -1.368499
v 0.427811 -0.553611 -1.296103
v 0.426471 -0.511317 -1.178383
v 0.428241 -0.425226 -1.068183
v 0.425638 -0.326104 -0.924235
v 0.427360 -0.115513 -0.761812
v 0.431140 0.144238 -0.602649
v 0.426578 0.304646 -0.396169
v 0.425987 0.431446 -0.231015
v 0.426783 0.563397 -0.056221
v 0.427062 0.669378 0.081533
v 0.429163 0.779286 0.239564
v 0.428028 0.705429 0.447444
v 0.428028 0.705429 0.722536
v 0.750443 -0.506776 -1.492821
v 0.749651 -0.533204 -1.386245
v 0.749893 -0.574707 -1.291762
v 0.753213 -0.497911 -1.234365
v 0.745947 -0.511162 -1.101773
v 0.745227 -0.445254 -0.977500
v 0.744286 -0.325814 -0.847828
v 0.749717 -0.110328 -0.691416
v 0.743988 0.112661 -0.488761
v 0.744465 0.298942 -0.314096
v 0.744982 0.431675 -0.154514
v 0.745103 0.556980 0.025162
v 0.748330 0.676769 0.154477
v 0.748883 0.722012 0.324174
v 0.749138 0.705429 0.524134
v 0.749138 0.705429 0.799227
v 1.040481 -0.498931 -1.378104
v 1.042717 -0.548868 -1.278756
v 1.040863 -0.574686 -1.179645
v 1.042895 -0.521861 -1.115722
v 1.037202 -0.501361 -0.994763
v 1.033756 -0.444901 -0.865649
v 1.032402 -0.325341 -0.736185
v 1.037650 -0.115306 -0.573237
v 1.040519 0.128219 -0.394945
v 1.032655 0.299402 -0.202401
v 1.033389 0.432080 -0.042690
v 1.038084 0.570202 0.127632
v 1.034905 0.662387 0.273777
v 1.038124 0.705689 0.438555
v 1.039665 0.705429 0.636268
v 1.039665 0.708183 0.911361
v 1.336030 -0.514247 -1.213456
v 1.326136 -0.502056 -1.095188
v 1.332430 -0.563724 -1.008825
v 1.327769 -0.569294 -0.933491
v 1.329738 -0.496468 -0.827630
v 1.323240 -0.444257 -0.696437
v 1.325225 -0.319366 -0.572601
v 1.332716 -0.110475 -0.409413
v 1.324914 0.118688 -0.214043
v 1.321838 0.300183 -0.033467
v 1.352006 0.487102 0.084926
v 1.329316 0.570382 0.297193
v 1.327288 0.669887 0.439672
v 1.329269 0.705750 0.608231
v 1.331534 0.716445 0.805959
v 1.331534 0.705429 1.081052
v 1.596739 -0.513913 -0.997304
v 1.596499 -0.548360 -0.892856
v 1.592968 -0.574621 -0.793808
v 1.585795 -0.569053 -0.717499
v 1.581958 -0.509751 -0.604642
v 1.582921 -0.439440 -0.483737
v 1.587584 -0.313957 -0.362084
v 1.577784 -0.123380 -0.177691
v 1.577920 0.114894 0.006436
v 1.587679 0.311236 0.172124
v 1.582534 0.437448 0.338913
v 1.580059 0.558904 0.521629
v 1.591724 0.683955 0.648782
v 1.589339 0.716637 0.822742
v 1.590784 0.705429 1.022000
v 1.590784 0.705429 1.297093
v 1.858960 -0.508727 -0.724562
v 1.859831 -0.548328 -0.621781
v 1.855793 -0.574669 -0.522596
v 1.848366 -0.568864 -0.446329
v 1.844827 -0.509630 -0.333669
v 1.848479 -0.435339 -0.215520
v 1.841265 -0.323402 -0.081368
v 1.847205 -0.117606 0.086332
v 1.860334 0.132323 0.257017
v 1.850766 0.311275 0.443113
v 1.842677 0.433773 0.612728
v 1.851092 0.570643 0.784083
v 1.854909 0.683960 0.919834
v 1.852636 0.716613 1.093704
v 1.853963 0.705429 1.293035
v 1.853963 0.705429 1.568127
v 2.128323 -0.498777 -0.473511
v 2.132045 -0.548548 -0.373770
v 2.126698 -0.550048 -0.272777
v 2.119954 -0.567920 -0.196753
v 2.118066 -0.509793 -0.085774
v 2.115887 -0.442645 0.038548
v 2.141773 -0.294979 0.136734
v 2.132940 -0.106345 0.320298
v 2.123480 0.123566 0.514964
v 2.128033 0.316356 0.686167
v 2.116148 0.433291 0.860509
v 2.127924 0.576442 1.027592
v 2.119744 0.662160 1.176297
v 2.126032 0.716495 1.340850
v 2.126743 0.705429 1.540810
v 2.126743 0.738478 1.815903
v 0.108408 0.755003 1.068952
v -0.298217 0.705429 1.068952
v -0.758221 0.721958 1.160838
v -1.204963 0.677015 1.351338
v -1.596412 0.631761 1.584035
v -2.109463 0.539375 2.030023
v -2.713902 0.393350 2.620353
v 0.428028 0.713691 1.089396
v 0.749138 0.705429 1.166086
v 1.039665 0.710937 1.278220
v 1.331534 0.705429 1.447911
v 1.590784 0.705429 1.663953
v 1.853963 0.705429 1.934987
v 2.126743 0.705429 2.182763
v 0.108627 -0.525636 -1.709945
v -0.302507 -0.509939 -1.704777
v -0.763304 -0.515150 -1.614604
v -1.212853 -0.554097 -1.427517
v -1.605057 -0.583978 -1.189644
v -2.112854 -0.682365 -0.738548
v -2.724865 -0.838033 -0.158453
v -2.723847 -0.872607 -0.053645
v -2.719862 -0.889807 0.047181
v -2.723601 -0.869446 0.115268
v -2.710533 -0.831774 0.233692
v -2.709041 -0.764888 0.357688
v -2.724043 -0.632762 0.472161
v -2.707691 -0.445882 0.660366
v -2.707843 -0.207833 0.844349
v -2.708462 -0.021534 1.019552
v -2.710792 0.112997 1.178457
v -2.709149 0.236837 1.359827
v -2.711728 0.340229 1.496064
v -2.723091 0.406648 1.660157
v -2.717978 0.382404 1.861064
v -2.718012 0.382397 2.136119
v 0.429025 -0.525616 -1.689495
v 0.750443 -0.517731 -1.610209
v 1.040481 -0.509886 -1.495492
v 1.336030 -0.525202 -1.330844
v 1.596739 -0.524868 -1.114692
v 1.858960 -0.519683 -0.841950
v 2.128323 -0.509732 -0.590899
v 2.132045 -0.559504 -0.491157
v 2.126698 -0.561004 -0.390165
v 2.119954 -0.578875 -0.314141
v 2.118066 -0.520748 -0.203161
v 2.115887 -0.453601 -0.078840
v 2.141773 -0.305934 0.019346
v 2.132940 -0.117301 0.202910
v 2.123480 0.112611 0.397576
v 2.128033 0.305401 0.568779
v 2.116148 0.422336 0.743121
v 2.127924 0.565487 0.910204
v 2.119744 0.651204 1.058909
v 2.126032 0.705540 1.223463
v 2.126743 0.694474 1.423423
v 2.126743 0.727523 1.698515
v -2.713902 0.382395 2.502966
v 2.126743 0.694474 2.065375
vn 0.0001 0.8343 -0.5514
vn 0.0401 0.8344 -0.5497
vn -0.0000 0.7921 -0.6104
vn -0.0402 0.8221 -0.5679
vn 0.0618 0.8605 -0.5056
vn 0.0001 0.7964 -0.6048
vn -0.0000 0.9977 0.0685
vn -0.0133 0.6427 -0.7660
vn -0.0000 0.9995 0.0300
vn 0.0401 0.5669 -0.8228
vn 0.0401 0.9491 0.3124
vn 0.0239 0.9997 -0.0003
vn 0.0001 0.6837 -0.7298
vn -0.0001 0.9682 0.2503
vn 0.0267 0.7155 -0.6981
vn 0.0065 0.9977 -0.0675
vn 0.0015 0.9966 -0.0819
vn -0.1402 0.6972 -0.7031
vn 0.0279 0.9994 0.0200
vn -0.1910 0.6000 -0.7769
vn 0.0492 0.9406 0.3360
vn -0.0573 0.9983 -0.0144
vn -0.1441 0.6767 -0.7220
vn 0.0653 0.9428 0.3268
vn -0.1502 0.7339 -0.6624
vn -0.0192 0.9975 -0.0676
vn -0.1072 0.8363 -0.5377
vn -0.1263 0.8826 -0.4529
vn -0.1210 0.7864 -0.6058
vn -0.0928 0.8798 -0.4662
vn -0.1569 0.9544 -0.2539
vn -0.1115 0.6652 -0.7383
vn -0.2830 0.7867 -0.5487
vn -0.2430 0.8630 -0.4430
vn -0.2961 0.7565 -0.5831
vn -0.2469 0.8562 -0.4538
vn -0.1684 0.9396 -0.2981
vn -0.3482 0.6794 -0.6459
vn -0.0760 0.9763 -0.2026
vn -0.3379 0.6274 -0.7016
vn -0.0004 0.9929 0.1188
vn -0.3513 0.5723 -0.7410
vn 0.0539 0.9485 0.3122
vn -0.1291 0.9905 0.0464
vn -0.3333 0.6447 -0.6879
vn -0.0205 0.9974 -0.0697
vn -0.3220 0.7276 -0.6057
vn 0.0872 0.9354 0.3426
vn -0.1388 0.9899 0.0300
vn -0.4600 0.5136 -0.7243
vn 0.1164 0.9434 0.3105
vn -0.2166 0.9763 0.0025
vn -0.4353 0.6234 -0.6495
vn 0.0242 0.9441 0.3289
vn -0.4091 0.7179 -0.5633
vn -0.3074 0.7628 -0.5689
vn -0.3929 0.7613 -0.5158
vn -0.1710 0.9777 -0.1219
vn -0.4128 0.7216 -0.5558
vn -0.3379 0.8489 -0.4064
vn -0.2741 0.9298 -0.2457
vn -0.4424 0.6598 -0.6074
vn -0.2405 0.9698 -0.0410
vn -0.4622 0.5838 -0.6675
vn -0.5033 0.7783 -0.3754
vn -0.4508 0.8408 -0.2996
vn -0.5325 0.7081 -0.4637
vn -0.4043 0.8839 -0.2351
vn -0.5800 0.6203 -0.5280
vn -0.2331 0.9725 0.0012
vn -0.6172 0.5485 -0.5641
vn -0.2187 0.9758 -0.0000
vn -0.6432 0.4236 -0.6379
vn 0.2792 0.7846 0.5536
vn -0.2527 0.9659 -0.0571
vn -0.6009 0.4474 -0.6624
vn -0.0140 0.9682 0.2497
vn -0.4978 0.7888 -0.3606
vn -0.4159 0.8964 -0.1535
vn -0.5751 0.5192 -0.6322
vn -0.6808 0.4476 -0.5798
vn 0.1081 0.9444 0.3105
vn 0.0086 0.9910 -0.1339
vn -0.6925 0.4930 -0.5267
vn -0.0236 0.9853 0.1690
vn -0.6161 0.5967 -0.5142
vn -0.4216 0.8622 -0.2810
vn -0.6324 0.6424 -0.4329
vn -0.4152 0.8792 -0.2339
vn -0.6029 0.6300 -0.4895
vn -0.5550 0.7349 -0.3898
vn -0.4735 0.8046 -0.3585
vn -0.6565 0.4500 -0.6054
vn -0.0844 0.9890 0.1215
vn -0.6249 0.5805 -0.5221
vn -0.2002 0.9797 -0.0000
vn -0.0019 0.9267 -0.3759
vn 0.0129 0.7963 -0.6048
vn -0.1619 0.9845 0.0676
vn 0.0488 0.6420 -0.7652
vn 0.0239 0.9993 0.0300
vn 0.0153 0.6255 -0.7801
vn -0.0200 0.9497 0.3126
vn 0.0054 0.9997 -0.0225
vn -0.1058 0.6799 -0.7257
vn -0.0160 0.9681 0.2502
vn 0.0162 0.7512 -0.6599
vn 0.0042 0.9977 -0.0675
vn 0.0524 0.8331 -0.5506
vn -0.0214 0.8894 -0.4566
vn 0.0131 0.7918 -0.6106
vn 0.0363 0.8222 -0.5680
vn 0.0798 0.9391 0.3341
vn 0.1862 0.5991 -0.7787
vn -0.0000 1.0000 -0.0000
vn 0.1753 0.5125 -0.8406
vn -0.0999 0.9451 0.3111
vn -0.0095 1.0000 -0.0000
vn 0.2890 0.7591 -0.5833
vn -0.1106 0.9623 0.2485
vn 0.1689 0.7821 -0.5999
vn 0.0665 0.9581 -0.2787
vn 0.1425 0.7897 -0.5968
vn -0.0962 0.9364 -0.3375
vn 0.1694 0.7810 -0.6012
vn 0.1460 0.7784 -0.6105
vn 0.1103 0.8153 -0.5685
vn 0.2089 0.8072 -0.5521
vn 0.2970 0.5634 -0.7710
vn 0.2155 0.8009 -0.5587
vn 0.0406 0.9940 0.1016
vn 0.2014 0.7161 -0.6683
vn 0.1408 0.8750 -0.4632
vn 0.1541 0.9546 -0.2550
vn 0.2528 0.7125 -0.6545
vn 0.0236 0.9963 0.0826
vn 0.2997 0.5555 -0.7757
vn 0.2994 0.6459 -0.7023
vn -0.1202 0.9638 0.2381
vn 0.0138 0.9999 -0.0075
vn 0.1914 0.6711 -0.7162
vn -0.0982 0.9110 0.4004
vn 0.2396 0.7460 -0.6213
vn 0.3965 0.5565 -0.7301
vn -0.0319 0.9994 -0.0100
vn 0.4025 0.5377 -0.7409
vn -0.2018 0.8733 0.4435
vn 0.4039 0.6918 -0.5986
vn -0.3045 0.9231 0.2348
vn 0.3485 0.7202 -0.5999
vn 0.3289 0.7228 -0.6078
vn 0.1184 0.7696 -0.6274
vn 0.2549 0.9553 -0.1499
vn 0.2938 0.8113 -0.5054
vn 0.2063 0.8985 -0.3874
vn 0.1198 0.9596 -0.2545
vn 0.3663 0.6855 -0.6292
vn -0.0010 1.0000 0.0013
vn 0.4820 0.8319 -0.2749
vn 0.4318 0.7393 -0.5167
vn 0.4789 0.7229 -0.4981
vn 0.3407 0.8792 -0.3330
vn 0.1128 0.9716 -0.2080
vn 0.4968 0.6071 -0.6202
vn 0.0028 0.9985 -0.0540
vn 0.5322 0.5093 -0.6763
vn 0.0091 0.9992 0.0400
vn 0.5962 0.5325 -0.6008
vn 0.0781 0.9923 -0.0958
vn 0.5293 0.6029 -0.5970
vn -0.2947 0.7674 0.5694
vn 0.5563 0.3787 -0.7397
vn -0.0182 0.9972 0.0726
vn 0.6064 0.4860 -0.6294
vn -0.3251 0.8983 0.2955
vn -0.1203 0.9927 -0.0000
vn 0.5470 0.5238 -0.6530
vn -0.2472 0.9387 0.2401
vn 0.5202 0.6887 -0.5051
vn 0.0685 0.9955 -0.0662
vn 0.5073 0.7208 -0.4723
vn 0.4230 0.8080 -0.4102
vn 0.5620 0.5634 -0.6056
vn 0.4621 0.7650 -0.4486
vn 0.1844 0.9664 -0.1790
vn 0.5886 0.5513 -0.5912
vn -0.0580 0.9967 0.0565
vn 0.6242 0.5596 -0.5452
vn 0.3834 0.8224 -0.4203
vn 0.4858 0.6642 -0.5681
vn 0.4424 0.7530 -0.4871
vn 0.2485 0.9526 -0.1756
vn 0.5217 0.6686 -0.5299
vn -0.0504 0.9971 0.0563
vn 0.4535 0.5551 -0.6973
vn 0.5555 0.4489 -0.7000
vn -0.3487 0.8736 0.3395
vn 0.5656 0.6088 -0.5563
vn -0.2198 0.9451 0.2420
vn 0.4362 0.7392 -0.5131
vn -0.0189 0.9968 -0.0777
vn 0.5033 0.6629 -0.5542
vn 0.0267 0.8603 -0.5091
vn 0.0067 0.8896 -0.4567
vn 0.0001 0.7919 -0.6106
vn 0.0400 0.9315 -0.3616
vn 0.0001 0.9267 -0.3759
vn -0.0399 0.7357 -0.6762
vn 0.0631 0.9785 0.1963
vn 0.0001 0.6584 -0.7526
vn -0.0133 0.6255 -0.7801
vn 0.0402 0.9491 0.3125
vn 0.0328 0.9993 -0.0154
vn 0.0401 0.7284 -0.6840
vn 0.0398 0.9148 0.4020
vn 0.0001 0.7513 -0.6600
vn 0.0001 0.9948 -0.1020
vn -0.0624 0.9785 0.1965
vn -0.1134 0.6542 -0.7477
vn -0.1623 0.5591 -0.8130
vn 0.0504 0.9486 0.3123
vn -0.0806 0.9957 0.0459
vn -0.1701 0.7190 -0.6739
vn 0.0624 0.9137 0.4016
vn -0.1381 0.7083 -0.6923
vn -0.0203 0.9946 -0.1018
vn -0.1186 0.8549 -0.5051
vn -0.1150 0.8294 -0.5467
vn -0.1209 0.7861 -0.6061
vn -0.1073 0.9272 -0.3588
vn -0.1008 0.8571 -0.5051
vn -0.1339 0.7297 -0.6705
vn -0.2890 0.8060 -0.5166
vn -0.2429 0.8637 -0.4417
vn -0.2960 0.7561 -0.5836
vn -0.2469 0.8566 -0.4530
vn -0.1679 0.9526 -0.2536
vn -0.3384 0.6269 -0.7018
vn -0.0796 0.9934 -0.0823
vn -0.3538 0.6611 -0.6617
vn 0.0182 0.9996 0.0200
vn -0.3512 0.5722 -0.7411
vn 0.0583 0.9401 0.3359
vn -0.1141 0.9935 0.0012
vn -0.3333 0.6445 -0.6882
vn 0.0605 0.9431 0.3270
vn -0.3153 0.7033 -0.6371
vn -0.0195 0.9975 -0.0676
vn -0.1473 0.9819 0.1191
vn -0.4743 0.5380 -0.6968
vn 0.1164 0.9435 0.3104
vn -0.2251 0.9727 -0.0574
vn -0.4324 0.6164 -0.6581
vn -0.1164 0.9908 -0.0683
vn -0.4060 0.7022 -0.5849
vn 0.0359 0.9372 0.3468
vn -0.3915 0.7547 -0.5265
vn -0.2393 0.8637 -0.4435
vn -0.4127 0.7209 -0.5568
vn -0.3419 0.8307 -0.4394
vn -0.2787 0.9145 -0.2932
vn -0.4413 0.6504 -0.6183
vn -0.2494 0.9474 -0.2007
vn -0.4653 0.5907 -0.6593
vn -0.3654 0.9266 -0.0886
vn -0.5142 0.6788 -0.5242
vn -0.4996 0.7834 -0.3698
vn -0.4049 0.8832 -0.2366
vn -0.5833 0.5984 -0.5492
vn -0.2525 0.9667 -0.0411
vn -0.6149 0.5194 -0.5934
vn -0.2090 0.9775 0.0300
vn -0.6462 0.4372 -0.6255
vn 0.0933 0.9457 0.3113
vn -0.2324 0.9726 0.0026
vn -0.6116 0.5486 -0.5701
vn 0.0439 0.9435 0.3284
vn -0.5276 0.6693 -0.5231
vn -0.5986 0.6147 -0.5137
vn -0.5638 0.6844 -0.4622
vn -0.6779 0.4049 -0.6136
vn 0.3214 0.7733 0.5466
vn 0.1296 0.9913 -0.0223
vn -0.6931 0.3934 -0.6040
vn 0.0422 0.9680 0.2475
vn -0.5579 0.7595 -0.3346
vn -0.3354 0.9279 -0.1628
vn -0.6622 0.4617 -0.5902
vn -0.4983 0.7808 -0.3768
vn -0.5128 0.8128 -0.2766
vn -0.5820 0.6788 -0.4478
vn -0.4084 0.8821 -0.2348
vn -0.6331 0.5906 -0.5004
vn -0.1597 0.9872 0.0022
vn -0.6286 0.5426 -0.5572
vn -0.1085 0.8168 -0.5666
vn 0.0361 0.8234 -0.5663
vn 0.0029 0.9423 0.3348
vn 0.0161 0.6106 -0.7918
vn -0.0967 0.5210 -0.8480
vn 0.0257 0.9997 -0.0000
vn 0.0133 0.7898 -0.6133
vn -0.0160 0.9680 0.2505
vn 0.0561 0.7920 -0.6079
vn -0.0338 0.9594 -0.2799
vn 0.0126 0.7980 -0.6025
vn 0.0215 0.9410 -0.3378
vn 0.0136 0.7925 -0.6097
vn 0.0136 0.7879 -0.6157
vn -0.0197 0.9964 0.0827
vn 0.1655 0.5766 -0.8001
vn 0.3187 0.6420 -0.6974
vn -0.1082 0.9651 0.2385
vn -0.0161 0.9998 -0.0075
vn 0.1968 0.6704 -0.7155
vn -0.0956 0.9113 0.4005
vn 0.1511 0.7598 -0.6324
vn 0.0499 0.5965 -0.8010
vn 0.1607 0.8095 -0.5647
vn -0.0240 0.9949 0.0981
vn 0.1366 0.7250 -0.6750
vn 0.1863 0.8684 -0.4595
vn 0.2347 0.9391 -0.2511
vn 0.1596 0.7267 -0.6682
vn 0.3106 0.7279 -0.6114
vn 0.1833 0.7611 -0.6222
vn 0.0277 0.9858 -0.1658
vn 0.2543 0.8205 -0.5120
vn 0.1511 0.9072 -0.3927
vn 0.1543 0.9548 -0.2539
vn 0.2526 0.7121 -0.6550
vn -0.0005 1.0000 0.0013
vn 0.3189 0.5760 -0.7527
vn -0.0056 0.9999 -0.0100
vn 0.2193 0.5747 -0.7885
vn -0.1170 0.8863 0.4481
vn 0.0189 0.9998 -0.0000
vn 0.2462 0.7293 -0.6383
vn -0.0961 0.9637 0.2492
vn 0.2397 0.7462 -0.6210
vn 0.3964 0.5563 -0.7303
vn -0.0138 0.9991 0.0400
vn 0.4477 0.5889 -0.6729
vn -0.0924 0.9897 -0.1097
vn 0.3795 0.6558 -0.6526
vn -0.3562 0.7480 0.5600
vn 0.2503 0.4889 -0.8357
vn 0.1136 0.9903 0.0802
vn 0.1972 0.9196 -0.3397
vn 0.2981 0.7838 -0.5448
vn 0.2892 0.7867 -0.5453
vn 0.2044 0.9129 -0.3532
vn 0.1210 0.9706 -0.2079
vn 0.3586 0.6544 -0.6657
vn -0.0063 0.9985 -0.0539
vn 0.4678 0.7390 -0.4849
vn 0.4086 0.8136 -0.4136
vn 0.4733 0.6059 -0.6394
vn 0.3695 0.8020 -0.4693
vn 0.1093 0.9772 -0.1821
vn 0.4955 0.5951 -0.6328
vn -0.0044 0.9984 0.0562
vn 0.5734 0.5847 -0.5739
vn 0.5728 0.5010 -0.6487
vn -0.0714 0.9473 0.3123
vn 0.4989 0.5443 -0.6744
vn -0.1642 0.9549 0.2473
vn 0.6347 0.6255 -0.4538
vn 0.0555 0.9962 -0.0675
vn 0.5814 0.4378 -0.6858
vn -0.3495 0.8733 0.3394
vn -0.0812 0.9927 0.0894
vn 0.5704 0.6065 -0.5539
vn -0.2468 0.9390 0.2393
vn 0.5193 0.7044 -0.4839
vn 0.0704 0.9951 -0.0689
vn 0.5069 0.6612 -0.5530
vn 0.4234 0.8073 -0.4111
vn 0.5574 0.6296 -0.5412
vn 0.4728 0.7393 -0.4795
vn 0.1844 0.9664 -0.1791
vn 0.5805 0.6403 -0.5030
vn -0.0580 0.9967 0.0563
vn 0.6035 0.4932 -0.6266
vn 0.3844 0.8204 -0.4232
vn 0.4713 0.7751 -0.4208
vn 0.4251 0.7995 -0.4244
vn 0.2811 0.9080 -0.3106
vn 0.5091 0.4129 -0.7552
vn -0.0503 0.9972 0.0554
vn 0.4807 0.6230 -0.6171
vn -0.0119 0.9928 -0.1193
vn 0.6025 0.5300 -0.5967
vn -0.3852 0.8199 0.4235
vn 0.5450 0.5495 -0.6333
vn -0.0992 0.9950 0.0095
vn 0.4366 0.7606 -0.4804
vn -0.1945 0.9586 0.2081
vn 0.4999 0.6400 -0.5835
vn -0.1199 0.9838 -0.1329
vn -0.9990 -0.0446 0.0042
vn 0.9999 -0.0154 0.0014
vn -0.9997 0.0257 -0.0024
vn -0.1311 0.9871 -0.0921
vn 0.1028 0.9904 -0.0924
vn 0.9996 0.0284 -0.0027
vn -0.9930 -0.1172 0.0109
vn 0.9760 0.2170 -0.0203
vn -0.9957 0.0919 -0.0086
vn -0.9929 -0.1181 0.0110
vn -0.9997 -0.0230 0.0021
vn -0.9935 -0.1131 0.0106
vn -1.0000 0.0013 -0.0001
vn -0.9889 -0.1481 0.0138
vn -0.1240 0.9880 -0.0922
vn -0.9871 0.1592 -0.0149
vn 0.0098 0.9956 -0.0929
vn 0.0059 0.9957 -0.0929
vn 0.9659 0.2578 -0.0241
vn 0.9997 0.0239 -0.0022
vn 0.9980 0.0629 -0.0059
vn 0.0498 0.9944 -0.0928
vn 0.8969 -0.4403 0.0411
vn -1.0000 -0.0000 -0.0000
vn 0.8974 -0.4392 0.0410
vn -0.0015 0.9957 -0.0929
vn -0.3230 0.9423 -0.0879
vn -0.9928 -0.1192 0.0111
vn 0.9996 -0.0270 0.0025
vn -0.0294 0.9952 -0.0929
vn 0.9651 -0.2607 0.0243
vn 0.9924 0.1226 -0.0114
vn 0.0767 0.9927 -0.0926
vn -0.9992 -0.0395 0.0037
vn 1.0000 -0.0000 -0.0000
vn 0.9953 -0.0961 0.0090
vn -0.9992 -0.0392 0.0037
vn 1.0000 0.0007 -0.0001
vn 0.0368 0.9950 -0.0929
vn -0.9828 0.1837 -0.0171
vn 1.0000 0.0036 -0.0003
vn -0.2656 0.9599 -0.0896
vn -0.9987 -0.0514 0.0048
vn 0.0755 0.9928 -0.0927
vn 0.9998 0.0195 -0.0018
vt 0.755537 0.633800
vt 0.802046 0.592909
vt 0.785249 0.645166
vt 0.568294 0.578953
vt 0.568686 0.519243
vt 0.585970 0.525843
vt 0.808978 0.653484
vt 0.825815 0.601188
vt 0.603560 0.534603
vt 0.587300 0.586085
vt 0.830855 0.664060
vt 0.850257 0.610943
vt 0.628155 0.542318
vt 0.611376 0.594531
vt 0.301459 0.275760
vt 0.279544 0.338614
vt 0.273195 0.278924
vt 0.665457 0.552216
vt 0.648650 0.604086
vt 0.241302 0.342930
vt 0.234953 0.283240
vt 0.690829 0.614462
vt 0.707617 0.561103
vt 0.531234 0.278754
vt 0.520787 0.340095
vt 0.515222 0.280222
vt 0.236282 0.411170
vt 0.190755 0.348065
vt 0.743418 0.572257
vt 0.726625 0.624477
vt 0.505832 0.341446
vt 0.500344 0.281623
vt 0.772680 0.580839
vt 0.495719 0.342361
vt 0.490020 0.282696
vt 0.300816 0.403608
vt 0.274397 0.406885
vt 0.723907 0.034390
vt 0.771397 0.086018
vt 0.734098 0.096572
vt 0.681586 0.043134
vt 0.691788 0.106410
vt 0.530180 0.406930
vt 0.514205 0.408395
vt 0.215921 0.479372
vt 0.185995 0.416315
vt 0.645808 0.054395
vt 0.656008 0.116624
vt 0.499288 0.409650
vt 0.616707 0.063517
vt 0.627218 0.126428
vt 0.488938 0.410321
vt 0.587649 0.076328
vt 0.597852 0.138610
vt 0.803088 0.007138
vt 0.830660 0.062576
vt 0.814205 0.070321
vt 0.564080 0.085161
vt 0.574315 0.147517
vt 0.785796 0.016577
vt 0.795999 0.078868
vt 0.540075 0.096086
vt 0.555099 0.160111
vt 0.761262 0.024496
vt 0.631553 0.196154
vt 0.601984 0.208019
vt 0.834827 0.132143
vt 0.818343 0.139787
vt 0.578478 0.216989
vt 0.800128 0.148284
vt 0.558575 0.229634
vt 0.775603 0.156013
vt 0.280745 0.471735
vt 0.255362 0.475434
vt 0.738249 0.165911
vt 0.695941 0.175753
vt 0.508548 0.474948
vt 0.492534 0.476368
vt 0.187039 0.539842
vt 0.164582 0.484304
vt 0.660150 0.185994
vt 0.478727 0.477611
vt 0.467304 0.477907
vt 0.225295 0.535726
vt 0.738328 0.232357
vt 0.696227 0.242242
vt 0.479579 0.535298
vt 0.463640 0.536737
vt 0.128198 0.620876
vt 0.136493 0.544919
vt 0.660245 0.252489
vt 0.448934 0.537868
vt 0.631564 0.262652
vt 0.841577 0.193386
vt 0.831624 0.198799
vt 0.602014 0.274512
vt 0.841577 -0.000000
vt 0.859991 0.059455
vt 0.845364 0.066551
vt 0.578516 0.283539
vt 0.818184 0.206336
vt 0.800157 0.214778
vt 0.559386 0.296417
vt 0.775652 0.222524
vt 0.252120 0.532147
vt 0.827781 0.298105
vt 0.811590 0.305586
vt 0.595100 0.374531
vt 0.571901 0.382716
vt 0.793393 0.314219
vt 0.552821 0.395719
vt 0.769228 0.321859
vt 0.193303 0.613130
vt 0.166050 0.616573
vt 0.731756 0.331465
vt 0.689820 0.341638
vt 0.419552 0.615459
vt 0.403520 0.617125
vt 0.050545 0.718859
vt 0.078727 0.626634
vt 0.654096 0.352524
vt 0.388602 0.617947
vt 0.624973 0.361780
vt 0.835985 0.292797
vt 0.717623 0.454730
vt 0.675351 0.464577
vt 0.340448 0.712617
vt 0.324369 0.713939
vt 0.186790 0.288873
vt 0.227199 0.237113
vt 0.639531 0.474858
vt 0.309614 0.714752
vt 0.610881 0.485118
vt 0.820806 0.416104
vt 0.812717 0.421612
vt 0.581256 0.496934
vt 0.797615 0.428792
vt 0.558022 0.506051
vt 0.779291 0.437199
vt 0.536724 0.519243
vt 0.755336 0.445452
vt 0.117256 0.712109
vt 0.088395 0.714556
vt 0.798223 0.695324
vt 0.576328 0.627978
vt 0.297100 0.229249
vt 0.600220 0.636547
vt 0.265055 0.232814
vt 0.637377 0.645637
vt 0.524156 0.232403
vt 0.177103 0.242829
vt 0.211682 0.191648
vt 0.335512 0.714752
vt 0.343033 0.769373
vt 0.309614 0.741458
vt 0.508147 0.233873
vt 0.715543 0.666147
vt 0.493289 0.235339
vt 0.744233 0.676129
vt 0.541689 0.613490
vt 0.551651 0.571727
vt 0.774302 0.686902
vt 0.557117 0.621059
vt 0.277834 0.184227
vt 0.594254 0.682603
vt 0.249538 0.187349
vt 0.679319 0.654178
vt 0.631216 0.691688
vt 0.509323 0.186692
vt 0.161199 0.197381
vt 0.191890 0.151175
vt 0.673716 0.702497
vt 0.493407 0.188291
vt 0.709503 0.712574
vt 0.854974 0.162897
vt 0.841577 0.205158
vt 0.845833 0.158510
vt 0.738254 0.722237
vt 0.371007 0.757636
vt 0.384940 0.714752
vt 0.388348 0.757636
vt 0.768105 0.733344
vt 0.551121 0.667237
vt 0.824365 0.705352
vt 0.792575 0.741388
vt 0.569616 0.675063
vt 0.854974 0.208165
vt 0.841799 0.250208
vt 0.736828 0.766908
vt 0.455280 0.192664
vt 0.452753 0.149273
vt 0.474079 0.189788
vt 0.766972 0.777793
vt 0.550120 0.711823
vt 0.813059 0.752804
vt 0.790362 0.786525
vt 0.568182 0.719753
vt 0.256860 0.144015
vt 0.592830 0.727224
vt 0.229616 0.146882
vt 0.629832 0.736808
vt 0.490022 0.146030
vt 0.141535 0.156903
vt 0.163898 0.111419
vt 0.671880 0.746765
vt 0.478437 0.189595
vt 0.473961 0.147121
vt 0.708079 0.757208
vt 0.596611 0.776018
vt 0.202269 0.107097
vt 0.633424 0.785919
vt 0.462682 0.105275
vt 0.113415 0.117152
vt 0.130161 0.077121
vt 0.675983 0.795879
vt 0.459116 0.148772
vt 0.447084 0.108305
vt 0.711960 0.805973
vt 0.853357 0.253865
vt 0.848750 0.299054
vt 0.741373 0.815896
vt 0.437117 0.151717
vt 0.421627 0.110354
vt 0.770763 0.826871
vt 0.554128 0.760841
vt 0.810076 0.797959
vt 0.794536 0.835406
vt 0.572062 0.768577
vt 0.229013 0.104358
vt 0.750249 0.863722
vt 0.546194 0.802129
vt 0.536724 0.754043
vt 0.780083 0.874757
vt 0.563063 0.808836
vt 0.218355 0.066896
vt 0.250560 0.102084
vt 0.581640 0.816590
vt 0.195984 0.069895
vt 0.605939 0.824213
vt 0.168017 0.072822
vt 0.643502 0.833607
vt 0.429439 0.070268
vt 0.079678 0.082854
vt 0.088796 0.043112
vt 0.685651 0.843686
vt 0.432209 0.108645
vt 0.413433 0.071769
vt 0.721282 0.854201
vt 0.398599 0.073663
vt 0.126652 0.038812
vt 0.657544 0.886447
vt 0.388603 0.035804
vt 0.038313 0.048845
vt 0.052030 0.007276
vt 0.699138 0.897105
vt 0.372571 0.037127
vt 0.735627 0.906787
vt 0.388437 0.075736
vt 0.357721 0.039098
vt 0.764586 0.916174
vt 0.560593 0.854660
vt 0.804560 0.883664
vt 0.794541 0.927621
vt 0.577424 0.861393
vt 0.176988 0.032886
vt 0.596053 0.869249
vt 0.154626 0.035867
vt 0.620575 0.876391
vt 0.572696 0.906822
vt 0.818902 0.936268
vt 0.806377 0.979971
vt 0.589187 0.913661
vt 0.838565 0.947764
vt 0.829530 0.988320
vt 0.607878 0.921290
vt 0.116384 -0.000000
vt 0.631461 0.929717
vt 0.088339 0.003044
vt 0.668703 0.939200
vt 0.350886 -0.000000
vt 0.711344 0.948890
vt 0.334758 0.000880
vt 0.747327 0.959169
vt 0.347580 0.041207
vt 0.320840 0.003032
vt 0.776295 0.968468
vt 0.309614 0.335392
vt 0.536724 0.338636
vt 0.820167 0.000000
vt 0.536724 0.245356
vt 0.841577 0.158510
vt 0.000000 0.723995
vt 0.347369 0.757836
vt 0.343033 0.714752
vt 0.371007 0.714752
vt 0.309614 0.796701
vt 0.484307 0.236381
vt 0.470080 0.238118
vt -0.000000 0.013077
vt 0.850257 1.000000
vt 0.309614 0.005071
s 0
usemtl Hill_Texture
f 11/1/1 28/2/1 12/3/1
f 5/4/2 20/5/2 21/6/2
f 13/7/3 28/2/3 29/8/3
f 5/4/4 22/9/4 6/10/4
f 14/11/5 29/8/5 30/12/5
f 6/10/6 23/13/6 7/14/6
f 14/15/7 31/16/7 15/17/7
f 7/14/8 24/18/8 8/19/8
f 15/17/9 32/20/9 16/21/9
f 9/22/10 24/18/10 25/23/10
f 1/24/11 18/25/11 2/26/11
f 48/27/12 226/28/12 32/20/12
f 9/22/13 26/29/13 10/30/13
f 2/26/14 19/31/14 3/32/14
f 11/1/15 26/29/15 27/33/15
f 3/32/16 20/34/16 4/35/16
f 31/16/17 46/36/17 47/37/17
f 24/38/18 39/39/18 40/40/18
f 32/20/19 47/37/19 48/27/19
f 25/41/20 40/40/20 41/42/20
f 18/25/21 33/43/21 34/44/21
f 64/45/22 227/46/22 48/27/22
f 26/47/23 41/42/23 42/48/23
f 19/31/24 34/44/24 35/49/24
f 27/50/25 42/48/25 43/51/25
f 20/34/26 35/49/26 36/52/26
f 28/53/27 43/51/27 44/54/27
f 21/55/28 36/56/28 37/57/28
f 29/58/29 44/54/29 45/59/29
f 22/60/30 37/57/30 38/61/30
f 30/62/31 45/59/31 46/63/31
f 23/64/32 38/61/32 39/39/32
f 44/54/33 59/65/33 60/66/33
f 37/57/34 52/67/34 53/68/34
f 45/59/35 60/66/35 61/69/35
f 38/61/36 53/68/36 54/70/36
f 46/63/37 61/69/37 62/71/37
f 39/39/38 54/70/38 55/72/38
f 47/37/39 62/73/39 63/74/39
f 40/40/40 55/72/40 56/75/40
f 48/27/41 63/74/41 64/45/41
f 41/42/42 56/75/42 57/76/42
f 34/44/43 49/77/43 50/78/43
f 80/79/44 228/80/44 64/45/44
f 42/48/45 57/76/45 58/81/45
f 35/49/46 50/78/46 51/82/46
f 43/51/47 58/81/47 59/65/47
f 36/52/48 51/82/48 52/83/48
f 64/45/49 79/84/49 80/79/49
f 57/76/50 72/85/50 73/86/50
f 50/78/51 65/87/51 66/88/51
f 96/89/52 229/90/52 80/79/52
f 58/81/53 73/86/53 74/91/53
f 51/82/54 66/88/54 67/92/54
f 59/65/55 74/91/55 75/93/55
f 52/67/56 67/94/56 68/95/56
f 60/66/57 75/93/57 76/96/57
f 53/97/58 68/98/58 69/99/58
f 61/69/59 76/96/59 77/100/59
f 54/70/60 69/101/60 70/102/60
f 62/71/61 77/100/61 78/103/61
f 55/72/62 70/102/62 71/104/62
f 63/74/63 78/105/63 79/84/63
f 56/75/64 71/104/64 72/85/64
f 69/101/65 84/106/65 85/107/65
f 77/100/66 92/108/66 93/109/66
f 70/102/67 85/107/67 86/110/67
f 78/103/68 93/109/68 94/111/68
f 71/104/69 86/110/69 87/112/69
f 79/84/70 94/113/70 95/114/70
f 72/85/71 87/112/71 88/115/71
f 80/79/72 95/114/72 96/89/72
f 73/86/73 88/115/73 89/116/73
f 66/88/74 81/117/74 82/118/74
f 112/119/75 230/120/75 96/89/75
f 74/91/76 89/116/76 90/121/76
f 67/92/77 82/118/77 83/122/77
f 75/93/78 90/121/78 91/123/78
f 68/95/79 83/124/79 84/106/79
f 76/96/80 91/123/80 92/108/80
f 89/116/81 104/125/81 105/126/81
f 82/118/82 97/127/82 98/128/82
f 225/129/83 128/130/83 16/21/83
f 90/121/84 105/126/84 106/131/84
f 83/122/85 98/128/85 99/132/85
f 91/123/86 106/131/86 107/133/86
f 84/106/87 99/134/87 100/135/87
f 92/108/88 107/133/88 108/136/88
f 85/107/89 100/135/89 101/137/89
f 93/109/90 108/136/90 109/138/90
f 86/110/91 101/137/91 102/139/91
f 94/111/92 109/138/92 110/140/92
f 87/112/93 102/139/93 103/141/93
f 95/114/94 110/142/94 111/143/94
f 88/115/95 103/141/95 104/125/95
f 96/89/96 111/143/96 112/119/96
f 14/11/97 125/144/97 13/7/97
f 7/14/98 118/145/98 6/10/98
f 15/17/99 126/146/99 14/15/99
f 8/19/100 119/147/100 7/14/100
f 16/21/101 127/148/101 15/17/101
f 9/22/102 120/149/102 8/19/102
f 2/26/103 113/150/103 1/24/103
f 232/151/104 144/152/104 128/130/104
f 10/153/105 121/154/105 9/155/105
f 3/32/106 114/156/106 2/26/106
f 11/1/107 122/157/107 10/30/107
f 4/35/108 115/158/108 3/32/108
f 12/3/109 123/159/109 11/1/109
f 5/4/110 116/160/110 4/161/110
f 13/7/111 124/162/111 12/3/111
f 6/10/112 117/163/112 5/4/112
f 127/148/113 142/164/113 126/146/113
f 120/149/114 135/165/114 119/147/114
f 128/130/115 143/166/115 127/148/115
f 121/167/116 136/168/116 120/149/116
f 114/156/117 129/169/117 113/150/117
f 233/170/118 160/171/118 144/152/118
f 122/157/119 137/172/119 121/167/119
f 115/158/120 130/173/120 114/156/120
f 123/159/121 138/174/121 122/157/121
f 116/175/122 131/176/122 115/177/122
f 124/162/123 139/178/123 123/159/123
f 117/179/124 132/180/124 116/181/124
f 125/144/125 140/182/125 124/162/125
f 118/145/126 133/183/126 117/163/126
f 126/184/127 141/185/127 125/144/127
f 119/147/128 134/186/128 118/145/128
f 132/187/129 147/188/129 131/176/129
f 140/182/130 155/189/130 139/178/130
f 133/190/131 148/191/131 132/192/131
f 141/185/132 156/193/132 140/182/132
f 134/186/133 149/194/133 133/183/133
f 142/195/134 157/196/134 141/185/134
f 135/165/135 150/197/135 134/186/135
f 143/166/136 158/198/136 142/164/136
f 136/168/137 151/199/137 135/165/137
f 144/152/115 159/200/115 143/166/115
f 137/172/138 152/201/138 136/168/138
f 130/173/139 145/202/139 129/169/139
f 234/203/140 176/204/140 160/171/140
f 138/174/141 153/205/141 137/172/141
f 131/206/142 146/207/142 130/173/142
f 139/178/143 154/208/143 138/174/143
f 152/201/144 167/209/144 151/199/144
f 160/171/145 175/210/145 159/200/145
f 153/205/146 168/211/146 152/201/146
f 146/207/147 161/212/147 145/202/147
f 235/213/115 192/214/115 176/204/115
f 154/208/148 169/215/148 153/205/148
f 147/216/149 162/217/149 146/207/149
f 155/189/150 170/218/150 154/208/150
f 148/219/151 163/220/151 147/188/151
f 156/193/152 171/221/152 155/189/152
f 149/222/153 164/223/153 148/191/153
f 157/196/154 172/224/154 156/193/154
f 150/197/155 165/225/155 149/194/155
f 158/226/156 173/227/156 157/196/156
f 151/199/157 166/228/157 150/197/157
f 159/200/158 174/229/158 158/198/158
f 172/224/159 187/230/159 171/221/159
f 165/225/160 180/231/160 164/232/160
f 173/227/161 188/233/161 172/224/161
f 166/228/162 181/234/162 165/225/162
f 174/229/163 189/235/163 173/236/163
f 167/209/164 182/237/164 166/228/164
f 175/210/165 190/238/165 174/229/165
f 168/211/166 183/239/166 167/209/166
f 176/204/167 191/240/167 175/210/167
f 169/215/168 184/241/168 168/211/168
f 162/217/169 177/242/169 161/212/169
f 236/243/115 208/244/115 192/214/115
f 170/218/170 185/245/170 169/215/170
f 163/246/171 178/247/171 162/217/171
f 171/221/172 186/248/172 170/218/172
f 164/223/173 179/249/173 163/246/173
f 192/214/115 207/250/115 191/240/115
f 185/245/174 200/251/174 184/241/174
f 178/247/175 193/252/175 177/242/175
f 237/253/176 224/254/176 208/244/176
f 186/248/177 201/255/177 185/245/177
f 179/249/178 194/256/178 178/247/178
f 187/230/179 202/257/179 186/248/179
f 180/258/180 195/259/180 179/249/180
f 188/233/181 203/260/181 187/230/181
f 181/234/182 196/261/182 180/231/182
f 189/262/183 204/263/183 188/233/183
f 182/237/184 197/264/184 181/234/184
f 190/238/185 205/265/185 189/235/185
f 183/239/186 198/266/186 182/237/186
f 191/240/187 206/267/187 190/238/187
f 184/241/188 199/268/188 183/239/188
f 197/264/189 212/269/189 196/261/189
f 205/270/190 220/271/190 204/263/190
f 198/266/191 213/272/191 197/264/191
f 206/273/192 221/274/192 205/270/192
f 199/268/193 214/275/193 198/266/193
f 207/250/194 222/276/194 206/267/194
f 200/251/195 215/277/195 199/268/195
f 208/244/115 223/278/115 207/250/115
f 201/255/196 216/279/196 200/251/196
f 194/256/197 209/280/197 193/252/197
f 202/257/198 217/281/198 201/255/198
f 195/259/199 210/282/199 194/256/199
f 203/260/200 218/283/200 202/257/200
f 196/284/201 211/285/201 195/259/201
f 204/263/202 219/286/202 203/260/202
f 226/28/115 16/21/115 32/20/115
f 11/1/203 27/33/203 28/2/203
f 5/4/204 4/161/204 20/5/204
f 13/7/205 12/3/205 28/2/205
f 5/4/206 21/6/206 22/9/206
f 14/11/207 13/7/207 29/8/207
f 6/10/208 22/9/208 23/13/208
f 14/15/209 30/287/209 31/16/209
f 7/14/210 23/13/210 24/18/210
f 15/17/9 31/16/9 32/20/9
f 9/22/211 8/19/211 24/18/211
f 1/24/212 17/288/212 18/25/212
f 48/27/213 227/46/213 226/28/213
f 9/22/214 25/23/214 26/29/214
f 2/26/215 18/25/215 19/31/215
f 11/1/216 10/30/216 26/29/216
f 3/32/217 19/31/217 20/34/217
f 31/16/218 30/287/218 46/36/218
f 24/38/219 23/64/219 39/39/219
f 32/20/101 31/16/101 47/37/101
f 25/41/220 24/38/220 40/40/220
f 18/25/221 17/288/221 33/43/221
f 64/45/222 228/80/222 227/46/222
f 26/47/223 25/41/223 41/42/223
f 19/31/224 18/25/224 34/44/224
f 27/50/225 26/47/225 42/48/225
f 20/34/226 19/31/226 35/49/226
f 28/53/227 27/50/227 43/51/227
f 21/55/228 20/289/228 36/56/228
f 29/58/229 28/53/229 44/54/229
f 22/60/230 21/55/230 37/57/230
f 30/62/231 29/58/231 45/59/231
f 23/64/232 22/60/232 38/61/232
f 44/54/233 43/51/233 59/65/233
f 37/57/234 36/56/234 52/67/234
f 45/59/235 44/54/235 60/66/235
f 38/61/236 37/57/236 53/68/236
f 46/63/237 45/59/237 61/69/237
f 39/39/238 38/61/238 54/70/238
f 47/37/239 46/36/239 62/73/239
f 40/40/240 39/39/240 55/72/240
f 48/27/241 47/37/241 63/74/241
f 41/42/242 40/40/242 56/75/242
f 34/44/243 33/43/243 49/77/243
f 80/79/244 229/90/244 228/80/244
f 42/48/245 41/42/245 57/76/245
f 35/49/246 34/44/246 50/78/246
f 43/51/247 42/48/247 58/81/247
f 36/52/248 35/49/248 51/82/248
f 64/45/249 63/74/249 79/84/249
f 57/76/250 56/75/250 72/85/250
f 50/78/251 49/77/251 65/87/251
f 96/89/252 230/120/252 229/90/252
f 58/81/253 57/76/253 73/86/253
f 51/82/254 50/78/254 66/88/254
f 59/65/255 58/81/255 74/91/255
f 52/83/256 51/82/256 67/92/256
f 60/66/257 59/65/257 75/93/257
f 53/68/258 52/67/258 68/95/258
f 61/69/259 60/66/259 76/96/259
f 54/70/260 53/68/260 69/101/260
f 62/71/261 61/69/261 77/100/261
f 55/72/262 54/70/262 70/102/262
f 63/290/263 62/71/263 78/103/263
f 56/75/264 55/72/264 71/104/264
f 69/99/265 68/98/265 84/291/265
f 77/100/266 76/96/266 92/108/266
f 70/102/267 69/101/267 85/107/267
f 78/103/268 77/100/268 93/109/268
f 71/104/269 70/102/269 86/110/269
f 79/84/270 78/105/270 94/113/270
f 72/85/271 71/104/271 87/112/271
f 80/79/272 79/84/272 95/114/272
f 73/86/273 72/85/273 88/115/273
f 66/88/274 65/87/274 81/117/274
f 112/119/275 231/292/275 230/120/275
f 74/91/276 73/86/276 89/116/276
f 67/92/277 66/88/277 82/118/277
f 75/93/278 74/91/278 90/121/278
f 68/95/279 67/94/279 83/124/279
f 76/96/280 75/93/280 91/123/280
f 89/116/281 88/115/281 104/125/281
f 82/118/282 81/117/282 97/127/282
f 225/129/283 232/151/283 128/130/283
f 90/121/284 89/116/284 105/126/284
f 83/122/285 82/118/285 98/128/285
f 91/123/286 90/121/286 106/131/286
f 84/106/287 83/124/287 99/134/287
f 92/108/288 91/123/288 107/133/288
f 85/107/289 84/106/289 100/135/289
f 93/109/290 92/108/290 108/136/290
f 86/110/291 85/107/291 101/137/291
f 94/111/292 93/109/292 109/138/292
f 87/112/293 86/110/293 102/139/293
f 95/114/294 94/113/294 110/142/294
f 88/115/295 87/112/295 103/141/295
f 96/89/96 95/114/96 111/143/96
f 14/293/296 126/294/296 125/295/296
f 7/14/297 119/147/297 118/145/297
f 15/17/298 127/148/298 126/146/298
f 8/19/299 120/149/299 119/147/299
f 16/21/115 128/130/115 127/148/115
f 9/155/300 121/154/300 120/296/300
f 2/26/103 114/156/103 113/150/103
f 232/151/301 233/170/301 144/152/301
f 10/30/302 122/157/302 121/167/302
f 3/32/303 115/158/303 114/156/303
f 11/1/304 123/159/304 122/157/304
f 4/35/305 116/297/305 115/158/305
f 12/3/306 124/162/306 123/159/306
f 5/4/307 117/163/307 116/160/307
f 13/7/308 125/144/308 124/162/308
f 6/10/309 118/145/309 117/163/309
f 127/148/310 143/166/310 142/164/310
f 120/149/311 136/168/311 135/165/311
f 128/130/115 144/152/115 143/166/115
f 121/167/312 137/172/312 136/168/312
f 114/156/313 130/173/313 129/169/313
f 233/170/314 234/203/314 160/171/314
f 122/157/315 138/174/315 137/172/315
f 115/158/316 131/206/316 130/173/316
f 123/159/317 139/178/317 138/174/317
f 116/175/318 132/187/318 131/176/318
f 124/162/319 140/182/319 139/178/319
f 117/298/320 133/190/320 132/192/320
f 125/144/321 141/185/321 140/182/321
f 118/145/322 134/186/322 133/183/322
f 126/184/323 142/195/323 141/185/323
f 119/147/324 135/165/324 134/186/324
f 132/187/325 148/219/325 147/188/325
f 140/182/326 156/193/326 155/189/326
f 133/190/327 149/222/327 148/191/327
f 141/185/328 157/196/328 156/193/328
f 134/186/329 150/197/329 149/194/329
f 142/195/330 158/226/330 157/196/330
f 135/165/331 151/199/331 150/197/331
f 143/166/332 159/200/332 158/198/332
f 136/168/333 152/201/333 151/199/333
f 144/152/334 160/171/334 159/200/334
f 137/172/335 153/205/335 152/201/335
f 130/173/336 146/207/336 145/202/336
f 234/203/337 235/213/337 176/204/337
f 138/174/338 154/208/338 153/205/338
f 131/206/339 147/216/339 146/207/339
f 139/178/340 155/189/340 154/208/340
f 152/201/341 168/211/341 167/209/341
f 160/171/342 176/204/342 175/210/342
f 153/205/343 169/215/343 168/211/343
f 146/207/344 162/217/344 161/212/344
f 235/213/115 236/243/115 192/214/115
f 154/208/345 170/218/345 169/215/345
f 147/216/346 163/246/346 162/217/346
f 155/189/347 171/221/347 170/218/347
f 148/191/348 164/223/348 163/246/348
f 156/193/349 172/224/349 171/221/349
f 149/194/350 165/225/350 164/232/350
f 157/196/351 173/227/351 172/224/351
f 150/197/352 166/228/352 165/225/352
f 158/198/353 174/229/353 173/236/353
f 151/199/354 167/209/354 166/228/354
f 159/200/355 175/210/355 174/229/355
f 172/224/356 188/233/356 187/230/356
f 165/225/357 181/234/357 180/231/357
f 173/227/358 189/262/358 188/233/358
f 166/228/359 182/237/359 181/234/359
f 174/229/360 190/238/360 189/235/360
f 167/209/361 183/239/361 182/237/361
f 175/210/362 191/240/362 190/238/362
f 168/211/363 184/241/363 183/239/363
f 176/204/115 192/214/115 191/240/115
f 169/215/364 185/245/364 184/241/364
f 162/217/365 178/247/365 177/242/365
f 236/243/115 237/253/115 208/244/115
f 170/218/366 186/248/366 185/245/366
f 163/246/367 179/249/367 178/247/367
f 171/221/368 187/230/368 186/248/368
f 164/223/369 180/258/369 179/249/369
f 192/214/115 208/244/115 207/250/115
f 185/245/370 201/255/370 200/251/370
f 178/247/371 194/256/371 193/252/371
f 237/253/372 238/299/372 224/254/372
f 186/248/373 202/257/373 201/255/373
f 179/249/374 195/259/374 194/256/374
f 187/230/375 203/260/375 202/257/375
f 180/258/376 196/284/376 195/259/376
f 188/233/377 204/263/377 203/260/377
f 181/234/378 197/264/378 196/261/378
f 189/262/379 205/270/379 204/263/379
f 182/237/380 198/266/380 197/264/380
f 190/238/381 206/267/381 205/265/381
f 183/239/382 199/268/382 198/266/382
f 191/240/383 207/250/383 206/267/383
f 184/241/384 200/251/384 199/268/384
f 197/264/385 213/272/385 212/269/385
f 205/270/386 221/274/386 220/271/386
f 198/266/387 214/275/387 213/272/387
f 206/273/388 222/300/388 221/274/388
f 199/268/389 215/277/389 214/275/389
f 207/250/390 223/278/390 222/276/390
f 200/251/391 216/279/391 215/277/391
f 208/244/392 224/254/392 223/278/392
f 201/255/393 217/281/393 216/279/393
f 194/256/394 210/282/394 209/280/394
f 202/257/395 218/283/395 217/281/395
f 195/259/396 211/285/396 210/282/396
f 203/260/397 219/286/397 218/283/397
f 196/284/398 212/301/398 211/285/398
f 204/263/399 220/271/399 219/286/399
f 226/28/400 225/129/400 16/21/400
f 216/279/401 275/281/401 274/279/401
f 107/133/402 256/136/402 108/136/402
f 217/281/403 276/283/403 275/281/403
f 49/77/404 243/87/404 65/87/404
f 145/202/405 264/212/405 263/202/405
f 108/136/406 257/138/406 109/138/406
f 218/283/407 277/286/407 276/283/407
f 109/138/408 258/140/408 110/140/408
f 219/286/409 278/271/409 277/286/409
f 110/142/410 259/143/410 111/143/410
f 97/127/411 246/128/411 98/128/411
f 220/271/412 279/274/412 278/271/412
f 111/143/413 260/119/413 112/119/413
f 98/128/414 247/132/414 99/132/414
f 33/43/415 242/77/415 49/77/415
f 221/274/416 280/300/416 279/274/416
f 129/169/417 263/202/417 262/169/417
f 1/24/418 261/150/418 239/24/418
f 99/134/419 248/135/419 100/135/419
f 222/276/420 281/278/420 280/276/420
f 209/280/421 268/282/421 267/280/421
f 193/252/422 267/280/422 266/252/422
f 100/135/423 249/137/423 101/137/423
f 223/278/424 282/254/424 281/278/424
f 210/282/425 269/285/425 268/282/425
f 113/150/426 262/169/426 261/150/426
f 81/117/427 245/127/427 97/127/427
f 112/119/428 283/292/428 231/292/428
f 101/137/429 250/139/429 102/139/429
f 17/288/430 241/43/430 33/43/430
f 211/285/431 270/301/431 269/285/431
f 102/139/432 251/141/432 103/141/432
f 177/242/433 266/252/433 265/242/433
f 212/269/434 271/272/434 270/269/434
f 224/254/435 284/299/435 282/254/435
f 103/141/436 252/125/436 104/125/436
f 213/272/437 272/275/437 271/272/437
f 104/125/438 253/126/438 105/126/438
f 1/24/439 240/288/439 17/288/439
f 214/275/440 273/277/440 272/275/440
f 105/126/441 254/131/441 106/131/441
f 65/87/442 244/117/442 81/117/442
f 215/277/443 274/279/443 273/277/443
f 161/212/444 265/242/444 264/212/444
f 106/131/445 255/133/445 107/133/445
f 216/279/401 217/281/401 275/281/401
f 107/133/402 255/133/402 256/136/402
f 217/281/403 218/283/403 276/283/403
f 49/77/404 242/77/404 243/87/404
f 145/202/405 161/212/405 264/212/405
f 108/136/406 256/136/406 257/138/406
f 218/283/407 219/286/407 277/286/407
f 109/138/408 257/138/408 258/140/408
f 219/286/409 220/271/409 278/271/409
f 110/142/410 258/142/410 259/143/410
f 97/127/411 245/127/411 246/128/411
f 220/271/412 221/274/412 279/274/412
f 111/143/413 259/143/413 260/119/413
f 98/128/414 246/128/414 247/132/414
f 33/43/415 241/43/415 242/77/415
f 221/274/416 222/300/416 280/300/416
f 129/169/417 145/202/417 263/202/417
f 1/24/418 113/150/418 261/150/418
f 99/134/419 247/134/419 248/135/419
f 222/276/420 223/278/420 281/278/420
f 209/280/421 210/282/421 268/282/421
f 193/252/422 209/280/422 267/280/422
f 100/135/423 248/135/423 249/137/423
f 223/278/424 224/254/424 282/254/424
f 210/282/425 211/285/425 269/285/425
f 113/150/426 129/169/426 262/169/426
f 81/117/427 244/117/427 245/127/427
f 112/119/428 260/119/428 283/292/428
f 101/137/429 249/137/429 250/139/429
f 17/288/430 240/288/430 241/43/430
f 211/285/431 212/301/431 270/301/431
f 102/139/432 250/139/432 251/141/432
f 177/242/433 193/252/433 266/252/433
f 212/269/434 213/272/434 271/272/434
f 224/254/435 238/299/435 284/299/435
f 103/141/436 251/141/436 252/125/436
f 213/272/437 214/275/437 272/275/437
f 104/125/438 252/125/438 253/126/438
f 1/24/439 239/24/439 240/288/439
f 214/275/440 215/277/440 273/277/440
f 105/126/441 253/126/441 254/131/441
f 65/87/442 243/87/442 244/117/442
f 215/277/443 216/279/443 274/279/443
f 161/212/444 177/242/444 265/242/444
f 106/131/445 254/131/445 255/133/445
