# Blender 4.1.0
# www.blender.org
mtllib Road.mtl
o Road
v -23.812328 0.000000 -50.379688
v 1.000000 0.000000 26.017578
v 1.000000 -0.033397 0.081331
v 1.000000 0.000000 -45.010971
v -23.812328 -1.504465 2.326605
v -23.812328 -0.558219 30.963516
v -15.317629 -0.008890 27.410339
v -15.317629 -0.749832 1.258168
v -15.317629 0.000000 -49.071568
v -6.735004 0.000000 -47.314323
v -6.735004 -0.315842 0.437114
v -6.735004 0.000000 26.017578
v -31.168646 0.000000 -51.186165
v -31.168646 -2.220428 4.115584
v -31.168646 -1.480258 35.376232
v -40.816494 0.000000 -51.186165
v -40.816494 -2.668662 7.072424
v -40.816494 -3.551997 43.852055
v -52.269169 0.000000 -51.186165
v -52.269169 -2.332263 12.481033
v -52.269169 -5.968980 55.053719
v -61.783951 0.000000 -51.186165
v -61.783951 -3.208390 16.599455
v -61.783951 -8.393783 63.363319
v -70.414627 0.000000 -51.186165
v -70.414627 -5.378480 21.396851
v -70.414627 -10.372528 70.790092
v -81.860748 0.000000 -51.186165
v -81.860748 -8.743517 26.749958
v -81.860748 -12.363083 80.927795
v 13.111285 0.000000 27.651405
v 13.111285 0.000000 1.423311
v 13.111285 -0.030573 -40.185059
v 7.055643 0.000000 0.458040
v 7.055643 -0.000708 -42.598015
v 7.055643 0.000000 26.312088
v 24.045277 0.000000 32.599125
v 24.045277 0.000000 5.778618
v 24.045277 0.500334 -32.921822
v 18.578281 0.000000 3.024033
v 18.578281 0.195248 -36.922131
v 18.578281 0.000000 29.550224
v 33.869854 0.000000 41.867268
v 33.869854 0.000000 12.933435
v 33.869854 1.228758 -19.055628
v 28.957565 0.000000 9.356028
v 28.957565 1.000510 -26.015236
v 28.957565 0.000000 36.717983
v 39.046364 0.000000 46.542286
v 39.046364 0.000000 18.054173
v 39.046364 1.228758 -11.952642
v 47.084675 0.000000 55.064606
v 47.084675 0.000000 27.259319
v 47.084675 0.513466 -2.233211
v 51.272221 0.000000 59.598808
v 51.272221 0.000000 32.899895
v 51.272221 0.235567 4.478502
v 56.169907 0.000000 66.148376
v 56.169907 0.000000 39.156643
v 56.169907 -0.189771 15.242296
v 60.117638 0.000000 73.207207
v 60.117638 0.000000 46.215469
v 60.117638 -0.518153 22.301125
v 43.065521 0.000000 22.656746
v 43.065521 0.871112 -7.092927
v 43.065521 0.000000 50.803444
v 1.000000 0.000000 -37.392891
v -23.812328 -0.140111 -40.989792
v -15.317629 -0.004500 -40.174469
v -6.735004 0.000000 -39.029675
v -31.168646 -0.303155 -41.386532
v -40.816494 -0.443000 -41.343567
v -52.269169 -0.588484 -41.177696
v -61.783951 -0.795608 -40.530285
v -70.414627 -1.106550 -39.776131
v -81.860748 -1.419465 -38.934624
v 13.111285 0.000000 -33.412323
v 7.055643 0.000000 -35.629585
v 24.045277 0.421681 -26.049713
v 18.578281 0.210841 -30.253782
v 33.869854 1.035598 -12.851025
v 28.957565 0.843230 -20.454884
v 39.046364 1.035598 -5.049093
v 47.084675 0.432749 5.893376
v 51.272221 0.198536 11.691519
v 56.169907 -0.159939 19.936197
v 60.117638 -0.436700 26.995022
v 43.065521 0.734174 0.626310
v 1.000000 0.000000 21.437912
v -23.812328 -0.557568 27.388100
v -15.317629 -0.079019 23.765675
v -6.735004 -0.012816 22.133978
v -31.168646 -1.418767 31.725964
v -40.816494 -3.323401 39.882420
v -52.269169 -5.558761 50.586201
v -61.783951 -7.805192 58.982368
v -70.414627 -9.783937 65.968628
v -81.860748 -11.774492 75.353935
v 13.111285 0.000000 23.020203
v 7.055643 0.000000 21.746931
v 24.045277 0.000000 27.863319
v 18.578281 0.000000 24.866386
v 33.869854 0.000000 36.758305
v 28.957565 0.000000 31.690712
v 39.046364 0.000000 42.935532
v 47.084675 0.000000 52.191540
v 51.272221 0.000000 56.852058
v 56.169907 0.000000 63.288437
v 60.117638 0.000000 69.793877
v 43.065521 0.000000 47.709118
v 7.055643 0.000000 -26.607676
v 7.055643 0.000000 -17.585770
v 7.055643 0.000000 -8.563865
v 18.578281 0.158130 -21.934328
v 18.578281 0.105420 -13.614875
v 18.578281 0.052710 -5.295421
v 28.957565 0.632423 -13.002155
v 28.957565 0.421615 -5.549428
v 28.957565 0.210808 1.903300
v 43.065521 0.550630 6.133921
v 43.065521 0.367087 11.641529
v 43.065521 0.183543 17.149137
v 1.000000 -0.001696 -9.287224
v 1.000000 0.000000 -18.655781
v 1.000000 0.000000 -28.024334
v -23.812328 -1.488683 -8.502495
v -23.812328 -1.026802 -19.331594
v -23.812328 -0.567875 -30.160694
v -15.317629 -0.644046 -9.099991
v -15.317629 -0.342655 -19.458149
v -15.317629 -0.153879 -29.816309
v -6.735004 -0.169585 -9.429583
v -6.735004 -0.032191 -19.296280
v -6.735004 -0.005451 -29.162979
v -31.168646 -2.191950 -7.259944
v -31.168646 -1.662861 -18.635473
v -31.168646 -0.993089 -30.011002
v -40.816494 -2.556509 -5.031573
v -40.816494 -2.250277 -17.135571
v -40.816494 -1.362602 -29.239569
v -52.269169 -1.574807 -0.933648
v -52.269169 -2.190638 -14.348331
v -52.269169 -1.725291 -27.763014
v -61.783951 -1.520178 2.317020
v -61.783951 -2.222100 -11.965414
v -61.783951 -2.157159 -26.247849
v -70.414627 -2.609766 6.103605
v -70.414627 -2.850837 -9.189641
v -70.414627 -2.703298 -24.482887
v -81.860748 -5.407156 10.328815
v -81.860748 -4.190319 -6.092332
v -81.860748 -3.322022 -22.513477
v 13.111285 0.000000 -7.285597
v 13.111285 0.000000 -15.994507
v 13.111285 0.000000 -24.703415
v 24.045277 0.105420 -2.178465
v 24.045277 0.210841 -10.135548
v 24.045277 0.316261 -18.092630
v 33.869854 0.258899 6.487320
v 33.869854 0.517799 0.041204
v 33.869854 0.776698 -6.404910
v 39.046364 0.258899 12.278357
v 39.046364 0.517799 6.502540
v 39.046364 0.776698 0.726723
v 47.084675 0.108187 21.917833
v 47.084675 0.216375 16.576347
v 47.084675 0.324562 11.234861
v 51.272221 0.049634 27.597801
v 51.272221 0.099268 22.295706
v 51.272221 0.148902 16.993612
v 56.169907 -0.039985 34.351536
v 56.169907 -0.079970 29.546425
v 56.169907 -0.119954 24.741310
v 60.117638 -0.109175 41.410355
v 60.117638 -0.218350 36.605247
v 60.117638 -0.327525 31.800137
v 1.000000 -0.011132 14.319050
v 1.000000 -0.022265 6.976063
v -23.812328 -0.779416 19.034267
v -23.812328 -1.125279 10.456305
v -15.317629 -0.291534 16.263170
v -15.317629 -0.524899 8.536539
v -6.735004 -0.113825 14.901690
v -6.735004 -0.214833 7.445274
v -31.168646 -1.531412 22.522503
v -31.168646 -1.794653 13.094913
v -40.816494 -3.019285 28.945755
v -40.816494 -2.652728 17.784960
v -52.269169 -4.368973 37.884476
v -52.269169 -3.122810 24.958626
v -61.783951 -6.245923 44.854733
v -61.783951 -4.424126 30.502960
v -70.414627 -8.447935 51.111366
v -70.414627 -6.717031 36.029976
v -81.860748 -10.800502 59.152611
v -81.860748 -9.791911 42.727154
v 13.111285 0.000000 15.821239
v 13.111285 0.000000 8.398146
v 24.045277 0.000000 20.501753
v 24.045277 0.000000 12.916056
v 33.869854 0.000000 28.816681
v 33.869854 0.000000 20.650928
v 39.046364 0.000000 34.641747
v 39.046364 0.000000 26.123829
v 47.084675 0.000000 43.880802
v 47.084675 0.000000 35.345928
v 51.272221 0.000000 48.868004
v 51.272221 0.000000 40.659817
v 56.169907 0.000000 55.244507
v 56.169907 0.000000 46.976440
v 60.117638 0.000000 61.934402
v 60.117638 0.000000 53.850807
v 7.055643 0.000000 7.330210
v 7.055643 0.000000 14.650635
v 18.578281 0.000000 10.080688
v 18.578281 0.000000 17.585600
v 28.957565 0.000000 16.576794
v 28.957565 0.000000 24.245815
v 43.065521 0.000000 30.783405
v 43.065521 0.000000 39.358326
v 66.992020 -0.669902 86.822792
v 66.992020 -0.669902 59.831062
v 66.992020 -1.188056 35.916714
v 66.992020 -1.106602 40.610611
v 66.992020 -0.669902 83.409470
v 66.992020 -0.779077 55.025948
v 66.992020 -0.888252 50.220833
v 66.992020 -0.997427 45.415726
v 66.992020 -0.669902 75.549995
v 66.992020 -0.669902 67.466400
v -23.812328 -2.432380 -50.379688
v 1.000000 -2.432380 26.017578
v 1.000000 -2.465777 0.081331
v 1.000000 -2.432380 -45.010971
v -23.812328 -3.936845 2.326605
v -23.812328 -2.990599 30.963516
v -15.317629 -2.441270 27.410339
v -15.317629 -3.182213 1.258168
v -15.317629 -2.432380 -49.071568
v -6.735004 -2.432380 -47.314323
v -6.735004 -2.748222 0.437114
v -6.735004 -2.432380 26.017578
v -31.168646 -2.432380 -51.186165
v -31.168646 -4.652809 4.115584
v -31.168646 -3.912638 35.376232
v -40.816494 -2.432380 -51.186165
v -40.816494 -5.101042 7.072424
v -40.816494 -5.984377 43.852055
v -52.269169 -2.432380 -51.186165
v -52.269169 -4.764644 12.481033
v -52.269169 -8.401361 55.053719
v -61.783951 -2.432380 -51.186165
v -61.783951 -5.640771 16.599455
v -61.783951 -10.826163 63.363319
v -70.414627 -2.432380 -51.186165
v -70.414627 -7.810861 21.396851
v -70.414627 -12.804909 70.790092
v -81.860748 -2.432380 -51.186165
v -81.860748 -11.175898 26.749958
v -81.860748 -14.795464 80.927795
v 13.111285 -2.432380 27.651405
v 13.111285 -2.432380 1.423311
v 13.111285 -2.462954 -40.185059
v 7.055643 -2.432380 0.458040
v 7.055643 -2.433088 -42.598015
v 7.055643 -2.432380 26.312088
v 24.045277 -2.432380 32.599125
v 24.045277 -2.432380 5.778618
v 24.045277 -1.932047 -32.921822
v 18.578281 -2.432380 3.024033
v 18.578281 -2.237133 -36.922131
v 18.578281 -2.432380 29.550224
v 33.869854 -2.432380 41.867268
v 33.869854 -2.432380 12.933435
v 33.869854 -1.203622 -19.055628
v 28.957565 -2.432380 9.356028
v 28.957565 -1.431871 -26.015236
v 28.957565 -2.432380 36.717983
v 39.046364 -2.432380 46.542286
v 39.046364 -2.432380 18.054173
v 39.046364 -1.203622 -11.952642
v 47.084675 -2.432380 55.064606
v 47.084675 -2.432380 27.259319
v 47.084675 -1.918914 -2.233211
v 51.272221 -2.432380 59.598808
v 51.272221 -2.432380 32.899895
v 51.272221 -2.196814 4.478502
v 56.169907 -2.432380 66.148376
v 56.169907 -2.432380 39.156643
v 56.169907 -2.622152 15.242296
v 60.117638 -2.432380 73.207207
v 60.117638 -2.432380 46.215469
v 60.117638 -2.950534 22.301125
v 43.065521 -2.432380 22.656746
v 43.065521 -1.561268 -7.092927
v 43.065521 -2.432380 50.803444
v 1.000000 -2.432380 -37.392891
v -23.812328 -2.572492 -40.989792
v -15.317629 -2.436881 -40.174469
v -6.735004 -2.432380 -39.029675
v -31.168646 -2.735535 -41.386532
v -40.816494 -2.875380 -41.343567
v -52.269169 -3.020864 -41.177696
v -61.783951 -3.227988 -40.530285
v -70.414627 -3.538931 -39.776131
v -81.860748 -3.851846 -38.934624
v 13.111285 -2.432380 -33.412323
v 7.055643 -2.432380 -35.629585
v 24.045277 -2.010699 -26.049713
v 18.578281 -2.221540 -30.253782
v 33.869854 -1.396783 -12.851025
v 28.957565 -1.589150 -20.454884
v 39.046364 -1.396783 -5.049093
v 47.084675 -1.999631 5.893376
v 51.272221 -2.233845 11.691519
v 56.169907 -2.592320 19.936197
v 60.117638 -2.869080 26.995022
v 43.065521 -1.698207 0.626310
v 1.000000 -2.432380 21.437912
v -23.812328 -2.989948 27.388100
v -15.317629 -2.511399 23.765675
v -6.735004 -2.445197 22.133978
v -31.168646 -3.851148 31.725964
v -40.816494 -5.755782 39.882420
v -52.269169 -7.991141 50.586201
v -61.783951 -10.237573 58.982368
v -70.414627 -12.216318 65.968628
v -81.860748 -14.206873 75.353935
v 13.111285 -2.432380 23.020203
v 7.055643 -2.432380 21.746931
v 24.045277 -2.432380 27.863319
v 18.578281 -2.432380 24.866386
v 33.869854 -2.432380 36.758305
v 28.957565 -2.432380 31.690712
v 39.046364 -2.432380 42.935532
v 47.084675 -2.432380 52.191540
v 51.272221 -2.432380 56.852058
v 56.169907 -2.432380 63.288437
v 60.117638 -2.432380 69.793877
v 43.065521 -2.432380 47.709118
v 7.055643 -2.432380 -26.607676
v 7.055643 -2.432380 -17.585770
v 7.055643 -2.432380 -8.563865
v 18.578281 -2.274250 -21.934328
v 18.578281 -2.326960 -13.614875
v 18.578281 -2.379670 -5.295421
v 28.957565 -1.799958 -13.002155
v 28.957565 -2.010766 -5.549428
v 28.957565 -2.221573 1.903300
v 43.065521 -1.881750 6.133921
v 43.065521 -2.065294 11.641529
v 43.065521 -2.248837 17.149137
v 1.000000 -2.434076 -9.287224
v 1.000000 -2.432380 -18.655781
v 1.000000 -2.432380 -28.024334
v -23.812328 -3.921063 -8.502495
v -23.812328 -3.459183 -19.331594
v -23.812328 -3.000255 -30.160694
v -15.317629 -3.076427 -9.099991
v -15.317629 -2.775036 -19.458149
v -15.317629 -2.586259 -29.816309
v -6.735004 -2.601965 -9.429583
v -6.735004 -2.464571 -19.296280
v -6.735004 -2.437831 -29.162979
v -31.168646 -4.624331 -7.259944
v -31.168646 -4.095242 -18.635473
v -31.168646 -3.425470 -30.011002
v -40.816494 -4.988890 -5.031573
v -40.816494 -4.682657 -17.135571
v -40.816494 -3.794983 -29.239569
v -52.269169 -4.007187 -0.933648
v -52.269169 -4.623019 -14.348331
v -52.269169 -4.157671 -27.763014
v -61.783951 -3.952559 2.317020
v -61.783951 -4.654480 -11.965414
v -61.783951 -4.589540 -26.247849
v -70.414627 -5.042147 6.103605
v -70.414627 -5.283217 -9.189641
v -70.414627 -5.135679 -24.482887
v -81.860748 -7.839536 10.328815
v -81.860748 -6.622700 -6.092332
v -81.860748 -5.754402 -22.513477
v 13.111285 -2.432380 -7.285597
v 13.111285 -2.432380 -15.994507
v 13.111285 -2.432380 -24.703415
v 24.045277 -2.326960 -2.178465
v 24.045277 -2.221540 -10.135548
v 24.045277 -2.116119 -18.092630
v 33.869854 -2.173481 6.487320
v 33.869854 -1.914582 0.041204
v 33.869854 -1.655682 -6.404910
v 39.046364 -2.173481 12.278357
v 39.046364 -1.914582 6.502540
v 39.046364 -1.655682 0.726723
v 47.084675 -2.324193 21.917833
v 47.084675 -2.216006 16.576347
v 47.084675 -2.107818 11.234861
v 51.272221 -2.382746 27.597801
v 51.272221 -2.333112 22.295706
v 51.272221 -2.283479 16.993612
v 56.169907 -2.472365 34.351536
v 56.169907 -2.512350 29.546425
v 56.169907 -2.552335 24.741310
v 60.117638 -2.541555 41.410355
v 60.117638 -2.650730 36.605247
v 60.117638 -2.759905 31.800137
v 1.000000 -2.443513 14.319050
v 1.000000 -2.454645 6.976063
v -23.812328 -3.211797 19.034267
v -23.812328 -3.557660 10.456305
v -15.317629 -2.723914 16.263170
v -15.317629 -2.957279 8.536539
v -6.735004 -2.546205 14.901690
v -6.735004 -2.647214 7.445274
v -31.168646 -3.963793 22.522503
v -31.168646 -4.227034 13.094913
v -40.816494 -5.451666 28.945755
v -40.816494 -5.085109 17.784960
v -52.269169 -6.801353 37.884476
v -52.269169 -5.555191 24.958626
v -61.783951 -8.678303 44.854733
v -61.783951 -6.856506 30.502960
v -70.414627 -10.880316 51.111366
v -70.414627 -9.149412 36.029976
v -81.860748 -13.232882 59.152611
v -81.860748 -12.224292 42.727154
v 13.111285 -2.432380 15.821239
v 13.111285 -2.432380 8.398146
v 24.045277 -2.432380 20.501753
v 24.045277 -2.432380 12.916056
v 33.869854 -2.432380 28.816681
v 33.869854 -2.432380 20.650928
v 39.046364 -2.432380 34.641747
v 39.046364 -2.432380 26.123829
v 47.084675 -2.432380 43.880802
v 47.084675 -2.432380 35.345928
v 51.272221 -2.432380 48.868004
v 51.272221 -2.432380 40.659817
v 56.169907 -2.432380 55.244507
v 56.169907 -2.432380 46.976440
v 60.117638 -2.432380 61.934402
v 60.117638 -2.432380 53.850807
v 7.055643 -2.432380 7.330210
v 7.055643 -2.432380 14.650635
v 18.578281 -2.432380 10.080688
v 18.578281 -2.432380 17.585600
v 28.957565 -2.432380 16.576794
v 28.957565 -2.432380 24.245815
v 43.065521 -2.432380 30.783405
v 43.065521 -2.432380 39.358326
v 66.992020 -3.102283 86.822792
v 66.992020 -3.102283 59.831062
v 66.992020 -3.620436 35.916714
v 66.992020 -3.538982 40.610611
v 66.992020 -3.102283 83.409470
v 66.992020 -3.211458 55.025948
v 66.992020 -3.320633 50.220833
v 66.992020 -3.429808 45.415726
v 66.992020 -3.102283 75.549995
v 66.992020 -3.102283 67.466400
vn -0.0562 0.9984 0.0002
vn -0.0083 1.0000 -0.0033
vn -0.0546 0.9984 0.0148
vn -0.0017 1.0000 -0.0000
vn -0.0218 0.9998 0.0034
vn -0.0982 0.9951 0.0102
vn -0.1162 0.9932 0.0002
vn -0.0949 0.9955 0.0015
vn -0.1802 0.9835 0.0166
vn -0.0372 0.9993 0.0025
vn -0.1397 0.9885 0.0569
vn 0.1052 0.9929 0.0561
vn -0.1526 0.9841 0.0904
vn 0.0250 0.9981 0.0564
vn -0.1186 0.9841 0.1322
vn -0.0737 0.9904 0.1171
vn -0.0731 0.9900 0.1209
vn -0.1721 0.9693 0.1755
vn 0.0017 1.0000 -0.0045
vn -0.0000 1.0000 -0.0000
vn -0.0037 1.0000 -0.0000
vn -0.0000 1.0000 -0.0001
vn -0.0473 0.9988 0.0114
vn -0.0372 0.9993 -0.0023
vn -0.0826 0.9962 0.0282
vn -0.0984 0.9951 0.0114
vn -0.0421 0.9987 0.0279
vn 0.0619 0.9980 0.0099
vn 0.0488 0.9988 0.0051
vn 0.0836 0.9965 -0.0063
vn 0.1006 0.9948 -0.0173
vn 0.0499 0.9986 0.0177
vn 0.0114 0.9994 0.0333
vn 0.0928 0.9954 -0.0226
vn 0.0679 0.9977 -0.0083
vn 0.0291 0.9995 0.0094
vn 0.0305 0.9993 0.0202
vn -0.0616 0.9971 0.0447
vn -0.0778 0.9969 0.0132
vn -0.0830 0.9958 0.0400
vn -0.0321 0.9995 0.0063
vn -0.0382 0.9992 0.0132
vn -0.0000 0.9953 0.0965
vn -0.0000 0.9972 0.0745
vn -0.0000 0.9983 0.0587
vn -0.0000 0.9990 0.0450
vn -0.0000 0.9995 0.0309
vn -0.0016 0.9999 0.0149
vn -0.0023 0.9999 0.0149
vn -0.0001 1.0000 0.0005
vn -0.1404 0.9861 0.0887
vn -0.1715 0.9792 0.1081
vn -0.1270 0.9876 0.0925
vn -0.0957 0.9950 0.0277
vn -0.1603 0.9870 -0.0121
vn -0.1074 0.9941 -0.0122
vn -0.0134 0.9999 -0.0016
vn -0.0252 0.9993 -0.0283
vn -0.0659 0.9975 -0.0265
vn -0.0055 1.0000 -0.0000
vn -0.0003 1.0000 -0.0000
vn -0.0067 0.9999 0.0132
vn -0.0172 0.9998 0.0132
vn -0.0277 0.9995 0.0132
vn -0.0019 1.0000 0.0063
vn -0.0119 0.9999 0.0063
vn -0.0220 0.9997 0.0063
vn -0.0292 0.9988 0.0401
vn -0.0472 0.9981 0.0401
vn -0.0651 0.9971 0.0400
vn -0.0206 0.9994 0.0283
vn -0.0449 0.9986 0.0282
vn -0.0552 0.9984 0.0132
vn -0.0443 0.9980 0.0447
vn -0.0500 0.9977 0.0447
vn -0.0558 0.9974 0.0447
vn -0.0232 0.9995 0.0202
vn -0.0053 0.9998 0.0202
vn 0.0126 0.9997 0.0202
vn -0.0126 0.9999 0.0094
vn 0.0013 1.0000 0.0094
vn 0.0152 0.9998 0.0094
vn 0.0106 0.9999 -0.0083
vn 0.0298 0.9995 -0.0083
vn 0.0489 0.9988 -0.0083
vn 0.0406 0.9989 -0.0227
vn 0.0580 0.9981 -0.0227
vn 0.0754 0.9969 -0.0227
vn -0.0381 0.9987 0.0333
vn -0.0216 0.9992 0.0333
vn -0.0051 0.9994 0.0333
vn -0.0196 0.9944 0.1038
vn -0.0523 0.9986 0.0096
vn -0.1204 0.9926 -0.0156
vn -0.0276 0.9951 0.0949
vn -0.0622 0.9981 0.0045
vn -0.0777 0.9969 -0.0157
vn -0.0159 0.9963 0.0844
vn -0.0398 0.9986 0.0346
vn -0.0148 0.9988 -0.0459
vn -0.0116 0.9971 0.0758
vn -0.0221 0.9971 0.0731
vn 0.0114 0.9996 0.0253
vn -0.0142 0.9981 0.0605
vn -0.0335 0.9977 0.0587
vn -0.0535 0.9975 0.0464
vn -0.0243 0.9989 0.0395
vn -0.0568 0.9975 0.0423
vn -0.0821 0.9957 0.0425
vn -0.0173 0.9997 0.0144
vn -0.0494 0.9986 0.0182
vn -0.0798 0.9964 0.0290
vn -0.0001 1.0000 0.0006
vn -0.0011 1.0000 0.0027
vn -0.0042 1.0000 0.0002
vn -0.0024 0.9999 0.0144
vn -0.0175 0.9998 0.0027
vn -0.0364 0.9992 0.0139
vn -0.0942 0.9945 -0.0464
vn -0.0795 0.9960 -0.0402
vn -0.0534 0.9981 -0.0308
vn -0.0399 0.9987 -0.0302
vn -0.0371 0.9992 -0.0144
vn -0.0257 0.9996 -0.0135
vn -0.1081 0.9930 -0.0471
vn -0.1005 0.9946 -0.0278
vn -0.0469 0.9989 -0.0015
vn -0.1019 0.9944 -0.0278
vn 0.0287 0.9996 -0.0015
vn -0.0205 0.9993 0.0328
vn -0.0644 0.9959 0.0631
vn -0.0800 0.9922 0.0957
vn -0.1981 0.9765 0.0854
vn -0.1799 0.9758 0.1239
vn -0.2427 0.9661 0.0884
vn -0.1963 0.9742 0.1118
vn -0.0018 1.0000 -0.0000
vn 0.0970 0.9953 -0.0000
vn 0.1307 0.9913 -0.0172
vn 0.1410 0.9898 -0.0225
vn -0.0725 0.9972 -0.0192
vn -0.0042 0.9998 -0.0192
vn -0.0495 0.9987 0.0102
vn -0.0000 1.0000 -0.0033
vn -0.0358 0.9992 0.0148
vn -0.0883 0.9961 0.0015
vn -0.1145 0.9933 0.0167
vn -0.0963 0.9954 0.0025
vn -0.1617 0.9852 0.0567
vn -0.0436 0.9990 0.0093
vn -0.1199 0.9886 0.0908
vn 0.0337 0.9994 0.0093
vn -0.1350 0.9820 0.1319
vn -0.0406 0.9923 0.1173
vn -0.1224 0.9852 0.1203
vn -0.1468 0.9733 0.1762
vn -0.0797 0.9913 0.1047
vn -0.1914 0.9619 0.1954
vn 0.0050 1.0000 -0.0001
vn -0.0054 1.0000 -0.0016
vn 0.0001 1.0000 -0.0000
vn -0.0540 0.9985 -0.0023
vn -0.0386 0.9992 -0.0045
vn -0.0902 0.9954 0.0310
vn -0.1401 0.9897 0.0280
vn -0.0427 0.9986 0.0311
vn 0.0674 0.9976 0.0177
vn 0.0504 0.9987 0.0099
vn 0.0753 0.9971 0.0051
vn 0.0941 0.9955 -0.0063
vn 0.0550 0.9981 0.0279
vn 0.0117 0.9989 0.0448
vn 0.0847 0.9964 -0.0083
vn 0.0573 0.9983 0.0093
vn 0.0279 0.9994 0.0202
vn 0.0313 0.9990 0.0333
vn -0.0604 0.9974 0.0401
vn -0.1172 0.9927 0.0281
vn -0.0385 0.9993 -0.0000
vn -0.0434 0.9990 0.0063
vn -0.0187 0.9932 0.1151
vn -0.0274 0.9950 0.0965
vn -0.0166 0.9971 0.0744
vn -0.0118 0.9982 0.0587
vn -0.0143 0.9989 0.0450
vn -0.0238 0.9992 0.0309
vn -0.0160 0.9999 0.0005
vn -0.0005 1.0000 -0.0000
vn -0.1234 0.9906 0.0596
vn -0.1540 0.9841 0.0885
vn -0.1366 0.9847 0.1087
vn -0.1066 0.9900 0.0927
vn -0.1713 0.9848 0.0274
vn -0.1315 0.9910 -0.0263
vn -0.0029 0.9999 -0.0140
vn -0.0104 0.9998 -0.0140
vn -0.0682 0.9973 -0.0282
vn -0.0007 1.0000 0.0034
vn -0.0000 1.0000 0.0002
vn -0.0133 0.9999 0.0063
vn -0.0233 0.9997 0.0063
vn -0.0334 0.9994 0.0063
vn -0.0096 1.0000 -0.0000
vn -0.0193 0.9998 -0.0000
vn -0.0289 0.9996 -0.0000
vn -0.0361 0.9989 0.0283
vn -0.0517 0.9983 0.0282
vn -0.0672 0.9973 0.0282
vn -0.0324 0.9994 0.0132
vn -0.0932 0.9952 0.0282
vn -0.0449 0.9982 0.0401
vn -0.0500 0.9979 0.0401
vn -0.0552 0.9977 0.0401
vn -0.0208 0.9992 0.0333
vn -0.0034 0.9994 0.0333
vn 0.0139 0.9993 0.0333
vn -0.0135 0.9997 0.0202
vn 0.0003 0.9998 0.0202
vn 0.0141 0.9997 0.0202
vn 0.0054 0.9999 0.0094
vn 0.0227 0.9997 0.0094
vn 0.0401 0.9992 0.0094
vn 0.0324 0.9994 -0.0083
vn 0.0499 0.9987 -0.0083
vn 0.0673 0.9977 -0.0083
vn -0.0355 0.9984 0.0448
vn -0.0198 0.9988 0.0448
vn -0.0041 0.9990 0.0448
vn -0.0339 0.9928 0.1150
vn -0.1020 0.9934 0.0525
vn -0.2116 0.9747 0.0722
vn -0.0417 0.9937 0.1038
vn -0.0696 0.9975 0.0096
vn -0.1460 0.9881 -0.0486
vn -0.0301 0.9950 0.0949
vn -0.0022 1.0000 0.0045
vn -0.0110 0.9987 -0.0491
vn -0.0207 0.9962 0.0844
vn 0.0136 0.9993 0.0347
vn 0.0691 0.9966 -0.0457
vn -0.0321 0.9966 0.0757
vn -0.0493 0.9961 0.0731
vn -0.0319 0.9992 0.0253
vn -0.0564 0.9966 0.0604
vn -0.0805 0.9950 0.0586
vn -0.0873 0.9951 0.0463
vn -0.0502 0.9980 0.0394
vn -0.0796 0.9959 0.0422
vn -0.0959 0.9945 0.0424
vn -0.0007 1.0000 -0.0000
vn -0.0042 1.0000 -0.0000
vn -0.0220 0.9997 0.0139
vn -0.0173 0.9998 0.0006
vn -0.0365 0.9992 0.0182
vn -0.0541 0.9981 0.0290
vn -0.0774 0.9965 -0.0308
vn -0.0671 0.9973 -0.0301
vn -0.0379 0.9992 -0.0144
vn -0.0228 0.9996 -0.0135
vn -0.0250 0.9997 -0.0016
vn -0.0134 0.9999 -0.0015
vn -0.1070 0.9932 -0.0463
vn -0.1204 0.9919 -0.0400
vn -0.1112 0.9927 -0.0471
vn -0.1311 0.9908 0.0325
vn -0.0014 0.9980 0.0632
vn -0.0424 0.9945 0.0959
vn -0.0852 0.9926 0.0868
vn -0.1029 0.9868 0.1253
vn -0.2020 0.9753 0.0892
vn -0.1684 0.9793 0.1124
vn -0.2239 0.9725 0.0638
vn -0.1600 0.9853 0.0605
vn -0.0018 1.0000 -0.0016
vn -0.0036 1.0000 -0.0015
vn 0.0562 -0.9984 -0.0002
vn 0.0083 -1.0000 0.0033
vn 0.0546 -0.9984 -0.0148
vn 0.0017 -1.0000 -0.0000
vn 0.0218 -0.9998 -0.0034
vn 0.0982 -0.9951 -0.0102
vn 0.1162 -0.9932 -0.0002
vn 0.0949 -0.9955 -0.0015
vn 0.1802 -0.9835 -0.0166
vn 0.0372 -0.9993 -0.0025
vn 0.1397 -0.9885 -0.0569
vn -0.1052 -0.9929 -0.0561
vn 0.1526 -0.9841 -0.0904
vn -0.0250 -0.9981 -0.0564
vn 0.1186 -0.9841 -0.1322
vn 0.0737 -0.9904 -0.1171
vn 0.0731 -0.9900 -0.1209
vn 0.1721 -0.9693 -0.1755
vn -0.0017 -1.0000 0.0045
vn -0.0000 -1.0000 -0.0000
vn 0.0037 -1.0000 -0.0000
vn -0.0000 -1.0000 0.0001
vn 0.0473 -0.9988 -0.0114
vn 0.0372 -0.9993 0.0023
vn 0.0826 -0.9962 -0.0282
vn 0.0984 -0.9951 -0.0114
vn 0.0421 -0.9987 -0.0279
vn -0.0619 -0.9980 -0.0099
vn -0.0488 -0.9988 -0.0051
vn -0.0836 -0.9965 0.0063
vn -0.1006 -0.9948 0.0173
vn -0.0499 -0.9986 -0.0177
vn -0.0114 -0.9994 -0.0333
vn -0.0928 -0.9954 0.0226
vn -0.0679 -0.9977 0.0083
vn -0.0291 -0.9995 -0.0094
vn -0.0305 -0.9993 -0.0202
vn 0.0616 -0.9971 -0.0447
vn 0.0778 -0.9969 -0.0132
vn 0.0830 -0.9958 -0.0400
vn 0.0321 -0.9995 -0.0063
vn 0.0382 -0.9992 -0.0132
vn -0.0000 -0.9953 -0.0965
vn -0.0000 -0.9972 -0.0745
vn -0.0000 -0.9983 -0.0587
vn -0.0000 -0.9990 -0.0450
vn -0.0000 -0.9995 -0.0309
vn 0.0016 -0.9999 -0.0149
vn 0.0023 -0.9999 -0.0149
vn 0.0001 -1.0000 -0.0005
vn 0.1404 -0.9861 -0.0887
vn 0.1715 -0.9792 -0.1081
vn 0.1270 -0.9876 -0.0925
vn 0.0957 -0.9950 -0.0277
vn 0.1603 -0.9870 0.0121
vn 0.1074 -0.9941 0.0122
vn 0.0134 -0.9999 0.0016
vn 0.0252 -0.9993 0.0283
vn 0.0659 -0.9975 0.0265
vn 0.0055 -1.0000 -0.0000
vn 0.0003 -1.0000 -0.0000
vn 0.0067 -0.9999 -0.0132
vn 0.0172 -0.9998 -0.0132
vn 0.0277 -0.9995 -0.0132
vn 0.0019 -1.0000 -0.0063
vn 0.0119 -0.9999 -0.0063
vn 0.0220 -0.9997 -0.0063
vn 0.0292 -0.9988 -0.0401
vn 0.0472 -0.9981 -0.0401
vn 0.0651 -0.9971 -0.0400
vn 0.0206 -0.9994 -0.0283
vn 0.0449 -0.9986 -0.0282
vn 0.0552 -0.9984 -0.0132
vn 0.0443 -0.9980 -0.0447
vn 0.0500 -0.9977 -0.0447
vn 0.0558 -0.9974 -0.0447
vn 0.0232 -0.9995 -0.0202
vn 0.0053 -0.9998 -0.0202
vn -0.0126 -0.9997 -0.0202
vn 0.0126 -0.9999 -0.0094
vn -0.0013 -1.0000 -0.0094
vn -0.0152 -0.9998 -0.0094
vn -0.0106 -0.9999 0.0083
vn -0.0298 -0.9995 0.0083
vn -0.0489 -0.9988 0.0083
vn -0.0406 -0.9989 0.0227
vn -0.0580 -0.9981 0.0227
vn -0.0754 -0.9969 0.0227
vn 0.0381 -0.9987 -0.0333
vn 0.0216 -0.9992 -0.0333
vn 0.0051 -0.9994 -0.0333
vn 0.0196 -0.9944 -0.1038
vn 0.0523 -0.9986 -0.0096
vn 0.1204 -0.9926 0.0156
vn 0.0276 -0.9951 -0.0949
vn 0.0622 -0.9981 -0.0045
vn 0.0777 -0.9969 0.0157
vn 0.0159 -0.9963 -0.0844
vn 0.0398 -0.9986 -0.0346
vn 0.0148 -0.9988 0.0459
vn 0.0116 -0.9971 -0.0758
vn 0.0221 -0.9971 -0.0731
vn -0.0114 -0.9996 -0.0253
vn 0.0142 -0.9981 -0.0605
vn 0.0335 -0.9977 -0.0587
vn 0.0535 -0.9975 -0.0464
vn 0.0243 -0.9989 -0.0395
vn 0.0568 -0.9975 -0.0423
vn 0.0821 -0.9957 -0.0425
vn 0.0173 -0.9997 -0.0144
vn 0.0494 -0.9986 -0.0182
vn 0.0798 -0.9964 -0.0290
vn 0.0001 -1.0000 -0.0006
vn 0.0011 -1.0000 -0.0027
vn 0.0042 -1.0000 -0.0002
vn 0.0024 -0.9999 -0.0144
vn 0.0175 -0.9998 -0.0027
vn 0.0364 -0.9992 -0.0139
vn 0.0942 -0.9945 0.0464
vn 0.0795 -0.9960 0.0402
vn 0.0534 -0.9981 0.0308
vn 0.0399 -0.9987 0.0302
vn 0.0371 -0.9992 0.0144
vn 0.0257 -0.9996 0.0135
vn 0.1081 -0.9930 0.0471
vn 0.1005 -0.9946 0.0278
vn 0.0469 -0.9989 0.0015
vn 0.1019 -0.9944 0.0278
vn -0.0287 -0.9996 0.0015
vn 0.0205 -0.9993 -0.0328
vn 0.0644 -0.9959 -0.0631
vn 0.0800 -0.9922 -0.0957
vn 0.1981 -0.9765 -0.0854
vn 0.1799 -0.9758 -0.1239
vn 0.2427 -0.9661 -0.0884
vn 0.1963 -0.9742 -0.1118
vn 0.0018 -1.0000 -0.0000
vn -0.0970 -0.9953 -0.0000
vn -0.1307 -0.9913 0.0172
vn -0.1410 -0.9898 0.0225
vn 0.0725 -0.9972 0.0192
vn 0.0042 -0.9998 0.0192
vn 0.0495 -0.9987 -0.0102
vn -0.0000 -1.0000 0.0033
vn 0.0358 -0.9992 -0.0148
vn 0.0883 -0.9961 -0.0015
vn 0.1145 -0.9933 -0.0167
vn 0.0963 -0.9954 -0.0025
vn 0.1617 -0.9852 -0.0567
vn 0.0436 -0.9990 -0.0093
vn 0.1199 -0.9886 -0.0908
vn -0.0337 -0.9994 -0.0093
vn 0.1350 -0.9820 -0.1319
vn 0.0406 -0.9923 -0.1173
vn 0.1224 -0.9852 -0.1203
vn 0.1468 -0.9733 -0.1762
vn 0.0797 -0.9913 -0.1047
vn 0.1914 -0.9619 -0.1954
vn -0.0050 -1.0000 0.0001
vn 0.0054 -1.0000 0.0016
vn -0.0001 -1.0000 -0.0000
vn 0.0540 -0.9985 0.0023
vn 0.0386 -0.9992 0.0045
vn 0.0902 -0.9954 -0.0310
vn 0.1401 -0.9897 -0.0280
vn 0.0427 -0.9986 -0.0311
vn -0.0674 -0.9976 -0.0177
vn -0.0504 -0.9987 -0.0099
vn -0.0753 -0.9971 -0.0051
vn -0.0941 -0.9955 0.0063
vn -0.0550 -0.9981 -0.0279
vn -0.0117 -0.9989 -0.0448
vn -0.0847 -0.9964 0.0083
vn -0.0573 -0.9983 -0.0093
vn -0.0279 -0.9994 -0.0202
vn -0.0313 -0.9990 -0.0333
vn 0.0604 -0.9974 -0.0401
vn 0.1172 -0.9927 -0.0281
vn 0.0385 -0.9993 -0.0000
vn 0.0434 -0.9990 -0.0063
vn 0.0187 -0.9932 -0.1151
vn 0.0274 -0.9950 -0.0965
vn 0.0166 -0.9971 -0.0744
vn 0.0118 -0.9982 -0.0587
vn 0.0143 -0.9989 -0.0450
vn 0.0238 -0.9992 -0.0309
vn 0.0160 -0.9999 -0.0005
vn 0.0005 -1.0000 -0.0000
vn 0.1234 -0.9906 -0.0596
vn 0.1540 -0.9841 -0.0885
vn 0.1366 -0.9847 -0.1087
vn 0.1066 -0.9900 -0.0927
vn 0.1713 -0.9848 -0.0274
vn 0.1315 -0.9910 0.0263
vn 0.0029 -0.9999 0.0140
vn 0.0104 -0.9998 0.0140
vn 0.0682 -0.9973 0.0282
vn 0.0007 -1.0000 -0.0034
vn -0.0000 -1.0000 -0.0002
vn 0.0133 -0.9999 -0.0063
vn 0.0233 -0.9997 -0.0063
vn 0.0334 -0.9994 -0.0063
vn 0.0096 -1.0000 -0.0000
vn 0.0193 -0.9998 -0.0000
vn 0.0289 -0.9996 -0.0000
vn 0.0361 -0.9989 -0.0283
vn 0.0517 -0.9983 -0.0282
vn 0.0672 -0.9973 -0.0282
vn 0.0324 -0.9994 -0.0132
vn 0.0932 -0.9952 -0.0282
vn 0.0449 -0.9982 -0.0401
vn 0.0500 -0.9979 -0.0401
vn 0.0552 -0.9977 -0.0401
vn 0.0208 -0.9992 -0.0333
vn 0.0034 -0.9994 -0.0333
vn -0.0139 -0.9993 -0.0333
vn 0.0135 -0.9997 -0.0202
vn -0.0003 -0.9998 -0.0203
vn -0.0141 -0.9997 -0.0202
vn -0.0054 -0.9999 -0.0094
vn -0.0227 -0.9997 -0.0094
vn -0.0401 -0.9992 -0.0094
vn -0.0324 -0.9994 0.0083
vn -0.0499 -0.9987 0.0083
vn -0.0673 -0.9977 0.0083
vn 0.0355 -0.9984 -0.0448
vn 0.0198 -0.9988 -0.0448
vn 0.0041 -0.9990 -0.0448
vn 0.0339 -0.9928 -0.1150
vn 0.1020 -0.9934 -0.0525
vn 0.2116 -0.9747 -0.0722
vn 0.0417 -0.9937 -0.1038
vn 0.0696 -0.9975 -0.0096
vn 0.1460 -0.9881 0.0486
vn 0.0301 -0.9950 -0.0949
vn 0.0022 -1.0000 -0.0045
vn 0.0110 -0.9987 0.0491
vn 0.0207 -0.9962 -0.0844
vn -0.0136 -0.9993 -0.0347
vn -0.0691 -0.9966 0.0457
vn 0.0321 -0.9966 -0.0757
vn 0.0493 -0.9961 -0.0731
vn 0.0319 -0.9992 -0.0253
vn 0.0564 -0.9966 -0.0604
vn 0.0805 -0.9950 -0.0586
vn 0.0873 -0.9951 -0.0463
vn 0.0502 -0.9980 -0.0394
vn 0.0796 -0.9959 -0.0422
vn 0.0959 -0.9945 -0.0424
vn 0.0007 -1.0000 -0.0000
vn 0.0042 -1.0000 -0.0000
vn 0.0220 -0.9997 -0.0139
vn 0.0173 -0.9998 -0.0006
vn 0.0365 -0.9992 -0.0182
vn 0.0541 -0.9981 -0.0290
vn 0.0774 -0.9965 0.0308
vn 0.0671 -0.9973 0.0301
vn 0.0379 -0.9992 0.0144
vn 0.0228 -0.9996 0.0135
vn 0.0250 -0.9997 0.0016
vn 0.0134 -0.9999 0.0015
vn 0.1070 -0.9932 0.0463
vn 0.1204 -0.9919 0.0400
vn 0.1112 -0.9927 0.0471
vn 0.1311 -0.9908 -0.0325
vn 0.0014 -0.9980 -0.0632
vn 0.0424 -0.9945 -0.0959
vn 0.0852 -0.9926 -0.0868
vn 0.1029 -0.9868 -0.1253
vn 0.2020 -0.9753 -0.0892
vn 0.1684 -0.9793 -0.1124
vn 0.2239 -0.9725 -0.0638
vn 0.1600 -0.9853 -0.0605
vn 0.0018 -1.0000 0.0016
vn 0.0036 -1.0000 0.0015
vn -1.0000 -0.0000 -0.0000
vn 0.3702 -0.0000 -0.9290
vn 0.3859 -0.0000 0.9225
vn 0.8082 -0.0000 -0.5890
vn -0.2160 -0.0000 0.9764
vn -0.6702 -0.0000 0.7421
vn -0.8927 -0.0000 0.4507
vn 0.6992 -0.0000 0.7149
vn -0.0000 -0.0000 -1.0000
vn 0.7706 -0.0000 -0.6373
vn -0.7275 -0.0000 0.6861
vn 0.5905 -0.0000 -0.8070
vn 0.2006 -0.0000 -0.9797
vn -0.3281 -0.0000 0.9446
vn 0.6578 -0.0000 0.7532
vn 0.1602 -0.0000 0.9871
vn 0.5125 -0.0000 -0.8587
vn -0.0000 -0.0000 1.0000
vn 0.8484 -0.0000 -0.5293
vn -0.4871 -0.0000 0.8734
vn -0.7346 -0.0000 0.6785
vn 0.6523 -0.0000 0.7580
vn 1.0000 -0.0000 -0.0000
vn 0.2854 -0.0000 -0.9584
vn 0.1522 -0.0000 -0.9883
vn 0.9102 -0.0000 -0.4142
vn -0.8008 -0.0000 0.5989
vn 0.8170 -0.0000 -0.5767
vn -0.6425 -0.0000 0.7663
vn 0.6630 -0.0000 0.7486
vn 0.5144 -0.0000 0.8575
vn 0.8149 -0.0000 -0.5796
vn 0.1090 -0.0000 -0.9940
vn 0.8728 -0.0000 -0.4881
vn -0.7236 -0.0000 0.6903
vn -0.8728 -0.0000 0.4881
vn -0.0486 -0.0000 0.9988
vn 0.6600 -0.0000 0.7513
vn 0.8927 -0.0000 -0.4507
vt 0.420686 0.385825
vt 0.410403 0.338279
vt 0.403042 0.338277
vt 0.415561 0.435567
vt 0.424181 0.435573
vt 0.477353 0.435586
vt 0.501770 0.435661
vt 0.512655 0.385728
vt 0.405176 0.482469
vt 0.415758 0.482487
vt 0.465165 0.482568
vt 0.486959 0.482608
vt 0.489351 0.385649
vt 0.517754 0.337927
vt 0.419491 0.297873
vt 0.495485 0.337895
vt 0.522485 0.297768
vt 0.411029 0.297835
vt 0.436536 0.244720
vt 0.499839 0.297691
vt 0.547989 0.245677
vt 0.419038 0.244498
vt 0.330086 0.183250
vt 0.619603 0.184601
vt 0.561044 0.184349
vt 0.300904 0.183101
vt 0.226940 0.132613
vt 0.659064 0.135633
vt 0.186412 0.132331
vt 0.153779 0.086533
vt 0.544711 0.134770
vt 0.650680 0.090540
vt 0.113072 0.086207
vt 0.097166 0.025738
vt 0.462665 0.088976
vt 0.548553 0.029297
vt 0.540963 0.521205
vt 0.529948 0.561445
vt 0.547230 0.561452
vt 0.437137 0.521072
vt 0.424509 0.561332
vt 0.442103 0.561357
vt 0.449209 0.482541
vt 0.453752 0.521098
vt 0.551894 0.482714
vt 0.557805 0.521219
vt 0.518712 0.599285
vt 0.507755 0.638494
vt 0.527726 0.638505
vt 0.411045 0.599158
vt 0.393762 0.638339
vt 0.413065 0.638371
vt 0.429522 0.599184
vt 0.536216 0.599280
vt 0.529520 0.674935
vt 0.507969 0.674881
vt 0.493294 0.711837
vt 0.372382 0.674556
vt 0.347295 0.711443
vt 0.369002 0.711490
vt 0.392382 0.674597
vt 0.463174 0.751230
vt 0.490574 0.751298
vt 0.318543 0.750847
vt 0.341543 0.750891
vt 0.416438 0.782128
vt 0.372188 0.813515
vt 0.397356 0.813594
vt 0.295679 0.781843
vt 0.271960 0.813287
vt 0.295667 0.813336
vt 0.333098 0.846718
vt 0.354849 0.846772
vt 0.243732 0.846523
vt 0.266814 0.846580
vt 0.289726 0.886160
vt 0.304161 0.886202
vt 0.205987 0.885904
vt 0.229601 0.885977
vt 0.264062 0.918275
vt 0.280582 0.918357
vt 0.167506 0.917782
vt 0.190496 0.917847
vt 0.319172 0.781887
vt 0.442618 0.782207
vt 0.432778 0.751149
vt 0.392136 0.782071
vt 0.274708 0.886113
vt 0.245644 0.918168
vt 0.316536 0.846687
vt 0.353058 0.813472
vt 0.462207 0.711752
vt 0.484087 0.638469
vt 0.479083 0.674809
vt 0.507995 0.561429
vt 0.496424 0.599263
vt 0.530258 0.482682
vt 0.519165 0.521183
vt 0.828950 0.090540
vt 0.907227 0.090717
vt 0.933916 0.030810
vt 0.836017 0.136033
vt 0.893793 0.136287
vt 0.790996 0.185995
vt 0.835641 0.186341
vt 0.714123 0.246892
vt 0.750351 0.247153
vt 0.670499 0.298733
vt 0.699317 0.298912
vt 0.634166 0.338726
vt 0.655801 0.338850
vt 0.613016 0.386181
vt 0.569475 0.482738
vt 0.587755 0.435870
vt 0.569491 0.435830
vt 0.594219 0.386112
vt 0.260325 0.750731
vt 0.237813 0.781728
vt 0.246756 0.781746
vt 0.148407 0.885723
vt 0.109096 0.917647
vt 0.119407 0.917671
vt 0.187424 0.846375
vt 0.156995 0.885750
vt 0.214147 0.813159
vt 0.195588 0.846397
vt 0.222569 0.813178
vt 0.287611 0.711312
vt 0.270610 0.750752
vt 0.340545 0.638243
vt 0.316628 0.674436
vt 0.330542 0.674467
vt 0.301985 0.711345
vt 0.375939 0.561254
vt 0.360056 0.599076
vt 0.372322 0.599097
vt 0.353347 0.638268
vt 0.391230 0.520990
vt 0.402272 0.521011
vt 0.387622 0.561274
vt 0.248196 0.087269
vt 0.169888 0.026266
vt 0.335142 0.133353
vt 0.414492 0.183682
vt 0.466791 0.245027
vt 0.439585 0.297860
vt 0.433765 0.338202
vt 0.432223 0.482515
vt 0.441906 0.435580
vt 0.443016 0.385777
vt 0.464069 0.561385
vt 0.475549 0.521129
vt 0.486033 0.561409
vt 0.497357 0.521158
vt 0.508613 0.482646
vt 0.436744 0.638408
vt 0.451822 0.599213
vt 0.460417 0.638440
vt 0.474128 0.599240
vt 0.400079 0.711578
vt 0.421284 0.674666
vt 0.431147 0.711665
vt 0.450185 0.674737
vt 0.371966 0.750980
vt 0.402375 0.751066
vt 0.314798 0.813383
vt 0.343497 0.781951
vt 0.333930 0.813428
vt 0.367819 0.782012
vt 0.283392 0.846619
vt 0.299966 0.846654
vt 0.244641 0.886022
vt 0.259677 0.886067
vt 0.208858 0.917959
vt 0.227242 0.918062
vt 0.716740 0.090281
vt 0.835179 0.030544
vt 0.684880 0.090293
vt 0.702738 0.030184
vt 0.636662 0.029962
vt 0.740393 0.135636
vt 0.713255 0.135619
vt 0.709337 0.185355
vt 0.668188 0.185064
vt 0.646274 0.246394
vt 0.580314 0.245902
vt 0.617410 0.298382
vt 0.565661 0.298034
vt 0.596633 0.338479
vt 0.557254 0.338206
vt 0.569743 0.386011
vt 0.543803 0.385897
vt 0.547757 0.435783
vt 0.525926 0.435732
vt 0.463905 0.338060
vt 0.466736 0.385718
vt 0.460079 0.435586
vt 0.465624 0.297798
vt 0.522231 0.245565
vt 0.500432 0.245454
vt 0.502684 0.184097
vt 0.459861 0.134208
vt 0.368204 0.088234
vt 0.322054 0.027361
vt 0.244921 0.026808
vt 0.270892 0.781795
vt 0.294259 0.750800
vt 0.143134 0.917726
vt 0.181151 0.885826
vt 0.219322 0.846459
vt 0.246933 0.813233
vt 0.324326 0.711394
vt 0.351149 0.674511
vt 0.373249 0.638304
vt 0.391390 0.599128
vt 0.405783 0.561304
vt 0.419433 0.521042
vt 0.066448 0.973895
vt 0.090260 0.973925
vt 0.211699 0.974488
vt 0.174796 0.974237
vt 0.056106 0.973882
vt 0.114750 0.973956
vt 0.137884 0.973985
vt 0.193252 0.974362
vt 0.156340 0.974111
vt 0.411416 0.385840
vt 0.056108 0.025418
vt 0.518965 0.711895
vt 0.228253 0.974582
s 0
usemtl Material.003
f 91/1/1 90/2/1 6/3/1
f 12/4/2 92/5/2 91/1/2
f 11/6/3 132/7/3 129/8/3
f 2/9/4 89/10/4 92/5/4
f 3/11/5 123/12/5 132/7/5
f 8/13/6 129/8/6 126/14/6
f 6/3/7 90/2/7 93/15/7
f 5/16/8 126/14/8 135/17/8
f 15/18/9 93/15/9 94/19/9
f 14/20/10 135/17/10 138/21/10
f 18/22/11 94/19/11 95/23/11
f 138/21/12 141/24/12 20/25/12
f 21/26/13 95/23/13 96/27/13
f 20/25/14 141/24/14 144/28/14
f 24/29/15 96/27/15 97/30/15
f 23/31/16 144/28/16 147/32/16
f 27/33/17 97/30/17 98/34/17
f 26/35/18 147/32/18 150/36/18
f 78/37/19 77/38/19 33/39/19
f 213/40/20 198/41/20 32/42/20
f 178/43/21 213/40/21 34/44/21
f 67/45/22 78/37/22 35/46/22
f 80/47/23 79/48/23 39/49/23
f 215/50/20 200/51/20 38/52/20
f 198/41/20 215/50/20 40/53/20
f 77/38/24 80/47/24 41/54/24
f 47/55/25 82/56/25 81/57/25
f 217/58/20 202/59/20 44/60/20
f 200/51/20 217/58/20 46/61/20
f 39/49/26 79/48/26 82/56/26
f 81/57/27 83/62/27 51/63/27
f 202/59/20 204/64/20 50/65/20
f 88/66/28 84/67/28 54/68/28
f 219/69/20 206/70/20 53/71/20
f 84/67/29 85/72/29 57/73/29
f 206/70/20 208/74/20 56/75/20
f 85/72/30 86/76/30 60/77/30
f 208/74/20 210/78/20 59/79/20
f 86/76/31 87/80/31 63/81/31
f 210/78/20 212/82/20 62/83/20
f 204/64/20 219/69/20 64/84/20
f 83/62/32 88/66/32 65/85/32
f 164/86/33 120/87/33 88/66/33
f 173/88/34 176/89/34 87/80/34
f 170/90/35 173/88/35 86/76/35
f 167/91/36 170/90/36 85/72/36
f 120/87/37 167/91/37 84/67/37
f 161/92/38 164/86/38 83/62/38
f 79/48/39 158/93/39 117/94/39
f 117/94/40 161/92/40 81/57/40
f 155/95/41 114/96/41 80/47/41
f 114/96/42 158/93/42 79/48/42
f 125/97/20 111/98/20 78/37/20
f 111/98/20 155/95/20 77/38/20
f 75/99/43 25/100/43 28/101/43
f 74/102/44 22/103/44 25/100/44
f 73/104/45 19/105/45 22/103/45
f 72/106/46 16/107/46 19/105/46
f 71/108/47 13/109/47 16/107/47
f 68/110/48 1/111/48 13/109/48
f 9/112/49 1/111/49 68/110/49
f 4/113/20 10/114/20 70/115/20
f 10/114/50 9/112/50 69/116/50
f 49/117/20 66/118/20 110/119/20
f 58/120/20 61/121/20 109/122/20
f 55/123/20 58/120/20 108/124/20
f 52/125/20 55/123/20 107/126/20
f 66/118/20 52/125/20 106/127/20
f 43/128/20 49/117/20 105/129/20
f 37/130/20 48/131/20 104/132/20
f 48/131/20 43/128/20 103/133/20
f 31/134/20 42/135/20 102/136/20
f 42/135/20 37/130/20 101/137/20
f 2/9/20 36/138/20 100/139/20
f 36/138/20 31/134/20 99/140/20
f 97/30/51 193/141/51 195/142/51
f 96/27/52 191/143/52 193/141/52
f 95/23/53 189/144/53 191/143/53
f 94/19/54 187/145/54 189/144/54
f 93/15/55 185/146/55 187/145/55
f 179/147/56 185/146/56 93/15/56
f 89/10/57 177/148/57 183/149/57
f 183/149/58 181/150/58 91/1/58
f 181/150/59 179/147/59 90/2/59
f 34/44/20 32/42/20 153/151/20
f 113/152/20 153/151/20 154/153/20
f 112/154/20 154/153/20 155/95/20
f 3/11/60 34/44/60 113/152/60
f 123/12/61 113/152/61 112/154/61
f 124/155/20 112/154/20 111/98/20
f 40/53/62 38/52/62 156/156/62
f 116/157/63 156/156/63 157/158/63
f 115/159/64 157/158/64 158/93/64
f 32/42/65 40/53/65 116/157/65
f 153/151/66 116/157/66 115/159/66
f 154/153/67 115/159/67 114/96/67
f 46/61/68 44/60/68 159/160/68
f 119/161/69 159/160/69 160/162/69
f 118/163/70 160/162/70 161/92/70
f 38/52/71 46/61/71 119/161/71
f 156/156/72 119/161/72 118/163/72
f 158/93/73 157/158/73 118/163/73
f 44/60/74 50/65/74 162/164/74
f 159/160/75 162/164/75 163/165/75
f 160/162/76 163/165/76 164/86/76
f 64/84/77 53/71/77 165/166/77
f 122/167/78 165/166/78 166/168/78
f 121/169/79 166/168/79 167/91/79
f 53/71/80 56/75/80 168/170/80
f 165/166/81 168/170/81 169/171/81
f 166/168/82 169/171/82 170/90/82
f 56/75/83 59/79/83 171/172/83
f 168/170/84 171/172/84 172/173/84
f 169/171/85 172/173/85 173/88/85
f 59/79/86 62/83/86 174/174/86
f 171/172/87 174/174/87 175/175/87
f 172/173/88 175/175/88 176/89/88
f 50/65/89 64/84/89 122/167/89
f 162/164/90 122/167/90 121/169/90
f 163/165/91 121/169/91 120/87/91
f 149/176/92 75/99/92 76/177/92
f 148/178/93 149/176/93 152/179/93
f 147/32/94 148/178/94 151/180/94
f 146/181/95 74/102/95 75/99/95
f 145/182/96 146/181/96 149/176/96
f 145/182/97 148/178/97 147/32/97
f 143/183/98 73/104/98 74/102/98
f 142/184/99 143/183/99 146/181/99
f 141/24/100 142/184/100 145/182/100
f 140/185/101 72/106/101 73/104/101
f 139/186/102 140/185/102 143/183/102
f 138/21/103 139/186/103 142/184/103
f 137/187/104 71/108/104 72/106/104
f 136/188/105 137/187/105 140/185/105
f 135/17/106 136/188/106 139/186/106
f 128/189/107 68/110/107 71/108/107
f 127/190/108 128/189/108 137/187/108
f 126/14/109 127/190/109 136/188/109
f 131/191/110 69/116/110 68/110/110
f 130/192/111 131/191/111 128/189/111
f 129/8/112 130/192/112 127/190/112
f 67/45/113 70/115/113 134/193/113
f 125/97/114 134/193/114 133/194/114
f 123/12/115 124/155/115 133/194/115
f 70/115/116 69/116/116 131/191/116
f 133/194/117 134/193/117 131/191/117
f 132/7/118 133/194/118 130/192/118
f 8/13/119 5/16/119 180/195/119
f 182/196/120 180/195/120 179/147/120
f 11/6/121 8/13/121 182/196/121
f 184/197/122 182/196/122 181/150/122
f 3/11/123 11/6/123 184/197/123
f 178/43/124 184/197/124 183/149/124
f 5/16/125 14/20/125 186/198/125
f 180/195/126 186/198/126 185/146/126
f 14/20/127 17/199/127 188/200/127
f 185/146/128 186/198/128 188/200/128
f 188/200/129 17/199/129 20/25/129
f 187/145/130 188/200/130 190/201/130
f 190/201/131 20/25/131 23/31/131
f 189/144/132 190/201/132 192/202/132
f 192/202/133 23/31/133 26/35/133
f 191/143/134 192/202/134 194/203/134
f 194/203/135 26/35/135 29/204/135
f 193/141/136 194/203/136 196/205/136
f 105/129/20 110/119/20 220/206/20
f 203/207/20 220/206/20 219/69/20
f 108/124/20 109/122/20 211/208/20
f 209/209/20 211/208/20 212/82/20
f 107/126/20 108/124/20 209/209/20
f 207/210/20 209/209/20 210/78/20
f 106/127/20 107/126/20 207/210/20
f 205/211/20 207/210/20 208/74/20
f 110/119/20 106/127/20 205/211/20
f 220/206/20 205/211/20 206/70/20
f 103/133/20 105/129/20 203/207/20
f 201/212/20 203/207/20 204/64/20
f 101/137/20 104/132/20 218/213/20
f 199/214/20 218/213/20 217/58/20
f 104/132/20 103/133/20 201/212/20
f 218/213/20 201/212/20 202/59/20
f 99/140/20 102/136/20 216/215/20
f 197/216/20 216/215/20 215/50/20
f 102/136/20 101/137/20 199/214/20
f 216/215/20 199/214/20 200/51/20
f 89/10/20 100/139/20 214/217/20
f 177/148/137 214/217/137 213/40/137
f 100/139/20 99/140/20 197/216/20
f 214/217/20 197/216/20 198/41/20
f 109/122/138 225/218/138 229/219/138
f 63/81/139 87/80/139 224/220/139
f 176/89/140 175/175/140 227/221/140
f 61/121/138 221/222/138 225/218/138
f 211/208/138 229/219/138 230/223/138
f 174/174/140 62/83/140 222/224/140
f 87/80/140 176/89/140 228/225/140
f 212/82/138 230/223/138 222/224/138
f 175/175/140 174/174/140 226/226/140
f 91/1/141 6/3/141 7/227/141
f 12/4/142 91/1/142 7/227/142
f 11/6/143 129/8/143 8/13/143
f 2/9/144 92/5/144 12/4/144
f 3/11/145 132/7/145 11/6/145
f 8/13/146 126/14/146 5/16/146
f 6/3/147 93/15/147 15/18/147
f 5/16/148 135/17/148 14/20/148
f 15/18/149 94/19/149 18/22/149
f 14/20/150 138/21/150 17/199/150
f 18/22/151 95/23/151 21/26/151
f 138/21/152 20/25/152 17/199/152
f 21/26/153 96/27/153 24/29/153
f 20/25/154 144/28/154 23/31/154
f 24/29/155 97/30/155 27/33/155
f 23/31/156 147/32/156 26/35/156
f 27/33/157 98/34/157 30/228/157
f 26/35/158 150/36/158 29/204/158
f 78/37/159 33/39/159 35/46/159
f 213/40/20 32/42/20 34/44/20
f 178/43/160 34/44/160 3/11/160
f 67/45/161 35/46/161 4/113/161
f 80/47/162 39/49/162 41/54/162
f 215/50/20 38/52/20 40/53/20
f 198/41/20 40/53/20 32/42/20
f 77/38/163 41/54/163 33/39/163
f 47/55/164 81/57/164 45/229/164
f 217/58/20 44/60/20 46/61/20
f 200/51/20 46/61/20 38/52/20
f 39/49/165 82/56/165 47/55/165
f 81/57/166 51/63/166 45/229/166
f 202/59/20 50/65/20 44/60/20
f 88/66/167 54/68/167 65/85/167
f 219/69/20 53/71/20 64/84/20
f 84/67/168 57/73/168 54/68/168
f 206/70/20 56/75/20 53/71/20
f 85/72/169 60/77/169 57/73/169
f 208/74/20 59/79/20 56/75/20
f 86/76/170 63/81/170 60/77/170
f 210/78/20 62/83/20 59/79/20
f 204/64/20 64/84/20 50/65/20
f 83/62/171 65/85/171 51/63/171
f 164/86/172 88/66/172 83/62/172
f 173/88/173 87/80/173 86/76/173
f 170/90/174 86/76/174 85/72/174
f 167/91/175 85/72/175 84/67/175
f 120/87/176 84/67/176 88/66/176
f 161/92/177 83/62/177 81/57/177
f 79/48/178 117/94/178 82/56/178
f 117/94/25 81/57/25 82/56/25
f 155/95/179 80/47/179 77/38/179
f 114/96/180 79/48/180 80/47/180
f 125/97/20 78/37/20 67/45/20
f 111/98/20 77/38/20 78/37/20
f 75/99/181 28/101/181 76/177/181
f 74/102/182 25/100/182 75/99/182
f 73/104/183 22/103/183 74/102/183
f 72/106/184 19/105/184 73/104/184
f 71/108/185 16/107/185 72/106/185
f 68/110/186 13/109/186 71/108/186
f 9/112/187 68/110/187 69/116/187
f 4/113/20 70/115/20 67/45/20
f 10/114/188 69/116/188 70/115/188
f 49/117/20 110/119/20 105/129/20
f 58/120/20 109/122/20 108/124/20
f 55/123/20 108/124/20 107/126/20
f 52/125/20 107/126/20 106/127/20
f 66/118/20 106/127/20 110/119/20
f 43/128/20 105/129/20 103/133/20
f 37/130/20 104/132/20 101/137/20
f 48/131/20 103/133/20 104/132/20
f 31/134/20 102/136/20 99/140/20
f 42/135/20 101/137/20 102/136/20
f 2/9/20 100/139/20 89/10/20
f 36/138/20 99/140/20 100/139/20
f 97/30/189 195/142/189 98/34/189
f 96/27/190 193/141/190 97/30/190
f 95/23/191 191/143/191 96/27/191
f 94/19/192 189/144/192 95/23/192
f 93/15/193 187/145/193 94/19/193
f 179/147/194 93/15/194 90/2/194
f 89/10/195 183/149/195 92/5/195
f 183/149/196 91/1/196 92/5/196
f 181/150/197 90/2/197 91/1/197
f 34/44/20 153/151/20 113/152/20
f 113/152/20 154/153/20 112/154/20
f 112/154/20 155/95/20 111/98/20
f 3/11/198 113/152/198 123/12/198
f 123/12/199 112/154/199 124/155/199
f 124/155/20 111/98/20 125/97/20
f 40/53/200 156/156/200 116/157/200
f 116/157/201 157/158/201 115/159/201
f 115/159/202 158/93/202 114/96/202
f 32/42/203 116/157/203 153/151/203
f 153/151/204 115/159/204 154/153/204
f 154/153/205 114/96/205 155/95/205
f 46/61/206 159/160/206 119/161/206
f 119/161/207 160/162/207 118/163/207
f 118/163/208 161/92/208 117/94/208
f 38/52/209 119/161/209 156/156/209
f 156/156/73 118/163/73 157/158/73
f 158/93/210 118/163/210 117/94/210
f 44/60/211 162/164/211 159/160/211
f 159/160/212 163/165/212 160/162/212
f 160/162/213 164/86/213 161/92/213
f 64/84/214 165/166/214 122/167/214
f 122/167/215 166/168/215 121/169/215
f 121/169/216 167/91/216 120/87/216
f 53/71/217 168/170/217 165/166/217
f 165/166/218 169/171/218 166/168/218
f 166/168/219 170/90/219 167/91/219
f 56/75/220 171/172/220 168/170/220
f 168/170/221 172/173/221 169/171/221
f 169/171/222 173/88/222 170/90/222
f 59/79/223 174/174/223 171/172/223
f 171/172/224 175/175/224 172/173/224
f 172/173/225 176/89/225 173/88/225
f 50/65/226 122/167/226 162/164/226
f 162/164/227 121/169/227 163/165/227
f 163/165/228 120/87/228 164/86/228
f 149/176/229 76/177/229 152/179/229
f 148/178/230 152/179/230 151/180/230
f 147/32/231 151/180/231 150/36/231
f 146/181/232 75/99/232 149/176/232
f 145/182/233 149/176/233 148/178/233
f 145/182/234 147/32/234 144/28/234
f 143/183/235 74/102/235 146/181/235
f 142/184/236 146/181/236 145/182/236
f 141/24/237 145/182/237 144/28/237
f 140/185/238 73/104/238 143/183/238
f 139/186/239 143/183/239 142/184/239
f 138/21/240 142/184/240 141/24/240
f 137/187/241 72/106/241 140/185/241
f 136/188/242 140/185/242 139/186/242
f 135/17/243 139/186/243 138/21/243
f 128/189/244 71/108/244 137/187/244
f 127/190/245 137/187/245 136/188/245
f 126/14/246 136/188/246 135/17/246
f 131/191/247 68/110/247 128/189/247
f 130/192/248 128/189/248 127/190/248
f 129/8/249 127/190/249 126/14/249
f 67/45/250 134/193/250 125/97/250
f 125/97/251 133/194/251 124/155/251
f 123/12/252 133/194/252 132/7/252
f 70/115/253 131/191/253 134/193/253
f 133/194/254 131/191/254 130/192/254
f 132/7/255 130/192/255 129/8/255
f 8/13/256 180/195/256 182/196/256
f 182/196/257 179/147/257 181/150/257
f 11/6/258 182/196/258 184/197/258
f 184/197/259 181/150/259 183/149/259
f 3/11/260 184/197/260 178/43/260
f 178/43/261 183/149/261 177/148/261
f 5/16/262 186/198/262 180/195/262
f 180/195/263 185/146/263 179/147/263
f 14/20/264 188/200/264 186/198/264
f 185/146/265 188/200/265 187/145/265
f 188/200/266 20/25/266 190/201/266
f 187/145/267 190/201/267 189/144/267
f 190/201/268 23/31/268 192/202/268
f 189/144/269 192/202/269 191/143/269
f 192/202/270 26/35/270 194/203/270
f 191/143/271 194/203/271 193/141/271
f 194/203/272 29/204/272 196/205/272
f 193/141/273 196/205/273 195/142/273
f 105/129/20 220/206/20 203/207/20
f 203/207/20 219/69/20 204/64/20
f 108/124/20 211/208/20 209/209/20
f 209/209/20 212/82/20 210/78/20
f 107/126/20 209/209/20 207/210/20
f 207/210/20 210/78/20 208/74/20
f 106/127/20 207/210/20 205/211/20
f 205/211/20 208/74/20 206/70/20
f 110/119/20 205/211/20 220/206/20
f 220/206/20 206/70/20 219/69/20
f 103/133/20 203/207/20 201/212/20
f 201/212/20 204/64/20 202/59/20
f 101/137/20 218/213/20 199/214/20
f 199/214/20 217/58/20 200/51/20
f 104/132/20 201/212/20 218/213/20
f 218/213/20 202/59/20 217/58/20
f 99/140/20 216/215/20 197/216/20
f 197/216/20 215/50/20 198/41/20
f 102/136/20 199/214/20 216/215/20
f 216/215/20 200/51/20 215/50/20
f 89/10/274 214/217/274 177/148/274
f 177/148/275 213/40/275 178/43/275
f 100/139/20 197/216/20 214/217/20
f 214/217/20 198/41/20 213/40/20
f 109/122/138 229/219/138 211/208/138
f 63/81/139 224/220/139 223/230/139
f 176/89/140 227/221/140 228/225/140
f 61/121/138 225/218/138 109/122/138
f 211/208/138 230/223/138 212/82/138
f 174/174/140 222/224/140 226/226/140
f 87/80/140 228/225/140 224/220/140
f 212/82/138 222/224/138 62/83/138
f 175/175/140 226/226/140 227/221/140
f 321/1/276 236/3/276 320/2/276
f 242/4/277 321/1/277 322/5/277
f 241/6/278 359/8/278 362/7/278
f 232/9/279 322/5/279 319/10/279
f 233/11/280 362/7/280 353/12/280
f 238/13/281 356/14/281 359/8/281
f 236/3/282 323/15/282 320/2/282
f 235/16/283 365/17/283 356/14/283
f 245/18/284 324/19/284 323/15/284
f 244/20/285 368/21/285 365/17/285
f 248/22/286 325/23/286 324/19/286
f 368/21/287 250/25/287 371/24/287
f 251/26/288 326/27/288 325/23/288
f 250/25/289 374/28/289 371/24/289
f 254/29/290 327/30/290 326/27/290
f 253/31/291 377/32/291 374/28/291
f 257/33/292 328/34/292 327/30/292
f 256/35/293 380/36/293 377/32/293
f 308/37/294 263/39/294 307/38/294
f 443/40/295 262/42/295 428/41/295
f 408/43/296 264/44/296 443/40/296
f 297/45/297 265/46/297 308/37/297
f 310/47/298 269/49/298 309/48/298
f 445/50/295 268/52/295 430/51/295
f 428/41/295 270/53/295 445/50/295
f 307/38/299 271/54/299 310/47/299
f 277/55/300 311/57/300 312/56/300
f 447/58/295 274/60/295 432/59/295
f 430/51/295 276/61/295 447/58/295
f 269/49/301 312/56/301 309/48/301
f 311/57/302 281/63/302 313/62/302
f 432/59/295 280/65/295 434/64/295
f 318/66/303 284/68/303 314/67/303
f 449/69/295 283/71/295 436/70/295
f 314/67/304 287/73/304 315/72/304
f 436/70/295 286/75/295 438/74/295
f 315/72/305 290/77/305 316/76/305
f 438/74/295 289/79/295 440/78/295
f 316/76/306 293/81/306 317/80/306
f 440/78/295 292/83/295 442/82/295
f 434/64/295 294/84/295 449/69/295
f 313/62/307 295/85/307 318/66/307
f 394/86/308 318/66/308 350/87/308
f 403/88/309 317/80/309 406/89/309
f 400/90/310 316/76/310 403/88/310
f 397/91/311 315/72/311 400/90/311
f 350/87/312 314/67/312 397/91/312
f 391/92/313 313/62/313 394/86/313
f 309/48/314 347/94/314 388/93/314
f 347/94/315 311/57/315 391/92/315
f 385/95/316 310/47/316 344/96/316
f 344/96/317 309/48/317 388/93/317
f 355/97/295 308/37/295 341/98/295
f 341/98/295 307/38/295 385/95/295
f 305/99/318 258/101/318 255/100/318
f 304/102/319 255/100/319 252/103/319
f 303/104/320 252/103/320 249/105/320
f 302/106/321 249/105/321 246/107/321
f 301/108/322 246/107/322 243/109/322
f 298/110/323 243/109/323 231/111/323
f 239/112/324 298/110/324 231/111/324
f 234/113/295 300/115/295 240/114/295
f 240/114/325 299/116/325 239/112/325
f 279/117/295 340/119/295 296/118/295
f 288/120/295 339/122/295 291/121/295
f 285/123/295 338/124/295 288/120/295
f 282/125/295 337/126/295 285/123/295
f 296/118/295 336/127/295 282/125/295
f 273/128/295 335/129/295 279/117/295
f 267/130/295 334/132/295 278/131/295
f 278/131/295 333/133/295 273/128/295
f 261/134/295 332/136/295 272/135/295
f 272/135/295 331/137/295 267/130/295
f 232/9/295 330/139/295 266/138/295
f 266/138/295 329/140/295 261/134/295
f 327/30/326 425/142/326 423/141/326
f 326/27/327 423/141/327 421/143/327
f 325/23/328 421/143/328 419/144/328
f 324/19/329 419/144/329 417/145/329
f 323/15/330 417/145/330 415/146/330
f 409/147/331 323/15/331 415/146/331
f 319/10/332 413/149/332 407/148/332
f 413/149/333 321/1/333 411/150/333
f 411/150/334 320/2/334 409/147/334
f 264/44/295 383/151/295 262/42/295
f 343/152/295 384/153/295 383/151/295
f 342/154/295 385/95/295 384/153/295
f 233/11/335 343/152/335 264/44/335
f 353/12/336 342/154/336 343/152/336
f 354/155/295 341/98/295 342/154/295
f 270/53/337 386/156/337 268/52/337
f 346/157/338 387/158/338 386/156/338
f 345/159/339 388/93/339 387/158/339
f 262/42/340 346/157/340 270/53/340
f 383/151/341 345/159/341 346/157/341
f 384/153/342 344/96/342 345/159/342
f 276/61/343 389/160/343 274/60/343
f 349/161/344 390/162/344 389/160/344
f 348/163/345 391/92/345 390/162/345
f 268/52/346 349/161/346 276/61/346
f 386/156/347 348/163/347 349/161/347
f 388/93/348 348/163/348 387/158/348
f 274/60/349 392/164/349 280/65/349
f 389/160/350 393/165/350 392/164/350
f 390/162/351 394/86/351 393/165/351
f 294/84/352 395/166/352 283/71/352
f 352/167/353 396/168/353 395/166/353
f 351/169/354 397/91/354 396/168/354
f 283/71/355 398/170/355 286/75/355
f 395/166/356 399/171/356 398/170/356
f 396/168/357 400/90/357 399/171/357
f 286/75/358 401/172/358 289/79/358
f 398/170/359 402/173/359 401/172/359
f 399/171/360 403/88/360 402/173/360
f 289/79/361 404/174/361 292/83/361
f 401/172/362 405/175/362 404/174/362
f 402/173/363 406/89/363 405/175/363
f 280/65/364 352/167/364 294/84/364
f 392/164/365 351/169/365 352/167/365
f 393/165/366 350/87/366 351/169/366
f 379/176/367 306/177/367 305/99/367
f 378/178/368 382/179/368 379/176/368
f 377/32/369 381/180/369 378/178/369
f 376/181/370 305/99/370 304/102/370
f 375/182/371 379/176/371 376/181/371
f 375/182/372 377/32/372 378/178/372
f 373/183/373 304/102/373 303/104/373
f 372/184/374 376/181/374 373/183/374
f 371/24/375 375/182/375 372/184/375
f 370/185/376 303/104/376 302/106/376
f 369/186/377 373/183/377 370/185/377
f 368/21/378 372/184/378 369/186/378
f 367/187/379 302/106/379 301/108/379
f 366/188/380 370/185/380 367/187/380
f 365/17/381 369/186/381 366/188/381
f 358/189/382 301/108/382 298/110/382
f 357/190/383 367/187/383 358/189/383
f 356/14/384 366/188/384 357/190/384
f 361/191/385 298/110/385 299/116/385
f 360/192/386 358/189/386 361/191/386
f 359/8/387 357/190/387 360/192/387
f 297/45/388 364/193/388 300/115/388
f 355/97/389 363/194/389 364/193/389
f 353/12/390 363/194/390 354/155/390
f 300/115/391 361/191/391 299/116/391
f 363/194/392 361/191/392 364/193/392
f 362/7/393 360/192/393 363/194/393
f 238/13/394 410/195/394 235/16/394
f 412/196/395 409/147/395 410/195/395
f 241/6/396 412/196/396 238/13/396
f 414/197/397 411/150/397 412/196/397
f 233/11/398 414/197/398 241/6/398
f 408/43/399 413/149/399 414/197/399
f 235/16/400 416/198/400 244/20/400
f 410/195/401 415/146/401 416/198/401
f 244/20/402 418/200/402 247/199/402
f 415/146/403 418/200/403 416/198/403
f 418/200/404 250/25/404 247/199/404
f 417/145/405 420/201/405 418/200/405
f 420/201/406 253/31/406 250/25/406
f 419/144/407 422/202/407 420/201/407
f 422/202/408 256/35/408 253/31/408
f 421/143/409 424/203/409 422/202/409
f 424/203/410 259/204/410 256/35/410
f 423/141/411 426/205/411 424/203/411
f 335/129/295 450/206/295 340/119/295
f 433/207/295 449/69/295 450/206/295
f 338/124/295 441/208/295 339/122/295
f 439/209/295 442/82/295 441/208/295
f 337/126/295 439/209/295 338/124/295
f 437/210/295 440/78/295 439/209/295
f 336/127/295 437/210/295 337/126/295
f 435/211/295 438/74/295 437/210/295
f 340/119/295 435/211/295 336/127/295
f 450/206/295 436/70/295 435/211/295
f 333/133/295 433/207/295 335/129/295
f 431/212/295 434/64/295 433/207/295
f 331/137/295 448/213/295 334/132/295
f 429/214/295 447/58/295 448/213/295
f 334/132/295 431/212/295 333/133/295
f 448/213/295 432/59/295 431/212/295
f 329/140/295 446/215/295 332/136/295
f 427/216/295 445/50/295 446/215/295
f 332/136/295 429/214/295 331/137/295
f 446/215/295 430/51/295 429/214/295
f 319/10/295 444/217/295 330/139/295
f 407/148/412 443/40/412 444/217/412
f 330/139/295 427/216/295 329/140/295
f 444/217/295 428/41/295 427/216/295
f 339/122/413 459/219/413 455/218/413
f 293/81/414 454/220/414 317/80/414
f 406/89/415 457/221/415 405/175/415
f 291/121/413 455/218/413 451/222/413
f 441/208/413 460/223/413 459/219/413
f 404/174/415 452/224/415 292/83/415
f 317/80/415 458/225/415 406/89/415
f 442/82/413 452/224/413 460/223/413
f 405/175/415 456/226/415 404/174/415
f 321/1/416 237/227/416 236/3/416
f 242/4/417 237/227/417 321/1/417
f 241/6/418 238/13/418 359/8/418
f 232/9/419 242/4/419 322/5/419
f 233/11/420 241/6/420 362/7/420
f 238/13/421 235/16/421 356/14/421
f 236/3/422 245/18/422 323/15/422
f 235/16/423 244/20/423 365/17/423
f 245/18/424 248/22/424 324/19/424
f 244/20/425 247/199/425 368/21/425
f 248/22/426 251/26/426 325/23/426
f 368/21/427 247/199/427 250/25/427
f 251/26/428 254/29/428 326/27/428
f 250/25/429 253/31/429 374/28/429
f 254/29/430 257/33/430 327/30/430
f 253/31/431 256/35/431 377/32/431
f 257/33/432 260/228/432 328/34/432
f 256/35/433 259/204/433 380/36/433
f 308/37/434 265/46/434 263/39/434
f 443/40/295 264/44/295 262/42/295
f 408/43/435 233/11/435 264/44/435
f 297/45/436 234/113/436 265/46/436
f 310/47/437 271/54/437 269/49/437
f 445/50/295 270/53/295 268/52/295
f 428/41/295 262/42/295 270/53/295
f 307/38/438 263/39/438 271/54/438
f 277/55/439 275/229/439 311/57/439
f 447/58/295 276/61/295 274/60/295
f 430/51/295 268/52/295 276/61/295
f 269/49/440 277/55/440 312/56/440
f 311/57/441 275/229/441 281/63/441
f 432/59/295 274/60/295 280/65/295
f 318/66/442 295/85/442 284/68/442
f 449/69/295 294/84/295 283/71/295
f 314/67/443 284/68/443 287/73/443
f 436/70/295 283/71/295 286/75/295
f 315/72/444 287/73/444 290/77/444
f 438/74/295 286/75/295 289/79/295
f 316/76/445 290/77/445 293/81/445
f 440/78/295 289/79/295 292/83/295
f 434/64/295 280/65/295 294/84/295
f 313/62/446 281/63/446 295/85/446
f 394/86/447 313/62/447 318/66/447
f 403/88/448 316/76/448 317/80/448
f 400/90/449 315/72/449 316/76/449
f 397/91/450 314/67/450 315/72/450
f 350/87/451 318/66/451 314/67/451
f 391/92/452 311/57/452 313/62/452
f 309/48/453 312/56/453 347/94/453
f 347/94/300 312/56/300 311/57/300
f 385/95/454 307/38/454 310/47/454
f 344/96/455 310/47/455 309/48/455
f 355/97/295 297/45/295 308/37/295
f 341/98/295 308/37/295 307/38/295
f 305/99/456 306/177/456 258/101/456
f 304/102/457 305/99/457 255/100/457
f 303/104/458 304/102/458 252/103/458
f 302/106/459 303/104/459 249/105/459
f 301/108/460 302/106/460 246/107/460
f 298/110/461 301/108/461 243/109/461
f 239/112/462 299/116/462 298/110/462
f 234/113/295 297/45/295 300/115/295
f 240/114/463 300/115/463 299/116/463
f 279/117/295 335/129/295 340/119/295
f 288/120/295 338/124/295 339/122/295
f 285/123/295 337/126/295 338/124/295
f 282/125/295 336/127/295 337/126/295
f 296/118/295 340/119/295 336/127/295
f 273/128/295 333/133/295 335/129/295
f 267/130/295 331/137/295 334/132/295
f 278/131/295 334/132/295 333/133/295
f 261/134/295 329/140/295 332/136/295
f 272/135/295 332/136/295 331/137/295
f 232/9/295 319/10/295 330/139/295
f 266/138/295 330/139/295 329/140/295
f 327/30/464 328/34/464 425/142/464
f 326/27/465 327/30/465 423/141/465
f 325/23/466 326/27/466 421/143/466
f 324/19/467 325/23/467 419/144/467
f 323/15/468 324/19/468 417/145/468
f 409/147/469 320/2/469 323/15/469
f 319/10/470 322/5/470 413/149/470
f 413/149/471 322/5/471 321/1/471
f 411/150/472 321/1/472 320/2/472
f 264/44/295 343/152/295 383/151/295
f 343/152/295 342/154/295 384/153/295
f 342/154/295 341/98/295 385/95/295
f 233/11/473 353/12/473 343/152/473
f 353/12/474 354/155/474 342/154/474
f 354/155/295 355/97/295 341/98/295
f 270/53/475 346/157/475 386/156/475
f 346/157/476 345/159/476 387/158/476
f 345/159/477 344/96/477 388/93/477
f 262/42/478 383/151/478 346/157/478
f 383/151/479 384/153/479 345/159/479
f 384/153/480 385/95/480 344/96/480
f 276/61/481 349/161/481 389/160/481
f 349/161/482 348/163/482 390/162/482
f 348/163/483 347/94/483 391/92/483
f 268/52/484 386/156/484 349/161/484
f 386/156/348 387/158/348 348/163/348
f 388/93/485 347/94/485 348/163/485
f 274/60/486 389/160/486 392/164/486
f 389/160/487 390/162/487 393/165/487
f 390/162/488 391/92/488 394/86/488
f 294/84/489 352/167/489 395/166/489
f 352/167/490 351/169/490 396/168/490
f 351/169/491 350/87/491 397/91/491
f 283/71/492 395/166/492 398/170/492
f 395/166/493 396/168/493 399/171/493
f 396/168/494 397/91/494 400/90/494
f 286/75/495 398/170/495 401/172/495
f 398/170/496 399/171/496 402/173/496
f 399/171/497 400/90/497 403/88/497
f 289/79/498 401/172/498 404/174/498
f 401/172/499 402/173/499 405/175/499
f 402/173/500 403/88/500 406/89/500
f 280/65/501 392/164/501 352/167/501
f 392/164/502 393/165/502 351/169/502
f 393/165/503 394/86/503 350/87/503
f 379/176/504 382/179/504 306/177/504
f 378/178/505 381/180/505 382/179/505
f 377/32/506 380/36/506 381/180/506
f 376/181/507 379/176/507 305/99/507
f 375/182/508 378/178/508 379/176/508
f 375/182/509 374/28/509 377/32/509
f 373/183/510 376/181/510 304/102/510
f 372/184/511 375/182/511 376/181/511
f 371/24/512 374/28/512 375/182/512
f 370/185/513 373/183/513 303/104/513
f 369/186/514 372/184/514 373/183/514
f 368/21/515 371/24/515 372/184/515
f 367/187/516 370/185/516 302/106/516
f 366/188/517 369/186/517 370/185/517
f 365/17/518 368/21/518 369/186/518
f 358/189/519 367/187/519 301/108/519
f 357/190/520 366/188/520 367/187/520
f 356/14/521 365/17/521 366/188/521
f 361/191/522 358/189/522 298/110/522
f 360/192/523 357/190/523 358/189/523
f 359/8/524 356/14/524 357/190/524
f 297/45/525 355/97/525 364/193/525
f 355/97/526 354/155/526 363/194/526
f 353/12/527 362/7/527 363/194/527
f 300/115/528 364/193/528 361/191/528
f 363/194/529 360/192/529 361/191/529
f 362/7/530 359/8/530 360/192/530
f 238/13/531 412/196/531 410/195/531
f 412/196/532 411/150/532 409/147/532
f 241/6/533 414/197/533 412/196/533
f 414/197/534 413/149/534 411/150/534
f 233/11/535 408/43/535 414/197/535
f 408/43/536 407/148/536 413/149/536
f 235/16/537 410/195/537 416/198/537
f 410/195/538 409/147/538 415/146/538
f 244/20/539 416/198/539 418/200/539
f 415/146/540 417/145/540 418/200/540
f 418/200/541 420/201/541 250/25/541
f 417/145/542 419/144/542 420/201/542
f 420/201/543 422/202/543 253/31/543
f 419/144/544 421/143/544 422/202/544
f 422/202/545 424/203/545 256/35/545
f 421/143/546 423/141/546 424/203/546
f 424/203/547 426/205/547 259/204/547
f 423/141/548 425/142/548 426/205/548
f 335/129/295 433/207/295 450/206/295
f 433/207/295 434/64/295 449/69/295
f 338/124/295 439/209/295 441/208/295
f 439/209/295 440/78/295 442/82/295
f 337/126/295 437/210/295 439/209/295
f 437/210/295 438/74/295 440/78/295
f 336/127/295 435/211/295 437/210/295
f 435/211/295 436/70/295 438/74/295
f 340/119/295 450/206/295 435/211/295
f 450/206/295 449/69/295 436/70/295
f 333/133/295 431/212/295 433/207/295
f 431/212/295 432/59/295 434/64/295
f 331/137/295 429/214/295 448/213/295
f 429/214/295 430/51/295 447/58/295
f 334/132/295 448/213/295 431/212/295
f 448/213/295 447/58/295 432/59/295
f 329/140/295 427/216/295 446/215/295
f 427/216/295 428/41/295 445/50/295
f 332/136/295 446/215/295 429/214/295
f 446/215/295 445/50/295 430/51/295
f 319/10/549 407/148/549 444/217/549
f 407/148/550 408/43/550 443/40/550
f 330/139/295 444/217/295 427/216/295
f 444/217/295 443/40/295 428/41/295
f 339/122/413 441/208/413 459/219/413
f 293/81/414 453/230/414 454/220/414
f 406/89/415 458/225/415 457/221/415
f 291/121/413 339/122/413 455/218/413
f 441/208/413 442/82/413 460/223/413
f 404/174/415 456/226/415 452/224/415
f 317/80/415 454/220/415 458/225/415
f 442/82/413 292/83/413 452/224/413
f 405/175/415 457/221/415 456/226/415
f 195/142/551 426/205/551 425/142/551
f 35/46/552 234/113/552 4/113/552
f 6/3/553 237/227/553 7/227/553
f 51/63/554 275/229/554 45/229/554
f 36/138/555 261/134/555 31/134/555
f 30/228/551 328/34/551 260/228/551
f 43/128/556 279/117/556 49/117/556
f 221/222/557 291/121/557 451/222/557
f 21/26/558 248/22/558 18/22/558
f 16/107/559 249/105/559 19/105/559
f 54/68/560 295/85/560 65/85/560
f 49/117/561 296/118/561 66/118/561
f 41/54/562 269/49/562 271/54/562
f 10/114/563 239/112/563 9/112/563
f 31/134/564 272/135/564 42/135/564
f 24/29/565 251/26/565 21/26/565
f 7/227/566 242/4/566 12/4/566
f 19/105/559 252/103/559 22/103/559
f 33/39/567 271/54/567 263/39/567
f 12/4/568 232/9/568 2/9/568
f 152/179/551 306/177/551 382/179/551
f 57/73/569 284/68/569 54/68/569
f 42/135/570 267/130/570 37/130/570
f 52/125/571 285/123/571 55/123/571
f 27/33/572 254/29/572 24/29/572
f 22/103/559 255/100/559 25/100/559
f 230/223/573 452/224/573 222/224/573
f 4/113/574 240/114/574 10/114/574
f 76/177/551 258/101/551 306/177/551
f 223/230/573 454/220/573 453/230/573
f 9/112/575 231/111/575 1/111/575
f 60/77/576 287/73/576 57/73/576
f 196/205/551 259/204/551 426/205/551
f 224/220/573 458/225/573 454/220/573
f 55/123/577 288/120/577 58/120/577
f 47/55/578 275/229/578 277/55/578
f 221/222/573 455/218/573 225/218/573
f 37/130/579 278/131/579 48/131/579
f 30/228/580 257/33/580 27/33/580
f 226/226/573 452/224/573 456/226/573
f 25/100/559 258/101/559 28/101/559
f 227/221/573 456/226/573 457/221/573
f 15/18/581 236/3/581 6/3/581
f 39/49/582 277/55/582 269/49/582
f 228/225/573 457/221/573 458/225/573
f 1/111/583 243/109/583 13/109/583
f 63/81/584 290/77/584 60/77/584
f 48/131/585 273/128/585 43/128/585
f 225/218/573 459/219/573 229/219/573
f 58/120/586 291/121/586 61/121/586
f 29/204/551 380/36/551 259/204/551
f 229/219/573 460/223/573 230/223/573
f 150/36/551 381/180/551 380/36/551
f 33/39/552 265/46/552 35/46/552
f 65/85/560 281/63/560 51/63/560
f 151/180/551 382/179/551 381/180/551
f 2/9/587 266/138/587 36/138/587
f 18/22/588 245/18/588 15/18/588
f 66/118/561 282/125/561 52/125/561
f 98/34/551 425/142/551 328/34/551
f 223/230/589 293/81/589 63/81/589
f 13/109/559 246/107/559 16/107/559
f 195/142/551 196/205/551 426/205/551
f 35/46/552 265/46/552 234/113/552
f 6/3/553 236/3/553 237/227/553
f 51/63/554 281/63/554 275/229/554
f 36/138/555 266/138/555 261/134/555
f 30/228/551 98/34/551 328/34/551
f 43/128/556 273/128/556 279/117/556
f 221/222/557 61/121/557 291/121/557
f 21/26/558 251/26/558 248/22/558
f 16/107/559 246/107/559 249/105/559
f 54/68/560 284/68/560 295/85/560
f 49/117/561 279/117/561 296/118/561
f 41/54/562 39/49/562 269/49/562
f 10/114/563 240/114/563 239/112/563
f 31/134/564 261/134/564 272/135/564
f 24/29/565 254/29/565 251/26/565
f 7/227/566 237/227/566 242/4/566
f 19/105/559 249/105/559 252/103/559
f 33/39/567 41/54/567 271/54/567
f 12/4/568 242/4/568 232/9/568
f 152/179/551 76/177/551 306/177/551
f 57/73/569 287/73/569 284/68/569
f 42/135/570 272/135/570 267/130/570
f 52/125/571 282/125/571 285/123/571
f 27/33/572 257/33/572 254/29/572
f 22/103/559 252/103/559 255/100/559
f 230/223/573 460/223/573 452/224/573
f 4/113/574 234/113/574 240/114/574
f 76/177/551 28/101/551 258/101/551
f 223/230/573 224/220/573 454/220/573
f 9/112/575 239/112/575 231/111/575
f 60/77/576 290/77/576 287/73/576
f 196/205/551 29/204/551 259/204/551
f 224/220/573 228/225/573 458/225/573
f 55/123/577 285/123/577 288/120/577
f 47/55/578 45/229/578 275/229/578
f 221/222/573 451/222/573 455/218/573
f 37/130/579 267/130/579 278/131/579
f 30/228/580 260/228/580 257/33/580
f 226/226/573 222/224/573 452/224/573
f 25/100/559 255/100/559 258/101/559
f 227/221/573 226/226/573 456/226/573
f 15/18/581 245/18/581 236/3/581
f 39/49/582 47/55/582 277/55/582
f 228/225/573 227/221/573 457/221/573
f 1/111/583 231/111/583 243/109/583
f 63/81/584 293/81/584 290/77/584
f 48/131/585 278/131/585 273/128/585
f 225/218/573 455/218/573 459/219/573
f 58/120/586 288/120/586 291/121/586
f 29/204/551 150/36/551 380/36/551
f 229/219/573 459/219/573 460/223/573
f 150/36/551 151/180/551 381/180/551
f 33/39/552 263/39/552 265/46/552
f 65/85/560 295/85/560 281/63/560
f 151/180/551 152/179/551 382/179/551
f 2/9/587 232/9/587 266/138/587
f 18/22/588 248/22/588 245/18/588
f 66/118/561 296/118/561 282/125/561
f 98/34/551 195/142/551 425/142/551
f 223/230/589 453/230/589 293/81/589
f 13/109/559 243/109/559 246/107/559
