# Blender 4.1.0
# www.blender.org
mtllib Sign.mtl
o Sign.001
v 0.528179 0.053192 0.643520
v 0.534136 -0.006298 0.644681
v 0.660467 0.065051 0.572700
v 0.666424 0.005561 0.573861
v 0.529714 0.053402 0.646422
v 0.535671 -0.006087 0.647583
v 0.662002 0.065261 0.575602
v 0.667959 0.005772 0.576763
vn -0.8343 0.4920 -0.2489
vn 0.2956 -0.5658 -0.7697
vn -0.7193 -0.6568 -0.2265
vn 0.1806 0.5829 -0.7922
vn -0.2956 0.5658 0.7697
vn -0.1806 -0.5830 0.7922
vn 0.8343 -0.4920 0.2489
vn 0.7193 0.6568 0.2265
vt 0.411120 0.149590
vt 0.006715 0.263260
vt 0.413354 0.262625
vt 0.004481 0.150225
s 1
usemtl Material.007
f 1/1/1 4/2/2 2/3/3
f 4/2/2 1/1/1 3/4/4
f 5/1/5 6/3/6 8/2/7
f 8/2/7 7/4/8 5/1/5
f 1/1/1 7/4/8 3/4/4
f 2/3/3 5/1/5 1/1/1
f 3/4/4 8/2/7 4/2/2
f 2/3/3 8/2/7 6/3/6
f 1/1/1 5/1/5 7/4/8
f 2/3/3 6/3/6 5/1/5
f 3/4/4 7/4/8 8/2/7
f 2/3/3 4/2/2 8/2/7
