# Blender 4.1.0
# www.blender.org
mtllib Flooring.mtl
o Plane.001
v -1.235860 -0.463373 1.235860
v 1.235860 -0.463373 1.235860
v -1.235860 -0.463373 -1.235860
v 1.235860 -0.463373 -1.235860
v -1.235860 -0.463373 -1.235860
v -1.235860 -0.463373 1.235860
v 1.235860 -0.463373 1.235860
v 1.235860 -0.463373 -1.235860
v -1.235860 -0.544333 -1.235860
v -1.235860 -0.544333 1.235860
v 1.235860 -0.544333 1.235860
v 1.235860 -0.544333 -1.235860
vn -0.0000 -1.0000 -0.0000
vn -0.0000 -0.0000 1.0000
vn -0.0000 1.0000 -0.0000
vn -0.0000 -0.0000 -1.0000
vn -1.0000 -0.0000 -0.0000
vn 1.0000 -0.0000 -0.0000
vt 0.500000 0.500000
vt 0.000000 0.000000
vt 0.500000 0.000000
vt 0.500000 -0.000000
vt 0.516377 0.500000
vt 0.500000 0.500000
vt 0.516377 1.000000
vt 0.500000 0.500000
vt 0.000000 1.000000
vt 0.000000 0.500000
vt 0.500000 0.500000
vt 0.516377 1.000000
vt 0.500000 1.000000
vt 0.516377 -0.000000
vt 0.532755 0.500000
vt 0.516377 0.500000
vt 0.532755 1.000000
vt 0.000000 0.500000
vt 0.516377 -0.000000
vt 0.500000 1.000000
vt 0.532755 -0.000000
vt 0.532755 0.500000
s 0
usemtl Floor
f 3/1/1 2/2/1 1/3/1
f 5/4/2 12/5/2 8/6/2
f 3/7/3 8/7/3 4/7/3
f 2/7/3 6/7/3 1/7/3
f 4/7/3 7/7/3 2/7/3
f 1/7/3 5/7/3 3/7/3
f 11/8/3 9/9/3 10/10/3
f 7/11/4 10/12/4 6/13/4
f 8/14/5 11/15/5 7/5/5
f 6/16/6 9/17/6 5/7/6
f 3/1/1 4/18/1 2/2/1
f 5/4/2 9/19/2 12/5/2
f 3/7/3 5/7/3 8/7/3
f 2/7/3 7/7/3 6/7/3
f 4/7/3 8/7/3 7/7/3
f 1/7/3 6/7/3 5/7/3
f 11/8/3 12/20/3 9/9/3
f 7/11/4 11/16/4 10/12/4
f 8/14/5 12/21/5 11/15/5
f 6/16/6 10/22/6 9/17/6
