# Blender 4.1.0
# www.blender.org
mtllib Flooring2.mtl
o Plane.002
v -3.482315 -0.759535 -1.018617
v 3.482315 -0.759535 -1.018617
v -3.482315 -0.759535 1.581613
v 3.482315 -0.759535 1.581613
v -3.482315 -0.759535 0.281498
v 0.000000 -0.759535 -1.018617
v 3.482315 -0.759535 0.281498
v 0.000000 -0.759535 1.581613
v 0.000000 -0.759535 0.281498
v -3.482315 -0.759535 -0.368560
v 1.741158 -0.759535 -1.018617
v 3.482315 -0.759535 0.931555
v -1.741158 -0.759535 1.581613
v -3.482315 -0.759535 0.931555
v -1.741158 -0.759535 -1.018617
v 3.482315 -0.759535 -0.368560
v 1.741158 -0.759535 1.581613
v 0.000000 -0.759535 0.931555
v 0.000000 -0.759535 -0.368560
v -1.741158 -0.759535 0.281498
v 1.741158 -0.759535 0.281498
v 1.741158 -0.759535 -0.368560
v -1.741158 -0.759535 -0.368560
v -1.741158 -0.759535 0.931555
v 1.741158 -0.759535 0.931555
v -3.482315 -0.833841 -0.368560
v -3.482315 -0.833841 -1.018617
v 1.741158 -0.833841 -1.018617
v 3.482315 -0.833841 -1.018617
v 3.482315 -0.833841 0.931555
v 3.482315 -0.833841 1.581613
v -1.741158 -0.833841 1.581613
v -3.482315 -0.833841 1.581613
v -3.482315 -0.833841 0.931555
v -3.482315 -0.833841 0.281498
v -1.741158 -0.833841 -1.018617
v 0.000000 -0.833841 -1.018617
v 3.482315 -0.833841 -0.368560
v 3.482315 -0.833841 0.281498
v 1.741158 -0.833841 1.581613
v 0.000000 -0.833841 1.581613
v 0.000000 -0.833841 0.931555
v 0.000000 -0.833841 -0.368560
v 0.000000 -0.833841 0.281498
v -1.741158 -0.833841 0.281498
v 1.741158 -0.833841 0.281498
v 1.741158 -0.833841 -0.368560
v -1.741158 -0.833841 -0.368560
v -1.741158 -0.833841 0.931555
v 1.741158 -0.833841 0.931555
vn -0.0000 1.0000 -0.0000
vn -0.0000 -1.0000 -0.0000
vn -0.0000 -0.0000 -1.0000
vn 1.0000 -0.0000 -0.0000
vn -0.0000 -0.0000 1.0000
vn -1.0000 -0.0000 -0.0000
vt 0.093337 0.000000
vt 0.093337 0.250000
vt 0.000000 0.250000
vt 0.093337 0.500000
vt 0.093337 0.750000
vt 0.000000 0.750000
vt 0.280011 0.500000
vt 0.280011 0.750000
vt 0.186674 0.750000
vt 0.280011 0.000000
vt 0.280011 0.250000
vt 0.186674 0.250000
vt 0.186674 0.500000
vt 0.373348 0.250000
vt 0.373348 0.500000
vt 0.373348 0.000000
vt 0.280011 1.000000
vt 0.186674 1.000000
vt 0.373348 0.750000
vt 0.373348 1.000000
vt 0.093337 1.000000
vt -0.000000 1.000000
vt 0.000000 0.500000
vt 0.186674 0.000000
vt 0.000000 0.000000
vt 0.466685 1.000000
vt 0.373348 0.750000
vt 0.466685 0.750000
vt 0.466685 0.500000
vt 0.373348 0.250000
vt 0.466685 0.250000
vt 0.653359 0.500000
vt 0.560022 0.250000
vt 0.653359 0.250000
vt 0.653359 1.000000
vt 0.560022 0.750000
vt 0.653359 0.750000
vt 0.560022 0.500000
vt 0.746696 0.750000
vt 0.746696 0.500000
vt 0.746696 1.000000
vt 0.560022 0.000000
vt 0.653359 0.000000
vt 0.746696 0.250000
vt 0.746696 0.000000
vt 0.373348 0.000000
vt 0.466685 0.000000
vt 0.373348 0.500000
vt 0.560022 1.000000
vt 0.373348 1.000000
vt 0.746696 0.500000
vt 0.757365 0.750000
vt 0.746696 0.750000
vt 0.746696 0.250000
vt 0.757365 0.500000
vt 0.778703 0.186674
vt 0.768034 0.093337
vt 0.778703 0.093337
vt 0.778703 0.280011
vt 0.768034 0.186674
vt 0.757365 0.500000
vt 0.768034 0.750000
vt 0.757365 0.750000
vt 0.768034 0.373348
vt 0.778703 0.466685
vt 0.768034 0.466685
vt 0.757365 0.250000
vt 0.768034 0.500000
vt 0.746696 0.000000
vt 0.757365 0.250000
vt 0.768034 0.653359
vt 0.778703 0.746696
vt 0.768034 0.746696
vt 0.778703 0.373348
vt 0.768034 0.280011
vt 0.757365 1.000000
vt 0.757365 0.000000
vt 0.768034 0.250000
vt 0.768034 0.000000
vt 0.778703 0.000000
vt 0.768034 0.560022
vt 0.778703 0.653359
vt 0.768034 1.000000
vt 0.757365 1.000000
vt 0.778703 0.560022
vt 0.778703 0.373348
vt 0.757365 0.000000
vt 0.768034 0.373348
vt 0.768034 0.000000
s 0
usemtl Material.010
f 12/1/1 25/2/1 17/3/1
f 18/4/1 24/5/1 13/6/1
f 19/7/1 23/8/1 20/9/1
f 16/10/1 22/11/1 21/12/1
f 22/11/1 19/7/1 9/13/1
f 11/14/1 6/15/1 19/7/1
f 2/16/1 11/14/1 22/11/1
f 23/8/1 10/17/1 5/18/1
f 15/19/1 1/20/1 10/17/1
f 6/15/1 15/19/1 23/8/1
f 24/5/1 14/21/1 3/22/1
f 20/9/1 5/18/1 14/21/1
f 9/13/1 20/9/1 24/5/1
f 25/2/1 18/4/1 8/23/1
f 21/12/1 9/13/1 18/4/1
f 7/24/1 21/12/1 25/2/1
f 12/1/1 17/3/1 4/25/1
f 18/4/1 13/6/1 8/23/1
f 19/7/1 20/9/1 9/13/1
f 16/10/1 21/12/1 7/24/1
f 22/11/1 9/13/1 21/12/1
f 11/14/1 19/7/1 22/11/1
f 2/16/1 22/11/1 16/10/1
f 23/8/1 5/18/1 20/9/1
f 15/19/1 10/17/1 23/8/1
f 6/15/1 23/8/1 19/7/1
f 24/5/1 3/22/1 13/6/1
f 20/9/1 14/21/1 24/5/1
f 9/13/1 24/5/1 18/4/1
f 25/2/1 8/23/1 17/3/1
f 21/12/1 18/4/1 25/2/1
f 7/24/1 25/2/1 12/1/1
f 30/26/2 40/27/2 50/28/2
f 42/29/2 32/30/2 49/31/2
f 43/32/2 45/33/2 48/34/2
f 38/35/2 46/36/2 47/37/2
f 47/37/2 44/38/2 43/32/2
f 28/39/2 43/32/2 37/40/2
f 29/41/2 47/37/2 28/39/2
f 48/34/2 35/42/2 26/43/2
f 36/44/2 26/43/2 27/45/2
f 37/40/2 48/34/2 36/44/2
f 49/31/2 33/46/2 34/47/2
f 45/33/2 34/47/2 35/42/2
f 44/38/2 49/31/2 45/33/2
f 50/28/2 41/48/2 42/29/2
f 46/36/2 42/29/2 44/38/2
f 39/49/2 50/28/2 46/36/2
f 30/26/2 31/50/2 40/27/2
f 42/29/2 41/48/2 32/30/2
f 43/32/2 44/38/2 45/33/2
f 38/35/2 39/49/2 46/36/2
f 47/37/2 46/36/2 44/38/2
f 28/39/2 47/37/2 43/32/2
f 29/41/2 38/35/2 47/37/2
f 48/34/2 45/33/2 35/42/2
f 36/44/2 48/34/2 26/43/2
f 37/40/2 43/32/2 48/34/2
f 49/31/2 32/30/2 33/46/2
f 45/33/2 49/31/2 34/47/2
f 44/38/2 42/29/2 49/31/2
f 50/28/2 40/27/2 41/48/2
f 46/36/2 50/28/2 42/29/2
f 39/49/2 30/26/2 50/28/2
f 6/51/3 36/52/3 15/53/3
f 11/54/3 37/55/3 6/51/3
f 7/56/4 38/57/4 16/58/4
f 12/59/4 39/60/4 7/56/4
f 8/61/5 40/62/5 17/63/5
f 1/64/6 26/65/6 10/66/6
f 13/67/5 41/68/5 8/61/5
f 2/69/3 28/70/3 11/54/3
f 14/71/6 33/72/6 3/73/6
f 4/74/4 30/75/4 12/59/4
f 15/53/3 27/76/3 1/41/3
f 3/77/5 32/78/5 13/67/5
f 16/58/4 29/79/4 2/80/4
f 5/81/6 34/82/6 14/71/6
f 17/63/5 31/83/5 4/84/5
f 10/66/6 35/85/6 5/81/6
f 6/51/3 37/55/3 36/52/3
f 11/54/3 28/70/3 37/55/3
f 7/56/4 39/60/4 38/57/4
f 12/59/4 30/75/4 39/60/4
f 8/61/5 41/68/5 40/62/5
f 1/64/6 27/86/6 26/65/6
f 13/67/5 32/78/5 41/68/5
f 2/69/3 29/87/3 28/70/3
f 14/71/6 34/82/6 33/72/6
f 4/74/4 31/88/4 30/75/4
f 15/53/3 36/52/3 27/76/3
f 3/77/5 33/89/5 32/78/5
f 16/58/4 38/57/4 29/79/4
f 5/81/6 35/85/6 34/82/6
f 17/63/5 40/62/5 31/83/5
f 10/66/6 26/65/6 35/85/6
