# Blender 4.1.0
# www.blender.org
mtllib BackgroundPost.mtl
o Cylinder.010
v -0.036002 -0.037598 0.971991
v -0.035727 -0.013706 0.971988
v -0.032781 -0.013715 0.972571
v -0.032724 -0.013715 0.971985
v -0.032951 -0.013714 0.973134
v -0.033228 -0.013714 0.973654
v -0.033601 -0.013712 0.974109
v -0.034056 -0.013711 0.974483
v -0.034575 -0.013709 0.974761
v -0.035138 -0.013707 0.974932
v -0.035724 -0.013706 0.974991
v -0.036310 -0.013704 0.974934
v -0.036874 -0.013702 0.974763
v -0.037394 -0.013700 0.974486
v -0.037849 -0.013699 0.974113
v -0.038223 -0.013698 0.973659
v -0.038501 -0.013697 0.973140
v -0.038673 -0.013696 0.972577
v -0.038731 -0.013696 0.971991
v -0.038674 -0.013696 0.971405
v -0.038504 -0.013697 0.970842
v -0.038226 -0.013698 0.970322
v -0.037853 -0.013699 0.969867
v -0.037399 -0.013700 0.969493
v -0.036880 -0.013702 0.969215
v -0.036316 -0.013704 0.969044
v -0.035730 -0.013706 0.968985
v -0.035144 -0.013707 0.969042
v -0.034581 -0.013709 0.969213
v -0.034061 -0.013711 0.969490
v -0.033605 -0.013712 0.969863
v -0.033232 -0.013714 0.970317
v -0.032953 -0.013714 0.970836
v -0.032782 -0.013715 0.971399
v -0.032998 -0.037607 0.971988
v -0.033055 -0.037607 0.972574
v -0.033226 -0.037606 0.973137
v -0.033503 -0.037605 0.973656
v -0.033876 -0.037604 0.974112
v -0.034331 -0.037603 0.974486
v -0.034850 -0.037601 0.974764
v -0.035413 -0.037599 0.974935
v -0.035999 -0.037597 0.974993
v -0.036585 -0.037596 0.974936
v -0.037149 -0.037594 0.974766
v -0.037668 -0.037592 0.974489
v -0.038124 -0.037591 0.974116
v -0.038498 -0.037590 0.973661
v -0.038776 -0.037589 0.973143
v -0.038947 -0.037588 0.972579
v -0.039006 -0.037588 0.971994
v -0.038948 -0.037588 0.971408
v -0.038778 -0.037589 0.970844
v -0.038501 -0.037590 0.970325
v -0.038128 -0.037591 0.969870
v -0.037673 -0.037592 0.969496
v -0.037154 -0.037594 0.969218
v -0.036591 -0.037596 0.969046
v -0.036005 -0.037598 0.968988
v -0.035419 -0.037599 0.969045
v -0.034855 -0.037601 0.969216
v -0.034336 -0.037603 0.969492
v -0.033880 -0.037604 0.969865
v -0.033506 -0.037605 0.970320
v -0.033228 -0.037606 0.970839
v -0.033057 -0.037607 0.971402
v 0.273002 -0.068758 0.941099
v 0.273431 -0.023756 0.941095
v 0.277685 -0.023769 0.941937
v 0.277767 -0.023770 0.941091
v 0.277439 -0.023769 0.942750
v 0.277039 -0.023767 0.943500
v 0.276500 -0.023766 0.944157
v 0.275844 -0.023764 0.944697
v 0.275094 -0.023761 0.945098
v 0.274281 -0.023759 0.945346
v 0.273436 -0.023756 0.945430
v 0.272590 -0.023753 0.945347
v 0.271776 -0.023751 0.945101
v 0.271026 -0.023748 0.944702
v 0.270368 -0.023746 0.944163
v 0.269829 -0.023745 0.943507
v 0.269427 -0.023743 0.942758
v 0.269180 -0.023743 0.941945
v 0.269096 -0.023742 0.941100
v 0.269178 -0.023743 0.940254
v 0.269424 -0.023743 0.939441
v 0.269824 -0.023745 0.938691
v 0.270362 -0.023746 0.938034
v 0.271019 -0.023748 0.937494
v 0.271768 -0.023751 0.937093
v 0.272581 -0.023753 0.936845
v 0.273427 -0.023756 0.936761
v 0.274273 -0.023759 0.936844
v 0.275087 -0.023761 0.937090
v 0.275837 -0.023764 0.937489
v 0.276494 -0.023766 0.938028
v 0.277034 -0.023767 0.938684
v 0.277435 -0.023769 0.939433
v 0.277683 -0.023769 0.940246
v 0.277337 -0.068772 0.941095
v 0.277255 -0.068771 0.941941
v 0.277009 -0.068771 0.942754
v 0.276609 -0.068769 0.943504
v 0.276070 -0.068768 0.944161
v 0.275414 -0.068766 0.944701
v 0.274665 -0.068763 0.945102
v 0.273852 -0.068761 0.945350
v 0.273006 -0.068758 0.945434
v 0.272160 -0.068755 0.945351
v 0.271346 -0.068753 0.945105
v 0.270596 -0.068750 0.944706
v 0.269939 -0.068748 0.944167
v 0.269399 -0.068746 0.943511
v 0.268998 -0.068745 0.942762
v 0.268750 -0.068744 0.941949
v 0.268666 -0.068744 0.941104
v 0.268748 -0.068744 0.940258
v 0.268994 -0.068745 0.939445
v 0.269394 -0.068747 0.938695
v 0.269933 -0.068748 0.938038
v 0.270589 -0.068750 0.937498
v 0.271338 -0.068753 0.937097
v 0.272152 -0.068755 0.936849
v 0.272997 -0.068758 0.936765
v 0.273843 -0.068761 0.936848
v 0.274657 -0.068763 0.937093
v 0.275407 -0.068766 0.937493
v 0.276064 -0.068768 0.938032
v 0.276604 -0.068769 0.938688
v 0.277006 -0.068771 0.939437
v 0.277253 -0.068771 0.940250
v 0.191397 -0.067287 0.971437
v 0.191826 -0.022286 0.971433
v 0.196080 -0.022299 0.972275
v 0.196162 -0.022299 0.971429
v 0.195834 -0.022298 0.973088
v 0.195434 -0.022297 0.973838
v 0.194895 -0.022295 0.974495
v 0.194239 -0.022293 0.975035
v 0.193489 -0.022291 0.975436
v 0.192676 -0.022288 0.975683
v 0.191831 -0.022286 0.975767
v 0.190985 -0.022283 0.975685
v 0.190171 -0.022280 0.975439
v 0.189421 -0.022278 0.975039
v 0.188763 -0.022276 0.974501
v 0.188224 -0.022274 0.973845
v 0.187822 -0.022273 0.973096
v 0.187575 -0.022272 0.972283
v 0.187491 -0.022272 0.971438
v 0.187573 -0.022272 0.970592
v 0.187819 -0.022273 0.969779
v 0.188219 -0.022274 0.969029
v 0.188757 -0.022276 0.968372
v 0.189414 -0.022278 0.967832
v 0.190163 -0.022280 0.967431
v 0.190976 -0.022283 0.967183
v 0.191822 -0.022286 0.967099
v 0.192668 -0.022288 0.967181
v 0.193482 -0.022291 0.967427
v 0.194232 -0.022293 0.967827
v 0.194889 -0.022295 0.968365
v 0.195429 -0.022297 0.969022
v 0.195830 -0.022298 0.969771
v 0.196078 -0.022299 0.970583
v 0.195732 -0.067301 0.971433
v 0.195650 -0.067301 0.972279
v 0.195404 -0.067300 0.973092
v 0.195004 -0.067299 0.973842
v 0.194466 -0.067297 0.974499
v 0.193809 -0.067295 0.975039
v 0.193060 -0.067293 0.975440
v 0.192247 -0.067290 0.975687
v 0.191401 -0.067287 0.975771
v 0.190555 -0.067285 0.975689
v 0.189741 -0.067282 0.975443
v 0.188991 -0.067280 0.975043
v 0.188334 -0.067278 0.974505
v 0.187794 -0.067276 0.973849
v 0.187393 -0.067275 0.973100
v 0.187145 -0.067274 0.972287
v 0.187061 -0.067274 0.971442
v 0.187143 -0.067274 0.970596
v 0.187389 -0.067275 0.969783
v 0.187789 -0.067276 0.969033
v 0.188328 -0.067278 0.968376
v 0.188984 -0.067280 0.967836
v 0.189733 -0.067282 0.967435
v 0.190547 -0.067285 0.967187
v 0.191392 -0.067287 0.967103
v 0.192238 -0.067290 0.967185
v 0.193052 -0.067293 0.967431
v 0.193802 -0.067295 0.967831
v 0.194459 -0.067297 0.968369
v 0.194999 -0.067299 0.969026
v 0.195401 -0.067300 0.969775
v 0.195648 -0.067301 0.970587
v 0.115827 -0.058741 0.967900
v 0.116224 -0.024253 0.967896
v 0.120477 -0.024267 0.968738
v 0.120560 -0.024267 0.967892
v 0.120231 -0.024266 0.969551
v 0.119831 -0.024265 0.970301
v 0.119293 -0.024263 0.970958
v 0.118636 -0.024261 0.971498
v 0.117887 -0.024259 0.971899
v 0.117074 -0.024256 0.972146
v 0.116228 -0.024253 0.972230
v 0.115382 -0.024251 0.972148
v 0.114569 -0.024248 0.971902
v 0.113819 -0.024246 0.971502
v 0.113161 -0.024244 0.970964
v 0.112621 -0.024242 0.970308
v 0.112220 -0.024241 0.969559
v 0.111972 -0.024240 0.968746
v 0.111888 -0.024240 0.967900
v 0.111971 -0.024240 0.967055
v 0.112216 -0.024241 0.966242
v 0.112616 -0.024242 0.965492
v 0.113155 -0.024244 0.964834
v 0.113811 -0.024246 0.964295
v 0.114561 -0.024248 0.963894
v 0.115374 -0.024251 0.963646
v 0.116220 -0.024253 0.963562
v 0.117066 -0.024256 0.963644
v 0.117879 -0.024259 0.963890
v 0.118629 -0.024261 0.964290
v 0.119287 -0.024263 0.964828
v 0.119827 -0.024265 0.965485
v 0.120228 -0.024266 0.966234
v 0.120475 -0.024267 0.967046
v 0.120163 -0.058755 0.967896
v 0.120081 -0.058754 0.968741
v 0.119835 -0.058754 0.969555
v 0.119435 -0.058752 0.970304
v 0.118896 -0.058751 0.970962
v 0.118240 -0.058748 0.971501
v 0.117491 -0.058746 0.971903
v 0.116678 -0.058744 0.972150
v 0.115832 -0.058741 0.972234
v 0.114986 -0.058738 0.972152
v 0.114172 -0.058736 0.971906
v 0.113422 -0.058733 0.971506
v 0.112765 -0.058731 0.970968
v 0.112225 -0.058729 0.970312
v 0.111823 -0.058728 0.969563
v 0.111576 -0.058727 0.968750
v 0.111492 -0.058727 0.967904
v 0.111574 -0.058727 0.967059
v 0.111820 -0.058728 0.966245
v 0.112220 -0.058729 0.965496
v 0.112759 -0.058731 0.964838
v 0.113415 -0.058733 0.964299
v 0.114164 -0.058736 0.963897
v 0.114977 -0.058738 0.963650
v 0.115823 -0.058741 0.963566
v 0.116669 -0.058744 0.963648
v 0.117483 -0.058746 0.963894
v 0.118233 -0.058749 0.964294
v 0.118890 -0.058751 0.964832
v 0.119430 -0.058752 0.965489
v 0.119832 -0.058754 0.966237
v 0.120079 -0.058754 0.967050
v 0.034612 -0.049267 0.967900
v 0.035009 -0.014779 0.967896
v 0.039262 -0.014793 0.968738
v 0.039344 -0.014793 0.967892
v 0.039016 -0.014792 0.969551
v 0.038616 -0.014790 0.970301
v 0.038077 -0.014789 0.970958
v 0.037421 -0.014787 0.971498
v 0.036672 -0.014784 0.971899
v 0.035859 -0.014782 0.972146
v 0.035013 -0.014779 0.972230
v 0.034167 -0.014776 0.972148
v 0.033353 -0.014774 0.971902
v 0.032603 -0.014771 0.971502
v 0.031946 -0.014769 0.970964
v 0.031406 -0.014768 0.970308
v 0.031004 -0.014766 0.969559
v 0.030757 -0.014766 0.968746
v 0.030673 -0.014765 0.967900
v 0.030755 -0.014766 0.967055
v 0.031001 -0.014766 0.966242
v 0.031401 -0.014768 0.965492
v 0.031940 -0.014769 0.964834
v 0.032596 -0.014771 0.964295
v 0.033345 -0.014774 0.963894
v 0.034158 -0.014776 0.963646
v 0.035004 -0.014779 0.963562
v 0.035850 -0.014782 0.963644
v 0.036664 -0.014784 0.963890
v 0.037414 -0.014787 0.964290
v 0.038071 -0.014789 0.964828
v 0.038611 -0.014791 0.965485
v 0.039013 -0.014792 0.966234
v 0.039260 -0.014793 0.967046
v 0.038948 -0.049280 0.967896
v 0.038865 -0.049280 0.968741
v 0.038620 -0.049279 0.969555
v 0.038220 -0.049278 0.970304
v 0.037681 -0.049276 0.970962
v 0.037025 -0.049274 0.971501
v 0.036275 -0.049272 0.971903
v 0.035462 -0.049269 0.972150
v 0.034616 -0.049267 0.972234
v 0.033770 -0.049264 0.972152
v 0.032957 -0.049261 0.971906
v 0.032207 -0.049259 0.971506
v 0.031549 -0.049257 0.970968
v 0.031009 -0.049255 0.970312
v 0.030608 -0.049254 0.969563
v 0.030361 -0.049253 0.968750
v 0.030276 -0.049253 0.967904
v 0.030359 -0.049253 0.967059
v 0.030605 -0.049254 0.966245
v 0.031005 -0.049255 0.965496
v 0.031543 -0.049257 0.964838
v 0.032200 -0.049259 0.964299
v 0.032949 -0.049261 0.963897
v 0.033762 -0.049264 0.963650
v 0.034608 -0.049267 0.963566
v 0.035454 -0.049269 0.963648
v 0.036267 -0.049272 0.963894
v 0.037017 -0.049274 0.964294
v 0.037675 -0.049276 0.964832
v 0.038215 -0.049278 0.965489
v 0.038616 -0.049279 0.966237
v 0.038864 -0.049280 0.967050
vn 0.9952 -0.0114 0.0971
vn 0.9571 -0.0110 0.2894
vn 0.8822 -0.0101 0.4707
vn 0.7735 -0.0088 0.6337
vn 0.6350 -0.0072 0.7725
vn 0.4721 -0.0053 0.8815
vn 0.2911 -0.0032 0.9567
vn 0.0990 -0.0010 0.9951
vn 0.0989 -0.0010 0.9951
vn -0.0971 0.0012 0.9953
vn -0.0970 0.0012 0.9953
vn -0.2892 0.0034 0.9573
vn -0.4703 0.0055 0.8825
vn -0.6336 0.0074 0.7737
vn -0.6335 0.0074 0.7737
vn -0.6336 0.0074 0.7736
vn -0.7722 0.0089 0.6353
vn -0.8813 0.0102 0.4724
vn -0.9566 0.0110 0.2913
vn -0.9950 0.0114 0.0990
vn -0.9952 0.0114 -0.0971
vn -0.9571 0.0110 -0.2894
vn -0.8823 0.0101 -0.4706
vn -0.7734 0.0088 -0.6338
vn -0.6350 0.0072 -0.7725
vn -0.4721 0.0053 -0.8815
vn -0.2911 0.0032 -0.9567
vn -0.2912 0.0032 -0.9567
vn -0.0989 0.0010 -0.9951
vn -0.0990 0.0010 -0.9951
vn 0.0970 -0.0012 -0.9953
vn 0.2892 -0.0034 -0.9573
vn 0.2894 -0.0034 -0.9572
vn 0.4704 -0.0055 -0.8824
vn 0.4703 -0.0055 -0.8825
vn 0.6334 -0.0074 -0.7738
vn 0.6335 -0.0074 -0.7737
vn 0.7723 -0.0089 -0.6352
vn 0.7722 -0.0089 -0.6353
vn 0.8813 -0.0102 -0.4724
vn 0.9566 -0.0110 -0.2913
vn 0.9950 -0.0114 -0.0990
vn 0.0032 1.0000 -0.0000
vn -0.0032 -1.0000 -0.0000
vn 0.9952 -0.0095 0.0970
vn 0.9572 -0.0091 0.2894
vn 0.9571 -0.0091 0.2895
vn 0.8823 -0.0084 0.4706
vn 0.8823 -0.0084 0.4707
vn 0.7735 -0.0073 0.6338
vn 0.7735 -0.0073 0.6337
vn 0.6350 -0.0060 0.7725
vn 0.4722 -0.0044 0.8815
vn 0.4721 -0.0044 0.8815
vn 0.2910 -0.0027 0.9567
vn 0.2911 -0.0027 0.9567
vn 0.0990 -0.0009 0.9951
vn -0.0971 0.0010 0.9953
vn -0.0970 0.0010 0.9953
vn -0.2893 0.0028 0.9572
vn -0.2892 0.0028 0.9573
vn -0.4703 0.0046 0.8825
vn -0.4704 0.0046 0.8824
vn -0.6335 0.0061 0.7737
vn -0.7722 0.0074 0.6353
vn -0.7723 0.0074 0.6352
vn -0.8814 0.0085 0.4724
vn -0.9566 0.0092 0.2912
vn -0.9566 0.0092 0.2914
vn -0.9950 0.0095 0.0991
vn -0.9950 0.0095 0.0990
vn -0.9952 0.0095 -0.0971
vn -0.9572 0.0091 -0.2894
vn -0.8823 0.0084 -0.4707
vn -0.8823 0.0084 -0.4706
vn -0.7735 0.0073 -0.6337
vn -0.7735 0.0073 -0.6338
vn -0.6350 0.0060 -0.7725
vn -0.4721 0.0044 -0.8815
vn -0.2912 0.0027 -0.9567
vn -0.0989 0.0009 -0.9951
vn 0.0970 -0.0010 -0.9953
vn 0.0971 -0.0010 -0.9953
vn 0.2893 -0.0028 -0.9572
vn 0.2892 -0.0028 -0.9573
vn 0.4704 -0.0046 -0.8824
vn 0.4704 -0.0046 -0.8825
vn 0.6335 -0.0061 -0.7737
vn 0.6334 -0.0061 -0.7738
vn 0.7722 -0.0074 -0.6353
vn 0.7723 -0.0074 -0.6352
vn 0.8813 -0.0085 -0.4724
vn 0.9566 -0.0092 -0.2913
vn 0.9950 -0.0095 -0.0990
vn -0.9565 0.0092 0.2914
vn 0.9952 -0.0095 0.0971
vn 0.6349 -0.0060 0.7725
vn 0.0989 -0.0009 0.9951
vn -0.0969 0.0010 0.9953
vn -0.4704 0.0046 0.8825
vn -0.7723 0.0074 0.6353
vn -0.8813 0.0085 0.4724
vn -0.9566 0.0092 0.2913
vn -0.9952 0.0095 -0.0970
vn -0.0990 0.0009 -0.9951
vn 0.0969 -0.0010 -0.9953
vn 0.7723 -0.0074 -0.6353
vn 0.8814 -0.0085 -0.4723
vn 0.9950 -0.0095 -0.0991
vn 0.9571 -0.0110 0.2895
vn 0.8823 -0.0101 0.4706
vn 0.4722 -0.0053 0.8815
vn 0.2912 -0.0032 0.9567
vn -0.2893 0.0034 0.9572
vn -0.4704 0.0055 0.8824
vn -0.9571 0.0110 -0.2895
vn -0.7735 0.0088 -0.6338
vn -0.4722 0.0053 -0.8815
vn -0.2910 0.0032 -0.9567
vn 0.0971 -0.0012 -0.9953
vn 0.7723 -0.0089 -0.6353
vn 0.9950 -0.0114 -0.0991
vn -0.6350 0.0072 -0.7724
vn 0.8823 -0.0101 0.4707
vn 0.7735 -0.0088 0.6338
vn -0.8823 0.0101 -0.4707
vn -0.4721 0.0053 -0.8816
vt 1.000000 0.500000
vt 0.968750 1.000000
vt 0.968750 0.500000
vt 0.937500 1.000000
vt 0.937500 0.500000
vt 0.906250 1.000000
vt 0.906250 0.500000
vt 0.875000 1.000000
vt 0.875000 0.500000
vt 0.843750 1.000000
vt 0.843750 0.500000
vt 0.812500 1.000000
vt 0.812500 0.500000
vt 0.781250 1.000000
vt 0.781250 0.500000
vt 0.750000 1.000000
vt 0.750000 0.500000
vt 0.718750 1.000000
vt 0.718750 0.500000
vt 0.687500 1.000000
vt 0.687500 0.500000
vt 0.656250 1.000000
vt 0.656250 0.500000
vt 0.625000 1.000000
vt 0.625000 0.500000
vt 0.593750 1.000000
vt 0.593750 0.500000
vt 0.562500 1.000000
vt 0.562500 0.500000
vt 0.531250 1.000000
vt 0.531250 0.500000
vt 0.500000 1.000000
vt 0.500000 0.500000
vt 0.468750 0.500000
vt 0.468750 1.000000
vt 0.437500 0.500000
vt 0.437500 1.000000
vt 0.406250 0.500000
vt 0.406250 1.000000
vt 0.375000 0.500000
vt 0.375000 1.000000
vt 0.343750 0.500000
vt 0.343750 1.000000
vt 0.312500 0.500000
vt 0.312500 1.000000
vt 0.281250 0.500000
vt 0.281250 1.000000
vt 0.250000 0.500000
vt 0.250000 1.000000
vt 0.218750 0.500000
vt 0.218750 1.000000
vt 0.187500 0.500000
vt 0.187500 1.000000
vt 0.156250 0.500000
vt 0.156250 1.000000
vt 0.125000 0.500000
vt 0.125000 1.000000
vt 0.093750 0.500000
vt 0.093750 1.000000
vt 0.062500 0.500000
vt 0.062500 1.000000
vt 0.031250 0.500000
vt 0.031250 1.000000
vt 0.000000 0.500000
vt 0.283652 0.419178
vt 0.296822 0.485388
vt 0.250000 0.490000
vt 0.316010 0.409362
vt 0.341844 0.471731
vt 0.345832 0.393422
vt 0.383337 0.449553
vt 0.371971 0.371971
vt 0.419706 0.419706
vt 0.393422 0.345832
vt 0.449553 0.383337
vt 0.409362 0.316010
vt 0.471731 0.341844
vt 0.419178 0.283652
vt 0.485388 0.296822
vt 0.422492 0.250000
vt 0.490000 0.250000
vt 0.419178 0.216348
vt 0.485388 0.203178
vt 0.409362 0.183990
vt 0.471731 0.158156
vt 0.393422 0.154168
vt 0.449553 0.116663
vt 0.371971 0.128029
vt 0.419706 0.080294
vt 0.345832 0.106578
vt 0.383337 0.050447
vt 0.316010 0.090638
vt 0.341844 0.028269
vt 0.283652 0.080822
vt 0.296822 0.014612
vt 0.250000 0.077508
vt 0.250000 0.010000
vt 0.216348 0.080822
vt 0.203178 0.014612
vt 0.183990 0.090638
vt 0.158156 0.028269
vt 0.154168 0.106578
vt 0.116663 0.050447
vt 0.128029 0.128029
vt 0.080294 0.080294
vt 0.106578 0.154168
vt 0.050447 0.116663
vt 0.090638 0.183990
vt 0.028269 0.158156
vt 0.080822 0.216348
vt 0.014612 0.203178
vt 0.077508 0.250000
vt 0.010000 0.250000
vt 0.080822 0.283652
vt 0.014612 0.296822
vt 0.090638 0.316010
vt 0.028269 0.341844
vt 0.106578 0.345832
vt 0.050447 0.383337
vt 0.128029 0.371971
vt 0.080294 0.419706
vt 0.154168 0.393422
vt 0.116663 0.449553
vt 0.183990 0.409362
vt 0.158156 0.471731
vt 0.216348 0.419178
vt 0.203178 0.485388
vt 0.250000 0.422493
vt 0.750000 0.456880
vt 0.750000 0.490000
vt 0.796822 0.485388
vt 0.790360 0.452904
vt 0.841844 0.471731
vt 0.829169 0.441132
vt 0.883337 0.449553
vt 0.864936 0.422014
vt 0.919706 0.419706
vt 0.896286 0.396286
vt 0.949553 0.383337
vt 0.922014 0.364936
vt 0.971731 0.341844
vt 0.941132 0.329169
vt 0.985388 0.296822
vt 0.952904 0.290360
vt 0.990000 0.250000
vt 0.956880 0.250000
vt 0.985388 0.203178
vt 0.952904 0.209640
vt 0.971731 0.158156
vt 0.941132 0.170831
vt 0.949553 0.116663
vt 0.922014 0.135064
vt 0.919706 0.080294
vt 0.896286 0.103714
vt 0.883337 0.050447
vt 0.864936 0.077986
vt 0.841844 0.028269
vt 0.829169 0.058868
vt 0.796822 0.014612
vt 0.790360 0.047095
vt 0.750000 0.010000
vt 0.750000 0.043120
vt 0.703178 0.014612
vt 0.709640 0.047095
vt 0.658156 0.028269
vt 0.670830 0.058868
vt 0.616663 0.050447
vt 0.635064 0.077986
vt 0.580294 0.080294
vt 0.603714 0.103714
vt 0.550447 0.116663
vt 0.577986 0.135064
vt 0.528269 0.158156
vt 0.558868 0.170831
vt 0.514612 0.203178
vt 0.547096 0.209640
vt 0.510000 0.250000
vt 0.543120 0.250000
vt 0.514612 0.296822
vt 0.547095 0.290360
vt 0.528269 0.341844
vt 0.558868 0.329169
vt 0.550447 0.383337
vt 0.577986 0.364936
vt 0.580294 0.419706
vt 0.603714 0.396286
vt 0.616663 0.449553
vt 0.635064 0.422014
vt 0.658156 0.471731
vt 0.670831 0.441132
vt 0.703178 0.485388
vt 0.709640 0.452905
vt 1.000000 1.000000
vt 0.000000 1.000000
vt 0.284431 0.423095
vt 0.317538 0.413052
vt 0.348051 0.396743
vt 0.374795 0.374795
vt 0.396743 0.348051
vt 0.413052 0.317538
vt 0.423095 0.284431
vt 0.426486 0.250000
vt 0.423095 0.215569
vt 0.413052 0.182462
vt 0.396743 0.151949
vt 0.374795 0.125205
vt 0.348051 0.103257
vt 0.317538 0.086948
vt 0.284431 0.076905
vt 0.250000 0.073514
vt 0.215569 0.076905
vt 0.182462 0.086948
vt 0.151949 0.103257
vt 0.125205 0.125205
vt 0.103257 0.151949
vt 0.086948 0.182462
vt 0.076905 0.215569
vt 0.073514 0.250000
vt 0.076905 0.284431
vt 0.086948 0.317538
vt 0.103257 0.348051
vt 0.125205 0.374795
vt 0.151949 0.396743
vt 0.182462 0.413052
vt 0.215569 0.423095
vt 0.250000 0.426486
vt 0.750000 0.445882
vt 0.788215 0.442118
vt 0.824961 0.430971
vt 0.858826 0.412870
vt 0.888509 0.388509
vt 0.912870 0.358826
vt 0.930971 0.324961
vt 0.942118 0.288215
vt 0.945882 0.250000
vt 0.942118 0.211785
vt 0.930971 0.175039
vt 0.912870 0.141174
vt 0.888509 0.111491
vt 0.858826 0.087130
vt 0.824961 0.069029
vt 0.788215 0.057882
vt 0.750000 0.054118
vt 0.711785 0.057882
vt 0.675039 0.069029
vt 0.641174 0.087130
vt 0.611491 0.111491
vt 0.587130 0.141174
vt 0.569029 0.175039
vt 0.557882 0.211785
vt 0.554118 0.250000
vt 0.557882 0.288215
vt 0.569029 0.324961
vt 0.587130 0.358826
vt 0.611491 0.388509
vt 0.641174 0.412870
vt 0.675039 0.430971
vt 0.711785 0.442118
vt 0.288426 0.443180
vt 0.325375 0.431972
vt 0.359428 0.413770
vt 0.389275 0.389275
vt 0.413771 0.359428
vt 0.431972 0.325375
vt 0.443180 0.288426
vt 0.446965 0.250000
vt 0.443180 0.211574
vt 0.431972 0.174625
vt 0.413770 0.140572
vt 0.389275 0.110725
vt 0.359428 0.086229
vt 0.325375 0.068028
vt 0.288426 0.056820
vt 0.250000 0.053035
vt 0.211574 0.056820
vt 0.174625 0.068028
vt 0.140572 0.086230
vt 0.110725 0.110725
vt 0.086230 0.140572
vt 0.068028 0.174625
vt 0.056820 0.211574
vt 0.053035 0.250000
vt 0.056820 0.288426
vt 0.068028 0.325375
vt 0.086230 0.359428
vt 0.110725 0.389275
vt 0.140572 0.413770
vt 0.174625 0.431972
vt 0.211574 0.443180
vt 0.250000 0.446965
vt 0.750000 0.455867
vt 0.790163 0.451911
vt 0.828782 0.440196
vt 0.864373 0.421172
vt 0.895570 0.395570
vt 0.921172 0.364373
vt 0.940196 0.328782
vt 0.951911 0.290163
vt 0.955867 0.250000
vt 0.951911 0.209837
vt 0.940196 0.171218
vt 0.921172 0.135627
vt 0.895570 0.104430
vt 0.864373 0.078828
vt 0.828782 0.059804
vt 0.790163 0.048089
vt 0.750000 0.044133
vt 0.709837 0.048089
vt 0.671218 0.059804
vt 0.635627 0.078828
vt 0.604430 0.104430
vt 0.578828 0.135627
vt 0.559804 0.171218
vt 0.548089 0.209837
vt 0.544133 0.250000
vt 0.548089 0.290163
vt 0.559804 0.328782
vt 0.578828 0.364373
vt 0.604430 0.395570
vt 0.635627 0.421172
vt 0.671218 0.440196
vt 0.709838 0.451911
vt 0.277430 0.387900
vt 0.303806 0.379899
vt 0.328114 0.366906
vt 0.349420 0.349420
vt 0.366906 0.328114
vt 0.379899 0.303806
vt 0.387900 0.277430
vt 0.390601 0.250000
vt 0.387900 0.222570
vt 0.379899 0.196194
vt 0.366906 0.171886
vt 0.349420 0.150580
vt 0.328114 0.133094
vt 0.303806 0.120101
vt 0.277430 0.112100
vt 0.250000 0.109399
vt 0.222570 0.112100
vt 0.196194 0.120101
vt 0.171886 0.133094
vt 0.150580 0.150580
vt 0.133094 0.171886
vt 0.120101 0.196194
vt 0.112100 0.222570
vt 0.109399 0.250000
vt 0.112100 0.277430
vt 0.120101 0.303806
vt 0.133094 0.328114
vt 0.150580 0.349420
vt 0.171886 0.366906
vt 0.196194 0.379899
vt 0.222570 0.387900
vt 0.250000 0.390601
vt 0.750000 0.440024
vt 0.787072 0.436373
vt 0.822719 0.425559
vt 0.855572 0.407999
vt 0.884367 0.384367
vt 0.907999 0.355572
vt 0.925559 0.322719
vt 0.936373 0.287072
vt 0.940024 0.250000
vt 0.936373 0.212928
vt 0.925559 0.177281
vt 0.907999 0.144428
vt 0.884367 0.115633
vt 0.855572 0.092001
vt 0.822719 0.074441
vt 0.787072 0.063627
vt 0.750000 0.059976
vt 0.712928 0.063627
vt 0.677281 0.074441
vt 0.644428 0.092001
vt 0.615633 0.115633
vt 0.592001 0.144428
vt 0.574441 0.177281
vt 0.563627 0.212928
vt 0.559976 0.250000
vt 0.563627 0.287072
vt 0.574441 0.322719
vt 0.592001 0.355572
vt 0.615633 0.384367
vt 0.644428 0.407999
vt 0.677281 0.425559
vt 0.712928 0.436373
vt 0.243660 0.218124
vt 0.237563 0.219974
vt 0.231944 0.222977
vt 0.227019 0.227019
vt 0.222977 0.231944
vt 0.219974 0.237563
vt 0.218124 0.243660
vt 0.217500 0.250000
vt 0.218125 0.256340
vt 0.219974 0.262437
vt 0.222977 0.268056
vt 0.227019 0.272981
vt 0.231944 0.277023
vt 0.237563 0.280026
vt 0.243660 0.281876
vt 0.250000 0.282500
vt 0.256340 0.281876
vt 0.262437 0.280026
vt 0.268056 0.277023
vt 0.272981 0.272981
vt 0.277023 0.268056
vt 0.280026 0.262437
vt 0.281876 0.256340
vt 0.282500 0.250000
vt 0.281876 0.243660
vt 0.280026 0.237563
vt 0.277023 0.231944
vt 0.272981 0.227019
vt 0.268056 0.222977
vt 0.262437 0.219974
vt 0.256340 0.218124
vt 0.250000 0.217500
vt 0.750000 0.466077
vt 0.792154 0.461925
vt 0.832689 0.449629
vt 0.870045 0.429661
vt 0.902789 0.402789
vt 0.929661 0.370046
vt 0.949629 0.332689
vt 0.961925 0.292154
vt 0.966077 0.250000
vt 0.961925 0.207846
vt 0.949629 0.167311
vt 0.929661 0.129954
vt 0.902789 0.097211
vt 0.870046 0.070339
vt 0.832689 0.050371
vt 0.792154 0.038075
vt 0.750000 0.033923
vt 0.707845 0.038075
vt 0.667311 0.050371
vt 0.629954 0.070339
vt 0.597211 0.097211
vt 0.570339 0.129954
vt 0.550371 0.167311
vt 0.538075 0.207845
vt 0.533923 0.250000
vt 0.538075 0.292154
vt 0.550371 0.332689
vt 0.570339 0.370046
vt 0.597211 0.402789
vt 0.629954 0.429661
vt 0.667311 0.449629
vt 0.707846 0.461925
s 1
usemtl Wood.001
f 35/1/1 3/2/1 36/3/1
f 36/3/2 5/4/2 37/5/2
f 37/5/3 6/6/3 38/7/3
f 38/7/4 7/8/4 39/9/4
f 39/9/5 8/10/5 40/11/5
f 40/11/6 9/12/6 41/13/6
f 41/13/7 10/14/7 42/15/7
f 42/15/8 11/16/9 43/17/8
f 43/17/10 12/18/11 44/19/10
f 44/19/12 13/20/12 45/21/12
f 45/21/13 14/22/13 46/23/13
f 46/23/14 15/24/15 47/25/16
f 47/25/17 16/26/17 48/27/17
f 48/27/18 17/28/18 49/29/18
f 49/29/19 18/30/19 50/31/19
f 50/31/20 19/32/20 51/33/20
f 19/32/21 52/34/21 51/33/21
f 20/35/22 53/36/22 52/34/22
f 21/37/23 54/38/23 53/36/23
f 22/39/24 55/40/24 54/38/24
f 23/41/25 56/42/25 55/40/25
f 24/43/26 57/44/26 56/42/26
f 25/45/27 58/46/28 57/44/28
f 26/47/29 59/48/30 58/46/30
f 27/49/31 60/50/31 59/48/31
f 28/51/32 61/52/33 60/50/33
f 29/53/34 62/54/35 61/52/35
f 30/55/36 63/56/37 62/54/37
f 31/57/38 64/58/39 63/56/39
f 32/59/40 65/60/40 64/58/40
f 33/61/41 66/62/41 65/60/41
f 34/63/42 35/64/42 66/62/42
f 2/65/43 3/66/43 4/67/43
f 2/68/43 5/69/43 3/66/43
f 2/70/43 6/71/43 5/69/43
f 2/72/43 7/73/43 6/71/43
f 2/74/43 8/75/43 7/73/43
f 2/76/43 9/77/43 8/75/43
f 2/78/43 10/79/43 9/77/43
f 2/80/43 11/81/43 10/79/43
f 2/82/43 12/83/43 11/81/43
f 2/84/43 13/85/43 12/83/43
f 2/86/43 14/87/43 13/85/43
f 2/88/43 15/89/43 14/87/43
f 2/90/43 16/91/43 15/89/43
f 2/92/43 17/93/43 16/91/43
f 2/94/43 18/95/43 17/93/43
f 2/96/43 19/97/43 18/95/43
f 2/98/43 20/99/43 19/97/43
f 2/100/43 21/101/43 20/99/43
f 2/102/43 22/103/43 21/101/43
f 2/104/43 23/105/43 22/103/43
f 2/106/43 24/107/43 23/105/43
f 2/108/43 25/109/43 24/107/43
f 2/110/43 26/111/43 25/109/43
f 2/112/43 27/113/43 26/111/43
f 2/114/43 28/115/43 27/113/43
f 2/116/43 29/117/43 28/115/43
f 2/118/43 30/119/43 29/117/43
f 2/120/43 31/121/43 30/119/43
f 2/122/43 32/123/43 31/121/43
f 2/124/43 33/125/43 32/123/43
f 2/126/43 34/127/43 33/125/43
f 2/128/43 4/67/43 34/127/43
f 1/129/44 35/130/44 36/131/44
f 1/132/44 36/131/44 37/133/44
f 1/134/44 37/133/44 38/135/44
f 1/136/44 38/135/44 39/137/44
f 1/138/44 39/137/44 40/139/44
f 1/140/44 40/139/44 41/141/44
f 1/142/44 41/141/44 42/143/44
f 1/144/44 42/143/44 43/145/44
f 1/146/44 43/145/44 44/147/44
f 1/148/44 44/147/44 45/149/44
f 1/150/44 45/149/44 46/151/44
f 1/152/44 46/151/44 47/153/44
f 1/154/44 47/153/44 48/155/44
f 1/156/44 48/155/44 49/157/44
f 1/158/44 49/157/44 50/159/44
f 1/160/44 50/159/44 51/161/44
f 1/162/44 51/161/44 52/163/44
f 1/164/44 52/163/44 53/165/44
f 1/166/44 53/165/44 54/167/44
f 1/168/44 54/167/44 55/169/44
f 1/170/44 55/169/44 56/171/44
f 1/172/44 56/171/44 57/173/44
f 1/174/44 57/173/44 58/175/44
f 1/176/44 58/175/44 59/177/44
f 1/178/44 59/177/44 60/179/44
f 1/180/44 60/179/44 61/181/44
f 1/182/44 61/181/44 62/183/44
f 1/184/44 62/183/44 63/185/44
f 1/186/44 63/185/44 64/187/44
f 1/188/44 64/187/44 65/189/44
f 1/190/44 65/189/44 66/191/44
f 1/192/44 66/191/44 35/130/44
f 35/1/1 4/193/1 3/2/1
f 36/3/2 3/2/2 5/4/2
f 37/5/3 5/4/3 6/6/3
f 38/7/4 6/6/4 7/8/4
f 39/9/5 7/8/5 8/10/5
f 40/11/6 8/10/6 9/12/6
f 41/13/7 9/12/7 10/14/7
f 42/15/8 10/14/9 11/16/9
f 43/17/10 11/16/11 12/18/11
f 44/19/12 12/18/12 13/20/12
f 45/21/13 13/20/13 14/22/13
f 46/23/14 14/22/15 15/24/15
f 47/25/17 15/24/17 16/26/17
f 48/27/18 16/26/18 17/28/18
f 49/29/19 17/28/19 18/30/19
f 50/31/20 18/30/20 19/32/20
f 19/32/21 20/35/21 52/34/21
f 20/35/22 21/37/22 53/36/22
f 21/37/23 22/39/23 54/38/23
f 22/39/24 23/41/24 55/40/24
f 23/41/25 24/43/25 56/42/25
f 24/43/26 25/45/26 57/44/26
f 25/45/27 26/47/27 58/46/28
f 26/47/29 27/49/29 59/48/30
f 27/49/31 28/51/31 60/50/31
f 28/51/32 29/53/32 61/52/33
f 29/53/34 30/55/34 62/54/35
f 30/55/36 31/57/36 63/56/37
f 31/57/38 32/59/38 64/58/39
f 32/59/40 33/61/40 65/60/40
f 33/61/41 34/63/41 66/62/41
f 34/63/42 4/194/42 35/64/42
f 101/1/45 69/2/45 102/3/45
f 102/3/46 71/4/47 103/5/46
f 103/5/48 72/6/49 104/7/48
f 104/7/50 73/8/51 105/9/50
f 105/9/52 74/10/52 106/11/52
f 106/11/53 75/12/54 107/13/53
f 107/13/55 76/14/56 108/15/55
f 108/15/57 77/16/57 109/17/57
f 109/17/58 78/18/59 110/19/58
f 110/19/60 79/20/61 111/21/60
f 111/21/62 80/22/63 112/23/62
f 112/23/64 81/24/64 113/25/64
f 113/25/65 82/26/66 114/27/65
f 114/27/67 83/28/67 115/29/67
f 115/29/68 84/30/69 116/31/68
f 116/31/70 85/32/71 117/33/70
f 85/32/72 118/34/72 117/33/72
f 86/35/73 119/36/73 118/34/73
f 87/37/74 120/38/75 119/36/75
f 88/39/76 121/40/77 120/38/77
f 89/41/78 122/42/78 121/40/78
f 90/43/79 123/44/79 122/42/79
f 91/45/80 124/46/80 123/44/80
f 92/47/81 125/48/81 124/46/81
f 93/49/82 126/50/83 125/48/83
f 94/51/84 127/52/85 126/50/85
f 95/53/86 128/54/87 127/52/87
f 96/55/88 129/56/89 128/54/89
f 97/57/90 130/58/91 129/56/91
f 98/59/92 131/60/92 130/58/92
f 99/61/93 132/62/93 131/60/93
f 100/63/94 101/64/94 132/62/94
f 68/195/43 69/66/43 70/67/43
f 68/196/43 71/69/43 69/66/43
f 68/197/43 72/71/43 71/69/43
f 68/198/43 73/73/43 72/71/43
f 68/199/43 74/75/43 73/73/43
f 68/200/43 75/77/43 74/75/43
f 68/201/43 76/79/43 75/77/43
f 68/202/43 77/81/43 76/79/43
f 68/203/43 78/83/43 77/81/43
f 68/204/43 79/85/43 78/83/43
f 68/205/43 80/87/43 79/85/43
f 68/206/43 81/89/43 80/87/43
f 68/207/43 82/91/43 81/89/43
f 68/208/43 83/93/43 82/91/43
f 68/209/43 84/95/43 83/93/43
f 68/210/43 85/97/43 84/95/43
f 68/211/43 86/99/43 85/97/43
f 68/212/43 87/101/43 86/99/43
f 68/213/43 88/103/43 87/101/43
f 68/214/43 89/105/43 88/103/43
f 68/215/43 90/107/43 89/105/43
f 68/216/43 91/109/43 90/107/43
f 68/217/43 92/111/43 91/109/43
f 68/218/43 93/113/43 92/111/43
f 68/219/43 94/115/43 93/113/43
f 68/220/43 95/117/43 94/115/43
f 68/221/43 96/119/43 95/117/43
f 68/222/43 97/121/43 96/119/43
f 68/223/43 98/123/43 97/121/43
f 68/224/43 99/125/43 98/123/43
f 68/225/43 100/127/43 99/125/43
f 68/226/43 70/67/43 100/127/43
f 67/227/44 101/130/44 102/131/44
f 67/228/44 102/131/44 103/133/44
f 67/229/44 103/133/44 104/135/44
f 67/230/44 104/135/44 105/137/44
f 67/231/44 105/137/44 106/139/44
f 67/232/44 106/139/44 107/141/44
f 67/233/44 107/141/44 108/143/44
f 67/234/44 108/143/44 109/145/44
f 67/235/44 109/145/44 110/147/44
f 67/236/44 110/147/44 111/149/44
f 67/237/44 111/149/44 112/151/44
f 67/238/44 112/151/44 113/153/44
f 67/239/44 113/153/44 114/155/44
f 67/240/44 114/155/44 115/157/44
f 67/241/44 115/157/44 116/159/44
f 67/242/44 116/159/44 117/161/44
f 67/243/44 117/161/44 118/163/44
f 67/244/44 118/163/44 119/165/44
f 67/245/44 119/165/44 120/167/44
f 67/246/44 120/167/44 121/169/44
f 67/247/44 121/169/44 122/171/44
f 67/248/44 122/171/44 123/173/44
f 67/249/44 123/173/44 124/175/44
f 67/250/44 124/175/44 125/177/44
f 67/251/44 125/177/44 126/179/44
f 67/252/44 126/179/44 127/181/44
f 67/253/44 127/181/44 128/183/44
f 67/254/44 128/183/44 129/185/44
f 67/255/44 129/185/44 130/187/44
f 67/256/44 130/187/44 131/189/44
f 67/257/44 131/189/44 132/191/44
f 67/258/44 132/191/44 101/130/44
f 101/1/45 70/193/45 69/2/45
f 102/3/46 69/2/47 71/4/47
f 103/5/48 71/4/49 72/6/49
f 104/7/50 72/6/51 73/8/51
f 105/9/52 73/8/52 74/10/52
f 106/11/53 74/10/54 75/12/54
f 107/13/55 75/12/56 76/14/56
f 108/15/57 76/14/57 77/16/57
f 109/17/58 77/16/59 78/18/59
f 110/19/60 78/18/61 79/20/61
f 111/21/62 79/20/63 80/22/63
f 112/23/64 80/22/64 81/24/64
f 113/25/65 81/24/66 82/26/66
f 114/27/67 82/26/67 83/28/67
f 115/29/68 83/28/95 84/30/69
f 116/31/70 84/30/71 85/32/71
f 85/32/72 86/35/72 118/34/72
f 86/35/73 87/37/73 119/36/73
f 87/37/74 88/39/74 120/38/75
f 88/39/76 89/41/76 121/40/77
f 89/41/78 90/43/78 122/42/78
f 90/43/79 91/45/79 123/44/79
f 91/45/80 92/47/80 124/46/80
f 92/47/81 93/49/81 125/48/81
f 93/49/82 94/51/82 126/50/83
f 94/51/84 95/53/84 127/52/85
f 95/53/86 96/55/86 128/54/87
f 96/55/88 97/57/88 129/56/89
f 97/57/90 98/59/90 130/58/91
f 98/59/92 99/61/92 131/60/92
f 99/61/93 100/63/93 132/62/93
f 100/63/94 70/194/94 101/64/94
f 167/1/96 135/2/96 168/3/96
f 168/3/46 137/4/46 169/5/46
f 169/5/49 138/6/49 170/7/49
f 170/7/51 139/8/51 171/9/51
f 171/9/97 140/10/97 172/11/97
f 172/11/53 141/12/53 173/13/53
f 173/13/56 142/14/56 174/15/56
f 174/15/57 143/16/98 175/17/57
f 175/17/59 144/18/99 176/19/59
f 176/19/61 145/20/60 177/21/61
f 177/21/100 146/22/63 178/23/100
f 178/23/64 147/24/64 179/25/64
f 179/25/66 148/26/101 180/27/66
f 180/27/67 149/28/102 181/29/67
f 181/29/103 150/30/103 182/31/103
f 182/31/71 151/32/71 183/33/71
f 151/32/72 184/34/104 183/33/104
f 152/35/73 185/36/73 184/34/73
f 153/37/75 186/38/74 185/36/74
f 154/39/77 187/40/77 186/38/77
f 155/41/78 188/42/78 187/40/78
f 156/43/79 189/44/79 188/42/79
f 157/45/80 190/46/80 189/44/80
f 158/47/81 191/48/105 190/46/105
f 159/49/106 192/50/82 191/48/83
f 160/51/84 193/52/84 192/50/84
f 161/53/87 194/54/87 193/52/87
f 162/55/88 195/56/89 194/54/89
f 163/57/107 196/58/90 195/56/90
f 164/59/92 197/60/108 196/58/108
f 165/61/93 198/62/93 197/60/93
f 166/63/94 167/64/109 198/62/109
f 134/259/43 135/66/43 136/67/43
f 134/260/43 137/69/43 135/66/43
f 134/261/43 138/71/43 137/69/43
f 134/262/43 139/73/43 138/71/43
f 134/263/43 140/75/43 139/73/43
f 134/264/43 141/77/43 140/75/43
f 134/265/43 142/79/43 141/77/43
f 134/266/43 143/81/43 142/79/43
f 134/267/43 144/83/43 143/81/43
f 134/268/43 145/85/43 144/83/43
f 134/269/43 146/87/43 145/85/43
f 134/270/43 147/89/43 146/87/43
f 134/271/43 148/91/43 147/89/43
f 134/272/43 149/93/43 148/91/43
f 134/273/43 150/95/43 149/93/43
f 134/274/43 151/97/43 150/95/43
f 134/275/43 152/99/43 151/97/43
f 134/276/43 153/101/43 152/99/43
f 134/277/43 154/103/43 153/101/43
f 134/278/43 155/105/43 154/103/43
f 134/279/43 156/107/43 155/105/43
f 134/280/43 157/109/43 156/107/43
f 134/281/43 158/111/43 157/109/43
f 134/282/43 159/113/43 158/111/43
f 134/283/43 160/115/43 159/113/43
f 134/284/43 161/117/43 160/115/43
f 134/285/43 162/119/43 161/117/43
f 134/286/43 163/121/43 162/119/43
f 134/287/43 164/123/43 163/121/43
f 134/288/43 165/125/43 164/123/43
f 134/289/43 166/127/43 165/125/43
f 134/290/43 136/67/43 166/127/43
f 133/291/44 167/130/44 168/131/44
f 133/292/44 168/131/44 169/133/44
f 133/293/44 169/133/44 170/135/44
f 133/294/44 170/135/44 171/137/44
f 133/295/44 171/137/44 172/139/44
f 133/296/44 172/139/44 173/141/44
f 133/297/44 173/141/44 174/143/44
f 133/298/44 174/143/44 175/145/44
f 133/299/44 175/145/44 176/147/44
f 133/300/44 176/147/44 177/149/44
f 133/301/44 177/149/44 178/151/44
f 133/302/44 178/151/44 179/153/44
f 133/303/44 179/153/44 180/155/44
f 133/304/44 180/155/44 181/157/44
f 133/305/44 181/157/44 182/159/44
f 133/306/44 182/159/44 183/161/44
f 133/307/44 183/161/44 184/163/44
f 133/308/44 184/163/44 185/165/44
f 133/309/44 185/165/44 186/167/44
f 133/310/44 186/167/44 187/169/44
f 133/311/44 187/169/44 188/171/44
f 133/312/44 188/171/44 189/173/44
f 133/313/44 189/173/44 190/175/44
f 133/314/44 190/175/44 191/177/44
f 133/315/44 191/177/44 192/179/44
f 133/316/44 192/179/44 193/181/44
f 133/317/44 193/181/44 194/183/44
f 133/318/44 194/183/44 195/185/44
f 133/319/44 195/185/44 196/187/44
f 133/320/44 196/187/44 197/189/44
f 133/321/44 197/189/44 198/191/44
f 133/322/44 198/191/44 167/130/44
f 167/1/96 136/193/96 135/2/96
f 168/3/46 135/2/46 137/4/46
f 169/5/49 137/4/49 138/6/49
f 170/7/51 138/6/51 139/8/51
f 171/9/97 139/8/97 140/10/97
f 172/11/53 140/10/53 141/12/53
f 173/13/56 141/12/56 142/14/56
f 174/15/57 142/14/98 143/16/98
f 175/17/59 143/16/99 144/18/99
f 176/19/61 144/18/60 145/20/60
f 177/21/100 145/20/63 146/22/63
f 178/23/64 146/22/64 147/24/64
f 179/25/66 147/24/101 148/26/101
f 180/27/67 148/26/102 149/28/102
f 181/29/103 149/28/103 150/30/103
f 182/31/71 150/30/71 151/32/71
f 151/32/72 152/35/72 184/34/104
f 152/35/73 153/37/73 185/36/73
f 153/37/75 154/39/75 186/38/74
f 154/39/77 155/41/77 187/40/77
f 155/41/78 156/43/78 188/42/78
f 156/43/79 157/45/79 189/44/79
f 157/45/80 158/47/80 190/46/80
f 158/47/81 159/49/81 191/48/105
f 159/49/106 160/51/106 192/50/82
f 160/51/84 161/53/84 193/52/84
f 161/53/87 162/55/87 194/54/87
f 162/55/88 163/57/88 195/56/89
f 163/57/107 164/59/107 196/58/90
f 164/59/92 165/61/92 197/60/108
f 165/61/93 166/63/93 198/62/93
f 166/63/94 136/194/94 167/64/109
f 233/1/1 201/2/1 234/3/1
f 234/3/110 203/4/2 235/5/110
f 235/5/3 204/6/111 236/7/3
f 236/7/4 205/8/4 237/9/4
f 237/9/5 206/10/5 238/11/5
f 238/11/112 207/12/6 239/13/112
f 239/13/113 208/14/7 240/15/113
f 240/15/9 209/16/8 241/17/9
f 241/17/11 210/18/11 242/19/11
f 242/19/12 211/20/114 243/21/12
f 243/21/115 212/22/13 244/23/115
f 244/23/15 213/24/15 245/25/15
f 245/25/17 214/26/17 246/27/17
f 246/27/18 215/28/18 247/29/18
f 247/29/19 216/30/19 248/31/19
f 248/31/20 217/32/20 249/33/20
f 217/32/21 250/34/21 249/33/21
f 218/35/116 251/36/22 250/34/22
f 219/37/23 252/38/23 251/36/23
f 220/39/117 253/40/117 252/38/117
f 221/41/25 254/42/25 253/40/25
f 222/43/26 255/44/118 254/42/118
f 223/45/28 256/46/119 255/44/119
f 224/47/29 257/48/30 256/46/30
f 225/49/120 258/50/31 257/48/31
f 226/51/32 259/52/32 258/50/32
f 227/53/34 260/54/34 259/52/34
f 228/55/36 261/56/37 260/54/37
f 229/57/121 262/58/39 261/56/39
f 230/59/40 263/60/40 262/58/40
f 231/61/41 264/62/41 263/60/41
f 232/63/42 233/64/122 264/62/122
f 200/323/43 201/66/43 202/67/43
f 200/324/43 203/69/43 201/66/43
f 200/325/43 204/71/43 203/69/43
f 200/326/43 205/73/43 204/71/43
f 200/327/43 206/75/43 205/73/43
f 200/328/43 207/77/43 206/75/43
f 200/329/43 208/79/43 207/77/43
f 200/330/43 209/81/43 208/79/43
f 200/331/43 210/83/43 209/81/43
f 200/332/43 211/85/43 210/83/43
f 200/333/43 212/87/43 211/85/43
f 200/334/43 213/89/43 212/87/43
f 200/335/43 214/91/43 213/89/43
f 200/336/43 215/93/43 214/91/43
f 200/337/43 216/95/43 215/93/43
f 200/338/43 217/97/43 216/95/43
f 200/339/43 218/99/43 217/97/43
f 200/340/43 219/101/43 218/99/43
f 200/341/43 220/103/43 219/101/43
f 200/342/43 221/105/43 220/103/43
f 200/343/43 222/107/43 221/105/43
f 200/344/43 223/109/43 222/107/43
f 200/345/43 224/111/43 223/109/43
f 200/346/43 225/113/43 224/111/43
f 200/347/43 226/115/43 225/113/43
f 200/348/43 227/117/43 226/115/43
f 200/349/43 228/119/43 227/117/43
f 200/350/43 229/121/43 228/119/43
f 200/351/43 230/123/43 229/121/43
f 200/352/43 231/125/43 230/123/43
f 200/353/43 232/127/43 231/125/43
f 200/354/43 202/67/43 232/127/43
f 199/355/44 233/130/44 234/131/44
f 199/356/44 234/131/44 235/133/44
f 199/357/44 235/133/44 236/135/44
f 199/358/44 236/135/44 237/137/44
f 199/359/44 237/137/44 238/139/44
f 199/360/44 238/139/44 239/141/44
f 199/361/44 239/141/44 240/143/44
f 199/362/44 240/143/44 241/145/44
f 199/363/44 241/145/44 242/147/44
f 199/364/44 242/147/44 243/149/44
f 199/365/44 243/149/44 244/151/44
f 199/366/44 244/151/44 245/153/44
f 199/367/44 245/153/44 246/155/44
f 199/368/44 246/155/44 247/157/44
f 199/369/44 247/157/44 248/159/44
f 199/370/44 248/159/44 249/161/44
f 199/371/44 249/161/44 250/163/44
f 199/372/44 250/163/44 251/165/44
f 199/373/44 251/165/44 252/167/44
f 199/374/44 252/167/44 253/169/44
f 199/375/44 253/169/44 254/171/44
f 199/376/44 254/171/44 255/173/44
f 199/377/44 255/173/44 256/175/44
f 199/378/44 256/175/44 257/177/44
f 199/379/44 257/177/44 258/179/44
f 199/380/44 258/179/44 259/181/44
f 199/381/44 259/181/44 260/183/44
f 199/382/44 260/183/44 261/185/44
f 199/383/44 261/185/44 262/187/44
f 199/384/44 262/187/44 263/189/44
f 199/385/44 263/189/44 264/191/44
f 199/386/44 264/191/44 233/130/44
f 233/1/1 202/193/1 201/2/1
f 234/3/110 201/2/2 203/4/2
f 235/5/3 203/4/111 204/6/111
f 236/7/4 204/6/4 205/8/4
f 237/9/5 205/8/5 206/10/5
f 238/11/112 206/10/6 207/12/6
f 239/13/113 207/12/7 208/14/7
f 240/15/9 208/14/8 209/16/8
f 241/17/11 209/16/10 210/18/11
f 242/19/12 210/18/114 211/20/114
f 243/21/115 211/20/13 212/22/13
f 244/23/15 212/22/15 213/24/15
f 245/25/17 213/24/17 214/26/17
f 246/27/18 214/26/18 215/28/18
f 247/29/19 215/28/19 216/30/19
f 248/31/20 216/30/20 217/32/20
f 217/32/21 218/35/21 250/34/21
f 218/35/116 219/37/116 251/36/22
f 219/37/23 220/39/23 252/38/23
f 220/39/117 221/41/117 253/40/117
f 221/41/25 222/43/123 254/42/25
f 222/43/26 223/45/26 255/44/118
f 223/45/28 224/47/28 256/46/119
f 224/47/29 225/49/29 257/48/30
f 225/49/120 226/51/120 258/50/31
f 226/51/32 227/53/32 259/52/32
f 227/53/34 228/55/34 260/54/34
f 228/55/36 229/57/36 261/56/37
f 229/57/121 230/59/121 262/58/39
f 230/59/40 231/61/40 263/60/40
f 231/61/41 232/63/41 264/62/41
f 232/63/42 202/194/42 233/64/122
f 299/1/1 267/2/1 300/3/1
f 300/3/2 269/4/2 301/5/2
f 301/5/124 270/6/3 302/7/124
f 302/7/125 271/8/4 303/9/125
f 303/9/5 272/10/5 304/11/5
f 304/11/112 273/12/6 305/13/112
f 305/13/113 274/14/7 306/15/113
f 306/15/9 275/16/8 307/17/9
f 307/17/11 276/18/10 308/19/11
f 308/19/12 277/20/114 309/21/12
f 309/21/115 278/22/13 310/23/115
f 310/23/15 279/24/15 311/25/15
f 311/25/17 280/26/17 312/27/17
f 312/27/18 281/28/18 313/29/18
f 313/29/19 282/30/19 314/31/19
f 314/31/20 283/32/20 315/33/20
f 283/32/21 316/34/21 315/33/21
f 284/35/22 317/36/22 316/34/22
f 285/37/23 318/38/126 317/36/126
f 286/39/117 319/40/117 318/38/117
f 287/41/25 320/42/25 319/40/25
f 288/43/127 321/44/118 320/42/118
f 289/45/28 322/46/119 321/44/119
f 290/47/29 323/48/30 322/46/30
f 291/49/31 324/50/31 323/48/31
f 292/51/32 325/52/32 324/50/32
f 293/53/34 326/54/34 325/52/34
f 294/55/36 327/56/37 326/54/37
f 295/57/38 328/58/39 327/56/39
f 296/59/40 329/60/40 328/58/40
f 297/61/41 330/62/41 329/60/41
f 298/63/42 299/64/42 330/62/42
f 266/387/43 267/66/43 268/67/43
f 266/388/43 269/69/43 267/66/43
f 266/389/43 270/71/43 269/69/43
f 266/390/43 271/73/43 270/71/43
f 266/391/43 272/75/43 271/73/43
f 266/392/43 273/77/43 272/75/43
f 266/393/43 274/79/43 273/77/43
f 266/394/43 275/81/43 274/79/43
f 266/395/43 276/83/43 275/81/43
f 266/396/43 277/85/43 276/83/43
f 266/397/43 278/87/43 277/85/43
f 266/398/43 279/89/43 278/87/43
f 266/399/43 280/91/43 279/89/43
f 266/400/43 281/93/43 280/91/43
f 266/401/43 282/95/43 281/93/43
f 266/402/43 283/97/43 282/95/43
f 266/403/43 284/99/43 283/97/43
f 266/404/43 285/101/43 284/99/43
f 266/405/43 286/103/43 285/101/43
f 266/406/43 287/105/43 286/103/43
f 266/407/43 288/107/43 287/105/43
f 266/408/43 289/109/43 288/107/43
f 266/409/43 290/111/43 289/109/43
f 266/410/43 291/113/43 290/111/43
f 266/411/43 292/115/43 291/113/43
f 266/412/43 293/117/43 292/115/43
f 266/413/43 294/119/43 293/117/43
f 266/414/43 295/121/43 294/119/43
f 266/415/43 296/123/43 295/121/43
f 266/416/43 297/125/43 296/123/43
f 266/417/43 298/127/43 297/125/43
f 266/418/43 268/67/43 298/127/43
f 265/419/44 299/130/44 300/131/44
f 265/420/44 300/131/44 301/133/44
f 265/421/44 301/133/44 302/135/44
f 265/422/44 302/135/44 303/137/44
f 265/423/44 303/137/44 304/139/44
f 265/424/44 304/139/44 305/141/44
f 265/425/44 305/141/44 306/143/44
f 265/426/44 306/143/44 307/145/44
f 265/427/44 307/145/44 308/147/44
f 265/428/44 308/147/44 309/149/44
f 265/429/44 309/149/44 310/151/44
f 265/430/44 310/151/44 311/153/44
f 265/431/44 311/153/44 312/155/44
f 265/432/44 312/155/44 313/157/44
f 265/433/44 313/157/44 314/159/44
f 265/434/44 314/159/44 315/161/44
f 265/435/44 315/161/44 316/163/44
f 265/436/44 316/163/44 317/165/44
f 265/437/44 317/165/44 318/167/44
f 265/438/44 318/167/44 319/169/44
f 265/439/44 319/169/44 320/171/44
f 265/440/44 320/171/44 321/173/44
f 265/441/44 321/173/44 322/175/44
f 265/442/44 322/175/44 323/177/44
f 265/443/44 323/177/44 324/179/44
f 265/444/44 324/179/44 325/181/44
f 265/445/44 325/181/44 326/183/44
f 265/446/44 326/183/44 327/185/44
f 265/447/44 327/185/44 328/187/44
f 265/448/44 328/187/44 329/189/44
f 265/449/44 329/189/44 330/191/44
f 265/450/44 330/191/44 299/130/44
f 299/1/1 268/193/1 267/2/1
f 300/3/2 267/2/2 269/4/2
f 301/5/124 269/4/3 270/6/3
f 302/7/125 270/6/4 271/8/4
f 303/9/5 271/8/5 272/10/5
f 304/11/112 272/10/6 273/12/6
f 305/13/113 273/12/7 274/14/7
f 306/15/9 274/14/8 275/16/8
f 307/17/11 275/16/10 276/18/10
f 308/19/12 276/18/114 277/20/114
f 309/21/115 277/20/13 278/22/13
f 310/23/15 278/22/15 279/24/15
f 311/25/17 279/24/17 280/26/17
f 312/27/18 280/26/18 281/28/18
f 313/29/19 281/28/19 282/30/19
f 314/31/20 282/30/20 283/32/20
f 283/32/21 284/35/21 316/34/21
f 284/35/22 285/37/22 317/36/22
f 285/37/23 286/39/23 318/38/126
f 286/39/117 287/41/117 319/40/117
f 287/41/25 288/43/25 320/42/25
f 288/43/127 289/45/127 321/44/118
f 289/45/28 290/47/28 322/46/119
f 290/47/29 291/49/29 323/48/30
f 291/49/31 292/51/120 324/50/31
f 292/51/32 293/53/32 325/52/32
f 293/53/34 294/55/34 326/54/34
f 294/55/36 295/57/36 327/56/37
f 295/57/38 296/59/38 328/58/39
f 296/59/40 297/61/40 329/60/40
f 297/61/41 298/63/41 330/62/41
f 298/63/42 268/194/42 299/64/42
