# Blender 4.1.0
# www.blender.org
mtllib SkyBox.mtl
o Plane.001
v -3.482315 -0.809015 1.530607
v 3.482315 -0.809015 1.530607
v -3.482315 1.791215 1.530607
v 3.482315 1.791215 1.530607
v -3.482315 0.491100 1.530607
v 0.000000 -0.809015 1.530607
v 3.482315 0.491100 1.530607
v 0.000000 1.791215 1.530607
v 0.000000 0.491100 1.530607
v -3.482315 -0.158958 1.530607
v 1.741158 -0.809015 1.530607
v 3.482315 1.141157 1.530607
v -1.741158 1.791215 1.530607
v -3.482315 1.141157 1.530607
v -1.741158 -0.809015 1.530607
v 3.482315 -0.158958 1.530607
v 1.741158 1.791215 1.530607
v 0.000000 1.141157 1.530607
v 0.000000 -0.158958 1.530607
v -1.741158 0.491100 1.530607
v 1.741158 0.491100 1.530607
v 1.741158 -0.158958 1.530607
v -1.741158 -0.158958 1.530607
v -1.741158 1.141157 1.530607
v 1.741158 1.141157 1.530607
v -3.482315 -0.158958 1.604913
v -3.482315 -0.809015 1.604913
v 1.741158 -0.809015 1.604913
v 3.482315 -0.809015 1.604913
v 3.482315 1.141157 1.604913
v 3.482315 1.791215 1.604913
v -1.741158 1.791215 1.604913
v -3.482315 1.791215 1.604913
v -3.482315 1.141157 1.604913
v -3.482315 0.491100 1.604913
v -1.741158 -0.809015 1.604913
v 0.000000 -0.809015 1.604913
v 3.482315 -0.158958 1.604913
v 3.482315 0.491100 1.604913
v 1.741158 1.791215 1.604913
v 0.000000 1.791215 1.604913
v 0.000000 1.141157 1.604913
v 0.000000 -0.158958 1.604913
v 0.000000 0.491100 1.604913
v -1.741158 0.491100 1.604913
v 1.741158 0.491100 1.604913
v 1.741158 -0.158958 1.604913
v -1.741158 -0.158958 1.604913
v -1.741158 1.141157 1.604913
v 1.741158 1.141157 1.604913
vn -0.0000 -0.0000 -1.0000
vn -0.0000 -0.0000 1.0000
vn -0.0000 -1.0000 -0.0000
vn 1.0000 -0.0000 -0.0000
vn -0.0000 1.0000 -0.0000
vn -1.0000 -0.0000 -0.0000
vt -0.002486 0.881750
vt 0.247514 0.881750
vt 0.247514 0.997919
vt 0.497514 0.881750
vt 0.747514 0.881750
vt 0.747514 0.997919
vt 0.497514 0.649411
vt 0.747514 0.649411
vt 0.747514 0.765580
vt -0.002486 0.649411
vt 0.247514 0.649411
vt 0.247514 0.765580
vt 0.497514 0.765580
vt 0.247514 0.533241
vt 0.497514 0.533241
vt -0.002486 0.533241
vt 0.997514 0.649411
vt 0.997514 0.765580
vt 0.747514 0.533241
vt 0.997514 0.533241
vt 0.997514 0.881750
vt 0.997514 0.997919
vt 0.497514 0.997919
vt -0.002486 0.765580
vt -0.002486 0.997919
vt 0.997514 0.417072
vt 0.747514 0.417072
vt 0.497514 0.417072
vt 0.247514 0.533241
vt 0.247514 0.417072
vt 0.497514 0.184733
vt 0.247514 0.300902
vt 0.247514 0.184733
vt 0.997514 0.184733
vt 0.747514 0.300902
vt 0.747514 0.184733
vt 0.497514 0.300902
vt 0.747514 0.068564
vt 0.497514 0.068563
vt 0.997514 0.068564
vt -0.002486 0.300902
vt -0.002486 0.184733
vt 0.247514 0.068563
vt -0.002486 0.068564
vt -0.002486 0.533241
vt -0.002486 0.417072
vt 0.997514 0.300902
vt 0.497514 0.050977
vt 0.247514 0.068563
vt 0.247514 0.050977
vt 0.747514 0.050977
vt 0.497514 0.068563
vt 0.134074 0.033391
vt 0.202353 0.002081
vt 0.202353 0.033391
vt 0.065794 0.033392
vt 0.134074 0.002081
vt 0.497514 0.033391
vt 0.247514 0.033391
vt 0.543751 0.002081
vt 0.475472 0.033392
vt 0.475472 0.002081
vt 0.747514 0.033391
vt 0.997514 0.050977
vt 0.747514 0.068563
vt 0.338913 0.002081
vt 0.270633 0.033391
vt 0.270633 0.002081
vt -0.002486 0.033392
vt 0.065794 0.002081
vt -0.002486 0.068563
vt -0.002486 0.050977
vt 0.997514 0.033391
vt 0.270633 0.002081
vt 0.407192 0.002081
vt 0.338913 0.033391
vt -0.002486 0.033392
vt 0.407192 0.033391
vt 0.543751 0.033392
vt 0.997514 0.068563
vt -0.002486 0.002081
s 0
usemtl Material.009
f 12/1/1 25/2/1 17/3/1
f 18/4/1 24/5/1 13/6/1
f 19/7/1 23/8/1 20/9/1
f 16/10/1 22/11/1 21/12/1
f 22/11/1 19/7/1 9/13/1
f 11/14/1 6/15/1 19/7/1
f 2/16/1 11/14/1 22/11/1
f 23/8/1 10/17/1 5/18/1
f 15/19/1 1/20/1 10/17/1
f 6/15/1 15/19/1 23/8/1
f 24/5/1 14/21/1 3/22/1
f 20/9/1 5/18/1 14/21/1
f 9/13/1 20/9/1 24/5/1
f 25/2/1 18/4/1 8/23/1
f 21/12/1 9/13/1 18/4/1
f 7/24/1 21/12/1 25/2/1
f 12/1/1 17/3/1 4/25/1
f 18/4/1 13/6/1 8/23/1
f 19/7/1 20/9/1 9/13/1
f 16/10/1 21/12/1 7/24/1
f 22/11/1 9/13/1 21/12/1
f 11/14/1 19/7/1 22/11/1
f 2/16/1 22/11/1 16/10/1
f 23/8/1 5/18/1 20/9/1
f 15/19/1 10/17/1 23/8/1
f 6/15/1 23/8/1 19/7/1
f 24/5/1 3/22/1 13/6/1
f 20/9/1 14/21/1 24/5/1
f 9/13/1 24/5/1 18/4/1
f 25/2/1 8/23/1 17/3/1
f 21/12/1 18/4/1 25/2/1
f 7/24/1 25/2/1 12/1/1
f 30/26/2 40/19/2 50/27/2
f 42/28/2 32/29/2 49/30/2
f 43/31/2 45/32/2 48/33/2
f 38/34/2 46/35/2 47/36/2
f 47/36/2 44/37/2 43/31/2
f 28/38/2 43/31/2 37/39/2
f 29/40/2 47/36/2 28/38/2
f 48/33/2 35/41/2 26/42/2
f 36/43/2 26/42/2 27/44/2
f 37/39/2 48/33/2 36/43/2
f 49/30/2 33/45/2 34/46/2
f 45/32/2 34/46/2 35/41/2
f 44/37/2 49/30/2 45/32/2
f 50/27/2 41/15/2 42/28/2
f 46/35/2 42/28/2 44/37/2
f 39/47/2 50/27/2 46/35/2
f 30/26/2 31/20/2 40/19/2
f 42/28/2 41/15/2 32/29/2
f 43/31/2 44/37/2 45/32/2
f 38/34/2 39/47/2 46/35/2
f 47/36/2 46/35/2 44/37/2
f 28/38/2 47/36/2 43/31/2
f 29/40/2 38/34/2 47/36/2
f 48/33/2 45/32/2 35/41/2
f 36/43/2 48/33/2 26/42/2
f 37/39/2 43/31/2 48/33/2
f 49/30/2 32/29/2 33/45/2
f 45/32/2 49/30/2 34/46/2
f 44/37/2 42/28/2 49/30/2
f 50/27/2 40/19/2 41/15/2
f 46/35/2 50/27/2 42/28/2
f 39/47/2 30/26/2 50/27/2
f 6/48/3 36/49/3 15/50/3
f 11/51/3 37/52/3 6/48/3
f 7/53/4 38/54/4 16/55/4
f 12/56/4 39/57/4 7/53/4
f 8/58/5 40/50/5 17/59/5
f 1/60/6 26/61/6 10/62/6
f 13/63/5 41/48/5 8/58/5
f 2/64/3 28/65/3 11/51/3
f 14/66/6 33/67/6 3/68/6
f 4/69/4 30/70/4 12/56/4
f 15/50/3 27/71/3 1/72/3
f 3/73/5 32/51/5 13/63/5
f 16/55/4 29/74/4 2/67/4
f 5/75/6 34/76/6 14/66/6
f 17/59/5 31/72/5 4/77/5
f 10/62/6 35/78/6 5/75/6
f 6/48/3 37/52/3 36/49/3
f 11/51/3 28/65/3 37/52/3
f 7/53/4 39/57/4 38/54/4
f 12/56/4 30/70/4 39/57/4
f 8/58/5 41/48/5 40/50/5
f 1/60/6 27/79/6 26/61/6
f 13/63/5 32/51/5 41/48/5
f 2/64/3 29/80/3 28/65/3
f 14/66/6 34/76/6 33/67/6
f 4/69/4 31/81/4 30/70/4
f 15/50/3 36/49/3 27/71/3
f 3/73/5 33/64/5 32/51/5
f 16/55/4 38/54/4 29/74/4
f 5/75/6 35/78/6 34/76/6
f 17/59/5 40/50/5 31/72/5
f 10/62/6 26/61/6 35/78/6
